<svg width="113" height="99" viewBox="0 0 113 99" fill="none" xmlns="http://www.w3.org/2000/svg">
<rect x="17.8253" y="39.5861" width="95" height="50" rx="25" fill="#E30000"/>
<path d="M38.8653 70.9757C35.4 70.9757 32.847 70.2397 31.2063 68.7677C29.5657 67.2957 28.7453 65.1951 28.7453 62.4657C28.7453 59.7211 29.5657 57.5514 31.2063 55.9567C32.847 54.3621 35.4 53.5647 38.8653 53.5647C43.7107 53.5647 46.9537 55.2284 48.5943 58.5557C47.2143 59.0311 45.5967 59.7441 43.7413 60.6947C43.2967 59.8361 42.5913 59.1997 41.6253 58.7857C40.6747 58.3717 39.701 58.1647 38.7043 58.1647C37.2323 58.1647 36.136 58.5557 35.4153 59.3377C34.6947 60.1044 34.3343 61.0551 34.3343 62.1897C34.3343 63.4164 34.7177 64.4207 35.4843 65.2027C36.2663 65.9694 37.4547 66.3527 39.0493 66.3527C40.322 66.3527 41.334 66.1457 42.0853 65.7317C42.8367 65.3024 43.3887 64.6277 43.7413 63.7077C44.9987 64.3824 46.6087 65.1414 48.5713 65.9847C47.8047 67.8401 46.5243 69.1357 44.7303 69.8717C42.9363 70.6077 40.9813 70.9757 38.8653 70.9757ZM55.8476 61.5457C55.8323 62.4657 55.8246 63.8764 55.8246 65.7777C55.8246 68.0624 55.8399 69.7184 55.8706 70.7457H50.4426L50.4656 68.1467C50.4962 65.2947 50.5116 63.0944 50.5116 61.5457C50.5116 60.0737 50.4962 57.9884 50.4656 55.2897L50.4426 52.8057H55.8706C55.8399 54.9831 55.8246 56.7617 55.8246 58.1417C55.8246 59.6751 55.8323 60.8097 55.8476 61.5457ZM72.4629 66.9277C72.4629 67.4491 72.5243 67.8171 72.6469 68.0317C72.7696 68.2464 73.0149 68.3997 73.3829 68.4917L73.2909 70.6537C72.8003 70.7304 72.3709 70.7841 72.0029 70.8147C71.6503 70.8454 71.1749 70.8607 70.5769 70.8607C69.2583 70.8607 68.3843 70.5694 67.9549 69.9867C67.5256 69.3887 67.3109 68.6297 67.3109 67.7097V67.1347C66.8663 68.3921 66.2146 69.3274 65.3559 69.9407C64.5126 70.5541 63.4316 70.8607 62.1129 70.8607C60.5796 70.8607 59.4219 70.5541 58.6399 69.9407C57.8733 69.3274 57.4899 68.4151 57.4899 67.2037C57.4899 66.2071 57.8196 65.4251 58.4789 64.8577C59.1383 64.2904 60.1579 63.8994 61.5379 63.6847C60.3726 62.8567 59.2073 62.1361 58.0419 61.5227C58.9619 60.3574 60.0123 59.4757 61.1929 58.8777C62.3736 58.2644 63.8073 57.9577 65.4939 57.9577C67.8553 57.9577 69.6033 58.4714 70.7379 59.4987C71.8879 60.5107 72.4629 62.0747 72.4629 64.1907V66.9277ZM65.9769 62.0057C65.1949 62.0057 64.5049 62.1361 63.9069 62.3967C63.3089 62.6574 62.7723 63.0484 62.2969 63.5697C63.2169 63.4624 64.3669 63.4087 65.7469 63.4087C66.3143 63.4087 66.7129 63.3397 66.9429 63.2017C67.1729 63.0637 67.2879 62.8874 67.2879 62.6727C67.2879 62.4887 67.1729 62.3354 66.9429 62.2127C66.7129 62.0747 66.3909 62.0057 65.9769 62.0057ZM63.5619 67.1117C64.4206 67.1117 65.1949 66.9507 65.8849 66.6287C66.5749 66.2914 67.0503 65.8544 67.3109 65.3177V64.7197C66.9429 64.9037 66.5366 65.0494 66.0919 65.1567C65.6473 65.2487 65.1106 65.3407 64.4819 65.4327L63.6539 65.5707C62.7953 65.7394 62.3659 66.0307 62.3659 66.4447C62.3659 66.8894 62.7646 67.1117 63.5619 67.1117ZM80.1038 61.5917C80.7478 59.2764 82.3501 58.1187 84.9108 58.1187C85.3554 58.1187 85.7848 58.1494 86.1988 58.2107L85.4628 63.3627C84.3588 62.9487 83.4541 62.7417 82.7488 62.7417C81.8748 62.7417 81.2308 63.0024 80.8168 63.5237C80.4028 64.0451 80.1958 64.7427 80.1958 65.6167V65.5937L80.1728 67.1117C80.1728 68.2004 80.2034 69.4117 80.2648 70.7457H74.7678C74.8904 68.5377 74.9518 66.4524 74.9518 64.4897C74.9518 62.5271 74.8904 60.4264 74.7678 58.1877C75.7798 58.2337 76.5541 58.2567 77.0908 58.2567C77.6581 58.2567 78.4324 58.2337 79.4138 58.1877L80.1038 61.5917ZM94.7519 70.9757C92.1299 70.9757 90.1979 70.3777 88.9559 69.1817C87.7292 67.9704 87.1159 66.3834 87.1159 64.4207C87.1159 62.5041 87.7292 60.9477 88.9559 59.7517C90.1979 58.5557 92.1299 57.9577 94.7519 57.9577C96.5152 57.9577 97.9872 58.2491 99.1679 58.8317C100.364 59.3991 101.246 60.1734 101.813 61.1547C102.38 62.1207 102.664 63.2094 102.664 64.4207C102.664 66.3987 102.005 67.9857 100.686 69.1817C99.3826 70.3777 97.4046 70.9757 94.7519 70.9757ZM94.8439 67.0657C95.8406 67.0657 96.5842 66.8281 97.0749 66.3527C97.5656 65.8774 97.8109 65.2411 97.8109 64.4437C97.8109 63.6924 97.5656 63.0791 97.0749 62.6037C96.5842 62.1131 95.8406 61.8677 94.8439 61.8677C93.8472 61.8677 93.1189 62.1054 92.6589 62.5807C92.1989 63.0561 91.9689 63.6771 91.9689 64.4437C91.9689 65.2411 92.1989 65.8774 92.6589 66.3527C93.1189 66.8281 93.8472 67.0657 94.8439 67.0657Z" fill="#ECF700"/>
<rect width="95" height="50" rx="24.4404" fill="#069A01"/>
<path d="M36.86 21.1891H24.348V23.6041C25.13 23.6195 26.303 23.6271 27.867 23.6271C30.5657 23.6271 33.3103 23.5811 36.101 23.4891V27.9971C33.3103 27.8898 30.3663 27.8361 27.269 27.8361C25.981 27.8361 25.0073 27.8438 24.348 27.8591V33.5861H18.92C19.0427 30.6115 19.104 27.8285 19.104 25.2371C19.104 22.6458 19.0427 19.8628 18.92 16.8881H36.86V21.1891ZM53.4511 29.7681C53.4511 30.2895 53.5124 30.6575 53.6351 30.8721C53.7578 31.0868 54.0031 31.2401 54.3711 31.3321L54.2791 33.4941C53.7884 33.5708 53.3591 33.6245 52.9911 33.6551C52.6384 33.6858 52.1631 33.7011 51.5651 33.7011C50.2464 33.7011 49.3724 33.4098 48.9431 32.8271C48.5138 32.2291 48.2991 31.4701 48.2991 30.5501V29.9751C47.8544 31.2325 47.2028 32.1678 46.3441 32.7811C45.5008 33.3945 44.4198 33.7011 43.1011 33.7011C41.5678 33.7011 40.4101 33.3945 39.6281 32.7811C38.8614 32.1678 38.4781 31.2555 38.4781 30.0441C38.4781 29.0475 38.8078 28.2655 39.4671 27.6981C40.1264 27.1308 41.1461 26.7398 42.5261 26.5251C41.3608 25.6971 40.1954 24.9765 39.0301 24.3631C39.9501 23.1978 41.0004 22.3161 42.1811 21.7181C43.3618 21.1048 44.7954 20.7981 46.4821 20.7981C48.8434 20.7981 50.5914 21.3118 51.7261 22.3391C52.8761 23.3511 53.4511 24.9151 53.4511 27.0311V29.7681ZM46.9651 24.8461C46.1831 24.8461 45.4931 24.9765 44.8951 25.2371C44.2971 25.4978 43.7604 25.8888 43.2851 26.4101C44.2051 26.3028 45.3551 26.2491 46.7351 26.2491C47.3024 26.2491 47.7011 26.1801 47.9311 26.0421C48.1611 25.9041 48.2761 25.7278 48.2761 25.5131C48.2761 25.3291 48.1611 25.1758 47.9311 25.0531C47.7011 24.9151 47.3791 24.8461 46.9651 24.8461ZM44.5501 29.9521C45.4088 29.9521 46.1831 29.7911 46.8731 29.4691C47.5631 29.1318 48.0384 28.6948 48.2991 28.1581V27.5601C47.9311 27.7441 47.5248 27.8898 47.0801 27.9971C46.6354 28.0891 46.0988 28.1811 45.4701 28.2731L44.6421 28.4111C43.7834 28.5798 43.3541 28.8711 43.3541 29.2851C43.3541 29.7298 43.7528 29.9521 44.5501 29.9521ZM61.1609 24.3861C61.1456 25.3061 61.1379 26.7168 61.1379 28.6181C61.1379 30.9028 61.1533 32.5588 61.1839 33.5861H55.7559L55.7789 30.9871C55.8096 28.1351 55.8249 25.9348 55.8249 24.3861C55.8249 22.9141 55.8096 20.8288 55.7789 18.1301L55.7559 15.6461H61.1839C61.1533 17.8235 61.1379 19.6021 61.1379 20.9821C61.1379 22.5155 61.1456 23.6501 61.1609 24.3861ZM70.4393 33.8161C67.8173 33.8161 65.8853 33.2181 64.6433 32.0221C63.4166 30.8108 62.8033 29.2238 62.8033 27.2611C62.8033 25.3445 63.4166 23.7881 64.6433 22.5921C65.8853 21.3961 67.8173 20.7981 70.4393 20.7981C72.2026 20.7981 73.6746 21.0895 74.8553 21.6721C76.0513 22.2395 76.9329 23.0138 77.5003 23.9951C78.0676 24.9611 78.3513 26.0498 78.3513 27.2611C78.3513 29.2391 77.6919 30.8261 76.3733 32.0221C75.0699 33.2181 73.0919 33.8161 70.4393 33.8161ZM70.5313 29.9061C71.5279 29.9061 72.2716 29.6685 72.7623 29.1931C73.2529 28.7178 73.4983 28.0815 73.4983 27.2841C73.4983 26.5328 73.2529 25.9195 72.7623 25.4441C72.2716 24.9535 71.5279 24.7081 70.5313 24.7081C69.5346 24.7081 68.8063 24.9458 68.3463 25.4211C67.8863 25.8965 67.6563 26.5175 67.6563 27.2841C67.6563 28.0815 67.8863 28.7178 68.3463 29.1931C68.8063 29.6685 69.5346 29.9061 70.5313 29.9061Z" fill="#ECF700"/>
<path d="M1.73035 34.2824C5.04846 42.9035 13.1108 49.1679 22.7196 49.8781C22.7435 49.8452 22.7687 49.8132 22.7928 49.7804C21.0684 52.1275 19.7945 54.5986 19.3153 56.1046C18.4348 58.872 17.6894 59.6777 15.869 57.5773C6.89069 46.5349 3.16238 38.2563 1.73035 34.2824ZM23.2098 49.2257C23.2904 49.1214 23.3717 49.0175 23.454 48.9142C23.3717 49.0175 23.2904 49.1215 23.2098 49.2257ZM23.6688 48.6486C23.76 48.537 23.8512 48.4255 23.9442 48.3156C23.8511 48.4255 23.76 48.5371 23.6688 48.6486ZM24.0927 48.1408C24.2263 47.9858 24.3628 47.8336 24.4999 47.6828C24.3627 47.8336 24.2263 47.9858 24.0927 48.1408ZM25.1337 46.9962C25.1148 47.0243 25.0952 47.0528 25.0702 47.0783C24.9188 47.2323 24.7697 47.3901 24.6219 47.5499C24.7698 47.3899 24.9187 47.2315 25.0702 47.0773C25.095 47.052 25.1149 47.0241 25.1337 46.9962ZM24.8016 45.7345C24.9102 45.881 24.9993 46.02 25.0673 46.1505C24.9992 46.0196 24.9096 45.8805 24.8007 45.7335L24.8016 45.7345ZM23.368 44.2628C23.5449 44.4168 23.7105 44.5678 23.8651 44.714C23.7105 44.5678 23.5449 44.4168 23.368 44.2628ZM20.8046 42.2872C21.3475 42.6701 21.8542 43.0462 22.3182 43.4074C21.8542 43.0462 21.3475 42.6701 20.8046 42.2872ZM18.5165 40.755C18.9207 41.0136 19.3144 41.2719 19.6962 41.5275C19.3144 41.2719 18.9207 41.0136 18.5165 40.755ZM12.786 37.3966C13.9743 38.0357 15.1678 38.7131 16.3212 39.4005C15.1678 38.7131 13.9743 38.0357 12.786 37.3966ZM8.8866 35.4298C9.57953 35.7546 10.2947 36.1051 11.0214 36.4747C10.2947 36.1051 9.57953 35.7546 8.8866 35.4298ZM5.28796 33.9074C5.62743 34.0306 5.9824 34.1671 6.35046 34.3156C5.9824 34.1671 5.62743 34.0306 5.28796 33.9074ZM2.29382 33.1525C2.45847 33.1592 2.64059 33.1789 2.83875 33.2111C2.64059 33.1789 2.45848 33.1593 2.29382 33.1525ZM1.65515 34.0763L1.41003 33.3585C1.49854 33.6278 1.6028 33.9279 1.72156 34.2579C1.69935 34.1962 1.67626 34.136 1.65515 34.0763ZM1.72156 34.2579C1.72413 34.2651 1.72678 34.2723 1.72937 34.2794L1.73035 34.2824C1.72741 34.2742 1.72448 34.2661 1.72156 34.2579Z" fill="#069A01"/>
<path d="M111.009 73.7748C107.685 82.3824 99.6289 88.6357 90.0299 89.3451C90.0178 89.3285 90.005 89.3119 89.9928 89.2953C91.699 91.6277 92.9583 94.0752 93.4342 95.5707C94.3147 98.3381 95.0601 99.1438 96.8805 97.0434C105.839 86.0254 109.57 77.759 111.009 73.7748ZM89.5201 88.6664C89.4681 88.5992 89.4157 88.5321 89.3629 88.4652C89.4157 88.5321 89.468 88.5992 89.5201 88.6664ZM89.0807 88.1137C88.9972 88.0115 88.9128 87.9099 88.8278 87.809C88.9129 87.9098 88.9971 88.0115 89.0807 88.1137ZM88.653 87.6029C88.5205 87.4494 88.3855 87.2984 88.2496 87.1488C88.3856 87.2983 88.5204 87.4494 88.653 87.6029ZM87.6158 86.4623C87.6347 86.4904 87.6543 86.5189 87.6793 86.5443C87.8307 86.6984 87.9798 86.8561 88.1276 87.016C87.9798 86.8561 87.8307 86.6984 87.6793 86.5443C87.6544 86.5189 87.6347 86.4903 87.6158 86.4623ZM87.8004 85.4145H87.7994H87.8004ZM89.109 83.9711H89.108H89.109ZM95.2467 79.5844C93.2673 80.8081 91.465 82.0364 90.1012 83.1293C91.465 82.0364 93.2673 80.8081 95.2467 79.5844ZM103.372 75.1264C102.66 75.4672 101.927 75.8333 101.186 76.2172C101.927 75.8333 102.66 75.4672 103.372 75.1264ZM107.306 73.4301C106.722 73.646 106.095 73.9001 105.435 74.185C106.095 73.9001 106.722 73.646 107.306 73.4301ZM111.034 73.7074C111.141 73.4102 111.235 73.1377 111.317 72.89C111.235 73.1376 111.141 73.4102 111.034 73.7074Z" fill="#E30000"/>
</svg>
