<svg width="535" height="126" viewBox="0 0 535 126" fill="none" xmlns="http://www.w3.org/2000/svg">
<path d="M80.0543 103.382C80.6053 103.42 81.0824 103.003 81.12 102.452C81.1576 101.901 80.7414 101.424 80.1904 101.387L80.1223 102.384L80.0543 103.382ZM8.07088 0.292893C7.68035 -0.0976311 7.04719 -0.0976311 6.65666 0.292893L0.292702 6.65685C-0.0978227 7.04738 -0.0978227 7.68054 0.292702 8.07107C0.683226 8.46159 1.31639 8.46159 1.70692 8.07107L7.36377 2.41421L13.0206 8.07107C13.4111 8.46159 14.0443 8.46159 14.4348 8.07107C14.8254 7.68054 14.8254 7.04738 14.4348 6.65685L8.07088 0.292893ZM80.1223 102.384L80.1904 101.387C49.8695 99.3183 8.36377 66.6025 8.36377 1H7.36377H6.36377C6.36377 67.4818 48.5204 101.231 80.0543 103.382L80.1223 102.384Z" fill="#151515"/>
<path d="M432.002 65.3013C431.459 65.1987 430.936 65.5553 430.833 66.098C430.731 66.6406 431.087 67.1638 431.63 67.2665L431.816 66.2839L432.002 65.3013ZM496.348 35.736L497.288 36.0795L496.348 35.736ZM486.802 35.736L487.667 35.2333V35.2333L486.802 35.736ZM525.657 1.55737C525.128 1.39834 524.57 1.69816 524.411 2.22705L521.82 10.8458C521.661 11.3747 521.961 11.9324 522.489 12.0914C523.018 12.2505 523.576 11.9506 523.735 11.4218L526.039 3.76062L533.7 6.06431C534.229 6.22335 534.786 5.92352 534.946 5.39463C535.105 4.86574 534.805 4.30807 534.276 4.14903L525.657 1.55737ZM431.816 66.2839L431.63 67.2665C446.012 69.9874 460.68 66.9117 472.598 60.8329C484.494 54.7655 493.794 45.6298 497.288 36.0795L496.348 35.736L495.409 35.3924C492.145 44.3153 483.306 53.1265 471.69 59.0513C460.096 64.9646 445.877 67.9263 432.002 65.3013L431.816 66.2839ZM496.348 35.736L497.288 36.0795C498.773 32.0185 498.573 28.9593 497.159 26.9519C495.74 24.9376 493.324 24.298 491.103 24.5983C488.885 24.8984 486.652 26.1538 485.44 28.2179C484.194 30.3403 484.133 33.1338 485.938 36.2386L486.802 35.736L487.667 35.2333C486.157 32.6372 486.348 30.6231 487.165 29.2304C488.017 27.7793 489.659 26.8119 491.371 26.5802C493.082 26.3488 494.654 26.8685 495.524 28.1036C496.398 29.3455 496.787 31.6255 495.409 35.3924L496.348 35.736ZM486.802 35.736L485.938 36.2386C488.552 40.7345 493.727 43.0194 499.463 43.4631C505.219 43.9082 511.724 42.5258 517.305 39.4774C522.89 36.4263 527.619 31.6648 529.691 25.3062C531.768 18.9303 531.123 11.1046 526.25 2.04148L525.369 2.51501L524.488 2.98855C529.162 11.6814 529.662 18.9388 527.789 24.6866C525.911 30.4517 521.595 34.8547 516.346 37.7222C511.091 40.5924 504.971 41.8831 499.618 41.469C494.244 41.0535 489.826 38.9472 487.667 35.2333L486.802 35.736Z" fill="#151515"/>
<rect x="161.282" y="29.3508" width="264.777" height="42.0973" rx="21.0486" transform="rotate(3.4581 161.282 29.3508)" fill="#FFE3E3"/>
<path d="M187.394 57.5258L188.037 46.8892L190.48 47.0369L189.837 57.6735L187.394 57.5258ZM184.901 48.1103L185.024 46.082L193.568 46.5983L193.446 48.6266L184.901 48.1103ZM194.54 57.9576L195.243 46.3149L197.607 46.4577L197.349 50.7219L197.429 50.7267C197.678 50.325 198.011 50.0192 198.43 49.8095C198.86 49.6003 199.34 49.5118 199.873 49.544C200.458 49.5794 200.957 49.7271 201.369 49.987C201.792 50.237 202.111 50.609 202.327 51.1029C202.544 51.5862 202.63 52.2004 202.585 52.9458L202.254 58.4238L199.89 58.2809L200.201 53.1383C200.235 52.574 200.132 52.1457 199.894 51.8534C199.655 51.5505 199.323 51.3862 198.897 51.3605C198.408 51.3309 198.01 51.4618 197.704 51.7532C197.408 52.0452 197.243 52.4787 197.208 53.0537L196.903 58.1005L194.54 57.9576ZM208.266 58.9795C207.383 58.9261 206.627 58.6934 206 58.2815C205.374 57.859 204.906 57.2964 204.596 56.5937C204.286 55.8804 204.158 55.0766 204.212 54.1822C204.264 53.3198 204.491 52.5747 204.892 51.9471C205.305 51.3095 205.842 50.829 206.502 50.5056C207.164 50.1716 207.899 50.029 208.708 50.0779C209.539 50.1281 210.247 50.3419 210.833 50.7193C211.42 51.086 211.855 51.5878 212.137 52.2246C212.43 52.8621 212.551 53.6014 212.5 54.4425C212.491 54.5916 212.476 54.751 212.455 54.9207C212.434 55.0798 212.41 55.2119 212.383 55.3171L205.308 54.8895L205.395 53.4362L210.873 53.7672L210.271 53.9232C210.311 53.4447 210.265 53.0412 210.136 52.7128C210.017 52.385 209.829 52.1332 209.572 51.9574C209.316 51.771 208.991 51.6659 208.598 51.6421C208.225 51.6196 207.89 51.6795 207.593 51.8218C207.296 51.9641 207.057 52.2008 206.877 52.5319C206.697 52.8523 206.591 53.2734 206.56 53.7951L206.5 54.7853C206.46 55.4454 206.608 56.0047 206.944 56.4631C207.279 56.9215 207.804 57.1723 208.517 57.2154C208.9 57.2385 209.267 57.1806 209.618 57.0414C209.969 56.8917 210.267 56.6425 210.512 56.294L212.142 57.4504C211.906 57.8102 211.605 58.1126 211.237 58.3575C210.87 58.5918 210.438 58.7634 209.94 58.8722C209.442 58.981 208.884 59.0168 208.266 58.9795ZM221.373 59.7394C220.542 59.6892 219.921 59.4486 219.509 59.0177C219.097 58.576 218.915 57.9613 218.963 57.1734L219.444 49.2199L221.869 48.3406L221.348 56.9649C221.329 57.2736 221.39 57.507 221.53 57.6651C221.67 57.8232 221.879 57.9106 222.155 57.9273C222.262 57.9337 222.374 57.9352 222.492 57.9316C222.61 57.9174 222.74 57.8932 222.881 57.8589L222.777 59.5838C222.537 59.6548 222.305 59.6995 222.079 59.718C221.853 59.7471 221.617 59.7542 221.373 59.7394ZM217.884 52.4758L217.984 50.8308L223.302 51.1521L223.203 52.7971L217.884 52.4758ZM224.501 59.7681L225.015 51.2556L227.203 51.3879L227.11 52.9211L227.19 52.9259C227.371 52.4132 227.667 52.0144 228.08 51.7294C228.504 51.4344 228.987 51.3033 229.53 51.3362C229.626 51.3419 229.716 51.3527 229.801 51.3685C229.886 51.3737 229.96 51.3888 230.023 51.414L229.891 53.586C229.798 53.5376 229.683 53.5039 229.545 53.4849C229.407 53.4659 229.248 53.451 229.067 53.44C228.705 53.4181 228.386 53.479 228.11 53.6226C227.835 53.7556 227.609 53.961 227.431 54.2388C227.265 54.5173 227.17 54.8588 227.145 55.2634L226.864 59.911L224.501 59.7681ZM233.17 60.4844C232.319 60.4329 231.651 60.1628 231.168 59.6741C230.684 59.1854 230.465 58.5684 230.51 57.8231C230.553 57.1097 230.833 56.5389 231.351 56.1107C231.869 55.6718 232.665 55.41 233.739 55.3253L236.623 55.0668L236.543 56.3924L234.285 56.6246C233.812 56.6708 233.447 56.7877 233.19 56.9752C232.944 57.1527 232.81 57.4277 232.788 57.8004C232.768 58.1198 232.859 58.3871 233.06 58.6023C233.272 58.8074 233.575 58.9219 233.969 58.9457C234.309 58.9663 234.607 58.9095 234.861 58.7752C235.115 58.6303 235.32 58.4236 235.475 58.1552C235.631 57.876 235.721 57.5395 235.744 57.1456L235.891 54.718C235.916 54.3134 235.823 53.9872 235.614 53.7395C235.404 53.4917 235.076 53.3543 234.629 53.3273C234.245 53.3041 233.926 53.3757 233.67 53.5419C233.425 53.7087 233.238 53.9753 233.109 54.3415L230.995 53.7809C231.253 53.0379 231.725 52.484 232.41 52.1193C233.105 51.7552 233.91 51.6008 234.826 51.6562C236.04 51.7295 236.917 52.071 237.457 52.6807C238.008 53.2804 238.255 54.07 238.195 55.0496L237.958 58.9784L238.468 60.6122L236.057 60.4664L235.741 59.3253L235.645 59.3195C235.386 59.7206 235.041 60.0257 234.612 60.2349C234.194 60.434 233.713 60.5172 233.17 60.4844ZM240.113 60.7115L240.627 52.1991L242.991 52.3419L242.476 60.8544L240.113 60.7115ZM241.921 51.2193C241.527 51.1955 241.21 51.0428 240.97 50.7612C240.731 50.4795 240.622 50.1577 240.644 49.7957C240.667 49.4231 240.813 49.122 241.083 48.8926C241.354 48.6525 241.687 48.5443 242.081 48.5681C242.475 48.5919 242.781 48.7387 243 49.0084C243.23 49.2681 243.334 49.5842 243.311 49.9569C243.289 50.3189 243.148 50.6256 242.887 50.877C242.626 51.1284 242.304 51.2425 241.921 51.2193ZM250.048 61.3119L250.359 56.1693C250.393 55.605 250.291 55.1767 250.052 54.8845C249.814 54.5815 249.482 54.4172 249.056 54.3915C248.566 54.3619 248.168 54.4981 247.861 54.8002C247.565 55.1028 247.4 55.531 247.367 56.0847L247.062 61.1315L244.698 60.9886L245.212 52.4762L247.401 52.6084L247.319 53.9499L247.399 53.9548C247.641 53.4885 247.988 53.1355 248.441 52.8957C248.905 52.6459 249.435 52.539 250.031 52.575C250.617 52.6104 251.116 52.7581 251.527 53.018C251.95 53.268 252.27 53.64 252.486 54.1339C252.702 54.6172 252.788 55.2315 252.743 55.9768L252.412 61.4548L250.048 61.3119ZM258.425 62.0105C257.541 61.9571 256.786 61.7244 256.159 61.3125C255.532 60.89 255.064 60.3274 254.754 59.6247C254.445 58.9114 254.317 58.1076 254.371 57.2132C254.423 56.3508 254.65 55.6058 255.051 54.9782C255.463 54.3405 256 53.86 256.661 53.5366C257.322 53.2026 258.057 53.06 258.867 53.1089C259.697 53.1591 260.405 53.3729 260.992 53.7503C261.579 54.117 262.013 54.6188 262.295 55.2556C262.588 55.8931 262.709 56.6324 262.658 57.4736C262.649 57.6226 262.634 57.782 262.613 57.9517C262.593 58.1108 262.569 58.2429 262.541 58.3481L255.466 57.9206L255.554 56.4672L261.032 56.7982L260.429 56.9542C260.469 56.4757 260.424 56.0722 260.294 55.7438C260.175 55.416 259.987 55.1642 259.731 54.9885C259.475 54.802 259.15 54.6969 258.756 54.6731C258.383 54.6506 258.048 54.7105 257.751 54.8528C257.454 54.9951 257.216 55.2318 257.035 55.5629C256.856 55.8833 256.75 56.3044 256.718 56.8261L256.659 57.8163C256.619 58.4764 256.767 59.0357 257.102 59.4941C257.438 59.9525 257.962 60.2033 258.676 60.2464C259.059 60.2696 259.426 60.2116 259.776 60.0725C260.127 59.9227 260.425 59.6736 260.671 59.3251L262.3 60.4814C262.065 60.8412 261.763 61.1436 261.396 61.3885C261.029 61.6228 260.596 61.7944 260.098 61.9032C259.6 62.012 259.042 62.0478 258.425 62.0105ZM264.069 62.1592L264.583 53.6467L266.771 53.7789L266.679 55.3121L266.759 55.317C266.939 54.8043 267.236 54.4054 267.648 54.1205C268.072 53.8255 268.556 53.6944 269.099 53.7272C269.195 53.733 269.285 53.7438 269.369 53.7596C269.454 53.7647 269.528 53.7799 269.591 53.8051L269.46 55.9771C269.366 55.9287 269.251 55.895 269.113 55.876C268.975 55.857 268.816 55.842 268.635 55.8311C268.273 55.8092 267.954 55.8701 267.678 56.0137C267.403 56.1467 267.177 56.3521 267 56.6299C266.833 56.9084 266.738 57.2499 266.714 57.6545L266.433 62.302L264.069 62.1592ZM274.69 62.801L275.205 54.2885L277.568 54.4314L277.054 62.9439L274.69 62.801ZM276.498 53.3088C276.104 53.285 275.787 53.1323 275.548 52.8506C275.309 52.569 275.2 52.2472 275.222 51.8852C275.244 51.5125 275.391 51.2115 275.661 50.982C275.932 50.742 276.264 50.6338 276.658 50.6576C277.052 50.6814 277.359 50.8282 277.577 51.0979C277.808 51.3575 277.911 51.6737 277.889 52.0464C277.867 52.4084 277.725 52.7151 277.465 52.9664C277.204 53.2178 276.881 53.3319 276.498 53.3088ZM282.378 63.4579C281.356 63.3962 280.537 63.1543 279.922 62.7324C279.307 62.2999 278.93 61.7215 278.792 60.9972L281.039 60.6841C281.133 61.0851 281.307 61.3842 281.562 61.5813C281.828 61.779 282.174 61.8908 282.6 61.9165C282.994 61.9403 283.308 61.8738 283.542 61.7169C283.775 61.5601 283.902 61.3273 283.92 61.0185C283.936 60.7523 283.875 60.5349 283.735 60.3662C283.607 60.1981 283.385 60.0671 283.07 59.9733L281.388 59.4229C280.717 59.2113 280.212 58.903 279.873 58.4978C279.534 58.0926 279.383 57.5866 279.42 56.9797C279.451 56.458 279.628 56.0092 279.95 55.6332C280.272 55.2573 280.705 54.9789 281.251 54.7982C281.797 54.6067 282.421 54.5323 283.124 54.5747C283.73 54.6114 284.269 54.7241 284.738 54.9127C285.219 55.0914 285.61 55.3394 285.911 55.6568C286.213 55.9636 286.405 56.3279 286.487 56.7495L284.316 57.1313C284.228 56.8054 284.067 56.5606 283.831 56.3967C283.595 56.2328 283.301 56.1403 282.95 56.1191C282.577 56.0966 282.285 56.1537 282.074 56.2905C281.874 56.4174 281.765 56.6245 281.748 56.912C281.736 57.1143 281.794 57.2942 281.924 57.4516C282.053 57.609 282.285 57.7459 282.62 57.8624L284.271 58.3949C284.691 58.5271 285.054 58.704 285.361 58.9256C285.668 59.1472 285.898 59.4229 286.049 59.7526C286.211 60.0723 286.278 60.4664 286.25 60.9349C286.215 61.5098 286.036 61.9959 285.713 62.3931C285.39 62.7797 284.945 63.0681 284.378 63.2582C283.812 63.4377 283.145 63.5043 282.378 63.4579ZM295.764 64.2669C294.881 64.2134 294.12 63.9805 293.482 63.5679C292.845 63.1554 292.365 62.6028 292.044 61.9101C291.722 61.2175 291.588 60.4346 291.641 59.5615C291.695 58.6672 291.923 57.9009 292.325 57.2626C292.727 56.6244 293.269 56.1389 293.952 55.8061C294.635 55.4627 295.418 55.3177 296.302 55.3711C297.186 55.4245 297.946 55.6575 298.584 56.07C299.222 56.4825 299.701 57.0351 300.023 57.7278C300.345 58.4098 300.479 59.198 300.425 60.0924C300.371 60.9761 300.143 61.7424 299.741 62.3913C299.339 63.0295 298.797 63.515 298.114 63.8478C297.431 64.1806 296.648 64.3203 295.764 64.2669ZM295.872 62.4941C296.266 62.5179 296.612 62.4427 296.911 62.2684C297.221 62.0947 297.467 61.8158 297.651 61.4315C297.846 61.0372 297.961 60.5419 297.997 59.9457C298.034 59.3281 297.98 58.8172 297.833 58.413C297.697 58.0094 297.486 57.7028 297.2 57.4931C296.924 57.2841 296.589 57.1677 296.195 57.1438C295.801 57.12 295.449 57.195 295.139 57.3686C294.84 57.5429 294.594 57.8218 294.4 58.2055C294.216 58.5898 294.106 59.0907 294.068 59.7082C294.032 60.3151 294.081 60.8204 294.217 61.224C294.364 61.6282 294.575 61.9349 294.851 62.1439C295.137 62.3535 295.478 62.4703 295.872 62.4941ZM301.744 67.6417L302.452 55.9351L304.688 56.0702L304.609 57.3798L304.688 57.3846C304.845 57.0948 305.058 56.8459 305.327 56.6377C305.596 56.4296 305.899 56.2716 306.237 56.1638C306.585 56.0566 306.957 56.0149 307.35 56.0387C308.064 56.0818 308.676 56.3005 309.186 56.6946C309.707 57.0895 310.097 57.6313 310.354 58.3201C310.623 58.9989 310.73 59.7961 310.675 60.7117C310.62 61.6168 310.418 62.3953 310.069 63.0474C309.731 63.6896 309.285 64.1755 308.73 64.5054C308.176 64.8352 307.548 64.9789 306.845 64.9364C306.462 64.9133 306.109 64.8278 305.786 64.6801C305.475 64.533 305.203 64.3403 304.972 64.1019C304.751 63.8642 304.58 63.5974 304.459 63.3015L304.379 63.2967L304.108 67.7845L301.744 67.6417ZM306.185 63.1173C306.59 63.1418 306.937 63.0559 307.227 62.8597C307.517 62.6528 307.749 62.3569 307.922 61.972C308.106 61.577 308.214 61.1081 308.247 60.565C308.281 60.0114 308.229 59.5328 308.093 59.1292C307.969 58.7156 307.775 58.3939 307.511 58.1642C307.247 57.9239 306.913 57.7915 306.509 57.7671C306.115 57.7433 305.767 57.8345 305.466 58.0407C305.166 58.2363 304.924 58.5315 304.74 58.9265C304.567 59.3114 304.464 59.7807 304.43 60.3344C304.398 60.8668 304.444 61.3397 304.569 61.7533C304.704 62.1676 304.909 62.4952 305.183 62.7362C305.457 62.9665 305.791 63.0935 306.185 63.1173ZM316.116 65.4967C315.233 65.4433 314.477 65.2106 313.85 64.7987C313.224 64.3762 312.756 63.8136 312.446 63.1109C312.136 62.3976 312.008 61.5938 312.062 60.6994C312.115 59.837 312.341 59.092 312.743 58.4644C313.155 57.8268 313.692 57.3463 314.352 57.0229C315.014 56.6888 315.749 56.5462 316.558 56.5951C317.389 56.6453 318.097 56.8591 318.683 57.2365C319.27 57.6032 319.705 58.105 319.987 58.7419C320.28 59.3793 320.401 60.1187 320.35 60.9598C320.341 61.1088 320.326 61.2682 320.305 61.4379C320.285 61.597 320.261 61.7291 320.233 61.8343L313.158 61.4068L313.246 59.9534L318.724 60.2845L318.121 60.4404C318.161 59.9619 318.116 59.5585 317.986 59.23C317.867 58.9023 317.679 58.6505 317.422 58.4747C317.167 58.2882 316.842 58.1831 316.448 58.1593C316.075 58.1368 315.74 58.1967 315.443 58.339C315.146 58.4814 314.907 58.7181 314.727 59.0491C314.547 59.3695 314.442 59.7906 314.41 60.3123L314.35 61.3025C314.31 61.9627 314.458 62.5219 314.794 62.9803C315.129 63.4387 315.654 63.6895 316.367 63.7326C316.751 63.7558 317.117 63.6978 317.468 63.5587C317.819 63.4089 318.117 63.1598 318.363 62.8113L319.992 63.9677C319.756 64.3274 319.455 64.6298 319.087 64.8748C318.721 65.1091 318.288 65.2806 317.79 65.3894C317.292 65.4983 316.734 65.534 316.116 65.4967ZM327.111 65.9687L327.422 60.8261C327.456 60.2618 327.353 59.8335 327.115 59.5412C326.876 59.2383 326.544 59.074 326.119 59.0483C325.629 59.0187 325.23 59.1549 324.924 59.4569C324.628 59.7596 324.463 60.1878 324.429 60.7415L324.124 65.7882L321.761 65.6454L322.275 57.1329L324.463 57.2652L324.382 58.6067L324.462 58.6115C324.704 58.1453 325.051 57.7923 325.504 57.5524C325.968 57.3026 326.498 57.1958 327.094 57.2318C327.679 57.2672 328.178 57.4149 328.59 57.6748C329.013 57.9248 329.332 58.2967 329.548 58.7907C329.765 59.2739 329.851 59.8882 329.806 60.6335L329.475 66.1116L327.111 65.9687ZM338.104 66.8254C337.252 66.7739 336.585 66.5038 336.101 66.0151C335.618 65.5264 335.399 64.9094 335.444 64.1641C335.487 63.4507 335.767 62.8799 336.284 62.4517C336.803 62.0128 337.598 61.751 338.672 61.6663L341.557 61.4078L341.477 62.7334L339.219 62.9656C338.746 63.0118 338.381 63.1287 338.124 63.3162C337.878 63.4937 337.744 63.7687 337.721 64.1414C337.702 64.4608 337.793 64.7281 337.993 64.9433C338.205 65.1484 338.508 65.2629 338.902 65.2867C339.243 65.3073 339.54 65.2505 339.794 65.1162C340.049 64.9713 340.254 64.7646 340.409 64.4961C340.564 64.217 340.654 63.8805 340.678 63.4866L340.825 61.059C340.849 60.6544 340.757 60.3282 340.547 60.0805C340.338 59.8327 340.01 59.6953 339.562 59.6683C339.179 59.6451 338.859 59.7167 338.604 59.8829C338.358 60.0497 338.171 60.3163 338.042 60.6825L335.928 60.1219C336.187 59.3788 336.659 58.825 337.343 58.4602C338.038 58.0962 338.844 57.9418 339.76 57.9972C340.973 58.0705 341.85 58.412 342.39 59.0217C342.942 59.6214 343.188 60.411 343.129 61.3906L342.892 65.3194L343.402 66.9532L340.99 66.8074L340.675 65.6663L340.579 65.6605C340.319 66.0616 339.975 66.3667 339.546 66.5759C339.128 66.775 338.647 66.8582 338.104 66.8254ZM350.397 67.3758L350.707 62.2332C350.741 61.6689 350.639 61.2406 350.4 60.9484C350.162 60.6454 349.83 60.4811 349.404 60.4554C348.914 60.4258 348.516 60.562 348.209 60.8641C347.913 61.1667 347.748 61.5949 347.715 62.1486L347.41 67.1954L345.046 67.0525L345.561 58.5401L347.749 58.6723L347.668 60.0138L347.747 60.0187C347.989 59.5524 348.337 59.1994 348.789 58.9596C349.253 58.7098 349.783 58.6029 350.38 58.6389C350.965 58.6743 351.464 58.822 351.876 59.0819C352.299 59.3319 352.618 59.7039 352.834 60.1978C353.051 60.6811 353.136 61.2954 353.091 62.0407L352.76 67.5187L350.397 67.3758ZM358.022 68.029C357.32 67.9865 356.708 67.7679 356.187 67.3731C355.676 66.9789 355.286 66.4424 355.018 65.7636C354.76 65.0748 354.659 64.2726 354.714 63.357C354.769 62.4519 354.965 61.6784 355.303 61.0363C355.653 60.3841 356.104 59.8932 356.659 59.5633C357.213 59.2335 357.841 59.0898 358.544 59.1323C358.938 59.1561 359.285 59.2412 359.586 59.3876C359.898 59.5347 360.164 59.7271 360.385 59.9648C360.616 60.2032 360.793 60.4704 360.914 60.7662L360.994 60.771L361.261 56.3471L363.625 56.4899L362.921 68.1327L360.685 67.9976L360.764 66.688L360.7 66.6841C360.545 66.9632 360.332 67.2122 360.062 67.431C359.793 67.6391 359.484 67.7968 359.136 67.904C358.798 68.0118 358.427 68.0535 358.022 68.029ZM358.864 66.3006C359.269 66.3251 359.621 66.2395 359.922 66.044C360.223 65.8377 360.46 65.5422 360.632 65.1572C360.806 64.7616 360.909 64.287 360.943 63.7333C360.976 63.1903 360.924 62.717 360.788 62.3134C360.664 61.8998 360.464 61.5779 360.189 61.3476C359.915 61.1066 359.581 60.9742 359.187 60.9504C358.794 60.9266 358.446 61.0178 358.145 61.224C357.855 61.4202 357.619 61.7105 357.435 62.0948C357.262 62.4797 357.159 62.949 357.126 63.5027C357.092 64.0563 357.138 64.54 357.263 64.9536C357.398 65.3572 357.598 65.6791 357.861 65.9195C358.136 66.1498 358.47 66.2768 358.864 66.3006ZM370.051 68.5635L370.603 59.4282C370.654 58.5871 370.949 57.9424 371.489 57.4941C372.04 57.0465 372.736 56.8482 373.577 56.899C373.854 56.9157 374.082 56.9455 374.261 56.9884C374.44 57.0313 374.639 57.1021 374.857 57.2007L374.763 58.7659C374.638 58.7049 374.518 58.6603 374.402 58.6319C374.297 58.6042 374.175 58.5861 374.037 58.5778C373.717 58.5585 373.461 58.6392 373.269 58.8199C373.087 58.9906 372.987 59.2356 372.968 59.5551L372.415 68.7064L370.051 68.5635ZM369.109 61.614L369.208 59.969L374.526 60.2904L374.427 61.9354L369.109 61.614ZM375.725 68.9064L376.239 60.3939L378.427 60.5261L378.334 62.0593L378.414 62.0642C378.595 61.5515 378.892 61.1526 379.304 60.8677C379.728 60.5727 380.211 60.4416 380.754 60.4744C380.85 60.4802 380.94 60.491 381.025 60.5068C381.11 60.5119 381.184 60.5271 381.247 60.5523L381.115 62.7243C381.022 62.6759 380.907 62.6422 380.769 62.6232C380.631 62.6042 380.472 62.5892 380.291 62.5783C379.929 62.5564 379.61 62.6173 379.334 62.7609C379.059 62.8939 378.833 63.0993 378.656 63.3771C378.489 63.6556 378.394 63.9971 378.369 64.4017L378.088 69.0492L375.725 68.9064ZM385.849 69.7105C384.965 69.6571 384.21 69.4245 383.583 69.0126C382.956 68.59 382.488 68.0274 382.178 67.3248C381.868 66.6115 381.741 65.8076 381.795 64.9132C381.847 64.0508 382.073 63.3058 382.475 62.6782C382.887 62.0406 383.424 61.5601 384.085 61.2367C384.746 60.9026 385.481 60.7601 386.29 60.809C387.121 60.8591 387.829 61.0729 388.416 61.4503C389.003 61.817 389.437 62.3188 389.719 62.9557C390.012 63.5932 390.133 64.3325 390.082 65.1736C390.073 65.3227 390.058 65.4821 390.037 65.6518C390.017 65.8108 389.993 65.943 389.965 66.0481L382.89 65.6206L382.978 64.1673L388.456 64.4983L387.853 64.6542C387.893 64.1757 387.848 63.7723 387.718 63.4439C387.599 63.1161 387.411 62.8643 387.155 62.6885C386.899 62.5021 386.574 62.3969 386.18 62.3731C385.807 62.3506 385.472 62.4105 385.175 62.5529C384.878 62.6952 384.639 62.9319 384.459 63.263C384.279 63.5834 384.174 64.0044 384.142 64.5261L384.082 65.5163C384.043 66.1765 384.19 66.7357 384.526 67.1942C384.862 67.6526 385.386 67.9033 386.1 67.9464C386.483 67.9696 386.85 67.9116 387.2 67.7725C387.551 67.6227 387.849 67.3736 388.095 67.0251L389.724 68.1815C389.488 68.5413 389.187 68.8436 388.82 69.0886C388.453 69.3229 388.02 69.4944 387.522 69.6033C387.024 69.7121 386.466 69.7478 385.849 69.7105ZM395.378 70.2864C394.494 70.233 393.739 70.0003 393.112 69.5884C392.486 69.1659 392.018 68.6033 391.707 67.9006C391.398 67.1873 391.27 66.3835 391.324 65.4891C391.376 64.6267 391.603 63.8817 392.004 63.2541C392.417 62.6164 392.953 62.1359 393.614 61.8125C394.275 61.4785 395.011 61.3359 395.82 61.3848C396.65 61.435 397.359 61.6488 397.945 62.0262C398.532 62.3929 398.967 62.8947 399.249 63.5315C399.541 64.169 399.662 64.9083 399.612 65.7495C399.602 65.8985 399.588 66.0579 399.567 66.2276C399.546 66.3867 399.522 66.5188 399.495 66.624L392.419 66.1965L392.507 64.7431L397.985 65.0741L397.383 65.2301C397.422 64.7516 397.377 64.3481 397.248 64.0197C397.128 63.6919 396.941 63.4401 396.684 63.2644C396.428 63.0779 396.103 62.9728 395.709 62.949C395.337 62.9265 395.002 62.9864 394.705 63.1287C394.408 63.271 394.169 63.5077 393.989 63.8388C393.809 64.1592 393.703 64.5803 393.672 65.102L393.612 66.0922C393.572 66.7523 393.72 67.3116 394.056 67.77C394.391 68.2284 394.916 68.4792 395.629 68.5223C396.012 68.5455 396.379 68.4875 396.729 68.3484C397.081 68.1986 397.379 67.9495 397.624 67.601L399.253 68.7573C399.018 69.1171 398.717 69.4195 398.349 69.6644C397.982 69.8987 397.55 70.0703 397.052 70.1791C396.554 70.2879 395.996 70.3237 395.378 70.2864Z" fill="black"/>
<rect x="89.3521" y="83.804" width="283.778" height="42.0973" rx="21.0486" transform="rotate(-1.99477 89.3521 83.804)" fill="#FAF7BF"/>
<path d="M115.744 109.45L115.373 98.8L117.819 98.7148L118.19 109.364L115.744 109.45ZM112.368 100.313L112.297 98.2827L120.852 97.9848L120.923 100.016L112.368 100.313ZM122.898 109.2L122.492 97.5434L124.859 97.461L125.007 101.73L125.087 101.728C125.297 101.304 125.6 100.968 125.997 100.719C126.404 100.47 126.875 100.337 127.408 100.318C127.994 100.298 128.504 100.397 128.939 100.617C129.384 100.825 129.737 101.165 129.999 101.637C130.261 102.097 130.404 102.7 130.43 103.447L130.622 108.931L128.255 109.014L128.076 103.865C128.056 103.3 127.913 102.883 127.648 102.615C127.382 102.336 127.036 102.204 126.609 102.219C126.119 102.236 125.735 102.404 125.458 102.723C125.192 103.042 125.069 103.489 125.089 104.065L125.265 109.118L122.898 109.2ZM136.66 108.913C135.775 108.944 135.001 108.784 134.338 108.434C133.674 108.073 133.155 107.557 132.779 106.887C132.403 106.206 132.2 105.418 132.168 104.523C132.138 103.659 132.293 102.896 132.633 102.233C132.983 101.559 133.472 101.03 134.099 100.645C134.725 100.25 135.444 100.038 136.254 100.01C137.085 99.9809 137.811 100.126 138.43 100.446C139.049 100.756 139.53 101.214 139.871 101.821C140.223 102.428 140.414 103.152 140.443 103.994C140.448 104.144 140.448 104.304 140.444 104.475C140.439 104.635 140.427 104.769 140.41 104.876L133.326 105.123L133.275 103.668L138.76 103.477L138.175 103.689C138.169 103.209 138.086 102.812 137.925 102.497C137.776 102.182 137.565 101.949 137.293 101.799C137.02 101.638 136.687 101.564 136.292 101.577C135.919 101.59 135.592 101.682 135.309 101.852C135.027 102.022 134.812 102.28 134.664 102.627C134.515 102.963 134.45 103.392 134.469 103.914L134.503 104.906C134.526 105.567 134.726 106.109 135.104 106.534C135.482 106.958 136.028 107.158 136.742 107.133C137.126 107.12 137.485 107.027 137.821 106.855C138.156 106.673 138.429 106.397 138.641 106.026L140.372 107.023C140.172 107.403 139.901 107.733 139.558 108.012C139.215 108.28 138.801 108.492 138.316 108.647C137.83 108.803 137.278 108.892 136.66 108.913ZM150.196 108.442C149.375 108.47 148.639 108.314 147.986 107.974C147.344 107.623 146.831 107.123 146.445 106.475C146.059 105.816 145.851 105.034 145.819 104.127C145.788 103.221 145.941 102.431 146.281 101.758C146.62 101.074 147.098 100.539 147.714 100.155C148.341 99.7703 149.06 99.5638 149.87 99.5356C150.84 99.5018 151.646 99.6765 152.289 100.06C152.943 100.432 153.417 101.013 153.711 101.803L151.672 102.547C151.507 102.104 151.282 101.786 150.998 101.594C150.713 101.39 150.369 101.295 149.964 101.309C149.612 101.322 149.301 101.434 149.031 101.646C148.76 101.848 148.547 102.154 148.39 102.565C148.244 102.965 148.181 103.458 148.202 104.044C148.222 104.631 148.319 105.124 148.493 105.523C148.678 105.922 148.912 106.218 149.197 106.411C149.491 106.593 149.814 106.678 150.166 106.666C150.571 106.652 150.909 106.533 151.178 106.31C151.458 106.076 151.665 105.728 151.798 105.264L153.868 105.864C153.63 106.673 153.203 107.296 152.589 107.734C151.974 108.172 151.177 108.408 150.196 108.442ZM159.351 108.123C158.466 108.154 157.687 107.994 157.013 107.644C156.339 107.294 155.809 106.789 155.423 106.13C155.037 105.471 154.829 104.705 154.799 103.831C154.767 102.935 154.922 102.151 155.261 101.477C155.6 100.804 156.094 100.269 156.742 99.8726C157.39 99.4658 158.156 99.247 159.041 99.2162C159.925 99.1854 160.705 99.345 161.379 99.6951C162.053 100.045 162.582 100.55 162.968 101.209C163.354 101.857 163.562 102.629 163.593 103.524C163.624 104.409 163.47 105.194 163.131 105.878C162.791 106.551 162.298 107.086 161.65 107.482C161.002 107.879 160.236 108.092 159.351 108.123ZM159.289 106.348C159.683 106.334 160.021 106.226 160.302 106.024C160.594 105.822 160.813 105.521 160.959 105.121C161.116 104.71 161.184 104.206 161.163 103.609C161.141 102.991 161.038 102.487 160.854 102.099C160.68 101.71 160.441 101.425 160.136 101.243C159.841 101.061 159.497 100.977 159.102 100.991C158.708 101.005 158.365 101.113 158.073 101.315C157.792 101.517 157.573 101.818 157.416 102.219C157.27 102.619 157.208 103.128 157.229 103.746C157.25 104.354 157.348 104.852 157.521 105.241C157.706 105.629 157.945 105.914 158.24 106.096C158.545 106.278 158.895 106.362 159.289 106.348ZM169.229 107.779C168.451 107.806 167.775 107.707 167.202 107.481C166.628 107.245 166.177 106.871 165.85 106.36C165.523 105.848 165.345 105.192 165.317 104.393L165.136 99.196L167.503 99.1136L167.681 104.23C167.701 104.806 167.833 105.234 168.078 105.513C168.333 105.793 168.695 105.924 169.164 105.908C169.601 105.893 169.937 105.737 170.173 105.441C170.418 105.144 170.531 104.708 170.511 104.132L170.333 99.015L172.7 98.9326L172.881 104.129C172.908 104.929 172.777 105.595 172.486 106.128C172.195 106.662 171.766 107.066 171.199 107.342C170.643 107.607 169.986 107.752 169.229 107.779ZM175.132 107.381L174.835 98.8582L177.026 98.7819L177.079 100.317L177.159 100.314C177.29 99.7867 177.548 99.3614 177.931 99.0386C178.325 98.7046 178.794 98.5282 179.338 98.5093C179.434 98.5059 179.525 98.5081 179.61 98.5158C179.696 98.5128 179.771 98.5209 179.835 98.54L179.911 100.715C179.814 100.675 179.695 100.653 179.556 100.647C179.417 100.641 179.257 100.641 179.076 100.648C178.714 100.66 178.402 100.751 178.141 100.92C177.88 101.079 177.674 101.305 177.524 101.598C177.385 101.891 177.323 102.24 177.337 102.645L177.499 107.299L175.132 107.381ZM184.659 107.241C183.636 107.277 182.798 107.114 182.145 106.753C181.491 106.38 181.062 105.84 180.856 105.132L183.063 104.607C183.194 104.998 183.396 105.279 183.668 105.451C183.952 105.622 184.307 105.701 184.733 105.686C185.128 105.672 185.434 105.576 185.652 105.398C185.87 105.219 185.973 104.976 185.962 104.666C185.953 104.4 185.871 104.189 185.716 104.035C185.572 103.88 185.339 103.77 185.016 103.707L183.29 103.319C182.602 103.172 182.07 102.913 181.694 102.542C181.318 102.171 181.12 101.681 181.098 101.074C181.08 100.551 181.214 100.088 181.498 99.6828C181.783 99.278 182.188 98.9597 182.714 98.7279C183.239 98.4855 183.853 98.352 184.557 98.3275C185.165 98.3063 185.711 98.3674 186.196 98.5105C186.692 98.6427 187.105 98.8525 187.435 99.1398C187.765 99.4165 187.99 99.7609 188.111 100.173L185.986 100.759C185.869 100.443 185.685 100.215 185.434 100.074C185.184 99.9333 184.883 99.8691 184.531 99.8813C184.158 99.8943 183.873 99.979 183.675 100.135C183.488 100.281 183.4 100.497 183.41 100.785C183.417 100.987 183.492 101.161 183.636 101.305C183.78 101.45 184.024 101.564 184.368 101.648L186.062 102.021C186.493 102.113 186.871 102.255 187.198 102.446C187.525 102.637 187.779 102.89 187.961 103.204C188.153 103.507 188.257 103.893 188.273 104.362C188.293 104.937 188.161 105.438 187.877 105.864C187.593 106.28 187.177 106.609 186.631 106.852C186.084 107.085 185.427 107.215 184.659 107.241ZM193.922 106.919C193.037 106.95 192.263 106.79 191.6 106.439C190.936 106.078 190.417 105.563 190.041 104.893C189.665 104.212 189.462 103.424 189.431 102.528C189.4 101.665 189.555 100.902 189.895 100.239C190.245 99.5649 190.734 99.0356 191.361 98.6509C191.987 98.2555 192.706 98.0437 193.516 98.0155C194.347 97.9865 195.073 98.132 195.692 98.452C196.312 98.7613 196.792 99.2195 197.133 99.8267C197.485 100.433 197.676 101.158 197.705 102C197.71 102.149 197.711 102.309 197.706 102.48C197.701 102.641 197.689 102.774 197.672 102.882L190.588 103.128L190.537 101.673L196.022 101.482L195.437 101.695C195.431 101.215 195.348 100.817 195.188 100.503C195.038 100.188 194.827 99.955 194.555 99.8044C194.282 99.6431 193.949 99.5693 193.554 99.5831C193.181 99.5961 192.854 99.6875 192.571 99.8575C192.289 100.027 192.074 100.286 191.926 100.632C191.778 100.968 191.713 101.398 191.731 101.92L191.765 102.911C191.788 103.572 191.989 104.115 192.366 104.539C192.744 104.964 193.29 105.164 194.004 105.139C194.388 105.125 194.748 105.033 195.083 104.861C195.418 104.679 195.692 104.402 195.903 104.032L197.635 105.028C197.434 105.409 197.163 105.739 196.82 106.017C196.478 106.285 196.063 106.497 195.578 106.653C195.092 106.809 194.54 106.897 193.922 106.919ZM207.426 109.65C206.402 109.686 205.527 109.535 204.8 109.197C204.074 108.871 203.542 108.313 203.205 107.524L205.34 106.777C205.525 107.176 205.786 107.466 206.123 107.646C206.461 107.838 206.869 107.925 207.349 107.908C208.01 107.885 208.499 107.676 208.816 107.281C209.144 106.896 209.296 106.357 209.272 105.664L209.231 104.496L209.151 104.499C208.981 104.825 208.767 105.105 208.508 105.338C208.26 105.56 207.978 105.735 207.662 105.864C207.357 105.992 207.018 106.062 206.645 106.075C205.973 106.099 205.364 105.939 204.819 105.595C204.284 105.25 203.856 104.764 203.535 104.134C203.214 103.505 203.04 102.775 203.011 101.943C202.981 101.101 203.105 100.36 203.382 99.7211C203.668 99.0707 204.072 98.555 204.592 98.174C205.113 97.793 205.719 97.5904 206.412 97.5663C206.796 97.5529 207.15 97.594 207.473 97.6894C207.797 97.7849 208.09 97.9401 208.354 98.1551C208.628 98.359 208.856 98.6125 209.037 98.9158L209.117 98.913L209.073 97.6657L211.312 97.5878L211.586 105.439C211.616 106.324 211.466 107.071 211.135 107.68C210.815 108.3 210.336 108.775 209.696 109.107C209.067 109.438 208.31 109.62 207.426 109.65ZM207.414 104.271C207.819 104.257 208.157 104.144 208.427 103.932C208.697 103.709 208.9 103.409 209.036 103.03C209.183 102.652 209.248 102.217 209.231 101.727C209.213 101.226 209.118 100.797 208.946 100.44C208.784 100.072 208.56 99.7915 208.276 99.5986C207.992 99.3951 207.647 99.3004 207.242 99.3145C206.858 99.3278 206.526 99.4461 206.245 99.6694C205.975 99.8816 205.772 100.177 205.636 100.555C205.499 100.923 205.44 101.357 205.457 101.858C205.475 102.359 205.564 102.794 205.727 103.162C205.889 103.519 206.112 103.799 206.396 104.003C206.691 104.195 207.031 104.285 207.414 104.271ZM213.827 106.033L213.531 97.5105L215.897 97.4281L216.194 105.951L213.827 106.033ZM214.725 96.4122C214.331 96.426 214.001 96.304 213.736 96.0465C213.471 95.7889 213.332 95.4788 213.319 95.1164C213.306 94.7433 213.423 94.4297 213.671 94.1756C213.918 93.9108 214.238 93.7716 214.633 93.7578C215.027 93.7441 215.346 93.8611 215.589 94.1088C215.843 94.3454 215.977 94.6503 215.99 95.0234C216.002 95.3858 215.89 95.7046 215.655 95.9796C215.419 96.2547 215.109 96.3989 214.725 96.4122ZM220.273 105.809L217.322 97.3784L219.864 97.2899L221.854 104.297L221.934 104.294L223.43 97.1657L225.957 97.0777L223.615 105.692L220.273 105.809ZM231.321 105.616C230.436 105.647 229.662 105.487 228.999 105.137C228.336 104.776 227.816 104.26 227.44 103.59C227.064 102.909 226.861 102.121 226.83 101.226C226.8 100.362 226.955 99.5992 227.294 98.9363C227.644 98.2623 228.133 97.733 228.76 97.3483C229.387 96.9529 230.105 96.7411 230.915 96.7129C231.747 96.6839 232.472 96.8294 233.092 97.1494C233.711 97.4587 234.191 97.9169 234.532 98.5241C234.884 99.1308 235.075 99.8553 235.104 100.697C235.11 100.847 235.11 101.007 235.105 101.178C235.1 101.338 235.089 101.472 235.071 101.579L227.987 101.826L227.937 100.371L233.421 100.18L232.836 100.392C232.83 99.9121 232.747 99.5148 232.587 99.2002C232.437 98.8852 232.226 98.6524 231.954 98.5018C231.682 98.3405 231.348 98.2667 230.954 98.2805C230.581 98.2935 230.253 98.3849 229.971 98.5549C229.688 98.7248 229.473 98.9831 229.325 99.3298C229.177 99.6658 229.112 100.095 229.13 100.617L229.164 101.609C229.187 102.27 229.388 102.812 229.766 103.237C230.143 103.661 230.689 103.861 231.403 103.836C231.787 103.823 232.147 103.73 232.482 103.558C232.818 103.376 233.091 103.1 233.302 102.729L235.034 103.726C234.834 104.106 234.562 104.436 234.22 104.715C233.877 104.983 233.463 105.195 232.977 105.35C232.491 105.506 231.94 105.595 231.321 105.616ZM240.079 105.311C239.055 105.347 238.217 105.184 237.564 104.822C236.911 104.45 236.481 103.91 236.275 103.202L238.482 102.677C238.613 103.067 238.815 103.349 239.088 103.521C239.371 103.692 239.726 103.77 240.153 103.756C240.547 103.742 240.853 103.646 241.071 103.467C241.289 103.289 241.393 103.045 241.382 102.736C241.373 102.47 241.291 102.259 241.136 102.104C240.992 101.949 240.758 101.84 240.436 101.777L238.709 101.388C238.021 101.242 237.489 100.983 237.113 100.611C236.738 100.24 236.539 99.751 236.518 99.1433C236.5 98.621 236.633 98.1574 236.918 97.7526C237.203 97.3477 237.608 97.0294 238.133 96.7977C238.659 96.5552 239.273 96.4218 239.976 96.3973C240.584 96.3761 241.131 96.4371 241.616 96.5803C242.111 96.7125 242.524 96.9222 242.855 97.2096C243.184 97.4863 243.41 97.8306 243.531 98.2427L241.406 98.829C241.288 98.5129 241.104 98.2845 240.854 98.1438C240.603 98.0031 240.302 97.9389 239.951 97.9511C239.577 97.9641 239.292 98.0488 239.095 98.2051C238.908 98.3503 238.819 98.5669 238.829 98.8547C238.836 99.0572 238.912 99.2307 239.056 99.3751C239.199 99.5195 239.443 99.6338 239.788 99.7178L241.482 100.091C241.912 100.183 242.291 100.324 242.617 100.516C242.944 100.707 243.199 100.96 243.38 101.274C243.572 101.577 243.676 101.963 243.693 102.432C243.713 103.007 243.581 103.508 243.297 103.934C243.012 104.35 242.597 104.679 242.05 104.922C241.504 105.155 240.846 105.284 240.079 105.311ZM251.267 107.931L252.421 104.289L253.071 103.194L254.777 96.0739L257.255 95.9876L253.618 107.849L251.267 107.931ZM251.795 104.695L248.429 96.295L250.907 96.2087L253.14 102.871L253.828 102.847L253.842 104.624L251.795 104.695ZM262.569 104.528C261.685 104.559 260.905 104.399 260.231 104.049C259.557 103.699 259.028 103.194 258.642 102.535C258.256 101.876 258.048 101.11 258.017 100.236C257.986 99.3402 258.14 98.5557 258.48 97.8821C258.819 97.2086 259.313 96.6737 259.961 96.2776C260.608 95.8708 261.374 95.652 262.259 95.6212C263.144 95.5904 263.923 95.75 264.597 96.1001C265.271 96.4502 265.801 96.9547 266.187 97.6137C266.572 98.262 266.781 99.0339 266.812 99.9293C266.843 100.814 266.689 101.599 266.35 102.283C266.01 102.956 265.516 103.491 264.869 103.887C264.221 104.283 263.454 104.497 262.569 104.528ZM262.508 102.753C262.902 102.739 263.24 102.631 263.521 102.429C263.813 102.227 264.032 101.926 264.178 101.526C264.334 101.115 264.402 100.611 264.381 100.014C264.36 99.3957 264.257 98.8923 264.073 98.5038C263.899 98.1149 263.66 97.8298 263.354 97.6483C263.06 97.4664 262.715 97.3824 262.321 97.3961C261.927 97.4098 261.584 97.5178 261.292 97.7201C261.011 97.922 260.792 98.2232 260.635 98.6235C260.489 99.0235 260.426 99.5327 260.448 100.151C260.469 100.759 260.566 101.257 260.74 101.646C260.924 102.034 261.164 102.319 261.458 102.501C261.763 102.683 262.113 102.767 262.508 102.753ZM272.448 104.184C271.67 104.211 270.994 104.112 270.42 103.886C269.847 103.65 269.396 103.276 269.069 102.764C268.741 102.253 268.564 101.597 268.536 100.798L268.355 95.601L270.721 95.5186L270.9 100.635C270.92 101.211 271.052 101.639 271.297 101.918C271.552 102.198 271.914 102.329 272.383 102.313C272.82 102.298 273.156 102.142 273.391 101.845C273.637 101.549 273.75 101.113 273.73 100.537L273.552 95.42L275.918 95.3376L276.099 100.534C276.127 101.334 275.996 102 275.705 102.533C275.414 103.066 274.985 103.471 274.418 103.747C273.862 104.012 273.205 104.157 272.448 104.184ZM285.614 103.725C284.911 103.75 284.281 103.59 283.725 103.247C283.179 102.903 282.74 102.406 282.408 101.756C282.086 101.094 281.909 100.305 281.877 99.3886C281.846 98.4825 281.968 97.6938 282.243 97.0224C282.529 96.3401 282.932 95.8084 283.452 95.4274C283.973 95.0464 284.585 94.8436 285.288 94.8191C285.683 94.8054 286.037 94.8571 286.35 94.9742C286.675 95.091 286.958 95.2572 287.2 95.4729C287.453 95.6883 287.654 95.9374 287.803 96.2204L287.883 96.2176L287.728 91.7883L290.095 91.7059L290.501 103.363L288.262 103.441L288.217 102.13L288.153 102.132C288.024 102.424 287.836 102.693 287.588 102.936C287.34 103.169 287.048 103.355 286.711 103.495C286.385 103.634 286.02 103.711 285.614 103.725ZM286.288 101.925C286.693 101.91 287.036 101.792 287.316 101.569C287.596 101.335 287.804 101.018 287.94 100.618C288.075 100.208 288.133 99.7257 288.113 99.1714C288.095 98.6277 287.998 98.1615 287.825 97.7726C287.661 97.3727 287.432 97.0712 287.137 96.868C286.841 96.6542 286.496 96.5541 286.102 96.5678C285.707 96.5816 285.37 96.7054 285.09 96.9393C284.82 97.1621 284.612 97.4736 284.466 97.8736C284.331 98.2732 284.272 98.7502 284.292 99.3045C284.311 99.8588 284.402 100.336 284.566 100.736C284.739 101.125 284.969 101.426 285.254 101.64C285.549 101.844 285.894 101.938 286.288 101.925ZM292.717 103.286L292.42 94.7628L294.787 94.6804L295.084 103.203L292.717 103.286ZM293.615 93.6646C293.22 93.6783 292.891 93.5564 292.625 93.2988C292.36 93.0412 292.221 92.7312 292.209 92.3687C292.196 91.9956 292.313 91.682 292.56 91.4279C292.807 91.1632 293.128 91.0239 293.522 91.0102C293.917 90.9964 294.236 91.1134 294.479 91.3611C294.733 91.5977 294.866 91.9026 294.879 92.2757C294.892 92.6382 294.78 92.9569 294.544 93.2319C294.308 93.507 293.999 93.6512 293.615 93.6646ZM297.308 103.126L297.011 94.6029L299.202 94.5266L299.255 96.0617L299.335 96.0589C299.466 95.5313 299.724 95.1061 300.107 94.7832C300.501 94.4493 300.97 94.2729 301.514 94.254C301.61 94.2506 301.701 94.2528 301.786 94.2605C301.871 94.2575 301.946 94.2656 302.011 94.2847L302.087 96.4594C301.989 96.4201 301.871 96.3975 301.732 96.3917C301.593 96.3858 301.433 96.3861 301.252 96.3924C300.89 96.405 300.578 96.4959 300.317 96.6651C300.056 96.8236 299.85 97.0496 299.7 97.343C299.561 97.636 299.498 97.985 299.513 98.3901L299.675 103.043L297.308 103.126ZM307.463 102.964C306.578 102.995 305.804 102.835 305.141 102.485C304.477 102.124 303.957 101.608 303.582 100.938C303.206 100.257 303.002 99.4693 302.971 98.5739C302.941 97.7104 303.096 96.9472 303.436 96.2843C303.786 95.6104 304.274 95.081 304.901 94.6963C305.528 94.3009 306.246 94.0891 307.056 94.0609C307.888 94.032 308.613 94.1775 309.233 94.4974C309.852 94.8067 310.332 95.265 310.674 95.8721C311.026 96.4789 311.216 97.2034 311.246 98.0455C311.251 98.1948 311.251 98.3548 311.246 98.5258C311.241 98.6861 311.23 98.8199 311.212 98.9272L304.129 99.1739L304.078 97.7188L309.563 97.5278L308.978 97.7403C308.972 97.2602 308.888 96.8628 308.728 96.5482C308.578 96.2333 308.367 96.0005 308.095 95.8498C307.823 95.6886 307.489 95.6148 307.095 95.6285C306.722 95.6415 306.394 95.733 306.112 95.9029C305.83 96.0728 305.615 96.3312 305.467 96.6778C305.318 97.0139 305.253 97.4431 305.271 97.9654L305.306 98.9568C305.329 99.6178 305.529 100.16 305.907 100.585C306.285 101.009 306.83 101.209 307.545 101.184C307.928 101.171 308.288 101.078 308.624 100.907C308.959 100.724 309.232 100.448 309.443 100.077L311.175 101.074C310.975 101.454 310.703 101.784 310.361 102.063C310.018 102.331 309.604 102.543 309.118 102.698C308.633 102.854 308.081 102.943 307.463 102.964ZM316.892 102.636C316.071 102.664 315.334 102.509 314.682 102.168C314.04 101.817 313.526 101.317 313.141 100.669C312.755 100.01 312.546 99.2276 312.515 98.3215C312.483 97.4154 312.637 96.6255 312.977 95.952C313.316 95.2678 313.793 94.7335 314.41 94.3491C315.037 93.9644 315.755 93.7579 316.566 93.7297C317.536 93.6959 318.342 93.8706 318.985 94.2538C319.639 94.626 320.112 95.2072 320.407 95.9974L318.367 96.7408C318.203 96.2983 317.978 95.9806 317.694 95.7877C317.409 95.5841 317.064 95.4894 316.659 95.5035C316.308 95.5158 315.997 95.628 315.727 95.8402C315.456 96.0417 315.243 96.348 315.086 96.7591C314.94 97.1591 314.877 97.6522 314.897 98.2385C314.918 98.8248 315.015 99.3177 315.189 99.7173C315.374 100.116 315.608 100.412 315.892 100.605C316.187 100.787 316.51 100.872 316.862 100.86C317.267 100.846 317.604 100.727 317.874 100.504C318.154 100.27 318.361 99.9217 318.494 99.4581L320.564 100.058C320.326 100.867 319.899 101.49 319.285 101.928C318.67 102.366 317.872 102.602 316.892 102.636ZM325.485 102.304C324.654 102.333 324.012 102.153 323.561 101.763C323.109 101.363 322.87 100.768 322.843 99.979L322.565 92.0158L324.896 90.91L325.197 99.5448C325.208 99.854 325.29 100.081 325.445 100.225C325.599 100.369 325.815 100.436 326.092 100.426C326.199 100.422 326.31 100.413 326.427 100.398C326.544 100.373 326.671 100.337 326.808 100.289L326.868 102.016C326.636 102.11 326.409 102.176 326.186 102.216C325.964 102.266 325.73 102.296 325.485 102.304ZM321.322 95.4052L321.265 93.7582L326.59 93.5727L326.647 95.2197L321.322 95.4052ZM328.602 102.036L328.305 93.513L330.671 93.4305L330.968 101.953L328.602 102.036ZM329.499 92.4147C329.105 92.4285 328.775 92.3065 328.51 92.0489C328.245 91.7913 328.106 91.4813 328.093 91.1189C328.08 90.7458 328.197 90.4322 328.445 90.1781C328.692 89.9133 329.012 89.7741 329.407 89.7603C329.801 89.7466 330.12 89.8636 330.364 90.1112C330.617 90.3479 330.751 90.6528 330.764 91.0259C330.776 91.3883 330.665 91.7071 330.429 91.9821C330.193 92.2572 329.883 92.4014 329.499 92.4147ZM337.165 101.93C336.28 101.96 335.501 101.801 334.827 101.451C334.153 101.101 333.623 100.596 333.237 99.9372C332.851 99.2782 332.643 98.5117 332.613 97.6375C332.581 96.7421 332.736 95.9576 333.075 95.284C333.414 94.6104 333.908 94.0756 334.556 93.6795C335.204 93.2727 335.97 93.0539 336.855 93.0231C337.739 92.9923 338.519 93.1519 339.193 93.502C339.867 93.8521 340.397 94.3566 340.782 95.0156C341.168 95.6639 341.376 96.4357 341.407 97.3312C341.438 98.216 341.284 99.0005 340.945 99.6847C340.606 100.358 340.112 100.893 339.464 101.289C338.816 101.685 338.05 101.899 337.165 101.93ZM337.103 100.155C337.497 100.141 337.835 100.033 338.116 99.8313C338.408 99.629 338.627 99.3279 338.773 98.9279C338.93 98.5168 338.998 98.0128 338.977 97.4159C338.955 96.7976 338.852 96.2942 338.668 95.9057C338.494 95.5168 338.255 95.2317 337.95 95.0502C337.655 94.8683 337.311 94.7843 336.916 94.798C336.522 94.8117 336.179 94.9197 335.887 95.122C335.606 95.3239 335.387 95.6251 335.23 96.0254C335.084 96.4254 335.022 96.9346 335.043 97.5529C335.064 98.1605 335.162 98.6587 335.335 99.0476C335.52 99.4361 335.759 99.7213 336.054 99.9031C336.359 100.085 336.709 100.168 337.103 100.155ZM348.684 101.336L348.504 96.1875C348.485 95.6225 348.342 95.2059 348.077 94.9376C347.811 94.6587 347.465 94.5267 347.038 94.5415C346.548 94.5586 346.164 94.732 345.888 95.0619C345.622 95.3913 345.498 95.8332 345.518 96.3876L345.694 101.441L343.327 101.523L343.03 93.0001L345.221 92.9238L345.268 94.267L345.348 94.2642C345.544 93.7771 345.856 93.3926 346.284 93.1109C346.722 92.8181 347.24 92.6614 347.837 92.6406C348.423 92.6202 348.933 92.7198 349.368 92.9395C349.813 93.1481 350.166 93.488 350.428 93.9592C350.69 94.4197 350.833 95.023 350.859 95.7693L351.05 101.254L348.684 101.336Z" fill="#151515"/>
</svg>
