<svg width="337" height="97" viewBox="0 0 337 97" fill="none" xmlns="http://www.w3.org/2000/svg">
<rect x="71.9302" width="264.777" height="42.0973" rx="21.0486" transform="rotate(3.4581 71.9302 0)" fill="#FFE3E3"/>
<path d="M98.0418 28.175L98.6846 17.5384L101.128 17.686L100.485 28.3226L98.0418 28.175ZM95.5492 18.7595L95.6718 16.7312L104.216 17.2475L104.094 19.2758L95.5492 18.7595ZM105.188 28.6068L105.891 16.964L108.255 17.1069L107.997 21.3711L108.077 21.3759C108.326 20.9742 108.659 20.6684 109.078 20.4586C109.508 20.2495 109.988 20.161 110.521 20.1932C111.106 20.2285 111.605 20.3762 112.017 20.6362C112.44 20.8862 112.759 21.2581 112.975 21.752C113.192 22.2353 113.278 22.8496 113.232 23.5949L112.901 29.0729L110.538 28.9301L110.849 23.7875C110.883 23.2232 110.78 22.7949 110.541 22.5026C110.303 22.1997 109.971 22.0354 109.545 22.0096C109.056 21.98 108.658 22.1109 108.352 22.4023C108.056 22.6944 107.891 23.1279 107.856 23.7028L107.551 28.7496L105.188 28.6068ZM118.914 29.6286C118.031 29.5752 117.275 29.3426 116.648 28.9307C116.022 28.5081 115.554 27.9455 115.243 27.2429C114.934 26.5296 114.806 25.7257 114.86 24.8314C114.912 23.9689 115.139 23.2239 115.54 22.5963C115.953 21.9587 116.489 21.4782 117.15 21.1548C117.812 20.8207 118.547 20.6782 119.356 20.7271C120.186 20.7772 120.895 20.991 121.481 21.3684C122.068 21.7352 122.503 22.2369 122.785 22.8738C123.078 23.5113 123.198 24.2506 123.148 25.0917C123.139 25.2408 123.124 25.4002 123.103 25.5699C123.082 25.7289 123.058 25.8611 123.031 25.9663L115.956 25.5387L116.043 24.0854L121.521 24.4164L120.919 24.5723C120.959 24.0939 120.913 23.6904 120.784 23.362C120.665 23.0342 120.477 22.7824 120.22 22.6066C119.964 22.4202 119.639 22.3151 119.245 22.2912C118.873 22.2687 118.538 22.3286 118.241 22.471C117.944 22.6133 117.705 22.85 117.525 23.1811C117.345 23.5015 117.239 23.9225 117.208 24.4443L117.148 25.4345C117.108 26.0946 117.256 26.6539 117.592 27.1123C117.927 27.5707 118.452 27.8214 119.165 27.8645C119.548 27.8877 119.915 27.8297 120.266 27.6906C120.617 27.5408 120.915 27.2917 121.16 26.9432L122.79 28.0996C122.554 28.4594 122.253 28.7617 121.885 29.0067C121.518 29.241 121.086 29.4126 120.588 29.5214C120.09 29.6302 119.532 29.6659 118.914 29.6286ZM132.021 30.3886C131.19 30.3384 130.569 30.0978 130.157 29.6668C129.745 29.2252 129.563 28.6104 129.611 27.8225L130.092 19.8691L132.517 18.9898L131.996 27.614C131.977 27.9228 132.038 28.1562 132.178 28.3143C132.318 28.4724 132.526 28.5597 132.803 28.5765C132.91 28.5829 133.022 28.5843 133.14 28.5808C133.258 28.5666 133.388 28.5423 133.529 28.5081L133.424 30.233C133.185 30.304 132.953 30.3487 132.727 30.3671C132.501 30.3962 132.265 30.4034 132.021 30.3886ZM128.532 23.1249L128.632 21.4799L133.95 21.8013L133.851 23.4463L128.532 23.1249ZM135.149 30.4173L135.663 21.9048L137.851 22.037L137.758 23.5702L137.838 23.5751C138.019 23.0624 138.315 22.6635 138.728 22.3786C139.152 22.0836 139.635 21.9525 140.178 21.9853C140.274 21.9911 140.364 22.0019 140.449 22.0177C140.534 22.0229 140.608 22.038 140.67 22.0632L140.539 24.2352C140.446 24.1868 140.33 24.1531 140.193 24.1341C140.055 24.1151 139.896 24.1001 139.715 24.0892C139.353 24.0673 139.034 24.1282 138.758 24.2718C138.483 24.4048 138.256 24.6102 138.079 24.888C137.913 25.1665 137.817 25.508 137.793 25.9126L137.512 30.5601L135.149 30.4173ZM143.818 31.1335C142.967 31.0821 142.299 30.812 141.816 30.3233C141.332 29.8346 141.113 29.2175 141.158 28.4722C141.201 27.7589 141.481 27.1881 141.999 26.7598C142.517 26.321 143.313 26.0591 144.387 25.9744L147.271 25.716L147.191 27.0415L144.933 27.2738C144.46 27.32 144.095 27.4368 143.838 27.6243C143.592 27.8018 143.458 28.0769 143.436 28.4496C143.416 28.769 143.507 29.0363 143.708 29.2514C143.92 29.4566 144.223 29.5711 144.617 29.5949C144.957 29.6155 145.255 29.5586 145.509 29.4244C145.763 29.2795 145.968 29.0728 146.123 28.8043C146.279 28.5252 146.369 28.1887 146.392 27.7947L146.539 25.3672C146.564 24.9626 146.471 24.6364 146.262 24.3886C146.052 24.1409 145.724 24.0035 145.277 23.9765C144.893 23.9533 144.574 24.0248 144.318 24.191C144.073 24.3579 143.886 24.6244 143.757 24.9906L141.643 24.4301C141.901 23.687 142.373 23.1331 143.058 22.7684C143.753 22.4044 144.558 22.25 145.474 22.3053C146.688 22.3787 147.565 22.7202 148.105 23.3299C148.656 23.9296 148.903 24.7192 148.843 25.6988L148.606 29.6276L149.116 31.2613L146.705 31.1156L146.389 29.9745L146.293 29.9687C146.034 30.3698 145.689 30.6749 145.26 30.8841C144.842 31.0832 144.361 31.1664 143.818 31.1335ZM150.761 31.3607L151.275 22.8482L153.639 22.9911L153.124 31.5035L150.761 31.3607ZM152.569 21.8685C152.175 21.8447 151.858 21.692 151.618 21.4103C151.379 21.1287 151.27 20.8069 151.292 20.4449C151.315 20.0722 151.461 19.7712 151.731 19.5417C152.002 19.3016 152.335 19.1935 152.729 19.2173C153.123 19.2411 153.429 19.3879 153.648 19.6576C153.878 19.9172 153.982 20.2334 153.959 20.6061C153.937 20.9681 153.796 21.2748 153.535 21.5261C153.274 21.7775 152.952 21.8916 152.569 21.8685ZM160.696 31.9611L161.007 26.8185C161.041 26.2542 160.939 25.8259 160.7 25.5336C160.462 25.2307 160.13 25.0664 159.704 25.0406C159.214 25.0111 158.816 25.1473 158.509 25.4493C158.213 25.752 158.048 26.1802 158.015 26.7338L157.71 31.7806L155.346 31.6378L155.86 23.1253L158.048 23.2575L157.967 24.5991L158.047 24.6039C158.289 24.1377 158.636 23.7846 159.089 23.5448C159.553 23.295 160.083 23.1881 160.679 23.2242C161.265 23.2596 161.764 23.4072 162.175 23.6672C162.598 23.9172 162.918 24.2891 163.134 24.7831C163.35 25.2663 163.436 25.8806 163.391 26.6259L163.06 32.1039L160.696 31.9611ZM169.073 32.6596C168.189 32.6062 167.434 32.3736 166.807 31.9617C166.18 31.5391 165.712 30.9765 165.402 30.2739C165.092 29.5606 164.965 28.7567 165.019 27.8624C165.071 26.9999 165.298 26.2549 165.699 25.6273C166.111 24.9897 166.648 24.5092 167.309 24.1858C167.97 23.8518 168.705 23.7092 169.515 23.7581C170.345 23.8083 171.053 24.022 171.64 24.3994C172.227 24.7662 172.661 25.268 172.943 25.9048C173.236 26.5423 173.357 27.2816 173.306 28.1227C173.297 28.2718 173.282 28.4312 173.261 28.6009C173.241 28.76 173.217 28.8921 173.189 28.9973L166.114 28.5697L166.202 27.1164L171.68 27.4474L171.077 27.6033C171.117 27.1249 171.072 26.7214 170.942 26.393C170.823 26.0652 170.635 25.8134 170.379 25.6376C170.123 25.4512 169.798 25.3461 169.404 25.3223C169.031 25.2997 168.696 25.3596 168.399 25.502C168.102 25.6443 167.863 25.881 167.683 26.2121C167.504 26.5325 167.398 26.9536 167.366 27.4753L167.307 28.4655C167.267 29.1256 167.415 29.6849 167.75 30.1433C168.086 30.6017 168.61 30.8524 169.324 30.8956C169.707 30.9187 170.074 30.8607 170.424 30.7216C170.775 30.5719 171.073 30.3227 171.319 29.9742L172.948 31.1306C172.713 31.4904 172.411 31.7928 172.044 32.0377C171.677 32.272 171.244 32.4436 170.746 32.5524C170.248 32.6612 169.69 32.697 169.073 32.6596ZM174.717 32.8084L175.231 24.2959L177.419 24.4281L177.327 25.9613L177.407 25.9661C177.587 25.4534 177.884 25.0546 178.296 24.7696C178.72 24.4747 179.204 24.3436 179.747 24.3764C179.843 24.3822 179.933 24.393 180.017 24.4088C180.102 24.4139 180.176 24.4291 180.239 24.4542L180.108 26.6263C180.014 26.5779 179.899 26.5442 179.761 26.5252C179.623 26.5062 179.464 26.4912 179.283 26.4803C178.921 26.4584 178.602 26.5192 178.326 26.6629C178.051 26.7958 177.825 27.0013 177.648 27.2791C177.481 27.5575 177.386 27.8991 177.361 28.3037L177.081 32.9512L174.717 32.8084ZM185.338 33.4502L185.853 24.9377L188.216 25.0805L187.702 33.593L185.338 33.4502ZM187.146 23.9579C186.752 23.9341 186.435 23.7814 186.196 23.4998C185.957 23.2182 185.848 22.8964 185.87 22.5344C185.892 22.1617 186.039 21.8607 186.309 21.6312C186.58 21.3911 186.912 21.283 187.306 21.3068C187.7 21.3306 188.007 21.4773 188.225 21.747C188.455 22.0067 188.559 22.3229 188.537 22.6955C188.515 23.0575 188.373 23.3642 188.112 23.6156C187.851 23.867 187.529 23.9811 187.146 23.9579ZM193.026 34.1071C192.004 34.0454 191.185 33.8035 190.57 33.3816C189.955 32.9491 189.578 32.3706 189.44 31.6463L191.687 31.3333C191.781 31.7343 191.955 32.0334 192.21 32.2305C192.476 32.4282 192.822 32.5399 193.248 32.5657C193.642 32.5895 193.956 32.523 194.189 32.3661C194.423 32.2093 194.55 31.9765 194.568 31.6677C194.584 31.4015 194.523 31.1841 194.383 31.0153C194.255 30.8473 194.033 30.7163 193.718 30.6225L192.036 30.072C191.365 29.8605 190.86 29.5521 190.521 29.147C190.182 28.7418 190.031 28.2358 190.068 27.6289C190.099 27.1071 190.276 26.6583 190.598 26.2824C190.92 25.9065 191.353 25.6281 191.899 25.4473C192.445 25.2559 193.069 25.1814 193.772 25.2239C194.378 25.2606 194.917 25.3732 195.386 25.5619C195.867 25.7406 196.258 25.9886 196.559 26.306C196.861 26.6128 197.053 26.977 197.134 27.3987L194.963 27.7804C194.876 27.4546 194.715 27.2097 194.479 27.0459C194.243 26.882 193.949 26.7895 193.598 26.7682C193.225 26.7457 192.933 26.8029 192.722 26.9397C192.522 27.0665 192.413 27.2737 192.396 27.5612C192.384 27.7635 192.442 27.9433 192.572 28.1008C192.701 28.2582 192.933 28.3951 193.268 28.5115L194.919 29.0441C195.339 29.1763 195.702 29.3532 196.009 29.5748C196.316 29.7964 196.545 30.072 196.697 30.4018C196.859 30.7215 196.926 31.1156 196.898 31.584C196.863 32.159 196.684 32.6451 196.361 33.0423C196.038 33.4289 195.593 33.7172 195.026 33.9074C194.46 34.0869 193.793 34.1534 193.026 34.1071ZM206.412 34.916C205.529 34.8626 204.768 34.6296 204.13 34.2171C203.493 33.8046 203.013 33.252 202.692 32.5593C202.37 31.8667 202.236 31.0838 202.289 30.2107C202.343 29.3163 202.571 28.55 202.973 27.9118C203.375 27.2735 203.917 26.788 204.599 26.4553C205.283 26.1118 206.066 25.9668 206.95 26.0202C207.834 26.0736 208.594 26.3066 209.232 26.7192C209.87 27.1317 210.349 27.6843 210.671 28.377C210.993 29.059 211.127 29.8472 211.073 30.7415C211.019 31.6252 210.791 32.3916 210.389 33.0405C209.987 33.6787 209.445 34.1642 208.762 34.497C208.079 34.8297 207.296 34.9694 206.412 34.916ZM206.52 33.1433C206.913 33.1671 207.26 33.0918 207.559 32.9175C207.869 32.7439 208.115 32.4649 208.299 32.0806C208.494 31.6863 208.609 31.1911 208.645 30.5948C208.682 29.9773 208.628 29.4664 208.481 29.0622C208.345 28.6586 208.134 28.3519 207.848 28.1423C207.572 27.9332 207.237 27.8168 206.843 27.793C206.449 27.7692 206.097 27.8441 205.787 28.0178C205.488 28.192 205.242 28.471 205.048 28.8547C204.864 29.239 204.754 29.7399 204.716 30.3574C204.68 30.9643 204.729 31.4696 204.865 31.8732C205.012 32.2774 205.223 32.584 205.499 32.793C205.785 33.0027 206.126 33.1194 206.52 33.1433ZM212.392 38.2909L213.1 26.5842L215.336 26.7193L215.257 28.0289L215.336 28.0338C215.493 27.744 215.706 27.4951 215.975 27.2869C216.244 27.0788 216.547 26.9208 216.885 26.813C217.233 26.7058 217.605 26.6641 217.998 26.6879C218.712 26.731 219.324 26.9496 219.834 27.3438C220.355 27.7386 220.745 28.2804 221.002 28.9692C221.271 29.648 221.378 30.4452 221.323 31.3609C221.268 32.2659 221.066 33.0445 220.717 33.6966C220.379 34.3387 219.933 34.8247 219.378 35.1545C218.824 35.4844 218.196 35.6281 217.493 35.5856C217.11 35.5624 216.757 35.477 216.434 35.3293C216.123 35.1822 215.851 34.9895 215.62 34.7511C215.399 34.5133 215.228 34.2466 215.107 33.9507L215.027 33.9459L214.756 38.4337L212.392 38.2909ZM216.833 33.7665C217.238 33.791 217.585 33.7051 217.875 33.5089C218.165 33.302 218.397 33.0061 218.57 32.6211C218.754 32.2262 218.862 31.7572 218.895 31.2142C218.929 30.6606 218.877 30.1819 218.741 29.7783C218.617 29.3647 218.422 29.0431 218.159 28.8134C217.895 28.5731 217.561 28.4407 217.157 28.4163C216.763 28.3925 216.415 28.4837 216.114 28.6899C215.814 28.8855 215.572 29.1807 215.388 29.5757C215.215 29.9606 215.111 30.4299 215.078 30.9836C215.046 31.5159 215.092 31.9889 215.217 32.4025C215.352 32.8168 215.557 33.1444 215.831 33.3853C216.105 33.6156 216.439 33.7427 216.833 33.7665ZM226.764 36.1459C225.881 36.0925 225.125 35.8598 224.498 35.4479C223.872 35.0254 223.404 34.4628 223.094 33.7601C222.784 33.0468 222.656 32.243 222.71 31.3486C222.763 30.4862 222.989 29.7412 223.39 29.1135C223.803 28.4759 224.34 27.9954 225 27.672C225.662 27.338 226.397 27.1954 227.206 27.2443C228.037 27.2945 228.745 27.5083 229.331 27.8857C229.918 28.2524 230.353 28.7542 230.635 29.391C230.928 30.0285 231.049 30.7678 230.998 31.609C230.989 31.758 230.974 31.9174 230.953 32.0871C230.933 32.2462 230.909 32.3783 230.881 32.4835L223.806 32.056L223.894 30.6026L229.372 30.9336L228.769 31.0896C228.809 30.6111 228.764 30.2076 228.634 29.8792C228.515 29.5514 228.327 29.2996 228.07 29.1239C227.814 28.9374 227.49 28.8323 227.096 28.8085C226.723 28.786 226.388 28.8459 226.091 28.9882C225.794 29.1305 225.555 29.3672 225.375 29.6983C225.195 30.0187 225.09 30.4398 225.058 30.9615L224.998 31.9517C224.958 32.6118 225.106 33.1711 225.442 33.6295C225.777 34.0879 226.302 34.3387 227.015 34.3818C227.399 34.4049 227.765 34.347 228.116 34.2078C228.467 34.0581 228.765 33.8089 229.01 33.4605L230.64 34.6168C230.404 34.9766 230.103 35.279 229.735 35.5239C229.369 35.7582 228.936 35.9298 228.438 36.0386C227.94 36.1474 227.382 36.1832 226.764 36.1459ZM237.759 36.6179L238.07 31.4753C238.104 30.911 238.001 30.4827 237.763 30.1904C237.524 29.8875 237.192 29.7232 236.766 29.6974C236.277 29.6678 235.878 29.8041 235.572 30.1061C235.276 30.4088 235.111 30.837 235.077 31.3906L234.772 36.4374L232.409 36.2946L232.923 27.7821L235.111 27.9143L235.03 29.2559L235.11 29.2607C235.352 28.7945 235.699 28.4414 236.152 28.2016C236.615 27.9518 237.146 27.8449 237.742 27.881C238.327 27.9163 238.826 28.064 239.238 28.324C239.661 28.574 239.98 28.9459 240.196 29.4398C240.413 29.9231 240.499 30.5374 240.454 31.2827L240.123 36.7607L237.759 36.6179ZM248.752 37.4745C247.9 37.4231 247.233 37.153 246.749 36.6643C246.266 36.1755 246.047 35.5585 246.092 34.8132C246.135 34.0999 246.415 33.5291 246.932 33.1008C247.451 32.6619 248.246 32.4001 249.32 32.3154L252.205 32.057L252.125 33.3825L249.867 33.6148C249.394 33.661 249.029 33.7778 248.772 33.9653C248.526 34.1428 248.392 34.4179 248.369 34.7906C248.35 35.11 248.441 35.3773 248.641 35.5924C248.853 35.7976 249.156 35.9121 249.55 35.9359C249.891 35.9565 250.188 35.8996 250.442 35.7654C250.697 35.6205 250.901 35.4138 251.057 35.1453C251.212 34.8662 251.302 34.5297 251.326 34.1357L251.473 31.7082C251.497 31.3036 251.405 30.9774 251.195 30.7296C250.986 30.4819 250.657 30.3445 250.21 30.3175C249.827 30.2943 249.507 30.3658 249.252 30.532C249.006 30.6989 248.819 30.9654 248.69 31.3316L246.576 30.7711C246.835 30.028 247.307 29.4741 247.991 29.1094C248.686 28.7454 249.492 28.591 250.407 28.6463C251.621 28.7197 252.498 29.0612 253.038 29.6709C253.59 30.2706 253.836 31.0602 253.777 32.0397L253.539 35.9686L254.05 37.6023L251.638 37.4566L251.323 36.3155L251.227 36.3097C250.967 36.7108 250.623 37.0159 250.194 37.225C249.776 37.4242 249.295 37.5074 248.752 37.4745ZM261.044 38.025L261.355 32.8824C261.389 32.3181 261.287 31.8898 261.048 31.5975C260.81 31.2946 260.478 31.1303 260.052 31.1046C259.562 31.075 259.164 31.2112 258.857 31.5132C258.561 31.8159 258.396 32.2441 258.363 32.7977L258.058 37.8445L255.694 37.7017L256.209 29.1892L258.397 29.3214L258.316 30.663L258.395 30.6678C258.637 30.2016 258.985 29.8485 259.437 29.6087C259.901 29.3589 260.431 29.252 261.027 29.2881C261.613 29.3235 262.112 29.4711 262.523 29.7311C262.946 29.9811 263.266 30.353 263.482 30.847C263.698 31.3302 263.784 31.9445 263.739 32.6898L263.408 38.1678L261.044 38.025ZM268.67 38.6782C267.968 38.6357 267.356 38.4171 266.835 38.0223C266.324 37.6281 265.934 37.0916 265.666 36.4128C265.408 35.724 265.307 34.9218 265.362 34.0061C265.417 33.1011 265.613 32.3275 265.951 31.6854C266.3 31.0333 266.752 30.5423 267.307 30.2125C267.861 29.8827 268.489 29.739 269.192 29.7814C269.586 29.8053 269.933 29.8904 270.234 30.0368C270.546 30.1839 270.812 30.3763 271.033 30.614C271.264 30.8524 271.441 31.1195 271.562 31.4154L271.642 31.4202L271.909 26.9963L274.273 27.1391L273.569 38.7819L271.333 38.6467L271.412 37.3371L271.348 37.3333C271.193 37.6124 270.98 37.8613 270.71 38.0801C270.441 38.2883 270.132 38.4459 269.784 38.5531C269.446 38.6609 269.075 38.7026 268.67 38.6782ZM269.512 36.9498C269.917 36.9743 270.269 36.8887 270.57 36.6931C270.871 36.4869 271.107 36.1913 271.28 35.8064C271.454 35.4108 271.557 34.9362 271.591 34.3825C271.624 33.8395 271.572 33.3662 271.436 32.9626C271.312 32.549 271.112 32.227 270.837 31.9967C270.563 31.7558 270.229 31.6234 269.835 31.5996C269.441 31.5758 269.094 31.667 268.793 31.8732C268.503 32.0694 268.267 32.3597 268.083 32.744C267.91 33.1289 267.807 33.5982 267.774 34.1519C267.74 34.7055 267.786 35.1891 267.91 35.6027C268.046 36.0063 268.246 36.3283 268.509 36.5686C268.784 36.7989 269.118 36.926 269.512 36.9498ZM280.699 39.2127L281.251 30.0774C281.302 29.2362 281.597 28.5916 282.137 28.1433C282.688 27.6957 283.384 27.4973 284.225 27.5482C284.502 27.5649 284.73 27.5947 284.909 27.6376C285.088 27.6804 285.287 27.7512 285.505 27.8499L285.411 29.4151C285.286 29.3541 285.166 29.3094 285.05 29.2811C284.945 29.2533 284.823 29.2353 284.685 29.2269C284.365 29.2076 284.109 29.2883 283.917 29.469C283.735 29.6398 283.635 29.8848 283.616 30.2042L283.063 39.3555L280.699 39.2127ZM279.756 32.2632L279.856 30.6182L285.174 30.9396L285.075 32.5846L279.756 32.2632ZM286.373 39.5556L286.887 31.0431L289.075 31.1753L288.982 32.7085L289.062 32.7133C289.243 32.2006 289.539 31.8018 289.952 31.5168C290.376 31.2219 290.859 31.0908 291.402 31.1236C291.498 31.1294 291.588 31.1402 291.673 31.156C291.758 31.1611 291.832 31.1763 291.895 31.2014L291.763 33.3735C291.67 33.3251 291.555 33.2914 291.417 33.2724C291.279 33.2534 291.12 33.2384 290.939 33.2275C290.577 33.2056 290.258 33.2665 289.982 33.4101C289.707 33.5431 289.481 33.7485 289.304 34.0263C289.137 34.3047 289.042 34.6463 289.017 35.0509L288.736 39.6984L286.373 39.5556ZM296.497 40.3597C295.613 40.3063 294.858 40.0736 294.231 39.6617C293.604 39.2392 293.136 38.6766 292.826 37.9739C292.516 37.2606 292.389 36.4568 292.443 35.5624C292.495 34.7 292.721 33.955 293.123 33.3274C293.535 32.6898 294.072 32.2092 294.733 31.8858C295.394 31.5518 296.129 31.4092 296.938 31.4581C297.769 31.5083 298.477 31.7221 299.064 32.0995C299.65 32.4662 300.085 32.968 300.367 33.6048C300.66 34.2423 300.781 34.9816 300.73 35.8228C300.721 35.9718 300.706 36.1312 300.685 36.3009C300.665 36.46 300.641 36.5921 300.613 36.6973L293.538 36.2698L293.626 34.8164L299.104 35.1475L298.501 35.3034C298.541 34.8249 298.496 34.4215 298.366 34.093C298.247 33.7653 298.059 33.5135 297.803 33.3377C297.547 33.1512 297.222 33.0461 296.828 33.0223C296.455 32.9998 296.12 33.0597 295.823 33.202C295.526 33.3444 295.287 33.5811 295.107 33.9121C294.927 34.2325 294.822 34.6536 294.79 35.1753L294.73 36.1655C294.69 36.8256 294.838 37.3849 295.174 37.8433C295.51 38.3017 296.034 38.5525 296.747 38.5956C297.131 38.6188 297.498 38.5608 297.848 38.4217C298.199 38.2719 298.497 38.0228 298.743 37.6743L300.372 38.8307C300.136 39.1904 299.835 39.4928 299.468 39.7378C299.101 39.9721 298.668 40.1436 298.17 40.2524C297.672 40.3613 297.114 40.397 296.497 40.3597ZM306.026 40.9355C305.142 40.8821 304.387 40.6495 303.76 40.2376C303.134 39.815 302.665 39.2524 302.355 38.5498C302.046 37.8365 301.918 37.0326 301.972 36.1383C302.024 35.2758 302.251 34.5308 302.652 33.9032C303.065 33.2656 303.601 32.7851 304.262 32.4617C304.923 32.1277 305.659 31.9851 306.468 32.034C307.298 32.0842 308.007 32.2979 308.593 32.6753C309.18 33.0421 309.614 33.5439 309.897 34.1807C310.189 34.8182 310.31 35.5575 310.259 36.3986C310.25 36.5477 310.235 36.7071 310.215 36.8768C310.194 37.0359 310.17 37.168 310.142 37.2732L303.067 36.8456L303.155 35.3923L308.633 35.7233L308.031 35.8792C308.07 35.4008 308.025 34.9973 307.895 34.6689C307.776 34.3411 307.589 34.0893 307.332 33.9135C307.076 33.7271 306.751 33.622 306.357 33.5982C305.985 33.5756 305.65 33.6355 305.353 33.7779C305.055 33.9202 304.817 34.1569 304.636 34.488C304.457 34.8084 304.351 35.2295 304.32 35.7512L304.26 36.7414C304.22 37.4015 304.368 37.9608 304.703 38.4192C305.039 38.8776 305.564 39.1284 306.277 39.1715C306.66 39.1946 307.027 39.1366 307.377 38.9975C307.728 38.8478 308.027 38.5986 308.272 38.2501L309.901 39.4065C309.666 39.7663 309.364 40.0687 308.997 40.3136C308.63 40.5479 308.198 40.7195 307.7 40.8283C307.201 40.9371 306.644 40.9729 306.026 40.9355Z" fill="black"/>
<rect y="54.4531" width="283.778" height="42.0973" rx="21.0486" transform="rotate(-1.99477 0 54.4531)" fill="#FAF7BF"/>
<path d="M26.3917 80.0987L26.0208 69.4491L28.4673 69.3639L28.8382 80.0135L26.3917 80.0987ZM23.0157 70.9627L22.9449 68.9319L31.4998 68.6339L31.5705 70.6647L23.0157 70.9627ZM33.5461 79.8495L33.1401 68.1926L35.5067 68.1101L35.6554 72.3795L35.7354 72.3768C35.9447 71.9532 36.2479 71.6171 36.6448 71.3685C37.0524 71.1195 37.5227 70.9857 38.0557 70.9671C38.642 70.9467 39.1524 71.0463 39.587 71.266C40.0319 71.4747 40.3853 71.8146 40.6472 72.2857C40.9087 72.7462 41.0524 73.3496 41.0784 74.0958L41.2695 79.5805L38.9029 79.6629L38.7236 74.514C38.7039 73.9491 38.5613 73.5324 38.2958 73.2642C38.0299 72.9853 37.6838 72.8532 37.2574 72.8681C36.767 72.8852 36.3833 73.0533 36.1062 73.3725C35.8398 73.6913 35.7167 74.1385 35.7367 74.7141L35.9127 79.7671L33.5461 79.8495ZM47.3079 79.5623C46.4231 79.5931 45.649 79.4333 44.9858 79.0828C44.3221 78.7217 43.8025 78.2062 43.427 77.5362C43.0511 76.8555 42.8475 76.0674 42.8163 75.172C42.7862 74.3085 42.9411 73.5453 43.2809 72.8824C43.631 72.2085 44.1195 71.6792 44.7465 71.2944C45.3731 70.8991 46.0915 70.6873 46.9017 70.659C47.7332 70.6301 48.4587 70.7756 49.0782 71.0955C49.6974 71.4048 50.1776 71.8631 50.5189 72.4702C50.8709 73.077 51.0616 73.8015 51.0909 74.6436C51.0961 74.7929 51.0964 74.953 51.0917 75.1239C51.0866 75.2842 51.0752 75.418 51.0576 75.5253L43.9739 75.772L43.9232 74.3169L49.4079 74.1259L48.8229 74.3384C48.8169 73.8583 48.7337 73.461 48.5733 73.1464C48.4236 72.8314 48.2127 72.5986 47.9406 72.448C47.6682 72.2867 47.3347 72.2129 46.9403 72.2266C46.5672 72.2396 46.2395 72.3311 45.9572 72.501C45.675 72.671 45.4599 72.9293 45.3118 73.276C45.1634 73.612 45.0983 74.0412 45.1165 74.5635L45.1511 75.5549C45.1741 76.2159 45.3744 76.7586 45.7521 77.183C46.1298 77.6075 46.6757 77.8072 47.3899 77.7824C47.7737 77.769 48.1334 77.6764 48.4689 77.5046C48.8041 77.3222 49.0773 77.0458 49.2886 76.6756L51.0203 77.6719C50.8201 78.0525 50.5487 78.3821 50.2062 78.6609C49.8634 78.929 49.4491 79.1408 48.9636 79.2965C48.4781 79.4522 47.9261 79.5408 47.3079 79.5623ZM60.8439 79.0908C60.0231 79.1194 59.2865 78.9636 58.6343 78.6235C57.9923 78.2723 57.4786 77.7725 57.0932 77.1242C56.7073 76.4652 56.4986 75.6827 56.4671 74.7766C56.4355 73.8705 56.5894 73.0806 56.9289 72.4071C57.2679 71.7229 57.7456 71.1886 58.362 70.8042C58.9889 70.4195 59.7075 70.213 60.5177 70.1848C61.4878 70.151 62.2943 70.3257 62.9374 70.7089C63.5908 71.081 64.0646 71.6622 64.359 72.4525L62.3196 73.1959C62.1548 72.7534 61.9302 72.4357 61.646 72.2428C61.3614 72.0392 61.0166 71.9445 60.6115 71.9586C60.2597 71.9709 59.9488 72.0831 59.6787 72.2953C59.4082 72.4968 59.1947 72.8031 59.0382 73.2141C58.8921 73.6141 58.8292 74.1073 58.8496 74.6936C58.87 75.2799 58.9673 75.7728 59.1413 76.1723C59.326 76.5715 59.5604 76.8675 59.8446 77.0604C60.1391 77.2423 60.4623 77.3271 60.8141 77.3148C61.2191 77.3007 61.5566 77.1822 61.8263 76.9594C62.1063 76.7255 62.313 76.3767 62.4463 75.9131L64.5164 76.5134C64.2778 77.3222 63.8512 77.9455 63.2367 78.3831C62.6222 78.8208 61.8246 79.0567 60.8439 79.0908ZM69.9987 78.772C69.1139 78.8028 68.3346 78.6432 67.6606 78.2931C66.9867 77.943 66.4568 77.4385 66.071 76.7795C65.6851 76.1205 65.477 75.354 65.4466 74.4798C65.4154 73.5844 65.5695 72.7999 65.9089 72.1263C66.2483 71.4528 66.742 70.9179 67.39 70.5218C68.0375 70.115 68.8037 69.8962 69.6885 69.8654C70.5733 69.8346 71.3527 69.9942 72.0266 70.3443C72.7005 70.6944 73.2304 71.1989 73.6162 71.8579C74.0017 72.5062 74.21 73.2781 74.2412 74.1735C74.272 75.0583 74.1179 75.8428 73.7789 76.527C73.4394 77.2006 72.9458 77.7354 72.2978 78.1316C71.6499 78.5277 70.8835 78.7412 69.9987 78.772ZM69.9369 76.9971C70.3313 76.9833 70.6691 76.8755 70.9503 76.6736C71.2421 76.4713 71.461 76.1702 71.6072 75.7702C71.7637 75.3592 71.8315 74.8552 71.8107 74.2582C71.7892 73.6399 71.6863 73.1365 71.5019 72.748C71.3283 72.3592 71.0889 72.074 70.7837 71.8925C70.4892 71.7106 70.1448 71.6266 69.7503 71.6403C69.3559 71.654 69.0128 71.7621 68.721 71.9643C68.4398 72.1662 68.2209 72.4674 68.064 72.8678C67.9179 73.2677 67.8556 73.7769 67.8771 74.3952C67.8983 75.0028 67.9957 75.5011 68.1693 75.8899C68.3536 76.2784 68.593 76.5636 68.8875 76.7454C69.1927 76.9269 69.5425 77.0108 69.9369 76.9971ZM79.8774 78.4279C79.0992 78.455 78.4233 78.3558 77.8498 78.1303C77.2759 77.8942 76.8252 77.5203 76.4979 77.0087C76.1706 76.4971 75.993 75.8416 75.9651 75.042L75.7841 69.8452L78.1507 69.7628L78.3289 74.8797C78.349 75.4553 78.4813 75.883 78.7258 76.1626C78.981 76.4419 79.3431 76.5734 79.8122 76.5571C80.2493 76.5418 80.5854 76.386 80.8205 76.0897C81.0664 75.7929 81.1792 75.3567 81.1592 74.7811L80.981 69.6642L83.3475 69.5818L83.5285 74.7786C83.5564 75.5781 83.4248 76.2444 83.1339 76.7776C82.8429 77.3107 82.4141 77.7152 81.8473 77.9911C81.2909 78.2559 80.6342 78.4016 79.8774 78.4279ZM85.7801 78.0302L85.4832 69.5074L87.6739 69.4311L87.7274 70.9662L87.8073 70.9634C87.9384 70.4358 88.1957 70.0106 88.5794 69.6877C88.9733 69.3538 89.4422 69.1774 89.9858 69.1584C90.0818 69.1551 90.1726 69.1573 90.2582 69.165C90.3435 69.162 90.4185 69.1701 90.4832 69.1892L90.5589 71.3638C90.4615 71.3245 90.3433 71.302 90.2044 71.2961C90.0654 71.2903 89.9053 71.2905 89.7241 71.2969C89.3617 71.3095 89.05 71.4004 88.789 71.5696C88.5277 71.7281 88.3221 71.954 88.1723 72.2474C88.033 72.5405 87.9705 72.8895 87.9846 73.2946L88.1467 77.9478L85.7801 78.0302ZM95.3073 77.8905C94.2839 77.9262 93.4457 77.7632 92.7927 77.4017C92.1394 77.0296 91.7096 76.4896 91.5035 75.7816L93.7106 75.2565C93.8416 75.6468 94.0435 75.928 94.3163 76.0999C94.5998 76.2715 94.9547 76.3498 95.3812 76.335C95.7756 76.3213 96.0818 76.2252 96.2997 76.0468C96.5176 75.8685 96.6212 75.6247 96.6104 75.3156C96.6011 75.0491 96.5191 74.8385 96.3643 74.6838C96.2201 74.5287 95.9868 74.4194 95.6644 74.3559L93.9379 73.9678C93.2497 73.821 92.7177 73.562 92.3419 73.1909C91.9661 72.8197 91.7676 72.3303 91.7464 71.7227C91.7282 71.2004 91.8615 70.7368 92.1462 70.332C92.431 69.9271 92.8362 69.6088 93.3617 69.3771C93.8869 69.1346 94.5013 69.0012 95.2049 68.9767C95.8125 68.9555 96.359 69.0165 96.8443 69.1597C97.3398 69.2919 97.7527 69.5016 98.0829 69.789C98.4128 70.0657 98.6382 70.41 98.7593 70.8221L96.6344 71.4084C96.5167 71.0923 96.3326 70.8639 96.0822 70.7232C95.8319 70.5825 95.5308 70.5183 95.179 70.5305C94.8059 70.5435 94.5207 70.6282 94.3233 70.7845C94.1362 70.9297 94.0477 71.1463 94.0578 71.4341C94.0648 71.6366 94.1402 71.8101 94.284 71.9545C94.4278 72.0989 94.6719 72.2132 95.0164 72.2972L96.7104 72.6705C97.1405 72.7623 97.519 72.9038 97.8459 73.0952C98.1727 73.2866 98.427 73.5393 98.6087 73.8531C98.8007 74.156 98.9049 74.5419 98.9212 75.011C98.9413 75.5866 98.8093 76.0875 98.5253 76.5137C98.2409 76.9291 97.8254 77.2585 97.2789 77.5016C96.732 77.7342 96.0748 77.8638 95.3073 77.8905ZM104.57 77.5679C103.685 77.5987 102.911 77.4389 102.248 77.0884C101.584 76.7273 101.065 76.2118 100.689 75.5418C100.313 74.8611 100.11 74.073 100.078 73.1776C100.048 72.3141 100.203 71.5509 100.543 70.888C100.893 70.2141 101.382 69.6848 102.009 69.3C102.635 68.9047 103.354 68.6929 104.164 68.6646C104.995 68.6357 105.721 68.7812 106.34 69.1011C106.96 69.4104 107.44 69.8687 107.781 70.4758C108.133 71.0826 108.324 71.8071 108.353 72.6492C108.358 72.7985 108.359 72.9586 108.354 73.1295C108.349 73.2898 108.337 73.4236 108.32 73.5309L101.236 73.7776L101.185 72.3225L106.67 72.1315L106.085 72.344C106.079 71.8639 105.996 71.4666 105.835 71.152C105.686 70.837 105.475 70.6042 105.203 70.4536C104.93 70.2923 104.597 70.2185 104.202 70.2322C103.829 70.2452 103.502 70.3367 103.219 70.5066C102.937 70.6766 102.722 70.9349 102.574 71.2816C102.426 71.6176 102.36 72.0468 102.379 72.5691L102.413 73.5605C102.436 74.2215 102.637 74.7642 103.014 75.1886C103.392 75.613 103.938 75.8128 104.652 75.788C105.036 75.7746 105.396 75.682 105.731 75.5102C106.066 75.3278 106.339 75.0514 106.551 74.6812L108.282 75.6775C108.082 76.0581 107.811 76.3877 107.468 76.6665C107.126 76.9346 106.711 77.1464 106.226 77.3021C105.74 77.4578 105.188 77.5464 104.57 77.5679ZM118.074 80.2995C117.05 80.3352 116.175 80.1842 115.448 79.8466C114.722 79.5197 114.19 78.9619 113.853 78.1731L115.988 77.4264C116.173 77.8255 116.434 78.1153 116.771 78.2956C117.109 78.4867 117.517 78.5738 117.997 78.5571C118.658 78.5341 119.147 78.325 119.464 77.9297C119.792 77.5447 119.944 77.0057 119.92 76.3128L119.879 75.1455L119.799 75.1483C119.629 75.4744 119.415 75.7541 119.156 75.9872C118.908 76.2093 118.626 76.3846 118.31 76.513C118.005 76.641 117.666 76.7115 117.293 76.7245C116.621 76.7479 116.012 76.5877 115.467 76.2438C114.932 75.8995 114.504 75.4128 114.183 74.7836C113.862 74.1544 113.688 73.424 113.659 72.5925C113.629 71.7504 113.753 71.0096 114.029 70.3703C114.316 69.7199 114.72 69.2042 115.24 68.8232C115.761 68.4422 116.367 68.2396 117.06 68.2155C117.444 68.2021 117.798 68.2431 118.121 68.3386C118.445 68.4341 118.738 68.5893 119.002 68.8042C119.276 69.0082 119.504 69.2617 119.685 69.5649L119.765 69.5621L119.721 68.3149L121.96 68.2369L122.233 76.0882C122.264 76.973 122.114 77.72 121.783 78.3292C121.463 78.9487 120.983 79.4244 120.344 79.7562C119.715 80.0876 118.958 80.2687 118.074 80.2995ZM118.062 74.9206C118.467 74.9065 118.805 74.7934 119.075 74.5812C119.345 74.3583 119.548 74.0577 119.684 73.6794C119.831 73.3008 119.896 72.8662 119.879 72.3759C119.861 71.8748 119.766 71.4459 119.594 71.089C119.432 70.7211 119.208 70.4407 118.924 70.2478C118.64 70.0443 118.295 69.9495 117.89 69.9637C117.506 69.977 117.174 70.0953 116.893 70.3185C116.623 70.5307 116.42 70.826 116.284 71.2043C116.147 71.5719 116.088 72.0063 116.105 72.5073C116.123 73.0083 116.212 73.4428 116.375 73.8107C116.537 74.168 116.76 74.4484 117.044 74.6519C117.339 74.8444 117.679 74.934 118.062 74.9206ZM124.475 76.6825L124.179 68.1597L126.545 68.0772L126.842 76.6001L124.475 76.6825ZM125.373 67.0614C124.979 67.0751 124.649 66.9532 124.384 66.6956C124.119 66.438 123.98 66.128 123.967 65.7656C123.954 65.3925 124.071 65.0789 124.319 64.8248C124.565 64.56 124.886 64.4208 125.281 64.407C125.675 64.3933 125.994 64.5102 126.237 64.7579C126.491 64.9946 126.624 65.2994 126.637 65.6726C126.65 66.035 126.538 66.3537 126.303 66.6288C126.067 66.9038 125.757 67.048 125.373 67.0614ZM130.921 76.458L127.97 68.0276L130.512 67.939L132.502 74.9461L132.582 74.9433L134.078 67.8148L136.605 67.7269L134.263 76.3416L130.921 76.458ZM141.969 76.2653C141.084 76.2961 140.31 76.1363 139.647 75.7858C138.983 75.4247 138.464 74.9092 138.088 74.2392C137.712 73.5585 137.509 72.7704 137.478 71.875C137.448 71.0115 137.602 70.2483 137.942 69.5854C138.292 68.9115 138.781 68.3822 139.408 67.9974C140.034 67.6021 140.753 67.3903 141.563 67.362C142.395 67.3331 143.12 67.4786 143.74 67.7985C144.359 68.1079 144.839 68.5661 145.18 69.1732C145.532 69.78 145.723 70.5045 145.752 71.3466C145.757 71.4959 145.758 71.656 145.753 71.8269C145.748 71.9872 145.737 72.121 145.719 72.2283L138.635 72.4751L138.585 71.0199L144.069 70.8289L143.484 71.0414C143.478 70.5613 143.395 70.164 143.235 69.8494C143.085 69.5344 142.874 69.3016 142.602 69.151C142.33 68.9897 141.996 68.9159 141.602 68.9297C141.229 68.9426 140.901 69.0341 140.619 69.204C140.336 69.374 140.121 69.6323 139.973 69.979C139.825 70.315 139.76 70.7442 139.778 71.2665L139.812 72.2579C139.835 72.9189 140.036 73.4616 140.413 73.886C140.791 74.3105 141.337 74.5102 142.051 74.4854C142.435 74.472 142.795 74.3794 143.13 74.2076C143.465 74.0252 143.739 73.7489 143.95 73.3786L145.682 74.3749C145.481 74.7555 145.21 75.0851 144.868 75.3639C144.525 75.632 144.111 75.8438 143.625 75.9995C143.139 76.1552 142.588 76.2438 141.969 76.2653ZM150.727 75.9603C149.703 75.9959 148.865 75.833 148.212 75.4715C147.559 75.0994 147.129 74.5593 146.923 73.8514L149.13 73.3263C149.261 73.7166 149.463 73.9977 149.736 74.1697C150.019 74.3413 150.374 74.4196 150.801 74.4048C151.195 74.391 151.501 74.295 151.719 74.1166C151.937 73.9383 152.041 73.6945 152.03 73.3854C152.021 73.1189 151.939 72.9083 151.784 72.7535C151.64 72.5985 151.406 72.4892 151.084 72.4257L149.357 72.0376C148.669 71.8908 148.137 71.6318 147.761 71.2607C147.386 70.8895 147.187 70.4001 147.166 69.7925C147.148 69.2701 147.281 68.8066 147.566 68.4017C147.851 67.9969 148.256 67.6786 148.781 67.4468C149.306 67.2044 149.921 67.0709 150.624 67.0464C151.232 67.0253 151.779 67.0863 152.264 67.2295C152.759 67.3617 153.172 67.5714 153.502 67.8588C153.832 68.1354 154.058 68.4798 154.179 68.8918L152.054 69.4782C151.936 69.1621 151.752 68.9337 151.502 68.793C151.251 68.6523 150.95 68.588 150.599 68.6003C150.225 68.6133 149.94 68.6979 149.743 68.8542C149.556 68.9995 149.467 69.216 149.477 69.5039C149.484 69.7064 149.56 69.8799 149.704 70.0243C149.847 70.1687 150.091 70.283 150.436 70.367L152.13 70.7403C152.56 70.832 152.939 70.9736 153.265 71.165C153.592 71.3564 153.847 71.6091 154.028 71.9229C154.22 72.2258 154.324 72.6117 154.341 73.0807C154.361 73.6564 154.229 74.1573 153.945 74.5834C153.66 74.9989 153.245 75.3282 152.698 75.5714C152.152 75.8039 151.494 75.9335 150.727 75.9603ZM161.915 78.5804L163.069 74.938L163.719 73.8427L165.425 66.7231L167.903 66.6368L164.266 78.4985L161.915 78.5804ZM162.443 75.3441L159.077 66.9442L161.555 66.8579L163.788 73.5202L164.476 73.4962L164.49 75.2728L162.443 75.3441ZM173.217 75.1769C172.333 75.2078 171.553 75.0481 170.879 74.698C170.205 74.348 169.675 73.8434 169.29 73.1845C168.904 72.5255 168.696 71.7589 168.665 70.8848C168.634 69.9893 168.788 69.2048 169.128 68.5313C169.467 67.8577 169.961 67.3229 170.609 66.9268C171.256 66.52 172.022 66.3012 172.907 66.2703C173.792 66.2395 174.571 66.3992 175.245 66.7493C175.919 67.0993 176.449 67.6039 176.835 68.2628C177.22 68.9111 177.429 69.683 177.46 70.5785C177.491 71.4633 177.337 72.2478 176.998 72.932C176.658 73.6056 176.164 74.1404 175.516 74.5365C174.869 74.9327 174.102 75.1461 173.217 75.1769ZM173.156 73.402C173.55 73.3883 173.888 73.2805 174.169 73.0786C174.461 72.8763 174.68 72.5751 174.826 72.1751C174.982 71.7641 175.05 71.2601 175.029 70.6631C175.008 70.0448 174.905 69.5415 174.721 69.153C174.547 68.7641 174.308 68.4789 174.002 68.2975C173.708 68.1156 173.363 68.0315 172.969 68.0453C172.575 68.059 172.231 68.167 171.94 68.3693C171.659 68.5712 171.44 68.8723 171.283 69.2727C171.137 69.6727 171.074 70.1819 171.096 70.8001C171.117 71.4078 171.214 71.906 171.388 72.2949C171.572 72.6834 171.812 72.9685 172.106 73.1504C172.411 73.3319 172.761 73.4158 173.156 73.402ZM183.096 74.8329C182.318 74.86 181.642 74.7608 181.068 74.5353C180.495 74.2991 180.044 73.9252 179.717 73.4137C179.389 72.9021 179.212 72.2465 179.184 71.447L179.003 66.2502L181.369 66.1677L181.548 71.2846C181.568 71.8603 181.7 72.2879 181.944 72.5676C182.2 72.8469 182.562 72.9784 183.031 72.962C183.468 72.9468 183.804 72.791 184.039 72.4946C184.285 72.1979 184.398 71.7617 184.378 71.1861L184.2 66.0692L186.566 65.9867L186.747 71.1836C186.775 71.9831 186.644 72.6494 186.353 73.1825C186.062 73.7156 185.633 74.1202 185.066 74.396C184.51 74.6609 183.853 74.8065 183.096 74.8329ZM196.262 74.3743C195.559 74.3988 194.929 74.2393 194.373 73.8958C193.827 73.5519 193.388 73.0549 193.056 72.4047C192.734 71.7435 192.557 70.9545 192.525 70.0378C192.494 69.1316 192.616 68.3429 192.891 67.6716C193.177 66.9892 193.58 66.4575 194.1 66.0765C194.621 65.6955 195.233 65.4928 195.936 65.4683C196.331 65.4545 196.685 65.5062 196.998 65.6234C197.323 65.7402 197.606 65.9064 197.848 66.1221C198.101 66.3374 198.302 66.5866 198.451 66.8696L198.53 66.8668L198.376 62.4375L200.743 62.3551L201.149 74.012L198.91 74.09L198.864 72.7788L198.8 72.781C198.672 73.0736 198.484 73.3417 198.236 73.5851C197.988 73.8179 197.696 74.0042 197.359 74.144C197.033 74.2834 196.668 74.3602 196.262 74.3743ZM196.936 72.5738C197.341 72.5597 197.684 72.441 197.964 72.2178C198.244 71.9839 198.452 71.6671 198.588 71.2675C198.723 70.8572 198.781 70.3749 198.761 69.8206C198.742 69.2769 198.646 68.8106 198.473 68.4218C198.309 68.0219 198.08 67.7203 197.785 67.5172C197.489 67.3033 197.144 67.2033 196.75 67.217C196.355 67.2307 196.018 67.3546 195.738 67.5884C195.468 67.8113 195.26 68.1227 195.114 68.5227C194.979 68.9224 194.92 69.3993 194.94 69.9537C194.959 70.508 195.05 70.9851 195.214 71.385C195.387 71.7739 195.617 72.0754 195.902 72.2896C196.197 72.4928 196.542 72.5875 196.936 72.5738ZM203.365 73.9348L203.068 65.412L205.435 65.3295L205.732 73.8524L203.365 73.9348ZM204.263 64.3137C203.868 64.3275 203.538 64.2055 203.273 63.9479C203.008 63.6904 202.869 63.3803 202.857 63.0179C202.844 62.6448 202.961 62.3312 203.208 62.0771C203.455 61.8123 203.776 61.6731 204.17 61.6593C204.565 61.6456 204.884 61.7626 205.127 62.0102C205.381 62.2469 205.514 62.5518 205.527 62.9249C205.54 63.2873 205.428 63.6061 205.192 63.8811C204.956 64.1562 204.646 64.3004 204.263 64.3137ZM207.956 73.7749L207.659 65.2521L209.85 65.1758L209.903 66.7108L209.983 66.7081C210.114 66.1805 210.372 65.7553 210.755 65.4324C211.149 65.0985 211.618 64.9221 212.162 64.9031C212.258 64.8998 212.348 64.902 212.434 64.9097C212.519 64.9067 212.594 64.9147 212.659 64.9338L212.735 67.1085C212.637 67.0692 212.519 67.0467 212.38 67.0408C212.241 67.035 212.081 67.0352 211.9 67.0415C211.538 67.0542 211.226 67.1451 210.965 67.3143C210.704 67.4728 210.498 67.6987 210.348 67.9921C210.209 68.2852 210.146 68.6342 210.161 69.0393L210.323 73.6925L207.956 73.7749ZM218.111 73.6133C217.226 73.6442 216.452 73.4843 215.788 73.1339C215.125 72.7728 214.605 72.2572 214.23 71.5872C213.854 70.9065 213.65 70.1185 213.619 69.223C213.589 68.3596 213.744 67.5964 214.084 66.9335C214.434 66.2595 214.922 65.7302 215.549 65.3455C216.176 64.9501 216.894 64.7383 217.704 64.7101C218.536 64.6811 219.261 64.8266 219.881 65.1466C220.5 65.4559 220.98 65.9141 221.322 66.5213C221.674 67.1281 221.864 67.8525 221.894 68.6947C221.899 68.8439 221.899 69.004 221.894 69.175C221.889 69.3352 221.878 69.469 221.86 69.5764L214.777 69.8231L214.726 68.368L220.211 68.177L219.626 68.3894C219.62 67.9094 219.536 67.512 219.376 67.1974C219.226 66.8824 219.015 66.6496 218.743 66.499C218.471 66.3377 218.137 66.264 217.743 66.2777C217.37 66.2907 217.042 66.3822 216.76 66.5521C216.478 66.722 216.263 66.9803 216.115 67.327C215.966 67.6631 215.901 68.0922 215.919 68.6146L215.954 69.606C215.977 70.2669 216.177 70.8096 216.555 71.2341C216.932 71.6585 217.478 71.8583 218.193 71.8334C218.576 71.82 218.936 71.7275 219.272 71.5557C219.607 71.3732 219.88 71.0969 220.091 70.7267L221.823 71.723C221.623 72.1035 221.351 72.4332 221.009 72.7119C220.666 72.98 220.252 73.1919 219.766 73.3476C219.281 73.5032 218.729 73.5918 218.111 73.6133ZM227.54 73.2849C226.719 73.3135 225.982 73.1577 225.33 72.8176C224.688 72.4664 224.174 71.9666 223.789 71.3183C223.403 70.6593 223.194 69.8768 223.163 68.9707C223.131 68.0646 223.285 67.2747 223.625 66.6012C223.964 65.9169 224.441 65.3827 225.058 64.9983C225.685 64.6136 226.403 64.4071 227.214 64.3789C228.184 64.3451 228.99 64.5198 229.633 64.903C230.287 65.2751 230.76 65.8563 231.055 66.6466L229.015 67.39C228.851 66.9475 228.626 66.6298 228.342 66.4369C228.057 66.2333 227.712 66.1386 227.307 66.1527C226.956 66.165 226.645 66.2772 226.374 66.4894C226.104 66.6909 225.891 66.9972 225.734 67.4082C225.588 67.8082 225.525 68.3014 225.545 68.8877C225.566 69.474 225.663 69.9669 225.837 70.3664C226.022 70.7656 226.256 71.0616 226.54 71.2545C226.835 71.4363 227.158 71.5212 227.51 71.5089C227.915 71.4948 228.252 71.3763 228.522 71.1534C228.802 70.9196 229.009 70.5708 229.142 70.1072L231.212 70.7075C230.974 71.5163 230.547 72.1396 229.933 72.5772C229.318 73.0149 228.52 73.2508 227.54 73.2849ZM236.133 72.9536C235.302 72.9826 234.66 72.8021 234.209 72.4123C233.757 72.0117 233.518 71.417 233.49 70.6282L233.213 62.665L235.544 61.5592L235.845 70.194C235.856 70.5031 235.938 70.7297 236.093 70.8738C236.247 71.0178 236.463 71.085 236.74 71.0754C236.847 71.0716 236.958 71.0624 237.075 71.0477C237.192 71.0223 237.319 70.9858 237.456 70.9384L237.516 72.6653C237.284 72.7588 237.057 72.8254 236.834 72.8652C236.612 72.9156 236.378 72.9451 236.133 72.9536ZM231.97 66.0543L231.913 64.4073L237.238 64.2219L237.295 65.8689L231.97 66.0543ZM239.25 72.685L238.953 64.1621L241.319 64.0797L241.616 72.6025L239.25 72.685ZM240.147 63.0639C239.753 63.0776 239.423 62.9557 239.158 62.6981C238.893 62.4405 238.754 62.1305 238.741 61.7681C238.728 61.3949 238.845 61.0813 239.093 60.8272C239.34 60.5625 239.66 60.4232 240.055 60.4095C240.449 60.3958 240.768 60.5127 241.012 60.7604C241.265 60.9971 241.399 61.3019 241.412 61.675C241.424 62.0375 241.313 62.3562 241.077 62.6313C240.841 62.9063 240.531 63.0505 240.147 63.0639ZM247.813 72.5788C246.928 72.6097 246.149 72.45 245.475 72.0999C244.801 71.7498 244.271 71.2453 243.885 70.5863C243.499 69.9274 243.291 69.1608 243.261 68.2867C243.229 67.3912 243.384 66.6067 243.723 65.9332C244.062 65.2596 244.556 64.7248 245.204 64.3286C245.852 63.9219 246.618 63.7031 247.503 63.6722C248.387 63.6414 249.167 63.8011 249.841 64.1511C250.515 64.5012 251.044 65.0058 251.43 65.6647C251.816 66.313 252.024 67.0849 252.055 67.9804C252.086 68.8652 251.932 69.6497 251.593 70.3339C251.254 71.0075 250.76 71.5423 250.112 71.9384C249.464 72.3345 248.698 72.548 247.813 72.5788ZM247.751 70.8039C248.145 70.7902 248.483 70.6824 248.764 70.4804C249.056 70.2782 249.275 69.977 249.421 69.577C249.578 69.166 249.646 68.662 249.625 68.065C249.603 67.4467 249.5 66.9433 249.316 66.5549C249.142 66.166 248.903 65.8808 248.598 65.6993C248.303 65.5175 247.959 65.4334 247.564 65.4472C247.17 65.4609 246.827 65.5689 246.535 65.7712C246.254 65.9731 246.035 66.2742 245.878 66.6746C245.732 67.0746 245.67 67.5837 245.691 68.202C245.712 68.8097 245.81 69.3079 245.983 69.6968C246.168 70.0853 246.407 70.3704 246.702 70.5523C247.007 70.7338 247.357 70.8177 247.751 70.8039ZM259.332 71.9855L259.152 66.8366C259.133 66.2717 258.99 65.855 258.725 65.5868C258.459 65.3079 258.113 65.1758 257.686 65.1907C257.196 65.2078 256.812 65.3812 256.536 65.711C256.27 66.0405 256.146 66.4824 256.166 67.0367L256.342 72.0897L253.975 72.1721L253.678 63.6493L255.869 63.573L255.916 64.9161L255.996 64.9134C256.192 64.4262 256.504 64.0418 256.932 63.7601C257.37 63.4673 257.888 63.3105 258.485 63.2897C259.071 63.2693 259.581 63.3689 260.016 63.5886C260.461 63.7973 260.814 64.1372 261.076 64.6083C261.338 65.0688 261.481 65.6722 261.507 66.4184L261.698 71.9031L259.332 71.9855Z" fill="#151515"/>
</svg>
