<svg width="535" height="126" viewBox="0 0 535 126" fill="none" xmlns="http://www.w3.org/2000/svg">
<path d="M80.0548 103.382C80.6058 103.42 81.0829 103.003 81.1205 102.452C81.1581 101.901 80.7419 101.424 80.1909 101.387L80.1228 102.384L80.0548 103.382ZM8.07136 0.292893C7.68084 -0.0976311 7.04768 -0.0976311 6.65715 0.292893L0.29319 6.65685C-0.0973344 7.04738 -0.0973344 7.68054 0.29319 8.07107C0.683714 8.46159 1.31688 8.46159 1.7074 8.07107L7.36426 2.41421L13.0211 8.07107C13.4116 8.46159 14.0448 8.46159 14.4353 8.07107C14.8259 7.68054 14.8259 7.04738 14.4353 6.65685L8.07136 0.292893ZM80.1228 102.384L80.1909 101.387C49.87 99.3183 8.36426 66.6025 8.36426 1H7.36426H6.36426C6.36426 67.4818 48.5208 101.231 80.0548 103.382L80.1228 102.384Z" fill="#151515"/>
<path d="M432.002 65.3012C431.46 65.1985 430.937 65.5552 430.834 66.0979C430.731 66.6405 431.088 67.1637 431.631 67.2663L431.816 66.2838L432.002 65.3012ZM496.349 35.7358L497.288 36.0794L496.349 35.7358ZM486.803 35.7358L487.667 35.2332V35.2332L486.803 35.7358ZM525.658 1.55725C525.129 1.39821 524.571 1.69804 524.412 2.22693L521.82 10.8457C521.661 11.3746 521.961 11.9323 522.49 12.0913C523.019 12.2503 523.577 11.9505 523.736 11.4216L526.039 3.7605L533.7 6.06419C534.229 6.22323 534.787 5.9234 534.946 5.39451C535.105 4.86562 534.805 4.30794 534.276 4.14891L525.658 1.55725ZM431.816 66.2838L431.631 67.2663C446.012 69.9873 460.68 66.9116 472.599 60.8328C484.495 54.7654 493.794 45.6297 497.288 36.0794L496.349 35.7358L495.41 35.3923C492.145 44.3152 483.307 53.1263 471.69 59.0511C460.096 64.9645 445.877 67.9262 432.002 65.3012L431.816 66.2838ZM496.349 35.7358L497.288 36.0794C498.774 32.0183 498.573 28.9591 497.159 26.9518C495.74 24.9375 493.324 24.2978 491.104 24.5982C488.885 24.8983 486.652 26.1537 485.441 28.2178C484.195 30.3402 484.133 33.1336 485.938 36.2385L486.803 35.7358L487.667 35.2332C486.158 32.637 486.348 30.623 487.166 29.2302C488.017 27.7791 489.659 26.8117 491.372 26.5801C493.083 26.3487 494.654 26.8684 495.524 28.1035C496.399 29.3454 496.788 31.6254 495.41 35.3923L496.349 35.7358ZM486.803 35.7358L485.938 36.2385C488.552 40.7344 493.728 43.0193 499.464 43.4629C505.219 43.9081 511.724 42.5257 517.305 39.4773C522.891 36.4261 527.62 31.6647 529.691 25.306C531.769 18.9301 531.123 11.1045 526.25 2.04136L525.37 2.51489L524.489 2.98843C529.162 11.6813 529.662 18.9387 527.79 24.6865C525.912 30.4516 521.596 34.8545 516.346 37.7221C511.092 40.5923 504.972 41.8829 499.618 41.4689C494.245 41.0534 489.826 38.9471 487.667 35.2332L486.803 35.7358Z" fill="#151515"/>
<rect x="81.1357" y="24.5078" width="345.069" height="42.0973" rx="21.0486" transform="rotate(3.4581 81.1357 24.5078)" fill="#FFE3E3"/>
<path d="M103.238 52.4404L103.881 41.8038L106.324 41.9515L105.682 52.5881L103.238 52.4404ZM100.746 43.0249L100.868 40.9966L109.413 41.513L109.29 43.5413L100.746 43.0249ZM109.239 56.0089L109.947 44.3023L112.183 44.4374L112.104 45.747L112.184 45.7518C112.34 45.4621 112.553 45.2131 112.822 45.005C113.091 44.7968 113.394 44.6388 113.732 44.531C114.08 44.4238 114.452 44.3821 114.846 44.4059C115.559 44.4491 116.171 44.6677 116.681 45.0619C117.202 45.4567 117.592 45.9985 117.849 46.6873C118.118 47.3661 118.225 48.1633 118.17 49.079C118.115 49.984 117.913 50.7626 117.564 51.4147C117.226 52.0568 116.78 52.5428 116.225 52.8726C115.671 53.2024 115.043 53.3461 114.34 53.3037C113.957 53.2805 113.604 53.1951 113.281 53.0473C112.97 52.9003 112.698 52.7075 112.467 52.4692C112.246 52.2314 112.075 51.9646 111.954 51.6688L111.874 51.6639L111.603 56.1518L109.239 56.0089ZM113.68 51.4846C114.085 51.509 114.432 51.4231 114.722 51.2269C115.012 51.02 115.244 50.7241 115.417 50.3392C115.601 49.9443 115.709 49.4753 115.742 48.9323C115.776 48.3786 115.724 47.9 115.588 47.4964C115.464 47.0828 115.27 46.7611 115.006 46.5315C114.742 46.2912 114.408 46.1588 114.004 46.1343C113.61 46.1105 113.262 46.2017 112.961 46.4079C112.661 46.6035 112.419 46.8988 112.235 47.2937C112.062 47.6787 111.959 48.148 111.925 48.7016C111.893 49.234 111.939 49.707 112.064 50.1206C112.199 50.5348 112.404 50.8624 112.678 51.1034C112.952 51.3337 113.287 51.4608 113.68 51.4846ZM123.612 53.8639C122.728 53.8105 121.972 53.5779 121.346 53.166C120.719 52.7434 120.251 52.1808 119.941 51.4782C119.631 50.7649 119.503 49.961 119.558 49.0667C119.61 48.2042 119.836 47.4592 120.238 46.8316C120.65 46.194 121.187 45.7135 121.847 45.3901C122.509 45.056 123.244 44.9135 124.053 44.9624C124.884 45.0125 125.592 45.2263 126.178 45.6037C126.765 45.9705 127.2 46.4722 127.482 47.1091C127.775 47.7466 127.896 48.4859 127.845 49.327C127.836 49.4761 127.821 49.6355 127.8 49.8052C127.78 49.9642 127.756 50.0964 127.728 50.2015L120.653 49.774L120.741 48.3207L126.219 48.6517L125.616 48.8076C125.656 48.3291 125.611 47.9257 125.481 47.5973C125.362 47.2695 125.174 47.0177 124.917 46.8419C124.662 46.6555 124.337 46.5503 123.943 46.5265C123.57 46.504 123.235 46.5639 122.938 46.7063C122.641 46.8486 122.402 47.0853 122.222 47.4164C122.042 47.7368 121.937 48.1578 121.905 48.6796L121.845 49.6697C121.805 50.3299 121.953 50.8891 122.289 51.3476C122.625 51.806 123.149 52.0567 123.862 52.0998C124.246 52.123 124.613 52.065 124.963 51.9259C125.314 51.7761 125.612 51.527 125.858 51.1785L127.487 52.3349C127.251 52.6947 126.95 52.997 126.582 53.242C126.216 53.4763 125.783 53.6479 125.285 53.7567C124.787 53.8655 124.229 53.9012 123.612 53.8639ZM134.686 54.3408L135.2 45.8283L137.564 45.9711L137.049 54.4836L134.686 54.3408ZM129.256 54.0126L129.77 45.5002L132.134 45.643L131.619 54.1555L129.256 54.0126ZM130.983 50.6227L131.101 48.6742L135.86 48.9618L135.743 50.9103L130.983 50.6227ZM141.669 54.9551C140.817 54.9036 140.149 54.6335 139.666 54.1448C139.183 53.6561 138.963 53.0391 139.008 52.2938C139.052 51.5804 139.332 51.0096 139.849 50.5814C140.367 50.1425 141.163 49.8807 142.237 49.796L145.122 49.5375L145.042 50.8631L142.784 51.0953C142.311 51.1415 141.946 51.2584 141.688 51.4459C141.443 51.6234 141.308 51.8985 141.286 52.2711C141.267 52.5905 141.357 52.8578 141.558 53.073C141.77 53.2782 142.073 53.3926 142.467 53.4164C142.808 53.437 143.105 53.3802 143.359 53.2459C143.613 53.101 143.818 52.8943 143.973 52.6259C144.129 52.3468 144.219 52.0102 144.243 51.6163L144.389 49.1887C144.414 48.7841 144.321 48.4579 144.112 48.2102C143.903 47.9624 143.574 47.825 143.127 47.798C142.744 47.7749 142.424 47.8464 142.168 48.0126C141.923 48.1794 141.736 48.446 141.607 48.8122L139.493 48.2517C139.752 47.5086 140.223 46.9547 140.908 46.59C141.603 46.2259 142.409 46.0715 143.324 46.1269C144.538 46.2002 145.415 46.5417 145.955 47.1514C146.507 47.7511 146.753 48.5407 146.694 49.5203L146.456 53.4491L146.967 55.0829L144.555 54.9372L144.239 53.796L144.143 53.7902C143.884 54.1913 143.54 54.4965 143.11 54.7056C142.692 54.9047 142.212 54.9879 141.669 54.9551ZM158.768 55.7961L156.746 51.0734L159.155 47.2759L161.774 47.4341L158.706 51.785L158.788 50.4275L161.372 55.9534L158.768 55.7961ZM147.956 55.1427L151.17 49.9671L151.088 51.3247L148.582 46.637L151.186 46.7943L153.12 50.8544L150.559 55.3L147.956 55.1427ZM153.514 55.4785L154.028 46.9661L156.312 47.1041L155.798 55.6166L153.514 55.4785ZM151.728 51.8763L151.853 49.816L158.129 50.1953L158.005 52.2555L151.728 51.8763ZM166.252 56.4407C165.369 56.3873 164.613 56.1546 163.986 55.7427C163.36 55.3202 162.892 54.7576 162.582 54.0549C162.272 53.3416 162.144 52.5378 162.198 51.6434C162.251 50.781 162.477 50.0359 162.879 49.4083C163.291 48.7707 163.828 48.2902 164.488 47.9668C165.15 47.6328 165.885 47.4902 166.694 47.5391C167.525 47.5893 168.233 47.8031 168.819 48.1804C169.406 48.5472 169.841 49.049 170.123 49.6858C170.416 50.3233 170.537 51.0626 170.486 51.9037C170.477 52.0528 170.462 52.2122 170.441 52.3819C170.421 52.541 170.397 52.6731 170.369 52.7783L163.294 52.3507L163.382 50.8974L168.86 51.2284L168.257 51.3844C168.297 50.9059 168.252 50.5024 168.122 50.174C168.003 49.8462 167.815 49.5944 167.558 49.4186C167.303 49.2322 166.978 49.1271 166.584 49.1033C166.211 49.0808 165.876 49.1407 165.579 49.283C165.282 49.4253 165.043 49.662 164.863 49.9931C164.683 50.3135 164.578 50.7346 164.546 51.2563L164.486 52.2465C164.446 52.9066 164.594 53.4659 164.93 53.9243C165.265 54.3827 165.79 54.6335 166.503 54.6766C166.887 54.6997 167.253 54.6418 167.604 54.5026C167.955 54.3529 168.253 54.1037 168.499 53.7552L170.128 54.9116C169.892 55.2714 169.591 55.5738 169.223 55.8187C168.857 56.053 168.424 56.2246 167.926 56.3334C167.428 56.4422 166.87 56.478 166.252 56.4407ZM171.704 59.7835L172.411 48.0769L174.647 48.212L174.568 49.5216L174.648 49.5265C174.804 49.2367 175.017 48.9877 175.286 48.7796C175.555 48.5714 175.858 48.4135 176.196 48.3056C176.545 48.1985 176.916 48.1568 177.31 48.1806C178.023 48.2237 178.635 48.4423 179.146 48.8365C179.667 49.2313 180.056 49.7731 180.314 50.4619C180.582 51.1407 180.689 51.9379 180.634 52.8536C180.579 53.7586 180.377 54.5372 180.028 55.1893C179.69 55.8314 179.244 56.3174 178.69 56.6472C178.135 56.9771 177.507 57.1207 176.804 57.0783C176.421 57.0551 176.068 56.9697 175.746 56.822C175.434 56.6749 175.162 56.4822 174.931 56.2438C174.71 56.006 174.539 55.7392 174.418 55.4434L174.339 55.4386L174.067 59.9264L171.704 59.7835ZM176.145 55.2592C176.549 55.2836 176.896 55.1978 177.186 55.0015C177.476 54.7947 177.708 54.4988 177.881 54.1138C178.065 53.7189 178.174 53.2499 178.206 52.7069C178.24 52.1532 178.189 51.6746 178.053 51.271C177.928 50.8574 177.734 50.5358 177.47 50.3061C177.207 50.0658 176.873 49.9334 176.468 49.9089C176.074 49.8851 175.727 49.9763 175.426 50.1826C175.125 50.3781 174.883 50.6734 174.699 51.0683C174.526 51.4533 174.423 51.9226 174.389 52.4762C174.357 53.0086 174.403 53.4816 174.528 53.8952C174.663 54.3094 174.868 54.637 175.142 54.878C175.416 55.1083 175.751 55.2354 176.145 55.2592ZM187.697 60.75L189.192 57.2338L189.944 56.2052L192.318 49.2798L194.793 49.4294L190.045 60.8919L187.697 60.75ZM188.53 57.5785L185.977 48.8967L188.453 49.0463L190.043 55.8907L190.73 55.9322L190.575 57.702L188.53 57.5785ZM205.839 58.6405L203.816 53.9178L206.226 50.1203L208.845 50.2785L205.777 54.6294L205.859 53.2719L208.442 58.7978L205.839 58.6405ZM195.027 57.9871L198.241 52.8115L198.159 54.1691L195.653 49.4814L198.256 49.6387L200.191 53.6988L197.63 58.1444L195.027 57.9871ZM200.584 58.3229L201.099 49.8105L203.383 49.9485L202.868 58.4609L200.584 58.3229ZM198.799 54.7207L198.923 52.6604L205.2 53.0397L205.075 55.0999L198.799 54.7207ZM213.323 59.2851C212.439 59.2317 211.684 58.999 211.057 58.5871C210.431 58.1646 209.962 57.602 209.652 56.8993C209.343 56.186 209.215 55.3822 209.269 54.4878C209.321 53.6254 209.548 52.8803 209.949 52.2527C210.361 51.6151 210.898 51.1346 211.559 50.8112C212.22 50.4772 212.955 50.3346 213.765 50.3835C214.595 50.4337 215.303 50.6475 215.89 51.0248C216.477 51.3916 216.911 51.8934 217.193 52.5302C217.486 53.1677 217.607 53.907 217.556 54.7481C217.547 54.8972 217.532 55.0566 217.511 55.2263C217.491 55.3854 217.467 55.5175 217.439 55.6227L210.364 55.1951L210.452 53.7418L215.93 54.0728L215.328 54.2288C215.367 53.7503 215.322 53.3468 215.192 53.0184C215.073 52.6906 214.885 52.4388 214.629 52.263C214.373 52.0766 214.048 51.9715 213.654 51.9477C213.281 51.9252 212.947 51.9851 212.649 52.1274C212.352 52.2697 212.114 52.5064 211.933 52.8375C211.754 53.1579 211.648 53.579 211.616 54.1007L211.557 55.0909C211.517 55.751 211.665 56.3103 212 56.7687C212.336 57.2271 212.86 57.4779 213.574 57.521C213.957 57.5441 214.324 57.4862 214.674 57.347C215.025 57.1973 215.323 56.9481 215.569 56.5996L217.198 57.756C216.963 58.1158 216.661 58.4182 216.294 58.6631C215.927 58.8974 215.495 59.069 214.996 59.1778C214.498 59.2866 213.94 59.3224 213.323 59.2851ZM227.018 60.1126C226.134 60.0592 225.374 59.8263 224.736 59.4137C224.099 59.0012 223.619 58.4486 223.298 57.7559C222.976 57.0633 222.842 56.2804 222.894 55.4073C222.949 54.513 223.176 53.7467 223.578 53.1084C223.98 52.4702 224.523 51.9846 225.205 51.6519C225.888 51.3085 226.672 51.1635 227.556 51.2169C228.439 51.2703 229.2 51.5032 229.838 51.9158C230.475 52.3283 230.955 52.8809 231.276 53.5736C231.598 54.2556 231.732 55.0438 231.678 55.9381C231.625 56.8219 231.397 57.5882 230.995 58.2371C230.593 58.8753 230.05 59.3608 229.368 59.6936C228.685 60.0264 227.902 60.166 227.018 60.1126ZM227.125 58.3399C227.519 58.3637 227.866 58.2884 228.165 58.1142C228.474 57.9405 228.721 57.6616 228.905 57.2773C229.099 56.883 229.215 56.3877 229.251 55.7914C229.288 55.1739 229.234 54.663 229.087 54.2588C228.951 53.8552 228.74 53.5485 228.453 53.3389C228.177 53.1299 227.843 53.0134 227.449 52.9896C227.055 52.9658 226.703 53.0407 226.393 53.2144C226.094 53.3887 225.847 53.6676 225.653 54.0513C225.47 54.4356 225.359 54.9365 225.322 55.554C225.285 56.1609 225.335 56.6662 225.471 57.0698C225.617 57.474 225.829 57.7806 226.105 57.9897C226.391 58.1993 226.731 58.3161 227.125 58.3399ZM234.731 60.3864L235.218 52.3211L237.582 52.4639L237.095 60.5292L234.731 60.3864ZM232.556 53.667L232.674 51.7185L240.164 52.1711L240.047 54.1196L232.556 53.667ZM246.736 61.1118L244.359 56.4159L247.139 52.5926L249.79 52.7528L246.174 57.1507L246.068 55.1888L249.387 61.272L246.736 61.1118ZM241.099 60.7712L241.613 52.2587L243.977 52.4015L243.462 60.914L241.099 60.7712ZM242.298 57.3653L242.424 55.2891L245.65 55.484L245.524 57.5603L242.298 57.3653ZM250.747 64.56L251.454 52.8534L253.69 52.9885L253.611 54.2981L253.691 54.3029C253.847 54.0132 254.06 53.7642 254.329 53.5561C254.598 53.3479 254.902 53.1899 255.239 53.0821C255.588 52.9749 255.959 52.9332 256.353 52.9571C257.066 53.0002 257.678 53.2188 258.189 53.613C258.71 54.0078 259.099 54.5496 259.357 55.2384C259.626 55.9172 259.733 56.7144 259.677 57.6301C259.623 58.5351 259.421 59.3137 259.071 59.9658C258.733 60.6079 258.287 61.0939 257.733 61.4237C257.179 61.7535 256.55 61.8972 255.847 61.8548C255.464 61.8316 255.111 61.7462 254.789 61.5984C254.477 61.4514 254.206 61.2586 253.974 61.0203C253.754 60.7825 253.583 60.5157 253.462 60.2199L253.382 60.215L253.111 64.7029L250.747 64.56ZM255.188 60.0357C255.593 60.0601 255.94 59.9742 256.229 59.778C256.52 59.5712 256.751 59.2752 256.924 58.8903C257.108 58.4954 257.217 58.0264 257.25 57.4834C257.283 56.9297 257.232 56.4511 257.096 56.0475C256.971 55.6339 256.777 55.3123 256.513 55.0826C256.25 54.8423 255.916 54.7099 255.511 54.6854C255.117 54.6616 254.77 54.7528 254.469 54.959C254.169 55.1546 253.926 55.4499 253.742 55.8448C253.569 56.2298 253.466 56.6991 253.433 57.2527C253.4 57.7851 253.447 58.2581 253.571 58.6717C253.707 59.0859 253.911 59.4135 254.185 59.6545C254.46 59.8848 254.794 60.0119 255.188 60.0357ZM261.187 61.9851L261.701 53.4726L264.065 53.6154L263.903 56.2985L265.835 56.4153C266.794 56.4732 267.556 56.7704 268.122 57.3068C268.698 57.8439 268.958 58.5863 268.901 59.5339C268.844 60.4708 268.497 61.1712 267.86 61.6349C267.234 62.0993 266.441 62.3026 265.483 62.2447L261.187 61.9851ZM263.651 60.4669L265.072 60.5528C265.52 60.5798 265.862 60.4883 266.099 60.2782C266.337 60.0575 266.467 59.7608 266.489 59.3882C266.512 59.0049 266.419 58.6947 266.209 58.4576C265.999 58.2098 265.671 58.0724 265.224 58.0454L263.803 57.9595L263.651 60.4669ZM269.955 62.5149L270.469 54.0024L272.833 54.1453L272.319 62.6577L269.955 62.5149ZM276.343 62.9009L276.83 54.8356L279.194 54.9785L278.706 63.0437L276.343 62.9009ZM274.168 56.1815L274.286 54.233L281.776 54.6857L281.658 56.6341L274.168 56.1815ZM286.812 63.5336L287.326 55.0211L289.642 55.161L289.267 61.3737L289.347 61.3785L292.405 55.328L295.599 55.521L295.085 64.0335L292.785 63.8945L293.16 57.6978L293.08 57.693L290.07 63.7304L286.812 63.5336ZM309.573 65.1013C308.658 65.046 307.889 64.7751 307.266 64.2887C306.654 63.8029 306.198 63.1341 305.897 62.2824C305.606 61.4314 305.496 60.4309 305.565 59.281C305.626 58.2695 305.77 57.3966 305.996 56.6622C306.223 55.9172 306.543 55.306 306.956 54.8288C307.37 54.3515 307.888 53.9928 308.512 53.7527C309.136 53.5125 309.875 53.3809 310.732 53.3578L313.862 53.2745L313.915 55.3294L310.881 55.4025C310.314 55.411 309.834 55.4782 309.442 55.6041C309.05 55.7194 308.73 55.8924 308.481 56.1231C308.232 56.3538 308.037 56.6573 307.897 57.0335C307.768 57.3997 307.667 57.8371 307.593 58.3456L307.672 58.3664C307.885 58.0266 308.148 57.7433 308.461 57.5164C308.774 57.2789 309.121 57.1075 309.502 57.0023C309.893 56.887 310.302 56.8423 310.728 56.868C311.463 56.9124 312.097 57.1217 312.63 57.4958C313.163 57.8594 313.561 58.3483 313.823 58.9625C314.085 59.5768 314.193 60.2779 314.145 61.0657C314.094 61.9069 313.863 62.6409 313.451 63.2679C313.05 63.8849 312.514 64.36 311.842 64.6934C311.171 65.0162 310.414 65.1522 309.573 65.1013ZM309.689 63.1848C310.285 63.2209 310.766 63.0469 311.131 62.6629C311.508 62.2689 311.716 61.7311 311.758 61.0497C311.799 60.3576 311.662 59.799 311.346 59.3738C311.03 58.938 310.574 58.7021 309.978 58.666C309.584 58.6422 309.233 58.7118 308.924 58.8748C308.625 59.0384 308.386 59.2858 308.206 59.6169C308.036 59.9486 307.937 60.3486 307.909 60.8171C307.868 61.4986 308.005 62.0572 308.32 62.493C308.637 62.9182 309.093 63.1488 309.689 63.1848ZM319.551 65.7043C318.667 65.6509 317.912 65.4182 317.285 65.0063C316.659 64.5838 316.19 64.0212 315.88 63.3185C315.571 62.6052 315.443 61.8014 315.497 60.907C315.549 60.0446 315.776 59.2996 316.177 58.672C316.59 58.0343 317.126 57.5538 317.787 57.2304C318.448 56.8964 319.184 56.7538 319.993 56.8027C320.823 56.8529 321.532 57.0667 322.118 57.4441C322.705 57.8108 323.139 58.3126 323.421 58.9494C323.714 59.5869 323.835 60.3262 323.784 61.1674C323.775 61.3164 323.76 61.4758 323.739 61.6455C323.719 61.8046 323.695 61.9367 323.667 62.0419L316.592 61.6144L316.68 60.161L322.158 60.492L321.556 60.648C321.595 60.1695 321.55 59.766 321.42 59.4376C321.301 59.1098 321.113 58.8581 320.857 58.6823C320.601 58.4958 320.276 58.3907 319.882 58.3669C319.51 58.3444 319.175 58.4043 318.877 58.5466C318.58 58.689 318.342 58.9257 318.161 59.2567C317.982 59.5771 317.876 59.9982 317.845 60.5199L317.785 61.5101C317.745 62.1702 317.893 62.7295 318.228 63.1879C318.564 63.6463 319.088 63.8971 319.802 63.9402C320.185 63.9634 320.552 63.9054 320.902 63.7663C321.253 63.6165 321.552 63.3674 321.797 63.0189L323.426 64.1752C323.191 64.535 322.889 64.8374 322.522 65.0823C322.155 65.3166 321.723 65.4882 321.225 65.597C320.726 65.7058 320.169 65.7416 319.551 65.7043ZM328.969 66.2734C328.149 66.2238 327.43 65.9988 326.813 65.5981C326.208 65.1875 325.744 64.6412 325.422 63.9592C325.1 63.2666 324.967 62.4677 325.022 61.5627C325.076 60.6577 325.305 59.8861 325.707 59.2478C326.109 58.5989 326.635 58.1124 327.285 57.7884C327.946 57.465 328.681 57.3277 329.49 57.3766C330.459 57.4352 331.245 57.6857 331.849 58.1283C332.464 58.5608 332.881 59.1844 333.099 59.9991L330.998 60.5453C330.876 60.0891 330.683 59.7515 330.418 59.5325C330.154 59.3028 329.82 59.1758 329.415 59.1513C329.064 59.1301 328.744 59.2123 328.454 59.3978C328.166 59.5728 327.924 59.8574 327.73 60.2517C327.546 60.636 327.437 61.1209 327.401 61.7065C327.366 62.2921 327.416 62.792 327.551 63.2063C327.697 63.6212 327.902 63.9381 328.167 64.1572C328.443 64.3662 328.756 64.4813 329.108 64.5025C329.512 64.527 329.859 64.4411 330.149 64.2449C330.45 64.0387 330.689 63.7111 330.866 63.2623L332.869 64.0566C332.555 64.8391 332.071 65.419 331.418 65.7962C330.765 66.1735 329.948 66.3326 328.969 66.2734ZM339.481 66.7163L339.995 58.2038L342.359 58.3466L341.844 66.8591L339.481 66.7163ZM334.194 66.3968L334.709 57.8843L337.072 58.0272L336.558 66.5396L334.194 66.3968ZM336.156 59.9274L336.274 57.9789L340.794 58.252L340.676 60.2005L336.156 59.9274ZM344.155 67.1269C343.963 67.1154 343.789 67.0835 343.632 67.0312C343.474 66.9896 343.322 66.943 343.176 66.8914L343.291 64.9749C343.364 65.0114 343.442 65.0428 343.526 65.0693C343.611 65.0851 343.706 65.0962 343.813 65.1026C344.111 65.1206 344.352 65.0177 344.537 64.7937C344.732 64.5704 344.869 64.1619 344.947 63.5682C344.97 63.3666 344.993 63.1596 345.017 62.9473C345.04 62.735 345.064 62.5121 345.089 62.2785C345.115 62.0342 345.141 61.7793 345.168 61.5138L345.476 58.535L352.279 58.9461L351.765 67.4586L349.385 67.3148L349.863 59.4092L350.66 60.8038L346.061 60.5259L347.499 59.2664L347.233 61.8149C347.197 62.2295 347.159 62.6012 347.118 62.93C347.088 63.2488 347.05 63.5992 347.006 63.9812C346.926 64.7672 346.776 65.3992 346.555 65.8774C346.334 66.3556 346.025 66.6949 345.628 66.8954C345.242 67.0858 344.751 67.163 344.155 67.1269ZM356.371 67.9292C355.519 67.8778 354.851 67.6077 354.368 67.119C353.885 66.6303 353.665 66.0132 353.711 65.2679C353.754 64.5546 354.034 63.9838 354.551 63.5555C355.069 63.1167 355.865 62.8548 356.939 62.7701L359.824 62.5117L359.744 63.8372L357.486 64.0695C357.013 64.1157 356.648 64.2325 356.391 64.42C356.145 64.5975 356.011 64.8726 355.988 65.2453C355.969 65.5647 356.059 65.832 356.26 66.0471C356.472 66.2523 356.775 66.3668 357.169 66.3906C357.51 66.4112 357.807 66.3543 358.061 66.2201C358.316 66.0752 358.52 65.8685 358.676 65.6C358.831 65.3209 358.921 64.9844 358.945 64.5904L359.092 62.1629C359.116 61.7583 359.024 61.4321 358.814 61.1843C358.605 60.9366 358.276 60.7992 357.829 60.7722C357.446 60.749 357.126 60.8205 356.87 60.9867C356.625 61.1536 356.438 61.4201 356.309 61.7863L354.195 61.2258C354.454 60.4827 354.925 59.9288 355.61 59.5641C356.305 59.2001 357.111 59.0457 358.026 59.101C359.24 59.1744 360.117 59.5159 360.657 60.1256C361.209 60.7253 361.455 61.5149 361.396 62.4944L361.158 66.4233L361.669 68.057L359.257 67.9113L358.941 66.7702L358.846 66.7644C358.586 67.1655 358.242 67.4706 357.812 67.6798C357.394 67.8789 356.914 67.9621 356.371 67.9292ZM364.822 68.2476L365.309 60.1823L367.673 60.3251L367.186 68.3904L364.822 68.2476ZM362.647 61.5282L362.765 59.5797L370.255 60.0324L370.138 61.9808L362.647 61.5282ZM376.619 68.9605L377.134 60.448L379.498 60.5909L378.983 69.1033L376.619 68.9605ZM371.189 68.6324L371.704 60.1199L374.067 60.2627L373.553 68.7752L371.189 68.6324ZM372.917 65.2424L373.035 63.294L377.794 63.5816L377.676 65.53L372.917 65.2424ZM381.202 69.2374L381.717 60.725L384.08 60.8678L383.918 63.5509L385.851 63.6677C386.809 63.7256 387.571 64.0228 388.137 64.5592C388.714 65.0963 388.974 65.8387 388.916 66.7863C388.86 67.7232 388.513 68.4236 387.876 68.8873C387.249 69.3517 386.457 69.5549 385.499 69.497L381.202 69.2374ZM383.666 67.7193L385.088 67.8052C385.535 67.8322 385.877 67.7407 386.114 67.5306C386.352 67.3099 386.482 67.0132 386.505 66.6405C386.528 66.2572 386.434 65.947 386.224 65.7099C386.015 65.4622 385.687 65.3248 385.239 65.2978L383.818 65.2119L383.666 67.7193ZM389.97 69.7673L390.485 61.2548L392.848 61.3976L392.334 69.9101L389.97 69.7673ZM394.537 70.0433L395.052 61.5308L397.368 61.6707L396.992 67.8834L397.072 67.8882L400.131 61.8377L403.325 62.0307L402.81 70.5432L400.511 70.4042L400.885 64.2075L400.805 64.2027L397.795 70.2401L394.537 70.0433ZM399.251 60.7426C398.325 60.6867 397.625 60.4093 397.153 59.9106C396.693 59.4019 396.488 58.7163 396.54 57.8539L398.249 57.9571C398.223 58.383 398.299 58.7295 398.475 58.9966C398.662 59.2644 398.947 59.4099 399.33 59.433C399.713 59.4562 400.009 59.3458 400.216 59.1018C400.433 58.8585 400.555 58.5239 400.581 58.098L402.29 58.2013C402.238 59.0637 401.947 59.7194 401.418 60.1683C400.9 60.6072 400.177 60.7986 399.251 60.7426Z" fill="black"/>
<rect x="89.3525" y="83.804" width="296.772" height="42.0973" rx="21.0486" transform="rotate(-1.99477 89.3525 83.804)" fill="#FAF7BF"/>
<path d="M114.326 109.499L110.868 103.52L113.949 98.2253L116.668 98.1306L113.175 104.048L113.061 102.611L117.108 109.402L114.326 109.499ZM107.418 109.74L107.025 98.4665L109.472 98.3812L109.865 109.654L107.418 109.74ZM108.509 104.755L108.437 102.692L112.627 102.546L112.699 104.609L108.509 104.755ZM119.524 112.52L120.678 108.878L121.329 107.782L123.034 100.663L125.512 100.576L121.875 112.438L119.524 112.52ZM120.052 109.284L116.686 100.884L119.164 100.797L121.397 107.46L122.085 107.436L122.099 109.212L120.052 109.284ZM127.325 112.248L126.917 100.527L129.155 100.449L129.201 101.761L129.281 101.758C129.409 101.454 129.597 101.186 129.845 100.954C130.093 100.721 130.38 100.535 130.706 100.395C131.043 100.256 131.408 100.179 131.803 100.165C132.517 100.14 133.147 100.3 133.693 100.644C134.249 100.987 134.688 101.489 135.01 102.151C135.342 102.801 135.524 103.584 135.556 104.501C135.588 105.407 135.461 106.201 135.175 106.884C134.899 107.555 134.501 108.081 133.981 108.462C133.461 108.843 132.849 109.046 132.145 109.071C131.761 109.084 131.402 109.032 131.067 108.916C130.743 108.799 130.454 108.633 130.201 108.418C129.959 108.202 129.763 107.953 129.615 107.67L129.535 107.673L129.691 112.166L127.325 112.248ZM131.316 107.322C131.721 107.308 132.058 107.19 132.328 106.967C132.597 106.733 132.8 106.417 132.935 106.017C133.081 105.607 133.144 105.129 133.126 104.586C133.106 104.031 133.01 103.56 132.836 103.171C132.673 102.771 132.449 102.469 132.164 102.266C131.879 102.052 131.534 101.951 131.129 101.966C130.735 101.979 130.397 102.103 130.117 102.337C129.837 102.56 129.624 102.877 129.478 103.288C129.343 103.687 129.285 104.164 129.304 104.719C129.322 105.252 129.413 105.718 129.577 106.118C129.751 106.518 129.986 106.824 130.281 107.038C130.576 107.241 130.921 107.336 131.316 107.322ZM141.316 108.751C140.495 108.78 139.759 108.624 139.106 108.284C138.464 107.933 137.951 107.433 137.565 106.784C137.179 106.125 136.971 105.343 136.939 104.437C136.908 103.531 137.062 102.741 137.401 102.067C137.74 101.383 138.218 100.849 138.834 100.464C139.461 100.08 140.18 99.8733 140.99 99.8451C141.96 99.8113 142.766 99.986 143.41 100.369C144.063 100.741 144.537 101.322 144.831 102.113L142.792 102.856C142.627 102.414 142.402 102.096 142.118 101.903C141.834 101.699 141.489 101.605 141.084 101.619C140.732 101.631 140.421 101.743 140.151 101.956C139.88 102.157 139.667 102.463 139.51 102.874C139.364 103.274 139.301 103.768 139.322 104.354C139.342 104.94 139.439 105.433 139.613 105.833C139.798 106.232 140.033 106.528 140.317 106.721C140.611 106.903 140.934 106.987 141.286 106.975C141.691 106.961 142.029 106.842 142.298 106.62C142.578 106.386 142.785 106.037 142.918 105.573L144.989 106.174C144.75 106.982 144.323 107.606 143.709 108.043C143.094 108.481 142.297 108.717 141.316 108.751ZM150.637 108.234L150.34 99.7115L154.865 99.5539C155.665 99.5261 156.306 99.7012 156.789 100.079C157.282 100.446 157.54 100.96 157.563 101.621C157.579 102.08 157.464 102.468 157.219 102.786C156.985 103.104 156.645 103.324 156.201 103.446L156.204 103.526C156.804 103.601 157.276 103.819 157.62 104.181C157.974 104.531 158.16 104.984 158.179 105.538C158.196 106.029 158.078 106.46 157.824 106.831C157.57 107.203 157.212 107.498 156.75 107.717C156.288 107.936 155.743 108.057 155.114 108.078L150.637 108.234ZM152.936 106.681L154.423 106.63C154.881 106.614 155.225 106.506 155.452 106.306C155.691 106.094 155.804 105.813 155.791 105.461C155.779 105.109 155.647 104.842 155.395 104.659C155.154 104.475 154.804 104.391 154.346 104.407L152.859 104.459L152.936 106.681ZM152.812 103.116L154.155 103.069C154.539 103.055 154.824 102.96 155.01 102.783C155.206 102.595 155.299 102.346 155.288 102.037C155.277 101.728 155.167 101.486 154.958 101.312C154.749 101.127 154.458 101.041 154.085 101.054L152.742 101.101L152.812 103.116ZM163.899 107.965C163.014 107.995 162.24 107.836 161.577 107.485C160.913 107.124 160.393 106.608 160.018 105.938C159.642 105.258 159.438 104.47 159.407 103.574C159.377 102.711 159.532 101.948 159.872 101.285C160.222 100.611 160.71 100.081 161.337 99.6967C161.964 99.3013 162.682 99.0895 163.493 99.0613C164.324 99.0323 165.05 99.1778 165.669 99.4978C166.288 99.8071 166.768 100.265 167.11 100.872C167.462 101.479 167.652 102.204 167.682 103.046C167.687 103.195 167.687 103.355 167.682 103.526C167.677 103.686 167.666 103.82 167.648 103.928L160.565 104.174L160.514 102.719L165.999 102.528L165.414 102.741C165.408 102.261 165.325 101.863 165.164 101.549C165.014 101.234 164.804 101.001 164.531 100.85C164.259 100.689 163.926 100.615 163.531 100.629C163.158 100.642 162.83 100.733 162.548 100.903C162.266 101.073 162.051 101.332 161.903 101.678C161.754 102.014 161.689 102.443 161.707 102.966L161.742 103.957C161.765 104.618 161.965 105.161 162.343 105.585C162.721 106.01 163.267 106.209 163.981 106.185C164.365 106.171 164.724 106.079 165.06 105.907C165.395 105.724 165.668 105.448 165.879 105.078L167.611 106.074C167.411 106.455 167.14 106.784 166.797 107.063C166.454 107.331 166.04 107.543 165.554 107.699C165.069 107.854 164.517 107.943 163.899 107.965ZM169.402 106.124C169.679 105.794 169.896 105.445 170.054 105.077C170.222 104.697 170.346 104.266 170.425 103.783C170.504 103.289 170.538 102.722 170.526 102.082L170.499 99.0094L177.231 98.7749L177.477 105.843L175.222 105.921L175.044 100.788L171.43 100.914L172.588 99.6891L172.609 102.122C172.621 102.794 172.588 103.371 172.509 103.854C172.44 104.337 172.337 104.752 172.2 105.098C172.073 105.444 171.913 105.759 171.721 106.043L169.402 106.124ZM170.991 109.447L168.768 109.524L168.633 105.654L171.096 105.569L171.164 107.519L170.924 107.528L170.991 109.447ZM170.3 107.549L170.232 105.599L176.98 105.364L177.048 107.314L170.3 107.549ZM176.667 109.249L176.6 107.33L176.344 107.339L176.277 105.388L178.755 105.302L178.89 109.171L176.667 109.249ZM184.199 107.258C183.314 107.288 182.54 107.129 181.877 106.778C181.213 106.417 180.694 105.901 180.318 105.231C179.942 104.551 179.739 103.763 179.707 102.867C179.677 102.004 179.832 101.241 180.172 100.578C180.522 99.9037 181.011 99.3744 181.638 98.9897C182.264 98.5943 182.983 98.3825 183.793 98.3543C184.624 98.3253 185.35 98.4708 185.969 98.7908C186.588 99.1001 187.069 99.5583 187.41 100.165C187.762 100.772 187.953 101.497 187.982 102.339C187.987 102.488 187.987 102.648 187.983 102.819C187.978 102.979 187.966 103.113 187.949 103.221L180.865 103.467L180.814 102.012L186.299 101.821L185.714 102.034C185.708 101.554 185.625 101.156 185.464 100.842C185.315 100.527 185.104 100.294 184.832 100.143C184.559 99.9819 184.226 99.9081 183.831 99.9219C183.458 99.9349 183.131 100.026 182.848 100.196C182.566 100.366 182.351 100.624 182.203 100.971C182.054 101.307 181.989 101.736 182.008 102.259L182.042 103.25C182.065 103.911 182.265 104.454 182.643 104.878C183.021 105.303 183.567 105.502 184.281 105.478C184.665 105.464 185.024 105.372 185.36 105.2C185.695 105.017 185.968 104.741 186.18 104.371L187.911 105.367C187.711 105.748 187.44 106.077 187.097 106.356C186.754 106.624 186.34 106.836 185.855 106.992C185.369 107.147 184.817 107.236 184.199 107.258ZM191.561 106.809L191.28 98.7339L193.646 98.6515L193.927 106.727L191.561 106.809ZM188.758 100.327L188.69 98.3758L196.189 98.1146L196.257 100.065L188.758 100.327ZM203.866 106.38L203.585 98.3053L205.951 98.2229L206.232 106.298L203.866 106.38ZM201.063 99.8981L200.995 97.9472L208.494 97.686L208.562 99.6369L201.063 99.8981ZM213.868 106.224C212.984 106.255 212.21 106.095 211.546 105.745C210.883 105.384 210.363 104.868 209.988 104.198C209.612 103.517 209.408 102.729 209.377 101.834C209.347 100.97 209.502 100.207 209.841 99.5443C210.192 98.8703 210.68 98.341 211.307 97.9563C211.934 97.5609 212.652 97.3491 213.462 97.3209C214.294 97.2919 215.019 97.4374 215.639 97.7574C216.258 98.0667 216.738 98.5249 217.079 99.1321C217.431 99.7389 217.622 100.463 217.651 101.305C217.657 101.455 217.657 101.615 217.652 101.786C217.647 101.946 217.636 102.08 217.618 102.187L210.534 102.434L210.484 100.979L215.968 100.788L215.383 101C215.377 100.52 215.294 100.123 215.134 99.8082C214.984 99.4932 214.773 99.2604 214.501 99.1098C214.229 98.9485 213.895 98.8748 213.501 98.8885C213.128 98.9015 212.8 98.9929 212.518 99.1629C212.236 99.3328 212.02 99.5911 211.872 99.9378C211.724 100.274 211.659 100.703 211.677 101.225L211.712 102.217C211.735 102.878 211.935 103.42 212.313 103.845C212.69 104.269 213.236 104.469 213.95 104.444C214.334 104.431 214.694 104.338 215.029 104.166C215.365 103.984 215.638 103.708 215.849 103.337L217.581 104.334C217.381 104.714 217.109 105.044 216.767 105.323C216.424 105.591 216.01 105.803 215.524 105.958C215.039 106.114 214.487 106.203 213.868 106.224ZM223.585 105.886C222.669 105.918 221.877 105.721 221.211 105.296C220.556 104.871 220.038 104.248 219.657 103.429C219.287 102.609 219.082 101.624 219.042 100.473C219.007 99.4598 219.067 98.5772 219.222 97.8247C219.377 97.0615 219.638 96.4227 220.004 95.9083C220.37 95.3939 220.852 94.9876 221.45 94.6892C222.048 94.3909 222.772 94.1896 223.623 94.0853L226.731 93.7048L226.978 95.7455L223.965 96.1066C223.402 96.1689 222.931 96.2813 222.552 96.444C222.173 96.5959 221.871 96.7986 221.645 97.0519C221.419 97.3053 221.254 97.6259 221.15 98.0137C221.056 98.3905 220.997 98.8355 220.972 99.3487L221.053 99.3619C221.232 99.0034 221.467 98.6964 221.757 98.4408C222.047 98.1746 222.376 97.971 222.744 97.8301C223.123 97.6781 223.526 97.5947 223.952 97.5799C224.688 97.5543 225.339 97.7024 225.905 98.0242C226.471 98.3354 226.914 98.7842 227.233 99.3708C227.552 99.9574 227.725 100.645 227.753 101.434C227.782 102.276 227.622 103.029 227.271 103.692C226.931 104.344 226.442 104.868 225.805 105.264C225.167 105.649 224.428 105.856 223.585 105.886ZM223.519 103.967C224.116 103.946 224.578 103.727 224.905 103.31C225.242 102.882 225.399 102.327 225.375 101.645C225.351 100.952 225.161 100.409 224.806 100.016C224.45 99.6118 223.974 99.4203 223.377 99.4411C222.982 99.4548 222.639 99.5575 222.347 99.7491C222.066 99.9403 221.851 100.209 221.703 100.556C221.565 100.902 221.505 101.31 221.521 101.779C221.545 102.461 221.735 103.004 222.09 103.408C222.445 103.801 222.922 103.988 223.519 103.967ZM234.608 105.31L234.489 101.904L233.162 101.95L233.076 102.241L232.516 102.261C231.888 102.283 231.325 102.211 230.828 102.047C230.342 101.872 229.953 101.597 229.663 101.223C229.382 100.838 229.232 100.347 229.211 99.7502C229.19 99.1425 229.306 98.6315 229.558 98.2172C229.81 97.7921 230.172 97.4647 230.644 97.2348C231.127 97.0045 231.694 96.878 232.344 96.8554L236.678 96.7044L236.974 105.227L234.608 105.31ZM229.091 105.502L232.389 101.353L235.012 101.293L231.937 105.403L229.091 105.502ZM232.994 100.803L234.449 100.752L234.368 98.4179L232.913 98.4685C232.465 98.4841 232.133 98.6024 231.916 98.8234C231.7 99.0338 231.598 99.3202 231.61 99.6826C231.622 100.034 231.744 100.313 231.976 100.518C232.207 100.724 232.546 100.819 232.994 100.803ZM246.744 105.079C245.572 105.12 244.647 104.917 243.969 104.471C243.292 104.025 242.864 103.389 242.686 102.563L244.994 102.178C245.083 102.581 245.265 102.9 245.54 103.136C245.825 103.361 246.197 103.465 246.655 103.449C247.071 103.435 247.398 103.322 247.636 103.111C247.874 102.889 247.986 102.592 247.973 102.219C247.963 101.909 247.853 101.662 247.643 101.478C247.434 101.282 247.11 101.192 246.673 101.207L245.49 101.248L245.441 99.8253L246.496 99.7885C246.869 99.7755 247.138 99.6808 247.302 99.5043C247.467 99.3171 247.543 99.069 247.533 98.7598C247.522 98.44 247.412 98.1984 247.203 98.0349C247.005 97.871 246.72 97.7955 246.347 97.8085C245.952 97.8223 245.636 97.9347 245.398 98.1458C245.16 98.3462 245.01 98.6449 244.949 99.0419L242.653 98.8657C242.796 98.0603 243.196 97.422 243.852 96.9509C244.508 96.4797 245.363 96.2258 246.419 96.189C247.111 96.1649 247.717 96.2399 248.235 96.4139C248.765 96.5876 249.179 96.8507 249.48 97.2031C249.791 97.5552 249.955 97.9764 249.972 98.4667C249.986 98.8825 249.882 99.2597 249.659 99.5983C249.436 99.9369 249.071 100.174 248.563 100.309L248.566 100.389C249.188 100.474 249.649 100.687 249.949 101.029C250.249 101.36 250.407 101.776 250.425 102.277C250.444 102.821 250.306 103.301 250.011 103.717C249.726 104.121 249.305 104.446 248.748 104.689C248.19 104.922 247.522 105.052 246.744 105.079ZM254.684 104.803C253.831 104.832 253.141 104.627 252.613 104.186C252.085 103.746 251.809 103.152 251.783 102.406C251.758 101.692 251.982 101.097 252.457 100.622C252.931 100.135 253.698 99.7992 254.759 99.6128L257.606 99.0814L257.653 100.409L255.427 100.854C254.96 100.945 254.608 101.096 254.37 101.307C254.142 101.507 254.035 101.794 254.048 102.167C254.059 102.487 254.174 102.744 254.395 102.94C254.625 103.124 254.938 103.209 255.332 103.195C255.673 103.183 255.964 103.098 256.204 102.941C256.443 102.772 256.628 102.547 256.757 102.265C256.885 101.972 256.943 101.629 256.929 101.234L256.844 98.8037C256.83 98.3986 256.707 98.0827 256.475 97.856C256.243 97.6293 255.903 97.5237 255.455 97.5393C255.072 97.5527 254.76 97.6542 254.521 97.844C254.293 98.0334 254.132 98.3165 254.039 98.6933L251.881 98.3362C252.068 97.5719 252.485 96.9757 253.131 96.5476C253.789 96.1191 254.576 95.8889 255.493 95.857C256.708 95.8147 257.614 96.0713 258.209 96.6269C258.815 97.1715 259.135 97.9341 259.17 98.9149L259.307 102.848L259.97 104.426L257.555 104.51L257.133 103.404L257.037 103.408C256.817 103.832 256.503 104.168 256.095 104.417C255.698 104.655 255.227 104.784 254.684 104.803ZM265.835 107.424L265.426 95.7031L267.665 95.6252L267.711 96.9364L267.791 96.9336C267.919 96.6303 268.107 96.3622 268.355 96.1294C268.603 95.8967 268.89 95.7106 269.216 95.5711C269.553 95.4313 269.918 95.3546 270.313 95.3408C271.027 95.3159 271.657 95.4754 272.202 95.8193C272.759 96.1628 273.198 96.6652 273.52 97.3264C273.852 97.9766 274.034 98.76 274.066 99.6768C274.097 100.583 273.97 101.377 273.685 102.06C273.409 102.731 273.011 103.257 272.491 103.638C271.97 104.019 271.358 104.222 270.655 104.246C270.271 104.26 269.912 104.208 269.577 104.092C269.253 103.975 268.964 103.809 268.711 103.594C268.469 103.378 268.273 103.129 268.125 102.846L268.045 102.848L268.201 107.342L265.835 107.424ZM269.825 102.498C270.231 102.484 270.568 102.366 270.838 102.143C271.107 101.909 271.31 101.593 271.445 101.193C271.591 100.782 271.654 100.305 271.635 99.7615C271.616 99.2071 271.52 98.7355 271.346 98.3467C271.183 97.9468 270.959 97.6451 270.674 97.4415C270.389 97.2273 270.044 97.1273 269.639 97.1414C269.244 97.1551 268.907 97.2789 268.627 97.5128C268.347 97.736 268.134 98.053 267.988 98.4636C267.852 98.8633 267.794 99.3402 267.814 99.8946C267.832 100.428 267.923 100.894 268.087 101.294C268.261 101.693 268.495 102 268.791 102.214C269.086 102.417 269.431 102.512 269.825 102.498ZM277.444 107.02L278.598 103.377L279.248 102.282L280.954 95.1623L283.432 95.076L279.795 106.938L277.444 107.02ZM277.972 103.783L274.605 95.3834L277.084 95.2971L279.317 101.959L280.005 101.935L280.019 103.712L277.972 103.783ZM287.859 100.445C286.835 100.481 286.038 100.258 285.466 99.776C284.894 99.2943 284.592 98.5738 284.558 97.6143L284.469 95.0399L286.835 94.9575L286.907 97.0202C286.92 97.3933 286.979 97.6955 287.083 97.9267C287.197 98.1468 287.363 98.3065 287.58 98.4056C287.796 98.4942 288.08 98.5323 288.432 98.52C288.688 98.5111 288.943 98.4756 289.197 98.4134C289.462 98.3508 289.704 98.2729 289.925 98.1799L289.99 100.035C289.631 100.165 289.288 100.262 288.959 100.327C288.631 100.392 288.264 100.431 287.859 100.445ZM290.026 103.379L289.729 94.8567L292.096 94.7742L292.393 103.297L290.026 103.379ZM300.241 103.024L297.428 98.5749L299.832 94.5048L302.486 94.4123L299.305 99.134L299.013 97.1909L302.895 102.931L300.241 103.024ZM294.596 103.22L294.299 94.6975L296.666 94.6151L296.963 103.138L294.596 103.22ZM295.467 99.7159L295.394 97.6372L298.624 97.5247L298.697 99.6034L295.467 99.7159ZM306.208 106.018L307.362 102.375L308.012 101.28L309.717 94.1605L312.196 94.0742L308.559 105.936L306.208 106.018ZM306.736 102.782L303.369 94.3816L305.848 94.2953L308.081 100.958L308.769 100.934L308.782 102.71L306.736 102.782ZM323.649 102.208L320.836 97.7597L323.24 93.6895L325.894 93.5971L322.713 98.3187L322.421 96.3757L326.303 102.116L323.649 102.208ZM318.004 102.405L317.707 93.8822L320.074 93.7998L320.371 102.323L318.004 102.405ZM318.874 98.9006L318.802 96.8219L322.032 96.7094L322.105 98.7881L318.874 98.9006ZM336.96 93.2116L339.327 93.1292L339.624 101.652L337.257 101.734L336.96 93.2116ZM331.667 93.396L334.034 93.3136L334.331 101.836L331.964 101.919L331.667 93.396ZM333.499 101.865L333.431 99.9145L337.989 99.7558L338.057 101.707L333.499 101.865ZM338.763 103.603L338.696 101.684L338.456 101.693L338.388 99.7419L340.851 99.6561L340.986 103.526L338.763 103.603ZM346.304 101.612C345.419 101.642 344.645 101.483 343.982 101.132C343.318 100.771 342.798 100.255 342.423 99.5854C342.047 98.9047 341.843 98.1166 341.812 97.2212C341.782 96.3577 341.937 95.5945 342.277 94.9316C342.627 94.2577 343.115 93.7284 343.742 93.3437C344.369 92.9483 345.087 92.7365 345.898 92.7082C346.729 92.6793 347.455 92.8248 348.074 93.1448C348.693 93.4541 349.173 93.9123 349.515 94.5194C349.867 95.1262 350.057 95.8507 350.087 96.6928C350.092 96.8421 350.092 97.0022 350.088 97.1731C350.082 97.3334 350.071 97.4672 350.053 97.5745L342.97 97.8213L342.919 96.3661L348.404 96.1751L347.819 96.3876C347.813 95.9075 347.73 95.5102 347.569 95.1956C347.419 94.8806 347.209 94.6478 346.936 94.4972C346.664 94.3359 346.331 94.2621 345.936 94.2759C345.563 94.2888 345.235 94.3803 344.953 94.5502C344.671 94.7202 344.456 94.9785 344.308 95.3252C344.159 95.6612 344.094 96.0904 344.112 96.6128L344.147 97.6042C344.17 98.2651 344.37 98.8078 344.748 99.2322C345.126 99.6567 345.672 99.8564 346.386 99.8316C346.77 99.8182 347.129 99.7256 347.465 99.5538C347.8 99.3714 348.073 99.0951 348.284 98.7248L350.016 99.7211C349.816 100.102 349.545 100.431 349.202 100.71C348.859 100.978 348.445 101.19 347.959 101.346C347.474 101.501 346.922 101.59 346.304 101.612ZM351.834 101.355C351.642 101.362 351.465 101.346 351.304 101.309C351.143 101.283 350.987 101.251 350.836 101.213L350.77 99.2947C350.845 99.324 350.926 99.3479 351.012 99.3663C351.098 99.3739 351.194 99.3759 351.301 99.3722C351.599 99.3618 351.829 99.2364 351.992 98.9959C352.165 98.7551 352.262 98.3354 352.284 97.737C352.288 97.5341 352.291 97.3258 352.294 97.1123C352.298 96.8987 352.301 96.6744 352.303 96.4395C352.305 96.194 352.307 95.9378 352.308 95.6709L352.332 92.6763L359.144 92.439L359.441 100.962L357.058 101.045L356.783 93.1296L357.709 94.4422L353.104 94.6026L354.416 93.212L354.393 95.7744C354.397 96.1905 354.394 96.5642 354.384 96.8954C354.385 97.2156 354.381 97.5679 354.373 97.9524C354.368 98.7424 354.279 99.3859 354.104 99.8829C353.929 100.38 353.654 100.747 353.278 100.984C352.912 101.211 352.431 101.334 351.834 101.355ZM361.649 100.885L361.353 92.3621L363.671 92.2813L363.888 98.5016L363.968 98.4988L366.437 92.185L369.635 92.0736L369.932 100.596L367.63 100.677L367.414 94.4724L367.334 94.4752L364.911 100.771L361.649 100.885Z" fill="#151515"/>
</svg>
