<svg width="347" height="102" viewBox="0 0 347 102" fill="none" xmlns="http://www.w3.org/2000/svg">
<rect x="2.53906" width="345.069" height="42.0973" rx="21.0486" transform="rotate(3.4581 2.53906 0)" fill="#FFE3E3"/>
<path d="M24.6415 27.9326L25.2842 17.296L27.7278 17.4437L27.085 28.0803L24.6415 27.9326ZM22.1489 18.5171L22.2714 16.4888L30.8159 17.0052L30.6933 19.0335L22.1489 18.5171ZM30.6428 31.5011L31.3502 19.7945L33.5861 19.9296L33.507 21.2392L33.5868 21.244C33.7433 20.9543 33.956 20.7053 34.2251 20.4972C34.4941 20.289 34.7975 20.131 35.1353 20.0232C35.4837 19.916 35.8549 19.8743 36.2489 19.8981C36.9622 19.9412 37.5742 20.1599 38.0847 20.5541C38.6058 20.9489 38.9952 21.4907 39.2527 22.1795C39.5216 22.8583 39.6284 23.6555 39.5731 24.5712C39.5184 25.4762 39.3164 26.2547 38.9671 26.9069C38.6291 27.549 38.1829 28.0349 37.6287 28.3648C37.0745 28.6946 36.446 28.8383 35.7433 28.7958C35.36 28.7727 35.0071 28.6872 34.6848 28.5395C34.3731 28.3925 34.1016 28.1997 33.8702 27.9613C33.6495 27.7236 33.4786 27.4568 33.3575 27.161L33.2777 27.1561L33.0065 31.6439L30.6428 31.5011ZM35.0838 26.9767C35.4884 27.0012 35.8355 26.9153 36.1252 26.7191C36.4156 26.5122 36.6472 26.2163 36.82 25.8314C37.0042 25.4364 37.1127 24.9675 37.1455 24.4245C37.1789 23.8708 37.1277 23.3922 36.9918 22.9886C36.8672 22.575 36.6729 22.2533 36.409 22.0237C36.1456 21.7833 35.8117 21.651 35.4071 21.6265C35.0131 21.6027 34.6657 21.6939 34.3647 21.9001C34.0643 22.0957 33.8221 22.391 33.6379 22.7859C33.4651 23.1708 33.3619 23.6401 33.3285 24.1938C33.2963 24.7262 33.3425 25.1991 33.4671 25.6127C33.6024 26.027 33.807 26.3546 34.081 26.5956C34.3556 26.8259 34.6898 26.9529 35.0838 26.9767ZM45.0148 29.3561C44.1311 29.3027 43.3758 29.0701 42.7488 28.6582C42.1225 28.2356 41.6543 27.673 41.3441 26.9703C41.0345 26.257 40.9068 25.4532 40.9608 24.5588C41.0129 23.6964 41.2396 22.9514 41.6409 22.3238C42.0534 21.6862 42.5901 21.2057 43.2508 20.8823C43.9121 20.5482 44.6474 20.4056 45.4566 20.4545C46.2871 20.5047 46.9955 20.7185 47.5818 21.0959C48.1687 21.4626 48.6032 21.9644 48.8853 22.6013C49.1781 23.2388 49.299 23.9781 49.2482 24.8192C49.2392 24.9683 49.2242 25.1276 49.2033 25.2974C49.183 25.4564 49.159 25.5885 49.1313 25.6937L42.0562 25.2662L42.144 23.8128L47.622 24.1439L47.0195 24.2998C47.0591 23.8213 47.014 23.4179 46.8842 23.0895C46.7651 22.7617 46.5773 22.5099 46.3208 22.3341C46.0649 22.1477 45.74 22.0425 45.346 22.0187C44.9734 21.9962 44.6385 22.0561 44.3414 22.1985C44.0442 22.3408 43.8055 22.5775 43.6252 22.9085C43.4456 23.229 43.34 23.65 43.3085 24.1717L43.2486 25.1619C43.2087 25.8221 43.3566 26.3813 43.6922 26.8397C44.0278 27.2982 44.5523 27.5489 45.2657 27.592C45.649 27.6152 46.0158 27.5572 46.3662 27.4181C46.7172 27.2683 47.0155 27.0192 47.2609 26.6707L48.8901 27.8271C48.6547 28.1869 48.3532 28.4892 47.9858 28.7342C47.619 28.9685 47.1865 29.14 46.6884 29.2489C46.1902 29.3577 45.6324 29.3934 45.0148 29.3561ZM56.0891 29.833L56.6035 21.3205L58.9672 21.4633L58.4528 29.9758L56.0891 29.833ZM50.659 29.5048L51.1734 20.9924L53.5371 21.1352L53.0227 29.6477L50.659 29.5048ZM52.3867 26.1149L52.5044 24.1664L57.2637 24.454L57.146 26.4025L52.3867 26.1149ZM63.072 30.4473C62.2203 30.3958 61.5527 30.1257 61.0693 29.637C60.5859 29.1483 60.3667 28.5313 60.4117 27.786C60.4548 27.0726 60.7351 26.5018 61.2525 26.0736C61.7706 25.6347 62.5665 25.3729 63.6403 25.2882L66.5251 25.0297L66.445 26.3553L64.1869 26.5875C63.7139 26.6337 63.3489 26.7506 63.0917 26.9381C62.8459 27.1156 62.7117 27.3906 62.6892 27.7633C62.6699 28.0827 62.7606 28.35 62.9614 28.5652C63.1734 28.7703 63.4763 28.8848 63.8703 28.9086C64.211 28.9292 64.5083 28.8724 64.7622 28.7381C65.0167 28.5932 65.2216 28.3865 65.3767 28.1181C65.5325 27.8389 65.6223 27.5024 65.6461 27.1085L65.7928 24.6809C65.8173 24.2763 65.7248 23.9501 65.5153 23.7024C65.3059 23.4546 64.9776 23.3172 64.5304 23.2902C64.1471 23.2671 63.8275 23.3386 63.5717 23.5048C63.3265 23.6716 63.1394 23.9382 63.0105 24.3044L60.8964 23.7438C61.155 23.0008 61.6266 22.4469 62.3112 22.0822C63.0064 21.7181 63.8119 21.5637 64.7276 21.6191C65.9413 21.6924 66.8183 22.0339 67.3585 22.6436C67.91 23.2433 68.1562 24.0329 68.097 25.0125L67.8596 28.9413L68.37 30.5751L65.9584 30.4293L65.6426 29.2882L65.5468 29.2824C65.2875 29.6835 64.9431 29.9886 64.5137 30.1978C64.0956 30.3969 63.615 30.4801 63.072 30.4473ZM80.1718 31.2882L78.149 26.5656L80.5584 22.7681L83.1777 22.9263L80.1096 27.2772L80.1917 25.9197L82.7751 31.4456L80.1718 31.2882ZM69.3595 30.6349L72.5736 25.4593L72.4915 26.8168L69.9857 22.1292L72.589 22.2865L74.5236 26.3466L71.9628 30.7922L69.3595 30.6349ZM74.9174 30.9707L75.4318 22.4583L77.7156 22.5963L77.2012 31.1087L74.9174 30.9707ZM73.1314 27.3684L73.2559 25.3082L79.5325 25.6875L79.408 27.7477L73.1314 27.3684ZM87.6558 31.9328C86.7721 31.8794 86.0168 31.6468 85.3898 31.2349C84.7635 30.8123 84.2952 30.2497 83.985 29.5471C83.6755 28.8338 83.5478 28.0299 83.6018 27.1356C83.6539 26.2731 83.8806 25.5281 84.2819 24.9005C84.6944 24.2629 85.231 23.7824 85.8917 23.459C86.5531 23.125 87.2884 22.9824 88.0975 23.0313C88.928 23.0815 89.6364 23.2953 90.2227 23.6726C90.8097 24.0394 91.2442 24.5412 91.5263 25.178C91.8191 25.8155 91.94 26.5548 91.8892 27.3959C91.8802 27.545 91.8652 27.7044 91.8443 27.8741C91.824 28.0332 91.7999 28.1653 91.7722 28.2705L84.6971 27.8429L84.7849 26.3896L90.263 26.7206L89.6605 26.8766C89.7001 26.3981 89.655 25.9946 89.5252 25.6662C89.4061 25.3384 89.2183 25.0866 88.9618 24.9108C88.7059 24.7244 88.3809 24.6193 87.987 24.5955C87.6143 24.5729 87.2795 24.6328 86.9823 24.7752C86.6852 24.9175 86.4465 25.1542 86.2662 25.4853C86.0865 25.8057 85.9809 26.2268 85.9494 26.7485L85.8896 27.7387C85.8497 28.3988 85.9976 28.9581 86.3332 29.4165C86.6688 29.8749 87.1933 30.1257 87.9067 30.1688C88.29 30.1919 88.6568 30.1339 89.0072 29.9948C89.3582 29.8451 89.6564 29.5959 89.9019 29.2474L91.5311 30.4038C91.2956 30.7636 90.9942 31.066 90.6267 31.3109C90.2599 31.5452 89.8275 31.7168 89.3293 31.8256C88.8312 31.9344 88.2734 31.9702 87.6558 31.9328ZM93.107 35.2757L93.8144 23.5691L96.0503 23.7042L95.9712 25.0138L96.051 25.0186C96.2075 24.7289 96.4202 24.4799 96.6892 24.2718C96.9583 24.0636 97.2617 23.9056 97.5995 23.7978C97.9479 23.6906 98.3191 23.649 98.7131 23.6728C99.4264 23.7159 100.038 23.9345 100.549 24.3287C101.07 24.7235 101.459 25.2653 101.717 25.9541C101.986 26.6329 102.093 27.4301 102.037 28.3458C101.983 29.2508 101.781 30.0294 101.431 30.6815C101.093 31.3236 100.647 31.8096 100.093 32.1394C99.5386 32.4692 98.9102 32.6129 98.2074 32.5705C97.8241 32.5473 97.4713 32.4619 97.149 32.3142C96.8373 32.1671 96.5657 31.9744 96.3344 31.736C96.1136 31.4982 95.9428 31.2314 95.8217 30.9356L95.7419 30.9308L95.4707 35.4186L93.107 35.2757ZM97.548 30.7514C97.9526 30.7758 98.2997 30.6899 98.5894 30.4937C98.8797 30.2869 99.1113 29.991 99.2842 29.606C99.4684 29.2111 99.5769 28.7421 99.6097 28.1991C99.6431 27.6454 99.5919 27.1668 99.456 26.7632C99.3314 26.3496 99.1371 26.028 98.8731 25.7983C98.6098 25.558 98.2759 25.4256 97.8713 25.4011C97.4773 25.3773 97.1299 25.4685 96.8289 25.6748C96.5285 25.8703 96.2863 26.1656 96.1021 26.5605C95.9293 26.9455 95.8261 27.4148 95.7926 27.9684C95.7605 28.5008 95.8067 28.9738 95.9313 29.3874C96.0666 29.8016 96.2712 30.1292 96.5451 30.3702C96.8197 30.6005 97.154 30.7276 97.548 30.7514ZM109.101 36.2422L110.596 32.726L111.347 31.6974L113.721 24.772L116.197 24.9216L111.449 36.3841L109.101 36.2422ZM109.934 33.0707L107.381 24.3889L109.856 24.5385L111.446 31.3828L112.133 31.4243L111.978 33.1942L109.934 33.0707ZM127.242 34.1326L125.219 29.41L127.629 25.6125L130.248 25.7707L127.18 30.1216L127.262 28.7641L129.845 34.29L127.242 34.1326ZM116.43 33.4793L119.644 28.3037L119.562 29.6612L117.056 24.9736L119.659 25.1309L121.594 29.191L119.033 33.6366L116.43 33.4793ZM121.988 33.8151L122.502 25.3027L124.786 25.4407L124.272 33.9531L121.988 33.8151ZM120.202 30.2128L120.326 28.1526L126.603 28.5319L126.478 30.5921L120.202 30.2128ZM134.726 34.7772C133.842 34.7238 133.087 34.4912 132.46 34.0793C131.834 33.6567 131.366 33.0941 131.055 32.3915C130.746 31.6782 130.618 30.8743 130.672 29.98C130.724 29.1175 130.951 28.3725 131.352 27.7449C131.765 27.1073 132.301 26.6268 132.962 26.3034C133.623 25.9694 134.359 25.8268 135.168 25.8757C135.998 25.9259 136.707 26.1396 137.293 26.517C137.88 26.8838 138.315 27.3856 138.597 28.0224C138.889 28.6599 139.01 29.3992 138.96 30.2403C138.951 30.3894 138.936 30.5488 138.915 30.7185C138.894 30.8776 138.87 31.0097 138.843 31.1149L131.768 30.6873L131.855 29.234L137.333 29.565L136.731 29.721C136.77 29.2425 136.725 28.839 136.596 28.5106C136.476 28.1828 136.289 27.931 136.032 27.7552C135.776 27.5688 135.451 27.4637 135.057 27.4399C134.685 27.4173 134.35 27.4772 134.053 27.6196C133.756 27.7619 133.517 27.9986 133.337 28.3297C133.157 28.6501 133.051 29.0712 133.02 29.5929L132.96 30.5831C132.92 31.2432 133.068 31.8025 133.404 32.2609C133.739 32.7193 134.264 32.9701 134.977 33.0132C135.36 33.0363 135.727 32.9783 136.078 32.8392C136.429 32.6895 136.727 32.4403 136.972 32.0918L138.601 33.2482C138.366 33.608 138.065 33.9104 137.697 34.1553C137.33 34.3896 136.898 34.5612 136.4 34.67C135.902 34.7788 135.344 34.8146 134.726 34.7772ZM148.421 35.6048C147.538 35.5514 146.777 35.3185 146.139 34.9059C145.502 34.4934 145.022 33.9408 144.701 33.2481C144.379 32.5555 144.245 31.7726 144.298 30.8995C144.352 30.0052 144.58 29.2388 144.982 28.6006C145.384 27.9623 145.926 27.4768 146.609 27.1441C147.292 26.8007 148.075 26.6557 148.959 26.7091C149.843 26.7625 150.603 26.9954 151.241 27.408C151.879 27.8205 152.358 28.3731 152.68 29.0658C153.002 29.7478 153.136 30.536 153.082 31.4303C153.028 32.3141 152.8 33.0804 152.398 33.7293C151.996 34.3675 151.454 34.853 150.771 35.1858C150.088 35.5186 149.305 35.6582 148.421 35.6048ZM148.529 33.8321C148.923 33.8559 149.269 33.7806 149.568 33.6064C149.878 33.4327 150.124 33.1538 150.308 32.7695C150.503 32.3752 150.618 31.8799 150.654 31.2836C150.692 30.6661 150.637 30.1552 150.49 29.751C150.354 29.3474 150.143 29.0407 149.857 28.8311C149.581 28.622 149.246 28.5056 148.852 28.4818C148.458 28.458 148.106 28.5329 147.796 28.7066C147.497 28.8808 147.251 29.1598 147.057 29.5435C146.873 29.9278 146.763 30.4287 146.725 31.0462C146.689 31.6531 146.738 32.1584 146.874 32.562C147.021 32.9662 147.232 33.2728 147.508 33.4819C147.794 33.6915 148.135 33.8083 148.529 33.8321ZM156.134 35.8786L156.622 27.8133L158.985 27.9561L158.498 36.0214L156.134 35.8786ZM153.96 29.1592L154.077 27.2107L161.568 27.6633L161.45 29.6118L153.96 29.1592ZM168.14 36.604L165.763 31.9081L168.542 28.0848L171.193 28.245L167.578 32.6429L167.472 30.6809L170.791 36.7642L168.14 36.604ZM162.502 36.2633L163.016 27.7509L165.38 27.8937L164.866 36.4062L162.502 36.2633ZM163.702 32.8575L163.827 30.7813L167.053 30.9762L166.928 33.0524L163.702 32.8575ZM172.15 40.0522L172.858 28.3456L175.094 28.4807L175.014 29.7903L175.094 29.7951C175.251 29.5054 175.464 29.2564 175.733 29.0483C176.002 28.8401 176.305 28.6821 176.643 28.5743C176.991 28.4671 177.362 28.4254 177.756 28.4492C178.47 28.4923 179.082 28.711 179.592 29.1052C180.113 29.5 180.503 30.0418 180.76 30.7306C181.029 31.4094 181.136 32.2066 181.081 33.1223C181.026 34.0273 180.824 34.8058 180.475 35.458C180.137 36.1001 179.69 36.586 179.136 36.9159C178.582 37.2457 177.953 37.3894 177.251 37.3469C176.867 37.3238 176.515 37.2383 176.192 37.0906C175.881 36.9436 175.609 36.7508 175.378 36.5124C175.157 36.2747 174.986 36.0079 174.865 35.7121L174.785 35.7072L174.514 40.1951L172.15 40.0522ZM176.591 35.5279C176.996 35.5523 177.343 35.4664 177.633 35.2702C177.923 35.0633 178.155 34.7674 178.328 34.3825C178.512 33.9876 178.62 33.5186 178.653 32.9756C178.686 32.4219 178.635 31.9433 178.499 31.5397C178.375 31.1261 178.18 30.8044 177.916 30.5748C177.653 30.3344 177.319 30.2021 176.915 30.1776C176.521 30.1538 176.173 30.245 175.872 30.4512C175.572 30.6468 175.33 30.9421 175.145 31.337C174.973 31.722 174.869 32.1912 174.836 32.7449C174.804 33.2773 174.85 33.7503 174.975 34.1639C175.11 34.5781 175.314 34.9057 175.588 35.1467C175.863 35.377 176.197 35.504 176.591 35.5279ZM182.59 37.4773L183.105 28.9648L185.468 29.1076L185.306 31.7907L187.239 31.9075C188.197 31.9654 188.959 32.2626 189.525 32.799C190.102 33.3361 190.361 34.0785 190.304 35.0261C190.248 35.963 189.901 36.6634 189.264 37.1271C188.637 37.5915 187.845 37.7948 186.886 37.7369L182.59 37.4773ZM185.054 35.9591L186.476 36.045C186.923 36.072 187.265 35.9805 187.502 35.7704C187.74 35.5497 187.87 35.253 187.893 34.8803C187.916 34.497 187.822 34.1868 187.612 33.9497C187.403 33.702 187.074 33.5646 186.627 33.5376L185.206 33.4517L185.054 35.9591ZM191.358 38.0071L191.873 29.4946L194.236 29.6375L193.722 38.1499L191.358 38.0071ZM197.746 38.3931L198.233 30.3278L200.597 30.4706L200.11 38.5359L197.746 38.3931ZM195.571 31.6737L195.689 29.7252L203.179 30.1779L203.062 32.1263L195.571 31.6737ZM208.215 39.0257L208.73 30.5133L211.046 30.6532L210.67 36.8659L210.75 36.8707L213.809 30.8202L217.003 31.0132L216.488 39.5257L214.188 39.3867L214.563 33.19L214.483 33.1852L211.473 39.2226L208.215 39.0257ZM230.977 40.5935C230.061 40.5382 229.292 40.2673 228.669 39.7809C228.058 39.2951 227.601 38.6263 227.3 37.7746C227.009 36.9235 226.899 35.9231 226.968 34.7732C227.03 33.7617 227.173 32.8887 227.399 32.1544C227.626 31.4094 227.946 30.7982 228.359 30.321C228.773 29.8437 229.292 29.485 229.915 29.2448C230.539 29.0047 231.279 28.8731 232.135 28.85L235.266 28.7667L235.318 30.8216L232.284 30.8947C231.717 30.9032 231.238 30.9704 230.845 31.0963C230.454 31.2116 230.133 31.3845 229.884 31.6153C229.635 31.846 229.44 32.1495 229.3 32.5257C229.171 32.8919 229.07 33.3293 228.997 33.8378L229.075 33.8586C229.288 33.5188 229.551 33.2355 229.864 33.0086C230.178 32.7711 230.525 32.5997 230.905 32.4945C231.297 32.3792 231.705 32.3344 232.131 32.3602C232.866 32.4046 233.5 32.6139 234.033 32.988C234.567 33.3515 234.965 33.8404 235.227 34.4547C235.489 35.069 235.596 35.77 235.548 36.5579C235.498 37.3991 235.266 38.1331 234.854 38.7601C234.454 39.377 233.917 39.8522 233.245 40.1856C232.574 40.5084 231.818 40.6444 230.977 40.5935ZM231.092 38.677C231.689 38.7131 232.169 38.5391 232.535 38.1551C232.911 37.761 233.12 37.2233 233.161 36.5419C233.203 35.8498 233.066 35.2912 232.749 34.866C232.434 34.4302 231.978 34.1943 231.382 34.1582C230.988 34.1344 230.636 34.204 230.327 34.367C230.029 34.5306 229.789 34.778 229.609 35.109C229.439 35.4407 229.34 35.8408 229.312 36.3093C229.271 36.9907 229.408 37.5494 229.724 37.9852C230.04 38.4104 230.496 38.641 231.092 38.677ZM240.954 41.1965C240.071 41.1431 239.315 40.9104 238.688 40.4985C238.062 40.076 237.594 39.5134 237.284 38.8107C236.974 38.0974 236.846 37.2936 236.9 36.3992C236.952 35.5368 237.179 34.7917 237.58 34.1641C237.993 33.5265 238.53 33.046 239.19 32.7226C239.852 32.3886 240.587 32.246 241.396 32.2949C242.227 32.3451 242.935 32.5589 243.521 32.9363C244.108 33.303 244.543 33.8048 244.825 34.4416C245.118 35.0791 245.239 35.8184 245.188 36.6596C245.179 36.8086 245.164 36.968 245.143 37.1377C245.122 37.2968 245.098 37.4289 245.071 37.5341L237.996 37.1066L238.083 35.6532L243.561 35.9842L242.959 36.1402C242.999 35.6617 242.953 35.2582 242.824 34.9298C242.705 34.602 242.517 34.3502 242.26 34.1744C242.004 33.988 241.679 33.8829 241.285 33.8591C240.913 33.8366 240.578 33.8965 240.281 34.0388C239.984 34.1811 239.745 34.4178 239.565 34.7489C239.385 35.0693 239.279 35.4904 239.248 36.0121L239.188 37.0023C239.148 37.6624 239.296 38.2217 239.632 38.6801C239.967 39.1385 240.492 39.3893 241.205 39.4324C241.588 39.4555 241.955 39.3976 242.306 39.2584C242.657 39.1087 242.955 38.8595 243.2 38.5111L244.83 39.6674C244.594 40.0272 244.293 40.3296 243.925 40.5745C243.558 40.8088 243.126 40.9804 242.628 41.0892C242.13 41.198 241.572 41.2338 240.954 41.1965ZM250.372 41.7656C249.552 41.716 248.834 41.4909 248.217 41.0903C247.611 40.6797 247.147 40.1334 246.825 39.4514C246.504 38.7588 246.37 37.9599 246.425 37.0549C246.48 36.1499 246.708 35.3783 247.11 34.74C247.512 34.0911 248.039 33.6046 248.689 33.2806C249.349 32.9572 250.084 32.8199 250.894 32.8688C251.862 32.9274 252.649 33.1779 253.253 33.6205C253.868 34.053 254.284 34.6766 254.502 35.4912L252.401 36.0375C252.279 35.5813 252.086 35.2437 251.821 35.0247C251.557 34.795 251.223 34.668 250.818 34.6435C250.467 34.6223 250.147 34.7045 249.858 34.89C249.569 35.0649 249.328 35.3496 249.133 35.7439C248.949 36.1282 248.84 36.6131 248.805 37.1987C248.769 37.7843 248.819 38.2842 248.954 38.6985C249.1 39.1134 249.306 39.4303 249.57 39.6493C249.846 39.8584 250.16 39.9735 250.511 39.9947C250.916 40.0192 251.263 39.9333 251.553 39.7371C251.853 39.5309 252.092 39.2033 252.269 38.7545L254.273 39.5488C253.958 40.3313 253.475 40.9111 252.821 41.2884C252.168 41.6657 251.352 41.8248 250.372 41.7656ZM260.884 42.2084L261.398 33.696L263.762 33.8388L263.248 42.3513L260.884 42.2084ZM255.598 41.889L256.112 33.3765L258.476 33.5194L257.961 42.0318L255.598 41.889ZM257.559 35.4195L257.677 33.4711L262.197 33.7442L262.079 35.6927L257.559 35.4195ZM265.558 42.6191C265.367 42.6076 265.192 42.5756 265.035 42.5234C264.877 42.4818 264.725 42.4352 264.579 42.3836L264.695 40.4671C264.767 40.5036 264.845 40.535 264.929 40.5614C265.014 40.5772 265.109 40.5884 265.216 40.5948C265.514 40.6128 265.755 40.5098 265.94 40.2859C266.135 40.0626 266.272 39.6541 266.351 39.0604C266.373 38.8588 266.397 38.6518 266.42 38.4395C266.444 38.2272 266.468 38.0043 266.493 37.7707C266.518 37.5264 266.544 37.2715 266.571 37.006L266.879 34.0272L273.683 34.4383L273.168 42.9508L270.789 42.807L271.266 34.9014L272.064 36.296L267.464 36.0181L268.903 34.7585L268.636 37.3071C268.601 37.7217 268.562 38.0934 268.521 38.4222C268.491 38.741 268.454 39.0914 268.409 39.4734C268.33 40.2593 268.179 40.8914 267.958 41.3696C267.737 41.8478 267.428 42.1871 267.031 42.3875C266.646 42.578 266.155 42.6552 265.558 42.6191ZM277.774 43.4214C276.922 43.37 276.255 43.0999 275.771 42.6112C275.288 42.1224 275.069 41.5054 275.114 40.7601C275.157 40.0468 275.437 39.476 275.955 39.0477C276.473 38.6088 277.269 38.347 278.342 38.2623L281.227 38.0039L281.147 39.3294L278.889 39.5617C278.416 39.6079 278.051 39.7247 277.794 39.9122C277.548 40.0897 277.414 40.3648 277.391 40.7375C277.372 41.0569 277.463 41.3242 277.663 41.5393C277.875 41.7445 278.178 41.859 278.572 41.8828C278.913 41.9034 279.21 41.8465 279.464 41.7123C279.719 41.5674 279.924 41.3607 280.079 41.0922C280.235 40.8131 280.324 40.4766 280.348 40.0826L280.495 37.655C280.519 37.2505 280.427 36.9243 280.217 36.6765C280.008 36.4288 279.68 36.2914 279.233 36.2644C278.849 36.2412 278.53 36.3127 278.274 36.4789C278.029 36.6458 277.842 36.9123 277.713 37.2785L275.599 36.718C275.857 35.9749 276.329 35.421 277.013 35.0563C277.709 34.6922 278.514 34.5379 279.43 34.5932C280.643 34.6666 281.52 35.0081 282.061 35.6178C282.612 36.2175 282.858 37.0071 282.799 37.9866L282.562 41.9155L283.072 43.5492L280.66 43.4035L280.345 42.2624L280.249 42.2566C279.99 42.6577 279.645 42.9628 279.216 43.1719C278.798 43.3711 278.317 43.4542 277.774 43.4214ZM286.225 43.7398L286.713 35.6745L289.076 35.8173L288.589 43.8826L286.225 43.7398ZM284.051 37.0204L284.168 35.0719L291.659 35.5245L291.541 37.473L284.051 37.0204ZM298.023 44.4527L298.537 35.9402L300.901 36.083L300.386 44.5955L298.023 44.4527ZM292.593 44.1245L293.107 35.6121L295.471 35.7549L294.956 44.2674L292.593 44.1245ZM294.32 40.7346L294.438 38.7861L299.197 39.0737L299.08 41.0222L294.32 40.7346ZM302.606 44.7296L303.12 36.2171L305.484 36.36L305.322 39.0431L307.254 39.1599C308.212 39.2178 308.975 39.5149 309.541 40.0514C310.117 40.5885 310.377 41.3308 310.32 42.2784C310.263 43.2154 309.916 43.9158 309.279 44.3795C308.652 44.8439 307.86 45.0471 306.902 44.9892L302.606 44.7296ZM305.07 43.2115L306.491 43.2974C306.938 43.3244 307.28 43.2329 307.518 43.0228C307.755 42.8021 307.885 42.5054 307.908 42.1327C307.931 41.7494 307.838 41.4392 307.628 41.2021C307.418 40.9544 307.09 40.817 306.643 40.79L305.221 40.7041L305.07 43.2115ZM311.374 45.2595L311.888 36.747L314.252 36.8898L313.737 45.4023L311.374 45.2595ZM315.941 45.5354L316.455 37.023L318.771 37.1629L318.395 43.3756L318.475 43.3804L321.534 37.3299L324.728 37.5229L324.214 46.0354L321.914 45.8964L322.288 39.6997L322.208 39.6949L319.199 45.7323L315.941 45.5354ZM320.654 36.2348C319.728 36.1788 319.029 35.9015 318.557 35.4028C318.096 34.8941 317.892 34.2085 317.944 33.3461L319.653 33.4493C319.627 33.8752 319.702 34.2217 319.878 34.4888C320.065 34.7566 320.35 34.902 320.733 34.9252C321.117 34.9484 321.412 34.838 321.619 34.594C321.837 34.3507 321.959 34.0161 321.984 33.5902L323.693 33.6935C323.641 34.5559 323.35 35.2116 322.821 35.6605C322.303 36.0993 321.581 36.2908 320.654 36.2348Z" fill="black"/>
<rect x="10.7549" y="59.2961" width="296.772" height="42.0973" rx="21.0486" transform="rotate(-1.99477 10.7549 59.2961)" fill="#FAF7BF"/>
<path d="M35.7283 84.9912L32.2701 79.012L35.3516 73.7175L38.07 73.6228L34.5778 79.54L34.4637 78.1031L38.5106 84.8943L35.7283 84.9912ZM28.8205 85.2318L28.4278 73.9586L30.8743 73.8734L31.267 85.1466L28.8205 85.2318ZM29.9116 80.2468L29.8398 78.1841L34.0292 78.0381L34.1011 80.1009L29.9116 80.2468ZM40.9267 88.0121L42.0806 84.3697L42.7309 83.2744L44.4361 76.1548L46.9146 76.0684L43.2773 87.9302L40.9267 88.0121ZM41.4544 84.7758L38.0879 76.3759L40.5664 76.2895L42.7997 82.9518L43.4873 82.9279L43.5011 84.7045L41.4544 84.7758ZM48.7271 87.7404L48.3189 76.0195L50.5575 75.9415L50.6032 77.2528L50.6831 77.25C50.8113 76.9467 50.9994 76.6786 51.2475 76.4458C51.4955 76.2131 51.7826 76.027 52.1086 75.8875C52.4452 75.7477 52.8108 75.671 53.2052 75.6572C53.9194 75.6323 54.5494 75.7918 55.095 76.1357C55.6513 76.4792 56.0904 76.9816 56.4123 77.6428C56.7444 78.293 56.9265 79.0764 56.9584 79.9932C56.99 80.8993 56.8629 81.6936 56.5771 82.3759C56.3017 83.0472 55.9037 83.5734 55.3833 83.9544C54.863 84.3354 54.251 84.5382 53.5474 84.5627C53.1636 84.5761 52.8043 84.5245 52.4694 84.4081C52.1451 84.2913 51.8565 84.1253 51.6035 83.91C51.3612 83.6943 51.1657 83.4449 51.0171 83.1619L50.9372 83.1647L51.0937 87.658L48.7271 87.7404ZM52.7181 82.8145C53.1231 82.8004 53.4606 82.6819 53.7303 82.4591C53.9997 82.2255 54.2021 81.909 54.3376 81.5093C54.4834 81.0987 54.5468 80.6215 54.5279 80.0779C54.5086 79.5235 54.4121 79.0519 54.2385 78.6631C54.0751 78.2632 53.8511 77.9615 53.5666 77.7579C53.2816 77.5437 52.9366 77.4436 52.5315 77.4578C52.1371 77.4715 51.7998 77.5953 51.5198 77.8292C51.2394 78.0524 51.0263 78.3694 50.8805 78.78C50.745 79.1797 50.6869 79.6566 50.7062 80.211C50.7248 80.744 50.8157 81.2104 50.9791 81.6103C51.1531 82.0098 51.3879 82.3165 51.6835 82.5303C51.9788 82.7335 52.3236 82.8282 52.7181 82.8145ZM62.7183 84.2433C61.8975 84.2719 61.161 84.1161 60.5087 83.7759C59.8668 83.4247 59.3531 82.925 58.9676 82.2766C58.5818 81.6177 58.3731 80.8351 58.3415 79.929C58.31 79.0229 58.4639 78.2331 58.8033 77.5595C59.1424 76.8753 59.6201 76.341 60.2364 75.9567C60.8634 75.5719 61.582 75.3655 62.3921 75.3372C63.3622 75.3035 64.1688 75.4782 64.8119 75.8613C65.4652 76.2335 65.9391 76.8147 66.2334 77.6049L64.194 78.3483C64.0292 77.9058 63.8047 77.5881 63.5205 77.3952C63.2359 77.1917 62.891 77.0969 62.4859 77.1111C62.1342 77.1233 61.8232 77.2355 61.5531 77.4477C61.2826 77.6493 61.0691 77.9555 60.9127 78.3666C60.7665 78.7666 60.7037 79.2597 60.7241 79.846C60.7445 80.4323 60.8417 80.9253 61.0157 81.3248C61.2004 81.7239 61.4348 82.0199 61.7191 82.2128C62.0136 82.3947 62.3367 82.4795 62.6885 82.4672C63.0936 82.4531 63.431 82.3347 63.7007 82.1118C63.9808 81.8779 64.1874 81.5292 64.3207 81.0656L66.3909 81.6659C66.1522 82.4747 65.7256 83.0979 65.1112 83.5356C64.4967 83.9732 63.6991 84.2091 62.7183 84.2433ZM72.039 83.7265L71.7422 75.2037L76.2674 75.0461C77.0669 75.0182 77.7081 75.1934 78.1909 75.5715C78.6839 75.9385 78.942 76.4525 78.965 77.1134C78.981 77.5718 78.8664 77.9601 78.6213 78.2781C78.3869 78.5958 78.0477 78.8157 77.6037 78.9379L77.6065 79.0179C78.2068 79.093 78.6787 79.3114 79.0221 79.673C79.3759 80.0236 79.5624 80.476 79.5817 81.0304C79.5988 81.5207 79.4804 81.9518 79.2265 82.3235C78.9726 82.6952 78.6147 82.9905 78.1527 83.2094C77.6907 83.4283 77.1452 83.5487 76.5163 83.5706L72.039 83.7265ZM74.3383 82.1736L75.8254 82.1218C76.2838 82.1058 76.6269 81.9978 76.8548 81.7977C77.0929 81.5867 77.2059 81.3052 77.1936 80.9534C77.1814 80.6016 77.0493 80.3341 76.7974 80.1507C76.5562 79.967 76.2064 79.8831 75.748 79.8991L74.2609 79.9509L74.3383 82.1736ZM74.2141 78.6077L75.5573 78.5609C75.9411 78.5476 76.226 78.4523 76.4119 78.275C76.6081 78.0867 76.7009 77.838 76.6901 77.5289C76.6793 77.2197 76.5695 76.9781 76.3607 76.8039C76.1514 76.6191 75.8603 76.5332 75.4872 76.5462L74.144 76.5929L74.2141 78.6077ZM85.301 83.4567C84.4162 83.4876 83.6422 83.3277 82.9789 82.9773C82.3153 82.6162 81.7957 82.1006 81.4202 81.4306C81.0442 80.7499 80.8407 79.9619 80.8095 79.0664C80.7794 78.2029 80.9343 77.4398 81.2741 76.7769C81.6242 76.1029 82.1127 75.5736 82.7397 75.1889C83.3663 74.7935 84.0847 74.5817 84.8949 74.5535C85.7264 74.5245 86.4519 74.67 87.0714 74.99C87.6905 75.2993 88.1708 75.7575 88.5121 76.3647C88.8641 76.9715 89.0548 77.6959 89.0841 78.5381C89.0893 78.6873 89.0895 78.8474 89.0848 79.0183C89.0797 79.1786 89.0684 79.3124 89.0508 79.4198L81.9671 79.6665L81.9164 78.2114L87.4011 78.0204L86.8161 78.2328C86.8101 77.7528 86.7269 77.3554 86.5665 77.0408C86.4167 76.7258 86.2058 76.493 85.9338 76.3424C85.6613 76.1811 85.3279 76.1074 84.9335 76.1211C84.5604 76.1341 84.2327 76.2255 83.9504 76.3955C83.6682 76.5654 83.453 76.8237 83.305 77.1704C83.1566 77.5064 83.0915 77.9356 83.1097 78.458L83.1442 79.4494C83.1673 80.1103 83.3676 80.653 83.7453 81.0775C84.1229 81.5019 84.6689 81.7017 85.3831 81.6768C85.7669 81.6634 86.1266 81.5709 86.4621 81.3991C86.7973 81.2166 87.0705 80.9403 87.2817 80.57L89.0135 81.5664C88.8133 81.9469 88.5419 82.2766 88.1994 82.5553C87.8565 82.8234 87.4423 83.0353 86.9568 83.1909C86.4712 83.3466 85.9193 83.4352 85.301 83.4567ZM90.8043 81.6161C91.081 81.2862 91.2983 80.9371 91.4562 80.5687C91.6245 80.1893 91.7482 79.7581 91.8274 79.275C91.9063 78.7813 91.9399 78.2145 91.9283 77.5745L91.9013 74.5016L98.6332 74.2671L98.8794 81.3348L96.6248 81.4133L96.446 76.2805L92.8322 76.4063L93.9902 75.1813L94.0109 77.614C94.0237 78.286 93.9904 78.8635 93.9112 79.3465C93.8426 79.8292 93.7396 80.2437 93.6023 80.5901C93.4756 80.936 93.3158 81.2511 93.1229 81.5353L90.8043 81.6161ZM92.3929 84.9388L90.1703 85.0162L90.0355 81.1465L92.498 81.0608L92.5659 83.0116L92.3261 83.0199L92.3929 84.9388ZM91.7025 83.0417L91.6345 81.0909L98.3824 80.8558L98.4504 82.8066L91.7025 83.0417ZM98.0695 84.7411L98.0026 82.8222L97.7468 82.8311L97.6789 80.8803L100.157 80.794L100.292 84.6637L98.0695 84.7411ZM105.601 82.7497C104.716 82.7805 103.942 82.6207 103.279 82.2702C102.615 81.9091 102.096 81.3936 101.72 80.7236C101.344 80.0429 101.141 79.2548 101.11 78.3594C101.08 77.4959 101.234 76.7327 101.574 76.0698C101.924 75.3959 102.413 74.8666 103.04 74.4818C103.666 74.0865 104.385 73.8747 105.195 73.8464C106.027 73.8175 106.752 73.963 107.372 74.2829C107.991 74.5922 108.471 75.0505 108.812 75.6576C109.164 76.2644 109.355 76.9889 109.384 77.831C109.39 77.9803 109.39 78.1404 109.385 78.3113C109.38 78.4716 109.369 78.6054 109.351 78.7127L102.267 78.9595L102.217 77.5043L107.701 77.3133L107.116 77.5258C107.11 77.0457 107.027 76.6484 106.867 76.3338C106.717 76.0188 106.506 75.786 106.234 75.6354C105.962 75.4741 105.628 75.4003 105.234 75.414C104.861 75.427 104.533 75.5185 104.251 75.6884C103.968 75.8584 103.753 76.1167 103.605 76.4634C103.457 76.7994 103.392 77.2286 103.41 77.7509L103.444 78.7423C103.467 79.4033 103.668 79.946 104.045 80.3704C104.423 80.7949 104.969 80.9946 105.683 80.9698C106.067 80.9564 106.427 80.8638 106.762 80.692C107.097 80.5096 107.371 80.2333 107.582 79.863L109.314 80.8593C109.113 81.2399 108.842 81.5695 108.5 81.8483C108.157 82.1164 107.743 82.3282 107.257 82.4839C106.771 82.6396 106.22 82.7282 105.601 82.7497ZM112.963 82.3012L112.682 74.2261L115.049 74.1436L115.33 82.2187L112.963 82.3012ZM110.16 75.8188L110.092 73.868L117.591 73.6068L117.659 75.5576L110.16 75.8188ZM125.268 81.8726L124.987 73.7975L127.354 73.7151L127.635 81.7902L125.268 81.8726ZM122.465 75.3902L122.397 73.4394L129.896 73.1782L129.964 75.129L122.465 75.3902ZM135.271 81.7163C134.386 81.7471 133.612 81.5873 132.949 81.2369C132.285 80.8757 131.765 80.3602 131.39 79.6902C131.014 79.0095 130.81 78.2215 130.779 77.326C130.749 76.4625 130.904 75.6993 131.244 75.0365C131.594 74.3625 132.082 73.8332 132.709 73.4485C133.336 73.0531 134.054 72.8413 134.865 72.8131C135.696 72.7841 136.422 72.9296 137.041 73.2496C137.66 73.5589 138.14 74.0171 138.482 74.6243C138.834 75.231 139.024 75.9555 139.054 76.7977C139.059 76.9469 139.059 77.107 139.055 77.2779C139.049 77.4382 139.038 77.572 139.02 77.6794L131.937 77.9261L131.886 76.471L137.371 76.2799L136.786 76.4924C136.78 76.0123 136.697 75.615 136.536 75.3004C136.386 74.9854 136.176 74.7526 135.903 74.602C135.631 74.4407 135.298 74.3669 134.903 74.3807C134.53 74.3937 134.202 74.4851 133.92 74.6551C133.638 74.825 133.423 75.0833 133.275 75.43C133.126 75.766 133.061 76.1952 133.079 76.7176L133.114 77.709C133.137 78.3699 133.337 78.9126 133.715 79.337C134.093 79.7615 134.639 79.9613 135.353 79.9364C135.737 79.923 136.096 79.8305 136.432 79.6587C136.767 79.4762 137.04 79.1999 137.251 78.8296L138.983 79.826C138.783 80.2065 138.512 80.5361 138.169 80.8149C137.826 81.083 137.412 81.2949 136.926 81.4505C136.441 81.6062 135.889 81.6948 135.271 81.7163ZM144.988 81.3779C144.071 81.4098 143.28 81.2133 142.614 80.7882C141.959 80.3627 141.441 79.7404 141.06 78.9211C140.69 78.1015 140.485 77.1161 140.445 75.9648C140.409 74.952 140.469 74.0694 140.624 73.3169C140.779 72.5537 141.04 71.9149 141.406 71.4005C141.773 70.8861 142.255 70.4798 142.853 70.1814C143.451 69.8831 144.175 69.6818 145.025 69.5774L148.134 69.197L148.381 71.2376L145.368 71.5987C144.804 71.6611 144.333 71.7735 143.954 71.9361C143.575 72.0881 143.273 72.2907 143.047 72.5441C142.821 72.7974 142.656 73.118 142.552 73.5059C142.459 73.8827 142.399 74.3277 142.375 74.8409L142.455 74.8541C142.635 74.4956 142.87 74.1886 143.159 73.933C143.449 73.6668 143.778 73.4632 144.147 73.3223C144.526 73.1703 144.928 73.0869 145.355 73.0721C146.09 73.0465 146.741 73.1946 147.307 73.5164C147.873 73.8275 148.316 74.2764 148.635 74.863C148.954 75.4496 149.128 76.1373 149.155 76.9261C149.185 77.7683 149.024 78.521 148.674 79.1843C148.333 79.8365 147.845 80.3605 147.207 80.7563C146.57 81.1413 145.83 81.3486 144.988 81.3779ZM144.921 79.4591C145.518 79.4383 145.98 79.2194 146.307 78.8024C146.644 78.3744 146.801 77.8193 146.777 77.137C146.753 76.4441 146.563 75.9011 146.208 75.5079C145.853 75.104 145.376 74.9125 144.779 74.9332C144.385 74.947 144.042 75.0497 143.749 75.2413C143.468 75.4325 143.253 75.7015 143.105 76.0482C142.968 76.3945 142.907 76.8022 142.924 77.2713C142.947 77.9535 143.137 78.4966 143.493 78.9004C143.848 79.2936 144.324 79.4799 144.921 79.4591ZM156.01 80.8019L155.892 77.3959L154.564 77.4422L154.478 77.7333L153.919 77.7528C153.29 77.7747 152.727 77.7036 152.23 77.5395C151.744 77.3643 151.356 77.0896 151.065 76.7155C150.785 76.3304 150.634 75.8393 150.613 75.2424C150.592 74.6347 150.708 74.1237 150.96 73.7094C151.212 73.2843 151.574 72.9569 152.047 72.7269C152.53 72.4967 153.096 72.3702 153.747 72.3475L158.08 72.1966L158.377 80.7194L156.01 80.8019ZM150.494 80.994L153.791 76.8447L156.415 76.7854L153.34 80.8949L150.494 80.994ZM154.396 76.2953L155.851 76.2446L155.77 73.91L154.315 73.9607C153.867 73.9763 153.535 74.0946 153.319 74.3156C153.102 74.526 153 74.8124 153.013 75.1748C153.025 75.5266 153.147 75.8052 153.378 76.0106C153.609 76.216 153.949 76.3109 154.396 76.2953ZM168.147 80.5713C166.974 80.6121 166.049 80.4095 165.372 79.9635C164.694 79.5175 164.267 78.8813 164.089 78.055L166.397 77.6704C166.485 78.0729 166.667 78.3921 166.942 78.628C167.228 78.8529 167.599 78.9574 168.058 78.9414C168.474 78.9269 168.8 78.8141 169.039 78.603C169.276 78.3813 169.389 78.0839 169.376 77.7108C169.365 77.4016 169.255 77.1546 169.046 76.9698C168.836 76.7743 168.513 76.6842 168.076 76.6994L166.892 76.7406L166.843 75.3175L167.898 75.2807C168.271 75.2677 168.54 75.173 168.705 74.9965C168.869 74.8093 168.946 74.5612 168.935 74.252C168.924 73.9322 168.814 73.6905 168.606 73.527C168.408 73.3632 168.122 73.2877 167.749 73.3007C167.355 73.3144 167.039 73.4269 166.8 73.6379C166.562 73.8384 166.412 74.1371 166.351 74.5341L164.056 74.3579C164.199 73.5525 164.598 72.9142 165.254 72.443C165.91 71.9719 166.766 71.718 167.821 71.6812C168.514 71.6571 169.119 71.7321 169.638 71.9061C170.167 72.0798 170.582 72.3429 170.882 72.6953C171.193 73.0473 171.357 73.4686 171.374 73.9589C171.389 74.3747 171.285 74.7519 171.062 75.0905C170.839 75.4291 170.473 75.666 169.966 75.8011L169.968 75.881C170.59 75.9661 171.051 76.1795 171.352 76.5213C171.651 76.8524 171.81 77.2684 171.827 77.7695C171.846 78.3131 171.708 78.7929 171.413 79.2088C171.128 79.6136 170.707 79.9378 170.15 80.1813C169.593 80.4142 168.925 80.5442 168.147 80.5713ZM176.086 80.2948C175.233 80.3245 174.543 80.119 174.015 79.6785C173.488 79.2379 173.211 78.6445 173.185 77.8983C173.16 77.1841 173.385 76.5892 173.859 76.1137C174.333 75.6276 175.101 75.2914 176.162 75.105L179.009 74.5736L179.055 75.9008L176.829 76.3465C176.363 76.4375 176.01 76.5885 175.772 76.7996C175.544 76.9996 175.437 77.2862 175.45 77.6593C175.461 77.9791 175.577 78.2366 175.797 78.4317C176.028 78.6158 176.34 78.7009 176.735 78.6872C177.076 78.6753 177.366 78.5905 177.606 78.4327C177.846 78.2643 178.03 78.0391 178.159 77.7571C178.288 77.4644 178.345 77.1209 178.331 76.7264L178.247 74.2959C178.233 73.8908 178.109 73.5749 177.877 73.3482C177.645 73.1215 177.305 73.0159 176.858 73.0315C176.474 73.0449 176.163 73.1464 175.924 73.3362C175.696 73.5256 175.535 73.8087 175.441 74.1855L173.283 73.8284C173.47 73.0641 173.887 72.4679 174.534 72.0398C175.191 71.6113 175.978 71.3811 176.895 71.3492C178.11 71.3068 179.016 71.5635 179.612 72.1191C180.218 72.6637 180.538 73.4263 180.572 74.407L180.709 78.3407L181.372 79.9185L178.958 80.0026L178.535 78.8967L178.439 78.9C178.219 79.3239 177.905 79.6604 177.498 79.9094C177.1 80.1474 176.63 80.2758 176.086 80.2948ZM187.237 82.9162L186.829 71.1953L189.067 71.1173L189.113 72.4285L189.193 72.4258C189.321 72.1225 189.509 71.8544 189.757 71.6216C190.005 71.3889 190.292 71.2028 190.618 71.0633C190.955 70.9235 191.321 70.8467 191.715 70.833C192.429 70.8081 193.059 70.9676 193.605 71.3115C194.161 71.655 194.6 72.1574 194.922 72.8186C195.254 73.4687 195.436 74.2522 195.468 75.169C195.5 76.0751 195.373 76.8694 195.087 77.5517C194.811 78.223 194.414 78.7492 193.893 79.1302C193.373 79.5112 192.761 79.714 192.057 79.7385C191.673 79.7519 191.314 79.7003 190.979 79.5839C190.655 79.4671 190.366 79.3011 190.113 79.0858C189.871 78.8701 189.675 78.6207 189.527 78.3377L189.447 78.3405L189.603 82.8338L187.237 82.9162ZM191.228 77.9903C191.633 77.9762 191.97 77.8577 192.24 77.6349C192.509 77.4013 192.712 77.0848 192.847 76.6851C192.993 76.2745 193.057 75.7973 193.038 75.2536C193.018 74.6993 192.922 74.2277 192.748 73.8389C192.585 73.439 192.361 73.1373 192.076 72.9337C191.791 72.7195 191.446 72.6194 191.041 72.6336C190.647 72.6473 190.31 72.7711 190.03 73.005C189.749 73.2282 189.536 73.5452 189.39 73.9558C189.255 74.3554 189.197 74.8324 189.216 75.3868C189.235 75.9198 189.326 76.3862 189.489 76.7861C189.663 77.1856 189.898 77.4923 190.193 77.7061C190.489 77.9093 190.833 78.004 191.228 77.9903ZM198.847 82.5118L200 78.8695L200.651 77.7742L202.356 70.6545L204.834 70.5682L201.197 82.43L198.847 82.5118ZM199.374 79.2755L196.008 70.8756L198.486 70.7893L200.72 77.4516L201.407 77.4276L201.421 79.2042L199.374 79.2755ZM209.261 75.9374C208.238 75.973 207.44 75.75 206.868 75.2682C206.297 74.7865 205.994 74.0659 205.961 73.1065L205.871 70.5321L208.238 70.4497L208.309 72.5124C208.322 72.8855 208.381 73.1877 208.485 73.4188C208.599 73.639 208.765 73.7987 208.982 73.8978C209.199 73.9863 209.483 74.0245 209.835 74.0122C210.09 74.0033 210.345 73.9678 210.599 73.9055C210.864 73.843 211.107 73.7651 211.328 73.672L211.392 75.5269C211.034 75.6568 210.69 75.7542 210.362 75.819C210.033 75.8838 209.666 75.9232 209.261 75.9374ZM211.429 78.8717L211.132 70.3489L213.498 70.2664L213.795 78.7893L211.429 78.8717ZM221.643 78.5159L218.831 74.0671L221.234 69.997L223.889 69.9045L220.707 74.6261L220.415 72.6831L224.298 78.4235L221.643 78.5159ZM215.999 78.7125L215.702 70.1897L218.068 70.1073L218.365 78.6301L215.999 78.7125ZM216.869 75.2081L216.797 73.1293L220.027 73.0168L220.099 75.0956L216.869 75.2081ZM227.61 81.51L228.764 77.8677L229.415 76.7724L231.12 69.6527L233.598 69.5664L229.961 81.4282L227.61 81.51ZM228.138 78.2737L224.772 69.8738L227.25 69.7875L229.483 76.4498L230.171 76.4258L230.185 78.2024L228.138 78.2737ZM245.051 77.7006L242.238 73.2518L244.642 69.1817L247.296 69.0893L244.115 73.8109L243.823 71.8678L247.705 77.6082L245.051 77.7006ZM239.406 77.8972L239.109 69.3744L241.476 69.292L241.773 77.8148L239.406 77.8972ZM240.277 74.3928L240.204 72.3141L243.434 72.2016L243.507 74.2803L240.277 74.3928ZM258.363 68.7038L260.729 68.6214L261.026 77.1442L258.659 77.2267L258.363 68.7038ZM253.07 68.8882L255.436 68.8058L255.733 77.3286L253.367 77.411L253.07 68.8882ZM254.902 77.3575L254.834 75.4067L259.391 75.248L259.459 77.1988L254.902 77.3575ZM260.165 79.0954L260.098 77.1765L259.859 77.1849L259.791 75.2341L262.253 75.1483L262.388 79.018L260.165 79.0954ZM267.706 77.1037C266.821 77.1345 266.047 76.9747 265.384 76.6242C264.72 76.2631 264.201 75.7476 263.825 75.0776C263.449 74.3969 263.246 73.6088 263.215 72.7134C263.184 71.8499 263.339 71.0867 263.679 70.4238C264.029 69.7499 264.518 69.2206 265.145 68.8358C265.771 68.4405 266.49 68.2287 267.3 68.2004C268.131 68.1715 268.857 68.317 269.476 68.6369C270.096 68.9462 270.576 69.4045 270.917 70.0116C271.269 70.6184 271.46 71.3429 271.489 72.185C271.494 72.3343 271.495 72.4944 271.49 72.6653C271.485 72.8256 271.473 72.9594 271.456 73.0667L264.372 73.3134L264.321 71.8583L269.806 71.6673L269.221 71.8798C269.215 71.3997 269.132 71.0024 268.972 70.6878C268.822 70.3728 268.611 70.14 268.339 69.9894C268.066 69.8281 267.733 69.7543 267.338 69.768C266.965 69.781 266.638 69.8725 266.355 70.0424C266.073 70.2124 265.858 70.4707 265.71 70.8174C265.562 71.1534 265.497 71.5826 265.515 72.1049L265.549 73.0963C265.572 73.7573 265.773 74.3 266.15 74.7244C266.528 75.1488 267.074 75.3486 267.788 75.3238C268.172 75.3104 268.532 75.2178 268.867 75.046C269.202 74.8636 269.476 74.5872 269.687 74.217L271.419 75.2133C271.218 75.5939 270.947 75.9235 270.604 76.2023C270.262 76.4704 269.847 76.6822 269.362 76.8379C268.876 76.9936 268.324 77.0822 267.706 77.1037ZM273.236 76.847C273.044 76.8537 272.868 76.8385 272.706 76.8015C272.545 76.775 272.389 76.7431 272.239 76.7057L272.172 74.7868C272.248 74.8162 272.328 74.8401 272.415 74.8584C272.5 74.8661 272.596 74.8681 272.703 74.8644C273.001 74.854 273.232 74.7286 273.394 74.4881C273.567 74.2473 273.665 73.8276 273.687 73.2292C273.69 73.0263 273.694 72.818 273.697 72.6044C273.7 72.3909 273.703 72.1666 273.705 71.9317C273.708 71.6862 273.709 71.43 273.711 71.1631L273.734 68.1684L280.546 67.9312L280.843 76.454L278.461 76.537L278.185 68.6218L279.111 69.9344L274.506 70.0948L275.818 68.7042L275.796 71.2666C275.799 71.6827 275.796 72.0564 275.787 72.3876C275.787 72.7077 275.783 73.0601 275.775 73.4446C275.771 74.2346 275.681 74.8781 275.506 75.3751C275.332 75.8722 275.056 76.2393 274.68 76.4766C274.315 76.7028 273.833 76.8263 273.236 76.847ZM283.052 76.3771L282.755 67.8543L285.073 67.7735L285.29 73.9937L285.37 73.991L287.84 67.6772L291.038 67.5658L291.335 76.0886L289.032 76.1688L288.816 69.9646L288.736 69.9674L286.314 76.2635L283.052 76.3771Z" fill="#151515"/>
</svg>
