<svg width="430" height="65" viewBox="0 0 430 65" fill="none" xmlns="http://www.w3.org/2000/svg">
<rect y="22.505" width="170.448" height="42.0973" rx="21.0486" transform="rotate(-1.99477 0 22.505)" fill="#E8F1FE"/>
<path d="M25.2236 43.4524L21.43 37.0365L24.1644 36.9413L27.1604 42.5204L26.5527 42.5416L29.1533 36.7675L31.8717 36.6729L28.5496 43.3365L25.2236 43.4524ZM25.8202 48.1705L25.6086 42.0941L28.0551 42.0089L28.2667 48.0852L25.8202 48.1705ZM36.198 48.0011C35.3132 48.0319 34.5338 47.8723 33.8599 47.5222C33.186 47.1721 32.6561 46.6676 32.2703 46.0086C31.8844 45.3497 31.6763 44.5831 31.6458 43.709C31.6146 42.8135 31.7688 42.029 32.1082 41.3555C32.4476 40.6819 32.9413 40.1471 33.5892 39.7509C34.2368 39.3441 35.003 39.1253 35.8878 39.0945C36.7726 39.0637 37.5519 39.2233 38.2259 39.5734C38.8998 39.9235 39.4297 40.428 39.8155 41.087C40.201 41.7353 40.4093 42.5072 40.4405 43.4027C40.4713 44.2875 40.3172 45.072 39.9781 45.7562C39.6387 46.4297 39.145 46.9646 38.4971 47.3607C37.8492 47.7568 37.0828 47.9703 36.198 48.0011ZM36.1362 46.2262C36.5306 46.2125 36.8684 46.1046 37.1495 45.9027C37.4413 45.7005 37.6603 45.3993 37.8065 44.9993C37.9629 44.5883 38.0308 44.0843 38.01 43.4873C37.9884 42.869 37.8855 42.3656 37.7012 41.9771C37.5276 41.5883 37.2882 41.3031 36.983 41.1216C36.6885 40.9398 36.344 40.8557 35.9496 40.8694C35.5552 40.8832 35.2121 40.9912 34.9203 41.1935C34.6391 41.3954 34.4201 41.6965 34.2633 42.0969C34.1171 42.4969 34.0548 43.006 34.0764 43.6243C34.0975 44.232 34.1949 44.7302 34.3686 45.1191C34.5529 45.5075 34.7923 45.7927 35.0868 45.9746C35.392 46.1561 35.7417 46.2399 36.1362 46.2262ZM46.0766 47.6571C45.2984 47.6842 44.6226 47.585 44.049 47.3595C43.4751 47.1233 43.0245 46.7494 42.6972 46.2378C42.3698 45.7262 42.1923 45.0707 42.1644 44.2712L41.9834 39.0743L44.35 38.9919L44.5282 44.1088C44.5482 44.6845 44.6805 45.1121 44.9251 45.3918C45.1803 45.6711 45.5424 45.8025 46.0115 45.7862C46.4485 45.771 46.7847 45.6152 47.0198 45.3188C47.2656 45.0221 47.3785 44.5859 47.3585 44.0102L47.1803 38.8933L49.5468 38.8109L49.7278 44.0078C49.7557 44.8073 49.6241 45.4736 49.3332 46.0067C49.0422 46.5398 48.6134 46.9443 48.0466 47.2202C47.4902 47.4851 46.8335 47.6307 46.0766 47.6571ZM56.0862 47.1163L55.7894 38.5935L57.9801 38.5172L58.0335 40.0523L58.1135 40.0495C58.2445 39.5219 58.5019 39.0967 58.8856 38.7738C59.2795 38.4399 59.7483 38.2635 60.292 38.2445C60.3879 38.2412 60.4787 38.2434 60.5644 38.2511C60.6497 38.2481 60.7247 38.2562 60.7894 38.2752L60.8651 40.4499C60.7677 40.4106 60.6495 40.3881 60.5105 40.3822C60.3716 40.3764 60.2115 40.3766 60.0303 40.3829C59.6678 40.3956 59.3561 40.4865 59.0952 40.6557C58.8339 40.8142 58.6283 41.0401 58.4784 41.3335C58.3392 41.6266 58.2766 41.9756 58.2907 42.3807L58.4528 47.0339L56.0862 47.1163ZM66.2408 46.9548C65.356 46.9856 64.582 46.8258 63.9187 46.4753C63.255 46.1142 62.7355 45.5986 62.3599 44.9286C61.984 44.248 61.7804 43.4599 61.7492 42.5644C61.7192 41.701 61.874 40.9378 62.2138 40.2749C62.5639 39.6009 63.0524 39.0716 63.6794 38.6869C64.3061 38.2915 65.0245 38.0797 65.8346 38.0515C66.6661 38.0225 67.3916 38.168 68.0111 38.488C68.6303 38.7973 69.1105 39.2555 69.4519 39.8627C69.8039 40.4695 69.9945 41.1939 70.0239 42.0361C70.0291 42.1853 70.0293 42.3454 70.0246 42.5164C70.0195 42.6766 70.0081 42.8104 69.9905 42.9178L62.9068 43.1645L62.8561 41.7094L68.3408 41.5184L67.7559 41.7309C67.7498 41.2508 67.6666 40.8534 67.5062 40.5388C67.3565 40.2238 67.1456 39.991 66.8735 39.8404C66.6011 39.6791 66.2676 39.6054 65.8732 39.6191C65.5001 39.6321 65.1724 39.7236 64.8902 39.8935C64.6079 40.0634 64.3928 40.3217 64.2448 40.6684C64.0964 41.0045 64.0313 41.4337 64.0495 41.956L64.084 42.9474C64.107 43.6083 64.3073 44.151 64.685 44.5755C65.0627 44.9999 65.6086 45.1997 66.3229 45.1748C66.7066 45.1615 67.0663 45.0689 67.4019 44.8971C67.737 44.7146 68.0103 44.4383 68.2215 44.0681L69.9532 45.0644C69.753 45.4449 69.4817 45.7746 69.1392 46.0533C68.7963 46.3214 68.3821 46.5333 67.8965 46.689C67.411 46.8446 66.8591 46.9332 66.2408 46.9548ZM71.9849 49.7645L71.5767 38.0436L73.8154 37.9656L73.861 39.2769L73.941 39.2741C74.0692 38.9708 74.2573 38.7027 74.5053 38.4699C74.7534 38.2372 75.0404 38.0511 75.3664 37.9116C75.7031 37.7718 76.0686 37.6951 76.4631 37.6813C77.1773 37.6564 77.8072 37.8159 78.3529 38.1598C78.9092 38.5033 79.3482 39.0057 79.6701 39.6669C80.0023 40.3171 80.1843 41.1005 80.2163 42.0173C80.2478 42.9234 80.1207 43.7177 79.835 44.4C79.5595 45.0713 79.1616 45.5975 78.6412 45.9785C78.1208 46.3595 77.5088 46.5623 76.8052 46.5868C76.4215 46.6002 76.0621 46.5486 75.7272 46.4322C75.403 46.3154 75.1143 46.1494 74.8614 45.9341C74.619 45.7184 74.4236 45.469 74.275 45.186L74.195 45.1888L74.3515 49.6821L71.9849 49.7645ZM75.9759 44.8386C76.381 44.8245 76.7184 44.706 76.9881 44.4832C77.2575 44.2496 77.4599 43.9331 77.5954 43.5334C77.7412 43.1228 77.8047 42.6456 77.7857 42.102C77.7664 41.5476 77.67 41.076 77.4963 40.6872C77.333 40.2873 77.109 39.9856 76.8244 39.782C76.5394 39.5678 76.1944 39.4677 75.7893 39.4819C75.3949 39.4956 75.0577 39.6194 74.7776 39.8533C74.4972 40.0765 74.2841 40.3935 74.1383 40.8041C74.0028 41.2038 73.9447 41.6807 73.9641 42.2351C73.9826 42.7681 74.0736 43.2345 74.2369 43.6344C74.4109 44.0339 74.6458 44.3406 74.9414 44.5544C75.2366 44.7576 75.5815 44.8523 75.9759 44.8386ZM86.0881 46.2635C85.2033 46.2943 84.4293 46.1345 83.766 45.784C83.1024 45.4229 82.5828 44.9073 82.2072 44.2373C81.8313 43.5567 81.6278 42.7686 81.5966 41.8732C81.5665 41.0097 81.7214 40.2465 82.0612 39.5836C82.4113 38.9097 82.8998 38.3804 83.5268 37.9956C84.1534 37.6002 84.8718 37.3884 85.682 37.3602C86.5135 37.3313 87.239 37.4768 87.8585 37.7967C88.4776 38.106 88.9579 38.5643 89.2992 39.1714C89.6512 39.7782 89.8419 40.5027 89.8712 41.3448C89.8764 41.4941 89.8766 41.6542 89.8719 41.8251C89.8668 41.9854 89.8555 42.1192 89.8379 42.2265L82.7542 42.4732L82.7035 41.0181L88.1882 40.8271L87.6032 41.0396C87.5972 40.5595 87.5139 40.1622 87.3536 39.8475C87.2038 39.5326 86.9929 39.2998 86.7209 39.1491C86.4484 38.9879 86.115 38.9141 85.7206 38.9278C85.3475 38.9408 85.0198 39.0323 84.7375 39.2022C84.4553 39.3721 84.2401 39.6305 84.0921 39.9772C83.9437 40.3132 83.8786 40.7424 83.8968 41.2647L83.9313 42.2561C83.9543 42.9171 84.1547 43.4598 84.5324 43.8842C84.91 44.3086 85.456 44.5084 86.1702 44.4835C86.554 44.4702 86.9136 44.3776 87.2492 44.2058C87.5844 44.0234 87.8576 43.747 88.0688 43.3768L89.8006 44.3731C89.6004 44.7536 89.329 45.0833 88.9865 45.3621C88.6436 45.6301 88.2294 45.842 87.7439 45.9977C87.2583 46.1534 86.7064 46.2419 86.0881 46.2635ZM94.1421 45.983C93.2893 46.0127 92.5991 45.8072 92.0714 45.3667C91.5438 44.9261 91.2669 44.3327 91.2409 43.5865C91.2161 42.8723 91.4408 42.2774 91.9152 41.8019C92.3893 41.3158 93.1567 40.9796 94.2175 40.7932L97.0647 40.2618L97.111 41.589L94.8851 42.0347C94.4187 42.1257 94.0664 42.2767 93.8283 42.4878C93.6004 42.6878 93.493 42.9744 93.506 43.3475C93.5171 43.6673 93.6328 43.9248 93.8531 44.1199C94.0836 44.304 94.3961 44.3892 94.7906 44.3754C95.1317 44.3635 95.4222 44.2787 95.6622 44.1209C95.9018 43.9525 96.0861 43.7273 96.215 43.4453C96.3436 43.1526 96.401 42.8091 96.3873 42.4147L96.3026 39.9841C96.2885 39.579 96.1654 39.2631 95.9334 39.0364C95.7014 38.8097 95.3615 38.7041 94.9138 38.7197C94.53 38.7331 94.2187 38.8346 93.9798 39.0244C93.7516 39.2138 93.5907 39.4969 93.4971 39.8737L91.3393 39.5166C91.5262 38.7523 91.943 38.1561 92.5898 37.728C93.2473 37.2995 94.0344 37.0693 94.9512 37.0374C96.1665 36.9951 97.072 37.2517 97.6677 37.8073C98.2737 38.3519 98.5937 39.1145 98.6279 40.0953L98.7649 44.0289L99.4282 45.6067L97.0137 45.6908L96.5909 44.5849L96.495 44.5882C96.2749 45.0121 95.9611 45.3486 95.5536 45.5976C95.1563 45.8356 94.6858 45.964 94.1421 45.983ZM104.329 45.5961C103.498 45.6251 102.856 45.4446 102.405 45.0548C101.954 44.6543 101.714 44.0596 101.687 43.2707L101.409 35.3075L103.74 34.2017L104.041 42.8365C104.052 43.1456 104.134 43.3722 104.289 43.5163C104.443 43.6603 104.659 43.7275 104.936 43.7179C105.043 43.7142 105.155 43.7049 105.271 43.6902C105.388 43.6648 105.515 43.6283 105.652 43.5809L105.712 45.3078C105.48 45.4013 105.253 45.4679 105.031 45.5077C104.808 45.5581 104.574 45.5876 104.329 45.5961ZM100.167 38.6969L100.109 37.0499L105.434 36.8644L105.491 38.5114L100.167 38.6969ZM114.901 45.2279C114.069 45.2569 113.428 45.0764 112.977 44.6866C112.525 44.2861 112.286 43.6914 112.258 42.9025L111.981 34.9393L114.312 33.8335L114.613 42.4683C114.623 42.7774 114.706 43.004 114.86 43.1481C115.015 43.2921 115.231 43.3593 115.508 43.3497C115.615 43.346 115.726 43.3367 115.843 43.322C115.96 43.2966 116.086 43.2601 116.224 43.2127L116.284 44.9396C116.052 45.0331 115.825 45.0997 115.602 45.1395C115.38 45.1899 115.146 45.2194 114.901 45.2279ZM110.738 38.3286L110.681 36.6816L116.006 36.4962L116.063 38.1432L110.738 38.3286ZM118.017 44.9593L117.611 33.3024L119.978 33.2199L120.127 37.4893L120.207 37.4866C120.416 37.063 120.719 36.7269 121.116 36.4783C121.524 36.2293 121.994 36.0955 122.527 36.0769C123.113 36.0565 123.624 36.1561 124.058 36.3758C124.503 36.5845 124.857 36.9244 125.118 37.3955C125.38 37.856 125.524 38.4594 125.55 39.2056L125.741 44.6903L123.374 44.7727L123.195 39.6238C123.175 39.0588 123.033 38.6422 122.767 38.374C122.501 38.0951 122.155 37.963 121.729 37.9779C121.238 37.995 120.855 38.1631 120.578 38.4823C120.311 38.8011 120.188 39.2483 120.208 39.8239L120.384 44.8769L118.017 44.9593ZM131.779 44.6721C130.894 44.7029 130.12 44.5431 129.457 44.1926C128.793 43.8315 128.274 43.316 127.898 42.646C127.522 41.9653 127.319 41.1772 127.288 40.2818C127.258 39.4183 127.412 38.6551 127.752 37.9922C128.102 37.3183 128.591 36.789 129.218 36.4042C129.844 36.0089 130.563 35.7971 131.373 35.7688C132.205 35.7399 132.93 35.8854 133.55 36.2053C134.169 36.5146 134.649 36.9729 134.99 37.58C135.342 38.1868 135.533 38.9113 135.562 39.7534C135.567 39.9027 135.568 40.0628 135.563 40.2337C135.558 40.394 135.547 40.5278 135.529 40.6351L128.445 40.8818L128.395 39.4267L133.879 39.2357L133.294 39.4482C133.288 38.9681 133.205 38.5708 133.045 38.2562C132.895 37.9412 132.684 37.7084 132.412 37.5578C132.139 37.3965 131.806 37.3227 131.412 37.3364C131.038 37.3494 130.711 37.4409 130.429 37.6108C130.146 37.7808 129.931 38.0391 129.783 38.3858C129.635 38.7218 129.57 39.151 129.588 39.6733L129.622 40.6647C129.645 41.3257 129.846 41.8684 130.223 42.2928C130.601 42.7173 131.147 42.917 131.861 42.8922C132.245 42.8788 132.605 42.7862 132.94 42.6144C133.275 42.432 133.549 42.1556 133.76 41.7854L135.492 42.7817C135.291 43.1623 135.02 43.4919 134.678 43.7707C134.335 44.0388 133.92 44.2506 133.435 44.4063C132.949 44.562 132.397 44.6506 131.779 44.6721ZM137.412 44.2838L137.115 35.761L139.29 35.6852L139.335 36.9964L139.415 36.9936C139.623 36.5061 139.924 36.1274 140.32 35.8574C140.727 35.5765 141.202 35.4265 141.746 35.4076C142.343 35.3868 142.848 35.5026 143.263 35.755C143.677 35.9967 143.993 36.3592 144.213 36.8425L144.293 36.8398C144.5 36.3523 144.807 35.968 145.213 35.687C145.631 35.4057 146.111 35.2555 146.655 35.2366C147.198 35.2177 147.677 35.3184 148.09 35.5388C148.503 35.7486 148.824 36.0736 149.053 36.5139C149.292 36.9538 149.423 37.4936 149.445 38.1332L149.645 43.8577L147.278 43.9402L147.095 38.6794C147.077 38.1677 146.951 37.7825 146.718 37.5238C146.495 37.254 146.187 37.126 145.792 37.1398C145.366 37.1546 145.046 37.3098 144.832 37.6055C144.618 37.9011 144.521 38.3154 144.539 38.8484L144.72 44.0293L142.353 44.1117L142.17 38.8509C142.152 38.3392 142.032 37.9538 141.809 37.6947C141.586 37.425 141.278 37.297 140.883 37.3107C140.468 37.3252 140.143 37.4913 139.908 37.809C139.684 38.1156 139.581 38.5301 139.599 39.0525L139.779 44.2014L137.412 44.2838Z" fill="#151515"/>
<rect x="290.344" y="11.1302" width="139.015" height="42.0973" rx="21.0486" transform="rotate(3.77758 290.344 11.1302)" fill="#CDFABF"/>
<path d="M305.664 34.002L302.535 27.2371L305.265 27.4174L307.684 33.2695L307.078 33.2294L310.246 27.7463L312.96 27.9255L308.985 34.2212L305.664 34.002ZM305.783 38.7561L306.183 32.6893L308.626 32.8506L308.225 38.9174L305.783 38.7561ZM316.125 39.6314C315.242 39.5731 314.482 39.3359 313.847 38.9198C313.212 38.5037 312.735 37.9484 312.418 37.254C312.1 36.5596 311.97 35.776 312.028 34.9032C312.087 34.0091 312.319 33.2441 312.724 32.6081C313.13 31.9721 313.675 31.4896 314.359 31.1607C315.044 30.8211 315.829 30.6805 316.712 30.7388C317.596 30.7971 318.355 31.0343 318.99 31.4504C319.626 31.8665 320.102 32.4218 320.42 33.1162C320.738 33.8 320.868 34.5889 320.808 35.483C320.75 36.3664 320.518 37.1314 320.112 37.7781C319.706 38.4141 319.161 38.8965 318.477 39.2255C317.792 39.5544 317.008 39.6897 316.125 39.6314ZM316.242 37.8593C316.636 37.8853 316.983 37.812 317.283 37.6394C317.593 37.4675 317.842 37.1899 318.027 36.8066C318.224 36.4134 318.342 35.9188 318.382 35.3227C318.423 34.7054 318.371 34.1942 318.226 33.7892C318.093 33.3848 317.883 33.077 317.598 32.8658C317.323 32.6552 316.989 32.5369 316.595 32.5109C316.201 32.4849 315.849 32.5579 315.538 32.7298C315.238 32.9024 314.99 33.18 314.794 33.5625C314.608 33.9458 314.495 34.4461 314.454 35.0634C314.414 35.6701 314.461 36.1756 314.595 36.58C314.739 36.985 314.949 37.2928 315.223 37.5034C315.509 37.7146 315.848 37.8333 316.242 37.8593ZM325.988 40.2827C325.211 40.2314 324.549 40.0647 324.001 39.7826C323.454 39.4899 323.043 39.0726 322.769 38.5307C322.494 37.9888 322.384 37.3187 322.436 36.5205L322.779 31.3318L325.142 31.4878L324.804 36.5967C324.766 37.1714 324.855 37.6102 325.07 37.913C325.296 38.2166 325.643 38.3838 326.111 38.4147C326.548 38.4435 326.898 38.3223 327.162 38.0511C327.436 37.7806 327.592 37.358 327.63 36.7832L327.968 31.6744L330.33 31.8304L329.988 37.0191C329.935 37.8173 329.737 38.467 329.394 38.9682C329.051 39.4693 328.584 39.8287 327.992 40.0462C327.412 40.2537 326.744 40.3325 325.988 40.2827ZM336.001 40.7514L336.77 29.1127L339.133 29.2687L338.851 33.5315L338.931 33.5367C339.182 33.1364 339.517 32.8325 339.937 32.625C340.368 32.4183 340.849 32.3325 341.381 32.3676C341.967 32.4063 342.465 32.5567 342.875 32.819C343.297 33.0713 343.614 33.445 343.827 33.9402C344.041 34.4246 344.123 35.0394 344.074 35.7845L343.713 41.2605L341.35 41.1045L341.689 35.9637C341.726 35.3996 341.626 34.9708 341.389 34.6772C341.153 34.3729 340.822 34.2067 340.396 34.1786C339.906 34.1463 339.508 34.275 339.2 34.5647C338.903 34.8551 338.735 35.2876 338.697 35.8624L338.364 40.9074L336.001 40.7514ZM349.722 41.8497C348.839 41.7914 348.085 41.5546 347.46 41.1392C346.836 40.7131 346.371 40.1479 346.065 39.4436C345.759 38.7285 345.636 37.924 345.695 37.0299C345.752 36.1678 345.983 35.4241 346.388 34.7987C346.804 34.1634 347.343 33.6859 348.005 33.3662C348.669 33.0358 349.405 32.8974 350.214 32.9508C351.044 33.0056 351.751 33.2233 352.335 33.604C352.92 33.974 353.352 34.4782 353.63 35.1166C353.919 35.7557 354.036 36.4957 353.981 37.3365C353.971 37.4855 353.955 37.6448 353.933 37.8144C353.912 37.9734 353.887 38.1053 353.859 38.2104L346.786 37.7434L346.882 36.2906L352.358 36.6521L351.755 36.8047C351.797 36.3265 351.754 35.9228 351.627 35.5936C351.509 35.2652 351.323 35.0123 351.067 34.8351C350.812 34.6473 350.488 34.5403 350.094 34.5143C349.722 34.4897 349.387 34.5478 349.089 34.6884C348.791 34.8291 348.551 35.0645 348.369 35.3945C348.187 35.7139 348.079 36.1344 348.045 36.6559L347.979 37.6458C347.936 38.3057 348.081 38.8658 348.414 39.326C348.747 39.7863 349.27 40.04 349.983 40.0871C350.366 40.1124 350.733 40.0565 351.084 39.9193C351.436 39.7715 351.736 39.524 351.983 39.1769L353.606 40.3423C353.369 40.7008 353.065 41.0015 352.697 41.2444C352.328 41.4766 351.895 41.6458 351.396 41.7518C350.898 41.8579 350.34 41.8905 349.722 41.8497ZM357.764 42.3807C356.912 42.3245 356.246 42.0507 355.765 41.5593C355.285 41.0679 355.069 40.4496 355.118 39.7046C355.165 38.9915 355.449 38.4222 355.969 37.9969C356.489 37.5609 357.286 37.3036 358.361 37.2248L361.247 36.9824L361.159 38.3076L358.9 38.5272C358.427 38.5708 358.061 38.6856 357.803 38.8717C357.556 39.0478 357.42 39.3221 357.396 39.6946C357.375 40.0139 357.464 40.2817 357.663 40.498C357.874 40.7043 358.177 40.8205 358.57 40.8465C358.911 40.869 359.209 40.8138 359.463 40.681C359.719 40.5375 359.925 40.3319 360.081 40.0644C360.239 39.7861 360.33 39.4501 360.356 39.0563L360.516 36.6296C360.543 36.2251 360.452 35.8984 360.244 35.6495C360.036 35.4006 359.709 35.2614 359.262 35.2319C358.879 35.2066 358.559 35.2763 358.302 35.4411C358.056 35.6066 357.867 35.872 357.736 36.2375L355.625 35.6652C355.888 34.9236 356.363 34.3723 357.049 34.0115C357.747 33.6513 358.553 33.5014 359.468 33.5618C360.682 33.642 361.557 33.9884 362.094 34.6011C362.642 35.2038 362.883 35.9948 362.819 36.974L362.559 40.9014L363.061 42.538L360.65 42.3789L360.341 41.236L360.245 41.2297C359.983 41.6293 359.637 41.9325 359.207 42.1392C358.787 42.336 358.306 42.4165 357.764 42.3807ZM364.705 42.6466L365.266 34.1371L367.454 34.2815L367.352 35.8142L367.432 35.8194C367.616 35.3077 367.915 34.9106 368.329 34.6279C368.754 34.3353 369.238 34.2069 369.781 34.2428C369.877 34.2491 369.967 34.2604 370.052 34.2767C370.137 34.2823 370.211 34.2978 370.273 34.3233L370.13 36.4946C370.037 36.4457 369.921 36.4114 369.784 36.3916C369.646 36.3718 369.487 36.356 369.306 36.344C368.944 36.3201 368.625 36.3792 368.348 36.5213C368.072 36.6527 367.845 36.8569 367.666 37.1337C367.498 37.4112 367.401 37.7522 367.374 38.1567L367.067 42.8026L364.705 42.6466ZM378.68 43.7297C377.85 43.6749 377.23 43.4308 376.82 42.9976C376.411 42.5536 376.233 41.9379 376.285 41.1503L376.81 33.1996L379.24 32.3338L378.671 40.955C378.651 41.2637 378.71 41.4975 378.849 41.6563C378.988 41.8152 379.196 41.9037 379.473 41.922C379.579 41.929 379.692 41.9311 379.809 41.9282C379.928 41.9146 380.058 41.8911 380.199 41.8577L380.085 43.5819C379.845 43.6516 379.612 43.695 379.387 43.7122C379.161 43.74 378.925 43.7458 378.68 43.7297ZM375.232 36.4467L375.341 34.8023L380.657 35.1533L380.549 36.7977L375.232 36.4467ZM381.808 43.7758L382.576 32.1372L384.939 32.2932L384.658 36.5559L384.738 36.5612C384.989 36.1608 385.324 35.857 385.744 35.6495C386.174 35.4428 386.656 35.3569 387.188 35.3921C387.773 35.4307 388.271 35.5812 388.681 35.8435C389.103 36.0958 389.42 36.4695 389.634 36.9646C389.848 37.4491 389.93 38.0639 389.881 38.8089L389.519 44.285L387.156 44.129L387.496 38.9882C387.533 38.4241 387.433 37.9952 387.196 37.7016C386.959 37.3974 386.628 37.2312 386.202 37.2031C385.713 37.1708 385.314 37.2994 385.006 37.5891C384.709 37.8795 384.542 38.3121 384.504 38.8868L384.171 43.9319L381.808 43.7758ZM395.529 44.8742C394.645 44.8159 393.891 44.579 393.267 44.1636C392.643 43.7376 392.178 43.1724 391.871 42.468C391.566 41.753 391.442 40.9485 391.502 40.0544C391.558 39.1923 391.789 38.4485 392.194 37.8232C392.61 37.1879 393.149 36.7104 393.812 36.3907C394.475 36.0603 395.211 35.9218 396.02 35.9752C396.85 36.0301 397.557 36.2478 398.142 36.6284C398.727 36.9984 399.158 37.5027 399.437 38.1411C399.726 38.7802 399.843 39.5201 399.787 40.361C399.777 40.51 399.762 40.6693 399.74 40.8389C399.719 40.9978 399.694 41.1298 399.665 41.2348L392.593 40.7679L392.689 39.315L398.165 39.6766L397.562 39.8292C397.604 39.3509 397.561 38.9472 397.433 38.6181C397.316 38.2896 397.129 38.0368 396.874 37.8596C396.619 37.6717 396.295 37.5648 395.901 37.5388C395.528 37.5142 395.193 37.5722 394.895 37.7129C394.597 37.8536 394.357 38.0889 394.175 38.419C393.994 38.7384 393.886 39.1589 393.851 39.6804L393.786 40.6703C393.742 41.3301 393.887 41.8902 394.22 42.3505C394.553 42.8108 395.076 43.0645 395.789 43.1116C396.173 43.1369 396.54 43.0809 396.891 42.9438C397.243 42.7959 397.542 42.5485 397.79 42.2014L399.412 43.3668C399.175 43.7253 398.872 44.026 398.503 44.2689C398.135 44.5011 397.702 44.6703 397.203 44.7763C396.704 44.8823 396.146 44.915 395.529 44.8742ZM401.172 45.0544L401.734 36.5449L403.905 36.6883L403.819 37.9974L403.899 38.0027C404.154 37.5385 404.492 37.192 404.913 36.9633C405.346 36.7246 405.834 36.6232 406.376 36.659C406.972 36.6984 407.464 36.8645 407.851 37.1573C408.238 37.4394 408.517 37.832 408.687 38.3349L408.767 38.3402C409.022 37.876 409.366 37.5245 409.799 37.2859C410.242 37.0479 410.735 36.9468 411.278 36.9827C411.821 37.0185 412.286 37.1669 412.675 37.4277C413.065 37.6779 413.352 38.0336 413.535 38.4947C413.729 38.9564 413.805 39.5066 413.763 40.1453L413.385 45.8608L411.023 45.7048L411.369 40.4522C411.403 39.9413 411.317 39.5455 411.111 39.2646C410.916 38.9739 410.622 38.8155 410.228 38.7895C409.803 38.7613 409.469 38.8836 409.226 39.1562C408.984 39.4288 408.845 39.8312 408.81 40.3634L408.468 45.5361L406.105 45.3801L406.452 40.1276C406.486 39.6167 406.405 39.2212 406.21 38.941C406.015 38.6502 405.721 38.4918 405.327 38.4658C404.912 38.4384 404.572 38.571 404.307 38.8635C404.053 39.146 403.909 39.5481 403.874 40.0696L403.535 45.2104L401.172 45.0544Z" fill="#151515"/>
<rect x="157.447" y="16.8572" width="139.015" height="42.0973" rx="21.0486" transform="rotate(-6.9649 157.447 16.8572)" fill="#BFC1FA"/>
<path d="M180.934 35.9627L176.599 29.8997L179.314 29.5679L182.782 34.8665L182.179 34.9402L184.27 28.9626L186.969 28.6328L184.237 35.5592L180.934 35.9627ZM181.937 40.6114L181.2 34.5763L183.63 34.2794L184.367 40.3146L181.937 40.6114ZM192.261 39.5436C191.382 39.651 190.592 39.5595 189.89 39.2691C189.188 38.9787 188.617 38.522 188.175 37.8989C187.734 37.2758 187.46 36.5302 187.354 35.662C187.245 34.7726 187.331 33.9777 187.611 33.2773C187.891 32.5768 188.336 32.0012 188.947 31.5505C189.557 31.0891 190.301 30.8047 191.18 30.6974C192.059 30.59 192.849 30.6815 193.551 30.9719C194.253 31.2623 194.824 31.719 195.266 32.3421C195.706 32.9546 195.98 33.7055 196.089 34.5949C196.196 35.4737 196.111 36.2686 195.832 36.9796C195.553 37.6801 195.107 38.2557 194.496 38.7064C193.885 39.1572 193.14 39.4363 192.261 39.5436ZM192.046 37.7807C192.437 37.7329 192.765 37.5962 193.027 37.3707C193.3 37.1439 193.492 36.8249 193.603 36.4137C193.724 35.9907 193.747 35.4827 193.675 34.8898C193.6 34.2757 193.454 33.7831 193.237 33.4121C193.03 33.0397 192.767 32.7763 192.447 32.622C192.138 32.4663 191.787 32.4124 191.396 32.4603C191.004 32.5081 190.671 32.6455 190.398 32.8723C190.136 33.0978 189.944 33.4167 189.822 33.8292C189.711 34.2404 189.693 34.753 189.768 35.3671C189.842 35.9706 189.982 36.4585 190.189 36.8309C190.406 37.2019 190.669 37.4653 190.978 37.621C191.298 37.7753 191.654 37.8286 192.046 37.7807ZM202.073 38.345C201.3 38.4394 200.618 38.3991 200.027 38.2242C199.435 38.0386 198.953 37.7052 198.583 37.2239C198.213 36.7426 197.979 36.1049 197.882 35.3108L197.251 30.1492L199.602 29.862L200.223 34.9442C200.292 35.516 200.461 35.9306 200.729 36.188C201.008 36.4441 201.38 36.5437 201.846 36.4868C202.28 36.4338 202.601 36.2495 202.81 35.9338C203.029 35.6169 203.104 35.1726 203.034 34.6008L202.413 29.5186L204.763 29.2315L205.394 34.3931C205.491 35.1872 205.418 35.8624 205.174 36.4187C204.93 36.975 204.538 37.4152 203.997 37.7391C203.466 38.0512 202.824 38.2532 202.073 38.345ZM215.118 36.7513C214.102 36.8755 213.252 36.7858 212.571 36.4823C211.887 36.1681 211.413 35.6673 211.146 34.9799L213.299 34.2655C213.464 34.6431 213.689 34.9057 213.976 35.0533C214.273 35.1997 214.633 35.247 215.057 35.1953C215.449 35.1474 215.745 35.0252 215.947 34.8286C216.149 34.6321 216.231 34.3802 216.193 34.0732C216.161 33.8085 216.061 33.6058 215.893 33.4651C215.736 33.3231 215.494 33.2344 215.168 33.1991L213.414 32.962C212.716 32.8754 212.163 32.6635 211.757 32.3263C211.35 31.9891 211.11 31.5187 211.036 30.9152C210.973 30.3964 211.065 29.923 211.314 29.4951C211.563 29.0671 211.939 28.7149 212.442 28.4385C212.944 28.1514 213.545 27.9652 214.244 27.8799C214.847 27.8062 215.397 27.8196 215.893 27.9202C216.398 28.0089 216.828 28.1821 217.181 28.4398C217.534 28.6869 217.788 29.0104 217.945 29.4104L215.879 30.1786C215.734 29.8739 215.531 29.6623 215.269 29.5438C215.008 29.4253 214.702 29.3874 214.353 29.4301C213.982 29.4754 213.705 29.5844 213.522 29.7572C213.348 29.9182 213.279 30.1416 213.314 30.4274C213.338 30.6286 213.429 30.7949 213.584 30.9263C213.74 31.0577 213.993 31.1504 214.344 31.2043L216.064 31.4294C216.5 31.4835 216.889 31.5918 217.232 31.7542C217.574 31.9165 217.849 32.1462 218.057 32.4431C218.275 32.7282 218.412 33.1037 218.469 33.5695C218.539 34.1413 218.451 34.6517 218.205 35.1009C217.957 35.5394 217.572 35.9035 217.049 36.1931C216.524 36.4721 215.88 36.6582 215.118 36.7513ZM222.888 35.8022C222.04 35.9057 221.335 35.7608 220.771 35.3676C220.207 34.9744 219.88 34.4072 219.79 33.6661C219.703 32.9567 219.875 32.3446 220.307 31.8298C220.737 31.3045 221.472 30.903 222.513 30.6254L225.303 29.8493L225.465 31.1675L223.286 31.8044C222.829 31.9354 222.491 32.1164 222.272 32.3473C222.062 32.5664 221.98 32.8612 222.025 33.2318C222.064 33.5494 222.202 33.7959 222.438 33.9712C222.684 34.1346 223.002 34.1924 223.394 34.1445C223.733 34.1031 224.015 33.9934 224.241 33.8155C224.465 33.6269 224.629 33.3866 224.733 33.0945C224.836 32.7918 224.863 32.4445 224.815 32.0528L224.52 29.6387C224.471 29.2364 224.321 28.9323 224.07 28.7266C223.819 28.5208 223.472 28.4451 223.027 28.4994C222.646 28.546 222.344 28.6741 222.123 28.8839C221.912 29.0923 221.776 29.3883 221.716 29.7718L219.535 29.603C219.655 28.8254 220.019 28.1953 220.626 27.7127C221.244 27.2289 222.008 26.9314 222.919 26.8201C224.126 26.6727 225.05 26.8499 225.692 27.3518C226.342 27.8418 226.727 28.5739 226.846 29.548L227.324 33.4549L228.121 34.9694L225.723 35.2624L225.206 34.1972L225.111 34.2088C224.928 34.6502 224.645 35.0126 224.26 35.296C223.885 35.5675 223.428 35.7362 222.888 35.8022ZM231.33 37.8011L232.164 34.0725L232.717 32.925L233.799 25.6843L236.261 25.3836L233.665 37.5159L231.33 37.8011ZM231.576 34.5313L227.494 26.4546L229.956 26.1539L232.758 32.5976L233.441 32.5142L233.609 34.2829L231.576 34.5313ZM246.14 32.9294C245.314 33.0303 244.659 32.9061 244.176 32.5568C243.691 32.1969 243.401 31.6252 243.305 30.8417L242.339 22.9325L244.566 21.6289L245.613 30.2051C245.651 30.5122 245.753 30.7308 245.919 30.8609C246.085 30.991 246.306 31.0393 246.581 31.0056C246.687 30.9927 246.798 30.9738 246.913 30.949C247.027 30.9136 247.15 30.8663 247.283 30.8072L247.492 32.5224C247.27 32.6356 247.049 32.7216 246.831 32.7805C246.613 32.85 246.383 32.8997 246.14 32.9294ZM241.395 26.4167L241.195 24.7809L246.484 24.1348L246.683 25.7706L241.395 26.4167ZM249.221 32.3918L247.807 20.8139L250.157 20.5267L250.675 24.7672L250.755 24.7575C250.927 24.3174 251.199 23.9563 251.573 23.6742C251.958 23.3908 252.415 23.2168 252.944 23.1521C253.526 23.081 254.044 23.136 254.496 23.3172C254.957 23.4865 255.338 23.7946 255.64 24.2413C255.941 24.6774 256.136 25.266 256.227 26.0072L256.892 31.4547L254.541 31.7418L253.917 26.6278C253.848 26.0667 253.67 25.664 253.382 25.4197C253.093 25.1649 252.737 25.0634 252.313 25.1151C251.826 25.1746 251.459 25.3753 251.21 25.7173C250.973 26.058 250.889 26.5142 250.958 27.086L251.572 32.1046L249.221 32.3918ZM262.906 30.9134C262.027 31.0208 261.242 30.9286 260.551 30.6369C259.859 30.3347 259.296 29.8661 258.864 29.2311C258.431 28.5856 258.16 27.8181 258.051 26.9287C257.946 26.0711 258.035 25.2974 258.316 24.6075C258.606 23.9058 259.047 23.3361 259.638 22.8985C260.228 22.4504 260.925 22.1771 261.73 22.0788C262.556 21.9779 263.291 22.06 263.936 22.3251C264.58 22.5796 265.098 22.9945 265.491 23.5698C265.894 24.1438 266.147 24.849 266.249 25.6855C266.267 25.8337 266.281 25.9932 266.291 26.1639C266.3 26.324 266.3 26.4583 266.292 26.5668L259.256 27.4263L259.08 25.981L264.527 25.3155L263.963 25.5779C263.915 25.1001 263.798 24.7115 263.611 24.412C263.435 24.1111 263.204 23.8975 262.92 23.771C262.635 23.6339 262.296 23.5893 261.904 23.6372C261.534 23.6825 261.215 23.802 260.949 23.9957C260.682 24.1894 260.49 24.4654 260.373 24.8236C260.254 25.1713 260.227 25.6045 260.29 26.1233L260.41 27.108C260.49 27.7644 260.737 28.2877 261.15 28.6779C261.563 29.068 262.124 29.2197 262.834 29.1331C263.215 29.0865 263.565 28.9631 263.885 28.7629C264.203 28.5521 264.451 28.2531 264.629 27.866L266.441 28.7085C266.274 29.105 266.033 29.4569 265.716 29.7643C265.397 30.0611 265.003 30.308 264.533 30.5052C264.062 30.7023 263.52 30.8384 262.906 30.9134ZM268.484 30.0386L267.45 21.5735L269.61 21.3096L269.769 22.612L269.848 22.6022C270.013 22.0986 270.28 21.6952 270.652 21.3919C271.032 21.0768 271.492 20.8862 272.032 20.8203C272.625 20.7478 273.139 20.8194 273.574 21.0349C274.007 21.2399 274.354 21.5736 274.615 22.0361L274.694 22.0264C274.858 21.5228 275.131 21.1134 275.511 20.7982C275.903 20.4818 276.368 20.2906 276.908 20.2246C277.448 20.1587 277.934 20.2176 278.364 20.4014C278.794 20.5745 279.142 20.8706 279.408 21.2894C279.684 21.7069 279.862 22.2333 279.939 22.8686L280.634 28.5543L278.283 28.8415L277.645 23.6163C277.583 23.1081 277.424 22.7352 277.17 22.4977C276.924 22.2483 276.606 22.1475 276.214 22.1953C275.791 22.2471 275.485 22.4295 275.298 22.7425C275.11 23.0555 275.049 23.4768 275.114 24.0062L275.742 29.1519L273.392 29.4391L272.753 24.2139C272.691 23.7057 272.538 23.3321 272.294 23.0933C272.049 22.8439 271.73 22.7431 271.338 22.791C270.925 22.8414 270.616 23.035 270.41 23.3718C270.213 23.6968 270.146 24.1186 270.21 24.6374L270.835 29.7514L268.484 30.0386Z" fill="#151515"/>
</svg>
