<svg width="408" height="251" viewBox="0 0 408 251" fill="none" xmlns="http://www.w3.org/2000/svg">
<rect x="6.88867" y="34.1477" width="255.653" height="52.4577" rx="21.0486" transform="rotate(-7.67595 6.88867 34.1477)" fill="#DAEAFF"/>
<path d="M55.6336 58.7715L54.3521 49.2635L59.4004 48.5831C60.2924 48.4629 61.0296 48.5875 61.6122 48.957C62.2051 49.313 62.5512 49.8597 62.6506 50.597C62.7195 51.1084 62.6345 51.5558 62.3955 51.9391C62.1685 52.3209 61.8133 52.6049 61.3298 52.7911L61.3418 52.8803C62.0222 52.8976 62.5748 53.0895 62.9996 53.456C63.4346 53.8091 63.6938 54.2948 63.7772 54.9132C63.8509 55.4603 63.7664 55.956 63.5236 56.4004C63.2807 56.8448 62.9129 57.2153 62.4201 57.5118C61.9273 57.8082 61.3301 58.0038 60.6284 58.0983L55.6336 58.7715ZM58.0347 56.7769L59.6937 56.5533C60.205 56.4844 60.5771 56.3253 60.8099 56.076C61.053 55.8132 61.1481 55.4855 61.0952 55.0931C61.0423 54.7006 60.8646 54.4158 60.5623 54.2386C60.2718 54.0598 59.8708 54.0048 59.3595 54.0738L57.7005 54.2974L58.0347 56.7769ZM57.4985 52.7989L58.997 52.597C59.4251 52.5393 59.7334 52.4008 59.9218 52.1817C60.1205 51.9491 60.1966 51.6603 60.1501 51.3154C60.1036 50.9706 59.9538 50.7123 59.7006 50.5405C59.4458 50.3569 59.1103 50.2932 58.694 50.3493L57.1956 50.5512L57.4985 52.7989ZM70.5214 56.9829C69.5343 57.116 68.644 57.0241 67.8506 56.7072C67.0572 56.3903 66.4078 55.8845 65.9025 55.1898C65.3971 54.4951 65.0788 53.6601 64.9473 52.685C64.8127 51.686 64.8979 50.7906 65.2028 49.9988C65.5078 49.2069 66.0009 48.5532 66.6821 48.0376C67.3618 47.5101 68.1951 47.1798 69.1822 47.0468C70.1693 46.9137 71.0595 47.0057 71.853 47.3225C72.6464 47.6394 73.2958 48.1452 73.8011 48.8399C74.3048 49.5227 74.624 50.3636 74.7586 51.3626C74.8917 52.3497 74.8065 53.2451 74.5031 54.0488C74.1982 54.8406 73.7051 55.4944 73.0238 56.01C72.3426 56.5256 71.5084 56.8499 70.5214 56.9829ZM70.2545 55.0028C70.6945 54.9435 71.0606 54.7852 71.3529 54.5279C71.657 54.2689 71.8686 53.9074 71.9877 53.4434C72.1171 52.9658 72.1369 52.394 72.0471 51.7281C71.9542 51.0383 71.7829 50.4862 71.5333 50.0718C71.2956 49.6559 70.9959 49.3633 70.634 49.1941C70.2841 49.0233 69.8891 48.9676 69.4491 49.0269C69.009 49.0862 68.637 49.2453 68.3328 49.5042C68.0406 49.7616 67.829 50.1231 67.698 50.5888C67.5789 51.0528 67.5659 51.6297 67.6588 52.3195C67.7502 52.9974 67.9147 53.5443 68.1524 53.9603C68.402 54.3747 68.7018 54.6672 69.0517 54.838C69.4135 55.0072 69.8145 55.0621 70.2545 55.0028ZM83.2791 55.0455L81.9976 45.5375L84.6378 45.1817L85.9192 54.6897L83.2791 55.0455ZM77.3745 55.8413L76.093 46.3333L78.7331 45.9775L80.0146 55.4855L77.3745 55.8413ZM78.1345 48.274L77.8412 46.0977L82.8896 45.4173L83.1829 47.5936L78.1345 48.274ZM88.8826 57.9228L87.1203 44.8471L89.6177 44.5105L89.8148 45.9733L89.904 45.9612C90.0138 45.6074 90.1945 45.2864 90.4463 44.9982C90.698 44.71 90.9986 44.4697 91.348 44.2773C91.7094 44.0833 92.11 43.9566 92.5501 43.8973C93.3469 43.7899 94.0698 43.8983 94.7189 44.2225C95.3799 44.5451 95.9274 45.0586 96.3614 45.7629C96.8057 46.4538 97.0967 47.3106 97.2346 48.3333C97.3708 49.3442 97.317 50.2475 97.0731 51.0432C96.8395 51.8254 96.4526 52.4588 95.9125 52.9432C95.3723 53.4277 94.7098 53.7229 93.9249 53.8287C93.4968 53.8864 93.0888 53.8687 92.7009 53.7757C92.3249 53.6811 91.9833 53.5273 91.6761 53.3144C91.3808 53.0999 91.1342 52.8426 90.9363 52.5423L90.8471 52.5543L91.5227 57.567L88.8826 57.9228ZM92.8018 51.964C93.2537 51.9031 93.6182 51.7328 93.8954 51.4533C94.1709 51.1619 94.3623 50.785 94.4695 50.3225C94.587 49.8465 94.6048 49.3053 94.5231 48.6988C94.4397 48.0804 94.2792 47.5632 94.0415 47.1472C93.8141 46.7177 93.5298 46.4049 93.1885 46.2087C92.8457 46.0007 92.4483 45.9271 91.9964 45.988C91.5563 46.0473 91.1926 46.2235 90.9052 46.5165C90.6161 46.7976 90.4129 47.1762 90.2954 47.6521C90.1882 48.1146 90.1763 48.655 90.2596 49.2734C90.3398 49.868 90.4935 50.3801 90.7209 50.8096C90.9602 51.2374 91.2573 51.5546 91.612 51.7611C91.9652 51.9556 92.3618 52.0233 92.8018 51.964ZM104.352 52.4233C103.365 52.5563 102.475 52.4644 101.681 52.1476C100.888 51.8307 100.239 51.3249 99.7333 50.6302C99.228 49.9354 98.9096 49.1005 98.7782 48.1253C98.6435 47.1263 98.7287 46.2309 99.0337 45.4391C99.3386 44.6473 99.8317 43.9936 100.513 43.4779C101.193 42.9504 102.026 42.6202 103.013 42.4871C104 42.3541 104.89 42.446 105.684 42.7629C106.477 43.0797 107.127 43.5855 107.632 44.2803C108.136 44.9631 108.455 45.804 108.589 46.803C108.722 47.79 108.637 48.6854 108.334 49.4892C108.029 50.281 107.536 50.9347 106.855 51.4503C106.173 51.9659 105.339 52.2903 104.352 52.4233ZM104.085 50.4432C104.525 50.3839 104.891 50.2256 105.184 49.9682C105.488 49.7093 105.699 49.3478 105.819 48.8837C105.948 48.4062 105.968 47.8344 105.878 47.1684C105.785 46.4786 105.614 45.9266 105.364 45.5122C105.126 45.0962 104.827 44.8036 104.465 44.6345C104.115 44.4637 103.72 44.4079 103.28 44.4672C102.84 44.5265 102.468 44.6857 102.164 44.9446C101.871 45.2019 101.66 45.5634 101.529 46.0291C101.41 46.4932 101.397 47.0701 101.49 47.7599C101.581 48.4377 101.746 48.9847 101.983 49.4006C102.233 49.815 102.533 50.1076 102.883 50.2784C103.244 50.4476 103.645 50.5025 104.085 50.4432ZM115.497 50.9212C114.581 51.0447 113.739 50.9523 112.971 50.6441C112.213 50.3224 111.583 49.8202 111.079 49.1374C110.574 48.4426 110.253 47.5898 110.117 46.579C109.98 45.5681 110.065 44.6668 110.37 43.8749C110.673 43.0712 111.148 42.4199 111.795 41.921C112.455 41.4205 113.236 41.1093 114.14 40.9875C115.222 40.8416 116.144 40.9474 116.907 41.3047C117.68 41.6486 118.275 42.2464 118.693 43.0983L116.492 44.1577C116.258 43.6806 115.972 43.35 115.632 43.1657C115.291 42.9695 114.894 42.9019 114.442 42.9628C114.05 43.0157 113.714 43.1759 113.436 43.4436C113.155 43.6993 112.95 44.066 112.821 44.5435C112.702 45.0076 112.686 45.5667 112.775 46.2207C112.863 46.8748 113.026 47.4158 113.266 47.8437C113.517 48.2699 113.812 48.5752 114.152 48.7595C114.502 48.9303 114.873 48.9892 115.266 48.9363C115.718 48.8754 116.082 48.7052 116.359 48.4257C116.647 48.1327 116.839 47.7193 116.937 47.1854L119.321 47.6269C119.144 48.5589 118.736 49.3041 118.097 49.8625C117.458 50.4209 116.591 50.7738 115.497 50.9212ZM121.292 49.9222L120.01 40.4142L122.651 40.0584L123.054 43.0553L125.213 42.7644C126.283 42.6201 127.189 42.7826 127.93 43.2518C128.684 43.7194 129.131 44.4824 129.274 45.5408C129.415 46.5873 129.184 47.4357 128.582 48.0861C127.991 48.7348 127.161 49.1312 126.09 49.2755L121.292 49.9222ZM123.682 47.7112L125.27 47.4972C125.769 47.4299 126.127 47.2545 126.343 46.9711C126.557 46.6758 126.637 46.3201 126.581 45.9038C126.523 45.4757 126.352 45.1536 126.069 44.9375C125.784 44.7095 125.392 44.6292 124.892 44.6965L123.304 44.9105L123.682 47.7112ZM131.085 48.6023L129.804 39.0943L132.444 38.7384L133.725 48.2465L131.085 48.6023ZM140.768 47.2973L139.487 37.7892L142.073 37.4406L143.009 44.3799L143.098 44.3679L145.159 37.0247L148.727 36.5438L150.009 46.0519L147.44 46.3981L146.507 39.4767L146.418 39.4887L144.407 46.8068L140.768 47.2973ZM161.527 44.7174C160.54 44.8505 159.649 44.7586 158.856 44.4417C158.062 44.1248 157.413 43.619 156.908 42.9243C156.402 42.2296 156.084 41.3946 155.953 40.4195C155.818 39.4205 155.903 38.5251 156.208 37.7333C156.513 36.9414 157.006 36.2877 157.687 35.7721C158.367 35.2446 159.2 34.9143 160.187 34.7813C161.175 34.6482 162.065 34.7402 162.858 35.057C163.652 35.3739 164.301 35.8797 164.806 36.5744C165.31 37.2572 165.629 38.0981 165.764 39.0971C165.897 40.0842 165.812 40.9796 165.508 41.7833C165.203 42.5751 164.71 43.2289 164.029 43.7445C163.348 44.2601 162.514 44.5844 161.527 44.7174ZM161.26 42.7373C161.7 42.678 162.066 42.5197 162.358 42.2624C162.662 42.0034 162.874 41.6419 162.993 41.1779C163.122 40.7003 163.142 40.1285 163.052 39.4626C162.959 38.7728 162.788 38.2207 162.539 37.8063C162.301 37.3904 162.001 37.0978 161.639 36.9286C161.289 36.7578 160.894 36.7021 160.454 36.7614C160.014 36.8207 159.642 36.9798 159.338 37.2387C159.046 37.4961 158.834 37.8576 158.703 38.3233C158.584 38.7873 158.571 39.3642 158.664 40.054C158.755 40.7319 158.92 41.2788 159.158 41.6948C159.407 42.1092 159.707 42.4017 160.057 42.5725C160.419 42.7417 160.82 42.7966 161.26 42.7373ZM170.1 43.344L168.886 34.3355L171.526 33.9796L172.74 42.9882L170.1 43.344ZM166.24 36.3994L165.946 34.2231L174.313 33.0955L174.606 35.2718L166.24 36.3994ZM177.212 42.3854L175.931 32.8774L180.979 32.197C181.871 32.0768 182.608 32.2014 183.191 32.5709C183.784 32.9269 184.13 33.4736 184.229 34.2109C184.298 34.7223 184.213 35.1697 183.974 35.553C183.747 35.9348 183.392 36.2188 182.908 36.405L182.92 36.4942C183.601 36.5115 184.153 36.7034 184.578 37.0699C185.013 37.423 185.272 37.9087 185.356 38.5271C185.429 39.0742 185.345 39.5699 185.102 40.0143C184.859 40.4587 184.491 40.8292 183.999 41.1257C183.506 41.4222 182.909 41.6177 182.207 41.7123L177.212 42.3854ZM179.613 40.3909L181.272 40.1673C181.784 40.0983 182.156 39.9392 182.388 39.6899C182.631 39.4271 182.727 39.0994 182.674 38.707C182.621 38.3145 182.443 38.0297 182.141 37.8525C181.85 37.6737 181.449 37.6188 180.938 37.6877L179.279 37.9113L179.613 40.3909ZM179.077 36.4128L180.575 36.2109C181.004 36.1532 181.312 36.0147 181.5 35.7956C181.699 35.563 181.775 35.2742 181.729 34.9294C181.682 34.5845 181.532 34.3262 181.279 34.1545C181.024 33.9708 180.689 33.9071 180.272 33.9632L178.774 34.1651L179.077 36.4128ZM192.028 40.6065C191.041 40.7395 190.157 40.6468 189.376 40.3283C188.592 39.998 187.953 39.4787 187.458 38.7705C186.962 38.0503 186.646 37.1908 186.511 36.1918C186.382 35.2285 186.47 34.3569 186.776 33.577C187.093 32.7836 187.581 32.1366 188.24 31.6361C188.898 31.1237 189.678 30.8065 190.582 30.6847C191.51 30.5597 192.338 30.6418 193.067 30.931C193.795 31.2083 194.384 31.6678 194.833 32.3095C195.295 32.9495 195.589 33.7393 195.716 34.6788C195.738 34.8453 195.756 35.0245 195.77 35.2164C195.782 35.3964 195.784 35.5475 195.777 35.6696L187.874 36.7347L187.655 35.1114L193.774 34.2867L193.143 34.5897C193.083 34.0529 192.945 33.6174 192.731 33.2831C192.528 32.9471 192.266 32.71 191.945 32.5717C191.622 32.4215 191.24 32.376 190.8 32.4353C190.384 32.4914 190.027 32.6303 189.73 32.852C189.433 33.0736 189.221 33.3868 189.094 33.7914C188.965 34.1841 188.94 34.6718 189.019 35.2545L189.168 36.3605C189.267 37.0979 189.552 37.6831 190.022 38.1162C190.492 38.5493 191.125 38.7121 191.922 38.6047C192.35 38.547 192.743 38.4033 193.099 38.1737C193.454 37.9321 193.729 37.5923 193.924 37.1543L195.974 38.0768C195.792 38.5251 195.525 38.9243 195.173 39.2746C194.819 39.6129 194.379 39.8962 193.852 40.1245C193.326 40.3529 192.718 40.5135 192.028 40.6065ZM200.22 39.2845L199.006 30.2759L201.646 29.9201L202.86 38.9286L200.22 39.2845ZM196.36 32.3398L196.067 30.1635L204.433 29.0359L204.726 31.2122L196.36 32.3398ZM207.332 38.3259L206.051 28.8179L208.691 28.462L209.095 31.4589L211.253 31.168C212.324 31.0238 213.229 31.1862 213.971 31.6554C214.724 32.123 215.172 32.886 215.315 33.9444C215.456 34.991 215.225 35.8394 214.622 36.4897C214.032 37.1384 213.201 37.5349 212.131 37.6792L207.332 38.3259ZM209.722 36.1148L211.31 35.9009C211.809 35.8335 212.167 35.6582 212.383 35.3748C212.598 35.0795 212.677 34.7237 212.621 34.3075C212.563 33.8794 212.393 33.5573 212.109 33.3412C211.824 33.1132 211.432 33.0329 210.933 33.1002L209.345 33.3142L209.722 36.1148ZM217.126 37.006L215.844 27.4979L218.484 27.1421L219.766 36.6501L217.126 37.006Z" fill="#151515"/>
<rect x="36.6025" y="120.15" width="183.184" height="42.0973" rx="21.0486" fill="#E9E9E9"/>
<path d="M60.6947 146.891C59.7774 146.891 59.0094 146.71 58.3907 146.347C57.772 145.974 57.3187 145.43 57.0307 144.715L59.0947 144.139C59.2547 144.47 59.4627 144.721 59.7187 144.891C59.9854 145.051 60.3 145.131 60.6627 145.131C61.0147 145.131 61.3294 145.051 61.6067 144.891C61.8947 144.731 62.1187 144.481 62.2787 144.139C62.4387 143.787 62.5187 143.334 62.5187 142.779V142.059C62.5187 141.515 62.4387 141.073 62.2787 140.731C62.1187 140.39 61.9 140.139 61.6227 139.979C61.3454 139.819 61.0254 139.739 60.6627 139.739C60.3214 139.739 60.0227 139.819 59.7667 139.979C59.5107 140.129 59.2974 140.369 59.1267 140.699L57.0467 140.107C57.3347 139.403 57.788 138.875 58.4067 138.523C59.0254 138.161 59.788 137.979 60.6947 137.979C61.516 137.979 62.2414 138.161 62.8707 138.523C63.5 138.886 63.9907 139.403 64.3427 140.075C64.7054 140.737 64.8867 141.521 64.8867 142.427C64.8867 143.334 64.7054 144.123 64.3427 144.795C63.9907 145.457 63.4947 145.974 62.8547 146.347C62.2254 146.71 61.5054 146.891 60.6947 146.891ZM59.7507 143.179V141.643H62.9827V143.179H59.7507ZM66.6577 146.699V138.171H70.5297L72.0337 145.099H72.1137L73.6177 138.171H77.4897V146.699H75.2337V139.627H75.1537L73.4897 146.699H70.6737L69.0097 139.627H68.9297V146.699H66.6577ZM83.6882 146.891C82.8029 146.891 82.0295 146.705 81.3682 146.331C80.7069 145.958 80.1949 145.435 79.8322 144.763C79.4695 144.091 79.2882 143.318 79.2882 142.443C79.2882 141.547 79.4695 140.769 79.8322 140.107C80.1949 139.446 80.7069 138.929 81.3682 138.555C82.0295 138.171 82.8029 137.979 83.6882 137.979C84.5735 137.979 85.3469 138.166 86.0082 138.539C86.6695 138.913 87.1815 139.435 87.5442 140.107C87.9069 140.769 88.0882 141.547 88.0882 142.443C88.0882 143.329 87.9069 144.107 87.5442 144.779C87.1815 145.441 86.6695 145.958 86.0082 146.331C85.3469 146.705 84.5735 146.891 83.6882 146.891ZM83.6882 145.115C84.0829 145.115 84.4242 145.019 84.7122 144.827C85.0109 144.635 85.2402 144.342 85.4002 143.947C85.5709 143.542 85.6562 143.041 85.6562 142.443C85.6562 141.825 85.5709 141.318 85.4002 140.923C85.2402 140.529 85.0109 140.235 84.7122 140.043C84.4242 139.851 84.0829 139.755 83.6882 139.755C83.2935 139.755 82.9469 139.851 82.6482 140.043C82.3602 140.235 82.1309 140.529 81.9602 140.923C81.8002 141.318 81.7202 141.825 81.7202 142.443C81.7202 143.051 81.8002 143.553 81.9602 143.947C82.1309 144.342 82.3602 144.635 82.6482 144.827C82.9469 145.019 83.2935 145.115 83.6882 145.115ZM95.1568 138.171H97.5248V146.699H95.1568V138.171ZM89.8608 138.171H92.2288V146.699H89.8608V138.171ZM91.3968 146.699V144.747H95.9568V146.699H91.3968ZM96.5968 148.619V146.699H96.3568V144.747H98.8208V148.619H96.5968ZM100.33 146.699V138.171H102.65V144.395H102.73L105.418 138.171H108.618V146.699H106.314V140.491H106.234L103.594 146.699H100.33ZM110.845 146.699V138.171H113.165V144.395H113.245L115.933 138.171H119.133V146.699H116.829V140.491H116.749L114.109 146.699H110.845ZM125.47 146.699V138.171H127.79V144.395H127.87L130.558 138.171H133.758V146.699H131.454V140.491H131.374L128.734 146.699H125.47ZM140.095 149.899V138.171H142.335V139.483H142.415C142.554 139.185 142.751 138.923 143.007 138.699C143.263 138.475 143.557 138.299 143.887 138.171C144.229 138.043 144.597 137.979 144.991 137.979C145.706 137.979 146.33 138.161 146.863 138.523C147.407 138.886 147.829 139.403 148.127 140.075C148.437 140.737 148.591 141.526 148.591 142.443C148.591 143.35 148.437 144.139 148.127 144.811C147.829 145.473 147.413 145.985 146.879 146.347C146.346 146.71 145.727 146.891 145.023 146.891C144.639 146.891 144.282 146.827 143.951 146.699C143.631 146.571 143.349 146.395 143.103 146.171C142.869 145.947 142.682 145.691 142.543 145.403H142.463V149.899H140.095ZM144.255 145.115C144.661 145.115 145.002 145.009 145.279 144.795C145.557 144.571 145.77 144.262 145.919 143.867C146.079 143.462 146.159 142.987 146.159 142.443C146.159 141.889 146.079 141.414 145.919 141.019C145.77 140.614 145.557 140.305 145.279 140.091C145.002 139.867 144.661 139.755 144.255 139.755C143.861 139.755 143.519 139.867 143.231 140.091C142.943 140.305 142.719 140.614 142.559 141.019C142.41 141.414 142.335 141.889 142.335 142.443C142.335 142.977 142.41 143.446 142.559 143.851C142.719 144.257 142.943 144.571 143.231 144.795C143.519 145.009 143.861 145.115 144.255 145.115ZM154.312 146.891C153.426 146.891 152.658 146.705 152.008 146.331C151.357 145.947 150.856 145.414 150.504 144.731C150.152 144.038 149.976 143.243 149.976 142.347C149.976 141.483 150.157 140.726 150.52 140.075C150.893 139.414 151.4 138.902 152.04 138.539C152.68 138.166 153.405 137.979 154.216 137.979C155.048 137.979 155.768 138.15 156.376 138.491C156.984 138.822 157.448 139.297 157.768 139.915C158.098 140.534 158.264 141.265 158.264 142.107C158.264 142.257 158.258 142.417 158.248 142.587C158.237 142.747 158.221 142.881 158.2 142.987H151.112V141.531H156.6L156.008 141.723C156.018 141.243 155.949 140.843 155.8 140.523C155.661 140.203 155.458 139.963 155.192 139.803C154.925 139.633 154.594 139.547 154.2 139.547C153.826 139.547 153.496 139.627 153.208 139.787C152.92 139.947 152.696 140.198 152.536 140.539C152.376 140.87 152.296 141.297 152.296 141.819V142.811C152.296 143.473 152.477 144.022 152.84 144.459C153.202 144.897 153.741 145.115 154.456 145.115C154.84 145.115 155.202 145.035 155.544 144.875C155.885 144.705 156.168 144.438 156.392 144.075L158.088 145.131C157.874 145.505 157.592 145.825 157.24 146.091C156.888 146.347 156.466 146.545 155.976 146.683C155.485 146.822 154.93 146.891 154.312 146.891ZM162.371 146.891C161.517 146.891 160.835 146.662 160.323 146.203C159.811 145.745 159.555 145.142 159.555 144.395C159.555 143.681 159.8 143.094 160.291 142.635C160.781 142.166 161.56 141.857 162.627 141.707L165.491 141.275V142.603L163.251 142.971C162.781 143.046 162.424 143.185 162.179 143.387C161.944 143.579 161.827 143.862 161.827 144.235C161.827 144.555 161.933 144.817 162.147 145.019C162.371 145.211 162.68 145.307 163.075 145.307C163.416 145.307 163.709 145.233 163.955 145.083C164.2 144.923 164.392 144.705 164.531 144.427C164.669 144.139 164.739 143.798 164.739 143.403V140.971C164.739 140.566 164.627 140.246 164.403 140.011C164.179 139.777 163.843 139.659 163.395 139.659C163.011 139.659 162.696 139.75 162.451 139.931C162.216 140.113 162.045 140.39 161.939 140.763L159.795 140.331C160.008 139.574 160.445 138.993 161.107 138.587C161.779 138.182 162.573 137.979 163.491 137.979C164.707 137.979 165.603 138.267 166.179 138.843C166.765 139.409 167.059 140.182 167.059 141.163V145.099L167.667 146.699H165.251L164.867 145.579H164.771C164.536 145.995 164.211 146.321 163.795 146.555C163.389 146.779 162.915 146.891 162.371 146.891ZM174.61 138.171H176.978V146.699H174.61V138.171ZM169.314 138.171H171.682V146.699H169.314V138.171ZM170.85 146.699V144.747H175.41V146.699H170.85ZM176.05 148.619V146.699H175.81V144.747H178.274V148.619H176.05ZM179.783 146.699V138.171H182.103V144.395H182.183L184.871 138.171H188.071V146.699H185.767V140.491H185.687L183.047 146.699H179.783ZM190.298 146.699V138.171H192.618V144.395H192.698L195.386 138.171H198.586V146.699H196.282V140.491H196.202L193.562 146.699H190.298Z" fill="#151515"/>
<rect x="37.7344" y="208.049" width="322.613" height="42.0973" rx="21.0486" fill="#FFFAC1"/>
<path d="M67.0195 233.598L64.5295 229.338L66.9145 225.603H69.4045L66.2695 229.923L66.0595 228.093L69.5095 233.598H67.0195ZM61.7245 233.598V225.603H63.9445V233.598H61.7245ZM62.6545 230.343V228.393H65.6845V230.343H62.6545ZM74.1456 233.778C73.3156 233.778 72.5906 233.603 71.9706 233.253C71.3506 232.903 70.8706 232.413 70.5306 231.783C70.1906 231.153 70.0206 230.428 70.0206 229.608C70.0206 228.768 70.1906 228.038 70.5306 227.418C70.8706 226.798 71.3506 226.313 71.9706 225.963C72.5906 225.603 73.3156 225.423 74.1456 225.423C74.9756 225.423 75.7006 225.598 76.3206 225.948C76.9406 226.298 77.4206 226.788 77.7606 227.418C78.1006 228.038 78.2706 228.768 78.2706 229.608C78.2706 230.438 78.1006 231.168 77.7606 231.798C77.4206 232.418 76.9406 232.903 76.3206 233.253C75.7006 233.603 74.9756 233.778 74.1456 233.778ZM74.1456 232.113C74.5156 232.113 74.8356 232.023 75.1056 231.843C75.3856 231.663 75.6006 231.388 75.7506 231.018C75.9106 230.638 75.9906 230.168 75.9906 229.608C75.9906 229.028 75.9106 228.553 75.7506 228.183C75.6006 227.813 75.3856 227.538 75.1056 227.358C74.8356 227.178 74.5156 227.088 74.1456 227.088C73.7756 227.088 73.4506 227.178 73.1706 227.358C72.9006 227.538 72.6856 227.813 72.5256 228.183C72.3756 228.553 72.3006 229.028 72.3006 229.608C72.3006 230.178 72.3756 230.648 72.5256 231.018C72.6856 231.388 72.9006 231.663 73.1706 231.843C73.4506 232.023 73.7756 232.113 74.1456 232.113ZM79.9325 236.598V225.603H82.0325V226.833H82.1075C82.2375 226.553 82.4225 226.308 82.6625 226.098C82.9025 225.888 83.1775 225.723 83.4875 225.603C83.8075 225.483 84.1525 225.423 84.5225 225.423C85.1925 225.423 85.7775 225.593 86.2775 225.933C86.7875 226.273 87.1825 226.758 87.4625 227.388C87.7525 228.008 87.8975 228.748 87.8975 229.608C87.8975 230.458 87.7525 231.198 87.4625 231.828C87.1825 232.448 86.7925 232.928 86.2925 233.268C85.7925 233.608 85.2125 233.778 84.5525 233.778C84.1925 233.778 83.8575 233.718 83.5475 233.598C83.2475 233.478 82.9825 233.313 82.7525 233.103C82.5325 232.893 82.3575 232.653 82.2275 232.383H82.1525V236.598H79.9325ZM83.8325 232.113C84.2125 232.113 84.5325 232.013 84.7925 231.813C85.0525 231.603 85.2525 231.313 85.3925 230.943C85.5425 230.563 85.6175 230.118 85.6175 229.608C85.6175 229.088 85.5425 228.643 85.3925 228.273C85.2525 227.893 85.0525 227.603 84.7925 227.403C84.5325 227.193 84.2125 227.088 83.8325 227.088C83.4625 227.088 83.1425 227.193 82.8725 227.403C82.6025 227.603 82.3925 227.893 82.2425 228.273C82.1025 228.643 82.0325 229.088 82.0325 229.608C82.0325 230.108 82.1025 230.548 82.2425 230.928C82.3925 231.308 82.6025 231.603 82.8725 231.813C83.1425 232.013 83.4625 232.113 83.8325 232.113ZM93.3204 233.778C92.4904 233.778 91.7654 233.603 91.1454 233.253C90.5254 232.903 90.0454 232.413 89.7054 231.783C89.3654 231.153 89.1954 230.428 89.1954 229.608C89.1954 228.768 89.3654 228.038 89.7054 227.418C90.0454 226.798 90.5254 226.313 91.1454 225.963C91.7654 225.603 92.4904 225.423 93.3204 225.423C94.1504 225.423 94.8754 225.598 95.4954 225.948C96.1154 226.298 96.5954 226.788 96.9354 227.418C97.2754 228.038 97.4454 228.768 97.4454 229.608C97.4454 230.438 97.2754 231.168 96.9354 231.798C96.5954 232.418 96.1154 232.903 95.4954 233.253C94.8754 233.603 94.1504 233.778 93.3204 233.778ZM93.3204 232.113C93.6904 232.113 94.0104 232.023 94.2804 231.843C94.5604 231.663 94.7754 231.388 94.9254 231.018C95.0854 230.638 95.1654 230.168 95.1654 229.608C95.1654 229.028 95.0854 228.553 94.9254 228.183C94.7754 227.813 94.5604 227.538 94.2804 227.358C94.0104 227.178 93.6904 227.088 93.3204 227.088C92.9504 227.088 92.6254 227.178 92.3454 227.358C92.0754 227.538 91.8604 227.813 91.7004 228.183C91.5504 228.553 91.4754 229.028 91.4754 229.608C91.4754 230.178 91.5504 230.648 91.7004 231.018C91.8604 231.388 92.0754 231.663 92.3454 231.843C92.6254 232.023 92.9504 232.113 93.3204 232.113ZM100.554 233.598V226.023H102.774V233.598H100.554ZM98.1386 227.433V225.603H105.174V227.433H98.1386ZM111.829 233.598L109.339 229.338L111.724 225.603H114.214L111.079 229.923L110.869 228.093L114.319 233.598H111.829ZM106.534 233.598V225.603H108.754V233.598H106.534ZM107.464 230.343V228.393H110.494V230.343H107.464ZM115.777 233.598V225.603H117.952V231.438H118.027L120.547 225.603H123.547V233.598H121.387V227.778H121.312L118.837 233.598H115.777ZM129.296 233.778C128.466 233.778 127.746 233.603 127.136 233.253C126.526 232.893 126.056 232.393 125.726 231.753C125.396 231.103 125.231 230.358 125.231 229.518C125.231 228.708 125.401 227.998 125.741 227.388C126.091 226.768 126.566 226.288 127.166 225.948C127.766 225.598 128.446 225.423 129.206 225.423C129.986 225.423 130.661 225.583 131.231 225.903C131.801 226.213 132.236 226.658 132.536 227.238C132.846 227.818 133.001 228.503 133.001 229.293C133.001 229.433 132.996 229.583 132.986 229.743C132.976 229.893 132.961 230.018 132.941 230.118H126.296V228.753H131.441L130.886 228.933C130.896 228.483 130.831 228.108 130.691 227.808C130.561 227.508 130.371 227.283 130.121 227.133C129.871 226.973 129.561 226.893 129.191 226.893C128.841 226.893 128.531 226.968 128.261 227.118C127.991 227.268 127.781 227.503 127.631 227.823C127.481 228.133 127.406 228.533 127.406 229.023V229.953C127.406 230.573 127.576 231.088 127.916 231.498C128.256 231.908 128.761 232.113 129.431 232.113C129.791 232.113 130.131 232.038 130.451 231.888C130.771 231.728 131.036 231.478 131.246 231.138L132.836 232.128C132.636 232.478 132.371 232.778 132.041 233.028C131.711 233.268 131.316 233.453 130.856 233.583C130.396 233.713 129.876 233.778 129.296 233.778ZM138.438 233.598V225.603H140.613V231.438H140.688L143.208 225.603H146.208V233.598H144.048V227.778H143.973L141.498 233.598H138.438ZM152.119 232.233C152.389 231.933 152.604 231.613 152.764 231.273C152.934 230.923 153.064 230.523 153.154 230.073C153.244 229.613 153.294 229.083 153.304 228.483L153.379 225.603H159.694V232.233H157.579V227.418H154.189L155.314 226.308L155.254 228.588C155.244 229.218 155.194 229.758 155.104 230.208C155.024 230.658 154.914 231.043 154.774 231.363C154.644 231.683 154.484 231.973 154.294 232.233H152.119ZM153.499 235.398H151.414V231.768H153.724V233.598H153.499V235.398ZM152.914 233.598V231.768H159.244V233.598H152.914ZM158.824 235.398V233.598H158.584V231.768H160.909V235.398H158.824ZM162.742 233.718C162.562 233.718 162.397 233.698 162.247 233.658C162.097 233.628 161.952 233.593 161.812 233.553V231.753C161.882 231.783 161.957 231.808 162.037 231.828C162.117 231.838 162.207 231.843 162.307 231.843C162.587 231.843 162.807 231.733 162.967 231.513C163.137 231.293 163.242 230.903 163.282 230.343C163.292 230.153 163.302 229.958 163.312 229.758C163.322 229.558 163.332 229.348 163.342 229.128C163.352 228.898 163.362 228.658 163.372 228.408L163.492 225.603H169.882V233.598H167.647V226.173L168.472 227.433H164.152L165.427 226.173L165.322 228.573C165.312 228.963 165.297 229.313 165.277 229.623C165.267 229.923 165.252 230.253 165.232 230.613C165.202 231.353 165.097 231.953 164.917 232.413C164.737 232.873 164.467 233.208 164.107 233.418C163.757 233.618 163.302 233.718 162.742 233.718ZM171.954 233.598V225.603H174.129V231.438H174.204L176.724 225.603H179.724V233.598H177.564V227.778H177.489L175.014 233.598H171.954ZM186.912 233.598V225.603H189.132V233.598H186.912ZM181.812 233.598V225.603H184.032V233.598H181.812ZM183.237 230.328V228.498H187.707V230.328H183.237ZM196.317 233.598V225.603H198.537V233.598H196.317ZM191.217 233.598V225.603H193.437V233.598H191.217ZM192.642 230.328V228.498H197.112V230.328H192.642ZM200.621 233.598V225.603H202.841V228.123H204.656C205.556 228.123 206.286 228.358 206.846 228.828C207.416 229.298 207.701 229.978 207.701 230.868C207.701 231.748 207.416 232.423 206.846 232.893C206.286 233.363 205.556 233.598 204.656 233.598H200.621ZM202.841 232.038H204.176C204.596 232.038 204.911 231.933 205.121 231.723C205.331 231.503 205.436 231.218 205.436 230.868C205.436 230.508 205.331 230.223 205.121 230.013C204.911 229.793 204.596 229.683 204.176 229.683H202.841V232.038ZM208.856 233.598V225.603H211.076V233.598H208.856ZM216.805 233.778C215.975 233.778 215.255 233.603 214.645 233.253C214.035 232.893 213.565 232.393 213.235 231.753C212.905 231.103 212.74 230.358 212.74 229.518C212.74 228.708 212.91 227.998 213.25 227.388C213.6 226.768 214.075 226.288 214.675 225.948C215.275 225.598 215.955 225.423 216.715 225.423C217.495 225.423 218.17 225.583 218.74 225.903C219.31 226.213 219.745 226.658 220.045 227.238C220.355 227.818 220.51 228.503 220.51 229.293C220.51 229.433 220.505 229.583 220.495 229.743C220.485 229.893 220.47 230.018 220.45 230.118H213.805V228.753H218.95L218.395 228.933C218.405 228.483 218.34 228.108 218.2 227.808C218.07 227.508 217.88 227.283 217.63 227.133C217.38 226.973 217.07 226.893 216.7 226.893C216.35 226.893 216.04 226.968 215.77 227.118C215.5 227.268 215.29 227.503 215.14 227.823C214.99 228.133 214.915 228.533 214.915 229.023V229.953C214.915 230.573 215.085 231.088 215.425 231.498C215.765 231.908 216.27 232.113 216.94 232.113C217.3 232.113 217.64 232.038 217.96 231.888C218.28 231.728 218.545 231.478 218.755 231.138L220.345 232.128C220.145 232.478 219.88 232.778 219.55 233.028C219.22 233.268 218.825 233.453 218.365 233.583C217.905 233.713 217.385 233.778 216.805 233.778ZM230.913 233.598V225.603H233.133V233.598H230.913ZM225.948 233.598V225.603H228.168V233.598H225.948ZM227.418 227.433V225.603H231.663V227.433H227.418ZM235.221 236.598V225.603H237.321V226.833H237.396C237.526 226.553 237.711 226.308 237.951 226.098C238.191 225.888 238.466 225.723 238.776 225.603C239.096 225.483 239.441 225.423 239.811 225.423C240.481 225.423 241.066 225.593 241.566 225.933C242.076 226.273 242.471 226.758 242.751 227.388C243.041 228.008 243.186 228.748 243.186 229.608C243.186 230.458 243.041 231.198 242.751 231.828C242.471 232.448 242.081 232.928 241.581 233.268C241.081 233.608 240.501 233.778 239.841 233.778C239.481 233.778 239.146 233.718 238.836 233.598C238.536 233.478 238.271 233.313 238.041 233.103C237.821 232.893 237.646 232.653 237.516 232.383H237.441V236.598H235.221ZM239.121 232.113C239.501 232.113 239.821 232.013 240.081 231.813C240.341 231.603 240.541 231.313 240.681 230.943C240.831 230.563 240.906 230.118 240.906 229.608C240.906 229.088 240.831 228.643 240.681 228.273C240.541 227.893 240.341 227.603 240.081 227.403C239.821 227.193 239.501 227.088 239.121 227.088C238.751 227.088 238.431 227.193 238.161 227.403C237.891 227.603 237.681 227.893 237.531 228.273C237.391 228.643 237.321 229.088 237.321 229.608C237.321 230.108 237.391 230.548 237.531 230.928C237.681 231.308 237.891 231.603 238.161 231.813C238.431 232.013 238.751 232.113 239.121 232.113ZM248.549 233.778C247.719 233.778 246.999 233.603 246.389 233.253C245.779 232.893 245.309 232.393 244.979 231.753C244.649 231.103 244.484 230.358 244.484 229.518C244.484 228.708 244.654 227.998 244.994 227.388C245.344 226.768 245.819 226.288 246.419 225.948C247.019 225.598 247.699 225.423 248.459 225.423C249.239 225.423 249.914 225.583 250.484 225.903C251.054 226.213 251.489 226.658 251.789 227.238C252.099 227.818 252.254 228.503 252.254 229.293C252.254 229.433 252.249 229.583 252.239 229.743C252.229 229.893 252.214 230.018 252.194 230.118H245.549V228.753H250.694L250.139 228.933C250.149 228.483 250.084 228.108 249.944 227.808C249.814 227.508 249.624 227.283 249.374 227.133C249.124 226.973 248.814 226.893 248.444 226.893C248.094 226.893 247.784 226.968 247.514 227.118C247.244 227.268 247.034 227.503 246.884 227.823C246.734 228.133 246.659 228.533 246.659 229.023V229.953C246.659 230.573 246.829 231.088 247.169 231.498C247.509 231.908 248.014 232.113 248.684 232.113C249.044 232.113 249.384 232.038 249.704 231.888C250.024 231.728 250.289 231.478 250.499 231.138L252.089 232.128C251.889 232.478 251.624 232.778 251.294 233.028C250.964 233.268 250.569 233.453 250.109 233.583C249.649 233.713 249.129 233.778 248.549 233.778ZM253.765 232.233C254.035 231.933 254.25 231.613 254.41 231.273C254.58 230.923 254.71 230.523 254.8 230.073C254.89 229.613 254.94 229.083 254.95 228.483L255.025 225.603H261.34V232.233H259.225V227.418H255.835L256.96 226.308L256.9 228.588C256.89 229.218 256.84 229.758 256.75 230.208C256.67 230.658 256.56 231.043 256.42 231.363C256.29 231.683 256.13 231.973 255.94 232.233H253.765ZM255.145 235.398H253.06V231.768H255.37V233.598H255.145V235.398ZM254.56 233.598V231.768H260.89V233.598H254.56ZM260.47 235.398V233.598H260.23V231.768H262.555V235.398H260.47ZM264.388 233.718C264.208 233.718 264.043 233.698 263.893 233.658C263.743 233.628 263.598 233.593 263.458 233.553V231.753C263.528 231.783 263.603 231.808 263.683 231.828C263.763 231.838 263.853 231.843 263.953 231.843C264.233 231.843 264.453 231.733 264.613 231.513C264.783 231.293 264.888 230.903 264.928 230.343C264.938 230.153 264.948 229.958 264.958 229.758C264.968 229.558 264.978 229.348 264.988 229.128C264.998 228.898 265.008 228.658 265.018 228.408L265.138 225.603H271.528V233.598H269.293V226.173L270.118 227.433H265.798L267.073 226.173L266.968 228.573C266.958 228.963 266.943 229.313 266.923 229.623C266.913 229.923 266.898 230.253 266.878 230.613C266.848 231.353 266.743 231.953 266.563 232.413C266.383 232.873 266.113 233.208 265.753 233.418C265.403 233.618 264.948 233.718 264.388 233.718ZM277.319 233.778C276.489 233.778 275.764 233.603 275.144 233.253C274.524 232.903 274.044 232.413 273.704 231.783C273.364 231.153 273.194 230.428 273.194 229.608C273.194 228.768 273.364 228.038 273.704 227.418C274.044 226.798 274.524 226.313 275.144 225.963C275.764 225.603 276.489 225.423 277.319 225.423C278.149 225.423 278.874 225.598 279.494 225.948C280.114 226.298 280.594 226.788 280.934 227.418C281.274 228.038 281.444 228.768 281.444 229.608C281.444 230.438 281.274 231.168 280.934 231.798C280.594 232.418 280.114 232.903 279.494 233.253C278.874 233.603 278.149 233.778 277.319 233.778ZM277.319 232.113C277.689 232.113 278.009 232.023 278.279 231.843C278.559 231.663 278.774 231.388 278.924 231.018C279.084 230.638 279.164 230.168 279.164 229.608C279.164 229.028 279.084 228.553 278.924 228.183C278.774 227.813 278.559 227.538 278.279 227.358C278.009 227.178 277.689 227.088 277.319 227.088C276.949 227.088 276.624 227.178 276.344 227.358C276.074 227.538 275.859 227.813 275.699 228.183C275.549 228.553 275.474 229.028 275.474 229.608C275.474 230.178 275.549 230.648 275.699 231.018C275.859 231.388 276.074 231.663 276.344 231.843C276.624 232.023 276.949 232.113 277.319 232.113ZM292.148 233.598L289.988 229.293L292.028 225.603H294.488L291.863 229.848V228.573L294.593 233.598H292.148ZM281.993 233.598L284.708 228.573V229.848L282.098 225.603H284.543L286.583 229.293L284.438 233.598H281.993ZM287.213 233.598V225.603H289.358V233.598H287.213ZM285.338 230.328V228.393H291.233V230.328H285.338ZM299.188 233.778C298.358 233.778 297.638 233.603 297.028 233.253C296.418 232.893 295.948 232.393 295.618 231.753C295.288 231.103 295.123 230.358 295.123 229.518C295.123 228.708 295.293 227.998 295.633 227.388C295.983 226.768 296.458 226.288 297.058 225.948C297.658 225.598 298.338 225.423 299.098 225.423C299.878 225.423 300.553 225.583 301.123 225.903C301.693 226.213 302.128 226.658 302.428 227.238C302.738 227.818 302.893 228.503 302.893 229.293C302.893 229.433 302.888 229.583 302.878 229.743C302.868 229.893 302.853 230.018 302.833 230.118H296.188V228.753H301.333L300.778 228.933C300.788 228.483 300.723 228.108 300.583 227.808C300.453 227.508 300.263 227.283 300.013 227.133C299.763 226.973 299.453 226.893 299.083 226.893C298.733 226.893 298.423 226.968 298.153 227.118C297.883 227.268 297.673 227.503 297.523 227.823C297.373 228.133 297.298 228.533 297.298 229.023V229.953C297.298 230.573 297.468 231.088 297.808 231.498C298.148 231.908 298.653 232.113 299.323 232.113C299.683 232.113 300.023 232.038 300.343 231.888C300.663 231.728 300.928 231.478 301.138 231.138L302.728 232.128C302.528 232.478 302.263 232.778 301.933 233.028C301.603 233.268 301.208 233.453 300.748 233.583C300.288 233.713 299.768 233.778 299.188 233.778ZM309.578 233.598V225.603H311.798V233.598H309.578ZM304.478 233.598V225.603H306.698V233.598H304.478ZM305.903 230.328V228.498H310.373V230.328H305.903ZM313.883 233.598V225.603H316.058V231.438H316.133L318.653 225.603H321.653V233.598H319.493V227.778H319.418L316.943 233.598H313.883ZM328.376 233.598V230.403H327.131L327.041 230.673H326.516C325.926 230.673 325.401 230.588 324.941 230.418C324.491 230.238 324.136 229.968 323.876 229.608C323.626 229.238 323.501 228.773 323.501 228.213C323.501 227.643 323.626 227.168 323.876 226.788C324.126 226.398 324.476 226.103 324.926 225.903C325.386 225.703 325.921 225.603 326.531 225.603H330.596V233.598H328.376ZM323.201 233.598L326.426 229.818L328.886 229.848L325.871 233.598H323.201ZM327.011 229.323H328.376V227.133H327.011C326.591 227.133 326.276 227.233 326.066 227.433C325.856 227.623 325.751 227.888 325.751 228.228C325.751 228.558 325.856 228.823 326.066 229.023C326.276 229.223 326.591 229.323 327.011 229.323Z" fill="#151515"/>
<rect x="192.599" y="45.4678" width="190.684" height="36.8777" rx="18.4389" fill="#FFD5D5"/>
<path d="M212.439 68.3286L210.115 64.3526L212.341 60.8666H214.665L211.739 64.8986L211.543 63.1906L214.763 68.3286H212.439ZM207.497 68.3286V60.8666H209.569V68.3286H207.497ZM208.365 65.2906V63.4706H211.193V65.2906H208.365ZM217.965 68.4966C217.218 68.4966 216.621 68.2959 216.173 67.8946C215.725 67.4933 215.501 66.9659 215.501 66.3126C215.501 65.6873 215.715 65.1739 216.145 64.7726C216.574 64.3619 217.255 64.0913 218.189 63.9606L220.695 63.5826V64.7446L218.735 65.0666C218.324 65.1319 218.011 65.2533 217.797 65.4306C217.591 65.5986 217.489 65.8459 217.489 66.1726C217.489 66.4526 217.582 66.6813 217.769 66.8586C217.965 67.0266 218.235 67.1106 218.581 67.1106C218.879 67.1106 219.136 67.0453 219.351 66.9146C219.565 66.7746 219.733 66.5833 219.855 66.3406C219.976 66.0886 220.037 65.7899 220.037 65.4446V63.3166C220.037 62.9619 219.939 62.6819 219.743 62.4766C219.547 62.2713 219.253 62.1686 218.861 62.1686C218.525 62.1686 218.249 62.2479 218.035 62.4066C217.829 62.5653 217.68 62.8079 217.587 63.1346L215.711 62.7566C215.897 62.0939 216.28 61.5853 216.859 61.2306C217.447 60.8759 218.142 60.6986 218.945 60.6986C220.009 60.6986 220.793 60.9506 221.297 61.4546C221.81 61.9493 222.067 62.6259 222.067 63.4846V66.9286L222.599 68.3286H220.485L220.149 67.3486H220.065C219.859 67.7126 219.575 67.9973 219.211 68.2026C218.856 68.3986 218.441 68.4966 217.965 68.4966ZM228.982 68.3286L226.658 64.3526L228.884 60.8666H231.208L228.282 64.8986L228.086 63.1906L231.306 68.3286H228.982ZM224.04 68.3286V60.8666H226.112V68.3286H224.04ZM224.908 65.2906V63.4706H227.736V65.2906H224.908ZM236.263 68.3286V60.8666H240.225C240.925 60.8666 241.48 61.0393 241.891 61.3846C242.311 61.7206 242.521 62.1779 242.521 62.7566C242.521 63.1579 242.409 63.4939 242.185 63.7646C241.97 64.0353 241.667 64.2173 241.275 64.3106V64.3806C241.798 64.4646 242.204 64.6699 242.493 64.9966C242.792 65.3139 242.941 65.7153 242.941 66.2006C242.941 66.6299 242.824 67.0033 242.591 67.3206C242.358 67.6379 242.036 67.8853 241.625 68.0626C241.214 68.2399 240.734 68.3286 240.183 68.3286H236.263ZM238.321 67.0406H239.623C240.024 67.0406 240.328 66.9566 240.533 66.7886C240.748 66.6113 240.855 66.3686 240.855 66.0606C240.855 65.7526 240.748 65.5146 240.533 65.3466C240.328 65.1786 240.024 65.0946 239.623 65.0946H238.321V67.0406ZM238.321 63.9186H239.497C239.833 63.9186 240.085 63.8439 240.253 63.6946C240.43 63.5359 240.519 63.3213 240.519 63.0506C240.519 62.7799 240.43 62.5653 240.253 62.4066C240.076 62.2386 239.824 62.1546 239.497 62.1546H238.321V63.9186ZM247.868 68.4966C247.094 68.4966 246.422 68.3333 245.852 68.0066C245.283 67.6706 244.844 67.2039 244.536 66.6066C244.228 65.9999 244.074 65.3046 244.074 64.5206C244.074 63.7646 244.233 63.1019 244.55 62.5326C244.877 61.9539 245.32 61.5059 245.88 61.1886C246.44 60.8619 247.075 60.6986 247.784 60.6986C248.512 60.6986 249.142 60.8479 249.674 61.1466C250.206 61.4359 250.612 61.8513 250.892 62.3926C251.182 62.9339 251.326 63.5733 251.326 64.3106C251.326 64.4413 251.322 64.5813 251.312 64.7306C251.303 64.8706 251.289 64.9873 251.27 65.0806H245.068V63.8066H249.87L249.352 63.9746C249.362 63.5546 249.301 63.2046 249.17 62.9246C249.049 62.6446 248.872 62.4346 248.638 62.2946C248.405 62.1453 248.116 62.0706 247.77 62.0706C247.444 62.0706 247.154 62.1406 246.902 62.2806C246.65 62.4206 246.454 62.6399 246.314 62.9386C246.174 63.2279 246.104 63.6013 246.104 64.0586V64.9266C246.104 65.5053 246.263 65.9859 246.58 66.3686C246.898 66.7513 247.369 66.9426 247.994 66.9426C248.33 66.9426 248.648 66.8726 248.946 66.7326C249.245 66.5833 249.492 66.3499 249.688 66.0326L251.172 66.9566C250.986 67.2833 250.738 67.5633 250.43 67.7966C250.122 68.0206 249.754 68.1933 249.324 68.3146C248.895 68.4359 248.41 68.4966 247.868 68.4966ZM261.354 68.3286L259.338 64.3106L261.242 60.8666H263.538L261.088 64.8286V63.6386L263.636 68.3286H261.354ZM251.876 68.3286L254.41 63.6386V64.8286L251.974 60.8666H254.256L256.16 64.3106L254.158 68.3286H251.876ZM256.748 68.3286V60.8666H258.75V68.3286H256.748ZM254.998 65.2766V63.4706H260.5V65.2766H254.998ZM265.099 68.4406C264.931 68.4406 264.777 68.4219 264.637 68.3846C264.497 68.3566 264.361 68.3239 264.231 68.2866V66.6066C264.296 66.6346 264.366 66.6579 264.441 66.6766C264.515 66.6859 264.599 66.6906 264.693 66.6906C264.954 66.6906 265.159 66.5879 265.309 66.3826C265.467 66.1773 265.565 65.8133 265.603 65.2906C265.612 65.1133 265.621 64.9313 265.631 64.7446C265.64 64.5579 265.649 64.3619 265.659 64.1566C265.668 63.9419 265.677 63.7179 265.687 63.4846L265.799 60.8666H271.763V68.3286H269.677V61.3986L270.447 62.5746H266.415L267.605 61.3986L267.507 63.6386C267.497 64.0026 267.483 64.3293 267.465 64.6186C267.455 64.8986 267.441 65.2066 267.423 65.5426C267.395 66.2333 267.297 66.7933 267.129 67.2226C266.961 67.6519 266.709 67.9646 266.373 68.1606C266.046 68.3473 265.621 68.4406 265.099 68.4406ZM273.696 68.3286V60.8666H275.726V66.3126H275.796L278.148 60.8666H280.948V68.3286H278.932V62.8966H278.862L276.552 68.3286H273.696ZM282.898 68.3286V60.8666H286.86C287.56 60.8666 288.115 61.0393 288.526 61.3846C288.946 61.7206 289.156 62.1779 289.156 62.7566C289.156 63.1579 289.044 63.4939 288.82 63.7646C288.605 64.0353 288.302 64.2173 287.91 64.3106V64.3806C288.432 64.4646 288.838 64.6699 289.128 64.9966C289.426 65.3139 289.576 65.7153 289.576 66.2006C289.576 66.6299 289.459 67.0033 289.226 67.3206C288.992 67.6379 288.67 67.8853 288.26 68.0626C287.849 68.2399 287.368 68.3286 286.818 68.3286H282.898ZM284.956 67.0406H286.258C286.659 67.0406 286.962 66.9566 287.168 66.7886C287.382 66.6113 287.49 66.3686 287.49 66.0606C287.49 65.7526 287.382 65.5146 287.168 65.3466C286.962 65.1786 286.659 65.0946 286.258 65.0946H284.956V67.0406ZM284.956 63.9186H286.132C286.468 63.9186 286.72 63.8439 286.888 63.6946C287.065 63.5359 287.154 63.3213 287.154 63.0506C287.154 62.7799 287.065 62.5653 286.888 62.4066C286.71 62.2386 286.458 62.1546 286.132 62.1546H284.956V63.9186ZM294.559 68.4966C293.784 68.4966 293.108 68.3333 292.529 68.0066C291.95 67.6799 291.502 67.2226 291.185 66.6346C290.868 66.0466 290.709 65.3699 290.709 64.6046C290.709 63.8206 290.868 63.1393 291.185 62.5606C291.502 61.9819 291.95 61.5293 292.529 61.2026C293.108 60.8666 293.784 60.6986 294.559 60.6986C295.334 60.6986 296.01 60.8619 296.589 61.1886C297.168 61.5153 297.616 61.9726 297.933 62.5606C298.25 63.1393 298.409 63.8206 298.409 64.6046C298.409 65.3793 298.25 66.0606 297.933 66.6486C297.616 67.2273 297.168 67.6799 296.589 68.0066C296.01 68.3333 295.334 68.4966 294.559 68.4966ZM294.559 66.9426C294.904 66.9426 295.203 66.8586 295.455 66.6906C295.716 66.5226 295.917 66.2659 296.057 65.9206C296.206 65.5659 296.281 65.1273 296.281 64.6046C296.281 64.0633 296.206 63.6199 296.057 63.2746C295.917 62.9293 295.716 62.6726 295.455 62.5046C295.203 62.3366 294.904 62.2526 294.559 62.2526C294.214 62.2526 293.91 62.3366 293.649 62.5046C293.397 62.6726 293.196 62.9293 293.047 63.2746C292.907 63.6199 292.837 64.0633 292.837 64.6046C292.837 65.1366 292.907 65.5753 293.047 65.9206C293.196 66.2659 293.397 66.5226 293.649 66.6906C293.91 66.8586 294.214 66.9426 294.559 66.9426ZM306.874 68.4966C306.155 68.4966 305.516 68.3379 304.956 68.0206C304.405 67.6939 303.971 67.2413 303.654 66.6626C303.337 66.0746 303.178 65.3839 303.178 64.5906C303.178 63.7973 303.337 63.1113 303.654 62.5326C303.971 61.9446 304.405 61.4919 304.956 61.1746C305.516 60.8573 306.151 60.6986 306.86 60.6986C307.709 60.6986 308.409 60.8759 308.96 61.2306C309.52 61.5759 309.917 62.0986 310.15 62.7986L308.344 63.3866C308.213 62.9946 308.027 62.7099 307.784 62.5326C307.541 62.3459 307.243 62.2526 306.888 62.2526C306.58 62.2526 306.305 62.3413 306.062 62.5186C305.819 62.6866 305.623 62.9479 305.474 63.3026C305.334 63.6479 305.264 64.0773 305.264 64.5906C305.264 65.1039 305.334 65.5379 305.474 65.8926C305.623 66.2473 305.819 66.5133 306.062 66.6906C306.314 66.8586 306.594 66.9426 306.902 66.9426C307.257 66.9426 307.555 66.8493 307.798 66.6626C308.05 66.4666 308.241 66.1679 308.372 65.7666L310.164 66.3546C309.931 67.0546 309.539 67.5866 308.988 67.9506C308.437 68.3146 307.733 68.4966 306.874 68.4966ZM316.079 68.3286V60.8666H318.151V68.3286H316.079ZM311.445 68.3286V60.8666H313.517V68.3286H311.445ZM312.817 62.5746V60.8666H316.779V62.5746H312.817ZM320.099 71.1286V60.8666H322.059V62.0146H322.129C322.25 61.7533 322.423 61.5246 322.647 61.3286C322.871 61.1326 323.127 60.9786 323.417 60.8666C323.715 60.7546 324.037 60.6986 324.383 60.6986C325.008 60.6986 325.554 60.8573 326.021 61.1746C326.497 61.4919 326.865 61.9446 327.127 62.5326C327.397 63.1113 327.533 63.8019 327.533 64.6046C327.533 65.3979 327.397 66.0886 327.127 66.6766C326.865 67.2553 326.501 67.7033 326.035 68.0206C325.568 68.3379 325.027 68.4966 324.411 68.4966C324.075 68.4966 323.762 68.4406 323.473 68.3286C323.193 68.2166 322.945 68.0626 322.731 67.8666C322.525 67.6706 322.362 67.4466 322.241 67.1946H322.171V71.1286H320.099ZM323.739 66.9426C324.093 66.9426 324.392 66.8493 324.635 66.6626C324.877 66.4666 325.064 66.1959 325.195 65.8506C325.335 65.4959 325.405 65.0806 325.405 64.6046C325.405 64.1193 325.335 63.7039 325.195 63.3586C325.064 63.0039 324.877 62.7333 324.635 62.5466C324.392 62.3506 324.093 62.2526 323.739 62.2526C323.393 62.2526 323.095 62.3506 322.843 62.5466C322.591 62.7333 322.395 63.0039 322.255 63.3586C322.124 63.7039 322.059 64.1193 322.059 64.6046C322.059 65.0713 322.124 65.4819 322.255 65.8366C322.395 66.1913 322.591 66.4666 322.843 66.6626C323.095 66.8493 323.393 66.9426 323.739 66.9426ZM332.594 68.4966C331.82 68.4966 331.143 68.3333 330.564 68.0066C329.986 67.6799 329.538 67.2226 329.22 66.6346C328.903 66.0466 328.744 65.3699 328.744 64.6046C328.744 63.8206 328.903 63.1393 329.22 62.5606C329.538 61.9819 329.986 61.5293 330.564 61.2026C331.143 60.8666 331.82 60.6986 332.594 60.6986C333.369 60.6986 334.046 60.8619 334.624 61.1886C335.203 61.5153 335.651 61.9726 335.968 62.5606C336.286 63.1393 336.444 63.8206 336.444 64.6046C336.444 65.3793 336.286 66.0606 335.968 66.6486C335.651 67.2273 335.203 67.6799 334.624 68.0066C334.046 68.3333 333.369 68.4966 332.594 68.4966ZM332.594 66.9426C332.94 66.9426 333.238 66.8586 333.49 66.6906C333.752 66.5226 333.952 66.2659 334.092 65.9206C334.242 65.5659 334.316 65.1273 334.316 64.6046C334.316 64.0633 334.242 63.6199 334.092 63.2746C333.952 62.9293 333.752 62.6726 333.49 62.5046C333.238 62.3366 332.94 62.2526 332.594 62.2526C332.249 62.2526 331.946 62.3366 331.684 62.5046C331.432 62.6726 331.232 62.9293 331.082 63.2746C330.942 63.6199 330.872 64.0633 330.872 64.6046C330.872 65.1366 330.942 65.5753 331.082 65.9206C331.232 66.2659 331.432 66.5226 331.684 66.6906C331.946 66.8586 332.249 66.9426 332.594 66.9426ZM341.341 68.4966C340.622 68.4966 339.983 68.3379 339.423 68.0206C338.872 67.6939 338.438 67.2413 338.121 66.6626C337.803 66.0746 337.645 65.3839 337.645 64.5906C337.645 63.7973 337.803 63.1113 338.121 62.5326C338.438 61.9446 338.872 61.4919 339.423 61.1746C339.983 60.8573 340.617 60.6986 341.327 60.6986C342.176 60.6986 342.876 60.8759 343.427 61.2306C343.987 61.5759 344.383 62.0986 344.617 62.7986L342.811 63.3866C342.68 62.9946 342.493 62.7099 342.251 62.5326C342.008 62.3459 341.709 62.2526 341.355 62.2526C341.047 62.2526 340.771 62.3413 340.529 62.5186C340.286 62.6866 340.09 62.9479 339.941 63.3026C339.801 63.6479 339.731 64.0773 339.731 64.5906C339.731 65.1039 339.801 65.5379 339.941 65.8926C340.09 66.2473 340.286 66.5133 340.529 66.6906C340.781 66.8586 341.061 66.9426 341.369 66.9426C341.723 66.9426 342.022 66.8493 342.265 66.6626C342.517 66.4666 342.708 66.1679 342.839 65.7666L344.631 66.3546C344.397 67.0546 344.005 67.5866 343.455 67.9506C342.904 68.3146 342.199 68.4966 341.341 68.4966ZM345.911 68.3286V60.8666H347.941V66.3126H348.011L350.363 60.8666H353.163V68.3286H351.147V62.8966H351.077L348.767 68.3286H345.911ZM356.708 68.3286V61.2586H358.78V68.3286H356.708ZM354.454 62.5746V60.8666H361.02V62.5746H354.454ZM362.29 68.3286V60.8666H364.362V63.2186H366.056C366.896 63.2186 367.578 63.4379 368.1 63.8766C368.632 64.3153 368.898 64.9499 368.898 65.7806C368.898 66.6019 368.632 67.2319 368.1 67.6706C367.578 68.1093 366.896 68.3286 366.056 68.3286H362.29ZM364.362 66.8726H365.608C366 66.8726 366.294 66.7746 366.49 66.5786C366.686 66.3733 366.784 66.1073 366.784 65.7806C366.784 65.4446 366.686 65.1786 366.49 64.9826C366.294 64.7773 366 64.6746 365.608 64.6746H364.362V66.8726Z" fill="#151515"/>
<rect x="2.06641" y="71.4524" width="186.784" height="46.2532" rx="21.0486" transform="rotate(2.56053 2.06641 71.4524)" fill="#CCF3DB"/>
<path d="M31.4021 91.819L33.9156 91.9314L33.5108 100.983L30.9973 100.871L31.4021 91.819ZM25.7807 91.5676L28.2942 91.68L27.8894 100.732L25.3759 100.62L25.7807 91.5676ZM27.0063 100.692L27.0989 98.6205L31.9391 98.837L31.8464 100.909L27.0063 100.692ZM32.4346 102.977L32.5257 100.939L32.271 100.928L32.3636 98.8559L34.979 98.9729L34.7952 103.083L32.4346 102.977ZM40.5894 101.504C39.6497 101.462 38.8433 101.227 38.1704 100.8C37.498 100.362 36.9912 99.7719 36.65 99.0306C36.3093 98.278 36.1602 97.4261 36.2027 96.4751C36.2437 95.558 36.4721 94.7627 36.888 94.0893C37.3156 93.4051 37.8777 92.8857 38.5743 92.5311C39.2713 92.1652 40.0501 92.0015 40.9105 92.04C41.7936 92.0795 42.5498 92.2948 43.1789 92.686C43.8086 93.0658 44.2786 93.5917 44.5889 94.2635C44.9105 94.9359 45.0513 95.7193 45.0113 96.6137C45.0042 96.7722 44.9909 96.9418 44.9715 97.1225C44.9526 97.2918 44.9293 97.4326 44.9016 97.5448L37.3781 97.2083L37.4472 95.6629L43.2724 95.9234L42.6349 96.0991C42.669 95.5901 42.6144 95.1622 42.4711 94.8155C42.3391 94.4692 42.1354 94.2048 41.8599 94.0224C41.585 93.8286 41.238 93.7223 40.8191 93.7035C40.4228 93.6858 40.0681 93.755 39.7548 93.9112C39.4415 94.0674 39.1918 94.3228 39.0058 94.6775C38.8203 95.0209 38.7151 95.47 38.6903 96.0248L38.6432 97.0777C38.6118 97.7797 38.7782 98.3714 39.1424 98.8528C39.5066 99.3342 40.068 99.5919 40.8265 99.6258C41.2341 99.644 41.6229 99.5763 41.9928 99.4227C42.3632 99.2577 42.6759 98.9881 42.9309 98.6138L44.6809 99.8152C44.4368 100.201 44.1216 100.528 43.7353 100.794C43.3495 101.049 42.8929 101.238 42.3655 101.362C41.8381 101.486 41.2461 101.533 40.5894 101.504ZM52.3623 101.826L52.7671 92.7744L55.2806 92.8868L54.8758 101.939L52.3623 101.826ZM46.5881 101.568L46.9929 92.5162L49.5064 92.6286L49.1016 101.681L46.5881 101.568ZM48.367 97.938L48.4597 95.866L53.5206 96.0924L53.428 98.1643L48.367 97.938ZM57.2356 102.044L57.6404 92.9923L60.1539 93.1047L60.0263 95.9579L62.0813 96.0498C63.1003 96.0953 63.9149 96.3984 64.5251 96.9589C65.1467 97.5199 65.4349 98.3042 65.3899 99.3118C65.3453 100.308 64.9884 101.058 64.3193 101.561C63.6615 102.065 62.8231 102.294 61.8041 102.249L57.2356 102.044ZM59.8281 100.39L61.3396 100.458C61.8151 100.479 62.1771 100.376 62.4255 100.149C62.6744 99.9108 62.8077 99.5934 62.8254 99.1972C62.8436 98.7896 62.7392 98.4616 62.5121 98.2132C62.2854 97.9535 61.9344 97.813 61.4588 97.7917L59.9474 97.7241L59.8281 100.39ZM66.5593 102.461L66.9641 93.4093L69.4776 93.5217L69.0728 102.574L66.5593 102.461ZM75.7777 102.873L76.1825 93.8215L78.645 93.9316L78.3496 100.538L78.4345 100.542L81.5831 94.063L84.9797 94.2149L84.5749 103.267L82.1293 103.158L82.424 96.5681L82.3391 96.5643L79.2422 103.028L75.7777 102.873ZM96.9226 103.819L97.3274 94.7671L99.8409 94.8795L99.4361 103.931L96.9226 103.819ZM91.3012 103.568L91.706 94.5157L94.2195 94.6281L93.8147 103.68L91.3012 103.568ZM93.2777 96.6621L93.3703 94.5901L98.1765 94.8051L98.0839 96.877L93.2777 96.6621ZM106.002 104.429C105.062 104.387 104.25 104.152 103.566 103.725C102.882 103.297 102.363 102.718 102.01 101.988C101.657 101.257 101.501 100.428 101.543 99.4992C101.586 98.5481 101.815 97.7302 102.231 97.0455C102.648 96.3607 103.216 95.8359 103.935 95.471C104.656 95.0948 105.485 94.9277 106.425 94.9697C107.365 95.0118 108.177 95.2466 108.861 95.6743C109.545 96.1019 110.064 96.681 110.417 97.4115C110.771 98.1307 110.926 98.9658 110.884 99.9169C110.842 100.857 110.612 101.674 110.195 102.371C109.779 103.055 109.211 103.58 108.491 103.945C107.772 104.31 106.942 104.471 106.002 104.429ZM106.086 102.544C106.505 102.563 106.872 102.477 107.187 102.287C107.513 102.097 107.771 101.797 107.959 101.386C108.16 100.964 108.274 100.435 108.302 99.8014C108.332 99.1448 108.265 98.6029 108.103 98.1759C107.952 97.7494 107.722 97.4271 107.414 97.2092C107.118 96.9917 106.76 96.8736 106.341 96.8549C105.922 96.8361 105.549 96.9216 105.223 97.1112C104.909 97.3013 104.651 97.6018 104.451 98.0126C104.263 98.4239 104.154 98.9579 104.124 99.6146C104.096 100.26 104.157 100.796 104.308 101.222C104.47 101.649 104.7 101.972 104.996 102.189C105.304 102.407 105.668 102.525 106.086 102.544ZM118.558 104.787L115.955 99.8373L118.844 95.7293L121.663 95.8554L117.895 100.588L117.75 98.5052L121.377 104.913L118.558 104.787ZM112.563 104.518L112.968 95.4665L115.481 95.5789L115.077 104.631L112.563 104.518ZM113.781 100.88L113.88 98.6725L117.31 98.8259L117.211 101.034L113.781 100.88ZM124.626 108.461L126.155 104.701L126.936 103.596L129.343 96.1988L131.976 96.3165L127.122 108.573L124.626 108.461ZM125.458 105.078L122.601 95.8973L125.233 96.015L127.036 103.26L127.767 103.292L127.631 105.175L125.458 105.078ZM138.684 105.687L139.088 96.6346L141.602 96.747L141.197 105.799L138.684 105.687ZM133.062 105.435L133.467 96.3832L135.98 96.4956L135.576 105.548L133.062 105.435ZM135.039 98.5296L135.131 96.4577L139.938 96.6726L139.845 98.7445L135.039 98.5296ZM149.556 106.173L146.952 101.224L149.841 97.1155L152.661 97.2416L148.892 101.974L148.747 99.8914L152.375 106.299L149.556 106.173ZM143.561 105.905L143.965 96.8527L146.479 96.9651L146.074 106.017L143.561 105.905ZM144.778 102.266L144.877 100.059L148.308 100.212L148.209 102.42L144.778 102.266ZM154.026 106.373L154.43 97.3207L156.893 97.4308L156.598 104.037L156.682 104.041L159.831 97.5622L163.228 97.7141L162.823 106.766L160.377 106.657L160.672 100.067L160.587 100.064L157.49 106.528L154.026 106.373Z" fill="#151515"/>
<rect x="191.405" y="66.9224" width="143.917" height="33.5385" rx="16.7693" transform="rotate(20.4654 191.405 66.9224)" fill="#E1C7F4"/>
<path d="M203.54 94.2474L202.865 90.358L205.698 88.2257L207.564 88.9222L204.006 91.2832L204.36 89.8529L205.406 94.9439L203.54 94.2474ZM199.571 92.7663L201.808 86.774L203.472 87.395L201.235 93.3873L199.571 92.7663ZM201.179 90.5868L201.724 89.1253L203.995 89.9728L203.45 91.4344L201.179 90.5868ZM207.927 96.0383C207.327 95.8145 206.908 95.4744 206.668 95.0178C206.429 94.5613 206.407 94.0706 206.603 93.546C206.79 93.0438 207.116 92.6959 207.581 92.5023C208.049 92.3012 208.677 92.288 209.466 92.4628L211.592 92.9103L211.244 93.8434L209.573 93.5146C209.224 93.444 208.936 93.4477 208.711 93.5258C208.496 93.5992 208.339 93.767 208.241 94.0294C208.157 94.2542 208.164 94.4658 208.26 94.6642C208.367 94.8578 208.56 95.0064 208.837 95.1099C209.077 95.1994 209.302 95.2238 209.514 95.1832C209.728 95.1352 209.921 95.0319 210.091 94.8733C210.264 94.7073 210.402 94.4857 210.505 94.2084L211.143 92.4995C211.249 92.2147 211.255 91.9605 211.159 91.7368C211.063 91.5132 210.858 91.3426 210.543 91.2252C210.273 91.1245 210.028 91.1057 209.808 91.1687C209.596 91.2346 209.403 91.3847 209.23 91.6191L207.837 90.7533C208.185 90.2771 208.645 89.9833 209.216 89.8719C209.795 89.7633 210.406 89.8293 211.051 90.0699C211.905 90.3887 212.459 90.8261 212.713 91.3818C212.977 91.9329 212.98 92.5532 212.723 93.2428L211.691 96.0085L211.698 97.2922L210.001 96.6586L210.025 95.7709L209.957 95.7457C209.683 95.9765 209.369 96.1198 209.016 96.1756C208.672 96.2267 208.309 96.1809 207.927 96.0383ZM215.864 99.0003C215.182 98.7458 214.64 98.3899 214.238 97.9326C213.837 97.4754 213.586 96.9589 213.485 96.3833C213.383 95.8076 213.446 95.2162 213.673 94.6091C213.899 94.002 214.239 93.5141 214.693 93.1454C215.146 92.7767 215.673 92.5549 216.273 92.48C216.876 92.3976 217.519 92.4836 218.201 92.7382L219.831 93.3465C220.513 93.6011 221.051 93.9556 221.445 94.41C221.849 94.8597 222.102 95.3724 222.203 95.9481C222.304 96.5238 222.241 97.1152 222.015 97.7223C221.788 98.3294 221.448 98.8173 220.995 99.186C220.541 99.5547 220.013 99.7802 219.41 99.8627C218.815 99.9479 218.176 99.8632 217.494 99.6087L215.864 99.0003ZM216.355 97.7874L217.917 98.3706C218.255 98.4965 218.574 98.5344 218.874 98.4843C219.185 98.4295 219.461 98.2849 219.702 98.0504C219.951 97.8187 220.151 97.5005 220.302 97.0958C220.455 96.6836 220.514 96.3085 220.478 95.9705C220.45 95.6354 220.334 95.349 220.133 95.1115C219.941 94.8693 219.677 94.6853 219.34 94.5594L217.777 93.9762C217.432 93.8475 217.104 93.8106 216.794 93.8654C216.493 93.9155 216.219 94.0564 215.97 94.288C215.729 94.5225 215.531 94.8459 215.377 95.2581C215.226 95.6628 215.165 96.0328 215.194 96.3679C215.23 96.7059 215.344 96.996 215.535 97.2382C215.737 97.4757 216.01 97.6588 216.355 97.7874ZM215.052 101.106L215.988 98.5984L216.163 98.2667L217.967 93.4324L218.01 93.1795L218.95 90.6611L220.614 91.2821L219.678 93.7892L219.541 94.0198L217.745 98.8316L217.694 99.1069L216.716 101.726L215.052 101.106ZM224.859 102.357C224.237 102.125 223.746 101.793 223.387 101.36C223.031 100.919 222.818 100.413 222.75 99.8411C222.684 99.2616 222.769 98.657 223.004 98.0274C223.231 97.4203 223.557 96.9357 223.982 96.5737C224.418 96.2069 224.908 95.98 225.453 95.893C226 95.7985 226.559 95.8575 227.129 96.0701C227.713 96.2883 228.174 96.597 228.512 96.9963C228.853 97.388 229.054 97.8433 229.117 98.3619C229.187 98.8833 229.112 99.4401 228.891 100.032C228.851 100.137 228.806 100.248 228.753 100.365C228.704 100.475 228.658 100.564 228.615 100.634L223.634 98.775L224.016 97.752L227.872 99.1911L227.406 99.1708C227.539 98.8363 227.596 98.537 227.575 98.273C227.561 98.0118 227.482 97.79 227.336 97.6077C227.194 97.4178 226.984 97.2712 226.706 97.1677C226.444 97.0698 226.191 97.0393 225.946 97.0762C225.702 97.1131 225.479 97.2305 225.277 97.4283C225.078 97.6187 224.91 97.8976 224.773 98.2648L224.512 98.9619C224.339 99.4266 224.322 99.8601 224.463 100.263C224.603 100.665 224.924 100.96 225.426 101.147C225.696 101.248 225.972 101.287 226.253 101.264C226.538 101.233 226.807 101.12 227.059 100.924L227.974 102.111C227.726 102.317 227.444 102.468 227.126 102.563C226.812 102.651 226.464 102.679 226.083 102.648C225.702 102.616 225.294 102.52 224.859 102.357ZM231.762 104.78L233.998 98.7875L235.629 99.3959L233.996 103.769L234.053 103.79L237.573 100.122L239.822 100.961L237.586 106.953L235.967 106.349L237.595 101.987L237.538 101.966L234.056 105.636L231.762 104.78ZM241.199 110.863L244.275 102.623L245.849 103.21L245.505 104.132L245.561 104.153C245.737 103.979 245.944 103.848 246.182 103.757C246.421 103.667 246.673 103.62 246.939 103.617C247.213 103.617 247.488 103.668 247.765 103.772C248.268 103.959 248.658 104.25 248.938 104.645C249.225 105.042 249.386 105.516 249.419 106.067C249.463 106.613 249.365 107.208 249.124 107.852C248.887 108.489 248.571 109.004 248.177 109.395C247.794 109.781 247.367 110.032 246.898 110.147C246.428 110.262 245.945 110.227 245.451 110.042C245.181 109.941 244.947 109.803 244.748 109.626C244.557 109.452 244.404 109.254 244.291 109.033C244.184 108.814 244.12 108.585 244.098 108.346L244.042 108.325L242.863 111.484L241.199 110.863ZM245.377 108.593C245.662 108.699 245.93 108.714 246.18 108.636C246.434 108.552 246.665 108.39 246.873 108.152C247.092 107.909 247.273 107.597 247.415 107.215C247.561 106.825 247.629 106.47 247.62 106.151C247.622 105.827 247.553 105.554 247.414 105.331C247.278 105.101 247.067 104.933 246.782 104.827C246.505 104.723 246.236 104.712 245.975 104.794C245.717 104.869 245.478 105.027 245.259 105.27C245.051 105.508 244.874 105.822 244.728 106.212C244.589 106.587 244.518 106.936 244.517 107.26C244.523 107.587 244.598 107.867 244.741 108.099C244.888 108.325 245.1 108.489 245.377 108.593ZM251.978 112.478C251.355 112.246 250.865 111.913 250.505 111.48C250.149 111.04 249.937 110.534 249.868 109.962C249.803 109.382 249.887 108.778 250.122 108.148C250.349 107.541 250.675 107.056 251.1 106.694C251.536 106.327 252.026 106.1 252.571 106.013C253.119 105.919 253.677 105.978 254.247 106.191C254.832 106.409 255.293 106.717 255.631 107.117C255.971 107.509 256.173 107.964 256.235 108.482C256.305 109.004 256.23 109.561 256.009 110.153C255.97 110.258 255.924 110.369 255.872 110.486C255.822 110.595 255.776 110.685 255.733 110.754L250.753 108.896L251.135 107.872L254.991 109.312L254.524 109.291C254.658 108.957 254.714 108.658 254.693 108.394C254.679 108.132 254.6 107.911 254.455 107.728C254.312 107.538 254.102 107.392 253.825 107.288C253.562 107.19 253.309 107.16 253.065 107.197C252.82 107.234 252.597 107.351 252.395 107.549C252.196 107.739 252.028 108.018 251.891 108.385L251.631 109.082C251.457 109.547 251.441 109.981 251.581 110.383C251.721 110.785 252.042 111.08 252.544 111.268C252.814 111.368 253.09 111.407 253.372 111.384C253.656 111.354 253.925 111.241 254.177 111.045L255.092 112.231C254.844 112.438 254.562 112.589 254.245 112.684C253.93 112.771 253.582 112.799 253.201 112.768C252.82 112.737 252.412 112.64 251.978 112.478ZM258.607 114.952C258.03 114.737 257.564 114.418 257.209 113.995C256.865 113.568 256.652 113.074 256.571 112.514C256.492 111.947 256.572 111.345 256.81 110.708C257.047 110.071 257.38 109.567 257.809 109.198C258.24 108.821 258.724 108.587 259.261 108.497C259.806 108.41 260.363 108.473 260.933 108.686C261.615 108.94 262.124 109.292 262.46 109.742C262.806 110.187 262.968 110.726 262.945 111.358L261.319 111.289C261.331 110.935 261.267 110.651 261.125 110.435C260.986 110.213 260.774 110.048 260.49 109.942C260.242 109.85 259.995 109.838 259.747 109.908C259.501 109.97 259.266 110.121 259.039 110.361C258.823 110.597 258.639 110.921 258.485 111.333C258.331 111.745 258.257 112.115 258.263 112.441C258.277 112.771 258.354 113.043 258.496 113.258C258.648 113.469 258.848 113.62 259.095 113.712C259.38 113.819 259.648 113.833 259.899 113.756C260.16 113.674 260.403 113.492 260.628 113.209L261.891 114.218C261.494 114.71 261.02 115.02 260.468 115.147C259.917 115.274 259.297 115.209 258.607 114.952ZM263.708 116.702L265.827 111.025L267.491 111.646L265.372 117.323L263.708 116.702ZM263.623 111.406L264.135 110.034L269.407 112.002L268.895 113.374L263.623 111.406ZM270.731 119.477C270.109 119.244 269.614 118.91 269.248 118.475C268.881 118.039 268.658 117.537 268.579 116.97C268.501 116.403 268.576 115.812 268.806 115.197C269.041 114.568 269.372 114.068 269.8 113.699C270.229 113.329 270.724 113.1 271.287 113.011C271.852 112.914 272.446 112.982 273.068 113.214C273.69 113.447 274.184 113.781 274.551 114.216C274.918 114.652 275.141 115.154 275.219 115.721C275.301 116.281 275.224 116.875 274.989 117.505C274.757 118.127 274.425 118.627 273.994 119.004C273.566 119.373 273.07 119.603 272.508 119.691C271.945 119.78 271.353 119.709 270.731 119.477ZM271.197 118.229C271.474 118.332 271.739 118.354 271.992 118.295C272.252 118.238 272.49 118.092 272.706 117.857C272.932 117.617 273.123 117.287 273.28 116.867C273.442 116.433 273.515 116.054 273.499 115.732C273.49 115.413 273.406 115.147 273.246 114.933C273.094 114.723 272.879 114.566 272.602 114.462C272.325 114.359 272.056 114.335 271.796 114.392C271.543 114.451 271.305 114.597 271.082 114.83C270.866 115.065 270.677 115.4 270.514 115.835C270.355 116.262 270.28 116.636 270.289 116.955C270.305 117.277 270.389 117.543 270.541 117.754C270.701 117.967 270.919 118.125 271.197 118.229ZM274.279 123.209L277.355 114.968L278.929 115.555L278.585 116.477L278.641 116.498C278.817 116.325 279.024 116.193 279.262 116.103C279.501 116.012 279.753 115.966 280.019 115.962C280.293 115.962 280.568 116.014 280.845 116.117C281.348 116.304 281.738 116.595 282.018 116.99C282.305 117.388 282.466 117.862 282.499 118.412C282.543 118.958 282.445 119.553 282.204 120.198C281.967 120.835 281.651 121.349 281.257 121.74C280.874 122.126 280.448 122.377 279.978 122.492C279.508 122.607 279.026 122.572 278.531 122.388C278.261 122.287 278.027 122.148 277.828 121.972C277.637 121.798 277.484 121.6 277.371 121.378C277.264 121.159 277.2 120.93 277.178 120.692L277.122 120.671L275.943 123.83L274.279 123.209ZM278.457 120.938C278.742 121.044 279.01 121.059 279.26 120.982C279.514 120.897 279.745 120.736 279.953 120.498C280.172 120.255 280.353 119.942 280.495 119.56C280.641 119.17 280.709 118.816 280.7 118.496C280.702 118.172 280.633 117.899 280.494 117.677C280.358 117.446 280.147 117.278 279.862 117.172C279.585 117.068 279.316 117.058 279.055 117.14C278.797 117.214 278.558 117.372 278.339 117.615C278.131 117.854 277.954 118.167 277.809 118.557C277.669 118.932 277.598 119.281 277.597 119.605C277.603 119.932 277.678 120.212 277.821 120.445C277.968 120.67 278.18 120.835 278.457 120.938ZM283.979 124.421C283.379 124.197 282.96 123.857 282.72 123.4C282.481 122.944 282.459 122.453 282.655 121.928C282.842 121.426 283.169 121.078 283.634 120.885C284.101 120.684 284.73 120.671 285.518 120.845L287.644 121.293L287.296 122.226L285.625 121.897C285.276 121.826 284.989 121.83 284.763 121.908C284.548 121.982 284.391 122.15 284.293 122.412C284.209 122.637 284.216 122.848 284.313 123.047C284.42 123.24 284.612 123.389 284.889 123.492C285.129 123.582 285.355 123.606 285.566 123.566C285.781 123.518 285.973 123.414 286.143 123.256C286.316 123.09 286.454 122.868 286.558 122.591L287.195 120.882C287.302 120.597 287.307 120.343 287.211 120.119C287.115 119.896 286.91 119.725 286.595 119.608C286.325 119.507 286.08 119.488 285.86 119.551C285.648 119.617 285.455 119.767 285.282 120.002L283.889 119.136C284.238 118.66 284.697 118.366 285.268 118.254C285.847 118.146 286.458 118.212 287.103 118.452C287.957 118.771 288.512 119.209 288.765 119.764C289.029 120.315 289.033 120.936 288.775 121.625L287.743 124.391L287.751 125.675L286.053 125.041L286.077 124.153L286.009 124.128C285.735 124.359 285.422 124.502 285.068 124.558C284.724 124.609 284.361 124.563 283.979 124.421ZM292.731 127.533L294.967 121.541L296.631 122.162L294.395 128.154L292.731 127.533ZM288.908 126.107L291.145 120.114L292.808 120.735L290.572 126.728L288.908 126.107ZM290.891 124.054L291.403 122.683L294.753 123.933L294.241 125.305L290.891 124.054ZM295.957 128.737L298.193 122.745L299.857 123.366L299.152 125.255L300.513 125.762C301.187 126.014 301.668 126.394 301.957 126.903C302.252 127.415 302.276 128.004 302.027 128.671C301.781 129.331 301.378 129.757 300.82 129.95C300.269 130.146 299.656 130.118 298.981 129.866L295.957 128.737ZM298.057 128.189L299.058 128.562C299.372 128.68 299.638 128.689 299.854 128.591C300.073 128.484 300.231 128.3 300.329 128.038C300.43 127.768 300.431 127.525 300.332 127.309C300.237 127.085 300.031 126.915 299.716 126.797L298.716 126.424L298.057 128.189ZM302.129 131.041L304.365 125.048L306.029 125.669L303.793 131.662L302.129 131.041Z" fill="#151515"/>
<rect x="166.47" y="171.366" width="235.974" height="50.5602" rx="21.0486" transform="rotate(-13.5868 166.47 171.366)" fill="#B2FDB0"/>
<path d="M200.453 194.7L198.2 185.374L203.151 184.178C204.026 183.966 204.772 184.014 205.39 184.322C206.016 184.615 206.417 185.123 206.591 185.846C206.713 186.348 206.674 186.801 206.476 187.207C206.289 187.61 205.965 187.93 205.504 188.165L205.525 188.252C206.203 188.199 206.773 188.333 207.233 188.654C207.702 188.96 208.01 189.417 208.156 190.023C208.286 190.56 208.253 191.062 208.057 191.529C207.862 191.996 207.534 192.402 207.074 192.748C206.615 193.094 206.041 193.35 205.352 193.516L200.453 194.7ZM202.636 192.469L204.264 192.075C204.765 191.954 205.119 191.758 205.325 191.486C205.539 191.199 205.6 190.863 205.507 190.478C205.414 190.094 205.208 189.829 204.889 189.683C204.582 189.535 204.177 189.522 203.676 189.643L202.049 190.037L202.636 192.469ZM201.693 188.567L203.163 188.212C203.583 188.11 203.875 187.941 204.04 187.703C204.214 187.452 204.26 187.157 204.178 186.818C204.096 186.48 203.921 186.238 203.651 186.094C203.379 185.937 203.039 185.909 202.63 186.007L201.161 186.362L201.693 188.567ZM211.534 195.726L208.434 182.901L210.884 182.309L211.231 183.743L211.318 183.722C211.391 183.359 211.537 183.021 211.758 182.709C211.979 182.396 212.253 182.126 212.581 181.899C212.92 181.668 213.306 181.501 213.737 181.397C214.519 181.208 215.249 181.241 215.928 181.497C216.619 181.75 217.216 182.204 217.721 182.86C218.234 183.502 218.611 184.324 218.854 185.327C219.093 186.318 219.133 187.222 218.972 188.039C218.82 188.841 218.501 189.511 218.014 190.048C217.526 190.586 216.898 190.948 216.128 191.134C215.708 191.235 215.3 191.26 214.905 191.207C214.521 191.152 214.165 191.034 213.838 190.854C213.522 190.671 213.25 190.44 213.023 190.162L212.935 190.183L214.123 195.1L211.534 195.726ZM214.819 189.395C215.262 189.288 215.607 189.081 215.854 188.774C216.098 188.456 216.249 188.061 216.308 187.59C216.376 187.105 216.338 186.565 216.194 185.97C216.048 185.363 215.835 184.865 215.556 184.476C215.285 184.072 214.97 183.79 214.611 183.63C214.248 183.459 213.845 183.426 213.402 183.534C212.97 183.638 212.627 183.85 212.371 184.172C212.112 184.481 211.949 184.878 211.881 185.364C211.822 185.835 211.866 186.374 212.013 186.98C212.154 187.564 212.359 188.057 212.63 188.461C212.912 188.862 213.24 189.147 213.614 189.315C213.986 189.473 214.387 189.499 214.819 189.395ZM226.285 188.679C225.317 188.913 224.428 188.912 223.617 188.676C222.804 188.428 222.115 187.977 221.55 187.323C220.982 186.658 220.579 185.836 220.342 184.856C220.114 183.911 220.112 183.035 220.337 182.228C220.57 181.406 220.989 180.712 221.593 180.146C222.194 179.569 222.938 179.173 223.825 178.959C224.734 178.739 225.567 178.735 226.322 178.948C227.074 179.149 227.707 179.545 228.22 180.137C228.746 180.726 229.119 181.482 229.342 182.403C229.382 182.567 229.418 182.743 229.451 182.932C229.482 183.11 229.5 183.26 229.505 183.382L221.754 185.256L221.369 183.664L227.37 182.213L226.774 182.58C226.658 182.052 226.477 181.633 226.229 181.322C225.993 181.009 225.708 180.8 225.374 180.696C225.037 180.58 224.653 180.574 224.221 180.678C223.813 180.777 223.473 180.951 223.2 181.203C222.928 181.454 222.749 181.787 222.664 182.202C222.576 182.606 222.602 183.094 222.74 183.666L223.002 184.75C223.177 185.474 223.52 186.026 224.032 186.409C224.545 186.791 225.191 186.888 225.973 186.699C226.393 186.597 226.768 186.414 227.099 186.149C227.427 185.872 227.666 185.506 227.815 185.05L229.949 185.757C229.814 186.221 229.59 186.646 229.275 187.03C228.958 187.403 228.549 187.731 228.049 188.012C227.55 188.293 226.961 188.516 226.285 188.679ZM232.405 186.978L230.151 177.652L234.385 176.629L237.861 183.807L237.948 183.786L237.762 175.813L241.996 174.79L244.25 184.115L241.783 184.711L239.914 176.978L239.826 176.999L239.876 185.172L236.796 185.916L233.108 178.623L233.02 178.644L234.889 186.377L232.405 186.978ZM252.095 182.219L251.194 178.492L249.742 178.843L249.713 179.184L249.101 179.332C248.413 179.498 247.776 179.547 247.192 179.478C246.616 179.395 246.126 179.18 245.721 178.834C245.326 178.472 245.049 177.965 244.891 177.312C244.73 176.647 244.742 176.058 244.926 175.544C245.108 175.019 245.433 174.576 245.902 174.216C246.382 173.853 246.978 173.586 247.689 173.414L252.431 172.268L254.685 181.593L252.095 182.219ZM246.059 183.678L248.755 178.36L251.633 177.701L249.173 182.925L246.059 183.678ZM249.298 177.617L250.89 177.233L250.273 174.678L248.68 175.063C248.191 175.181 247.851 175.387 247.663 175.679C247.471 175.96 247.424 176.299 247.519 176.695C247.612 177.08 247.81 177.36 248.111 177.534C248.412 177.708 248.808 177.736 249.298 177.617ZM261.588 179.925L259.334 170.599L261.871 169.986L263.516 176.792L263.603 176.771L264.898 169.255L268.397 168.409L270.651 177.734L268.132 178.343L266.491 171.555L266.403 171.576L265.157 179.062L261.588 179.925ZM283.757 174.567L279.652 170.3L281.381 165.271L284.285 164.569L281.846 170.492L281.085 168.416L286.661 173.865L283.757 174.567ZM277.581 176.06L275.327 166.734L277.916 166.108L280.17 175.434L277.581 176.06ZM277.748 172.001L277.198 169.726L280.732 168.872L281.282 171.147L277.748 172.001ZM290.713 173.108C289.78 173.334 288.973 173.263 288.292 172.897C287.611 172.531 287.171 171.939 286.974 171.123C286.785 170.341 286.898 169.635 287.314 169.004C287.726 168.361 288.496 167.817 289.623 167.372L292.641 166.142L292.992 167.594L290.639 168.589C290.146 168.795 289.792 169.041 289.577 169.327C289.371 169.599 289.318 169.939 289.416 170.347C289.501 170.697 289.686 170.955 289.973 171.12C290.269 171.271 290.633 171.294 291.064 171.19C291.437 171.1 291.738 170.94 291.967 170.712C292.193 170.473 292.345 170.183 292.424 169.843C292.499 169.491 292.485 169.1 292.381 168.668L291.738 166.009C291.631 165.565 291.424 165.245 291.117 165.048C290.81 164.85 290.411 164.811 289.921 164.929C289.502 165.031 289.181 165.213 288.961 165.476C288.752 165.736 288.639 166.085 288.621 166.521L286.162 166.615C286.196 165.731 286.52 164.98 287.136 164.362C287.764 163.741 288.579 163.309 289.582 163.067C290.912 162.745 291.968 162.823 292.75 163.301C293.541 163.764 294.066 164.532 294.326 165.605L295.366 169.91L296.454 171.498L293.812 172.137L293.096 171.014L292.991 171.039C292.844 171.556 292.574 171.998 292.181 172.364C291.797 172.716 291.308 172.964 290.713 173.108ZM304.431 169.57L300.326 165.303L302.055 160.274L304.959 159.573L302.52 165.495L301.759 163.42L307.336 168.868L304.431 169.57ZM298.255 171.063L296.001 161.738L298.591 161.112L300.844 170.437L298.255 171.063ZM298.422 167.004L297.872 164.73L301.407 163.876L301.956 166.15L298.422 167.004ZM319.321 165.972L317.067 156.646L319.657 156.02L321.911 165.346L319.321 165.972ZM313.53 167.371L311.276 158.046L313.866 157.42L316.119 166.746L313.53 167.371ZM313.507 159.766L312.991 157.631L317.942 156.435L318.458 158.569L313.507 159.766ZM325.191 168.257L322.092 155.432L324.541 154.84L324.888 156.275L324.975 156.254C325.048 155.89 325.195 155.552 325.416 155.24C325.636 154.927 325.911 154.657 326.238 154.43C326.578 154.2 326.963 154.032 327.395 153.928C328.176 153.739 328.907 153.773 329.586 154.028C330.276 154.281 330.874 154.735 331.378 155.391C331.891 156.033 332.269 156.855 332.511 157.858C332.751 158.85 332.79 159.754 332.63 160.57C332.478 161.372 332.158 162.042 331.671 162.58C331.184 163.117 330.555 163.479 329.785 163.665C329.365 163.767 328.958 163.791 328.562 163.738C328.178 163.683 327.823 163.565 327.495 163.385C327.18 163.202 326.908 162.972 326.68 162.693L326.593 162.714L327.781 167.631L325.191 168.257ZM328.476 161.926C328.919 161.819 329.264 161.612 329.511 161.305C329.755 160.987 329.907 160.592 329.966 160.121C330.034 159.636 329.996 159.096 329.852 158.501C329.705 157.894 329.492 157.396 329.213 157.007C328.943 156.603 328.628 156.321 328.268 156.161C327.906 155.99 327.503 155.958 327.059 156.065C326.628 156.169 326.284 156.382 326.028 156.703C325.77 157.012 325.607 157.41 325.539 157.895C325.48 158.366 325.524 158.905 325.67 159.511C325.811 160.095 326.017 160.588 326.287 160.992C326.569 161.393 326.898 161.678 327.272 161.847C327.643 162.004 328.044 162.03 328.476 161.926ZM340.012 161.193C339.044 161.427 338.149 161.428 337.327 161.194C336.505 160.961 335.807 160.524 335.233 159.885C334.659 159.246 334.256 158.449 334.025 157.492C333.788 156.512 333.781 155.613 334.003 154.794C334.225 153.975 334.648 153.274 335.272 152.691C335.894 152.096 336.689 151.682 337.657 151.448C338.625 151.214 339.52 151.214 340.342 151.447C341.164 151.681 341.862 152.117 342.436 152.756C343.007 153.383 343.411 154.187 343.648 155.167C343.882 156.135 343.89 157.034 343.671 157.865C343.449 158.684 343.026 159.385 342.401 159.968C341.777 160.551 340.98 160.959 340.012 161.193ZM339.543 159.251C339.974 159.147 340.322 158.952 340.587 158.666C340.862 158.377 341.036 157.995 341.106 157.522C341.186 157.033 341.147 156.462 340.989 155.809C340.825 155.133 340.598 154.601 340.307 154.215C340.028 153.825 339.7 153.565 339.322 153.434C338.957 153.3 338.558 153.286 338.126 153.39C337.695 153.494 337.341 153.691 337.065 153.98C336.801 154.266 336.628 154.647 336.545 155.124C336.475 155.598 336.521 156.173 336.685 156.849C336.845 157.514 337.065 158.041 337.345 158.431C337.636 158.817 337.964 159.077 338.33 159.211C338.707 159.342 339.111 159.356 339.543 159.251ZM346.711 159.352L344.458 150.027L346.995 149.413L348.639 156.219L348.727 156.198L350.021 148.682L353.521 147.836L355.774 157.162L353.255 157.771L351.614 150.982L351.527 151.003L350.281 158.489L346.711 159.352ZM348.714 147.794C347.7 148.039 346.856 147.972 346.184 147.591C345.52 147.196 345.074 146.526 344.846 145.581L346.718 145.128C346.831 145.595 347.026 145.943 347.304 146.172C347.593 146.398 347.948 146.461 348.368 146.359C348.787 146.258 349.069 146.042 349.211 145.711C349.365 145.378 349.385 144.978 349.273 144.511L351.145 144.059C351.373 145.003 351.277 145.805 350.855 146.462C350.443 147.105 349.729 147.549 348.714 147.794ZM360.205 156.091L358.07 147.255L360.659 146.629L362.794 155.465L360.205 156.091ZM355.65 149.581L355.134 147.446L363.34 145.463L363.856 147.598L355.65 149.581ZM367.181 154.405L364.927 145.08L367.464 144.466L369.109 151.272L369.196 151.251L370.491 143.735L373.99 142.889L376.244 152.215L373.724 152.824L372.084 146.035L371.996 146.056L370.75 153.542L367.181 154.405Z" fill="#151515"/>
<rect x="58.6484" y="151.969" width="130.088" height="42.0973" rx="21.0486" transform="rotate(8.82779 58.6484 151.969)" fill="#FBDDC3"/>
<path d="M78.3885 180.429C78.7222 180.157 79.0012 179.855 79.2255 179.523C79.462 179.182 79.6645 178.781 79.833 178.322C80.0032 177.852 80.1426 177.301 80.2514 176.67L80.8019 173.647L87.4581 174.681L86.3728 181.669L84.1435 181.323L84.9317 176.248L81.3585 175.693L82.726 174.707L82.2896 177.1C82.1759 177.763 82.0348 178.324 81.8663 178.783C81.7083 179.244 81.5293 179.632 81.3294 179.947C81.14 180.263 80.9238 180.542 80.681 180.785L78.3885 180.429ZM79.325 183.991L77.1273 183.65L77.7215 179.823L80.1563 180.202L79.8568 182.13L79.6196 182.094L79.325 183.991ZM79.003 181.998L79.3026 180.069L85.9746 181.105L85.675 183.034L79.003 181.998ZM84.9377 184.862L85.2323 182.965L84.9794 182.926L85.2789 180.997L87.7296 181.378L87.1353 185.204L84.9377 184.862ZM92.7726 184.331C91.8978 184.195 91.1623 183.892 90.566 183.421C89.9698 182.951 89.5441 182.356 89.2889 181.636C89.0336 180.916 88.9731 180.124 89.1074 179.26C89.2449 178.375 89.5435 177.633 90.0034 177.035C90.4633 176.437 91.0486 176.005 91.7594 175.737C92.4718 175.459 93.2655 175.388 94.1403 175.524C95.0152 175.66 95.7507 175.963 96.3469 176.434C96.9431 176.904 97.3688 177.499 97.6241 178.219C97.8809 178.928 97.9406 179.725 97.8031 180.611C97.6672 181.485 97.3686 182.227 96.9071 182.835C96.4472 183.433 95.8619 183.866 95.1511 184.133C94.4403 184.401 93.6475 184.466 92.7726 184.331ZM93.0452 182.576C93.4352 182.636 93.7872 182.594 94.1012 182.448C94.4258 182.304 94.6975 182.05 94.9161 181.684C95.147 181.31 95.3083 180.828 95.3999 180.237C95.4949 179.626 95.4883 179.112 95.3802 178.696C95.2827 178.281 95.1011 177.956 94.8354 177.721C94.5803 177.487 94.2577 177.34 93.8678 177.279C93.4778 177.219 93.1205 177.26 92.7959 177.404C92.4818 177.55 92.2102 177.804 91.981 178.168C91.7623 178.534 91.6055 179.022 91.5106 179.633C91.4172 180.234 91.4194 180.742 91.5169 181.156C91.625 181.572 91.8066 181.898 92.0617 182.131C92.3274 182.367 92.6552 182.515 93.0452 182.576ZM98.9016 185.088L100.21 176.661L104.036 177.255L104.459 184.332L104.539 184.344L107.088 177.729L110.914 178.324L109.605 186.75L107.376 186.404L108.461 179.416L108.382 179.404L105.653 186.137L102.87 185.704L102.311 178.461L102.232 178.449L101.147 185.437L98.9016 185.088ZM115.87 187.723L117.179 179.296L119.471 179.652L118.516 185.803L118.595 185.815L122.207 180.077L125.369 180.568L124.06 188.995L121.783 188.642L122.736 182.507L122.657 182.495L119.095 188.224L115.87 187.723ZM134.324 190.784C133.418 190.643 132.677 190.301 132.103 189.759C131.539 189.218 131.147 188.509 130.927 187.633C130.718 186.759 130.701 185.752 130.878 184.614C131.034 183.612 131.258 182.757 131.552 182.047C131.847 181.326 132.223 180.748 132.68 180.311C133.136 179.875 133.686 179.566 134.329 179.386C134.973 179.205 135.722 179.143 136.576 179.2L139.701 179.41L139.561 181.461L136.533 181.25C135.968 181.205 135.484 181.227 135.082 181.316C134.681 181.394 134.346 181.536 134.077 181.743C133.807 181.949 133.585 182.233 133.41 182.594C133.247 182.947 133.106 183.373 132.985 183.872L133.061 183.9C133.305 183.582 133.593 183.325 133.926 183.128C134.261 182.921 134.622 182.783 135.011 182.713C135.411 182.635 135.823 182.629 136.244 182.695C136.971 182.808 137.583 183.075 138.079 183.498C138.576 183.909 138.926 184.433 139.13 185.07C139.333 185.706 139.374 186.414 139.253 187.194C139.124 188.026 138.825 188.736 138.356 189.321C137.9 189.898 137.321 190.321 136.621 190.59C135.922 190.848 135.157 190.913 134.324 190.784ZM134.619 188.886C135.209 188.978 135.704 188.85 136.103 188.502C136.515 188.145 136.773 187.629 136.878 186.954C136.984 186.269 136.9 185.7 136.625 185.247C136.351 184.784 135.92 184.506 135.329 184.415C134.939 184.354 134.583 184.39 134.26 184.524C133.948 184.659 133.686 184.883 133.476 185.195C133.276 185.51 133.14 185.899 133.068 186.363C132.963 187.037 133.047 187.606 133.321 188.07C133.596 188.523 134.028 188.795 134.619 188.886ZM140.373 191.529L141.682 183.102L144.022 183.465L143.609 186.121L145.522 186.419C146.471 186.566 147.202 186.933 147.715 187.52C148.239 188.109 148.428 188.872 148.283 189.81C148.139 190.738 147.728 191.403 147.05 191.805C146.383 192.209 145.575 192.337 144.626 192.189L140.373 191.529ZM142.968 190.248L144.376 190.467C144.818 190.535 145.168 190.476 145.423 190.289C145.681 190.092 145.838 189.808 145.895 189.44C145.954 189.06 145.89 188.743 145.703 188.487C145.518 188.221 145.204 188.053 144.761 187.984L143.354 187.766L142.968 190.248ZM149.053 192.877L150.362 184.45L152.702 184.813L151.393 193.24L149.053 192.877ZM155.377 193.859L156.617 185.875L158.957 186.238L157.717 194.222L155.377 193.859ZM153.84 186.966L154.14 185.037L161.555 186.188L161.256 188.117L153.84 186.966Z" fill="#151515"/>
</svg>
