<svg width="864" height="95" viewBox="0 0 864 95" fill="none" xmlns="http://www.w3.org/2000/svg">
<rect x="30.291" width="205.162" height="42.0973" rx="21.0486" fill="#DAEAFF"/>
<path d="M59.2649 26.5488V18.0208H63.7929C64.5929 18.0208 65.2276 18.2182 65.6969 18.6128C66.1769 18.9968 66.4169 19.5195 66.4169 20.1808C66.4169 20.6395 66.2889 21.0235 66.0329 21.3328C65.7876 21.6422 65.4409 21.8502 64.9929 21.9568V22.0368C65.5902 22.1328 66.0542 22.3675 66.3849 22.7408C66.7262 23.1035 66.8969 23.5622 66.8969 24.1168C66.8969 24.6075 66.7636 25.0342 66.4969 25.3968C66.2302 25.7595 65.8622 26.0422 65.3929 26.2448C64.9236 26.4475 64.3742 26.5488 63.7449 26.5488H59.2649ZM61.6169 25.0768H63.1049C63.5636 25.0768 63.9102 24.9808 64.1449 24.7888C64.3902 24.5862 64.5129 24.3088 64.5129 23.9568C64.5129 23.6048 64.3902 23.3328 64.1449 23.1408C63.9102 22.9488 63.5636 22.8528 63.1049 22.8528H61.6169V25.0768ZM61.6169 21.5088H62.9609C63.3449 21.5088 63.6329 21.4235 63.8249 21.2528C64.0276 21.0715 64.1289 20.8262 64.1289 20.5168C64.1289 20.2075 64.0276 19.9622 63.8249 19.7808C63.6222 19.5888 63.3342 19.4928 62.9609 19.4928H61.6169V21.5088ZM72.5923 26.7408C71.7069 26.7408 70.9336 26.5542 70.2723 26.1808C69.6109 25.8075 69.0989 25.2848 68.7363 24.6128C68.3736 23.9408 68.1923 23.1675 68.1923 22.2928C68.1923 21.3968 68.3736 20.6182 68.7363 19.9568C69.0989 19.2955 69.6109 18.7782 70.2723 18.4048C70.9336 18.0208 71.7069 17.8288 72.5923 17.8288C73.4776 17.8288 74.2509 18.0155 74.9123 18.3888C75.5736 18.7622 76.0856 19.2848 76.4483 19.9568C76.8109 20.6182 76.9923 21.3968 76.9923 22.2928C76.9923 23.1782 76.8109 23.9568 76.4483 24.6288C76.0856 25.2902 75.5736 25.8075 74.9123 26.1808C74.2509 26.5542 73.4776 26.7408 72.5923 26.7408ZM72.5923 24.9648C72.9869 24.9648 73.3283 24.8688 73.6163 24.6768C73.9149 24.4848 74.1443 24.1915 74.3043 23.7968C74.4749 23.3915 74.5603 22.8902 74.5603 22.2928C74.5603 21.6742 74.4749 21.1675 74.3043 20.7728C74.1443 20.3782 73.9149 20.0848 73.6163 19.8928C73.3283 19.7008 72.9869 19.6048 72.5923 19.6048C72.1976 19.6048 71.8509 19.7008 71.5523 19.8928C71.2643 20.0848 71.0349 20.3782 70.8643 20.7728C70.7043 21.1675 70.6243 21.6742 70.6243 22.2928C70.6243 22.9008 70.7043 23.4022 70.8643 23.7968C71.0349 24.1915 71.2643 24.4848 71.5523 24.6768C71.8509 24.8688 72.1976 24.9648 72.5923 24.9648ZM84.0609 26.5488V18.0208H86.4289V26.5488H84.0609ZM78.7649 26.5488V18.0208H81.1329V26.5488H78.7649ZM80.3329 19.9728V18.0208H84.8609V19.9728H80.3329ZM88.6555 29.7488V18.0208H90.8955V19.3328H90.9755C91.1142 19.0342 91.3115 18.7728 91.5675 18.5488C91.8235 18.3248 92.1168 18.1488 92.4475 18.0208C92.7888 17.8928 93.1568 17.8288 93.5515 17.8288C94.2662 17.8288 94.8902 18.0102 95.4235 18.3728C95.9675 18.7355 96.3888 19.2528 96.6875 19.9248C96.9968 20.5862 97.1515 21.3755 97.1515 22.2928C97.1515 23.1995 96.9968 23.9888 96.6875 24.6608C96.3888 25.3222 95.9728 25.8342 95.4395 26.1968C94.9062 26.5595 94.2875 26.7408 93.5835 26.7408C93.1995 26.7408 92.8422 26.6768 92.5115 26.5488C92.1915 26.4208 91.9088 26.2448 91.6635 26.0208C91.4288 25.7968 91.2422 25.5408 91.1035 25.2528H91.0235V29.7488H88.6555ZM92.8155 24.9648C93.2208 24.9648 93.5622 24.8582 93.8395 24.6448C94.1168 24.4208 94.3302 24.1115 94.4795 23.7168C94.6395 23.3115 94.7195 22.8368 94.7195 22.2928C94.7195 21.7382 94.6395 21.2635 94.4795 20.8688C94.3302 20.4635 94.1168 20.1542 93.8395 19.9408C93.5622 19.7168 93.2208 19.6048 92.8155 19.6048C92.4208 19.6048 92.0795 19.7168 91.7915 19.9408C91.5035 20.1542 91.2795 20.4635 91.1195 20.8688C90.9702 21.2635 90.8955 21.7382 90.8955 22.2928C90.8955 22.8262 90.9702 23.2955 91.1195 23.7008C91.2795 24.1062 91.5035 24.4208 91.7915 24.6448C92.0795 24.8582 92.4208 24.9648 92.8155 24.9648ZM102.936 26.7408C102.051 26.7408 101.277 26.5542 100.616 26.1808C99.9547 25.8075 99.4427 25.2848 99.08 24.6128C98.7173 23.9408 98.536 23.1675 98.536 22.2928C98.536 21.3968 98.7173 20.6182 99.08 19.9568C99.4427 19.2955 99.9547 18.7782 100.616 18.4048C101.277 18.0208 102.051 17.8288 102.936 17.8288C103.821 17.8288 104.595 18.0155 105.256 18.3888C105.917 18.7622 106.429 19.2848 106.792 19.9568C107.155 20.6182 107.336 21.3968 107.336 22.2928C107.336 23.1782 107.155 23.9568 106.792 24.6288C106.429 25.2902 105.917 25.8075 105.256 26.1808C104.595 26.5542 103.821 26.7408 102.936 26.7408ZM102.936 24.9648C103.331 24.9648 103.672 24.8688 103.96 24.6768C104.259 24.4848 104.488 24.1915 104.648 23.7968C104.819 23.3915 104.904 22.8902 104.904 22.2928C104.904 21.6742 104.819 21.1675 104.648 20.7728C104.488 20.3782 104.259 20.0848 103.96 19.8928C103.672 19.7008 103.331 19.6048 102.936 19.6048C102.541 19.6048 102.195 19.7008 101.896 19.8928C101.608 20.0848 101.379 20.3782 101.208 20.7728C101.048 21.1675 100.968 21.6742 100.968 22.2928C100.968 22.9008 101.048 23.4022 101.208 23.7968C101.379 24.1915 101.608 24.4848 101.896 24.6768C102.195 24.8688 102.541 24.9648 102.936 24.9648ZM112.932 26.7408C112.111 26.7408 111.38 26.5595 110.74 26.1968C110.111 25.8235 109.615 25.3062 109.252 24.6448C108.889 23.9728 108.708 23.1835 108.708 22.2768C108.708 21.3702 108.889 20.5862 109.252 19.9248C109.615 19.2528 110.111 18.7355 110.74 18.3728C111.38 18.0102 112.105 17.8288 112.916 17.8288C113.887 17.8288 114.687 18.0315 115.316 18.4368C115.956 18.8315 116.409 19.4288 116.676 20.2288L114.612 20.9008C114.463 20.4528 114.249 20.1275 113.972 19.9248C113.695 19.7115 113.353 19.6048 112.948 19.6048C112.596 19.6048 112.281 19.7062 112.004 19.9088C111.727 20.1008 111.503 20.3995 111.332 20.8048C111.172 21.1995 111.092 21.6902 111.092 22.2768C111.092 22.8635 111.172 23.3595 111.332 23.7648C111.503 24.1702 111.727 24.4742 112.004 24.6768C112.292 24.8688 112.612 24.9648 112.964 24.9648C113.369 24.9648 113.711 24.8582 113.988 24.6448C114.276 24.4208 114.495 24.0795 114.644 23.6208L116.692 24.2928C116.425 25.0928 115.977 25.7008 115.348 26.1168C114.719 26.5328 113.913 26.7408 112.932 26.7408ZM118.156 26.5488V18.0208H120.524V20.7088H122.46C123.42 20.7088 124.198 20.9595 124.796 21.4608C125.404 21.9622 125.708 22.6875 125.708 23.6368C125.708 24.5755 125.404 25.2955 124.796 25.7968C124.198 26.2982 123.42 26.5488 122.46 26.5488H118.156ZM120.524 24.8848H121.948C122.396 24.8848 122.732 24.7728 122.956 24.5488C123.18 24.3142 123.292 24.0102 123.292 23.6368C123.292 23.2528 123.18 22.9488 122.956 22.7248C122.732 22.4902 122.396 22.3728 121.948 22.3728H120.524V24.8848ZM126.94 26.5488V18.0208H129.308V26.5488H126.94ZM135.624 26.5488V18.0208H137.944V24.2448H138.024L140.712 18.0208H143.912V26.5488H141.608V20.3408H141.528L138.888 26.5488H135.624ZM154.217 26.7408C153.332 26.7408 152.559 26.5542 151.897 26.1808C151.236 25.8075 150.724 25.2848 150.361 24.6128C149.999 23.9408 149.817 23.1675 149.817 22.2928C149.817 21.3968 149.999 20.6182 150.361 19.9568C150.724 19.2955 151.236 18.7782 151.897 18.4048C152.559 18.0208 153.332 17.8288 154.217 17.8288C155.103 17.8288 155.876 18.0155 156.537 18.3888C157.199 18.7622 157.711 19.2848 158.073 19.9568C158.436 20.6182 158.617 21.3968 158.617 22.2928C158.617 23.1782 158.436 23.9568 158.073 24.6288C157.711 25.2902 157.199 25.8075 156.537 26.1808C155.876 26.5542 155.103 26.7408 154.217 26.7408ZM154.217 24.9648C154.612 24.9648 154.953 24.8688 155.241 24.6768C155.54 24.4848 155.769 24.1915 155.929 23.7968C156.1 23.3915 156.185 22.8902 156.185 22.2928C156.185 21.6742 156.1 21.1675 155.929 20.7728C155.769 20.3782 155.54 20.0848 155.241 19.8928C154.953 19.7008 154.612 19.6048 154.217 19.6048C153.823 19.6048 153.476 19.7008 153.177 19.8928C152.889 20.0848 152.66 20.3782 152.489 20.7728C152.329 21.1675 152.249 21.6742 152.249 22.2928C152.249 22.9008 152.329 23.4022 152.489 23.7968C152.66 24.1915 152.889 24.4848 153.177 24.6768C153.476 24.8688 153.823 24.9648 154.217 24.9648ZM161.933 26.5488V18.4688H164.301V26.5488H161.933ZM159.357 19.9728V18.0208H166.861V19.9728H159.357ZM168.312 26.5488V18.0208H172.84C173.64 18.0208 174.274 18.2182 174.744 18.6128C175.224 18.9968 175.464 19.5195 175.464 20.1808C175.464 20.6395 175.336 21.0235 175.08 21.3328C174.834 21.6422 174.488 21.8502 174.04 21.9568V22.0368C174.637 22.1328 175.101 22.3675 175.432 22.7408C175.773 23.1035 175.944 23.5622 175.944 24.1168C175.944 24.6075 175.81 25.0342 175.544 25.3968C175.277 25.7595 174.909 26.0422 174.44 26.2448C173.97 26.4475 173.421 26.5488 172.792 26.5488H168.312ZM170.664 25.0768H172.152C172.61 25.0768 172.957 24.9808 173.192 24.7888C173.437 24.5862 173.56 24.3088 173.56 23.9568C173.56 23.6048 173.437 23.3328 173.192 23.1408C172.957 22.9488 172.61 22.8528 172.152 22.8528H170.664V25.0768ZM170.664 21.5088H172.008C172.392 21.5088 172.68 21.4235 172.872 21.2528C173.074 21.0715 173.176 20.8262 173.176 20.5168C173.176 20.2075 173.074 19.9622 172.872 19.7808C172.669 19.5888 172.381 19.4928 172.008 19.4928H170.664V21.5088ZM181.575 26.7408C180.69 26.7408 179.922 26.5542 179.271 26.1808C178.62 25.7968 178.119 25.2635 177.767 24.5808C177.415 23.8875 177.239 23.0928 177.239 22.1968C177.239 21.3328 177.42 20.5755 177.783 19.9248C178.156 19.2635 178.663 18.7515 179.303 18.3888C179.943 18.0155 180.668 17.8288 181.479 17.8288C182.311 17.8288 183.031 17.9995 183.639 18.3408C184.247 18.6715 184.711 19.1462 185.031 19.7648C185.362 20.3835 185.527 21.1142 185.527 21.9568C185.527 22.1062 185.522 22.2662 185.511 22.4368C185.5 22.5968 185.484 22.7302 185.463 22.8368H178.375V21.3808H183.863L183.271 21.5728C183.282 21.0928 183.212 20.6928 183.063 20.3728C182.924 20.0528 182.722 19.8128 182.455 19.6528C182.188 19.4822 181.858 19.3968 181.463 19.3968C181.09 19.3968 180.759 19.4768 180.471 19.6368C180.183 19.7968 179.959 20.0475 179.799 20.3888C179.639 20.7195 179.559 21.1462 179.559 21.6688V22.6608C179.559 23.3222 179.74 23.8715 180.103 24.3088C180.466 24.7462 181.004 24.9648 181.719 24.9648C182.103 24.9648 182.466 24.8848 182.807 24.7248C183.148 24.5542 183.431 24.2875 183.655 23.9248L185.351 24.9808C185.138 25.3542 184.855 25.6742 184.503 25.9408C184.151 26.1968 183.73 26.3942 183.239 26.5328C182.748 26.6715 182.194 26.7408 181.575 26.7408ZM188.948 26.5488V18.4688H191.316V26.5488H188.948ZM186.372 19.9728V18.0208H193.876V19.9728H186.372ZM195.327 26.5488V18.0208H197.695V20.7088H199.631C200.591 20.7088 201.37 20.9595 201.967 21.4608C202.575 21.9622 202.879 22.6875 202.879 23.6368C202.879 24.5755 202.575 25.2955 201.967 25.7968C201.37 26.2982 200.591 26.5488 199.631 26.5488H195.327ZM197.695 24.8848H199.119C199.567 24.8848 199.903 24.7728 200.127 24.5488C200.351 24.3142 200.463 24.0102 200.463 23.6368C200.463 23.2528 200.351 22.9488 200.127 22.7248C199.903 22.4902 199.567 22.3728 199.119 22.3728H197.695V24.8848ZM204.111 26.5488V18.0208H206.479V26.5488H204.111Z" fill="#151515"/>
<rect y="52.0974" width="196.476" height="42.0973" rx="21.0486" fill="#B2FDB0"/>
<path d="M17.8498 78.6462V70.1182H22.3779C23.1778 70.1182 23.8125 70.3156 24.2818 70.7102C24.7619 71.0942 25.0019 71.6169 25.0019 72.2782C25.0019 72.7369 24.8739 73.1209 24.6178 73.4302C24.3725 73.7396 24.0258 73.9476 23.5778 74.0542V74.1342C24.1752 74.2302 24.6392 74.4649 24.9698 74.8382C25.3112 75.2009 25.4818 75.6596 25.4818 76.2142C25.4818 76.7049 25.3485 77.1316 25.0819 77.4942C24.8152 77.8569 24.4472 78.1396 23.9778 78.3422C23.5085 78.5449 22.9592 78.6462 22.3298 78.6462H17.8498ZM20.2018 77.1742H21.6898C22.1485 77.1742 22.4952 77.0782 22.7298 76.8862C22.9752 76.6836 23.0978 76.4062 23.0978 76.0542C23.0978 75.7022 22.9752 75.4302 22.7298 75.2382C22.4952 75.0462 22.1485 74.9502 21.6898 74.9502H20.2018V77.1742ZM20.2018 73.6062H21.5458C21.9298 73.6062 22.2178 73.5209 22.4098 73.3502C22.6125 73.1689 22.7139 72.9236 22.7139 72.6142C22.7139 72.3049 22.6125 72.0596 22.4098 71.8782C22.2072 71.6862 21.9192 71.5902 21.5458 71.5902H20.2018V73.6062ZM27.2092 81.8462V70.1182H29.4492V71.4302H29.5292C29.6679 71.1316 29.8652 70.8702 30.1212 70.6462C30.3772 70.4222 30.6706 70.2462 31.0012 70.1182C31.3426 69.9902 31.7106 69.9262 32.1052 69.9262C32.8199 69.9262 33.4439 70.1076 33.9772 70.4702C34.5212 70.8329 34.9426 71.3502 35.2412 72.0222C35.5506 72.6836 35.7052 73.4729 35.7052 74.3902C35.7052 75.2969 35.5506 76.0862 35.2412 76.7582C34.9426 77.4196 34.5266 77.9316 33.9932 78.2942C33.4599 78.6569 32.8412 78.8382 32.1372 78.8382C31.7532 78.8382 31.3959 78.7742 31.0652 78.6462C30.7452 78.5182 30.4626 78.3422 30.2172 78.1182C29.9826 77.8942 29.7959 77.6382 29.6572 77.3502H29.5772V81.8462H27.2092ZM31.3692 77.0622C31.7746 77.0622 32.1159 76.9556 32.3932 76.7422C32.6706 76.5182 32.8839 76.2089 33.0332 75.8142C33.1932 75.4089 33.2732 74.9342 33.2732 74.3902C33.2732 73.8356 33.1932 73.3609 33.0332 72.9662C32.8839 72.5609 32.6706 72.2516 32.3932 72.0382C32.1159 71.8142 31.7746 71.7022 31.3692 71.7022C30.9746 71.7022 30.6332 71.8142 30.3452 72.0382C30.0572 72.2516 29.8332 72.5609 29.6732 72.9662C29.5239 73.3609 29.4492 73.8356 29.4492 74.3902C29.4492 74.9236 29.5239 75.3929 29.6732 75.7982C29.8332 76.2036 30.0572 76.5182 30.3452 76.7422C30.6332 76.9556 30.9746 77.0622 31.3692 77.0622ZM41.4257 78.8382C40.5404 78.8382 39.7724 78.6516 39.1217 78.2782C38.4711 77.8942 37.9697 77.3609 37.6177 76.6782C37.2657 75.9849 37.0897 75.1902 37.0897 74.2942C37.0897 73.4302 37.2711 72.6729 37.6337 72.0222C38.0071 71.3609 38.5137 70.8489 39.1537 70.4862C39.7937 70.1129 40.5191 69.9262 41.3297 69.9262C42.1617 69.9262 42.8817 70.0969 43.4897 70.4382C44.0977 70.7689 44.5617 71.2436 44.8817 71.8622C45.2124 72.4809 45.3777 73.2116 45.3777 74.0542C45.3777 74.2036 45.3724 74.3636 45.3617 74.5342C45.3511 74.6942 45.3351 74.8276 45.3137 74.9342H38.2257V73.4782H43.7137L43.1217 73.6702C43.1324 73.1902 43.0631 72.7902 42.9137 72.4702C42.7751 72.1502 42.5724 71.9102 42.3057 71.7502C42.0391 71.5796 41.7084 71.4942 41.3137 71.4942C40.9404 71.4942 40.6097 71.5742 40.3217 71.7342C40.0337 71.8942 39.8097 72.1449 39.6497 72.4862C39.4897 72.8169 39.4097 73.2436 39.4097 73.7662V74.7582C39.4097 75.4196 39.5911 75.9689 39.9537 76.4062C40.3164 76.8436 40.8551 77.0622 41.5697 77.0622C41.9537 77.0622 42.3164 76.9822 42.6577 76.8222C42.9991 76.6516 43.2817 76.3849 43.5057 76.0222L45.2017 77.0782C44.9884 77.4516 44.7057 77.7716 44.3537 78.0382C44.0017 78.2942 43.5804 78.4916 43.0897 78.6302C42.5991 78.7689 42.0444 78.8382 41.4257 78.8382ZM47.0686 78.6462V70.1182H50.9406L52.4446 77.0462H52.5246L54.0286 70.1182H57.9006V78.6462H55.6446V71.5742H55.5646L53.9006 78.6462H51.0846L49.4206 71.5742H49.3406V78.6462H47.0686ZM65.0751 78.6462V75.2382H63.7471L63.6511 75.5262H63.0911C62.4618 75.5262 61.9018 75.4356 61.4111 75.2542C60.9311 75.0622 60.5524 74.7742 60.2751 74.3902C60.0084 73.9956 59.8751 73.4996 59.8751 72.9022C59.8751 72.2942 60.0084 71.7876 60.2751 71.3822C60.5418 70.9662 60.9151 70.6516 61.3951 70.4382C61.8858 70.2249 62.4564 70.1182 63.1071 70.1182H67.4431V78.6462H65.0751ZM59.5551 78.6462L62.9951 74.6142L65.6191 74.6462L62.4031 78.6462H59.5551ZM63.6191 74.0862H65.0751V71.7502H63.6191C63.1711 71.7502 62.8351 71.8569 62.6111 72.0702C62.3871 72.2729 62.2751 72.5556 62.2751 72.9182C62.2751 73.2702 62.3871 73.5529 62.6111 73.7662C62.8351 73.9796 63.1711 74.0862 63.6191 74.0862ZM73.7561 78.6462V70.1182H76.0761V76.3422H76.1561L78.8441 70.1182H82.0441V78.6462H79.7401V72.4382H79.6601L77.0201 78.6462H73.7561ZM94.0291 78.6462L91.3731 74.1022L93.9171 70.1182H96.5731L93.2291 74.7262L93.0051 72.7742L96.6851 78.6462H94.0291ZM88.3811 78.6462V70.1182H90.7491V78.6462H88.3811ZM89.3731 75.1742V73.0942H92.6051V75.1742H89.3731ZM100.344 78.8382C99.4906 78.8382 98.808 78.6089 98.296 78.1502C97.784 77.6916 97.528 77.0889 97.528 76.3422C97.528 75.6276 97.7733 75.0409 98.264 74.5822C98.7546 74.1129 99.5333 73.8036 100.6 73.6542L103.464 73.2222V74.5502L101.224 74.9182C100.755 74.9929 100.397 75.1316 100.152 75.3342C99.9173 75.5262 99.8 75.8089 99.8 76.1822C99.8 76.5022 99.9066 76.7636 100.12 76.9662C100.344 77.1582 100.653 77.2542 101.048 77.2542C101.389 77.2542 101.683 77.1796 101.928 77.0302C102.173 76.8702 102.365 76.6516 102.504 76.3742C102.643 76.0862 102.712 75.7449 102.712 75.3502V72.9182C102.712 72.5129 102.6 72.1929 102.376 71.9582C102.152 71.7236 101.816 71.6062 101.368 71.6062C100.984 71.6062 100.669 71.6969 100.424 71.8782C100.189 72.0596 100.019 72.3369 99.912 72.7102L97.768 72.2782C97.9813 71.5209 98.4186 70.9396 99.08 70.5342C99.752 70.1289 100.547 69.9262 101.464 69.9262C102.68 69.9262 103.576 70.2142 104.152 70.7902C104.739 71.3556 105.032 72.1289 105.032 73.1102V77.0462L105.64 78.6462H103.224L102.84 77.5262H102.744C102.509 77.9422 102.184 78.2676 101.768 78.5022C101.363 78.7262 100.888 78.8382 100.344 78.8382ZM112.935 78.6462L110.279 74.1022L112.823 70.1182H115.479L112.135 74.7262L111.911 72.7742L115.591 78.6462H112.935ZM107.287 78.6462V70.1182H109.655V78.6462H107.287ZM108.279 75.1742V73.0942H111.511V75.1742H108.279ZM126.552 78.6462V70.1182H128.92V78.6462H126.552ZM121.256 78.6462V70.1182H123.624V78.6462H121.256ZM122.824 72.0702V70.1182H127.352V72.0702H122.824ZM131.147 81.8462V70.1182H133.387V71.4302H133.467C133.605 71.1316 133.803 70.8702 134.059 70.6462C134.315 70.4222 134.608 70.2462 134.939 70.1182C135.28 69.9902 135.648 69.9262 136.043 69.9262C136.757 69.9262 137.381 70.1076 137.915 70.4702C138.459 70.8329 138.88 71.3502 139.179 72.0222C139.488 72.6836 139.643 73.4729 139.643 74.3902C139.643 75.2969 139.488 76.0862 139.179 76.7582C138.88 77.4196 138.464 77.9316 137.931 78.2942C137.397 78.6569 136.779 78.8382 136.075 78.8382C135.691 78.8382 135.333 78.7742 135.003 78.6462C134.683 78.5182 134.4 78.3422 134.155 78.1182C133.92 77.8942 133.733 77.6382 133.595 77.3502H133.515V81.8462H131.147ZM135.307 77.0622C135.712 77.0622 136.053 76.9556 136.331 76.7422C136.608 76.5182 136.821 76.2089 136.971 75.8142C137.131 75.4089 137.211 74.9342 137.211 74.3902C137.211 73.8356 137.131 73.3609 136.971 72.9662C136.821 72.5609 136.608 72.2516 136.331 72.0382C136.053 71.8142 135.712 71.7022 135.307 71.7022C134.912 71.7022 134.571 71.8142 134.283 72.0382C133.995 72.2516 133.771 72.5609 133.611 72.9662C133.461 73.3609 133.387 73.8356 133.387 74.3902C133.387 74.9236 133.461 75.3929 133.611 75.7982C133.771 76.2036 133.995 76.5182 134.283 76.7422C134.571 76.9556 134.912 77.0622 135.307 77.0622ZM145.427 78.8382C144.542 78.8382 143.769 78.6516 143.107 78.2782C142.446 77.9049 141.934 77.3822 141.571 76.7102C141.209 76.0382 141.027 75.2649 141.027 74.3902C141.027 73.4942 141.209 72.7156 141.571 72.0542C141.934 71.3929 142.446 70.8756 143.107 70.5022C143.769 70.1182 144.542 69.9262 145.427 69.9262C146.313 69.9262 147.086 70.1129 147.747 70.4862C148.409 70.8596 148.921 71.3822 149.283 72.0542C149.646 72.7156 149.827 73.4942 149.827 74.3902C149.827 75.2756 149.646 76.0542 149.283 76.7262C148.921 77.3876 148.409 77.9049 147.747 78.2782C147.086 78.6516 146.313 78.8382 145.427 78.8382ZM145.427 77.0622C145.822 77.0622 146.163 76.9662 146.451 76.7742C146.75 76.5822 146.979 76.2889 147.139 75.8942C147.31 75.4889 147.395 74.9876 147.395 74.3902C147.395 73.7716 147.31 73.2649 147.139 72.8702C146.979 72.4756 146.75 72.1822 146.451 71.9902C146.163 71.7982 145.822 71.7022 145.427 71.7022C145.033 71.7022 144.686 71.7982 144.387 71.9902C144.099 72.1822 143.87 72.4756 143.699 72.8702C143.539 73.2649 143.459 73.7716 143.459 74.3902C143.459 74.9982 143.539 75.4996 143.699 75.8942C143.87 76.2889 144.099 76.5822 144.387 76.7742C144.686 76.9662 145.033 77.0622 145.427 77.0622ZM151.6 78.6462V70.1182H153.92V76.3422H154L156.688 70.1182H159.888V78.6462H157.584V72.4382H157.504L154.864 78.6462H151.6ZM155.744 69.0782C154.816 69.0782 154.101 68.8436 153.6 68.3742C153.109 67.8942 152.864 67.2222 152.864 66.3582H154.576C154.576 66.7849 154.672 67.1262 154.864 67.3822C155.067 67.6382 155.36 67.7662 155.744 67.7662C156.128 67.7662 156.416 67.6382 156.608 67.3822C156.811 67.1262 156.912 66.7849 156.912 66.3582H158.624C158.624 67.2222 158.373 67.8942 157.872 68.3742C157.381 68.8436 156.672 69.0782 155.744 69.0782ZM163.939 78.6462V70.5662H166.307V78.6462H163.939ZM161.363 72.0702V70.1182H168.867V72.0702H161.363ZM170.319 78.6462V70.1182H172.639V76.3422H172.719L175.407 70.1182H178.607V78.6462H176.303V72.4382H176.223L173.583 78.6462H170.319Z" fill="#151515"/>
<rect x="206.852" y="52.0974" width="130.088" height="42.0973" rx="21.0486" fill="#FBDDC3"/>
<path d="M230.725 77.1902C231.013 76.8702 231.243 76.5289 231.413 76.1662C231.595 75.7929 231.733 75.3662 231.829 74.8862C231.925 74.3956 231.979 73.8302 231.989 73.1902L232.069 70.1182H238.805V77.1902H236.549V72.0542H232.933L234.133 70.8702L234.069 73.3022C234.059 73.9742 234.005 74.5502 233.909 75.0302C233.824 75.5102 233.707 75.9209 233.557 76.2622C233.419 76.6036 233.248 76.9129 233.045 77.1902H230.725ZM232.197 80.5662H229.973V76.6942H232.437V78.6462H232.197V80.5662ZM231.573 78.6462V76.6942H238.325V78.6462H231.573ZM237.877 80.5662V78.6462H237.621V76.6942H240.101V80.5662H237.877ZM245.538 78.8382C244.652 78.8382 243.879 78.6516 243.218 78.2782C242.556 77.9049 242.044 77.3822 241.682 76.7102C241.319 76.0382 241.138 75.2649 241.138 74.3902C241.138 73.4942 241.319 72.7156 241.682 72.0542C242.044 71.3929 242.556 70.8756 243.218 70.5022C243.879 70.1182 244.652 69.9262 245.538 69.9262C246.423 69.9262 247.196 70.1129 247.858 70.4862C248.519 70.8596 249.031 71.3822 249.394 72.0542C249.756 72.7156 249.938 73.4942 249.938 74.3902C249.938 75.2756 249.756 76.0542 249.394 76.7262C249.031 77.3876 248.519 77.9049 247.858 78.2782C247.196 78.6516 246.423 78.8382 245.538 78.8382ZM245.538 77.0622C245.932 77.0622 246.274 76.9662 246.562 76.7742C246.86 76.5822 247.09 76.2889 247.25 75.8942C247.42 75.4889 247.506 74.9876 247.506 74.3902C247.506 73.7716 247.42 73.2649 247.25 72.8702C247.09 72.4756 246.86 72.1822 246.562 71.9902C246.274 71.7982 245.932 71.7022 245.538 71.7022C245.143 71.7022 244.796 71.7982 244.498 71.9902C244.21 72.1822 243.98 72.4756 243.81 72.8702C243.65 73.2649 243.57 73.7716 243.57 74.3902C243.57 74.9982 243.65 75.4996 243.81 75.8942C243.98 76.2889 244.21 76.5822 244.498 76.7742C244.796 76.9662 245.143 77.0622 245.538 77.0622ZM251.71 78.6462V70.1182H255.582L257.086 77.0462H257.166L258.67 70.1182H262.542V78.6462H260.286V71.5742H260.206L258.542 78.6462H255.726L254.062 71.5742H253.982V78.6462H251.71ZM268.882 78.6462V70.1182H271.202V76.3422H271.282L273.97 70.1182H277.17V78.6462H274.866V72.4382H274.786L272.146 78.6462H268.882ZM287.587 78.8382C286.67 78.8382 285.886 78.6142 285.235 78.1662C284.595 77.7182 284.099 77.0782 283.747 76.2462C283.406 75.4142 283.235 74.4222 283.235 73.2702C283.235 72.2569 283.326 71.3769 283.507 70.6302C283.689 69.8729 283.971 69.2436 284.355 68.7422C284.739 68.2409 285.235 67.8516 285.843 67.5742C286.451 67.2969 287.182 67.1209 288.035 67.0462L291.155 66.7742L291.331 68.8222L288.307 69.0782C287.742 69.1209 287.267 69.2169 286.883 69.3662C286.499 69.5049 286.19 69.6969 285.955 69.9422C285.721 70.1876 285.545 70.5022 285.427 70.8862C285.321 71.2596 285.246 71.7022 285.203 72.2142L285.283 72.2302C285.475 71.8782 285.721 71.5796 286.019 71.3342C286.318 71.0782 286.654 70.8862 287.027 70.7582C287.411 70.6196 287.817 70.5502 288.243 70.5502C288.979 70.5502 289.625 70.7209 290.179 71.0622C290.734 71.3929 291.161 71.8569 291.459 72.4542C291.758 73.0516 291.907 73.7449 291.907 74.5342C291.907 75.3769 291.721 76.1236 291.347 76.7742C290.985 77.4142 290.478 77.9209 289.827 78.2942C289.177 78.6569 288.43 78.8382 287.587 78.8382ZM287.587 76.9182C288.185 76.9182 288.654 76.7156 288.995 76.3102C289.347 75.8942 289.523 75.3449 289.523 74.6622C289.523 73.9689 289.353 73.4196 289.011 73.0142C288.67 72.5982 288.201 72.3902 287.603 72.3902C287.209 72.3902 286.862 72.4809 286.563 72.6622C286.275 72.8436 286.051 73.1049 285.891 73.4462C285.742 73.7876 285.667 74.1929 285.667 74.6622C285.667 75.3449 285.838 75.8942 286.179 76.3102C286.521 76.7156 286.99 76.9182 287.587 76.9182ZM293.679 78.6462V70.1182H296.047V72.8062H297.983C298.943 72.8062 299.722 73.0569 300.319 73.5582C300.927 74.0596 301.231 74.7849 301.231 75.7342C301.231 76.6729 300.927 77.3929 300.319 77.8942C299.722 78.3956 298.943 78.6462 297.983 78.6462H293.679ZM296.047 76.9822H297.471C297.919 76.9822 298.255 76.8702 298.479 76.6462C298.703 76.4116 298.815 76.1076 298.815 75.7342C298.815 75.3502 298.703 75.0462 298.479 74.8222C298.255 74.5876 297.919 74.4702 297.471 74.4702H296.047V76.9822ZM302.463 78.6462V70.1182H304.831V78.6462H302.463ZM308.863 78.6462V70.5662H311.231V78.6462H308.863ZM306.287 72.0702V70.1182H313.791V72.0702H306.287Z" fill="#151515"/>
<rect x="347.457" y="52.0974" width="183.184" height="42.0973" rx="21.0486" fill="#E9E9E9"/>
<path d="M371.549 78.8382C370.632 78.8382 369.864 78.6569 369.245 78.2942C368.627 77.9209 368.173 77.3769 367.885 76.6622L369.949 76.0862C370.109 76.4169 370.317 76.6676 370.573 76.8382C370.84 76.9982 371.155 77.0782 371.517 77.0782C371.869 77.0782 372.184 76.9982 372.461 76.8382C372.749 76.6782 372.973 76.4276 373.133 76.0862C373.293 75.7342 373.373 75.2809 373.373 74.7262V74.0062C373.373 73.4622 373.293 73.0196 373.133 72.6782C372.973 72.3369 372.755 72.0862 372.477 71.9262C372.2 71.7662 371.88 71.6862 371.517 71.6862C371.176 71.6862 370.877 71.7662 370.621 71.9262C370.365 72.0756 370.152 72.3156 369.981 72.6462L367.901 72.0542C368.189 71.3502 368.643 70.8222 369.261 70.4702C369.88 70.1076 370.643 69.9262 371.549 69.9262C372.371 69.9262 373.096 70.1076 373.725 70.4702C374.355 70.8329 374.845 71.3502 375.197 72.0222C375.56 72.6836 375.741 73.4676 375.741 74.3742C375.741 75.2809 375.56 76.0702 375.197 76.7422C374.845 77.4036 374.349 77.9209 373.709 78.2942C373.08 78.6569 372.36 78.8382 371.549 78.8382ZM370.605 75.1262V73.5902H373.837V75.1262H370.605ZM377.512 78.6462V70.1182H381.384L382.888 77.0462H382.968L384.472 70.1182H388.344V78.6462H386.088V71.5742H386.008L384.344 78.6462H381.528L379.864 71.5742H379.784V78.6462H377.512ZM394.543 78.8382C393.657 78.8382 392.884 78.6516 392.223 78.2782C391.561 77.9049 391.049 77.3822 390.687 76.7102C390.324 76.0382 390.143 75.2649 390.143 74.3902C390.143 73.4942 390.324 72.7156 390.687 72.0542C391.049 71.3929 391.561 70.8756 392.223 70.5022C392.884 70.1182 393.657 69.9262 394.543 69.9262C395.428 69.9262 396.201 70.1129 396.863 70.4862C397.524 70.8596 398.036 71.3822 398.399 72.0542C398.761 72.7156 398.943 73.4942 398.943 74.3902C398.943 75.2756 398.761 76.0542 398.399 76.7262C398.036 77.3876 397.524 77.9049 396.863 78.2782C396.201 78.6516 395.428 78.8382 394.543 78.8382ZM394.543 77.0622C394.937 77.0622 395.279 76.9662 395.567 76.7742C395.865 76.5822 396.095 76.2889 396.255 75.8942C396.425 75.4889 396.511 74.9876 396.511 74.3902C396.511 73.7716 396.425 73.2649 396.255 72.8702C396.095 72.4756 395.865 72.1822 395.567 71.9902C395.279 71.7982 394.937 71.7022 394.543 71.7022C394.148 71.7022 393.801 71.7982 393.503 71.9902C393.215 72.1822 392.985 72.4756 392.815 72.8702C392.655 73.2649 392.575 73.7716 392.575 74.3902C392.575 74.9982 392.655 75.4996 392.815 75.8942C392.985 76.2889 393.215 76.5822 393.503 76.7742C393.801 76.9662 394.148 77.0622 394.543 77.0622ZM406.011 70.1182H408.379V78.6462H406.011V70.1182ZM400.715 70.1182H403.083V78.6462H400.715V70.1182ZM402.251 78.6462V76.6942H406.811V78.6462H402.251ZM407.451 80.5662V78.6462H407.211V76.6942H409.675V80.5662H407.451ZM411.184 78.6462V70.1182H413.504V76.3422H413.584L416.272 70.1182H419.472V78.6462H417.168V72.4382H417.088L414.448 78.6462H411.184ZM421.7 78.6462V70.1182H424.02V76.3422H424.1L426.788 70.1182H429.988V78.6462H427.684V72.4382H427.604L424.964 78.6462H421.7ZM436.325 78.6462V70.1182H438.645V76.3422H438.725L441.413 70.1182H444.613V78.6462H442.309V72.4382H442.229L439.589 78.6462H436.325ZM450.95 81.8462V70.1182H453.19V71.4302H453.27C453.408 71.1316 453.606 70.8702 453.862 70.6462C454.118 70.4222 454.411 70.2462 454.742 70.1182C455.083 69.9902 455.451 69.9262 455.846 69.9262C456.56 69.9262 457.184 70.1076 457.718 70.4702C458.262 70.8329 458.683 71.3502 458.982 72.0222C459.291 72.6836 459.446 73.4729 459.446 74.3902C459.446 75.2969 459.291 76.0862 458.982 76.7582C458.683 77.4196 458.267 77.9316 457.734 78.2942C457.2 78.6569 456.582 78.8382 455.878 78.8382C455.494 78.8382 455.136 78.7742 454.806 78.6462C454.486 78.5182 454.203 78.3422 453.958 78.1182C453.723 77.8942 453.536 77.6382 453.398 77.3502H453.318V81.8462H450.95ZM455.11 77.0622C455.515 77.0622 455.856 76.9556 456.134 76.7422C456.411 76.5182 456.624 76.2089 456.774 75.8142C456.934 75.4089 457.014 74.9342 457.014 74.3902C457.014 73.8356 456.934 73.3609 456.774 72.9662C456.624 72.5609 456.411 72.2516 456.134 72.0382C455.856 71.8142 455.515 71.7022 455.11 71.7022C454.715 71.7022 454.374 71.8142 454.086 72.0382C453.798 72.2516 453.574 72.5609 453.414 72.9662C453.264 73.3609 453.19 73.8356 453.19 74.3902C453.19 74.9236 453.264 75.3929 453.414 75.7982C453.574 76.2036 453.798 76.5182 454.086 76.7422C454.374 76.9556 454.715 77.0622 455.11 77.0622ZM465.166 78.8382C464.281 78.8382 463.513 78.6516 462.862 78.2782C462.212 77.8942 461.71 77.3609 461.358 76.6782C461.006 75.9849 460.83 75.1902 460.83 74.2942C460.83 73.4302 461.012 72.6729 461.374 72.0222C461.748 71.3609 462.254 70.8489 462.894 70.4862C463.534 70.1129 464.26 69.9262 465.07 69.9262C465.902 69.9262 466.622 70.0969 467.23 70.4382C467.838 70.7689 468.302 71.2436 468.622 71.8622C468.953 72.4809 469.118 73.2116 469.118 74.0542C469.118 74.2036 469.113 74.3636 469.102 74.5342C469.092 74.6942 469.076 74.8276 469.054 74.9342H461.966V73.4782H467.454L466.862 73.6702C466.873 73.1902 466.804 72.7902 466.654 72.4702C466.516 72.1502 466.313 71.9102 466.046 71.7502C465.78 71.5796 465.449 71.4942 465.054 71.4942C464.681 71.4942 464.35 71.5742 464.062 71.7342C463.774 71.8942 463.55 72.1449 463.39 72.4862C463.23 72.8169 463.15 73.2436 463.15 73.7662V74.7582C463.15 75.4196 463.332 75.9689 463.694 76.4062C464.057 76.8436 464.596 77.0622 465.31 77.0622C465.694 77.0622 466.057 76.9822 466.398 76.8222C466.74 76.6516 467.022 76.3849 467.246 76.0222L468.942 77.0782C468.729 77.4516 468.446 77.7716 468.094 78.0382C467.742 78.2942 467.321 78.4916 466.83 78.6302C466.34 78.7689 465.785 78.8382 465.166 78.8382ZM473.225 78.8382C472.372 78.8382 471.689 78.6089 471.177 78.1502C470.665 77.6916 470.409 77.0889 470.409 76.3422C470.409 75.6276 470.654 75.0409 471.145 74.5822C471.636 74.1129 472.414 73.8036 473.481 73.6542L476.345 73.2222V74.5502L474.105 74.9182C473.636 74.9929 473.278 75.1316 473.033 75.3342C472.798 75.5262 472.681 75.8089 472.681 76.1822C472.681 76.5022 472.788 76.7636 473.001 76.9662C473.225 77.1582 473.534 77.2542 473.929 77.2542C474.27 77.2542 474.564 77.1796 474.809 77.0302C475.054 76.8702 475.246 76.6516 475.385 76.3742C475.524 76.0862 475.593 75.7449 475.593 75.3502V72.9182C475.593 72.5129 475.481 72.1929 475.257 71.9582C475.033 71.7236 474.697 71.6062 474.249 71.6062C473.865 71.6062 473.55 71.6969 473.305 71.8782C473.07 72.0596 472.9 72.3369 472.793 72.7102L470.649 72.2782C470.862 71.5209 471.3 70.9396 471.961 70.5342C472.633 70.1289 473.428 69.9262 474.345 69.9262C475.561 69.9262 476.457 70.2142 477.033 70.7902C477.62 71.3556 477.913 72.1289 477.913 73.1102V77.0462L478.521 78.6462H476.105L475.721 77.5262H475.625C475.39 77.9422 475.065 78.2676 474.649 78.5022C474.244 78.7262 473.769 78.8382 473.225 78.8382ZM485.464 70.1182H487.832V78.6462H485.464V70.1182ZM480.168 70.1182H482.536V78.6462H480.168V70.1182ZM481.704 78.6462V76.6942H486.264V78.6462H481.704ZM486.904 80.5662V78.6462H486.664V76.6942H489.128V80.5662H486.904ZM490.637 78.6462V70.1182H492.957V76.3422H493.037L495.725 70.1182H498.925V78.6462H496.621V72.4382H496.541L493.901 78.6462H490.637ZM501.153 78.6462V70.1182H503.473V76.3422H503.553L506.241 70.1182H509.441V78.6462H507.137V72.4382H507.057L504.417 78.6462H501.153Z" fill="#151515"/>
<rect x="540.641" y="52.0974" width="322.613" height="42.0973" rx="21.0486" fill="#FFFAC1"/>
<path d="M561.316 78.6462L558.66 74.1022L561.204 70.1182H563.86L560.516 74.7262L560.292 72.7742L563.972 78.6462H561.316ZM555.668 78.6462V70.1182H558.036V78.6462H555.668ZM556.66 75.1742V73.0942H559.892V75.1742H556.66ZM568.918 78.8382C568.032 78.8382 567.259 78.6516 566.598 78.2782C565.936 77.9049 565.424 77.3822 565.062 76.7102C564.699 76.0382 564.518 75.2649 564.518 74.3902C564.518 73.4942 564.699 72.7156 565.062 72.0542C565.424 71.3929 565.936 70.8756 566.598 70.5022C567.259 70.1182 568.032 69.9262 568.918 69.9262C569.803 69.9262 570.576 70.1129 571.238 70.4862C571.899 70.8596 572.411 71.3822 572.774 72.0542C573.136 72.7156 573.318 73.4942 573.318 74.3902C573.318 75.2756 573.136 76.0542 572.774 76.7262C572.411 77.3876 571.899 77.9049 571.238 78.2782C570.576 78.6516 569.803 78.8382 568.918 78.8382ZM568.918 77.0622C569.312 77.0622 569.654 76.9662 569.942 76.7742C570.24 76.5822 570.47 76.2889 570.63 75.8942C570.8 75.4889 570.886 74.9876 570.886 74.3902C570.886 73.7716 570.8 73.2649 570.63 72.8702C570.47 72.4756 570.24 72.1822 569.942 71.9902C569.654 71.7982 569.312 71.7022 568.918 71.7022C568.523 71.7022 568.176 71.7982 567.878 71.9902C567.59 72.1822 567.36 72.4756 567.19 72.8702C567.03 73.2649 566.95 73.7716 566.95 74.3902C566.95 74.9982 567.03 75.4996 567.19 75.8942C567.36 76.2889 567.59 76.5822 567.878 76.7742C568.176 76.9662 568.523 77.0622 568.918 77.0622ZM575.09 81.8462V70.1182H577.33V71.4302H577.41C577.549 71.1316 577.746 70.8702 578.002 70.6462C578.258 70.4222 578.552 70.2462 578.882 70.1182C579.224 69.9902 579.592 69.9262 579.986 69.9262C580.701 69.9262 581.325 70.1076 581.858 70.4702C582.402 70.8329 582.824 71.3502 583.122 72.0222C583.432 72.6836 583.586 73.4729 583.586 74.3902C583.586 75.2969 583.432 76.0862 583.122 76.7582C582.824 77.4196 582.408 77.9316 581.874 78.2942C581.341 78.6569 580.722 78.8382 580.018 78.8382C579.634 78.8382 579.277 78.7742 578.946 78.6462C578.626 78.5182 578.344 78.3422 578.098 78.1182C577.864 77.8942 577.677 77.6382 577.538 77.3502H577.458V81.8462H575.09ZM579.25 77.0622C579.656 77.0622 579.997 76.9556 580.274 76.7422C580.552 76.5182 580.765 76.2089 580.914 75.8142C581.074 75.4089 581.154 74.9342 581.154 74.3902C581.154 73.8356 581.074 73.3609 580.914 72.9662C580.765 72.5609 580.552 72.2516 580.274 72.0382C579.997 71.8142 579.656 71.7022 579.25 71.7022C578.856 71.7022 578.514 71.8142 578.226 72.0382C577.938 72.2516 577.714 72.5609 577.554 72.9662C577.405 73.3609 577.33 73.8356 577.33 74.3902C577.33 74.9236 577.405 75.3929 577.554 75.7982C577.714 76.2036 577.938 76.5182 578.226 76.7422C578.514 76.9556 578.856 77.0622 579.25 77.0622ZM589.371 78.8382C588.485 78.8382 587.712 78.6516 587.051 78.2782C586.389 77.9049 585.877 77.3822 585.515 76.7102C585.152 76.0382 584.971 75.2649 584.971 74.3902C584.971 73.4942 585.152 72.7156 585.515 72.0542C585.877 71.3929 586.389 70.8756 587.051 70.5022C587.712 70.1182 588.485 69.9262 589.371 69.9262C590.256 69.9262 591.029 70.1129 591.691 70.4862C592.352 70.8596 592.864 71.3822 593.227 72.0542C593.589 72.7156 593.771 73.4942 593.771 74.3902C593.771 75.2756 593.589 76.0542 593.227 76.7262C592.864 77.3876 592.352 77.9049 591.691 78.2782C591.029 78.6516 590.256 78.8382 589.371 78.8382ZM589.371 77.0622C589.765 77.0622 590.107 76.9662 590.395 76.7742C590.693 76.5822 590.923 76.2889 591.083 75.8942C591.253 75.4889 591.339 74.9876 591.339 74.3902C591.339 73.7716 591.253 73.2649 591.083 72.8702C590.923 72.4756 590.693 72.1822 590.395 71.9902C590.107 71.7982 589.765 71.7022 589.371 71.7022C588.976 71.7022 588.629 71.7982 588.331 71.9902C588.043 72.1822 587.813 72.4756 587.643 72.8702C587.483 73.2649 587.403 73.7716 587.403 74.3902C587.403 74.9982 587.483 75.4996 587.643 75.8942C587.813 76.2889 588.043 76.5822 588.331 76.7742C588.629 76.9662 588.976 77.0622 589.371 77.0622ZM597.086 78.6462V70.5662H599.454V78.6462H597.086ZM594.51 72.0702V70.1182H602.014V72.0702H594.51ZM609.113 78.6462L606.457 74.1022L609.001 70.1182H611.657L608.313 74.7262L608.089 72.7742L611.769 78.6462H609.113ZM603.465 78.6462V70.1182H605.833V78.6462H603.465ZM604.457 75.1742V73.0942H607.689V75.1742H604.457ZM613.325 78.6462V70.1182H615.645V76.3422H615.725L618.413 70.1182H621.613V78.6462H619.309V72.4382H619.229L616.589 78.6462H613.325ZM627.744 78.8382C626.859 78.8382 626.091 78.6516 625.44 78.2782C624.79 77.8942 624.288 77.3609 623.936 76.6782C623.584 75.9849 623.408 75.1902 623.408 74.2942C623.408 73.4302 623.59 72.6729 623.952 72.0222C624.326 71.3609 624.832 70.8489 625.472 70.4862C626.112 70.1129 626.838 69.9262 627.648 69.9262C628.48 69.9262 629.2 70.0969 629.808 70.4382C630.416 70.7689 630.88 71.2436 631.2 71.8622C631.531 72.4809 631.696 73.2116 631.696 74.0542C631.696 74.2036 631.691 74.3636 631.68 74.5342C631.67 74.6942 631.654 74.8276 631.632 74.9342H624.544V73.4782H630.032L629.44 73.6702C629.451 73.1902 629.382 72.7902 629.232 72.4702C629.094 72.1502 628.891 71.9102 628.624 71.7502C628.358 71.5796 628.027 71.4942 627.632 71.4942C627.259 71.4942 626.928 71.5742 626.64 71.7342C626.352 71.8942 626.128 72.1449 625.968 72.4862C625.808 72.8169 625.728 73.2436 625.728 73.7662V74.7582C625.728 75.4196 625.91 75.9689 626.272 76.4062C626.635 76.8436 627.174 77.0622 627.888 77.0622C628.272 77.0622 628.635 76.9822 628.976 76.8222C629.318 76.6516 629.6 76.3849 629.824 76.0222L631.52 77.0782C631.307 77.4516 631.024 77.7716 630.672 78.0382C630.32 78.2942 629.899 78.4916 629.408 78.6302C628.918 78.7689 628.363 78.8382 627.744 78.8382ZM637.497 78.6462V70.1182H639.817V76.3422H639.897L642.585 70.1182H645.785V78.6462H643.481V72.4382H643.401L640.761 78.6462H637.497ZM652.09 77.1902C652.378 76.8702 652.607 76.5289 652.778 76.1662C652.959 75.7929 653.098 75.3662 653.194 74.8862C653.29 74.3956 653.343 73.8302 653.354 73.1902L653.434 70.1182H660.17V77.1902H657.914V72.0542H654.298L655.498 70.8702L655.434 73.3022C655.423 73.9742 655.37 74.5502 655.274 75.0302C655.188 75.5102 655.071 75.9209 654.922 76.2622C654.783 76.6036 654.612 76.9129 654.41 77.1902H652.09ZM653.562 80.5662H651.338V76.6942H653.802V78.6462H653.562V80.5662ZM652.938 78.6462V76.6942H659.69V78.6462H652.938ZM659.242 80.5662V78.6462H658.986V76.6942H661.466V80.5662H659.242ZM663.421 78.7742C663.229 78.7742 663.053 78.7529 662.893 78.7102C662.733 78.6782 662.578 78.6409 662.429 78.5982V76.6782C662.503 76.7102 662.583 76.7369 662.669 76.7582C662.754 76.7689 662.85 76.7742 662.957 76.7742C663.255 76.7742 663.49 76.6569 663.661 76.4222C663.842 76.1876 663.954 75.7716 663.997 75.1742C664.007 74.9716 664.018 74.7636 664.029 74.5502C664.039 74.3369 664.05 74.1129 664.061 73.8782C664.071 73.6329 664.082 73.3769 664.093 73.1102L664.221 70.1182H671.037V78.6462H668.653V70.7262L669.533 72.0702H664.925L666.285 70.7262L666.173 73.2862C666.162 73.7022 666.146 74.0756 666.125 74.4062C666.114 74.7262 666.098 75.0782 666.077 75.4622C666.045 76.2516 665.933 76.8916 665.741 77.3822C665.549 77.8729 665.261 78.2302 664.877 78.4542C664.503 78.6676 664.018 78.7742 663.421 78.7742ZM673.247 78.6462V70.1182H675.567V76.3422H675.647L678.335 70.1182H681.535V78.6462H679.231V72.4382H679.151L676.511 78.6462H673.247ZM689.202 78.6462V70.1182H691.57V78.6462H689.202ZM683.762 78.6462V70.1182H686.13V78.6462H683.762ZM685.282 75.1582V73.2062H690.05V75.1582H685.282ZM699.233 78.6462V70.1182H701.601V78.6462H699.233ZM693.793 78.6462V70.1182H696.161V78.6462H693.793ZM695.313 75.1582V73.2062H700.081V75.1582H695.313ZM703.825 78.6462V70.1182H706.193V72.8062H708.129C709.089 72.8062 709.867 73.0569 710.465 73.5582C711.073 74.0596 711.377 74.7849 711.377 75.7342C711.377 76.6729 711.073 77.3929 710.465 77.8942C709.867 78.3956 709.089 78.6462 708.129 78.6462H703.825ZM706.193 76.9822H707.617C708.065 76.9822 708.401 76.8702 708.625 76.6462C708.849 76.4116 708.961 76.1076 708.961 75.7342C708.961 75.3502 708.849 75.0462 708.625 74.8222C708.401 74.5876 708.065 74.4702 707.617 74.4702H706.193V76.9822ZM712.609 78.6462V70.1182H714.977V78.6462H712.609ZM721.088 78.8382C720.203 78.8382 719.435 78.6516 718.784 78.2782C718.133 77.8942 717.632 77.3609 717.28 76.6782C716.928 75.9849 716.752 75.1902 716.752 74.2942C716.752 73.4302 716.933 72.6729 717.296 72.0222C717.669 71.3609 718.176 70.8489 718.816 70.4862C719.456 70.1129 720.181 69.9262 720.992 69.9262C721.824 69.9262 722.544 70.0969 723.152 70.4382C723.76 70.7689 724.224 71.2436 724.544 71.8622C724.875 72.4809 725.04 73.2116 725.04 74.0542C725.04 74.2036 725.035 74.3636 725.024 74.5342C725.013 74.6942 724.997 74.8276 724.976 74.9342H717.888V73.4782H723.376L722.784 73.6702C722.795 73.1902 722.725 72.7902 722.576 72.4702C722.437 72.1502 722.235 71.9102 721.968 71.7502C721.701 71.5796 721.371 71.4942 720.976 71.4942C720.603 71.4942 720.272 71.5742 719.984 71.7342C719.696 71.8942 719.472 72.1449 719.312 72.4862C719.152 72.8169 719.072 73.2436 719.072 73.7662V74.7582C719.072 75.4196 719.253 75.9689 719.616 76.4062C719.979 76.8436 720.517 77.0622 721.232 77.0622C721.616 77.0622 721.979 76.9822 722.32 76.8222C722.661 76.6516 722.944 76.3849 723.168 76.0222L724.864 77.0782C724.651 77.4516 724.368 77.7716 724.016 78.0382C723.664 78.2942 723.243 78.4916 722.752 78.6302C722.261 78.7689 721.707 78.8382 721.088 78.8382ZM736.136 78.6462V70.1182H738.504V78.6462H736.136ZM730.84 78.6462V70.1182H733.208V78.6462H730.84ZM732.408 72.0702V70.1182H736.936V72.0702H732.408ZM740.731 81.8462V70.1182H742.971V71.4302H743.051C743.19 71.1316 743.387 70.8702 743.643 70.6462C743.899 70.4222 744.192 70.2462 744.523 70.1182C744.864 69.9902 745.232 69.9262 745.627 69.9262C746.342 69.9262 746.966 70.1076 747.499 70.4702C748.043 70.8329 748.464 71.3502 748.763 72.0222C749.072 72.6836 749.227 73.4729 749.227 74.3902C749.227 75.2969 749.072 76.0862 748.763 76.7582C748.464 77.4196 748.048 77.9316 747.515 78.2942C746.982 78.6569 746.363 78.8382 745.659 78.8382C745.275 78.8382 744.918 78.7742 744.587 78.6462C744.267 78.5182 743.984 78.3422 743.739 78.1182C743.504 77.8942 743.318 77.6382 743.179 77.3502H743.099V81.8462H740.731ZM744.891 77.0622C745.296 77.0622 745.638 76.9556 745.915 76.7422C746.192 76.5182 746.406 76.2089 746.555 75.8142C746.715 75.4089 746.795 74.9342 746.795 74.3902C746.795 73.8356 746.715 73.3609 746.555 72.9662C746.406 72.5609 746.192 72.2516 745.915 72.0382C745.638 71.8142 745.296 71.7022 744.891 71.7022C744.496 71.7022 744.155 71.8142 743.867 72.0382C743.579 72.2516 743.355 72.5609 743.195 72.9662C743.046 73.3609 742.971 73.8356 742.971 74.3902C742.971 74.9236 743.046 75.3929 743.195 75.7982C743.355 76.2036 743.579 76.5182 743.867 76.7422C744.155 76.9556 744.496 77.0622 744.891 77.0622ZM754.947 78.8382C754.062 78.8382 753.294 78.6516 752.643 78.2782C751.993 77.8942 751.491 77.3609 751.139 76.6782C750.787 75.9849 750.611 75.1902 750.611 74.2942C750.611 73.4302 750.793 72.6729 751.155 72.0222C751.529 71.3609 752.035 70.8489 752.675 70.4862C753.315 70.1129 754.041 69.9262 754.851 69.9262C755.683 69.9262 756.403 70.0969 757.011 70.4382C757.619 70.7689 758.083 71.2436 758.403 71.8622C758.734 72.4809 758.899 73.2116 758.899 74.0542C758.899 74.2036 758.894 74.3636 758.883 74.5342C758.873 74.6942 758.857 74.8276 758.835 74.9342H751.747V73.4782H757.235L756.643 73.6702C756.654 73.1902 756.585 72.7902 756.435 72.4702C756.297 72.1502 756.094 71.9102 755.827 71.7502C755.561 71.5796 755.23 71.4942 754.835 71.4942C754.462 71.4942 754.131 71.5742 753.843 71.7342C753.555 71.8942 753.331 72.1449 753.171 72.4862C753.011 72.8169 752.931 73.2436 752.931 73.7662V74.7582C752.931 75.4196 753.113 75.9689 753.475 76.4062C753.838 76.8436 754.377 77.0622 755.091 77.0622C755.475 77.0622 755.838 76.9822 756.179 76.8222C756.521 76.6516 756.803 76.3849 757.027 76.0222L758.723 77.0782C758.51 77.4516 758.227 77.7716 757.875 78.0382C757.523 78.2942 757.102 78.4916 756.611 78.6302C756.121 78.7689 755.566 78.8382 754.947 78.8382ZM760.511 77.1902C760.799 76.8702 761.029 76.5289 761.199 76.1662C761.381 75.7929 761.519 75.3662 761.615 74.8862C761.711 74.3956 761.765 73.8302 761.775 73.1902L761.855 70.1182H768.591V77.1902H766.335V72.0542H762.719L763.919 70.8702L763.855 73.3022C763.845 73.9742 763.791 74.5502 763.695 75.0302C763.61 75.5102 763.493 75.9209 763.343 76.2622C763.205 76.6036 763.034 76.9129 762.831 77.1902H760.511ZM761.983 80.5662H759.759V76.6942H762.223V78.6462H761.983V80.5662ZM761.359 78.6462V76.6942H768.111V78.6462H761.359ZM767.663 80.5662V78.6462H767.407V76.6942H769.887V80.5662H767.663ZM771.843 78.7742C771.651 78.7742 771.475 78.7529 771.315 78.7102C771.155 78.6782 771 78.6409 770.851 78.5982V76.6782C770.925 76.7102 771.005 76.7369 771.091 76.7582C771.176 76.7689 771.272 76.7742 771.379 76.7742C771.677 76.7742 771.912 76.6569 772.083 76.4222C772.264 76.1876 772.376 75.7716 772.419 75.1742C772.429 74.9716 772.44 74.7636 772.451 74.5502C772.461 74.3369 772.472 74.1129 772.483 73.8782C772.493 73.6329 772.504 73.3769 772.515 73.1102L772.643 70.1182H779.459V78.6462H777.075V70.7262L777.955 72.0702H773.347L774.707 70.7262L774.595 73.2862C774.584 73.7022 774.568 74.0756 774.547 74.4062C774.536 74.7262 774.52 75.0782 774.499 75.4622C774.467 76.2516 774.355 76.8916 774.163 77.3822C773.971 77.8729 773.683 78.2302 773.299 78.4542C772.925 78.6676 772.44 78.7742 771.843 78.7742ZM785.636 78.8382C784.751 78.8382 783.978 78.6516 783.316 78.2782C782.655 77.9049 782.143 77.3822 781.78 76.7102C781.418 76.0382 781.236 75.2649 781.236 74.3902C781.236 73.4942 781.418 72.7156 781.78 72.0542C782.143 71.3929 782.655 70.8756 783.316 70.5022C783.978 70.1182 784.751 69.9262 785.636 69.9262C786.522 69.9262 787.295 70.1129 787.956 70.4862C788.618 70.8596 789.13 71.3822 789.492 72.0542C789.855 72.7156 790.036 73.4942 790.036 74.3902C790.036 75.2756 789.855 76.0542 789.492 76.7262C789.13 77.3876 788.618 77.9049 787.956 78.2782C787.295 78.6516 786.522 78.8382 785.636 78.8382ZM785.636 77.0622C786.031 77.0622 786.372 76.9662 786.66 76.7742C786.959 76.5822 787.188 76.2889 787.348 75.8942C787.519 75.4889 787.604 74.9876 787.604 74.3902C787.604 73.7716 787.519 73.2649 787.348 72.8702C787.188 72.4756 786.959 72.1822 786.66 71.9902C786.372 71.7982 786.031 71.7022 785.636 71.7022C785.242 71.7022 784.895 71.7982 784.596 71.9902C784.308 72.1822 784.079 72.4756 783.908 72.8702C783.748 73.2649 783.668 73.7716 783.668 74.3902C783.668 74.9982 783.748 75.4996 783.908 75.8942C784.079 76.2889 784.308 76.5822 784.596 76.7742C784.895 76.9662 785.242 77.0622 785.636 77.0622ZM801.454 78.6462L799.15 74.0542L801.326 70.1182H803.95L801.15 74.6462V73.2862L804.062 78.6462H801.454ZM790.622 78.6462L793.518 73.2862V74.6462L790.734 70.1182H793.342L795.518 74.0542L793.23 78.6462H790.622ZM796.19 78.6462V70.1182H798.478V78.6462H796.19ZM794.19 75.1582V73.0942H800.478V75.1582H794.19ZM808.963 78.8382C808.078 78.8382 807.31 78.6516 806.659 78.2782C806.008 77.8942 805.507 77.3609 805.155 76.6782C804.803 75.9849 804.627 75.1902 804.627 74.2942C804.627 73.4302 804.808 72.6729 805.171 72.0222C805.544 71.3609 806.051 70.8489 806.691 70.4862C807.331 70.1129 808.056 69.9262 808.867 69.9262C809.699 69.9262 810.419 70.0969 811.027 70.4382C811.635 70.7689 812.099 71.2436 812.419 71.8622C812.75 72.4809 812.915 73.2116 812.915 74.0542C812.915 74.2036 812.91 74.3636 812.899 74.5342C812.888 74.6942 812.872 74.8276 812.851 74.9342H805.763V73.4782H811.251L810.659 73.6702C810.67 73.1902 810.6 72.7902 810.451 72.4702C810.312 72.1502 810.11 71.9102 809.843 71.7502C809.576 71.5796 809.246 71.4942 808.851 71.4942C808.478 71.4942 808.147 71.5742 807.859 71.7342C807.571 71.8942 807.347 72.1449 807.187 72.4862C807.027 72.8169 806.947 73.2436 806.947 73.7662V74.7582C806.947 75.4196 807.128 75.9689 807.491 76.4062C807.854 76.8436 808.392 77.0622 809.107 77.0622C809.491 77.0622 809.854 76.9822 810.195 76.8222C810.536 76.6516 810.819 76.3849 811.043 76.0222L812.739 77.0782C812.526 77.4516 812.243 77.7716 811.891 78.0382C811.539 78.2942 811.118 78.4916 810.627 78.6302C810.136 78.7689 809.582 78.8382 808.963 78.8382ZM820.046 78.6462V70.1182H822.414V78.6462H820.046ZM814.606 78.6462V70.1182H816.974V78.6462H814.606ZM816.126 75.1582V73.2062H820.894V75.1582H816.126ZM824.637 78.6462V70.1182H826.957V76.3422H827.037L829.725 70.1182H832.925V78.6462H830.621V72.4382H830.541L827.901 78.6462H824.637ZM840.097 78.6462V75.2382H838.769L838.673 75.5262H838.113C837.483 75.5262 836.923 75.4356 836.433 75.2542C835.953 75.0622 835.574 74.7742 835.297 74.3902C835.03 73.9956 834.897 73.4996 834.897 72.9022C834.897 72.2942 835.03 71.7876 835.297 71.3822C835.563 70.9662 835.937 70.6516 836.417 70.4382C836.907 70.2249 837.478 70.1182 838.129 70.1182H842.465V78.6462H840.097ZM834.577 78.6462L838.017 74.6142L840.641 74.6462L837.425 78.6462H834.577ZM838.641 74.0862H840.097V71.7502H838.641C838.193 71.7502 837.857 71.8569 837.633 72.0702C837.409 72.2729 837.297 72.5556 837.297 72.9182C837.297 73.2702 837.409 73.5529 837.633 73.7662C837.857 73.9796 838.193 74.0862 838.641 74.0862Z" fill="#151515"/>
<rect x="245.562" width="217.672" height="42.0973" rx="21.0486" fill="#FFD5D5"/>
<path d="M268.111 26.5488L265.455 22.0048L267.999 18.0208H270.655L267.311 22.6288L267.087 20.6768L270.767 26.5488H268.111ZM262.463 26.5488V18.0208H264.831V26.5488H262.463ZM263.455 23.0768V20.9968H266.687V23.0768H263.455ZM274.426 26.7408C273.572 26.7408 272.89 26.5115 272.378 26.0528C271.866 25.5942 271.61 24.9915 271.61 24.2448C271.61 23.5302 271.855 22.9435 272.346 22.4848C272.836 22.0155 273.615 21.7062 274.682 21.5568L277.546 21.1248V22.4528L275.306 22.8208C274.836 22.8955 274.479 23.0342 274.234 23.2368C273.999 23.4288 273.882 23.7115 273.882 24.0848C273.882 24.4048 273.988 24.6662 274.202 24.8688C274.426 25.0608 274.735 25.1568 275.13 25.1568C275.471 25.1568 275.764 25.0822 276.01 24.9328C276.255 24.7728 276.447 24.5542 276.586 24.2768C276.724 23.9888 276.794 23.6475 276.794 23.2528V20.8208C276.794 20.4155 276.682 20.0955 276.458 19.8608C276.234 19.6262 275.898 19.5088 275.45 19.5088C275.066 19.5088 274.751 19.5995 274.506 19.7808C274.271 19.9622 274.1 20.2395 273.994 20.6128L271.85 20.1808C272.063 19.4235 272.5 18.8422 273.162 18.4368C273.834 18.0315 274.628 17.8288 275.546 17.8288C276.762 17.8288 277.658 18.1168 278.234 18.6928C278.82 19.2582 279.114 20.0315 279.114 21.0128V24.9488L279.722 26.5488H277.306L276.922 25.4288H276.826C276.591 25.8448 276.266 26.1702 275.85 26.4048C275.444 26.6288 274.97 26.7408 274.426 26.7408ZM287.017 26.5488L284.361 22.0048L286.905 18.0208H289.561L286.217 22.6288L285.993 20.6768L289.673 26.5488H287.017ZM281.369 26.5488V18.0208H283.737V26.5488H281.369ZM282.361 23.0768V20.9968H285.593V23.0768H282.361ZM295.338 26.5488V18.0208H299.866C300.666 18.0208 301.3 18.2182 301.77 18.6128C302.25 18.9968 302.49 19.5195 302.49 20.1808C302.49 20.6395 302.362 21.0235 302.106 21.3328C301.86 21.6422 301.514 21.8502 301.066 21.9568V22.0368C301.663 22.1328 302.127 22.3675 302.458 22.7408C302.799 23.1035 302.97 23.5622 302.97 24.1168C302.97 24.6075 302.836 25.0342 302.57 25.3968C302.303 25.7595 301.935 26.0422 301.466 26.2448C300.996 26.4475 300.447 26.5488 299.818 26.5488H295.338ZM297.69 25.0768H299.178C299.636 25.0768 299.983 24.9808 300.218 24.7888C300.463 24.5862 300.586 24.3088 300.586 23.9568C300.586 23.6048 300.463 23.3328 300.218 23.1408C299.983 22.9488 299.636 22.8528 299.178 22.8528H297.69V25.0768ZM297.69 21.5088H299.034C299.418 21.5088 299.706 21.4235 299.898 21.2528C300.1 21.0715 300.202 20.8262 300.202 20.5168C300.202 20.2075 300.1 19.9622 299.898 19.7808C299.695 19.5888 299.407 19.4928 299.034 19.4928H297.69V21.5088ZM308.601 26.7408C307.716 26.7408 306.948 26.5542 306.297 26.1808C305.646 25.7968 305.145 25.2635 304.793 24.5808C304.441 23.8875 304.265 23.0928 304.265 22.1968C304.265 21.3328 304.446 20.5755 304.809 19.9248C305.182 19.2635 305.689 18.7515 306.329 18.3888C306.969 18.0155 307.694 17.8288 308.505 17.8288C309.337 17.8288 310.057 17.9995 310.665 18.3408C311.273 18.6715 311.737 19.1462 312.057 19.7648C312.388 20.3835 312.553 21.1142 312.553 21.9568C312.553 22.1062 312.548 22.2662 312.537 22.4368C312.526 22.5968 312.51 22.7302 312.489 22.8368H305.401V21.3808H310.889L310.297 21.5728C310.308 21.0928 310.238 20.6928 310.089 20.3728C309.95 20.0528 309.748 19.8128 309.481 19.6528C309.214 19.4822 308.884 19.3968 308.489 19.3968C308.116 19.3968 307.785 19.4768 307.497 19.6368C307.209 19.7968 306.985 20.0475 306.825 20.3888C306.665 20.7195 306.585 21.1462 306.585 21.6688V22.6608C306.585 23.3222 306.766 23.8715 307.129 24.3088C307.492 24.7462 308.03 24.9648 308.745 24.9648C309.129 24.9648 309.492 24.8848 309.833 24.7248C310.174 24.5542 310.457 24.2875 310.681 23.9248L312.377 24.9808C312.164 25.3542 311.881 25.6742 311.529 25.9408C311.177 26.1968 310.756 26.3942 310.265 26.5328C309.774 26.6715 309.22 26.7408 308.601 26.7408ZM324.014 26.5488L321.71 21.9568L323.886 18.0208H326.51L323.71 22.5488V21.1888L326.622 26.5488H324.014ZM313.182 26.5488L316.078 21.1888V22.5488L313.294 18.0208H315.902L318.078 21.9568L315.79 26.5488H313.182ZM318.75 26.5488V18.0208H321.038V26.5488H318.75ZM316.75 23.0608V20.9968H323.038V23.0608H316.75ZM328.293 26.6768C328.101 26.6768 327.925 26.6555 327.765 26.6128C327.605 26.5808 327.45 26.5435 327.301 26.5008V24.5808C327.376 24.6128 327.456 24.6395 327.541 24.6608C327.626 24.6715 327.722 24.6768 327.829 24.6768C328.128 24.6768 328.362 24.5595 328.533 24.3248C328.714 24.0902 328.826 23.6742 328.869 23.0768C328.88 22.8742 328.89 22.6662 328.901 22.4528C328.912 22.2395 328.922 22.0155 328.933 21.7808C328.944 21.5355 328.954 21.2795 328.965 21.0128L329.093 18.0208H335.909V26.5488H333.525V18.6288L334.405 19.9728H329.797L331.157 18.6288L331.045 21.1888C331.034 21.6048 331.018 21.9782 330.997 22.3088C330.986 22.6288 330.97 22.9808 330.949 23.3648C330.917 24.1542 330.805 24.7942 330.613 25.2848C330.421 25.7755 330.133 26.1328 329.749 26.3568C329.376 26.5702 328.89 26.6768 328.293 26.6768ZM338.119 26.5488V18.0208H340.439V24.2448H340.519L343.207 18.0208H346.407V26.5488H344.103V20.3408H344.023L341.383 26.5488H338.119ZM348.635 26.5488V18.0208H353.163C353.963 18.0208 354.597 18.2182 355.067 18.6128C355.547 18.9968 355.787 19.5195 355.787 20.1808C355.787 20.6395 355.659 21.0235 355.403 21.3328C355.157 21.6422 354.811 21.8502 354.363 21.9568V22.0368C354.96 22.1328 355.424 22.3675 355.755 22.7408C356.096 23.1035 356.267 23.5622 356.267 24.1168C356.267 24.6075 356.133 25.0342 355.867 25.3968C355.6 25.7595 355.232 26.0422 354.763 26.2448C354.293 26.4475 353.744 26.5488 353.115 26.5488H348.635ZM350.987 25.0768H352.475C352.933 25.0768 353.28 24.9808 353.515 24.7888C353.76 24.5862 353.883 24.3088 353.883 23.9568C353.883 23.6048 353.76 23.3328 353.515 23.1408C353.28 22.9488 352.933 22.8528 352.475 22.8528H350.987V25.0768ZM350.987 21.5088H352.331C352.715 21.5088 353.003 21.4235 353.195 21.2528C353.397 21.0715 353.499 20.8262 353.499 20.5168C353.499 20.2075 353.397 19.9622 353.195 19.7808C352.992 19.5888 352.704 19.4928 352.331 19.4928H350.987V21.5088ZM361.962 26.7408C361.077 26.7408 360.303 26.5542 359.642 26.1808C358.981 25.8075 358.469 25.2848 358.106 24.6128C357.743 23.9408 357.562 23.1675 357.562 22.2928C357.562 21.3968 357.743 20.6182 358.106 19.9568C358.469 19.2955 358.981 18.7782 359.642 18.4048C360.303 18.0208 361.077 17.8288 361.962 17.8288C362.847 17.8288 363.621 18.0155 364.282 18.3888C364.943 18.7622 365.455 19.2848 365.818 19.9568C366.181 20.6182 366.362 21.3968 366.362 22.2928C366.362 23.1782 366.181 23.9568 365.818 24.6288C365.455 25.2902 364.943 25.8075 364.282 26.1808C363.621 26.5542 362.847 26.7408 361.962 26.7408ZM361.962 24.9648C362.357 24.9648 362.698 24.8688 362.986 24.6768C363.285 24.4848 363.514 24.1915 363.674 23.7968C363.845 23.3915 363.93 22.8902 363.93 22.2928C363.93 21.6742 363.845 21.1675 363.674 20.7728C363.514 20.3782 363.285 20.0848 362.986 19.8928C362.698 19.7008 362.357 19.6048 361.962 19.6048C361.567 19.6048 361.221 19.7008 360.922 19.8928C360.634 20.0848 360.405 20.3782 360.234 20.7728C360.074 21.1675 359.994 21.6742 359.994 22.2928C359.994 22.9008 360.074 23.4022 360.234 23.7968C360.405 24.1915 360.634 24.4848 360.922 24.6768C361.221 24.8688 361.567 24.9648 361.962 24.9648ZM376.036 26.7408C375.215 26.7408 374.484 26.5595 373.844 26.1968C373.215 25.8235 372.719 25.3062 372.356 24.6448C371.993 23.9728 371.812 23.1835 371.812 22.2768C371.812 21.3702 371.993 20.5862 372.356 19.9248C372.719 19.2528 373.215 18.7355 373.844 18.3728C374.484 18.0102 375.209 17.8288 376.02 17.8288C376.991 17.8288 377.791 18.0315 378.42 18.4368C379.06 18.8315 379.513 19.4288 379.78 20.2288L377.716 20.9008C377.567 20.4528 377.353 20.1275 377.076 19.9248C376.799 19.7115 376.457 19.6048 376.052 19.6048C375.7 19.6048 375.385 19.7062 375.108 19.9088C374.831 20.1008 374.607 20.3995 374.436 20.8048C374.276 21.1995 374.196 21.6902 374.196 22.2768C374.196 22.8635 374.276 23.3595 374.436 23.7648C374.607 24.1702 374.831 24.4742 375.108 24.6768C375.396 24.8688 375.716 24.9648 376.068 24.9648C376.473 24.9648 376.815 24.8582 377.092 24.6448C377.38 24.4208 377.599 24.0795 377.748 23.6208L379.796 24.2928C379.529 25.0928 379.081 25.7008 378.452 26.1168C377.823 26.5328 377.017 26.7408 376.036 26.7408ZM386.556 26.5488V18.0208H388.924V26.5488H386.556ZM381.26 26.5488V18.0208H383.628V26.5488H381.26ZM382.828 19.9728V18.0208H387.356V19.9728H382.828ZM391.15 29.7488V18.0208H393.39V19.3328H393.47C393.609 19.0342 393.806 18.7728 394.062 18.5488C394.318 18.3248 394.611 18.1488 394.942 18.0208C395.283 17.8928 395.651 17.8288 396.046 17.8288C396.761 17.8288 397.385 18.0102 397.918 18.3728C398.462 18.7355 398.883 19.2528 399.182 19.9248C399.491 20.5862 399.646 21.3755 399.646 22.2928C399.646 23.1995 399.491 23.9888 399.182 24.6608C398.883 25.3222 398.467 25.8342 397.934 26.1968C397.401 26.5595 396.782 26.7408 396.078 26.7408C395.694 26.7408 395.337 26.6768 395.006 26.5488C394.686 26.4208 394.403 26.2448 394.158 26.0208C393.923 25.7968 393.737 25.5408 393.598 25.2528H393.518V29.7488H391.15ZM395.31 24.9648C395.715 24.9648 396.057 24.8582 396.334 24.6448C396.611 24.4208 396.825 24.1115 396.974 23.7168C397.134 23.3115 397.214 22.8368 397.214 22.2928C397.214 21.7382 397.134 21.2635 396.974 20.8688C396.825 20.4635 396.611 20.1542 396.334 19.9408C396.057 19.7168 395.715 19.6048 395.31 19.6048C394.915 19.6048 394.574 19.7168 394.286 19.9408C393.998 20.1542 393.774 20.4635 393.614 20.8688C393.465 21.2635 393.39 21.7382 393.39 22.2928C393.39 22.8262 393.465 23.2955 393.614 23.7008C393.774 24.1062 393.998 24.4208 394.286 24.6448C394.574 24.8582 394.915 24.9648 395.31 24.9648ZM405.431 26.7408C404.545 26.7408 403.772 26.5542 403.111 26.1808C402.449 25.8075 401.937 25.2848 401.575 24.6128C401.212 23.9408 401.031 23.1675 401.031 22.2928C401.031 21.3968 401.212 20.6182 401.575 19.9568C401.937 19.2955 402.449 18.7782 403.111 18.4048C403.772 18.0208 404.545 17.8288 405.431 17.8288C406.316 17.8288 407.089 18.0155 407.751 18.3888C408.412 18.7622 408.924 19.2848 409.287 19.9568C409.649 20.6182 409.831 21.3968 409.831 22.2928C409.831 23.1782 409.649 23.9568 409.287 24.6288C408.924 25.2902 408.412 25.8075 407.751 26.1808C407.089 26.5542 406.316 26.7408 405.431 26.7408ZM405.431 24.9648C405.825 24.9648 406.167 24.8688 406.455 24.6768C406.753 24.4848 406.983 24.1915 407.143 23.7968C407.313 23.3915 407.399 22.8902 407.399 22.2928C407.399 21.6742 407.313 21.1675 407.143 20.7728C406.983 20.3782 406.753 20.0848 406.455 19.8928C406.167 19.7008 405.825 19.6048 405.431 19.6048C405.036 19.6048 404.689 19.7008 404.391 19.8928C404.103 20.0848 403.873 20.3782 403.703 20.7728C403.543 21.1675 403.463 21.6742 403.463 22.2928C403.463 22.9008 403.543 23.4022 403.703 23.7968C403.873 24.1915 404.103 24.4848 404.391 24.6768C404.689 24.8688 405.036 24.9648 405.431 24.9648ZM415.427 26.7408C414.605 26.7408 413.875 26.5595 413.235 26.1968C412.605 25.8235 412.109 25.3062 411.747 24.6448C411.384 23.9728 411.203 23.1835 411.203 22.2768C411.203 21.3702 411.384 20.5862 411.747 19.9248C412.109 19.2528 412.605 18.7355 413.235 18.3728C413.875 18.0102 414.6 17.8288 415.411 17.8288C416.381 17.8288 417.181 18.0315 417.811 18.4368C418.451 18.8315 418.904 19.4288 419.171 20.2288L417.107 20.9008C416.957 20.4528 416.744 20.1275 416.467 19.9248C416.189 19.7115 415.848 19.6048 415.443 19.6048C415.091 19.6048 414.776 19.7062 414.499 19.9088C414.221 20.1008 413.997 20.3995 413.827 20.8048C413.667 21.1995 413.587 21.6902 413.587 22.2768C413.587 22.8635 413.667 23.3595 413.827 23.7648C413.997 24.1702 414.221 24.4742 414.499 24.6768C414.787 24.8688 415.107 24.9648 415.459 24.9648C415.864 24.9648 416.205 24.8582 416.483 24.6448C416.771 24.4208 416.989 24.0795 417.139 23.6208L419.187 24.2928C418.92 25.0928 418.472 25.7008 417.843 26.1168C417.213 26.5328 416.408 26.7408 415.427 26.7408ZM420.65 26.5488V18.0208H422.97V24.2448H423.05L425.738 18.0208H428.938V26.5488H426.634V20.3408H426.554L423.914 26.5488H420.65ZM432.99 26.5488V18.4688H435.358V26.5488H432.99ZM430.414 19.9728V18.0208H437.918V19.9728H430.414ZM439.369 26.5488V18.0208H441.737V20.7088H443.673C444.633 20.7088 445.412 20.9595 446.009 21.4608C446.617 21.9622 446.921 22.6875 446.921 23.6368C446.921 24.5755 446.617 25.2955 446.009 25.7968C445.412 26.2982 444.633 26.5488 443.673 26.5488H439.369ZM441.737 24.8848H443.161C443.609 24.8848 443.945 24.7728 444.169 24.5488C444.393 24.3142 444.505 24.0102 444.505 23.6368C444.505 23.2528 444.393 22.9488 444.169 22.7248C443.945 22.4902 443.609 22.3728 443.161 22.3728H441.737V24.8848Z" fill="#151515"/>
<rect x="473.471" width="170.001" height="42.0973" rx="21.0486" fill="#CCF3DB"/>
<path d="M499.012 18.0208H501.38V26.5488H499.012V18.0208ZM493.716 18.0208H496.084V26.5488H493.716V18.0208ZM495.252 26.5488V24.5968H499.812V26.5488H495.252ZM500.452 28.4688V26.5488H500.212V24.5968H502.676V28.4688H500.452ZM508.057 26.7408C507.172 26.7408 506.404 26.5542 505.753 26.1808C505.103 25.7968 504.601 25.2635 504.249 24.5808C503.897 23.8875 503.721 23.0928 503.721 22.1968C503.721 21.3328 503.903 20.5755 504.265 19.9248C504.639 19.2635 505.145 18.7515 505.785 18.3888C506.425 18.0155 507.151 17.8288 507.961 17.8288C508.793 17.8288 509.513 17.9995 510.121 18.3408C510.729 18.6715 511.193 19.1462 511.513 19.7648C511.844 20.3835 512.009 21.1142 512.009 21.9568C512.009 22.1062 512.004 22.2662 511.993 22.4368C511.983 22.5968 511.967 22.7302 511.945 22.8368H504.857V21.3808H510.345L509.753 21.5728C509.764 21.0928 509.695 20.6928 509.545 20.3728C509.407 20.0528 509.204 19.8128 508.937 19.6528C508.671 19.4822 508.34 19.3968 507.945 19.3968C507.572 19.3968 507.241 19.4768 506.953 19.6368C506.665 19.7968 506.441 20.0475 506.281 20.3888C506.121 20.7195 506.041 21.1462 506.041 21.6688V22.6608C506.041 23.3222 506.223 23.8715 506.585 24.3088C506.948 24.7462 507.487 24.9648 508.201 24.9648C508.585 24.9648 508.948 24.8848 509.289 24.7248C509.631 24.5542 509.913 24.2875 510.137 23.9248L511.833 24.9808C511.62 25.3542 511.337 25.6742 510.985 25.9408C510.633 26.1968 510.212 26.3942 509.721 26.5328C509.231 26.6715 508.676 26.7408 508.057 26.7408ZM519.14 26.5488V18.0208H521.508V26.5488H519.14ZM513.7 26.5488V18.0208H516.068V26.5488H513.7ZM515.22 23.0608V21.1088H519.988V23.0608H515.22ZM523.731 26.5488V18.0208H526.099V20.7088H528.035C528.995 20.7088 529.774 20.9595 530.371 21.4608C530.979 21.9622 531.283 22.6875 531.283 23.6368C531.283 24.5755 530.979 25.2955 530.371 25.7968C529.774 26.2982 528.995 26.5488 528.035 26.5488H523.731ZM526.099 24.8848H527.523C527.971 24.8848 528.307 24.7728 528.531 24.5488C528.755 24.3142 528.867 24.0102 528.867 23.6368C528.867 23.2528 528.755 22.9488 528.531 22.7248C528.307 22.4902 527.971 22.3728 527.523 22.3728H526.099V24.8848ZM532.515 26.5488V18.0208H534.883V26.5488H532.515ZM541.2 26.5488V18.0208H543.52V24.2448H543.6L546.288 18.0208H549.488V26.5488H547.184V20.3408H547.104L544.464 26.5488H541.2ZM561.121 26.5488V18.0208H563.489V26.5488H561.121ZM555.825 26.5488V18.0208H558.193V26.5488H555.825ZM557.393 19.9728V18.0208H561.921V19.9728H557.393ZM569.684 26.7408C568.798 26.7408 568.025 26.5542 567.364 26.1808C566.702 25.8075 566.19 25.2848 565.828 24.6128C565.465 23.9408 565.284 23.1675 565.284 22.2928C565.284 21.3968 565.465 20.6182 565.828 19.9568C566.19 19.2955 566.702 18.7782 567.364 18.4048C568.025 18.0208 568.798 17.8288 569.684 17.8288C570.569 17.8288 571.342 18.0155 572.004 18.3888C572.665 18.7622 573.177 19.2848 573.54 19.9568C573.902 20.6182 574.084 21.3968 574.084 22.2928C574.084 23.1782 573.902 23.9568 573.54 24.6288C573.177 25.2902 572.665 25.8075 572.004 26.1808C571.342 26.5542 570.569 26.7408 569.684 26.7408ZM569.684 24.9648C570.078 24.9648 570.42 24.8688 570.708 24.6768C571.006 24.4848 571.236 24.1915 571.396 23.7968C571.566 23.3915 571.652 22.8902 571.652 22.2928C571.652 21.6742 571.566 21.1675 571.396 20.7728C571.236 20.3782 571.006 20.0848 570.708 19.8928C570.42 19.7008 570.078 19.6048 569.684 19.6048C569.289 19.6048 568.942 19.7008 568.644 19.8928C568.356 20.0848 568.126 20.3782 567.956 20.7728C567.796 21.1675 567.716 21.6742 567.716 22.2928C567.716 22.9008 567.796 23.4022 567.956 23.7968C568.126 24.1915 568.356 24.4848 568.644 24.6768C568.942 24.8688 569.289 24.9648 569.684 24.9648ZM581.504 26.5488L578.848 22.0048L581.392 18.0208H584.048L580.704 22.6288L580.48 20.6768L584.16 26.5488H581.504ZM575.856 26.5488V18.0208H578.224V26.5488H575.856ZM576.848 23.0768V20.9968H580.08V23.0768H576.848ZM587.364 29.7488L588.644 26.1488L589.332 25.0768L591.284 18.0208H593.764L589.716 29.7488H587.364ZM588.004 26.5328L584.932 18.0208H587.412L589.412 24.7568H590.1L590.052 26.5328H588.004ZM600.465 26.5488V18.0208H602.833V26.5488H600.465ZM595.169 26.5488V18.0208H597.537V26.5488H595.169ZM596.737 19.9728V18.0208H601.265V19.9728H596.737ZM610.708 26.5488L608.052 22.0048L610.596 18.0208H613.252L609.908 22.6288L609.684 20.6768L613.364 26.5488H610.708ZM605.06 26.5488V18.0208H607.428V26.5488H605.06ZM606.052 23.0768V20.9968H609.284V23.0768H606.052ZM614.919 26.5488V18.0208H617.239V24.2448H617.319L620.007 18.0208H623.207V26.5488H620.903V20.3408H620.823L618.183 26.5488H614.919Z" fill="#151515"/>
<rect x="653.581" width="180.644" height="42.0973" rx="21.0486" fill="#E1C7F4"/>
<path d="M675.389 26.5488L672.733 22.0048L675.277 18.0208H677.933L674.589 22.6288L674.365 20.6768L678.045 26.5488H675.389ZM669.741 26.5488V18.0208H672.109V26.5488H669.741ZM670.733 23.0768V20.9968H673.965V23.0768H670.733ZM681.704 26.7408C680.851 26.7408 680.168 26.5115 679.656 26.0528C679.144 25.5942 678.888 24.9915 678.888 24.2448C678.888 23.5302 679.133 22.9435 679.624 22.4848C680.115 22.0155 680.893 21.7062 681.96 21.5568L684.824 21.1248V22.4528L682.584 22.8208C682.115 22.8955 681.757 23.0342 681.512 23.2368C681.277 23.4288 681.16 23.7115 681.16 24.0848C681.16 24.4048 681.267 24.6662 681.48 24.8688C681.704 25.0608 682.013 25.1568 682.408 25.1568C682.749 25.1568 683.043 25.0822 683.288 24.9328C683.533 24.7728 683.725 24.5542 683.864 24.2768C684.003 23.9888 684.072 23.6475 684.072 23.2528V20.8208C684.072 20.4155 683.96 20.0955 683.736 19.8608C683.512 19.6262 683.176 19.5088 682.728 19.5088C682.344 19.5088 682.029 19.5995 681.784 19.7808C681.549 19.9622 681.379 20.2395 681.272 20.6128L679.128 20.1808C679.341 19.4235 679.779 18.8422 680.44 18.4368C681.112 18.0315 681.907 17.8288 682.824 17.8288C684.04 17.8288 684.936 18.1168 685.512 18.6928C686.099 19.2582 686.392 20.0315 686.392 21.0128V24.9488L687 26.5488H684.584L684.2 25.4288H684.104C683.869 25.8448 683.544 26.1702 683.128 26.4048C682.723 26.6288 682.248 26.7408 681.704 26.7408ZM692.999 26.7408C692.029 26.7408 691.186 26.5488 690.471 26.1648C689.757 25.7808 689.202 25.2528 688.807 24.5808C688.413 23.9088 688.215 23.1408 688.215 22.2768C688.215 21.4128 688.413 20.6448 688.807 19.9728C689.202 19.3008 689.757 18.7782 690.471 18.4048C691.186 18.0208 692.029 17.8288 692.999 17.8288H695.319C696.29 17.8288 697.127 18.0208 697.831 18.4048C698.546 18.7782 699.101 19.3008 699.495 19.9728C699.89 20.6448 700.087 21.4128 700.087 22.2768C700.087 23.1408 699.89 23.9088 699.495 24.5808C699.101 25.2528 698.546 25.7808 697.831 26.1648C697.127 26.5488 696.29 26.7408 695.319 26.7408H692.999ZM693.047 24.9968H695.271C695.751 24.9968 696.167 24.8955 696.519 24.6928C696.882 24.4795 697.159 24.1702 697.351 23.7648C697.554 23.3595 697.655 22.8688 697.655 22.2928C697.655 21.7062 697.554 21.2102 697.351 20.8048C697.159 20.3995 696.882 20.0955 696.519 19.8928C696.167 19.6795 695.751 19.5728 695.271 19.5728H693.047C692.557 19.5728 692.13 19.6795 691.767 19.8928C691.415 20.0955 691.138 20.3995 690.935 20.8048C690.743 21.2102 690.647 21.7062 690.647 22.2928C690.647 22.8688 690.743 23.3595 690.935 23.7648C691.138 24.1702 691.415 24.4795 691.767 24.6928C692.13 24.8955 692.557 24.9968 693.047 24.9968ZM692.967 29.7488V26.1808L693.031 25.6848V18.8048L692.967 18.4688V14.8848H695.335V18.4528L695.271 18.8048V25.6528L695.335 26.0208V29.7488H692.967ZM705.801 26.7408C704.916 26.7408 704.148 26.5542 703.497 26.1808C702.847 25.7968 702.345 25.2635 701.993 24.5808C701.641 23.8875 701.465 23.0928 701.465 22.1968C701.465 21.3328 701.647 20.5755 702.009 19.9248C702.383 19.2635 702.889 18.7515 703.529 18.3888C704.169 18.0155 704.895 17.8288 705.705 17.8288C706.537 17.8288 707.257 17.9995 707.865 18.3408C708.473 18.6715 708.937 19.1462 709.257 19.7648C709.588 20.3835 709.753 21.1142 709.753 21.9568C709.753 22.1062 709.748 22.2662 709.737 22.4368C709.727 22.5968 709.711 22.7302 709.689 22.8368H702.601V21.3808H708.089L707.497 21.5728C707.508 21.0928 707.439 20.6928 707.289 20.3728C707.151 20.0528 706.948 19.8128 706.681 19.6528C706.415 19.4822 706.084 19.3968 705.689 19.3968C705.316 19.3968 704.985 19.4768 704.697 19.6368C704.409 19.7968 704.185 20.0475 704.025 20.3888C703.865 20.7195 703.785 21.1462 703.785 21.6688V22.6608C703.785 23.3222 703.967 23.8715 704.329 24.3088C704.692 24.7462 705.231 24.9648 705.945 24.9648C706.329 24.9648 706.692 24.8848 707.033 24.7248C707.375 24.5542 707.657 24.2875 707.881 23.9248L709.577 24.9808C709.364 25.3542 709.081 25.6742 708.729 25.9408C708.377 26.1968 707.956 26.3942 707.465 26.5328C706.975 26.6715 706.42 26.7408 705.801 26.7408ZM715.554 26.5488V18.0208H717.874V24.2448H717.954L720.642 18.0208H723.842V26.5488H721.538V20.3408H721.458L718.818 26.5488H715.554ZM730.179 29.7488V18.0208H732.419V19.3328H732.499C732.637 19.0342 732.835 18.7728 733.091 18.5488C733.347 18.3248 733.64 18.1488 733.971 18.0208C734.312 17.8928 734.68 17.8288 735.075 17.8288C735.789 17.8288 736.413 18.0102 736.947 18.3728C737.491 18.7355 737.912 19.2528 738.211 19.9248C738.52 20.5862 738.675 21.3755 738.675 22.2928C738.675 23.1995 738.52 23.9888 738.211 24.6608C737.912 25.3222 737.496 25.8342 736.963 26.1968C736.429 26.5595 735.811 26.7408 735.107 26.7408C734.723 26.7408 734.365 26.6768 734.035 26.5488C733.715 26.4208 733.432 26.2448 733.187 26.0208C732.952 25.7968 732.765 25.5408 732.627 25.2528H732.547V29.7488H730.179ZM734.339 24.9648C734.744 24.9648 735.085 24.8582 735.363 24.6448C735.64 24.4208 735.853 24.1115 736.003 23.7168C736.163 23.3115 736.243 22.8368 736.243 22.2928C736.243 21.7382 736.163 21.2635 736.003 20.8688C735.853 20.4635 735.64 20.1542 735.363 19.9408C735.085 19.7168 734.744 19.6048 734.339 19.6048C733.944 19.6048 733.603 19.7168 733.315 19.9408C733.027 20.1542 732.803 20.4635 732.643 20.8688C732.493 21.2635 732.419 21.7382 732.419 22.2928C732.419 22.8262 732.493 23.2955 732.643 23.7008C732.803 24.1062 733.027 24.4208 733.315 24.6448C733.603 24.8582 733.944 24.9648 734.339 24.9648ZM744.395 26.7408C743.51 26.7408 742.742 26.5542 742.091 26.1808C741.441 25.7968 740.939 25.2635 740.587 24.5808C740.235 23.8875 740.059 23.0928 740.059 22.1968C740.059 21.3328 740.241 20.5755 740.603 19.9248C740.977 19.2635 741.483 18.7515 742.123 18.3888C742.763 18.0155 743.489 17.8288 744.299 17.8288C745.131 17.8288 745.851 17.9995 746.459 18.3408C747.067 18.6715 747.531 19.1462 747.851 19.7648C748.182 20.3835 748.347 21.1142 748.347 21.9568C748.347 22.1062 748.342 22.2662 748.331 22.4368C748.321 22.5968 748.305 22.7302 748.283 22.8368H741.195V21.3808H746.683L746.091 21.5728C746.102 21.0928 746.033 20.6928 745.883 20.3728C745.745 20.0528 745.542 19.8128 745.275 19.6528C745.009 19.4822 744.678 19.3968 744.283 19.3968C743.91 19.3968 743.579 19.4768 743.291 19.6368C743.003 19.7968 742.779 20.0475 742.619 20.3888C742.459 20.7195 742.379 21.1462 742.379 21.6688V22.6608C742.379 23.3222 742.561 23.8715 742.923 24.3088C743.286 24.7462 743.825 24.9648 744.539 24.9648C744.923 24.9648 745.286 24.8848 745.627 24.7248C745.969 24.5542 746.251 24.2875 746.475 23.9248L748.171 24.9808C747.958 25.3542 747.675 25.6742 747.323 25.9408C746.971 26.1968 746.55 26.3942 746.059 26.5328C745.569 26.6715 745.014 26.7408 744.395 26.7408ZM753.83 26.7408C753.009 26.7408 752.278 26.5595 751.638 26.1968C751.009 25.8235 750.513 25.3062 750.15 24.6448C749.787 23.9728 749.606 23.1835 749.606 22.2768C749.606 21.3702 749.787 20.5862 750.15 19.9248C750.513 19.2528 751.009 18.7355 751.638 18.3728C752.278 18.0102 753.003 17.8288 753.814 17.8288C754.785 17.8288 755.585 18.0315 756.214 18.4368C756.854 18.8315 757.307 19.4288 757.574 20.2288L755.51 20.9008C755.361 20.4528 755.147 20.1275 754.87 19.9248C754.593 19.7115 754.251 19.6048 753.846 19.6048C753.494 19.6048 753.179 19.7062 752.902 19.9088C752.625 20.1008 752.401 20.3995 752.23 20.8048C752.07 21.1995 751.99 21.6902 751.99 22.2768C751.99 22.8635 752.07 23.3595 752.23 23.7648C752.401 24.1702 752.625 24.4742 752.902 24.6768C753.19 24.8688 753.51 24.9648 753.862 24.9648C754.267 24.9648 754.609 24.8582 754.886 24.6448C755.174 24.4208 755.393 24.0795 755.542 23.6208L757.59 24.2928C757.323 25.0928 756.875 25.7008 756.246 26.1168C755.617 26.5328 754.811 26.7408 753.83 26.7408ZM761.018 26.5488V18.4688H763.386V26.5488H761.018ZM758.442 19.9728V18.0208H765.946V19.9728H758.442ZM771.084 26.7408C770.199 26.7408 769.426 26.5542 768.764 26.1808C768.103 25.8075 767.591 25.2848 767.228 24.6128C766.866 23.9408 766.684 23.1675 766.684 22.2928C766.684 21.3968 766.866 20.6182 767.228 19.9568C767.591 19.2955 768.103 18.7782 768.764 18.4048C769.426 18.0208 770.199 17.8288 771.084 17.8288C771.97 17.8288 772.743 18.0155 773.404 18.3888C774.066 18.7622 774.578 19.2848 774.94 19.9568C775.303 20.6182 775.484 21.3968 775.484 22.2928C775.484 23.1782 775.303 23.9568 774.94 24.6288C774.578 25.2902 774.066 25.8075 773.404 26.1808C772.743 26.5542 771.97 26.7408 771.084 26.7408ZM771.084 24.9648C771.479 24.9648 771.82 24.8688 772.108 24.6768C772.407 24.4848 772.636 24.1915 772.796 23.7968C772.967 23.3915 773.052 22.8902 773.052 22.2928C773.052 21.6742 772.967 21.1675 772.796 20.7728C772.636 20.3782 772.407 20.0848 772.108 19.8928C771.82 19.7008 771.479 19.6048 771.084 19.6048C770.69 19.6048 770.343 19.7008 770.044 19.8928C769.756 20.0848 769.527 20.3782 769.356 20.7728C769.196 21.1675 769.116 21.6742 769.116 22.2928C769.116 22.9008 769.196 23.4022 769.356 23.7968C769.527 24.1915 769.756 24.4848 770.044 24.6768C770.343 24.8688 770.69 24.9648 771.084 24.9648ZM777.257 29.7488V18.0208H779.497V19.3328H779.577C779.715 19.0342 779.913 18.7728 780.169 18.5488C780.425 18.3248 780.718 18.1488 781.049 18.0208C781.39 17.8928 781.758 17.8288 782.153 17.8288C782.867 17.8288 783.491 18.0102 784.025 18.3728C784.569 18.7355 784.99 19.2528 785.289 19.9248C785.598 20.5862 785.753 21.3755 785.753 22.2928C785.753 23.1995 785.598 23.9888 785.289 24.6608C784.99 25.3222 784.574 25.8342 784.041 26.1968C783.507 26.5595 782.889 26.7408 782.185 26.7408C781.801 26.7408 781.443 26.6768 781.113 26.5488C780.793 26.4208 780.51 26.2448 780.265 26.0208C780.03 25.7968 779.843 25.5408 779.705 25.2528H779.625V29.7488H777.257ZM781.417 24.9648C781.822 24.9648 782.163 24.8582 782.441 24.6448C782.718 24.4208 782.931 24.1115 783.081 23.7168C783.241 23.3115 783.321 22.8368 783.321 22.2928C783.321 21.7382 783.241 21.2635 783.081 20.8688C782.931 20.4635 782.718 20.1542 782.441 19.9408C782.163 19.7168 781.822 19.6048 781.417 19.6048C781.022 19.6048 780.681 19.7168 780.393 19.9408C780.105 20.1542 779.881 20.4635 779.721 20.8688C779.571 21.2635 779.497 21.7382 779.497 22.2928C779.497 22.8262 779.571 23.2955 779.721 23.7008C779.881 24.1062 780.105 24.4208 780.393 24.6448C780.681 24.8582 781.022 24.9648 781.417 24.9648ZM789.938 26.7408C789.085 26.7408 788.402 26.5115 787.89 26.0528C787.378 25.5942 787.122 24.9915 787.122 24.2448C787.122 23.5302 787.368 22.9435 787.858 22.4848C788.349 22.0155 789.128 21.7062 790.194 21.5568L793.058 21.1248V22.4528L790.818 22.8208C790.349 22.8955 789.992 23.0342 789.746 23.2368C789.512 23.4288 789.394 23.7115 789.394 24.0848C789.394 24.4048 789.501 24.6662 789.714 24.8688C789.938 25.0608 790.248 25.1568 790.642 25.1568C790.984 25.1568 791.277 25.0822 791.522 24.9328C791.768 24.7728 791.96 24.5542 792.098 24.2768C792.237 23.9888 792.306 23.6475 792.306 23.2528V20.8208C792.306 20.4155 792.194 20.0955 791.97 19.8608C791.746 19.6262 791.41 19.5088 790.962 19.5088C790.578 19.5088 790.264 19.5995 790.018 19.7808C789.784 19.9622 789.613 20.2395 789.506 20.6128L787.362 20.1808C787.576 19.4235 788.013 18.8422 788.674 18.4368C789.346 18.0315 790.141 17.8288 791.058 17.8288C792.274 17.8288 793.17 18.1168 793.746 18.6928C794.333 19.2582 794.626 20.0315 794.626 21.0128V24.9488L795.234 26.5488H792.818L792.434 25.4288H792.338C792.104 25.8448 791.778 26.1702 791.362 26.4048C790.957 26.6288 790.482 26.7408 789.938 26.7408ZM802.322 26.5488V18.0208H804.69V26.5488H802.322ZM796.882 26.5488V18.0208H799.25V26.5488H796.882ZM798.402 23.0608V21.1088H803.17V23.0608H798.402ZM806.913 26.5488V18.0208H809.281V20.7088H811.217C812.177 20.7088 812.956 20.9595 813.553 21.4608C814.161 21.9622 814.465 22.6875 814.465 23.6368C814.465 24.5755 814.161 25.2955 813.553 25.7968C812.956 26.2982 812.177 26.5488 811.217 26.5488H806.913ZM809.281 24.8848H810.705C811.153 24.8848 811.489 24.7728 811.713 24.5488C811.937 24.3142 812.049 24.0102 812.049 23.6368C812.049 23.2528 811.937 22.9488 811.713 22.7248C811.489 22.4902 811.153 22.3728 810.705 22.3728H809.281V24.8848ZM815.697 26.5488V18.0208H818.065V26.5488H815.697Z" fill="#151515"/>
</svg>
