<svg width="172" height="48" viewBox="0 0 172 48" fill="none" xmlns="http://www.w3.org/2000/svg">
<rect y="5.93302" width="170.448" height="42.0973" rx="21.0486" transform="rotate(-1.99477 0 5.93302)" fill="#E8F1FE"/>
<path d="M25.2236 26.8804L21.43 20.4645L24.1644 20.3693L27.1604 25.9484L26.5527 25.9696L29.1533 20.1955L31.8717 20.1009L28.5496 26.7645L25.2236 26.8804ZM25.8202 31.5985L25.6086 25.5222L28.0551 25.4369L28.2667 31.5133L25.8202 31.5985ZM36.198 31.4291C35.3132 31.46 34.5338 31.3003 33.8599 30.9502C33.186 30.6001 32.6561 30.0956 32.2703 29.4366C31.8844 28.7777 31.6763 28.0111 31.6458 27.137C31.6146 26.2415 31.7688 25.457 32.1082 24.7835C32.4476 24.1099 32.9413 23.5751 33.5892 23.1789C34.2368 22.7722 35.003 22.5534 35.8878 22.5225C36.7726 22.4917 37.5519 22.6514 38.2259 23.0014C38.8998 23.3515 39.4297 23.8561 39.8155 24.515C40.201 25.1633 40.4093 25.9352 40.4405 26.8307C40.4713 27.7155 40.3172 28.5 39.9781 29.1842C39.6387 29.8578 39.145 30.3926 38.4971 30.7887C37.8492 31.1848 37.0828 31.3983 36.198 31.4291ZM36.1362 29.6542C36.5306 29.6405 36.8684 29.5327 37.1495 29.3307C37.4413 29.1285 37.6603 28.8273 37.8065 28.4273C37.9629 28.0163 38.0308 27.5123 38.01 26.9153C37.9884 26.297 37.8855 25.7936 37.7012 25.4052C37.5276 25.0163 37.2882 24.7311 36.983 24.5496C36.6885 24.3678 36.344 24.2837 35.9496 24.2975C35.5552 24.3112 35.2121 24.4192 34.9203 24.6215C34.6391 24.8234 34.4201 25.1245 34.2633 25.5249C34.1171 25.9249 34.0548 26.434 34.0764 27.0523C34.0975 27.66 34.1949 28.1582 34.3686 28.5471C34.5529 28.9356 34.7923 29.2207 35.0868 29.4026C35.392 29.5841 35.7417 29.6679 36.1362 29.6542ZM46.0766 31.0851C45.2984 31.1122 44.6226 31.013 44.049 30.7875C43.4751 30.5513 43.0245 30.1774 42.6972 29.6658C42.3698 29.1543 42.1923 28.4987 42.1644 27.6992L41.9834 22.5023L44.35 22.4199L44.5282 27.5368C44.5482 28.1125 44.6805 28.5401 44.9251 28.8198C45.1803 29.0991 45.5424 29.2305 46.0115 29.2142C46.4485 29.199 46.7847 29.0432 47.0198 28.7468C47.2656 28.4501 47.3785 28.0139 47.3585 27.4382L47.1803 22.3213L49.5468 22.2389L49.7278 27.4358C49.7557 28.2353 49.6241 28.9016 49.3332 29.4347C49.0422 29.9678 48.6134 30.3723 48.0466 30.6482C47.4902 30.9131 46.8335 31.0587 46.0766 31.0851ZM56.0862 30.5443L55.7894 22.0215L57.9801 21.9452L58.0335 23.4803L58.1135 23.4775C58.2445 22.9499 58.5019 22.5247 58.8856 22.2018C59.2795 21.8679 59.7483 21.6915 60.292 21.6726C60.3879 21.6692 60.4787 21.6714 60.5644 21.6791C60.6497 21.6761 60.7247 21.6842 60.7894 21.7033L60.8651 23.8779C60.7677 23.8386 60.6495 23.8161 60.5105 23.8102C60.3716 23.8044 60.2115 23.8046 60.0303 23.811C59.6678 23.8236 59.3561 23.9145 59.0952 24.0837C58.8339 24.2422 58.6283 24.4682 58.4784 24.7616C58.3392 25.0546 58.2766 25.4036 58.2907 25.8087L58.4528 30.4619L56.0862 30.5443ZM66.2408 30.3828C65.356 30.4136 64.582 30.2538 63.9187 29.9033C63.255 29.5422 62.7355 29.0266 62.3599 28.3566C61.984 27.676 61.7804 26.8879 61.7492 25.9924C61.7192 25.129 61.874 24.3658 62.2138 23.7029C62.5639 23.029 63.0524 22.4996 63.6794 22.1149C64.3061 21.7195 65.0245 21.5077 65.8346 21.4795C66.6661 21.4505 67.3916 21.596 68.0111 21.916C68.6303 22.2253 69.1105 22.6835 69.4519 23.2907C69.8039 23.8975 69.9945 24.6219 70.0239 25.4641C70.0291 25.6133 70.0293 25.7734 70.0246 25.9444C70.0195 26.1046 70.0081 26.2385 69.9905 26.3458L62.9068 26.5925L62.8561 25.1374L68.3408 24.9464L67.7559 25.1589C67.7498 24.6788 67.6666 24.2814 67.5062 23.9668C67.3565 23.6518 67.1456 23.419 66.8735 23.2684C66.6011 23.1071 66.2676 23.0334 65.8732 23.0471C65.5001 23.0601 65.1724 23.1516 64.8902 23.3215C64.6079 23.4914 64.3928 23.7497 64.2448 24.0964C64.0964 24.4325 64.0313 24.8617 64.0495 25.384L64.084 26.3754C64.107 27.0363 64.3073 27.579 64.685 28.0035C65.0627 28.4279 65.6086 28.6277 66.3229 28.6028C66.7066 28.5895 67.0663 28.4969 67.4019 28.3251C67.737 28.1427 68.0103 27.8663 68.2215 27.4961L69.9532 28.4924C69.753 28.8729 69.4817 29.2026 69.1392 29.4813C68.7963 29.7494 68.3821 29.9613 67.8965 30.117C67.411 30.2726 66.8591 30.3612 66.2408 30.3828ZM71.9849 33.1925L71.5767 21.4716L73.8154 21.3937L73.861 22.7049L73.941 22.7021C74.0692 22.3988 74.2573 22.1307 74.5053 21.8979C74.7534 21.6652 75.0404 21.4791 75.3664 21.3396C75.7031 21.1998 76.0686 21.1231 76.4631 21.1093C77.1773 21.0844 77.8072 21.244 78.3529 21.5878C78.9092 21.9313 79.3482 22.4337 79.6701 23.0949C80.0023 23.7451 80.1843 24.5285 80.2163 25.4453C80.2478 26.3514 80.1207 27.1457 79.835 27.828C79.5595 28.4994 79.1616 29.0255 78.6412 29.4065C78.1208 29.7875 77.5088 29.9903 76.8052 30.0148C76.4215 30.0282 76.0621 29.9767 75.7272 29.8602C75.403 29.7435 75.1143 29.5774 74.8614 29.3621C74.619 29.1464 74.4236 28.897 74.275 28.614L74.195 28.6168L74.3515 33.1101L71.9849 33.1925ZM75.9759 28.2666C76.381 28.2525 76.7184 28.134 76.9881 27.9112C77.2575 27.6777 77.4599 27.3611 77.5954 26.9615C77.7412 26.5508 77.8047 26.0736 77.7857 25.53C77.7664 24.9756 77.67 24.504 77.4963 24.1152C77.333 23.7153 77.109 23.4136 76.8244 23.21C76.5394 22.9958 76.1944 22.8958 75.7893 22.9099C75.3949 22.9236 75.0577 23.0474 74.7776 23.2813C74.4972 23.5045 74.2841 23.8215 74.1383 24.2321C74.0028 24.6318 73.9447 25.1087 73.9641 25.6631C73.9826 26.1961 74.0736 26.6625 74.2369 27.0624C74.4109 27.4619 74.6458 27.7686 74.9414 27.9825C75.2366 28.1856 75.5815 28.2804 75.9759 28.2666ZM86.0881 29.6915C85.2033 29.7223 84.4293 29.5625 83.766 29.212C83.1024 28.8509 82.5828 28.3354 82.2072 27.6654C81.8313 26.9847 81.6278 26.1966 81.5966 25.3012C81.5665 24.4377 81.7214 23.6745 82.0612 23.0116C82.4113 22.3377 82.8998 21.8084 83.5268 21.4236C84.1534 21.0283 84.8718 20.8165 85.682 20.7882C86.5135 20.7593 87.239 20.9048 87.8585 21.2247C88.4776 21.534 88.9579 21.9923 89.2992 22.5994C89.6512 23.2062 89.8419 23.9307 89.8712 24.7728C89.8764 24.9221 89.8766 25.0822 89.8719 25.2531C89.8668 25.4134 89.8555 25.5472 89.8379 25.6545L82.7542 25.9012L82.7035 24.4461L88.1882 24.2551L87.6032 24.4676C87.5972 23.9875 87.5139 23.5902 87.3536 23.2756C87.2038 22.9606 86.9929 22.7278 86.7209 22.5772C86.4484 22.4159 86.115 22.3421 85.7206 22.3558C85.3475 22.3688 85.0198 22.4603 84.7375 22.6302C84.4553 22.8002 84.2401 23.0585 84.0921 23.4052C83.9437 23.7412 83.8786 24.1704 83.8968 24.6927L83.9313 25.6841C83.9543 26.3451 84.1547 26.8878 84.5324 27.3122C84.91 27.7367 85.456 27.9364 86.1702 27.9116C86.554 27.8982 86.9136 27.8056 87.2492 27.6338C87.5844 27.4514 87.8576 27.175 88.0688 26.8048L89.8006 27.8011C89.6004 28.1817 89.329 28.5113 88.9865 28.7901C88.6436 29.0582 88.2294 29.27 87.7439 29.4257C87.2583 29.5814 86.7064 29.67 86.0881 29.6915ZM94.1421 29.411C93.2893 29.4407 92.5991 29.2353 92.0714 28.7947C91.5438 28.3541 91.2669 27.7607 91.2409 27.0145C91.2161 26.3003 91.4408 25.7054 91.9152 25.23C92.3893 24.7438 93.1567 24.4076 94.2175 24.2212L97.0647 23.6898L97.111 25.017L94.8851 25.4627C94.4187 25.5537 94.0664 25.7047 93.8283 25.9158C93.6004 26.1158 93.493 26.4024 93.506 26.7755C93.5171 27.0953 93.6328 27.3528 93.8531 27.5479C94.0836 27.732 94.3961 27.8172 94.7906 27.8034C95.1317 27.7916 95.4222 27.7067 95.6622 27.5489C95.9018 27.3805 96.0861 27.1553 96.215 26.8733C96.3436 26.5806 96.401 26.2371 96.3873 25.8427L96.3026 23.4121C96.2885 23.0071 96.1654 22.6911 95.9334 22.4644C95.7014 22.2377 95.3615 22.1321 94.9138 22.1477C94.53 22.1611 94.2187 22.2626 93.9798 22.4524C93.7516 22.6418 93.5907 22.9249 93.4971 23.3017L91.3393 22.9446C91.5262 22.1803 91.943 21.5841 92.5898 21.156C93.2473 20.7275 94.0344 20.4973 94.9512 20.4654C96.1665 20.4231 97.072 20.6797 97.6677 21.2353C98.2737 21.7799 98.5937 22.5425 98.6279 23.5233L98.7649 27.4569L99.4282 29.0348L97.0137 29.1188L96.5909 28.0129L96.495 28.0162C96.2749 28.4402 95.9611 28.7766 95.5536 29.0256C95.1563 29.2636 94.6858 29.392 94.1421 29.411ZM104.329 29.0242C103.498 29.0531 102.856 28.8727 102.405 28.4828C101.954 28.0823 101.714 27.4876 101.687 26.6987L101.409 18.7356L103.74 17.6297L104.041 26.2645C104.052 26.5737 104.134 26.8003 104.289 26.9443C104.443 27.0883 104.659 27.1555 104.936 27.1459C105.043 27.1422 105.155 27.1329 105.271 27.1182C105.388 27.0928 105.515 27.0564 105.652 27.0089L105.712 28.7358C105.48 28.8293 105.253 28.8959 105.031 28.9357C104.808 28.9861 104.574 29.0156 104.329 29.0242ZM100.167 22.1249L100.109 20.4779L105.434 20.2924L105.491 21.9394L100.167 22.1249ZM114.901 28.6559C114.069 28.6849 113.428 28.5045 112.977 28.1146C112.525 27.7141 112.286 27.1194 112.258 26.3305L111.981 18.3673L114.312 17.2615L114.613 25.8963C114.623 26.2055 114.706 26.432 114.86 26.5761C115.015 26.7201 115.231 26.7873 115.508 26.7777C115.615 26.774 115.726 26.7647 115.843 26.75C115.96 26.7246 116.086 26.6882 116.224 26.6407L116.284 28.3676C116.052 28.4611 115.825 28.5277 115.602 28.5675C115.38 28.6179 115.146 28.6474 114.901 28.6559ZM110.738 21.7567L110.681 20.1097L116.006 19.9242L116.063 21.5712L110.738 21.7567ZM118.017 28.3873L117.611 16.7304L119.978 16.6479L120.127 20.9174L120.207 20.9146C120.416 20.491 120.719 20.1549 121.116 19.9063C121.524 19.6573 121.994 19.5235 122.527 19.5049C123.113 19.4845 123.624 19.5842 124.058 19.8038C124.503 20.0125 124.857 20.3524 125.118 20.8235C125.38 21.2841 125.524 21.8874 125.55 22.6336L125.741 28.1183L123.374 28.2007L123.195 23.0518C123.175 22.4869 123.033 22.0702 122.767 21.802C122.501 21.5231 122.155 21.391 121.729 21.4059C121.238 21.423 120.855 21.5911 120.578 21.9103C120.311 22.2291 120.188 22.6763 120.208 23.2519L120.384 28.3049L118.017 28.3873ZM131.779 28.1001C130.894 28.1309 130.12 27.9711 129.457 27.6206C128.793 27.2595 128.274 26.744 127.898 26.074C127.522 25.3933 127.319 24.6052 127.288 23.7098C127.258 22.8463 127.412 22.0831 127.752 21.4202C128.102 20.7463 128.591 20.217 129.218 19.8322C129.844 19.4369 130.563 19.2251 131.373 19.1968C132.205 19.1679 132.93 19.3134 133.55 19.6334C134.169 19.9427 134.649 20.4009 134.99 21.008C135.342 21.6148 135.533 22.3393 135.562 23.1814C135.567 23.3307 135.568 23.4908 135.563 23.6617C135.558 23.822 135.547 23.9558 135.529 24.0631L128.445 24.3099L128.395 22.8547L133.879 22.6637L133.294 22.8762C133.288 22.3961 133.205 21.9988 133.045 21.6842C132.895 21.3692 132.684 21.1364 132.412 20.9858C132.139 20.8245 131.806 20.7507 131.412 20.7645C131.038 20.7774 130.711 20.8689 130.429 21.0388C130.146 21.2088 129.931 21.4671 129.783 21.8138C129.635 22.1498 129.57 22.579 129.588 23.1014L129.622 24.0928C129.645 24.7537 129.846 25.2964 130.223 25.7208C130.601 26.1453 131.147 26.345 131.861 26.3202C132.245 26.3068 132.605 26.2142 132.94 26.0424C133.275 25.86 133.549 25.5837 133.76 25.2134L135.492 26.2097C135.291 26.5903 135.02 26.9199 134.678 27.1987C134.335 27.4668 133.92 27.6786 133.435 27.8343C132.949 27.99 132.397 28.0786 131.779 28.1001ZM137.412 27.7118L137.115 19.189L139.29 19.1132L139.335 20.4244L139.415 20.4216C139.623 19.9341 139.924 19.5554 140.32 19.2855C140.727 19.0045 141.202 18.8545 141.746 18.8356C142.343 18.8148 142.848 18.9306 143.263 19.183C143.677 19.4247 143.993 19.7872 144.213 20.2706L144.293 20.2678C144.5 19.7803 144.807 19.396 145.213 19.115C145.631 18.8337 146.111 18.6835 146.655 18.6646C147.198 18.6457 147.677 18.7464 148.09 18.9668C148.503 19.1766 148.824 19.5016 149.053 19.9419C149.292 20.3818 149.423 20.9216 149.445 21.5612L149.645 27.2857L147.278 27.3682L147.095 22.1074C147.077 21.5957 146.951 21.2105 146.718 20.9518C146.495 20.682 146.187 20.554 145.792 20.5678C145.366 20.5826 145.046 20.7379 144.832 21.0335C144.618 21.3291 144.521 21.7434 144.539 22.2764L144.72 27.4573L142.353 27.5397L142.17 22.2789C142.152 21.7672 142.032 21.3818 141.809 21.1227C141.586 20.853 141.278 20.725 140.883 20.7387C140.468 20.7532 140.143 20.9193 139.908 21.237C139.684 21.5436 139.581 21.9581 139.599 22.4805L139.779 27.6294L137.412 27.7118Z" fill="#151515"/>
</svg>
