<svg width="144" height="59" viewBox="0 0 144 59" fill="none" xmlns="http://www.w3.org/2000/svg">
<rect y="16.8572" width="139.015" height="42.0973" rx="21.0486" transform="rotate(-6.9649 0 16.8572)" fill="#BFC1FA"/>
<path d="M23.487 35.9628L19.1518 29.8997L21.8676 29.5679L25.3357 34.8665L24.7322 34.9402L26.8228 28.9626L29.5227 28.6328L26.7904 35.5592L23.487 35.9628ZM24.4901 40.6114L23.7528 34.5763L26.1828 34.2794L26.92 40.3146L24.4901 40.6114ZM34.8142 39.5436C33.9354 39.651 33.1451 39.5595 32.4434 39.2691C31.7417 38.9787 31.1701 38.522 30.7286 37.8989C30.2871 37.2759 30.0133 36.5302 29.9073 35.662C29.7986 34.7726 29.8842 33.9777 30.164 33.2773C30.4438 32.5768 30.8893 32.0012 31.5005 31.5505C32.1104 31.0891 32.8547 30.8048 33.7335 30.6974C34.6123 30.59 35.4026 30.6816 36.1043 30.9719C36.806 31.2623 37.3776 31.719 37.8191 32.3421C38.2593 32.9546 38.5337 33.7055 38.6423 34.5949C38.7497 35.4737 38.6641 36.2686 38.3856 36.9796C38.1058 37.6801 37.6603 38.2557 37.0492 38.7064C36.438 39.1572 35.693 39.4363 34.8142 39.5436ZM34.5988 37.7807C34.9906 37.7329 35.3177 37.5962 35.5803 37.3707C35.8535 37.1439 36.0456 36.8249 36.1566 36.4138C36.2768 35.9907 36.3007 35.4827 36.2283 34.8898C36.1533 34.2757 36.0071 33.7831 35.7899 33.4121C35.5832 33.0397 35.32 32.7764 35.0002 32.622C34.6911 32.4663 34.3406 32.4124 33.9489 32.4603C33.5571 32.5082 33.2246 32.6455 32.9515 32.8723C32.6889 33.0978 32.4968 33.4168 32.3752 33.8292C32.2643 34.2404 32.2463 34.753 32.3213 35.3671C32.3951 35.9706 32.5353 36.4585 32.7419 36.8309C32.9592 37.202 33.2224 37.4653 33.5316 37.621C33.8513 37.7753 34.2071 37.8286 34.5988 37.7807ZM44.6259 38.345C43.8529 38.4394 43.171 38.3992 42.5801 38.2242C41.9879 38.0386 41.5066 37.7052 41.1362 37.2239C40.7657 36.7426 40.532 36.1049 40.435 35.3108L39.8044 30.1492L42.155 29.862L42.7758 34.9443C42.8457 35.516 43.0145 35.9306 43.2824 36.188C43.5608 36.4441 43.933 36.5437 44.3989 36.4868C44.833 36.4338 45.1543 36.2495 45.3629 35.9338C45.5821 35.6169 45.6568 35.1726 45.5869 34.6008L44.9661 29.5186L47.3166 29.2315L47.9472 34.3931C48.0442 35.1872 47.9708 35.8624 47.7272 36.4187C47.4835 36.9751 47.0913 37.4152 46.5506 37.7391C46.0192 38.0512 45.3776 38.2532 44.6259 38.345ZM57.6713 36.7514C56.6548 36.8755 55.8057 36.7858 55.1238 36.4823C54.4407 36.1681 53.9658 35.6673 53.6991 34.9799L55.8524 34.2656C56.0167 34.6431 56.2422 34.9057 56.5289 35.0533C56.8262 35.1997 57.1866 35.247 57.6101 35.1953C58.0019 35.1474 58.2986 35.0252 58.5002 34.8286C58.7019 34.6321 58.7839 34.3803 58.7464 34.0732C58.7141 33.8085 58.6141 33.6058 58.4465 33.4651C58.2894 33.3231 58.0476 33.2344 57.7209 33.1991L55.9672 32.962C55.2689 32.8754 54.7164 32.6635 54.3099 32.3263C53.9033 31.9891 53.6632 31.5188 53.5894 30.9153C53.5261 30.3964 53.6187 29.9231 53.8673 29.4951C54.1159 29.0671 54.4919 28.7149 54.9955 28.4385C55.4977 28.1515 56.0982 27.9653 56.797 27.8799C57.4006 27.8062 57.9502 27.8196 58.4461 27.9202C58.9513 28.009 59.3808 28.1822 59.7346 28.4398C60.0872 28.6869 60.3416 29.0104 60.4979 29.4104L58.4318 30.1786C58.2872 29.8739 58.084 29.6623 57.8224 29.5438C57.5607 29.4254 57.2552 29.3875 56.9058 29.4301C56.5352 29.4754 56.2584 29.5845 56.0754 29.7573C55.9016 29.9182 55.8322 30.1416 55.8671 30.4275C55.8917 30.6286 55.9818 30.7949 56.1376 30.9263C56.2933 31.0578 56.5464 31.1504 56.8969 31.2043L58.6169 31.4294C59.0533 31.4836 59.4427 31.5918 59.7849 31.7542C60.1271 31.9165 60.4023 32.1462 60.6105 32.4431C60.828 32.7282 60.9652 33.1037 61.0222 33.5695C61.092 34.1413 61.0039 34.6517 60.7579 35.1009C60.5106 35.5394 60.1252 35.9035 59.6018 36.1931C59.0771 36.4722 58.4336 36.6582 57.6713 36.7514ZM65.4407 35.8022C64.5937 35.9057 63.8883 35.7608 63.3244 35.3676C62.7606 34.9744 62.4334 34.4073 62.3429 33.6661C62.2562 32.9567 62.4286 32.3446 62.86 31.8298C63.2901 31.3045 64.0255 30.903 65.0662 30.6254L67.8567 29.8493L68.0178 31.1675L65.8389 31.8044C65.3821 31.9355 65.0442 32.1164 64.8253 32.3474C64.6156 32.5664 64.5334 32.8612 64.5787 33.2318C64.6175 33.5494 64.7551 33.7959 64.9914 33.9712C65.237 34.1346 65.5557 34.1924 65.9475 34.1445C66.2863 34.1031 66.5684 33.9935 66.7938 33.8155C67.0179 33.6269 67.182 33.3866 67.286 33.0945C67.3887 32.7918 67.4162 32.4446 67.3683 32.0528L67.0734 29.6388C67.0243 29.2364 66.8743 28.9324 66.6235 28.7266C66.3727 28.5208 66.0249 28.4451 65.5802 28.4994C65.1991 28.546 64.8977 28.6741 64.6762 28.8839C64.4652 29.0923 64.3295 29.3883 64.2688 29.7718L62.0883 29.603C62.2082 28.8254 62.5718 28.1953 63.1791 27.7128C63.797 27.2289 64.5612 26.9314 65.4718 26.8202C66.6788 26.6727 67.6031 26.8499 68.2447 27.3518C68.8956 27.8419 69.2806 28.5739 69.3996 29.548L69.8768 33.455L70.6744 34.9694L68.2762 35.2624L67.7592 34.1972L67.6639 34.2089C67.4814 34.6503 67.198 35.0126 66.8135 35.296C66.4383 35.5675 65.9807 35.7362 65.4407 35.8022ZM73.8837 37.8012L74.7177 34.0725L75.2706 32.925L76.3526 25.6844L78.8143 25.3836L76.2183 37.516L73.8837 37.8012ZM74.129 34.5313L70.0475 26.4546L72.5092 26.1539L75.3112 32.5977L75.9942 32.5142L76.1619 34.2829L74.129 34.5313ZM88.6927 32.9294C87.8669 33.0303 87.2123 32.9061 86.729 32.5568C86.2445 32.1969 85.9544 31.6252 85.8586 30.8417L84.8924 22.9325L87.1188 21.6289L88.1665 30.2052C88.204 30.5122 88.3059 30.7308 88.4723 30.8609C88.6386 30.991 88.8594 31.0393 89.1347 31.0057C89.2406 30.9927 89.3511 30.9738 89.4663 30.949C89.5802 30.9136 89.7033 30.8663 89.8358 30.8072L90.0453 32.5224C89.8228 32.6356 89.6022 32.7216 89.3838 32.7806C89.1666 32.8501 88.9362 32.8997 88.6927 32.9294ZM83.948 26.4167L83.7481 24.7809L89.0368 24.1348L89.2367 25.7707L83.948 26.4167ZM91.7743 32.3918L90.3599 20.8139L92.7104 20.5267L93.2284 24.7672L93.3078 24.7575C93.4797 24.3174 93.7526 23.9563 94.1265 23.6742C94.511 23.3909 94.9679 23.2168 95.4973 23.1522C96.0797 23.081 96.5968 23.1361 97.0488 23.3172C97.5101 23.4866 97.8916 23.7946 98.1933 24.2413C98.4937 24.6774 98.6892 25.266 98.7798 26.0072L99.4452 31.4547L97.0947 31.7418L96.47 26.6279C96.4014 26.0667 96.2233 25.664 95.9355 25.4198C95.6465 25.1649 95.2902 25.0634 94.8667 25.1151C94.3797 25.1746 94.012 25.3754 93.7636 25.7173C93.5258 26.058 93.4419 26.5142 93.5117 27.086L94.1248 32.1047L91.7743 32.3918ZM105.459 30.9134C104.581 31.0208 103.796 30.9286 103.104 30.6369C102.412 30.3347 101.85 29.8661 101.418 29.2311C100.984 28.5856 100.713 27.8181 100.604 26.9287C100.5 26.0711 100.588 25.2974 100.869 24.6075C101.159 23.9058 101.6 23.3362 102.191 22.8986C102.781 22.4504 103.479 22.1771 104.283 22.0788C105.109 21.9779 105.845 22.06 106.49 22.3251C107.133 22.5796 107.651 22.9945 108.044 23.5698C108.447 24.1438 108.7 24.8491 108.802 25.6855C108.82 25.8337 108.834 25.9932 108.844 26.1639C108.853 26.324 108.854 26.4583 108.845 26.5668L101.81 27.4263L101.633 25.981L107.081 25.3155L106.516 25.5779C106.469 25.1002 106.351 24.7115 106.164 24.412C105.988 24.1112 105.757 23.8975 105.473 23.771C105.188 23.634 104.849 23.5893 104.458 23.6372C104.087 23.6825 103.769 23.802 103.502 23.9957C103.236 24.1895 103.044 24.4654 102.926 24.8237C102.807 25.1713 102.78 25.6045 102.843 26.1233L102.963 27.108C103.044 27.7645 103.29 28.2877 103.703 28.6779C104.116 29.068 104.678 29.2197 105.387 29.1331C105.768 29.0865 106.118 28.9631 106.438 28.7629C106.756 28.5521 107.004 28.2531 107.183 27.866L108.994 28.7085C108.828 29.105 108.586 29.4569 108.269 29.7643C107.95 30.0611 107.556 30.308 107.086 30.5052C106.616 30.7023 106.073 30.8384 105.459 30.9134ZM111.037 30.0386L110.003 21.5735L112.163 21.3096L112.322 22.612L112.402 22.6023C112.566 22.0986 112.834 21.6952 113.205 21.3919C113.585 21.0768 114.046 20.8862 114.586 20.8203C115.179 20.7478 115.692 20.8194 116.127 21.035C116.56 21.2399 116.907 21.5736 117.168 22.0361L117.248 22.0264C117.412 21.5228 117.684 21.1134 118.065 20.7982C118.456 20.4818 118.921 20.2906 119.461 20.2246C120.001 20.1587 120.487 20.2176 120.918 20.4014C121.347 20.5746 121.695 20.8706 121.961 21.2894C122.238 21.7069 122.415 22.2333 122.492 22.8686L123.187 28.5543L120.836 28.8415L120.198 23.6163C120.136 23.1081 119.978 22.7352 119.723 22.4977C119.478 22.2483 119.159 22.1475 118.767 22.1954C118.344 22.2471 118.038 22.4295 117.851 22.7425C117.663 23.0556 117.602 23.4768 117.667 24.0062L118.295 29.1519L115.945 29.4391L115.307 24.2139C115.244 23.7057 115.091 23.3322 114.847 23.0933C114.602 22.8439 114.283 22.7431 113.892 22.791C113.479 22.8414 113.169 23.0351 112.963 23.3719C112.766 23.6968 112.7 24.1186 112.763 24.6375L113.388 29.7514L111.037 30.0386Z" fill="#151515"/>
</svg>
