<svg width="254" height="306" viewBox="0 0 254 306" fill="none" xmlns="http://www.w3.org/2000/svg">
<g filter="url(#filter0_d_1170_745)">
<path d="M27 41.3441C27 31.2129 35.2129 23 45.3441 23H208.083C218.215 23 226.427 31.2129 226.427 41.3441V256.656C226.427 266.787 218.215 275 208.083 275H45.3441C35.2129 275 27 266.787 27 256.656V41.3441Z" fill="white"/>
</g>
<path d="M34.7183 42.7772C34.7183 35.5407 40.5846 29.6743 47.8212 29.6743H205.411C212.648 29.6743 218.514 35.5407 218.514 42.7772V200.366C218.514 207.603 212.648 213.469 205.411 213.469H47.8212C40.5846 213.469 34.7183 207.603 34.7183 200.366V42.7772Z" fill="#E1D0FF"/>
<path d="M205.411 212.158V213.469H47.8212V212.158H205.411ZM217.204 200.366V42.7772C217.204 36.2644 211.924 30.9847 205.411 30.9846H47.8212C41.3083 30.9846 36.0286 36.2644 36.0286 42.7772V200.366C36.0286 206.879 41.3083 212.158 47.8212 212.158V213.469L47.4829 213.464C40.4027 213.285 34.7183 207.489 34.7183 200.366V42.7772C34.7183 35.6538 40.4027 29.858 47.4829 29.6786L47.8212 29.6743H205.411L205.75 29.6786C212.83 29.8581 218.514 35.6538 218.514 42.7772V200.366L218.51 200.704C218.334 207.672 212.718 213.288 205.75 213.464L205.411 213.469V212.158C211.924 212.158 217.204 206.879 217.204 200.366Z" fill="white"/>
<path d="M150.759 65.4814V78.1873H148.116V65.4814H150.759Z" fill="black"/>
<path d="M142.018 78.3733C141.037 78.3733 140.194 78.1748 139.486 77.7777C138.783 77.3765 138.241 76.8099 137.861 76.0778C137.48 75.3416 137.29 74.4709 137.29 73.4659C137.29 72.4857 137.48 71.6254 137.861 70.885C138.241 70.1447 138.777 69.5677 139.468 69.1541C140.163 68.7405 140.977 68.5337 141.912 68.5337C142.541 68.5337 143.126 68.635 143.668 68.8377C144.214 69.0362 144.689 69.3361 145.095 69.7373C145.504 70.1385 145.823 70.6431 146.05 71.2511C146.278 71.8549 146.391 72.5622 146.391 73.3728V74.0987H138.345V72.4608H143.904C143.904 72.0803 143.821 71.7432 143.655 71.4496C143.49 71.1559 143.26 70.9264 142.967 70.7609C142.677 70.5914 142.34 70.5066 141.955 70.5066C141.554 70.5066 141.199 70.5996 140.888 70.7858C140.582 70.9677 140.342 71.2138 140.169 71.524C139.995 71.8301 139.906 72.1713 139.902 72.5477V74.1049C139.902 74.5764 139.989 74.9838 140.163 75.3271C140.34 75.6704 140.591 75.9351 140.913 76.1212C141.236 76.3073 141.618 76.4004 142.061 76.4004C142.355 76.4004 142.623 76.359 142.867 76.2763C143.111 76.1936 143.32 76.0695 143.494 75.9041C143.668 75.7386 143.8 75.536 143.891 75.2961L146.336 75.4574C146.211 76.0447 145.957 76.5576 145.572 76.996C145.192 77.4303 144.7 77.7694 144.096 78.0135C143.496 78.2533 142.803 78.3733 142.018 78.3733Z" fill="black"/>
<path d="M136.056 68.6578V70.6431H130.317V68.6578H136.056ZM131.62 66.3748H134.263V75.2589C134.263 75.503 134.3 75.6932 134.374 75.8297C134.449 75.9621 134.552 76.0551 134.685 76.1089C134.821 76.1627 134.978 76.1895 135.156 76.1895C135.28 76.1895 135.404 76.1792 135.528 76.1585C135.652 76.1337 135.747 76.1151 135.814 76.1027L136.229 78.0694C136.097 78.1107 135.911 78.1583 135.671 78.2121C135.431 78.27 135.14 78.3051 134.796 78.3175C134.159 78.3423 133.601 78.2575 133.121 78.0632C132.645 77.8688 132.275 77.5668 132.011 77.1574C131.746 76.7479 131.616 76.2309 131.62 75.6064V66.3748Z" fill="black"/>
<path d="M129.105 71.3751L126.685 71.524C126.644 71.3172 126.555 71.1311 126.419 70.9657C126.282 70.7961 126.102 70.6617 125.879 70.5624C125.66 70.459 125.397 70.4073 125.091 70.4073C124.682 70.4073 124.336 70.4942 124.055 70.6679C123.774 70.8375 123.633 71.0649 123.633 71.3503C123.633 71.5778 123.724 71.7701 123.906 71.9273C124.088 72.0845 124.4 72.2106 124.843 72.3057L126.568 72.6532C127.494 72.8434 128.185 73.1495 128.64 73.5714C129.095 73.9932 129.322 74.5475 129.322 75.234C129.322 75.8586 129.138 76.4066 128.77 76.8781C128.406 77.3496 127.906 77.7177 127.269 77.9824C126.636 78.243 125.906 78.3733 125.079 78.3733C123.817 78.3733 122.812 78.1106 122.063 77.5854C121.319 77.056 120.883 76.3363 120.754 75.4264L123.354 75.2899C123.432 75.6745 123.623 75.9682 123.925 76.1709C124.227 76.3694 124.613 76.4686 125.085 76.4686C125.548 76.4686 125.92 76.3797 126.202 76.2019C126.487 76.0199 126.632 75.7862 126.636 75.5008C126.632 75.2609 126.53 75.0645 126.332 74.9114C126.133 74.7543 125.827 74.6343 125.414 74.5516L123.763 74.2228C122.833 74.0367 122.14 73.7141 121.685 73.255C121.234 72.7959 121.009 72.2106 121.009 71.4992C121.009 70.8871 121.174 70.3597 121.505 69.9172C121.84 69.4746 122.31 69.1334 122.913 68.8935C123.521 68.6536 124.233 68.5337 125.048 68.5337C126.251 68.5337 127.198 68.7881 127.889 69.2968C128.584 69.8055 128.989 70.4983 129.105 71.3751Z" fill="black"/>
<path d="M113.76 78.3671C113.152 78.3671 112.61 78.2616 112.134 78.0507C111.659 77.8356 111.282 77.5192 111.005 77.1015C110.732 76.6796 110.596 76.1543 110.596 75.5256C110.596 74.9962 110.693 74.5516 110.887 74.1918C111.082 73.8319 111.346 73.5424 111.681 73.3232C112.016 73.104 112.397 72.9386 112.823 72.8269C113.253 72.7152 113.704 72.6366 114.175 72.5911C114.73 72.5332 115.176 72.4795 115.516 72.4298C115.855 72.3761 116.101 72.2975 116.254 72.1941C116.407 72.0907 116.483 71.9376 116.483 71.735V71.6977C116.483 71.3048 116.359 71.0008 116.111 70.7858C115.867 70.5707 115.52 70.4631 115.069 70.4631C114.593 70.4631 114.215 70.5686 113.933 70.7796C113.652 70.9864 113.466 71.2469 113.375 71.5613L110.931 71.3627C111.055 70.7837 111.299 70.2832 111.663 69.8614C112.027 69.4353 112.496 69.1086 113.071 68.8811C113.65 68.6495 114.32 68.5337 115.081 68.5337C115.611 68.5337 116.117 68.5957 116.601 68.7198C117.089 68.8439 117.521 69.0362 117.898 69.2968C118.278 69.5574 118.578 69.8924 118.797 70.3018C119.017 70.7072 119.126 71.1932 119.126 71.7598V78.1872H116.62V76.8657H116.545C116.392 77.1635 116.188 77.4261 115.931 77.6536C115.675 77.877 115.367 78.0527 115.007 78.181C114.647 78.305 114.231 78.3671 113.76 78.3671ZM114.517 76.5431C114.905 76.5431 115.249 76.4666 115.547 76.3135C115.844 76.1564 116.078 75.9454 116.248 75.6807C116.417 75.416 116.502 75.1162 116.502 74.7812V73.7699C116.419 73.8237 116.305 73.8733 116.161 73.9188C116.02 73.9602 115.861 73.9994 115.683 74.0367C115.505 74.0698 115.327 74.1008 115.149 74.1297C114.972 74.1545 114.81 74.1773 114.666 74.198C114.355 74.2435 114.084 74.3158 113.853 74.4151C113.621 74.5144 113.441 74.6488 113.313 74.8184C113.185 74.9838 113.121 75.1906 113.121 75.4388C113.121 75.7986 113.251 76.0737 113.512 76.2639C113.776 76.45 114.111 76.5431 114.517 76.5431Z" fill="black"/>
<path d="M100.037 78.1873V65.4814H105.049C106.013 65.4814 106.834 65.6655 107.512 66.0336C108.191 66.3976 108.708 66.9042 109.063 67.5536C109.423 68.1988 109.603 68.9433 109.603 69.787C109.603 70.6308 109.421 71.3753 109.057 72.0205C108.693 72.6657 108.166 73.1682 107.475 73.5281C106.789 73.8879 105.957 74.0678 104.981 74.0678H101.786V71.915H104.547C105.064 71.915 105.49 71.8261 105.825 71.6483C106.164 71.4663 106.416 71.216 106.582 70.8976C106.751 70.575 106.836 70.2048 106.836 69.787C106.836 69.3652 106.751 68.9971 106.582 68.6827C106.416 68.3643 106.164 68.1182 105.825 67.9444C105.486 67.7666 105.056 67.6777 104.535 67.6777H102.723V78.1873H100.037Z" fill="black"/>
<path d="M130.181 52.5028C129.788 52.5012 129.453 52.3977 129.176 52.1926C128.898 51.9875 128.685 51.6888 128.538 51.2967C128.391 50.9046 128.317 50.4323 128.317 49.8797C128.317 49.3288 128.391 48.8581 128.538 48.4677C128.687 48.0773 128.9 47.7795 129.178 47.5743C129.458 47.3692 129.792 47.2666 130.181 47.2666C130.569 47.2666 130.903 47.37 131.181 47.5768C131.459 47.7819 131.671 48.0797 131.818 48.4702C131.967 48.859 132.042 49.3288 132.042 49.8797C132.042 50.434 131.968 50.9071 131.821 51.2992C131.674 51.6897 131.461 51.9883 131.183 52.1951C130.905 52.4002 130.571 52.5028 130.181 52.5028ZM130.181 51.8402C130.525 51.8402 130.794 51.6723 130.987 51.3364C131.182 51.0006 131.28 50.515 131.28 49.8797C131.28 49.4579 131.235 49.1013 131.146 48.8102C131.058 48.5173 130.932 48.2956 130.766 48.1451C130.602 47.9929 130.407 47.9168 130.181 47.9168C129.838 47.9168 129.569 48.0855 129.374 48.423C129.179 48.7605 129.08 49.2461 129.079 49.8797C129.079 50.3033 129.123 50.6614 129.21 50.9543C129.3 51.2455 129.426 51.4663 129.59 51.6169C129.754 51.7658 129.951 51.8402 130.181 51.8402Z" fill="black"/>
<path d="M127.036 47.3357V52.418H126.267V48.105H126.237L125.021 48.8991V48.1646L126.289 47.3357H127.036Z" fill="black"/>
<path d="M124.488 47.0977L122.851 53.1826H122.188L123.826 47.0977H124.488Z" fill="black"/>
<path d="M118.257 52.4184V51.8625L119.977 50.0808C120.16 49.8872 120.312 49.7176 120.431 49.572C120.552 49.4248 120.642 49.285 120.701 49.1526C120.761 49.0203 120.791 48.8796 120.791 48.7308C120.791 48.562 120.751 48.4164 120.672 48.294C120.592 48.1699 120.484 48.0748 120.346 48.0086C120.209 47.9408 120.054 47.9069 119.882 47.9069C119.7 47.9069 119.542 47.9441 119.406 48.0185C119.27 48.093 119.166 48.198 119.093 48.3337C119.02 48.4694 118.984 48.6282 118.984 48.8102H118.252C118.252 48.5008 118.323 48.2303 118.465 47.9987C118.608 47.7671 118.803 47.5876 119.051 47.4602C119.299 47.3311 119.581 47.2666 119.897 47.2666C120.217 47.2666 120.498 47.3303 120.741 47.4577C120.986 47.5834 121.177 47.7555 121.314 47.9739C121.452 48.1906 121.52 48.4354 121.52 48.7084C121.52 48.897 121.485 49.0815 121.414 49.2618C121.344 49.4421 121.222 49.6432 121.049 49.8649C120.875 50.0849 120.633 50.3521 120.324 50.6664L119.314 51.7236V51.7608H121.602V52.4184H118.257Z" fill="black"/>
<path d="M139.372 90.7742L137.734 96.8591H137.071L138.709 90.7742H139.372Z" fill="black"/>
<path d="M136.438 91.0122V96.0946H135.696V91.0122H136.438Z" fill="black"/>
<path d="M133.117 94.1043H133.715V94.4244H133.231C133.071 94.4244 132.928 94.4492 132.804 94.4989C132.682 94.5485 132.585 94.6172 132.514 94.7048C132.444 94.7909 132.41 94.8918 132.41 95.0076C132.41 95.1648 132.488 95.2946 132.645 95.3972C132.802 95.4981 133.015 95.5486 133.283 95.5486C133.546 95.5486 133.747 95.5023 133.886 95.4096C134.025 95.317 134.114 95.1763 134.154 94.9877H134.901C134.885 95.1697 134.832 95.3335 134.745 95.4791C134.659 95.6247 134.544 95.7488 134.4 95.8513C134.258 95.9523 134.091 96.03 133.901 96.0846C133.712 96.1376 133.506 96.164 133.281 96.164C132.973 96.164 132.697 96.1185 132.452 96.0275C132.209 95.9365 132.016 95.8083 131.874 95.6429C131.733 95.4774 131.663 95.2831 131.663 95.0597C131.663 94.9472 131.685 94.8347 131.73 94.7222C131.776 94.6097 131.853 94.5071 131.96 94.4145C132.07 94.3218 132.218 94.2474 132.405 94.1911C132.593 94.1332 132.831 94.1043 133.117 94.1043ZM133.715 94.2606H133.117C132.842 94.2606 132.615 94.2333 132.434 94.1787C132.254 94.1241 132.113 94.053 132.01 93.9653C131.907 93.876 131.835 93.7775 131.792 93.67C131.75 93.5608 131.73 93.4533 131.73 93.3474C131.73 93.1125 131.795 92.9123 131.926 92.7468C132.056 92.5798 132.238 92.4524 132.469 92.3647C132.701 92.277 132.969 92.2332 133.273 92.2332C133.566 92.2332 133.825 92.2778 134.05 92.3672C134.277 92.4548 134.458 92.5822 134.593 92.7493C134.729 92.9148 134.809 93.1141 134.834 93.3474H134.085C134.052 93.1902 133.963 93.067 133.819 92.9776C133.677 92.8866 133.489 92.8411 133.256 92.8411C133.011 92.8411 132.818 92.8916 132.678 92.9925C132.537 93.0934 132.466 93.2208 132.464 93.3747C132.466 93.5186 132.531 93.6344 132.66 93.7221C132.789 93.8082 132.98 93.8512 133.231 93.8512H133.715V94.2606Z" fill="black"/>
<path d="M131.013 92.2829V92.8784H128.931V92.2829H131.013ZM129.489 91.3696H130.231V94.9754C130.231 95.1193 130.253 95.2277 130.296 95.3005C130.339 95.3716 130.394 95.4204 130.462 95.4469C130.531 95.4717 130.607 95.4841 130.688 95.4841C130.747 95.4841 130.799 95.48 130.844 95.4717C130.889 95.4635 130.923 95.4568 130.948 95.4519L131.082 96.0648C131.039 96.0814 130.978 96.0979 130.899 96.1145C130.819 96.1327 130.72 96.1426 130.601 96.1443C130.406 96.1476 130.224 96.1128 130.055 96.04C129.886 95.9672 129.75 95.8547 129.645 95.7025C129.541 95.5503 129.489 95.3592 129.489 95.1293V91.3696Z" fill="black"/>
<path d="M128.373 90.7517V92.1786H127.807V90.7517H128.373Z" fill="black"/>
<path d="M125.437 96.1144V92.0471C125.437 91.6368 125.552 91.3241 125.782 91.109C126.013 90.8923 126.33 90.7839 126.732 90.7839C126.812 90.7839 126.89 90.7897 126.968 90.8013C127.047 90.8112 127.124 90.8236 127.199 90.8385L127.169 91.4689C127.124 91.4589 127.074 91.4515 127.018 91.4465C126.963 91.4416 126.904 91.4391 126.841 91.4391C126.653 91.4391 126.505 91.4912 126.397 91.5954C126.291 91.698 126.238 91.8485 126.238 92.0471V96.1144H125.437ZM124.941 97.6034C124.863 97.6034 124.784 97.5976 124.705 97.586C124.627 97.5761 124.553 97.5637 124.484 97.5488L124.504 96.9185C124.547 96.9284 124.596 96.9359 124.653 96.9408C124.711 96.9458 124.77 96.9483 124.831 96.9483C125.025 96.9483 125.174 96.8953 125.278 96.7894C125.384 96.6852 125.437 96.5355 125.437 96.3403V92.2729H126.238V96.3403C126.238 96.7489 126.123 97.0616 125.891 97.2783C125.659 97.495 125.343 97.6034 124.941 97.6034Z" fill="black"/>
<path d="M121.86 96.1789C121.618 96.1789 121.4 96.1343 121.205 96.0449C121.009 95.9539 120.855 95.8224 120.741 95.6503C120.628 95.4783 120.572 95.2673 120.572 95.0175C120.572 94.8025 120.613 94.6254 120.696 94.4865C120.779 94.3475 120.89 94.2375 121.031 94.1564C121.171 94.0753 121.329 94.0141 121.502 93.9728C121.676 93.9314 121.853 93.9 122.033 93.8785C122.262 93.852 122.447 93.8305 122.589 93.8139C122.732 93.7957 122.835 93.7668 122.9 93.7271C122.964 93.6874 122.996 93.6229 122.996 93.5335V93.5161C122.996 93.2994 122.935 93.1315 122.813 93.0124C122.692 92.8933 122.512 92.8337 122.272 92.8337C122.022 92.8337 121.825 92.8891 121.681 93C121.539 93.1092 121.44 93.2308 121.386 93.3648L120.688 93.2059C120.771 92.9743 120.892 92.7874 121.051 92.6451C121.211 92.5012 121.396 92.3969 121.604 92.3324C121.813 92.2662 122.032 92.2332 122.262 92.2332C122.414 92.2332 122.575 92.2514 122.746 92.2877C122.918 92.3225 123.078 92.387 123.227 92.4813C123.378 92.5756 123.501 92.7105 123.597 92.8858C123.693 93.0595 123.741 93.2854 123.741 93.5633V96.0945H123.016V95.5734H122.986C122.938 95.6694 122.866 95.7637 122.77 95.8563C122.675 95.949 122.551 96.0259 122.401 96.0871C122.25 96.1483 122.07 96.1789 121.86 96.1789ZM122.021 95.5833C122.226 95.5833 122.402 95.5428 122.547 95.4617C122.694 95.3807 122.806 95.2748 122.882 95.1441C122.96 95.0117 122.999 94.8703 122.999 94.7197V94.2284C122.972 94.2548 122.921 94.2797 122.845 94.3028C122.77 94.3243 122.685 94.3434 122.589 94.3599C122.493 94.3748 122.4 94.3888 122.309 94.4021C122.218 94.4137 122.142 94.4236 122.081 94.4319C121.937 94.4501 121.805 94.4807 121.686 94.5237C121.569 94.5667 121.474 94.6287 121.403 94.7098C121.334 94.7892 121.299 94.8951 121.299 95.0275C121.299 95.2111 121.367 95.3501 121.502 95.4444C121.638 95.537 121.811 95.5833 122.021 95.5833Z" fill="black"/>
<path d="M116.438 97.524V92.2828H117.163V92.9007H117.225C117.268 92.8213 117.33 92.7295 117.411 92.6252C117.492 92.521 117.604 92.43 117.748 92.3523C117.892 92.2729 118.082 92.2332 118.319 92.2332C118.627 92.2332 118.901 92.3109 119.143 92.4664C119.384 92.6219 119.574 92.8461 119.711 93.1389C119.85 93.4318 119.92 93.7842 119.92 94.1961C119.92 94.6081 119.851 94.9613 119.714 95.2558C119.576 95.5486 119.388 95.7744 119.148 95.9332C118.908 96.0904 118.634 96.169 118.326 96.169C118.095 96.169 117.905 96.1301 117.758 96.0524C117.613 95.9746 117.498 95.8836 117.416 95.7794C117.333 95.6752 117.269 95.5825 117.225 95.5014H117.18V97.524H116.438ZM117.165 94.1887C117.165 94.4567 117.204 94.6916 117.282 94.8934C117.359 95.0953 117.472 95.2533 117.619 95.3674C117.766 95.4799 117.947 95.5362 118.16 95.5362C118.382 95.5362 118.567 95.4774 118.716 95.36C118.865 95.2409 118.978 95.0796 119.054 94.8761C119.131 94.6726 119.17 94.4434 119.17 94.1887C119.17 93.9372 119.132 93.7114 119.056 93.5112C118.982 93.311 118.869 93.153 118.719 93.0372C118.57 92.9214 118.384 92.8635 118.16 92.8635C117.945 92.8635 117.763 92.9189 117.614 93.0298C117.467 93.1406 117.355 93.2953 117.279 93.4938C117.203 93.6923 117.165 93.924 117.165 94.1887Z" fill="black"/>
<path d="M115.808 90.7742L114.17 96.8591H113.507L115.145 90.7742H115.808Z" fill="black"/>
<path d="M156.43 111.948V117.03H155.688V111.948H156.43Z" fill="black"/>
<path d="M153.23 117.107C152.854 117.107 152.531 117.027 152.259 116.866C151.99 116.704 151.781 116.476 151.634 116.184C151.488 115.889 151.416 115.544 151.416 115.149C151.416 114.758 151.488 114.414 151.634 114.116C151.781 113.819 151.986 113.586 152.249 113.419C152.514 113.252 152.823 113.168 153.177 113.168C153.393 113.168 153.601 113.204 153.803 113.275C154.005 113.346 154.186 113.458 154.346 113.61C154.507 113.762 154.633 113.96 154.726 114.203C154.819 114.445 154.865 114.738 154.865 115.084V115.347H151.835V114.791H154.138C154.138 114.596 154.098 114.423 154.019 114.273C153.939 114.121 153.828 114.001 153.684 113.913C153.541 113.825 153.374 113.781 153.182 113.781C152.974 113.781 152.792 113.833 152.636 113.935C152.483 114.036 152.364 114.169 152.279 114.332C152.196 114.494 152.155 114.671 152.155 114.861V115.295C152.155 115.55 152.2 115.767 152.289 115.945C152.38 116.124 152.507 116.261 152.669 116.355C152.831 116.447 153.02 116.494 153.237 116.494C153.378 116.494 153.506 116.474 153.622 116.434C153.737 116.393 153.838 116.332 153.922 116.251C154.006 116.17 154.071 116.069 154.116 115.95L154.818 116.077C154.762 116.284 154.661 116.465 154.515 116.62C154.371 116.774 154.19 116.894 153.972 116.98C153.755 117.065 153.508 117.107 153.23 117.107Z" fill="black"/>
<path d="M150.807 113.218V113.814H148.725V113.218H150.807ZM149.283 112.305H150.025V115.911C150.025 116.055 150.046 116.163 150.089 116.236C150.133 116.307 150.188 116.356 150.256 116.382C150.325 116.407 150.401 116.419 150.482 116.419C150.541 116.419 150.593 116.415 150.638 116.407C150.683 116.399 150.717 116.392 150.742 116.387L150.876 117C150.833 117.017 150.772 117.033 150.693 117.05C150.613 117.068 150.514 117.078 150.395 117.08C150.2 117.083 150.018 117.048 149.849 116.975C149.68 116.903 149.544 116.79 149.439 116.638C149.335 116.486 149.283 116.295 149.283 116.065V112.305Z" fill="black"/>
<path d="M148.137 114.149L147.464 114.268C147.436 114.182 147.392 114.1 147.33 114.022C147.271 113.944 147.19 113.881 147.087 113.831C146.985 113.781 146.856 113.757 146.703 113.757C146.492 113.757 146.317 113.804 146.176 113.898C146.036 113.991 145.965 114.111 145.965 114.258C145.965 114.385 146.013 114.488 146.107 114.566C146.201 114.643 146.353 114.707 146.564 114.757L147.169 114.896C147.52 114.977 147.781 115.102 147.953 115.27C148.125 115.439 148.211 115.658 148.211 115.928C148.211 116.156 148.145 116.36 148.013 116.538C147.882 116.716 147.699 116.854 147.464 116.955C147.231 117.056 146.961 117.107 146.653 117.107C146.226 117.107 145.878 117.016 145.608 116.834C145.338 116.65 145.173 116.39 145.112 116.052L145.829 115.943C145.874 116.13 145.965 116.271 146.104 116.367C146.243 116.462 146.425 116.509 146.648 116.509C146.891 116.509 147.086 116.458 147.231 116.357C147.377 116.255 147.449 116.13 147.449 115.983C147.449 115.863 147.405 115.763 147.315 115.682C147.228 115.601 147.093 115.54 146.911 115.499L146.266 115.357C145.91 115.276 145.647 115.147 145.477 114.97C145.308 114.793 145.223 114.569 145.223 114.298C145.223 114.073 145.286 113.876 145.412 113.707C145.538 113.538 145.712 113.407 145.933 113.312C146.155 113.216 146.409 113.168 146.695 113.168C147.107 113.168 147.431 113.258 147.668 113.436C147.904 113.613 148.061 113.851 148.137 114.149Z" fill="black"/>
<path d="M142.411 117.114C142.17 117.114 141.952 117.07 141.756 116.98C141.561 116.889 141.406 116.758 141.292 116.586C141.18 116.414 141.124 116.203 141.124 115.953C141.124 115.738 141.165 115.561 141.248 115.422C141.33 115.283 141.442 115.173 141.583 115.092C141.723 115.011 141.88 114.949 142.054 114.908C142.228 114.867 142.405 114.835 142.585 114.814C142.814 114.787 142.999 114.766 143.141 114.749C143.283 114.731 143.387 114.702 143.451 114.662C143.516 114.623 143.548 114.558 143.548 114.469V114.451C143.548 114.235 143.487 114.067 143.364 113.948C143.244 113.829 143.063 113.769 142.823 113.769C142.574 113.769 142.377 113.824 142.233 113.935C142.091 114.044 141.992 114.166 141.938 114.3L141.24 114.141C141.323 113.91 141.444 113.723 141.602 113.58C141.763 113.436 141.947 113.332 142.156 113.268C142.364 113.202 142.584 113.168 142.814 113.168C142.966 113.168 143.127 113.187 143.297 113.223C143.469 113.258 143.63 113.322 143.779 113.417C143.929 113.511 144.053 113.646 144.149 113.821C144.245 113.995 144.293 114.221 144.293 114.499V117.03H143.568V116.509H143.538C143.49 116.605 143.418 116.699 143.322 116.792C143.226 116.884 143.103 116.961 142.952 117.022C142.802 117.084 142.622 117.114 142.411 117.114ZM142.573 116.519C142.778 116.519 142.953 116.478 143.099 116.397C143.246 116.316 143.358 116.21 143.434 116.079C143.512 115.947 143.551 115.806 143.551 115.655V115.164C143.524 115.19 143.473 115.215 143.397 115.238C143.322 115.26 143.237 115.279 143.141 115.295C143.045 115.31 142.952 115.324 142.861 115.337C142.77 115.349 142.694 115.359 142.632 115.367C142.488 115.385 142.357 115.416 142.238 115.459C142.12 115.502 142.026 115.564 141.955 115.645C141.885 115.725 141.851 115.83 141.851 115.963C141.851 116.146 141.918 116.285 142.054 116.38C142.19 116.472 142.363 116.519 142.573 116.519Z" fill="black"/>
<path d="M136.989 118.459V113.218H137.714V113.836H137.776C137.819 113.757 137.881 113.665 137.962 113.561C138.043 113.456 138.156 113.365 138.3 113.288C138.443 113.208 138.634 113.168 138.87 113.168C139.178 113.168 139.453 113.246 139.694 113.402C139.936 113.557 140.125 113.781 140.263 114.074C140.401 114.367 140.471 114.719 140.471 115.131C140.471 115.543 140.402 115.897 140.265 116.191C140.128 116.484 139.939 116.71 139.699 116.869C139.459 117.026 139.185 117.104 138.878 117.104C138.646 117.104 138.457 117.065 138.309 116.988C138.164 116.91 138.05 116.819 137.967 116.715C137.884 116.61 137.821 116.518 137.776 116.437H137.731V118.459H136.989ZM137.716 115.124C137.716 115.392 137.755 115.627 137.833 115.829C137.911 116.031 138.023 116.189 138.171 116.303C138.318 116.415 138.498 116.471 138.711 116.471C138.933 116.471 139.118 116.413 139.267 116.295C139.416 116.176 139.529 116.015 139.605 115.811C139.683 115.608 139.722 115.379 139.722 115.124C139.722 114.872 139.683 114.647 139.607 114.446C139.533 114.246 139.42 114.088 139.27 113.972C139.121 113.857 138.935 113.799 138.711 113.799C138.496 113.799 138.314 113.854 138.166 113.965C138.018 114.076 137.907 114.231 137.831 114.429C137.754 114.628 137.716 114.859 137.716 115.124Z" fill="black"/>
<path d="M128.963 117.03V113.218H129.676V113.838H129.723C129.802 113.628 129.932 113.465 130.112 113.347C130.293 113.228 130.509 113.168 130.76 113.168C131.015 113.168 131.228 113.228 131.4 113.347C131.574 113.466 131.702 113.63 131.785 113.838H131.825C131.916 113.635 132.06 113.473 132.259 113.352C132.457 113.23 132.694 113.168 132.969 113.168C133.314 113.168 133.597 113.277 133.815 113.494C134.035 113.71 134.145 114.037 134.145 114.474V117.03H133.403V114.543C133.403 114.285 133.333 114.098 133.192 113.982C133.051 113.867 132.884 113.809 132.688 113.809C132.447 113.809 132.259 113.883 132.125 114.032C131.991 114.179 131.924 114.369 131.924 114.6V117.03H131.184V114.496C131.184 114.289 131.12 114.123 130.991 113.997C130.862 113.872 130.694 113.809 130.487 113.809C130.346 113.809 130.217 113.846 130.097 113.92C129.98 113.993 129.885 114.095 129.812 114.226C129.741 114.356 129.705 114.508 129.705 114.68V117.03H128.963Z" fill="black"/>
<path d="M127.222 115.449V113.218H127.967V117.03H127.237V116.37H127.197C127.11 116.573 126.969 116.743 126.776 116.879C126.584 117.013 126.345 117.08 126.058 117.08C125.813 117.08 125.597 117.026 125.408 116.918C125.221 116.809 125.074 116.648 124.966 116.434C124.861 116.221 124.808 115.957 124.808 115.643V113.218H125.55V115.553C125.55 115.813 125.622 116.02 125.766 116.174C125.909 116.328 126.096 116.405 126.326 116.405C126.465 116.405 126.603 116.37 126.741 116.3C126.88 116.231 126.995 116.126 127.086 115.985C127.178 115.845 127.224 115.666 127.222 115.449Z" fill="black"/>
<path d="M120.353 117.107C119.996 117.107 119.684 117.025 119.417 116.861C119.151 116.697 118.944 116.468 118.797 116.174C118.65 115.879 118.576 115.535 118.576 115.141C118.576 114.746 118.65 114.4 118.797 114.104C118.944 113.808 119.151 113.578 119.417 113.414C119.684 113.25 119.996 113.168 120.353 113.168C120.71 113.168 121.022 113.25 121.289 113.414C121.555 113.578 121.762 113.808 121.909 114.104C122.056 114.4 122.13 114.746 122.13 115.141C122.13 115.535 122.056 115.879 121.909 116.174C121.762 116.468 121.555 116.697 121.289 116.861C121.022 117.025 120.71 117.107 120.353 117.107ZM120.355 116.484C120.587 116.484 120.779 116.423 120.931 116.3C121.083 116.178 121.196 116.015 121.269 115.811C121.343 115.608 121.38 115.384 121.38 115.139C121.38 114.896 121.343 114.672 121.269 114.469C121.196 114.264 121.083 114.099 120.931 113.975C120.779 113.851 120.587 113.789 120.355 113.789C120.122 113.789 119.929 113.851 119.775 113.975C119.623 114.099 119.509 114.264 119.435 114.469C119.362 114.672 119.326 114.896 119.326 115.139C119.326 115.384 119.362 115.608 119.435 115.811C119.509 116.015 119.623 116.178 119.775 116.3C119.929 116.423 120.122 116.484 120.355 116.484Z" fill="black"/>
<path d="M116.202 117.03V113.218H116.919V113.823H116.959C117.028 113.618 117.15 113.457 117.326 113.34C117.503 113.22 117.703 113.161 117.926 113.161C117.973 113.161 118.027 113.163 118.09 113.166C118.155 113.169 118.205 113.173 118.242 113.178V113.888C118.212 113.88 118.159 113.871 118.083 113.861C118.007 113.849 117.931 113.843 117.854 113.843C117.679 113.843 117.523 113.881 117.385 113.955C117.25 114.028 117.142 114.13 117.063 114.26C116.983 114.389 116.944 114.537 116.944 114.702V117.03H116.202Z" fill="black"/>
<path d="M113.743 117.107C113.367 117.107 113.044 117.027 112.772 116.866C112.503 116.704 112.294 116.476 112.147 116.184C112.002 115.889 111.929 115.544 111.929 115.149C111.929 114.758 112.002 114.414 112.147 114.116C112.294 113.819 112.499 113.586 112.763 113.419C113.027 113.252 113.337 113.168 113.691 113.168C113.906 113.168 114.114 113.204 114.316 113.275C114.518 113.346 114.699 113.458 114.859 113.61C115.02 113.762 115.147 113.96 115.239 114.203C115.332 114.445 115.378 114.738 115.378 115.084V115.347H112.348V114.791H114.651C114.651 114.596 114.611 114.423 114.532 114.273C114.453 114.121 114.341 114.001 114.197 113.913C114.055 113.825 113.888 113.781 113.696 113.781C113.487 113.781 113.305 113.833 113.15 113.935C112.996 114.036 112.877 114.169 112.792 114.332C112.71 114.494 112.668 114.671 112.668 114.861V115.295C112.668 115.55 112.713 115.767 112.802 115.945C112.893 116.124 113.02 116.261 113.182 116.355C113.344 116.447 113.533 116.494 113.75 116.494C113.891 116.494 114.019 116.474 114.135 116.434C114.251 116.393 114.351 116.332 114.435 116.251C114.52 116.17 114.584 116.069 114.629 115.95L115.331 116.077C115.275 116.284 115.174 116.465 115.028 116.62C114.884 116.774 114.703 116.894 114.485 116.98C114.268 117.065 114.021 117.107 113.743 117.107Z" fill="black"/>
<path d="M110.359 115.449V113.218H111.104V117.03H110.374V116.37H110.335C110.247 116.573 110.106 116.743 109.913 116.879C109.721 117.013 109.482 117.08 109.196 117.08C108.951 117.08 108.734 117.026 108.545 116.918C108.358 116.809 108.211 116.648 108.104 116.434C107.998 116.221 107.945 115.957 107.945 115.643V113.218H108.687V115.553C108.687 115.813 108.759 116.02 108.903 116.174C109.047 116.328 109.234 116.405 109.464 116.405C109.603 116.405 109.741 116.37 109.878 116.3C110.017 116.231 110.132 116.126 110.223 115.985C110.316 115.845 110.361 115.666 110.359 115.449Z" fill="black"/>
<path d="M104.502 115.382H105.256L105.787 116.074L106.038 116.382L106.884 117.486H106.1L105.534 116.749L105.34 116.481L104.502 115.382ZM107.048 114.489C107.048 115.031 106.949 115.498 106.75 115.888C106.551 116.277 106.279 116.576 105.934 116.787C105.589 116.995 105.198 117.099 104.76 117.099C104.32 117.099 103.927 116.995 103.581 116.787C103.237 116.576 102.966 116.276 102.767 115.886C102.569 115.495 102.469 115.03 102.469 114.489C102.469 113.946 102.569 113.48 102.767 113.091C102.966 112.701 103.237 112.402 103.581 112.193C103.927 111.983 104.32 111.878 104.76 111.878C105.198 111.878 105.589 111.983 105.934 112.193C106.279 112.402 106.551 112.701 106.75 113.091C106.949 113.48 107.048 113.946 107.048 114.489ZM106.288 114.489C106.288 114.075 106.221 113.727 106.087 113.444C105.955 113.159 105.773 112.944 105.541 112.799C105.312 112.651 105.051 112.578 104.76 112.578C104.467 112.578 104.206 112.651 103.976 112.799C103.746 112.944 103.564 113.159 103.43 113.444C103.297 113.727 103.231 114.075 103.231 114.489C103.231 114.902 103.297 115.251 103.43 115.536C103.564 115.819 103.746 116.034 103.976 116.181C104.206 116.327 104.467 116.399 104.76 116.399C105.051 116.399 105.312 116.327 105.541 116.181C105.773 116.034 105.955 115.819 106.087 115.536C106.221 115.251 106.288 114.902 106.288 114.489Z" fill="black"/>
<path d="M99.2336 116.4C99.098 116.4 98.9813 116.352 98.8837 116.256C98.7861 116.158 98.7373 116.041 98.7373 115.903C98.7373 115.768 98.7861 115.652 98.8837 115.556C98.9813 115.458 99.098 115.409 99.2336 115.409C99.3693 115.409 99.4859 115.458 99.5835 115.556C99.6811 115.652 99.73 115.768 99.73 115.903C99.73 115.994 99.7068 116.078 99.6605 116.154C99.6158 116.228 99.5562 116.288 99.4818 116.333C99.4073 116.377 99.3246 116.4 99.2336 116.4ZM99.2336 113.853C99.098 113.853 98.9813 113.805 98.8837 113.71C98.7861 113.612 98.7373 113.494 98.7373 113.357C98.7373 113.221 98.7861 113.106 98.8837 113.01C98.9813 112.912 99.098 112.863 99.2336 112.863C99.3693 112.863 99.4859 112.912 99.5835 113.01C99.6811 113.106 99.73 113.221 99.73 113.357C99.73 113.448 99.7068 113.532 99.6605 113.608C99.6158 113.682 99.5562 113.742 99.4818 113.786C99.4073 113.831 99.3246 113.853 99.2336 113.853Z" fill="black"/>
<path d="M94.2822 112.608V111.948H98.2156V112.608H96.6298V117.03H95.8655V112.608H94.2822Z" fill="black"/>
<path d="M90.0625 117.03V111.948H91.8741C92.2695 111.948 92.5971 112.02 92.8568 112.164C93.1165 112.308 93.3109 112.504 93.44 112.754C93.569 113.002 93.6335 113.282 93.6335 113.593C93.6335 113.906 93.5682 114.187 93.4375 114.437C93.3084 114.685 93.1132 114.882 92.8518 115.027C92.5921 115.171 92.2653 115.243 91.8716 115.243H90.6258V114.593H91.8021C92.0519 114.593 92.2546 114.55 92.4101 114.464C92.5656 114.376 92.6798 114.257 92.7526 114.107C92.8254 113.956 92.8618 113.785 92.8618 113.593C92.8618 113.401 92.8254 113.231 92.7526 113.082C92.6798 112.933 92.5648 112.816 92.4076 112.732C92.2521 112.648 92.047 112.605 91.7922 112.605H90.8293V117.03H90.0625Z" fill="black"/>
<path d="M154.742 130.281C154.631 130.281 154.53 130.272 154.439 130.254C154.348 130.237 154.28 130.219 154.236 130.199L154.414 129.591C154.55 129.628 154.671 129.643 154.777 129.638C154.883 129.634 154.976 129.594 155.057 129.519C155.14 129.445 155.213 129.323 155.276 129.155L155.367 128.901L153.973 125.04H154.767L155.732 127.998H155.772L156.737 125.04H157.534L155.963 129.361C155.89 129.559 155.797 129.727 155.685 129.864C155.572 130.003 155.438 130.107 155.283 130.177C155.127 130.246 154.947 130.281 154.742 130.281Z" fill="black"/>
<path d="M151.475 128.852V125.04H152.192V125.646H152.232C152.301 125.441 152.423 125.28 152.599 125.162C152.776 125.043 152.976 124.983 153.199 124.983C153.246 124.983 153.3 124.985 153.363 124.988C153.428 124.992 153.478 124.996 153.514 125.001V125.711C153.485 125.702 153.432 125.693 153.356 125.683C153.28 125.672 153.203 125.666 153.127 125.666C152.952 125.666 152.796 125.703 152.658 125.778C152.523 125.85 152.415 125.952 152.336 126.083C152.256 126.212 152.217 126.359 152.217 126.524V128.852H151.475Z" fill="black"/>
<path d="M150.654 125.04V125.636H148.572V125.04H150.654ZM149.13 124.127H149.872V127.733C149.872 127.877 149.894 127.985 149.937 128.058C149.98 128.129 150.035 128.178 150.103 128.204C150.172 128.229 150.248 128.242 150.329 128.242C150.388 128.242 150.44 128.238 150.485 128.229C150.53 128.221 150.565 128.214 150.589 128.209L150.723 128.822C150.68 128.839 150.619 128.855 150.54 128.872C150.46 128.89 150.361 128.9 150.242 128.902C150.047 128.905 149.865 128.87 149.696 128.798C149.527 128.725 149.391 128.612 149.286 128.46C149.182 128.308 149.13 128.117 149.13 127.887V124.127Z" fill="black"/>
<path d="M147.985 125.971L147.312 126.09C147.284 126.004 147.239 125.922 147.178 125.844C147.118 125.766 147.037 125.703 146.935 125.653C146.832 125.603 146.704 125.579 146.55 125.579C146.34 125.579 146.165 125.626 146.024 125.72C145.883 125.813 145.813 125.933 145.813 126.08C145.813 126.207 145.86 126.31 145.955 126.388C146.049 126.465 146.201 126.529 146.411 126.579L147.017 126.718C147.367 126.799 147.629 126.924 147.801 127.092C147.973 127.261 148.059 127.48 148.059 127.75C148.059 127.978 147.993 128.182 147.86 128.361C147.73 128.538 147.547 128.677 147.312 128.777C147.079 128.878 146.808 128.929 146.501 128.929C146.074 128.929 145.725 128.838 145.456 128.656C145.186 128.472 145.021 128.212 144.959 127.874L145.677 127.765C145.721 127.952 145.813 128.093 145.952 128.189C146.091 128.284 146.272 128.331 146.496 128.331C146.739 128.331 146.933 128.28 147.079 128.179C147.224 128.077 147.297 127.952 147.297 127.805C147.297 127.686 147.252 127.585 147.163 127.504C147.075 127.423 146.941 127.362 146.759 127.321L146.113 127.179C145.758 127.098 145.495 126.969 145.324 126.792C145.156 126.615 145.071 126.391 145.071 126.12C145.071 125.895 145.134 125.698 145.26 125.529C145.385 125.36 145.559 125.229 145.781 125.134C146.003 125.038 146.257 124.99 146.543 124.99C146.955 124.99 147.279 125.08 147.516 125.258C147.752 125.436 147.908 125.673 147.985 125.971Z" fill="black"/>
<path d="M142.259 128.936C142.017 128.936 141.799 128.892 141.604 128.802C141.408 128.711 141.254 128.58 141.139 128.408C141.027 128.236 140.971 128.025 140.971 127.775C140.971 127.56 141.012 127.383 141.095 127.244C141.178 127.105 141.289 126.995 141.43 126.914C141.57 126.833 141.728 126.771 141.901 126.73C142.075 126.689 142.252 126.657 142.432 126.636C142.661 126.609 142.846 126.588 142.988 126.571C143.131 126.553 143.234 126.524 143.298 126.484C143.363 126.445 143.395 126.38 143.395 126.291V126.273C143.395 126.057 143.334 125.889 143.212 125.77C143.091 125.651 142.91 125.591 142.671 125.591C142.421 125.591 142.224 125.646 142.08 125.757C141.938 125.866 141.839 125.988 141.785 126.122L141.087 125.963C141.17 125.732 141.291 125.545 141.45 125.402C141.61 125.258 141.795 125.154 142.003 125.09C142.212 125.024 142.431 124.99 142.661 124.99C142.813 124.99 142.974 125.009 143.145 125.045C143.317 125.08 143.477 125.144 143.626 125.239C143.777 125.333 143.9 125.468 143.996 125.643C144.092 125.817 144.14 126.043 144.14 126.321V128.852H143.415V128.331H143.385C143.337 128.427 143.265 128.521 143.169 128.614C143.073 128.706 142.95 128.783 142.8 128.844C142.649 128.906 142.469 128.936 142.259 128.936ZM142.42 128.341C142.625 128.341 142.8 128.3 142.946 128.219C143.093 128.138 143.205 128.032 143.281 127.901C143.359 127.769 143.398 127.628 143.398 127.477V126.986C143.371 127.012 143.32 127.037 143.244 127.06C143.169 127.082 143.084 127.101 142.988 127.117C142.892 127.132 142.799 127.146 142.708 127.159C142.617 127.171 142.541 127.181 142.48 127.189C142.336 127.207 142.204 127.238 142.085 127.281C141.967 127.324 141.873 127.386 141.802 127.467C141.733 127.547 141.698 127.652 141.698 127.785C141.698 127.968 141.766 128.107 141.901 128.202C142.037 128.294 142.21 128.341 142.42 128.341Z" fill="black"/>
<path d="M136.836 130.281V125.04H137.561V125.658H137.623C137.666 125.579 137.728 125.487 137.809 125.383C137.89 125.278 138.003 125.187 138.147 125.11C138.291 125.03 138.481 124.99 138.717 124.99C139.025 124.99 139.3 125.068 139.541 125.224C139.783 125.379 139.972 125.603 140.11 125.896C140.249 126.189 140.318 126.541 140.318 126.953C140.318 127.365 140.249 127.719 140.112 128.013C139.975 128.306 139.786 128.532 139.546 128.691C139.306 128.848 139.033 128.926 138.725 128.926C138.493 128.926 138.304 128.887 138.157 128.81C138.011 128.732 137.897 128.641 137.814 128.537C137.731 128.432 137.668 128.34 137.623 128.259H137.578V130.281H136.836ZM137.564 126.946C137.564 127.214 137.602 127.449 137.68 127.651C137.758 127.853 137.87 128.011 138.018 128.125C138.165 128.237 138.345 128.294 138.559 128.294C138.78 128.294 138.966 128.235 139.115 128.117C139.263 127.998 139.376 127.837 139.452 127.633C139.53 127.43 139.569 127.201 139.569 126.946C139.569 126.695 139.531 126.469 139.455 126.269C139.38 126.068 139.268 125.91 139.117 125.795C138.968 125.679 138.782 125.621 138.559 125.621C138.344 125.621 138.162 125.676 138.013 125.787C137.865 125.898 137.754 126.053 137.678 126.251C137.602 126.45 137.564 126.681 137.564 126.946Z" fill="black"/>
<path d="M132.117 128.936C131.876 128.936 131.657 128.892 131.462 128.802C131.267 128.711 131.112 128.58 130.998 128.408C130.885 128.236 130.829 128.025 130.829 127.775C130.829 127.56 130.87 127.383 130.953 127.244C131.036 127.105 131.148 126.995 131.288 126.914C131.429 126.833 131.586 126.771 131.76 126.73C131.933 126.689 132.11 126.657 132.291 126.636C132.519 126.609 132.704 126.588 132.847 126.571C132.989 126.553 133.092 126.524 133.157 126.484C133.221 126.445 133.254 126.38 133.254 126.291V126.273C133.254 126.057 133.192 125.889 133.07 125.77C132.949 125.651 132.769 125.591 132.529 125.591C132.279 125.591 132.082 125.646 131.938 125.757C131.796 125.866 131.698 125.988 131.643 126.122L130.946 125.963C131.028 125.732 131.149 125.545 131.308 125.402C131.469 125.258 131.653 125.154 131.861 125.09C132.07 125.024 132.289 124.99 132.519 124.99C132.671 124.99 132.833 125.009 133.003 125.045C133.175 125.08 133.336 125.144 133.484 125.239C133.635 125.333 133.758 125.468 133.854 125.643C133.95 125.817 133.998 126.043 133.998 126.321V128.852H133.273V128.331H133.244C133.196 128.427 133.124 128.521 133.028 128.614C132.932 128.706 132.809 128.783 132.658 128.844C132.507 128.906 132.327 128.936 132.117 128.936ZM132.278 128.341C132.484 128.341 132.659 128.3 132.804 128.219C132.952 128.138 133.063 128.032 133.139 127.901C133.217 127.769 133.256 127.628 133.256 127.477V126.986C133.23 127.012 133.178 127.037 133.102 127.06C133.028 127.082 132.943 127.101 132.847 127.117C132.751 127.132 132.657 127.146 132.566 127.159C132.475 127.171 132.399 127.181 132.338 127.189C132.194 127.207 132.062 127.238 131.943 127.281C131.826 127.324 131.732 127.386 131.66 127.467C131.591 127.547 131.556 127.652 131.556 127.785C131.556 127.968 131.624 128.107 131.76 128.202C131.895 128.294 132.068 128.341 132.278 128.341Z" fill="black"/>
<path d="M128.338 125.04V125.636H126.256V125.04H128.338ZM126.814 124.127H127.556V127.733C127.556 127.877 127.578 127.985 127.621 128.058C127.664 128.129 127.719 128.178 127.787 128.204C127.856 128.229 127.932 128.242 128.013 128.242C128.072 128.242 128.125 128.238 128.169 128.229C128.214 128.221 128.249 128.214 128.273 128.209L128.407 128.822C128.364 128.839 128.303 128.855 128.224 128.872C128.144 128.89 128.045 128.9 127.926 128.902C127.731 128.905 127.549 128.87 127.38 128.798C127.211 128.725 127.075 128.612 126.971 128.46C126.866 128.308 126.814 128.117 126.814 127.887V124.127Z" fill="black"/>
<path d="M123.124 126.589V128.852H122.382V125.04H123.094V125.661H123.141C123.229 125.459 123.366 125.297 123.553 125.174C123.742 125.052 123.979 124.99 124.265 124.99C124.525 124.99 124.753 125.045 124.948 125.154C125.143 125.262 125.294 125.422 125.402 125.636C125.509 125.849 125.563 126.113 125.563 126.427V128.852H124.821V126.517C124.821 126.24 124.749 126.024 124.605 125.869C124.461 125.712 124.264 125.633 124.012 125.633C123.84 125.633 123.687 125.67 123.553 125.745C123.421 125.819 123.316 125.929 123.238 126.072C123.162 126.215 123.124 126.387 123.124 126.589Z" fill="black"/>
<path d="M119.512 128.936C119.271 128.936 119.052 128.892 118.857 128.802C118.662 128.711 118.507 128.58 118.393 128.408C118.28 128.236 118.224 128.025 118.224 127.775C118.224 127.56 118.265 127.383 118.348 127.244C118.431 127.105 118.543 126.995 118.683 126.914C118.824 126.833 118.981 126.771 119.155 126.73C119.328 126.689 119.505 126.657 119.686 126.636C119.914 126.609 120.099 126.588 120.242 126.571C120.384 126.553 120.487 126.524 120.552 126.484C120.616 126.445 120.649 126.38 120.649 126.291V126.273C120.649 126.057 120.587 125.889 120.465 125.77C120.344 125.651 120.164 125.591 119.924 125.591C119.674 125.591 119.477 125.646 119.333 125.757C119.191 125.866 119.093 125.988 119.038 126.122L118.341 125.963C118.423 125.732 118.544 125.545 118.703 125.402C118.864 125.258 119.048 125.154 119.256 125.09C119.465 125.024 119.684 124.99 119.914 124.99C120.066 124.99 120.228 125.009 120.398 125.045C120.57 125.08 120.731 125.144 120.879 125.239C121.03 125.333 121.153 125.468 121.249 125.643C121.345 125.817 121.393 126.043 121.393 126.321V128.852H120.669V128.331H120.639C120.591 128.427 120.519 128.521 120.423 128.614C120.327 128.706 120.204 128.783 120.053 128.844C119.903 128.906 119.722 128.936 119.512 128.936ZM119.673 128.341C119.879 128.341 120.054 128.3 120.199 128.219C120.347 128.138 120.458 128.032 120.535 127.901C120.612 127.769 120.651 127.628 120.651 127.477V126.986C120.625 127.012 120.573 127.037 120.497 127.06C120.423 127.082 120.338 127.101 120.242 127.117C120.146 127.132 120.052 127.146 119.961 127.159C119.87 127.171 119.794 127.181 119.733 127.189C119.589 127.207 119.457 127.238 119.338 127.281C119.221 127.324 119.127 127.386 119.055 127.467C118.986 127.547 118.951 127.652 118.951 127.785C118.951 127.968 119.019 128.107 119.155 128.202C119.29 128.294 119.463 128.341 119.673 128.341Z" fill="black"/>
<path d="M113.463 128.852L112.342 125.04H113.109L113.856 127.839H113.893L114.642 125.04H115.409L116.154 127.827H116.191L116.933 125.04H117.7L116.58 128.852H115.823L115.049 126.1H114.992L114.218 128.852H113.463Z" fill="black"/>
<path d="M109.73 123.77V128.852H108.963V123.77H109.73Z" fill="black"/>
<path d="M105.564 128.222C105.429 128.222 105.312 128.174 105.214 128.078C105.117 127.98 105.068 127.863 105.068 127.725C105.068 127.59 105.117 127.474 105.214 127.378C105.312 127.28 105.429 127.231 105.564 127.231C105.7 127.231 105.816 127.28 105.914 127.378C106.012 127.474 106.061 127.59 106.061 127.725C106.061 127.816 106.037 127.9 105.991 127.976C105.946 128.05 105.887 128.11 105.812 128.155C105.738 128.199 105.655 128.222 105.564 128.222ZM105.564 125.675C105.429 125.675 105.312 125.627 105.214 125.532C105.117 125.434 105.068 125.316 105.068 125.179C105.068 125.043 105.117 124.928 105.214 124.832C105.312 124.734 105.429 124.685 105.564 124.685C105.7 124.685 105.816 124.734 105.914 124.832C106.012 124.928 106.061 125.043 106.061 125.179C106.061 125.27 106.037 125.354 105.991 125.43C105.946 125.504 105.887 125.564 105.812 125.608C105.738 125.653 105.655 125.675 105.564 125.675Z" fill="black"/>
<path d="M104.016 123.77V128.852H103.311L100.728 125.124H100.68V128.852H99.9136V123.77H100.623L103.209 127.502H103.256V123.77H104.016Z" fill="black"/>
<path d="M95.7031 128.852V123.77H98.8895V124.43H96.4699V125.978H98.7232V126.636H96.4699V128.192H98.9193V128.852H95.7031Z" fill="black"/>
<path d="M40.8325 176.04C40.8325 171.216 44.7434 167.305 49.5678 167.305H203.663C208.487 167.305 212.398 171.216 212.398 176.04V197.59C212.398 202.414 208.487 206.325 203.663 206.325H49.5678C44.7434 206.325 40.8325 202.414 40.8325 197.59V176.04Z" fill="white"/>
<path d="M137.715 192.807C137.505 192.807 137.309 192.79 137.125 192.756C136.944 192.725 136.794 192.685 136.675 192.636L137.048 191.403C137.241 191.462 137.416 191.495 137.571 191.5C137.729 191.505 137.864 191.469 137.978 191.391C138.095 191.314 138.189 191.182 138.261 190.996L138.358 190.744L136.222 184.617H137.959L139.192 188.991H139.254L140.499 184.617H142.247L139.932 191.217C139.821 191.537 139.67 191.816 139.479 192.054C139.29 192.295 139.051 192.48 138.761 192.609C138.472 192.741 138.123 192.807 137.715 192.807Z" fill="black"/>
<path d="M132.045 190.573V184.617H133.647V185.656H133.709C133.817 185.287 134 185.008 134.256 184.819C134.512 184.628 134.806 184.532 135.14 184.532C135.222 184.532 135.312 184.537 135.407 184.547C135.503 184.558 135.587 184.572 135.659 184.59V186.056C135.582 186.033 135.474 186.012 135.337 185.994C135.2 185.976 135.075 185.967 134.961 185.967C134.718 185.967 134.501 186.02 134.31 186.126C134.121 186.229 133.971 186.374 133.86 186.56C133.752 186.746 133.697 186.961 133.697 187.204V190.573H132.045Z" fill="black"/>
<path d="M130.97 184.617V185.858H127.383V184.617H130.97ZM128.198 183.19H129.849V188.743C129.849 188.895 129.873 189.014 129.919 189.1C129.966 189.182 130.03 189.24 130.113 189.274C130.198 189.308 130.297 189.324 130.408 189.324C130.485 189.324 130.563 189.318 130.64 189.305C130.718 189.29 130.777 189.278 130.819 189.27L131.079 190.499C130.996 190.525 130.88 190.555 130.73 190.588C130.58 190.625 130.397 190.647 130.183 190.654C129.785 190.67 129.436 190.617 129.136 190.495C128.839 190.374 128.607 190.185 128.442 189.929C128.276 189.673 128.195 189.35 128.198 188.96V183.19Z" fill="black"/>
<path d="M126.625 186.315L125.113 186.409C125.087 186.279 125.031 186.163 124.946 186.06C124.861 185.954 124.748 185.87 124.609 185.807C124.472 185.743 124.307 185.711 124.116 185.711C123.86 185.711 123.644 185.765 123.469 185.873C123.293 185.979 123.205 186.122 123.205 186.3C123.205 186.442 123.262 186.562 123.376 186.661C123.489 186.759 123.684 186.838 123.961 186.897L125.039 187.114C125.618 187.233 126.05 187.424 126.334 187.688C126.618 187.952 126.761 188.298 126.761 188.727C126.761 189.118 126.646 189.46 126.416 189.755C126.188 190.05 125.875 190.28 125.477 190.445C125.082 190.608 124.625 190.689 124.108 190.689C123.32 190.689 122.692 190.525 122.224 190.197C121.759 189.866 121.486 189.416 121.406 188.847L123.03 188.762C123.08 189.003 123.198 189.186 123.387 189.313C123.576 189.437 123.818 189.499 124.112 189.499C124.402 189.499 124.634 189.443 124.81 189.332C124.989 189.218 125.079 189.072 125.082 188.894C125.079 188.744 125.016 188.621 124.892 188.526C124.768 188.427 124.576 188.352 124.318 188.301L123.286 188.095C122.705 187.979 122.272 187.777 121.987 187.49C121.706 187.203 121.565 186.838 121.565 186.393C121.565 186.01 121.668 185.681 121.875 185.404C122.084 185.128 122.378 184.914 122.755 184.764C123.135 184.615 123.58 184.54 124.089 184.54C124.841 184.54 125.433 184.699 125.865 185.016C126.299 185.334 126.553 185.767 126.625 186.315Z" fill="black"/>
<path d="M117.034 190.685C116.654 190.685 116.316 190.62 116.018 190.488C115.721 190.353 115.486 190.155 115.313 189.894C115.142 189.631 115.057 189.302 115.057 188.91C115.057 188.579 115.117 188.301 115.239 188.076C115.36 187.851 115.526 187.67 115.735 187.533C115.945 187.396 116.182 187.293 116.449 187.223C116.718 187.153 116.999 187.104 117.294 187.075C117.64 187.039 117.92 187.006 118.132 186.975C118.343 186.941 118.497 186.892 118.593 186.827C118.689 186.763 118.736 186.667 118.736 186.54V186.517C118.736 186.272 118.659 186.082 118.504 185.947C118.351 185.813 118.134 185.745 117.852 185.745C117.555 185.745 117.319 185.811 117.143 185.943C116.967 186.072 116.851 186.235 116.794 186.432L115.266 186.308C115.344 185.946 115.496 185.633 115.724 185.369C115.951 185.103 116.244 184.899 116.604 184.757C116.966 184.612 117.384 184.54 117.86 184.54C118.191 184.54 118.508 184.578 118.81 184.656C119.115 184.733 119.385 184.854 119.62 185.016C119.858 185.179 120.046 185.389 120.183 185.645C120.32 185.898 120.388 186.202 120.388 186.556V190.573H118.822V189.747H118.775C118.68 189.933 118.552 190.097 118.391 190.24C118.231 190.379 118.038 190.489 117.814 190.569C117.589 190.647 117.329 190.685 117.034 190.685ZM117.507 189.545C117.75 189.545 117.965 189.498 118.151 189.402C118.337 189.304 118.483 189.172 118.589 189.006C118.695 188.841 118.748 188.654 118.748 188.444V187.812C118.696 187.846 118.625 187.877 118.535 187.905C118.447 187.931 118.347 187.956 118.236 187.979C118.125 188 118.014 188.019 117.903 188.037C117.792 188.053 117.691 188.067 117.6 188.08C117.406 188.108 117.237 188.153 117.092 188.215C116.948 188.277 116.835 188.361 116.755 188.467C116.675 188.571 116.635 188.7 116.635 188.855C116.635 189.08 116.716 189.252 116.879 189.371C117.045 189.487 117.254 189.545 117.507 189.545Z" fill="black"/>
<path d="M108.457 190.573V182.632H111.59C112.192 182.632 112.706 182.747 113.129 182.977C113.553 183.205 113.877 183.521 114.099 183.927C114.324 184.33 114.436 184.796 114.436 185.323C114.436 185.85 114.322 186.316 114.095 186.719C113.867 187.122 113.538 187.436 113.106 187.661C112.677 187.886 112.157 187.999 111.547 187.999H109.55V186.653H111.276C111.599 186.653 111.865 186.597 112.075 186.486C112.287 186.373 112.444 186.216 112.548 186.017C112.654 185.816 112.707 185.584 112.707 185.323C112.707 185.059 112.654 184.829 112.548 184.633C112.444 184.434 112.287 184.28 112.075 184.171C111.863 184.06 111.594 184.005 111.268 184.005H110.136V190.573H108.457Z" fill="black"/>
<path d="M144.76 244.023C144.76 254.728 136.082 263.406 125.377 263.406C114.671 263.406 105.993 254.728 105.993 244.023C105.993 233.318 114.671 224.64 125.377 224.64C136.082 224.64 144.76 233.318 144.76 244.023Z" fill="#E1D0FF"/>
<path d="M132.475 244.023L121.828 250.17L121.828 237.876L132.475 244.023Z" fill="#171717"/>
<defs>
<filter id="filter0_d_1170_745" x="0" y="0" width="253.427" height="306" filterUnits="userSpaceOnUse" color-interpolation-filters="sRGB">
<feFlood flood-opacity="0" result="BackgroundImageFix"/>
<feColorMatrix in="SourceAlpha" type="matrix" values="0 0 0 0 0 0 0 0 0 0 0 0 0 0 0 0 0 0 127 0" result="hardAlpha"/>
<feOffset dy="4"/>
<feGaussianBlur stdDeviation="13.5"/>
<feComposite in2="hardAlpha" operator="out"/>
<feColorMatrix type="matrix" values="0 0 0 0 0 0 0 0 0 0 0 0 0 0 0 0 0 0 0.07 0"/>
<feBlend mode="normal" in2="BackgroundImageFix" result="effect1_dropShadow_1170_745"/>
<feBlend mode="normal" in="SourceGraphic" in2="effect1_dropShadow_1170_745" result="shape"/>
</filter>
</defs>
</svg>
