<svg width="286" height="52" viewBox="0 0 286 52" fill="none" xmlns="http://www.w3.org/2000/svg">
<rect y="9.87784" width="283.778" height="42.0973" rx="21.0486" transform="rotate(-1.99477 0 9.87784)" fill="#FAF7BF"/>
<path d="M26.3917 35.5234L26.0208 24.8738L28.4673 24.7886L28.8382 35.4382L26.3917 35.5234ZM23.0157 26.3874L22.9449 24.3566L31.4998 24.0586L31.5705 26.0894L23.0157 26.3874ZM33.5461 35.2742L33.1401 23.6173L35.5067 23.5348L35.6554 27.8043L35.7354 27.8015C35.9447 27.3779 36.2479 27.0418 36.6448 26.7932C37.0524 26.5442 37.5227 26.4104 38.0557 26.3919C38.642 26.3714 39.1524 26.4711 39.587 26.6907C40.0319 26.8994 40.3853 27.2393 40.6472 27.7104C40.9087 28.171 41.0524 28.7743 41.0784 29.5205L41.2695 35.0052L38.9029 35.0876L38.7236 29.9388C38.7039 29.3738 38.5613 28.9571 38.2958 28.6889C38.0299 28.41 37.6838 28.2779 37.2574 28.2928C36.767 28.3099 36.3833 28.478 36.1062 28.7972C35.8398 29.116 35.7167 29.5632 35.7367 30.1388L35.9127 35.1918L33.5461 35.2742ZM47.3079 34.987C46.4231 35.0178 45.649 34.858 44.9858 34.5075C44.3221 34.1464 43.8025 33.6309 43.427 32.9609C43.0511 32.2802 42.8475 31.4921 42.8163 30.5967C42.7862 29.7332 42.9411 28.97 43.2809 28.3071C43.631 27.6332 44.1195 27.1039 44.7465 26.7192C45.3731 26.3238 46.0915 26.112 46.9017 26.0837C47.7332 26.0548 48.4587 26.2003 49.0782 26.5203C49.6974 26.8296 50.1776 27.2878 50.5189 27.8949C50.8709 28.5017 51.0616 29.2262 51.0909 30.0683C51.0961 30.2176 51.0964 30.3777 51.0917 30.5486C51.0866 30.7089 51.0752 30.8427 51.0576 30.95L43.9739 31.1968L43.9232 29.7416L49.4079 29.5506L48.8229 29.7631C48.8169 29.283 48.7337 28.8857 48.5733 28.5711C48.4236 28.2561 48.2127 28.0233 47.9406 27.8727C47.6682 27.7114 47.3347 27.6376 46.9403 27.6514C46.5672 27.6644 46.2395 27.7558 45.9572 27.9257C45.675 28.0957 45.4599 28.354 45.3118 28.7007C45.1634 29.0367 45.0983 29.4659 45.1165 29.9883L45.1511 30.9797C45.1741 31.6406 45.3744 32.1833 45.7521 32.6077C46.1298 33.0322 46.6757 33.2319 47.3899 33.2071C47.7737 33.1937 48.1334 33.1011 48.4689 32.9293C48.8041 32.7469 49.0773 32.4706 49.2886 32.1003L51.0203 33.0966C50.8201 33.4772 50.5487 33.8068 50.2062 34.0856C49.8634 34.3537 49.4491 34.5656 48.9636 34.7212C48.4781 34.8769 47.9261 34.9655 47.3079 34.987ZM60.8439 34.5156C60.0231 34.5441 59.2865 34.3884 58.6343 34.0482C57.9923 33.697 57.4786 33.1972 57.0932 32.5489C56.7073 31.89 56.4986 31.1074 56.4671 30.2013C56.4355 29.2952 56.5894 28.5053 56.9289 27.8318C57.2679 27.1476 57.7456 26.6133 58.362 26.2289C58.9889 25.8442 59.7075 25.6377 60.5177 25.6095C61.4878 25.5757 62.2943 25.7504 62.9374 26.1336C63.5908 26.5058 64.0646 27.0869 64.359 27.8772L62.3196 28.6206C62.1548 28.1781 61.9302 27.8604 61.646 27.6675C61.3614 27.4639 61.0166 27.3692 60.6115 27.3833C60.2597 27.3956 59.9488 27.5078 59.6787 27.72C59.4082 27.9215 59.1947 28.2278 59.0382 28.6388C58.8921 29.0388 58.8292 29.532 58.8496 30.1183C58.87 30.7046 58.9673 31.1975 59.1413 31.5971C59.326 31.9962 59.5604 32.2922 59.8446 32.4851C60.1391 32.667 60.4623 32.7518 60.8141 32.7395C61.2191 32.7254 61.5566 32.6069 61.8263 32.3841C62.1063 32.1502 62.313 31.8014 62.4463 31.3379L64.5164 31.9382C64.2778 32.747 63.8512 33.3702 63.2367 33.8078C62.6222 34.2455 61.8246 34.4814 60.8439 34.5156ZM69.9987 34.1967C69.1139 34.2275 68.3346 34.0679 67.6606 33.7178C66.9867 33.3677 66.4568 32.8632 66.071 32.2042C65.6851 31.5452 65.477 30.7787 65.4466 29.9046C65.4154 29.0091 65.5695 28.2246 65.9089 27.551C66.2483 26.8775 66.742 26.3426 67.39 25.9465C68.0375 25.5397 68.8037 25.3209 69.6885 25.2901C70.5733 25.2593 71.3527 25.4189 72.0266 25.769C72.7005 26.1191 73.2304 26.6236 73.6162 27.2826C74.0017 27.9309 74.21 28.7028 74.2412 29.5982C74.272 30.483 74.1179 31.2675 73.7789 31.9518C73.4394 32.6253 72.9458 33.1602 72.2978 33.5563C71.6499 33.9524 70.8835 34.1659 69.9987 34.1967ZM69.9369 32.4218C70.3313 32.408 70.6691 32.3002 70.9503 32.0983C71.2421 31.896 71.461 31.5949 71.6072 31.1949C71.7637 30.7839 71.8315 30.2799 71.8107 29.6829C71.7892 29.0646 71.6863 28.5612 71.5019 28.1727C71.3283 27.7839 71.0889 27.4987 70.7837 27.3172C70.4892 27.1353 70.1448 27.0513 69.7503 27.065C69.3559 27.0788 69.0128 27.1868 68.721 27.389C68.4398 27.591 68.2209 27.8921 68.064 28.2925C67.9179 28.6925 67.8556 29.2016 67.8771 29.8199C67.8983 30.4275 67.9957 30.9258 68.1693 31.3146C68.3536 31.7031 68.593 31.9883 68.8875 32.1702C69.1927 32.3516 69.5425 32.4355 69.9369 32.4218ZM79.8774 33.8526C79.0992 33.8797 78.4233 33.7805 77.8498 33.555C77.2759 33.3189 76.8252 32.945 76.4979 32.4334C76.1706 31.9218 75.993 31.2663 75.9651 30.4668L75.7841 25.2699L78.1507 25.1875L78.3289 30.3044C78.349 30.88 78.4813 31.3077 78.7258 31.5873C78.981 31.8666 79.3431 31.9981 79.8122 31.9818C80.2493 31.9665 80.5854 31.8108 80.8205 31.5144C81.0664 31.2176 81.1792 30.7815 81.1592 30.2058L80.981 25.0889L83.3475 25.0065L83.5285 30.2033C83.5564 31.0028 83.4248 31.6692 83.1339 32.2023C82.8429 32.7354 82.4141 33.1399 81.8473 33.4158C81.2909 33.6807 80.6342 33.8263 79.8774 33.8526ZM85.7801 33.4549L85.4832 24.9321L87.6739 24.8558L87.7274 26.3909L87.8073 26.3881C87.9384 25.8605 88.1957 25.4353 88.5794 25.1124C88.9733 24.7785 89.4422 24.6021 89.9858 24.5832C90.0818 24.5798 90.1726 24.582 90.2582 24.5897C90.3435 24.5867 90.4185 24.5948 90.4832 24.6139L90.5589 26.7885C90.4615 26.7492 90.3433 26.7267 90.2044 26.7208C90.0654 26.715 89.9053 26.7153 89.7241 26.7216C89.3617 26.7342 89.05 26.8251 88.789 26.9943C88.5277 27.1528 88.3221 27.3788 88.1723 27.6722C88.033 27.9652 87.9705 28.3142 87.9846 28.7193L88.1467 33.3725L85.7801 33.4549ZM95.3073 33.3152C94.2839 33.3509 93.4457 33.1879 92.7927 32.8265C92.1394 32.4543 91.7096 31.9143 91.5035 31.2063L93.7106 30.6812C93.8416 31.0715 94.0435 31.3527 94.3163 31.5246C94.5998 31.6962 94.9547 31.7746 95.3812 31.7597C95.7756 31.746 96.0818 31.6499 96.2997 31.4716C96.5176 31.2932 96.6212 31.0494 96.6104 30.7403C96.6011 30.4738 96.5191 30.2632 96.3643 30.1085C96.2201 29.9534 95.9868 29.8441 95.6644 29.7806L93.9379 29.3925C93.2497 29.2457 92.7177 28.9867 92.3419 28.6156C91.9661 28.2444 91.7676 27.7551 91.7464 27.1474C91.7282 26.6251 91.8615 26.1615 92.1462 25.7567C92.431 25.3518 92.8362 25.0335 93.3617 24.8018C93.8869 24.5594 94.5013 24.4259 95.2049 24.4014C95.8125 24.3802 96.359 24.4412 96.8443 24.5844C97.3398 24.7166 97.7527 24.9263 98.0829 25.2137C98.4128 25.4904 98.6382 25.8347 98.7593 26.2468L96.6344 26.8331C96.5167 26.517 96.3326 26.2886 96.0822 26.1479C95.8319 26.0072 95.5308 25.943 95.179 25.9552C94.8059 25.9682 94.5207 26.0529 94.3233 26.2092C94.1362 26.3544 94.0477 26.571 94.0578 26.8588C94.0648 27.0613 94.1402 27.2348 94.284 27.3792C94.4278 27.5237 94.6719 27.6379 95.0164 27.722L96.7104 28.0952C97.1405 28.187 97.519 28.3285 97.8459 28.5199C98.1727 28.7114 98.427 28.964 98.6087 29.2779C98.8007 29.5807 98.9049 29.9666 98.9212 30.4357C98.9413 31.0113 98.8093 31.5122 98.5253 31.9384C98.2409 32.3539 97.8254 32.6832 97.2789 32.9264C96.732 33.1589 96.0748 33.2885 95.3073 33.3152ZM104.57 32.9926C103.685 33.0234 102.911 32.8636 102.248 32.5131C101.584 32.152 101.065 31.6365 100.689 30.9665C100.313 30.2858 100.11 29.4977 100.078 28.6023C100.048 27.7388 100.203 26.9756 100.543 26.3127C100.893 25.6388 101.382 25.1095 102.009 24.7247C102.635 24.3294 103.354 24.1176 104.164 24.0893C104.995 24.0604 105.721 24.2059 106.34 24.5258C106.96 24.8352 107.44 25.2934 107.781 25.9005C108.133 26.5073 108.324 27.2318 108.353 28.0739C108.358 28.2232 108.359 28.3833 108.354 28.5542C108.349 28.7145 108.337 28.8483 108.32 28.9556L101.236 29.2024L101.185 27.7472L106.67 27.5562L106.085 27.7687C106.079 27.2886 105.996 26.8913 105.835 26.5767C105.686 26.2617 105.475 26.0289 105.203 25.8783C104.93 25.717 104.597 25.6432 104.202 25.657C103.829 25.6699 103.502 25.7614 103.219 25.9313C102.937 26.1013 102.722 26.3596 102.574 26.7063C102.426 27.0423 102.36 27.4715 102.379 27.9939L102.413 28.9852C102.436 29.6462 102.637 30.1889 103.014 30.6133C103.392 31.0378 103.938 31.2375 104.652 31.2127C105.036 31.1993 105.396 31.1067 105.731 30.9349C106.066 30.7525 106.339 30.4762 106.551 30.1059L108.282 31.1022C108.082 31.4828 107.811 31.8124 107.468 32.0912C107.126 32.3593 106.711 32.5711 106.226 32.7268C105.74 32.8825 105.188 32.9711 104.57 32.9926ZM118.074 35.7242C117.05 35.7599 116.175 35.6089 115.448 35.2713C114.722 34.9444 114.19 34.3866 113.853 33.5978L115.988 32.8511C116.173 33.2502 116.434 33.54 116.771 33.7204C117.109 33.9114 117.517 33.9985 117.997 33.9818C118.658 33.9588 119.147 33.7497 119.464 33.3544C119.792 32.9694 119.944 32.4305 119.92 31.7375L119.879 30.5702L119.799 30.573C119.629 30.8992 119.415 31.1788 119.156 31.4119C118.908 31.634 118.626 31.8093 118.31 31.9377C118.005 32.0657 117.666 32.1362 117.293 32.1492C116.621 32.1726 116.012 32.0124 115.467 31.6685C114.932 31.3243 114.504 30.8375 114.183 30.2083C113.862 29.5791 113.688 28.8487 113.659 28.0172C113.629 27.1751 113.753 26.4343 114.029 25.795C114.316 25.1446 114.72 24.6289 115.24 24.2479C115.761 23.8669 116.367 23.6643 117.06 23.6402C117.444 23.6268 117.798 23.6679 118.121 23.7633C118.445 23.8588 118.738 24.014 119.002 24.2289C119.276 24.4329 119.504 24.6864 119.685 24.9896L119.765 24.9868L119.721 23.7396L121.96 23.6616L122.233 31.5129C122.264 32.3977 122.114 33.1447 121.783 33.7539C121.463 34.3734 120.983 34.8491 120.344 35.1809C119.715 35.5123 118.958 35.6934 118.074 35.7242ZM118.062 30.3454C118.467 30.3312 118.805 30.2181 119.075 30.0059C119.345 29.783 119.548 29.4825 119.684 29.1042C119.831 28.7255 119.896 28.291 119.879 27.8006C119.861 27.2996 119.766 26.8706 119.594 26.5137C119.432 26.1458 119.208 25.8654 118.924 25.6725C118.64 25.469 118.295 25.3743 117.89 25.3884C117.506 25.4017 117.174 25.52 116.893 25.7433C116.623 25.9555 116.42 26.2507 116.284 26.629C116.147 26.9967 116.088 27.431 116.105 27.932C116.123 28.4331 116.212 28.8675 116.375 29.2354C116.537 29.5927 116.76 29.8731 117.044 30.0766C117.339 30.2691 117.679 30.3587 118.062 30.3454ZM124.475 32.1072L124.179 23.5844L126.545 23.5019L126.842 32.0248L124.475 32.1072ZM125.373 22.4861C124.979 22.4999 124.649 22.3779 124.384 22.1203C124.119 21.8627 123.98 21.5527 123.967 21.1903C123.954 20.8172 124.071 20.5036 124.319 20.2495C124.565 19.9847 124.886 19.8455 125.281 19.8317C125.675 19.818 125.994 19.935 126.237 20.1826C126.491 20.4193 126.624 20.7242 126.637 21.0973C126.65 21.4597 126.538 21.7785 126.303 22.0535C126.067 22.3285 125.757 22.4728 125.373 22.4861ZM130.921 31.8827L127.97 23.4523L130.512 23.3638L132.502 30.3708L132.582 30.368L134.078 23.2396L136.605 23.1516L134.263 31.7663L130.921 31.8827ZM141.969 31.69C141.084 31.7208 140.31 31.561 139.647 31.2106C138.983 30.8494 138.464 30.3339 138.088 29.6639C137.712 28.9832 137.509 28.1952 137.478 27.2997C137.448 26.4362 137.602 25.673 137.942 25.0101C138.292 24.3362 138.781 23.8069 139.408 23.4222C140.034 23.0268 140.753 22.815 141.563 22.7868C142.395 22.7578 143.12 22.9033 143.74 23.2233C144.359 23.5326 144.839 23.9908 145.18 24.5979C145.532 25.2047 145.723 25.9292 145.752 26.7714C145.757 26.9206 145.758 27.0807 145.753 27.2516C145.748 27.4119 145.737 27.5457 145.719 27.653L138.635 27.8998L138.585 26.4446L144.069 26.2536L143.484 26.4661C143.478 25.986 143.395 25.5887 143.235 25.2741C143.085 24.9591 142.874 24.7263 142.602 24.5757C142.33 24.4144 141.996 24.3406 141.602 24.3544C141.229 24.3674 140.901 24.4588 140.619 24.6287C140.336 24.7987 140.121 25.057 139.973 25.4037C139.825 25.7397 139.76 26.1689 139.778 26.6913L139.812 27.6827C139.835 28.3436 140.036 28.8863 140.413 29.3107C140.791 29.7352 141.337 29.935 142.051 29.9101C142.435 29.8967 142.795 29.8041 143.13 29.6324C143.465 29.4499 143.739 29.1736 143.95 28.8033L145.682 29.7996C145.481 30.1802 145.21 30.5098 144.868 30.7886C144.525 31.0567 144.111 31.2686 143.625 31.4242C143.139 31.5799 142.588 31.6685 141.969 31.69ZM150.727 31.385C149.703 31.4206 148.865 31.2577 148.212 30.8962C147.559 30.5241 147.129 29.984 146.923 29.2761L149.13 28.751C149.261 29.1413 149.463 29.4225 149.736 29.5944C150.019 29.766 150.374 29.8443 150.801 29.8295C151.195 29.8157 151.501 29.7197 151.719 29.5413C151.937 29.363 152.041 29.1192 152.03 28.8101C152.021 28.5436 151.939 28.333 151.784 28.1783C151.64 28.0232 151.406 27.9139 151.084 27.8504L149.357 27.4623C148.669 27.3155 148.137 27.0565 147.761 26.6854C147.386 26.3142 147.187 25.8248 147.166 25.2172C147.148 24.6949 147.281 24.2313 147.566 23.8264C147.851 23.4216 148.256 23.1033 148.781 22.8716C149.306 22.6291 149.921 22.4957 150.624 22.4712C151.232 22.45 151.779 22.511 152.264 22.6542C152.759 22.7864 153.172 22.9961 153.502 23.2835C153.832 23.5602 154.058 23.9045 154.179 24.3165L152.054 24.9029C151.936 24.5868 151.752 24.3584 151.502 24.2177C151.251 24.077 150.95 24.0127 150.599 24.025C150.225 24.038 149.94 24.1226 149.743 24.2789C149.556 24.4242 149.467 24.6407 149.477 24.9286C149.484 25.1311 149.56 25.3046 149.704 25.449C149.847 25.5934 150.091 25.7077 150.436 25.7917L152.13 26.165C152.56 26.2567 152.939 26.3983 153.265 26.5897C153.592 26.7811 153.847 27.0338 154.028 27.3476C154.22 27.6505 154.324 28.0364 154.341 28.5055C154.361 29.0811 154.229 29.582 153.945 30.0081C153.66 30.4236 153.245 30.753 152.698 30.9961C152.152 31.2286 151.494 31.3583 150.727 31.385ZM161.915 34.0051L163.069 30.3628L163.719 29.2675L165.425 22.1478L167.903 22.0615L164.266 33.9233L161.915 34.0051ZM162.443 30.7688L159.077 22.3689L161.555 22.2826L163.788 28.9449L164.476 28.9209L164.49 30.6975L162.443 30.7688ZM173.217 30.6017C172.333 30.6325 171.553 30.4728 170.879 30.1228C170.205 29.7727 169.675 29.2681 169.29 28.6092C168.904 27.9502 168.696 27.1836 168.665 26.3095C168.634 25.4141 168.788 24.6295 169.128 23.956C169.467 23.2824 169.961 22.7476 170.609 22.3515C171.256 21.9447 172.022 21.7259 172.907 21.6951C173.792 21.6642 174.571 21.8239 175.245 22.174C175.919 22.5241 176.449 23.0286 176.835 23.6875C177.22 24.3359 177.429 25.1077 177.46 26.0032C177.491 26.888 177.337 27.6725 176.998 28.3567C176.658 29.0303 176.164 29.5651 175.516 29.9612C174.869 30.3574 174.102 30.5708 173.217 30.6017ZM173.156 28.8267C173.55 28.813 173.888 28.7052 174.169 28.5033C174.461 28.301 174.68 27.9998 174.826 27.5999C174.982 27.1888 175.05 26.6848 175.029 26.0879C175.008 25.4696 174.905 24.9662 174.721 24.5777C174.547 24.1888 174.308 23.9037 174.002 23.7222C173.708 23.5403 173.363 23.4562 172.969 23.47C172.575 23.4837 172.231 23.5917 171.94 23.794C171.659 23.9959 171.44 24.2971 171.283 24.6974C171.137 25.0974 171.074 25.6066 171.096 26.2249C171.117 26.8325 171.214 27.3307 171.388 27.7196C171.572 28.1081 171.812 28.3933 172.106 28.5751C172.411 28.7566 172.761 28.8405 173.156 28.8267ZM183.096 30.2576C182.318 30.2847 181.642 30.1855 181.068 29.96C180.495 29.7238 180.044 29.3499 179.717 28.8384C179.389 28.3268 179.212 27.6712 179.184 26.8717L179.003 21.6749L181.369 21.5924L181.548 26.7093C181.568 27.285 181.7 27.7126 181.944 27.9923C182.2 28.2716 182.562 28.4031 183.031 28.3867C183.468 28.3715 183.804 28.2157 184.039 27.9193C184.285 27.6226 184.398 27.1864 184.378 26.6108L184.2 21.4939L186.566 21.4114L186.747 26.6083C186.775 27.4078 186.644 28.0741 186.353 28.6072C186.062 29.1404 185.633 29.5449 185.066 29.8208C184.51 30.0856 183.853 30.2312 183.096 30.2576ZM196.262 29.799C195.559 29.8235 194.929 29.664 194.373 29.3205C193.827 28.9766 193.388 28.4796 193.056 27.8294C192.734 27.1682 192.557 26.3793 192.525 25.4625C192.494 24.5564 192.616 23.7676 192.891 23.0963C193.177 22.4139 193.58 21.8823 194.1 21.5012C194.621 21.1202 195.233 20.9175 195.936 20.893C196.331 20.8792 196.685 20.9309 196.998 21.0481C197.323 21.1649 197.606 21.3311 197.848 21.5468C198.101 21.7621 198.302 22.0113 198.451 22.2943L198.53 22.2915L198.376 17.8622L200.743 17.7798L201.149 29.4367L198.91 29.5147L198.864 28.2035L198.8 28.2057C198.672 28.4984 198.484 28.7664 198.236 29.0098C197.988 29.2426 197.696 29.4289 197.359 29.5687C197.033 29.7081 196.668 29.7849 196.262 29.799ZM196.936 27.9985C197.341 27.9844 197.684 27.8657 197.964 27.6425C198.244 27.4086 198.452 27.0918 198.588 26.6922C198.723 26.2819 198.781 25.7996 198.761 25.2453C198.742 24.7016 198.646 24.2353 198.473 23.8465C198.309 23.4466 198.08 23.1451 197.785 22.9419C197.489 22.728 197.144 22.628 196.75 22.6417C196.355 22.6555 196.018 22.7793 195.738 23.0132C195.468 23.236 195.26 23.5474 195.114 23.9474C194.979 24.3471 194.92 24.824 194.94 25.3784C194.959 25.9327 195.05 26.4098 195.214 26.8097C195.387 27.1986 195.617 27.5001 195.902 27.7143C196.197 27.9175 196.542 28.0122 196.936 27.9985ZM203.365 29.3595L203.068 20.8367L205.435 20.7543L205.732 29.2771L203.365 29.3595ZM204.263 19.7384C203.868 19.7522 203.538 19.6303 203.273 19.3727C203.008 19.1151 202.869 18.805 202.857 18.4426C202.844 18.0695 202.961 17.7559 203.208 17.5018C203.455 17.237 203.776 17.0978 204.17 17.0841C204.565 17.0703 204.884 17.1873 205.127 17.435C205.381 17.6716 205.514 17.9765 205.527 18.3496C205.54 18.712 205.428 19.0308 205.192 19.3058C204.956 19.5809 204.646 19.7251 204.263 19.7384ZM207.956 29.1996L207.659 20.6768L209.85 20.6005L209.903 22.1356L209.983 22.1328C210.114 21.6052 210.372 21.18 210.755 20.8571C211.149 20.5232 211.618 20.3468 212.162 20.3278C212.258 20.3245 212.348 20.3267 212.434 20.3344C212.519 20.3314 212.594 20.3395 212.659 20.3586L212.735 22.5332C212.637 22.4939 212.519 22.4714 212.38 22.4655C212.241 22.4597 212.081 22.4599 211.9 22.4663C211.538 22.4789 211.226 22.5698 210.965 22.739C210.704 22.8975 210.498 23.1235 210.348 23.4168C210.209 23.7099 210.146 24.0589 210.161 24.464L210.323 29.1172L207.956 29.1996ZM218.111 29.0381C217.226 29.0689 216.452 28.9091 215.788 28.5586C215.125 28.1975 214.605 27.6819 214.23 27.0119C213.854 26.3313 213.65 25.5432 213.619 24.6477C213.589 23.7843 213.744 23.0211 214.084 22.3582C214.434 21.6843 214.922 21.1549 215.549 20.7702C216.176 20.3748 216.894 20.163 217.704 20.1348C218.536 20.1058 219.261 20.2513 219.881 20.5713C220.5 20.8806 220.98 21.3388 221.322 21.946C221.674 22.5528 221.864 23.2772 221.894 24.1194C221.899 24.2686 221.899 24.4287 221.894 24.5997C221.889 24.7599 221.878 24.8937 221.86 25.0011L214.777 25.2478L214.726 23.7927L220.211 23.6017L219.626 23.8142C219.62 23.3341 219.536 22.9367 219.376 22.6221C219.226 22.3071 219.015 22.0743 218.743 21.9237C218.471 21.7624 218.137 21.6887 217.743 21.7024C217.37 21.7154 217.042 21.8069 216.76 21.9768C216.478 22.1467 216.263 22.405 216.115 22.7517C215.966 23.0878 215.901 23.517 215.919 24.0393L215.954 25.0307C215.977 25.6916 216.177 26.2343 216.555 26.6588C216.932 27.0832 217.478 27.283 218.193 27.2581C218.576 27.2448 218.936 27.1522 219.272 26.9804C219.607 26.798 219.88 26.5216 220.091 26.1514L221.823 27.1477C221.623 27.5282 221.351 27.8579 221.009 28.1366C220.666 28.4047 220.252 28.6166 219.766 28.7723C219.281 28.9279 218.729 29.0165 218.111 29.0381ZM227.54 28.7096C226.719 28.7382 225.982 28.5824 225.33 28.2423C224.688 27.8911 224.174 27.3913 223.789 26.743C223.403 26.084 223.194 25.3015 223.163 24.3954C223.131 23.4893 223.285 22.6994 223.625 22.0259C223.964 21.3417 224.441 20.8074 225.058 20.423C225.685 20.0383 226.403 19.8318 227.214 19.8036C228.184 19.7698 228.99 19.9445 229.633 20.3277C230.287 20.6998 230.76 21.281 231.055 22.0713L229.015 22.8147C228.851 22.3722 228.626 22.0545 228.342 21.8616C228.057 21.658 227.712 21.5633 227.307 21.5774C226.956 21.5897 226.645 21.7019 226.374 21.9141C226.104 22.1156 225.891 22.4219 225.734 22.8329C225.588 23.2329 225.525 23.7261 225.545 24.3124C225.566 24.8987 225.663 25.3916 225.837 25.7911C226.022 26.1903 226.256 26.4863 226.54 26.6792C226.835 26.8611 227.158 26.9459 227.51 26.9336C227.915 26.9195 228.252 26.801 228.522 26.5782C228.802 26.3443 229.009 25.9955 229.142 25.5319L231.212 26.1323C230.974 26.941 230.547 27.5643 229.933 28.0019C229.318 28.4396 228.52 28.6755 227.54 28.7096ZM236.133 28.3783C235.302 28.4073 234.66 28.2268 234.209 27.837C233.757 27.4364 233.518 26.8418 233.49 26.0529L233.213 18.0897L235.544 16.9839L235.845 25.6187C235.856 25.9278 235.938 26.1544 236.093 26.2985C236.247 26.4425 236.463 26.5097 236.74 26.5001C236.847 26.4964 236.958 26.4871 237.075 26.4724C237.192 26.447 237.319 26.4105 237.456 26.3631L237.516 28.09C237.284 28.1835 237.057 28.2501 236.834 28.2899C236.612 28.3403 236.378 28.3698 236.133 28.3783ZM231.97 21.479L231.913 19.832L237.238 19.6466L237.295 21.2936L231.97 21.479ZM239.25 28.1097L238.953 19.5869L241.319 19.5044L241.616 28.0273L239.25 28.1097ZM240.147 18.4886C239.753 18.5023 239.423 18.3804 239.158 18.1228C238.893 17.8652 238.754 17.5552 238.741 17.1928C238.728 16.8197 238.845 16.5061 239.093 16.252C239.34 15.9872 239.66 15.848 240.055 15.8342C240.449 15.8205 240.768 15.9374 241.012 16.1851C241.265 16.4218 241.399 16.7266 241.412 17.0998C241.424 17.4622 241.313 17.7809 241.077 18.056C240.841 18.331 240.531 18.4752 240.147 18.4886ZM247.813 28.0035C246.928 28.0344 246.149 27.8747 245.475 27.5246C244.801 27.1746 244.271 26.67 243.885 26.0111C243.499 25.3521 243.291 24.5855 243.261 23.7114C243.229 22.8159 243.384 22.0314 243.723 21.3579C244.062 20.6843 244.556 20.1495 245.204 19.7534C245.852 19.3466 246.618 19.1278 247.503 19.0969C248.387 19.0661 249.167 19.2258 249.841 19.5759C250.515 19.9259 251.044 20.4305 251.43 21.0894C251.816 21.7377 252.024 22.5096 252.055 23.4051C252.086 24.2899 251.932 25.0744 251.593 25.7586C251.254 26.4322 250.76 26.967 250.112 27.3631C249.464 27.7593 248.698 27.9727 247.813 28.0035ZM247.751 26.2286C248.145 26.2149 248.483 26.1071 248.764 25.9052C249.056 25.7029 249.275 25.4017 249.421 25.0017C249.578 24.5907 249.646 24.0867 249.625 23.4897C249.603 22.8715 249.5 22.3681 249.316 21.9796C249.142 21.5907 248.903 21.3055 248.598 21.1241C248.303 20.9422 247.959 20.8581 247.564 20.8719C247.17 20.8856 246.827 20.9936 246.535 21.1959C246.254 21.3978 246.035 21.6989 245.878 22.0993C245.732 22.4993 245.67 23.0085 245.691 23.6267C245.712 24.2344 245.81 24.7326 245.983 25.1215C246.168 25.51 246.407 25.7951 246.702 25.977C247.007 26.1585 247.357 26.2424 247.751 26.2286ZM259.332 27.4102L259.152 22.2614C259.133 21.6964 258.99 21.2797 258.725 21.0115C258.459 20.7326 258.113 20.6005 257.686 20.6154C257.196 20.6325 256.812 20.8059 256.536 21.1358C256.27 21.4652 256.146 21.9071 256.166 22.4614L256.342 27.5144L253.975 27.5968L253.678 19.074L255.869 18.9977L255.916 20.3409L255.996 20.3381C256.192 19.8509 256.504 19.4665 256.932 19.1848C257.37 18.892 257.888 18.7352 258.485 18.7145C259.071 18.694 259.581 18.7937 260.016 19.0133C260.461 19.222 260.814 19.5619 261.076 20.033C261.338 20.4936 261.481 21.0969 261.507 21.8431L261.698 27.3278L259.332 27.4102Z" fill="#151515"/>
</svg>
