<svg width="38" height="40" viewBox="0 0 38 40" fill="none" xmlns="http://www.w3.org/2000/svg">
<rect width="37.583" height="32.1411" rx="4" fill="black"/>
<path d="M4.59672 38.257C7.10728 36.0253 7.61906 32.0964 7.56113 30.4109C11.3387 26.6914 18.6848 20.9958 17.8479 27.97C16.8017 36.6878 1.45851 41.0466 4.59672 38.257Z" fill="black"/>
<path d="M18.7587 22.8113C17.8042 22.8113 16.9541 22.6472 16.2083 22.3191C15.4668 21.9867 14.8809 21.5308 14.4505 20.9512C14.0244 20.3674 13.8049 19.6941 13.7921 18.9313H16.5791C16.5961 19.2509 16.7005 19.5322 16.8923 19.7751C17.0883 20.0137 17.3482 20.1991 17.6721 20.3312C17.996 20.4633 18.3603 20.5293 18.7651 20.5293C19.187 20.5293 19.5599 20.4548 19.8837 20.3056C20.2076 20.1565 20.4612 19.9498 20.6444 19.6856C20.8276 19.4214 20.9193 19.1167 20.9193 18.7715C20.9193 18.4221 20.8212 18.1131 20.6252 17.8447C20.4335 17.572 20.1565 17.3589 19.7943 17.2055C19.4363 17.0521 19.0102 16.9754 18.5158 16.9754H17.295V14.9427H18.5158C18.9335 14.9427 19.3021 14.8703 19.6217 14.7254C19.9455 14.5805 20.197 14.3802 20.3759 14.1245C20.5549 13.8646 20.6444 13.562 20.6444 13.2168C20.6444 12.8887 20.5656 12.6011 20.4079 12.3539C20.2545 12.1025 20.0372 11.9065 19.7559 11.7658C19.4789 11.6252 19.1551 11.5549 18.7843 11.5549C18.4093 11.5549 18.0663 11.6231 17.7552 11.7595C17.4441 11.8916 17.1948 12.0812 17.0073 12.3283C16.8198 12.5755 16.7197 12.8653 16.7069 13.1977H14.0542C14.067 12.4434 14.2822 11.7786 14.6998 11.2033C15.1174 10.6281 15.6799 10.1785 16.3873 9.85462C17.0989 9.5265 17.9022 9.36244 18.7971 9.36244C19.7005 9.36244 20.491 9.5265 21.1685 9.85462C21.8461 10.1827 22.3724 10.6259 22.7474 11.1842C23.1266 11.7381 23.3141 12.3603 23.3099 13.0506C23.3141 13.7836 23.0862 14.3951 22.6259 14.8852C22.17 15.3752 21.5755 15.6863 20.8426 15.8184V15.9207C21.8056 16.0443 22.5386 16.3788 23.0414 16.9242C23.5485 17.4654 23.7999 18.143 23.7957 18.9569C23.7999 19.7026 23.5847 20.3653 23.1501 20.9448C22.7197 21.5244 22.1252 21.9803 21.3667 22.3127C20.6082 22.6451 19.7389 22.8113 18.7587 22.8113Z" fill="white"/>
</svg>
