<svg width="147" height="70" viewBox="0 0 147 70" fill="none" xmlns="http://www.w3.org/2000/svg">
<g opacity="0.8" filter="url(#filter0_d_1213_229)">
<rect x="10" y="6" width="126.062" height="50" rx="25" fill="white"/>
</g>
<circle cx="22" cy="22" r="21" transform="matrix(-1 0 0 1 57.8018 9.17163)" fill="#4D8FFF" stroke="#4D8FFF" stroke-width="2"/>
<path d="M35.8017 23.4509C40.0657 23.4509 43.5224 26.9076 43.5224 31.1717C43.5224 35.4357 40.0657 38.8924 35.8017 38.8924C31.5376 38.8924 28.0809 35.4357 28.0809 31.1717C28.0809 29.3413 28.7179 27.6596 29.7822 26.3363" stroke="white" stroke-width="2" stroke-linecap="round"/>
<path d="M24.1149 27.8496L29.3054 26.3255" stroke="white" stroke-width="2" stroke-linecap="round"/>
<path d="M29.9438 26.3254L32.8438 30.8921" stroke="white" stroke-width="2" stroke-linecap="round"/>
<path d="M69.0024 35.1716V24.9898H73.0194C73.7884 24.9898 74.4446 25.1274 74.9882 25.4025C75.535 25.6742 75.951 26.0604 76.236 26.5608C76.5244 27.058 76.6686 27.643 76.6686 28.3158C76.6686 28.9919 76.5227 29.5736 76.2311 30.0608C75.9394 30.5447 75.5168 30.9159 74.9633 31.1745C74.4131 31.433 73.7469 31.5623 72.9647 31.5623H70.2751V29.8321H72.6167C73.0277 29.8321 73.3691 29.7758 73.6409 29.6631C73.9126 29.5504 74.1148 29.3814 74.2474 29.156C74.3833 28.9306 74.4512 28.6506 74.4512 28.3158C74.4512 27.9777 74.3833 27.6927 74.2474 27.4607C74.1148 27.2287 73.911 27.053 73.6359 26.9337C73.3641 26.8111 73.0211 26.7498 72.6068 26.7498H71.1551V35.1716H69.0024ZM74.501 30.5381L77.0315 35.1716H74.6551L72.1792 30.5381H74.501ZM81.5072 35.3208C80.7217 35.3208 80.0455 35.1617 79.4788 34.8435C78.9153 34.522 78.4811 34.0679 78.1762 33.4813C77.8713 32.8913 77.7188 32.1936 77.7188 31.3882C77.7188 30.6027 77.8713 29.9133 78.1762 29.3201C78.4811 28.7268 78.9103 28.2644 79.4638 27.933C80.0207 27.6016 80.6736 27.4358 81.4227 27.4358C81.9264 27.4358 82.3954 27.517 82.8296 27.6794C83.2671 27.8385 83.6483 28.0788 83.9731 28.4003C84.3012 28.7218 84.5564 29.1262 84.7387 29.6134C84.921 30.0973 85.0121 30.6641 85.0121 31.3137V31.8954H78.564V30.5829H83.0185C83.0185 30.2779 82.9522 30.0078 82.8197 29.7725C82.6871 29.5372 82.5031 29.3532 82.2678 29.2206C82.0358 29.0847 81.7657 29.0168 81.4575 29.0168C81.136 29.0168 80.8509 29.0914 80.6023 29.2405C80.3571 29.3864 80.1648 29.5836 80.0256 29.8321C79.8864 30.0774 79.8152 30.3508 79.8119 30.6525V31.9003C79.8119 32.2782 79.8815 32.6046 80.0207 32.8797C80.1632 33.1548 80.3637 33.3669 80.6222 33.5161C80.8807 33.6652 81.1873 33.7398 81.542 33.7398C81.7773 33.7398 81.9927 33.7067 82.1883 33.6404C82.3838 33.5741 82.5512 33.4747 82.6904 33.3421C82.8296 33.2095 82.9357 33.0471 83.0086 32.8549L84.9674 32.9841C84.868 33.4548 84.6641 33.8658 84.3559 34.2171C84.051 34.5651 83.6566 34.8369 83.1727 35.0324C82.6921 35.2247 82.1369 35.3208 81.5072 35.3208ZM86.3942 38.0353V27.5353H88.4823V28.8179H88.5768C88.6696 28.6124 88.8038 28.4036 88.9795 28.1915C89.1584 27.9761 89.3905 27.7971 89.6755 27.6546C89.9638 27.5088 90.3218 27.4358 90.7494 27.4358C91.3062 27.4358 91.8199 27.5817 92.2905 27.8733C92.7612 28.1617 93.1374 28.5975 93.4191 29.1809C93.7008 29.7609 93.8417 30.4884 93.8417 31.3634C93.8417 32.2152 93.7041 32.9344 93.429 33.5211C93.1573 34.1044 92.7861 34.5469 92.3154 34.8485C91.8481 35.1468 91.3244 35.2959 90.7444 35.2959C90.3334 35.2959 89.9837 35.228 89.6954 35.0921C89.4103 34.9562 89.1767 34.7855 88.9944 34.58C88.8121 34.3712 88.6729 34.1607 88.5768 33.9486H88.5121V38.0353H86.3942ZM88.4674 31.3534C88.4674 31.8075 88.5304 32.2036 88.6563 32.5417C88.7823 32.8797 88.9646 33.1432 89.2032 33.3321C89.4418 33.5177 89.7318 33.6106 90.0732 33.6106C90.4179 33.6106 90.7096 33.5161 90.9482 33.3272C91.1869 33.1349 91.3675 32.8698 91.4901 32.5317C91.6161 32.1903 91.679 31.7976 91.679 31.3534C91.679 30.9126 91.6177 30.5249 91.4951 30.1901C91.3725 29.8553 91.1918 29.5935 90.9532 29.4046C90.7146 29.2157 90.4212 29.1212 90.0732 29.1212C89.7285 29.1212 89.4369 29.2124 89.1982 29.3946C88.9629 29.5769 88.7823 29.8355 88.6563 30.1702C88.5304 30.505 88.4674 30.8994 88.4674 31.3534ZM97.3715 24.9898V35.1716H95.2536V24.9898H97.3715ZM101.246 35.3158C100.758 35.3158 100.324 35.2313 99.9431 35.0623C99.5619 34.8899 99.2603 34.6364 99.0382 34.3016C98.8195 33.9635 98.7101 33.5426 98.7101 33.0388C98.7101 32.6146 98.788 32.2583 98.9438 31.9699C99.0996 31.6816 99.3117 31.4496 99.5801 31.2739C99.8486 31.0982 100.154 30.9657 100.495 30.8762C100.84 30.7867 101.201 30.7237 101.579 30.6873C102.023 30.6409 102.381 30.5978 102.653 30.558C102.924 30.5149 103.122 30.4519 103.244 30.3691C103.367 30.2862 103.428 30.1636 103.428 30.0012V29.9713C103.428 29.6565 103.329 29.4129 103.13 29.2405C102.934 29.0682 102.656 28.982 102.295 28.982C101.913 28.982 101.61 29.0665 101.385 29.2356C101.159 29.4013 101.01 29.6101 100.937 29.862L98.9786 29.7029C99.078 29.2389 99.2736 28.8378 99.5652 28.4998C99.8569 28.1584 100.233 27.8965 100.694 27.7142C101.158 27.5286 101.695 27.4358 102.305 27.4358C102.729 27.4358 103.135 27.4856 103.523 27.585C103.914 27.6844 104.26 27.8385 104.562 28.0473C104.867 28.2561 105.107 28.5246 105.283 28.8527C105.458 29.1775 105.546 29.567 105.546 30.0211V35.1716H103.538V34.1127H103.478C103.355 34.3513 103.191 34.5618 102.986 34.7441C102.78 34.9231 102.533 35.0639 102.245 35.1667C101.957 35.2661 101.623 35.3158 101.246 35.3158ZM101.852 33.8542C102.164 33.8542 102.439 33.7928 102.677 33.6702C102.916 33.5443 103.103 33.3752 103.239 33.1631C103.375 32.951 103.443 32.7107 103.443 32.4422V31.6319C103.377 31.6749 103.286 31.7147 103.17 31.7512C103.057 31.7843 102.929 31.8158 102.787 31.8456C102.644 31.8722 102.502 31.897 102.359 31.9202C102.217 31.9401 102.087 31.9583 101.971 31.9749C101.723 32.0114 101.506 32.0694 101.32 32.1489C101.135 32.2284 100.99 32.3362 100.888 32.4721C100.785 32.6046 100.734 32.7704 100.734 32.9692C100.734 33.2576 100.838 33.478 101.047 33.6304C101.259 33.7796 101.527 33.8542 101.852 33.8542ZM108.223 38.0353C107.955 38.0353 107.703 38.0137 107.468 37.9706C107.236 37.9309 107.043 37.8795 106.891 37.8165L107.368 36.2356C107.617 36.3118 107.84 36.3532 108.039 36.3598C108.241 36.3665 108.415 36.3201 108.561 36.2206C108.71 36.1212 108.831 35.9522 108.924 35.7135L109.049 35.3904L106.309 27.5353H108.536L110.117 33.1432H110.197L111.793 27.5353H114.035L111.067 35.9969C110.924 36.4079 110.731 36.7659 110.485 37.0708C110.243 37.379 109.937 37.616 109.566 37.7817C109.194 37.9508 108.747 38.0353 108.223 38.0353Z" fill="black"/>
<defs>
<filter id="filter0_d_1213_229" x="0" y="0" width="146.062" height="70" filterUnits="userSpaceOnUse" color-interpolation-filters="sRGB">
<feFlood flood-opacity="0" result="BackgroundImageFix"/>
<feColorMatrix in="SourceAlpha" type="matrix" values="0 0 0 0 0 0 0 0 0 0 0 0 0 0 0 0 0 0 127 0" result="hardAlpha"/>
<feOffset dy="4"/>
<feGaussianBlur stdDeviation="5"/>
<feComposite in2="hardAlpha" operator="out"/>
<feColorMatrix type="matrix" values="0 0 0 0 0 0 0 0 0 0 0 0 0 0 0 0 0 0 0.15 0"/>
<feBlend mode="normal" in2="BackgroundImageFix" result="effect1_dropShadow_1213_229"/>
<feBlend mode="normal" in="SourceGraphic" in2="effect1_dropShadow_1213_229" result="shape"/>
</filter>
</defs>
</svg>
