<svg width="105" height="67" viewBox="0 0 105 67" fill="none" xmlns="http://www.w3.org/2000/svg">
<path d="M1.18589 63.7865C0.643234 63.6839 0.120096 64.0406 0.0174299 64.5832C-0.0852357 65.1259 0.271449 65.649 0.814107 65.7517L1 64.7691L1.18589 63.7865ZM65.5325 34.2212L66.4716 34.5648L65.5325 34.2212ZM55.9863 34.2212L56.8509 33.7186V33.7186L55.9863 34.2212ZM94.8411 0.0426022C94.3122 -0.116435 93.7546 0.183391 93.5955 0.712282L91.0039 9.33106C90.8448 9.85995 91.1447 10.4176 91.6736 10.5767C92.2025 10.7357 92.7601 10.4359 92.9192 9.90698L95.2229 2.24585L102.884 4.54954C103.413 4.70858 103.971 4.40875 104.13 3.87986C104.289 3.35097 103.989 2.7933 103.46 2.63426L94.8411 0.0426022ZM1 64.7691L0.814107 65.7517C15.196 68.4726 29.864 65.3969 41.7825 59.3181C53.6784 53.2508 62.9776 44.115 66.4716 34.5648L65.5325 34.2212L64.5934 33.8776C61.3289 42.8005 52.4902 51.6117 40.8738 57.5365C29.2798 63.4498 15.0608 66.4115 1.18589 63.7865L1 64.7691ZM65.5325 34.2212L66.4716 34.5648C67.9574 30.5037 67.7566 27.4445 66.3427 25.4371C64.9239 23.4229 62.5078 22.7832 60.2874 23.0835C58.0688 23.3836 55.836 24.6391 54.6244 26.7031C53.3785 28.8256 53.3167 31.619 55.1218 34.7238L55.9863 34.2212L56.8509 33.7186C55.3415 31.1224 55.5317 29.1083 56.3492 27.7156C57.201 26.2645 58.843 25.2971 60.5555 25.0655C62.2663 24.8341 63.8377 25.3538 64.7076 26.5888C65.5824 27.8307 65.9715 30.1108 64.5934 33.8776L65.5325 34.2212ZM55.9863 34.2212L55.1218 34.7238C57.7357 39.2197 62.9112 41.5047 68.6475 41.9483C74.4031 42.3934 80.9081 41.0111 86.4887 37.9626C92.0742 34.9115 96.8034 30.15 98.875 23.7914C100.952 17.4155 100.307 9.58982 95.434 0.526709L94.5532 1.00024L93.6724 1.47378C98.346 10.1667 98.8459 17.4241 96.9734 23.1719C95.0952 28.937 90.7793 33.3399 85.5299 36.2074C80.2755 39.0777 74.1555 40.3683 68.8017 39.9542C63.4285 39.5387 59.0101 37.4324 56.8509 33.7186L55.9863 34.2212Z" fill="#151515"/>
</svg>
