<svg width="184" height="143" viewBox="0 0 184 143" fill="none" xmlns="http://www.w3.org/2000/svg">
<rect y="6.2522" width="179.619" height="42.0973" rx="21.0486" transform="rotate(-1.99477 0 6.2522)" fill="#E8F1FE"/>
<path d="M19.4102 32.141L19.0393 21.4915L21.4858 21.4063L21.8567 32.0558L19.4102 32.141ZM16.0342 23.005L15.9634 20.9742L24.5182 20.6763L24.589 22.7071L16.0342 23.005ZM25.6121 31.925L25.3152 23.4022L27.6818 23.3198L27.7754 26.0061L29.7102 25.9387C30.6696 25.9053 31.4565 26.1287 32.0709 26.609C32.696 27.0888 33.0251 27.8032 33.0581 28.7519C33.0908 29.69 32.8121 30.4202 32.2219 30.9424C31.6424 31.4642 30.8729 31.7418 29.9135 31.7752L25.6121 31.925ZM27.9207 30.1796L29.3439 30.13C29.7916 30.1144 30.1235 29.9908 30.3395 29.7592C30.5552 29.5168 30.6566 29.2091 30.6436 28.836C30.6302 28.4522 30.5077 28.1523 30.2761 27.9363C30.044 27.7095 29.7041 27.604 29.2564 27.6196L27.8333 27.6691L27.9207 30.1796ZM34.3908 31.6193L34.0939 23.0964L36.4605 23.014L36.7573 31.5368L34.3908 31.6193ZM48.363 31.1326L48.0662 22.6098L50.4328 22.5274L50.7296 31.0502L48.363 31.1326ZM43.0702 31.317L42.7734 22.7941L45.14 22.7117L45.4368 31.2345L43.0702 31.317ZM44.4084 24.6904L44.3404 22.7396L48.8657 22.5819L48.9336 24.5328L44.4084 24.6904ZM56.9271 31.0265C56.0424 31.0573 55.263 30.8976 54.5891 30.5476C53.9151 30.1975 53.3853 29.6929 52.9994 29.034C52.6136 28.375 52.4054 27.6084 52.375 26.7343C52.3438 25.8389 52.4979 25.0543 52.8373 24.3808C53.1768 23.7072 53.6705 23.1724 54.3184 22.7763C54.966 22.3695 55.7321 22.1507 56.6169 22.1199C57.5017 22.089 58.2811 22.2487 58.955 22.5988C59.629 22.9488 60.1588 23.4534 60.5447 24.1123C60.9301 24.7607 61.1385 25.5325 61.1697 26.428C61.2005 27.3128 61.0464 28.0973 60.7073 28.7815C60.3679 29.4551 59.8742 29.9899 59.2263 30.386C58.5783 30.7822 57.8119 30.9956 56.9271 31.0265ZM56.8653 29.2515C57.2598 29.2378 57.5975 29.13 57.8787 28.9281C58.1705 28.7258 58.3895 28.4246 58.5356 28.0246C58.6921 27.6136 58.7599 27.1096 58.7391 26.5126C58.7176 25.8944 58.6147 25.391 58.4304 25.0025C58.2567 24.6136 58.0173 24.3284 57.7122 24.147C57.4177 23.9651 57.0732 23.881 56.6788 23.8948C56.2843 23.9085 55.9412 24.0165 55.6494 24.2188C55.3683 24.4207 55.1493 24.7219 54.9925 25.1222C54.8463 25.5222 54.784 26.0314 54.8055 26.6497C54.8267 27.2573 54.9241 27.7555 55.0977 28.1444C55.282 28.5329 55.5214 28.818 55.8159 28.9999C56.1211 29.1814 56.4709 29.2653 56.8653 29.2515ZM63.0894 30.6197L62.7925 22.0969L67.3178 21.9393C68.1173 21.9114 68.7584 22.0865 69.2412 22.4646C69.7343 22.8317 69.9923 23.3457 70.0154 24.0066C70.0313 24.465 69.9168 24.8532 69.6717 25.1713C69.4373 25.489 69.0981 25.7089 68.654 25.8311L68.6568 25.9111C69.2571 25.9862 69.729 26.2046 70.0725 26.5662C70.4262 26.9168 70.6128 27.3692 70.6321 27.9235C70.6492 28.4139 70.5308 28.845 70.2769 29.2167C70.023 29.5884 69.6651 29.8837 69.2031 30.1026C68.7411 30.3215 68.1956 30.4419 67.5666 30.4638L63.0894 30.6197ZM65.3887 29.0667L66.8758 29.0149C67.3342 28.999 67.6773 28.891 67.9051 28.6909C68.1433 28.4798 68.2562 28.1984 68.2439 27.8466C68.2317 27.4948 68.0996 27.2273 67.8478 27.0439C67.6066 26.8602 67.2568 26.7763 66.7984 26.7923L65.3113 26.8441L65.3887 29.0667ZM65.2645 25.5009L66.6077 25.4541C66.9914 25.4408 67.2763 25.3454 67.4622 25.1682C67.6585 24.9799 67.7512 24.7312 67.7404 24.4221C67.7297 24.1129 67.6199 23.8713 67.411 23.6971C67.2018 23.5123 66.9106 23.4263 66.5375 23.4393L65.1943 23.4861L65.2645 25.5009ZM74.0005 30.2397L73.7192 22.1646L76.0858 22.0822L76.3671 30.1573L74.0005 30.2397ZM71.1971 23.7573L71.1292 21.8065L78.6287 21.5453L78.6966 23.4961L71.1971 23.7573ZM84.0669 30.0812C83.1821 30.112 82.4028 29.9524 81.7289 29.6023C81.0549 29.2522 80.525 28.7477 80.1392 28.0887C79.7534 27.4297 79.5452 26.6632 79.5148 25.789C79.4836 24.8936 79.6377 24.1091 79.9771 23.4355C80.3166 22.762 80.8103 22.2271 81.4582 21.831C82.1058 21.4242 82.8719 21.2054 83.7567 21.1746C84.6415 21.1438 85.4209 21.3034 86.0948 21.6535C86.7687 22.0036 87.2986 22.5081 87.6845 23.1671C88.0699 23.8154 88.2783 24.5873 88.3095 25.4827C88.3403 26.3675 88.1861 27.152 87.8471 27.8363C87.5077 28.5098 87.014 29.0447 86.366 29.4408C85.7181 29.8369 84.9517 30.0504 84.0669 30.0812ZM84.0051 28.3063C84.3996 28.2925 84.7373 28.1847 85.0185 27.9828C85.3103 27.7805 85.5293 27.4794 85.6754 27.0794C85.8319 26.6684 85.8997 26.1644 85.8789 25.5674C85.8574 24.9491 85.7545 24.4457 85.5702 24.0572C85.3965 23.6684 85.1571 23.3832 84.852 23.2017C84.5574 23.0198 84.213 22.9358 83.8186 22.9495C83.4241 22.9633 83.081 23.0713 82.7892 23.2735C82.5081 23.4755 82.2891 23.7766 82.1323 24.177C81.9861 24.577 81.9238 25.0861 81.9453 25.7044C81.9665 26.312 82.0639 26.8103 82.2375 27.1991C82.4218 27.5876 82.6612 27.8728 82.9557 28.0546C83.2609 28.2361 83.6107 28.32 84.0051 28.3063ZM90.3405 32.8725L89.9323 21.1516L92.1709 21.0736L92.2166 22.3849L92.2966 22.3821C92.4248 22.0788 92.6129 21.8107 92.8609 21.5779C93.109 21.3452 93.396 21.1591 93.722 21.0196C94.0587 20.8798 94.4242 20.8031 94.8187 20.7893C95.5329 20.7644 96.1628 20.9239 96.7085 21.2678C97.2647 21.6113 97.7038 22.1137 98.0257 22.7749C98.3579 23.4251 98.5399 24.2085 98.5719 25.1253C98.6034 26.0314 98.4763 26.8257 98.1906 27.508C97.9151 28.1793 97.5172 28.7055 96.9968 29.0865C96.4764 29.4675 95.8644 29.6703 95.1608 29.6948C94.7771 29.7082 94.4177 29.6566 94.0828 29.5402C93.7585 29.4234 93.4699 29.2574 93.2169 29.0421C92.9746 28.8264 92.7792 28.577 92.6306 28.294L92.5506 28.2968L92.7071 32.7901L90.3405 32.8725ZM94.3315 27.9466C94.7366 27.9325 95.074 27.814 95.3437 27.5912C95.6131 27.3576 95.8155 27.0411 95.951 26.6414C96.0968 26.2308 96.1603 25.7536 96.1413 25.21C96.122 24.6556 96.0255 24.184 95.8519 23.7952C95.6886 23.3953 95.4646 23.0936 95.18 22.89C94.895 22.6758 94.55 22.5757 94.1449 22.5899C93.7505 22.6036 93.4133 22.7274 93.1332 22.9613C92.8528 23.1845 92.6397 23.5015 92.4939 23.9121C92.3584 24.3118 92.3003 24.7887 92.3196 25.3431C92.3382 25.8761 92.4292 26.3425 92.5925 26.7424C92.7665 27.1419 93.0013 27.4486 93.297 27.6624C93.5922 27.8656 93.9371 27.9603 94.3315 27.9466ZM105.43 29.145L105.311 25.7391L103.984 25.7853L103.898 26.0765L103.338 26.096C102.709 26.1179 102.146 26.0468 101.65 25.8826C101.163 25.7074 100.775 25.4328 100.484 25.0587C100.204 24.6735 100.054 24.1825 100.033 23.5855C100.012 22.9779 100.127 22.4669 100.38 22.0525C100.632 21.6275 100.994 21.3 101.466 21.0701C101.949 20.8398 102.516 20.7134 103.166 20.6907L107.499 20.5398L107.796 29.0626L105.43 29.145ZM99.9129 29.3372L103.21 25.1879L105.834 25.1285L102.759 29.238L99.9129 29.3372ZM103.816 24.6385L105.271 24.5878L105.19 22.2532L103.734 22.3039C103.287 22.3195 102.955 22.4378 102.738 22.6588C102.521 22.8691 102.419 23.1555 102.432 23.518C102.444 23.8698 102.566 24.1483 102.797 24.3538C103.028 24.5592 103.368 24.6541 103.816 24.6385ZM113.907 29.0419C113.022 29.0727 112.248 28.9129 111.585 28.5624C110.921 28.2013 110.401 27.6858 110.026 27.0158C109.65 26.3351 109.446 25.547 109.415 24.6516C109.385 23.7881 109.54 23.0249 109.88 22.362C110.23 21.6881 110.718 21.1588 111.345 20.774C111.972 20.3787 112.69 20.1669 113.501 20.1386C114.332 20.1097 115.058 20.2552 115.677 20.5751C116.296 20.8844 116.776 21.3427 117.118 21.9498C117.47 22.5566 117.66 23.2811 117.69 24.1232C117.695 24.2725 117.695 24.4326 117.691 24.6035C117.685 24.7638 117.674 24.8976 117.656 25.0049L110.573 25.2516L110.522 23.7965L116.007 23.6055L115.422 23.818C115.416 23.3379 115.333 22.9406 115.172 22.626C115.022 22.311 114.812 22.0782 114.539 21.9276C114.267 21.7663 113.934 21.6925 113.539 21.7062C113.166 21.7192 112.838 21.8107 112.556 21.9806C112.274 22.1506 112.059 22.4089 111.911 22.7556C111.762 23.0916 111.697 23.5208 111.715 24.0431L111.75 25.0345C111.773 25.6955 111.973 26.2382 112.351 26.6626C112.729 27.0871 113.275 27.2868 113.989 27.262C114.373 27.2486 114.732 27.156 115.068 26.9842C115.403 26.8018 115.676 26.5254 115.887 26.1552L117.619 27.1515C117.419 27.5321 117.148 27.8617 116.805 28.1405C116.462 28.4086 116.048 28.6204 115.562 28.7761C115.077 28.9318 114.525 29.0204 113.907 29.0419ZM128.846 28.3295L128.549 19.8066L130.868 19.7259L131.164 28.2487L128.846 28.3295ZM121.091 28.5996L121.024 26.6967L124.942 26.5603L125.008 28.4631L121.091 28.5996ZM119.539 28.6536L119.243 20.1308L121.561 20.05L121.858 28.5728L119.539 28.6536ZM125.744 28.4375L125.677 26.5347L129.563 26.3993L129.629 28.3022L125.744 28.4375ZM124.193 28.4915L123.896 19.9687L126.214 19.8879L126.511 28.4108L124.193 28.4915ZM133.39 28.1712L133.094 19.6483L135.46 19.5659L135.554 22.2523L137.489 22.1849C138.448 22.1515 139.235 22.3749 139.849 22.8551C140.474 23.335 140.803 24.0493 140.837 24.9981C140.869 25.9362 140.59 26.6663 140 27.1885C139.421 27.7103 138.651 27.9879 137.692 28.0214L133.39 28.1712ZM135.699 26.4258L137.122 26.3762C137.57 26.3606 137.902 26.237 138.118 26.0053C138.334 25.763 138.435 25.4553 138.422 25.0822C138.409 24.6984 138.286 24.3985 138.054 24.1824C137.822 23.9557 137.483 23.8501 137.035 23.8657L135.612 23.9153L135.699 26.4258ZM146.664 27.7089L146.367 19.186L148.685 19.1053L148.902 25.3255L148.982 25.3227L151.452 19.0089L154.65 18.8976L154.947 27.4204L152.644 27.5006L152.428 21.2963L152.348 21.2991L149.926 27.5953L146.664 27.7089ZM156.389 27.3701L159.033 22.8434L156.364 18.8378L159.051 18.7443L160.604 21.5079L160.684 21.5051L162.041 18.6401L164.679 18.5482L162.326 22.6807L165.296 27.0599L162.658 27.1518L160.802 23.9665L160.722 23.9693L159.028 27.2782L156.389 27.3701Z" fill="#151515"/>
<rect x="14.1777" y="89.7805" width="169.747" height="42.0973" rx="21.0486" transform="rotate(3.77758 14.1777 89.7805)" fill="#CDFABF"/>
<path d="M35.8841 117.82L36.5861 107.187L39.0288 107.349L38.3268 117.981L35.8841 117.82ZM33.444 108.391L33.5779 106.363L42.1193 106.927L41.9854 108.955L33.444 108.391ZM42.0762 118.229L42.6381 109.72L45.0009 109.876L44.8238 112.558L46.7556 112.685C47.7135 112.749 48.474 113.05 49.037 113.59C49.6107 114.13 49.8662 114.874 49.8037 115.821C49.7418 116.758 49.391 117.456 48.7513 117.916C48.1223 118.377 47.3288 118.576 46.3709 118.513L42.0762 118.229ZM44.5487 116.725L45.9696 116.818C46.4166 116.848 46.7593 116.758 46.9976 116.55C47.2365 116.33 47.3683 116.034 47.3929 115.662C47.4182 115.279 47.3265 114.968 47.1177 114.73C46.9097 114.481 46.5821 114.341 46.1351 114.312L44.7142 114.218L44.5487 116.725ZM50.8411 118.808L51.403 110.298L53.7658 110.454L53.204 118.964L50.8411 118.808ZM63.2781 119.821C62.4586 119.767 61.7414 119.538 61.1267 119.134C60.5234 118.72 60.0625 118.171 59.7442 117.487C59.4266 116.793 59.2977 115.993 59.3574 115.089C59.4171 114.184 59.6497 113.414 60.0552 112.778C60.4613 112.131 60.9903 111.648 61.6422 111.327C62.3047 111.007 63.0404 110.874 63.8493 110.928C64.8179 110.992 65.6028 111.247 66.204 111.692C66.8167 112.128 67.2296 112.754 67.443 113.57L65.3392 114.105C65.2197 113.648 65.0283 113.309 64.7649 113.089C64.5023 112.858 64.1687 112.729 63.7642 112.702C63.413 112.679 63.0923 112.759 62.8023 112.943C62.5129 113.116 62.2697 113.4 62.0727 113.793C61.887 114.176 61.7749 114.66 61.7362 115.246C61.6976 115.831 61.7447 116.331 61.8777 116.746C62.0213 117.162 62.2247 117.48 62.4881 117.701C62.7629 117.911 63.0758 118.028 63.4271 118.051C63.8315 118.078 64.1791 117.994 64.4699 117.799C64.7721 117.595 65.0127 117.269 65.192 116.821L67.1912 117.626C66.8724 118.407 66.3854 118.984 65.73 119.358C65.0746 119.732 64.2573 119.886 63.2781 119.821ZM68.5436 120.105C68.3521 120.092 68.1778 120.059 68.021 120.006C67.8635 119.964 67.7116 119.916 67.5654 119.864L67.6919 117.948C67.7643 117.985 67.8424 118.017 67.9261 118.044C68.0105 118.06 68.106 118.072 68.2124 118.079C68.5104 118.098 68.7523 117.997 68.9381 117.774C69.1345 117.552 69.2736 117.144 69.3556 116.551C69.3796 116.349 69.4039 116.142 69.4286 115.93C69.4533 115.718 69.4787 115.495 69.5048 115.262C69.5316 115.018 69.5591 114.763 69.5873 114.497L69.9122 111.52L76.7134 111.969L76.1515 120.479L73.7727 120.322L74.2945 112.419L75.084 113.818L70.4861 113.515L71.9316 112.263L71.6512 114.81C71.6132 115.225 71.5726 115.596 71.5295 115.925C71.4978 116.243 71.4587 116.593 71.4121 116.975C71.3281 117.761 71.1742 118.392 70.9503 118.869C70.7264 119.346 70.4155 119.683 70.0176 119.881C69.631 120.07 69.1397 120.144 68.5436 120.105ZM78.3566 120.625L78.9185 112.115L81.2813 112.271L81.1042 114.953L83.036 115.081C83.9939 115.144 84.7544 115.445 85.3174 115.985C85.891 116.525 86.1466 117.269 86.084 118.216C86.0222 119.153 85.6714 119.851 85.0317 120.312C84.4027 120.773 83.6092 120.971 82.6512 120.908L78.3566 120.625ZM80.8291 119.12L82.25 119.214C82.697 119.243 83.0397 119.154 83.2779 118.945C83.5169 118.726 83.6487 118.43 83.6733 118.057C83.6986 117.674 83.6069 117.363 83.3981 117.125C83.1901 116.876 82.8625 116.737 82.4155 116.707L80.9946 116.614L80.8291 119.12ZM87.1215 121.203L87.6834 112.694L90.0462 112.85L89.4844 121.359L87.1215 121.203ZM100.979 122.118L101.541 113.609L103.856 113.762L103.294 122.271L100.979 122.118ZM93.2356 121.607L93.361 119.707L97.2725 119.965L97.1471 121.865L93.2356 121.607ZM91.6869 121.505L92.2488 112.995L94.5638 113.148L94.0019 121.658L91.6869 121.505ZM97.8815 121.914L98.0069 120.014L101.886 120.27L101.761 122.17L97.8815 121.914ZM96.3328 121.811L96.8947 113.302L99.2096 113.455L98.6478 121.964L96.3328 121.811ZM105.516 122.418L106.078 113.908L108.393 114.061L107.983 120.272L108.063 120.277L111.155 114.244L114.348 114.454L113.786 122.964L111.487 122.812L111.896 116.618L111.816 116.612L108.773 122.633L105.516 122.418ZM125.301 123.724L125.863 115.215L128.178 115.367L127.616 123.877L125.301 123.724ZM117.558 123.213L117.683 121.313L121.595 121.571L121.469 123.471L117.558 123.213ZM116.009 123.111L116.571 114.601L118.886 114.754L118.324 123.263L116.009 123.111ZM122.204 123.52L122.329 121.62L126.208 121.876L126.083 123.776L122.204 123.52ZM120.655 123.417L121.217 114.908L123.532 115.061L122.97 123.57L120.655 123.417ZM129.838 124.024L130.4 115.514L132.763 115.67L132.586 118.352L134.518 118.48C135.476 118.543 136.236 118.845 136.799 119.384C137.373 119.925 137.628 120.668 137.566 121.616C137.504 122.552 137.153 123.251 136.513 123.711C135.884 124.172 135.091 124.371 134.133 124.307L129.838 124.024ZM132.311 122.519L133.732 122.613C134.179 122.643 134.521 122.553 134.76 122.344C134.999 122.125 135.13 121.829 135.155 121.456C135.18 121.073 135.089 120.763 134.88 120.524C134.672 120.275 134.344 120.136 133.897 120.107L132.476 120.013L132.311 122.519ZM143.091 124.899L143.652 116.389L145.967 116.542L145.557 122.753L145.637 122.758L148.729 116.724L151.922 116.935L151.361 125.445L149.062 125.293L149.471 119.098L149.391 119.093L146.348 125.114L143.091 124.899ZM152.801 125.54L155.887 121.302L153.634 117.048L156.317 117.225L157.584 120.131L157.664 120.136L159.302 117.423L161.936 117.596L159.179 121.471L161.694 126.127L159.059 125.953L157.533 122.597L157.453 122.592L155.435 125.714L152.801 125.54Z" fill="#151515"/>
<rect x="4.16992" y="56.5752" width="163.054" height="42.0973" rx="21.0486" transform="rotate(-6.9649 4.16992 56.5752)" fill="#BFC1FA"/>
<path d="M27.0899 80.5214L25.7977 69.944L28.2276 69.6471L29.5198 80.2245L27.0899 80.5214ZM22.935 71.7122L22.6886 69.6952L31.1854 68.6572L31.4318 70.6742L22.935 71.7122ZM33.2497 79.7689L32.2156 71.3038L34.5661 71.0166L34.8921 73.6848L36.8138 73.45C37.7667 73.3336 38.57 73.488 39.2237 73.9132C39.888 74.3371 40.2777 75.0203 40.3929 75.9626C40.5067 76.8943 40.2922 77.6459 39.7495 78.2172C39.2174 78.7873 38.4748 79.1305 37.5219 79.247L33.2497 79.7689ZM35.3984 77.83L36.8119 77.6573C37.2566 77.603 37.5766 77.4511 37.7717 77.2016C37.9656 76.9415 38.0399 76.6261 37.9947 76.2556C37.9481 75.8744 37.8001 75.5862 37.5506 75.391C37.2998 75.1853 36.952 75.1095 36.5073 75.1639L35.0938 75.3365L35.3984 77.83ZM41.9689 78.7037L40.9348 70.2386L43.2853 69.9515L44.3194 78.4166L41.9689 78.7037ZM50.5895 77.6506L49.5554 69.1855L51.9059 68.8984L52.9401 77.3634L50.5895 77.6506ZM50.3003 71.061L50.0636 69.1234L55.1935 68.4967L55.4302 70.4343L50.3003 71.061ZM61.3293 76.532C60.4505 76.6394 59.6602 76.5479 58.9585 76.2575C58.2568 75.9671 57.6852 75.5104 57.2437 74.8873C56.8022 74.2642 56.5284 73.5186 56.4224 72.6504C56.3137 71.761 56.3993 70.9661 56.6791 70.2657C56.9589 69.5652 57.4044 68.9896 58.0156 68.5389C58.6254 68.0775 59.3698 67.7931 60.2486 67.6858C61.1274 67.5784 61.9177 67.6699 62.6194 67.9603C63.3211 68.2507 63.8927 68.7074 64.3342 69.3305C64.7744 69.943 65.0488 70.6939 65.1574 71.5833C65.2648 72.4621 65.1792 73.257 64.9007 73.968C64.6209 74.6684 64.1754 75.244 63.5642 75.6948C62.9531 76.1456 62.2081 76.4247 61.3293 76.532ZM61.1139 74.7691C61.5057 74.7213 61.8328 74.5846 62.0954 74.3591C62.3686 74.1323 62.5607 73.8133 62.6716 73.4021C62.7919 72.9791 62.8158 72.4711 62.7434 71.8782C62.6684 71.2641 62.5222 70.7715 62.305 70.4005C62.0983 70.0281 61.8351 69.7647 61.5153 69.6104C61.2062 69.4547 60.8557 69.4008 60.464 69.4487C60.0722 69.4965 59.7397 69.6339 59.4666 69.8607C59.204 70.0862 59.0119 70.4051 58.8903 70.8176C58.7794 71.2287 58.7614 71.7414 58.8364 72.3555C58.9102 72.959 59.0504 73.4469 59.257 73.8193C59.4743 74.1903 59.7375 74.4537 60.0467 74.6094C60.3664 74.7637 60.7222 74.817 61.1139 74.7691ZM67.4331 75.5929L66.3989 67.1279L70.8935 66.5788C71.6876 66.4818 72.3415 66.6007 72.8553 66.9355C73.3783 67.2585 73.6799 67.7482 73.7601 68.4047C73.8157 68.8599 73.7352 69.2566 73.5186 69.5947C73.3126 69.9315 72.9937 70.18 72.562 70.3402L72.5717 70.4196C73.1762 70.4425 73.6653 70.6192 74.0388 70.9496C74.4216 71.2682 74.6466 71.7028 74.7138 72.2534C74.7733 72.7405 74.6927 73.1801 74.472 73.5725C74.2513 73.9648 73.9203 74.29 73.479 74.5481C73.0377 74.8062 72.5047 74.9734 71.88 75.0497L67.4331 75.5929ZM69.5892 73.8466L71.0662 73.6661C71.5215 73.6105 71.854 73.4732 72.0636 73.2542C72.2826 73.0232 72.3707 72.7331 72.328 72.3837C72.2853 72.0343 72.1306 71.7792 71.8638 71.6183C71.6076 71.4562 71.2518 71.4029 70.7965 71.4586L69.3195 71.639L69.5892 73.8466ZM69.1566 70.3049L70.4906 70.1419C70.8718 70.0954 71.1473 69.9757 71.3172 69.7831C71.4964 69.5785 71.5672 69.3227 71.5297 69.0156C71.4922 68.7086 71.3619 68.4773 71.1387 68.3219C70.9143 68.1559 70.6168 68.0955 70.2462 68.1408L68.9121 68.3038L69.1566 70.3049ZM80.6854 74.1674C79.8066 74.2748 79.0163 74.1833 78.3146 73.8929C77.6129 73.6025 77.0413 73.1458 76.5998 72.5227C76.1583 71.8996 75.8845 71.154 75.7785 70.2858C75.6698 69.3964 75.7554 68.6015 76.0352 67.9011C76.315 67.2006 76.7605 66.625 77.3717 66.1743C77.9816 65.7129 78.7259 65.4285 79.6047 65.3212C80.4835 65.2138 81.2738 65.3053 81.9755 65.5957C82.6772 65.8861 83.2488 66.3428 83.6903 66.9659C84.1305 67.5784 84.4049 68.3293 84.5135 69.2187C84.6209 70.0975 84.5353 70.8924 84.2568 71.6034C83.977 72.3038 83.5315 72.8795 82.9203 73.3302C82.3092 73.781 81.5642 74.0601 80.6854 74.1674ZM80.47 72.4045C80.8618 72.3567 81.1889 72.22 81.4515 71.9945C81.7247 71.7677 81.9168 71.4487 82.0277 71.0375C82.148 70.6145 82.1719 70.1065 82.0995 69.5136C82.0245 68.8995 81.8783 68.4069 81.6611 68.0359C81.4544 67.6635 81.1912 67.4001 80.8714 67.2458C80.5623 67.0901 80.2118 67.0362 79.8201 67.0841C79.4283 67.1319 79.0958 67.2693 78.8227 67.4961C78.5601 67.7216 78.368 68.0405 78.2464 68.453C78.1355 68.8642 78.1175 69.3768 78.1925 69.9909C78.2663 70.5944 78.4065 71.0823 78.6131 71.4547C78.8304 71.8257 79.0936 72.0891 79.4028 72.2448C79.7225 72.3991 80.0783 72.4524 80.47 72.4045ZM87.1772 76.4047L85.7551 64.7633L87.9785 64.4916L88.1376 65.794L88.217 65.7843C88.3185 65.471 88.4826 65.1876 88.7096 64.9343C88.9365 64.6809 89.2064 64.4706 89.5191 64.3034C89.8424 64.135 90.1999 64.0268 90.5916 63.979C91.301 63.8923 91.9424 63.9967 92.5158 64.292C93.0998 64.586 93.5807 65.0484 93.9587 65.6792C94.3459 66.2982 94.5951 67.0629 94.7064 67.9735C94.8163 68.8735 94.7585 69.6757 94.533 70.3803C94.3167 71.073 93.9658 71.6316 93.4804 72.0563C92.995 72.481 92.4029 72.736 91.7041 72.8213C91.3229 72.8679 90.9605 72.8477 90.6167 72.7608C90.2836 72.6725 89.9816 72.5321 89.7109 72.3395C89.4508 72.1456 89.2345 71.9141 89.0619 71.645L88.9825 71.6548L89.5277 76.1176L87.1772 76.4047ZM90.7264 71.1516C91.1287 71.1024 91.4546 70.9552 91.704 70.7098C91.9522 70.4538 92.1264 70.1209 92.2268 69.711C92.3364 69.2893 92.3583 68.8084 92.2923 68.2684C92.2251 67.7178 92.0881 67.2564 91.8814 66.884C91.684 66.4998 91.4348 66.2186 91.1336 66.0405C90.8312 65.8518 90.4788 65.782 90.0764 65.8311C89.6847 65.879 89.3594 66.0316 89.1007 66.2888C88.8407 66.5355 88.6559 66.8697 88.5462 67.2915C88.4458 67.7013 88.4293 68.1815 88.4966 68.7321C88.5612 69.2615 88.6923 69.7183 88.8896 70.1026C89.0976 70.4855 89.3581 70.7707 89.6711 70.9581C89.9829 71.1349 90.3346 71.1994 90.7264 71.1516ZM96.979 71.9835L95.9449 63.5184L98.2478 63.2371L99.0025 69.4152L99.0819 69.4055L100.995 62.9015L104.172 62.5134L105.206 70.9785L102.919 71.2579L102.166 65.0957L102.087 65.1054L100.219 71.5877L96.979 71.9835ZM116.66 69.5792L115.626 61.1141L117.929 60.8328L118.963 69.2979L116.66 69.5792ZM108.958 70.5202L108.727 68.6302L112.618 68.1549L112.849 70.0448L108.958 70.5202ZM107.417 70.7084L106.383 62.2433L108.686 61.962L109.72 70.427L107.417 70.7084ZM113.579 69.9556L113.348 68.0656L117.208 67.5942L117.439 69.4841L113.579 69.9556ZM112.039 70.1438L111.005 61.6787L113.307 61.3974L114.342 69.8625L112.039 70.1438ZM121.174 69.0278L120.14 60.5627L122.491 60.2756L122.817 62.9437L124.738 62.709C125.691 62.5925 126.494 62.7469 127.148 63.1721C127.812 63.596 128.202 64.2792 128.317 65.2215C128.431 66.1532 128.217 66.9048 127.674 67.4761C127.142 68.0462 126.399 68.3894 125.446 68.5059L121.174 69.0278ZM123.323 67.0889L124.736 66.9162C125.181 66.8619 125.501 66.71 125.696 66.4605C125.89 66.2004 125.964 65.885 125.919 65.5145C125.873 65.1333 125.725 64.8451 125.475 64.6499C125.224 64.4442 124.876 64.3684 124.432 64.4228L123.018 64.5954L123.323 67.0889ZM134.357 67.4173L133.323 58.9522L135.626 58.6709L136.381 64.8489L136.46 64.8392L138.374 58.3352L141.55 57.9472L142.584 66.4123L140.297 66.6916L139.544 60.5295L139.465 60.5392L137.597 67.0215L134.357 67.4173ZM144.017 66.2372L146.259 61.4984L143.253 57.7391L145.921 57.4132L147.708 60.0319L147.787 60.0222L148.891 57.0504L151.512 56.7303L149.525 61.0511L152.863 65.1565L150.243 65.4766L148.118 62.4641L148.039 62.4738L146.638 65.9171L144.017 66.2372Z" fill="#151515"/>
</svg>
