<svg width="583" height="79" viewBox="0 0 583 79" fill="none" xmlns="http://www.w3.org/2000/svg">
<rect x="0.0341797" y="25.6628" width="225.713" height="52.9003" rx="21.0486" transform="rotate(-1.99477 0.0341797 25.6628)" fill="#E8F1FE"/>
<path d="M33.7229 56.481L33.3057 44.5003L36.058 44.4044L36.4753 56.3852L33.7229 56.481ZM29.9249 46.203L29.8453 43.9184L39.4695 43.5832L39.549 45.8678L29.9249 46.203ZM40.7 56.238L40.3661 46.6498L43.0285 46.5571L43.1337 49.5793L45.3104 49.5034C46.3898 49.4659 47.275 49.7172 47.9663 50.2575C48.6695 50.7973 49.0397 51.6009 49.0769 52.6683C49.1136 53.7236 48.8 54.545 48.1361 55.1325C47.4841 55.7195 46.6184 56.0319 45.5391 56.0695L40.7 56.238ZM43.2973 54.2744L44.8983 54.2186C45.402 54.2011 45.7754 54.062 46.0184 53.8014C46.2611 53.5288 46.3751 53.1826 46.3605 52.7629C46.3455 52.3311 46.2076 51.9937 45.947 51.7506C45.686 51.4956 45.3036 51.3768 44.7999 51.3944L43.1989 51.4501L43.2973 54.2744ZM50.576 55.894L50.2421 46.3058L52.9045 46.2131L53.2384 55.8013L50.576 55.894ZM66.2949 55.3466L65.9609 45.7584L68.6233 45.6656L68.9572 55.2538L66.2949 55.3466ZM60.3405 55.5539L60.0065 45.9658L62.6689 45.873L63.0029 55.4612L60.3405 55.5539ZM61.8459 48.099L61.7694 45.9044L66.8604 45.727L66.9368 47.9217L61.8459 48.099ZM75.9295 55.2271C74.9341 55.2618 74.0573 55.0822 73.2991 54.6883C72.541 54.2945 71.9449 53.7269 71.5108 52.9856C71.0767 52.2442 70.8426 51.3819 70.8083 50.3984C70.7732 49.3911 70.9466 48.5085 71.3285 47.7507C71.7103 46.993 72.2657 46.3913 72.9946 45.9456C73.7232 45.488 74.5851 45.2419 75.5805 45.2072C76.5759 45.1725 77.4527 45.3521 78.2109 45.746C78.969 46.1398 79.5651 46.7074 79.9992 47.4487C80.4329 48.1781 80.6672 49.0465 80.7023 50.0538C80.737 51.0492 80.5636 51.9318 80.1822 52.7016C79.8003 53.4593 79.2449 54.061 78.516 54.5066C77.7871 54.9523 76.9249 55.1924 75.9295 55.2271ZM75.8599 53.2303C76.3037 53.2149 76.6837 53.0936 77 52.8664C77.3282 52.6389 77.5746 52.3001 77.739 51.8501C77.9151 51.3877 77.9914 50.8207 77.968 50.1491C77.9437 49.4535 77.828 48.8872 77.6206 48.4501C77.4253 48.0127 77.1559 47.6919 76.8126 47.4877C76.4813 47.2831 76.0938 47.1885 75.6501 47.204C75.2063 47.2194 74.8203 47.3409 74.492 47.5685C74.1758 47.7957 73.9294 48.1344 73.753 48.5849C73.5885 49.0348 73.5184 49.6076 73.5427 50.3032C73.5665 50.9868 73.676 51.5473 73.8714 51.9848C74.0787 52.4218 74.3481 52.7427 74.6794 52.9472C75.0227 53.1514 75.4162 53.2458 75.8599 53.2303ZM82.862 54.7695L82.528 45.1813L87.6189 45.004C88.5184 44.9727 89.2397 45.1697 89.7828 45.5951C90.3375 46.008 90.6278 46.5863 90.6537 47.3298C90.6717 47.8455 90.5428 48.2822 90.2671 48.6401C90.0034 48.9975 89.6218 49.2449 89.1222 49.3824L89.1254 49.4723C89.8007 49.5568 90.3316 49.8025 90.718 50.2093C91.116 50.6037 91.3258 51.1127 91.3475 51.7363C91.3667 52.288 91.2335 52.7729 90.9479 53.1911C90.6623 53.6093 90.2596 53.9415 89.7399 54.1878C89.2201 54.434 88.6065 54.5695 87.8989 54.5941L82.862 54.7695ZM85.4487 53.0224L87.1217 52.9642C87.6374 52.9462 88.0234 52.8247 88.2797 52.5996C88.5476 52.3622 88.6747 52.0456 88.6609 51.6498C88.6471 51.254 88.4985 50.953 88.2152 50.7468C87.9438 50.5401 87.5503 50.4457 87.0346 50.4637L85.3616 50.5219L85.4487 53.0224ZM85.309 49.0109L86.8201 48.9582C87.2518 48.9432 87.5723 48.836 87.7815 48.6366C88.0022 48.4248 88.1066 48.145 88.0944 47.7972C88.0823 47.4494 87.9588 47.1775 87.7238 46.9816C87.4885 46.7736 87.1609 46.677 86.7411 46.6916L85.2301 46.7442L85.309 49.0109ZM95.137 54.342L94.8206 45.2575L97.483 45.1648L97.7994 54.2493L95.137 54.342ZM91.9832 47.0494L91.9068 44.8547L100.344 44.5608L100.42 46.7555L91.9832 47.0494ZM106.462 54.1637C105.466 54.1984 104.59 54.0188 103.831 53.6249C103.073 53.2311 102.477 52.6635 102.043 51.9221C101.609 51.1808 101.375 50.3184 101.341 49.335C101.305 48.3276 101.479 47.4451 101.861 46.6873C102.243 45.9296 102.798 45.3279 103.527 44.8822C104.255 44.4246 105.117 44.1784 106.113 44.1438C107.108 44.1091 107.985 44.2887 108.743 44.6825C109.501 45.0764 110.097 45.644 110.531 46.3853C110.965 47.1147 111.199 47.983 111.235 48.9904C111.269 49.9858 111.096 50.8684 110.714 51.6381C110.333 52.3959 109.777 52.9976 109.048 53.4432C108.319 53.8889 107.457 54.129 106.462 54.1637ZM106.392 52.1669C106.836 52.1515 107.216 52.0302 107.532 51.803C107.861 51.5754 108.107 51.2367 108.271 50.7867C108.447 50.3243 108.524 49.7573 108.5 49.0857C108.476 48.3901 108.36 47.8238 108.153 47.3867C107.958 46.9493 107.688 46.6284 107.345 46.4243C107.014 46.2197 106.626 46.1251 106.182 46.1406C105.739 46.156 105.353 46.2775 105.024 46.5051C104.708 46.7322 104.462 47.071 104.285 47.5214C104.121 47.9714 104.051 48.5442 104.075 49.2398C104.099 49.9234 104.208 50.4839 104.404 50.9214C104.611 51.3584 104.88 51.6792 105.212 51.8838C105.555 52.088 105.948 52.1824 106.392 52.1669ZM113.52 57.3039L113.06 44.1179L115.579 44.0302L115.63 45.5053L115.72 45.5022C115.864 45.161 116.076 44.8594 116.355 44.5975C116.634 44.3357 116.957 44.1263 117.324 43.9694C117.702 43.8122 118.114 43.7258 118.557 43.7103C119.361 43.6823 120.07 43.8618 120.683 44.2487C121.309 44.6351 121.803 45.2003 122.165 45.9441C122.539 46.6755 122.744 47.5569 122.78 48.5883C122.815 49.6077 122.672 50.5012 122.351 51.2689C122.041 52.0241 121.593 52.6161 121.008 53.0447C120.422 53.4733 119.734 53.7014 118.942 53.729C118.511 53.744 118.106 53.6861 117.73 53.5551C117.365 53.4237 117.04 53.2369 116.756 52.9947C116.483 52.752 116.263 52.4715 116.096 52.1531L116.006 52.1563L116.182 57.2112L113.52 57.3039ZM118.009 51.7623C118.465 51.7464 118.845 51.6131 119.148 51.3624C119.451 51.0997 119.679 50.7436 119.831 50.294C119.995 49.832 120.067 49.2952 120.045 48.6836C120.024 48.0599 119.915 47.5294 119.72 47.0919C119.536 46.642 119.284 46.3026 118.964 46.0736C118.643 45.8326 118.255 45.7201 117.799 45.7359C117.356 45.7514 116.976 45.8907 116.661 46.1538C116.346 46.4049 116.106 46.7615 115.942 47.2235C115.79 47.6731 115.724 48.2097 115.746 48.8333C115.767 49.4329 115.869 49.9577 116.053 50.4076C116.249 50.857 116.513 51.202 116.846 51.4426C117.178 51.6712 117.566 51.7777 118.009 51.7623ZM130.495 53.1105L130.361 49.2788L128.868 49.3308L128.771 49.6584L128.142 49.6803C127.434 49.705 126.801 49.625 126.242 49.4403C125.695 49.2432 125.258 48.9343 124.931 48.5134C124.616 48.0801 124.447 47.5277 124.423 46.8561C124.4 46.1725 124.53 45.5976 124.814 45.1314C125.097 44.6533 125.504 44.2849 126.036 44.0262C126.579 43.7671 127.217 43.6249 127.948 43.5994L132.823 43.4296L133.157 53.0178L130.495 53.1105ZM124.288 53.3267L127.998 48.6587L130.95 48.5919L127.491 53.2151L124.288 53.3267ZM128.679 48.0406L130.316 47.9836L130.225 45.3572L128.588 45.4142C128.084 45.4318 127.71 45.5649 127.467 45.8135C127.223 46.0501 127.108 46.3723 127.122 46.7801C127.136 47.1758 127.273 47.4892 127.533 47.7203C127.793 47.9514 128.175 48.0582 128.679 48.0406ZM140.032 52.9945C139.036 53.0292 138.165 52.8494 137.419 52.4551C136.673 52.0488 136.088 51.4688 135.666 50.7151C135.243 49.9493 135.014 49.0628 134.979 48.0554C134.945 47.084 135.119 46.2254 135.501 45.4796C135.895 44.7215 136.445 44.126 137.15 43.6931C137.855 43.2483 138.663 43.0101 139.575 42.9783C140.51 42.9457 141.326 43.1094 142.023 43.4694C142.72 43.8174 143.26 44.3329 143.644 45.0159C144.04 45.6985 144.254 46.5136 144.287 47.461C144.293 47.6289 144.294 47.809 144.288 48.0013C144.283 48.1816 144.27 48.3321 144.25 48.4529L136.281 48.7305L136.224 47.0934L142.394 46.8785L141.736 47.1176C141.729 46.5775 141.636 46.1305 141.455 45.7766C141.287 45.4222 141.049 45.1603 140.743 44.9909C140.437 44.8094 140.062 44.7264 139.618 44.7419C139.198 44.7565 138.83 44.8594 138.512 45.0506C138.195 45.2417 137.953 45.5323 137.786 45.9224C137.619 46.3004 137.546 46.7832 137.566 47.3709L137.605 48.4862C137.631 49.2298 137.856 49.8403 138.281 50.3178C138.706 50.7953 139.32 51.02 140.124 50.9921C140.556 50.977 140.96 50.8729 141.338 50.6796C141.715 50.4744 142.022 50.1635 142.26 49.747L144.208 50.8678C143.983 51.2959 143.678 51.6668 143.292 51.9804C142.906 52.282 142.44 52.5203 141.894 52.6955C141.348 52.8706 140.727 52.9703 140.032 52.9945ZM156.838 52.193L156.504 42.6048L159.113 42.514L159.446 52.1021L156.838 52.193ZM148.113 52.4969L148.039 50.3562L152.446 50.2027L152.521 52.3434L148.113 52.4969ZM146.368 52.5576L146.034 42.9695L148.643 42.8786L148.977 52.4668L146.368 52.5576ZM153.348 52.3145L153.274 50.1738L157.645 50.0216L157.72 52.1623L153.348 52.3145ZM151.603 52.3753L151.269 42.7871L153.878 42.6963L154.212 52.2845L151.603 52.3753ZM161.951 52.0149L161.617 42.4267L164.279 42.334L164.384 45.3562L166.561 45.2804C167.64 45.2428 168.526 45.4941 169.217 46.0344C169.92 46.5742 170.29 47.3778 170.328 48.4452C170.364 49.5005 170.051 50.3219 169.387 50.9094C168.735 51.4965 167.869 51.8088 166.79 51.8464L161.951 52.0149ZM164.548 50.0513L166.149 49.9956C166.653 49.978 167.026 49.8389 167.269 49.5783C167.512 49.3057 167.626 48.9595 167.611 48.5398C167.596 48.108 167.458 47.7706 167.198 47.5276C166.937 47.2725 166.554 47.1537 166.051 47.1713L164.45 47.227L164.548 50.0513ZM176.883 51.4948L176.549 41.9066L179.158 41.8158L179.401 48.8136L179.491 48.8104L182.27 41.7074L185.867 41.5821L186.201 51.1703L183.611 51.2605L183.368 44.2807L183.278 44.2839L180.553 51.367L176.883 51.4948ZM187.825 51.1138L190.799 46.0211L187.796 41.5149L190.819 41.4097L192.566 44.5187L192.656 44.5156L194.183 41.2925L197.151 41.1891L194.503 45.8381L197.844 50.7648L194.876 50.8681L192.788 47.2847L192.698 47.2878L190.793 51.0104L187.825 51.1138Z" fill="#151515"/>
<rect x="382.518" y="10.8877" width="200.621" height="49.7542" rx="21.0486" transform="rotate(3.77758 382.518 10.8877)" fill="#CDFABF"/>
<path d="M411.709 43.4396L412.499 31.4776L415.247 31.6591L414.457 43.621L411.709 43.4396ZM408.964 32.8317L409.115 30.5507L418.724 31.1851L418.573 33.4662L408.964 32.8317ZM418.675 43.8996L419.308 34.3264L421.966 34.5019L421.767 37.5193L423.94 37.6628C425.017 37.734 425.873 38.0731 426.506 38.6801C427.152 39.288 427.439 40.1247 427.369 41.1904C427.299 42.2441 426.905 43.0298 426.185 43.5475C425.477 44.066 424.585 44.2897 423.507 44.2186L418.675 43.8996ZM421.457 42.2071L423.056 42.3127C423.558 42.3459 423.944 42.2451 424.212 42.0102C424.481 41.7634 424.629 41.4304 424.657 41.0113C424.685 40.5803 424.582 40.2307 424.347 39.9627C424.113 39.6826 423.745 39.526 423.242 39.4928L421.643 39.3873L421.457 42.2071ZM428.536 44.5506L429.168 34.9775L431.826 35.153L431.194 44.7261L428.536 44.5506ZM442.528 45.6909C441.606 45.63 440.799 45.3723 440.107 44.9178C439.429 44.452 438.91 43.8345 438.552 43.0653C438.195 42.284 438.05 41.3845 438.117 40.3667C438.184 39.349 438.446 38.4823 438.902 37.7668C439.359 37.0393 439.954 36.4954 440.687 36.1349C441.433 35.7752 442.26 35.6254 443.17 35.6855C444.26 35.7574 445.143 36.0442 445.819 36.5459C446.508 37.0364 446.973 37.7405 447.213 38.6583L444.846 39.2597C444.712 38.7457 444.497 38.3647 444.2 38.1166C443.905 37.8566 443.529 37.7116 443.074 37.6815C442.679 37.6554 442.319 37.7459 441.992 37.9528C441.667 38.1478 441.393 38.4665 441.171 38.9088C440.963 39.34 440.836 39.8849 440.793 40.5434C440.749 41.202 440.803 41.7647 440.952 42.2316C441.114 42.6992 441.343 43.0571 441.639 43.3052C441.948 43.542 442.3 43.6735 442.695 43.6996C443.15 43.7297 443.541 43.6352 443.868 43.4163C444.208 43.1862 444.479 42.8192 444.681 42.3154L446.93 43.2216C446.571 44.0999 446.023 44.7492 445.286 45.1695C444.549 45.5898 443.629 45.7636 442.528 45.6909ZM448.451 46.0099C448.236 45.9956 448.04 45.9586 447.863 45.8989C447.686 45.8511 447.515 45.7977 447.351 45.7388L447.493 43.5835C447.575 43.6249 447.662 43.6608 447.757 43.6911C447.852 43.7094 447.959 43.7225 448.079 43.7304C448.414 43.7525 448.686 43.6382 448.895 43.3874C449.116 43.1374 449.273 42.6787 449.365 42.0114C449.392 41.7847 449.419 41.5519 449.447 41.3133C449.475 41.0746 449.503 40.8239 449.533 40.5613C449.563 40.2867 449.594 40.0001 449.625 39.7015L449.991 36.3523L457.642 36.8575L457.01 46.4307L454.334 46.254L454.921 37.3633L455.809 38.9373L450.637 38.5957L452.263 37.1878L451.947 40.0533C451.905 40.5195 451.859 40.9374 451.81 41.307C451.775 41.6654 451.731 42.0593 451.678 42.4888C451.584 43.3725 451.411 44.0827 451.159 44.6192C450.907 45.1558 450.557 45.5356 450.109 45.7586C449.675 45.9704 449.122 46.0541 448.451 46.0099ZM459.491 46.5945L460.123 37.0213L462.781 37.1968L462.582 40.2143L464.755 40.3578C465.833 40.4289 466.688 40.768 467.322 41.3751C467.967 41.9829 468.255 42.8197 468.184 43.8853C468.115 44.939 467.72 45.7247 467 46.2425C466.293 46.761 465.4 46.9846 464.322 46.9135L459.491 46.5945ZM462.272 44.9021L463.871 45.0076C464.374 45.0408 464.759 44.94 465.027 44.7051C465.296 44.4583 465.445 44.1253 465.472 43.7063C465.501 43.2752 465.397 42.9256 465.163 42.6576C464.929 42.3776 464.56 42.2209 464.057 42.1877L462.459 42.0822L462.272 44.9021ZM469.351 47.2455L469.984 37.6724L472.642 37.8479L472.01 47.421L469.351 47.2455ZM484.941 48.2748L485.573 38.7017L488.177 38.8736L487.545 48.4468L484.941 48.2748ZM476.23 47.6997L476.371 45.5623L480.771 45.8529L480.63 47.9902L476.23 47.6997ZM474.488 47.5847L475.12 38.0115L477.724 38.1835L477.092 47.7566L474.488 47.5847ZM481.456 48.0448L481.597 45.9074L485.962 46.1956L485.821 48.333L481.456 48.0448ZM479.714 47.9298L480.346 38.3566L482.951 38.5286L482.318 48.1017L479.714 47.9298ZM490.045 48.6119L490.678 39.0387L493.282 39.2107L492.821 46.1975L492.91 46.2034L496.389 39.4159L499.981 39.653L499.349 49.2262L496.763 49.0554L497.223 42.0866L497.133 42.0807L493.709 48.8538L490.045 48.6119ZM512.303 50.0815L512.935 40.5083L515.539 40.6803L514.907 50.2535L512.303 50.0815ZM503.592 49.5063L503.733 47.369L508.134 47.6595L507.992 49.7969L503.592 49.5063ZM501.85 49.3913L502.482 39.8181L505.086 39.9901L504.454 49.5633L501.85 49.3913ZM508.819 49.8514L508.96 47.7141L513.324 48.0023L513.183 50.1396L508.819 49.8514ZM507.076 49.7364L507.709 40.1632L510.313 40.3352L509.681 49.9084L507.076 49.7364ZM517.408 50.4185L518.04 40.8454L520.698 41.0209L520.499 44.0383L522.672 44.1818C523.75 44.253 524.605 44.5921 525.239 45.1991C525.884 45.807 526.171 46.6437 526.101 47.7094C526.032 48.7631 525.637 49.5488 524.917 50.0665C524.21 50.585 523.317 50.8087 522.239 50.7376L517.408 50.4185ZM520.189 48.7261L521.788 48.8317C522.291 48.8649 522.676 48.7641 522.944 48.5292C523.213 48.2824 523.361 47.9494 523.389 47.5303C523.417 47.0993 523.314 46.7497 523.079 46.4817C522.845 46.2016 522.477 46.045 521.974 46.0118L520.375 45.9063L520.189 48.7261ZM532.317 51.4029L532.949 41.8298L535.553 42.0017L535.092 48.9885L535.182 48.9945L538.66 42.2069L542.253 42.4441L541.62 52.0172L539.034 51.8465L539.494 44.8776L539.404 44.8717L535.981 51.6449L532.317 51.4029ZM543.241 52.1242L546.713 47.3566L544.178 42.5712L547.196 42.7705L548.622 46.0395L548.711 46.0454L550.555 42.9922L553.518 43.1879L550.416 47.547L553.245 52.7848L550.282 52.5891L548.565 48.8138L548.475 48.8079L546.205 52.3199L543.241 52.1242Z" fill="#151515"/>
<rect x="209.101" y="22.5696" width="186.122" height="48.0532" rx="21.0486" transform="rotate(-6.9649 209.101 22.5696)" fill="#BFC1FA"/>
<path d="M236.276 49.8092L234.822 37.9096L237.556 37.5757L239.01 49.4752L236.276 49.8092ZM231.602 39.8988L231.325 37.6297L240.884 36.462L241.161 38.7311L231.602 39.8988ZM243.206 48.9626L242.043 39.4394L244.687 39.1164L245.054 42.118L247.216 41.8539C248.288 41.723 249.191 41.8967 249.927 42.375C250.674 42.8519 251.112 43.6204 251.242 44.6805C251.37 45.7287 251.129 46.5742 250.518 47.217C249.92 47.8583 249.084 48.2445 248.012 48.3754L243.206 48.9626ZM245.623 46.7814L247.213 46.5871C247.714 46.526 248.074 46.3551 248.293 46.0744C248.511 45.7818 248.595 45.427 248.544 45.0101C248.492 44.5813 248.325 44.2571 248.044 44.0375C247.762 43.806 247.371 43.7208 246.871 43.782L245.281 43.9762L245.623 46.7814ZM253.015 47.7643L251.852 38.2411L254.496 37.918L255.659 47.4413L253.015 47.7643ZM262.713 46.5795L261.55 37.0563L264.194 36.7333L265.358 46.2565L262.713 46.5795ZM262.388 39.1663L262.122 36.9865L267.893 36.2815L268.159 38.4613L262.388 39.1663ZM274.795 45.3211C273.807 45.4419 272.918 45.339 272.128 45.0123C271.339 44.6856 270.696 44.1718 270.199 43.4708C269.703 42.7699 269.395 41.931 269.275 40.9543C269.153 39.9537 269.249 39.0595 269.564 38.2715C269.879 37.4835 270.38 36.836 271.068 36.3288C271.754 35.8098 272.591 35.4899 273.58 35.3691C274.568 35.2483 275.457 35.3513 276.247 35.678C277.036 36.0047 277.679 36.5185 278.176 37.2194C278.671 37.9085 278.98 38.7533 279.102 39.7538C279.223 40.7425 279.127 41.6367 278.813 42.4366C278.499 43.2246 277.997 43.8722 277.31 44.3793C276.622 44.8864 275.784 45.2004 274.795 45.3211ZM274.553 43.3379C274.994 43.284 275.362 43.1303 275.657 42.8766C275.965 42.6214 276.181 42.2626 276.306 41.8C276.441 41.3241 276.468 40.7526 276.386 40.0856C276.302 39.3947 276.138 38.8406 275.893 38.4231C275.661 38.0042 275.364 37.708 275.005 37.5343C274.657 37.3592 274.263 37.2985 273.822 37.3524C273.381 37.4062 273.007 37.5607 272.7 37.8159C272.404 38.0696 272.188 38.4284 272.052 38.8924C271.927 39.355 271.907 39.9317 271.991 40.6225C272.074 41.3015 272.232 41.8504 272.464 42.2693C272.709 42.6868 273.005 42.983 273.353 43.1582C273.712 43.3318 274.112 43.3917 274.553 43.3379ZM281.662 44.2647L280.499 34.7415L285.555 34.1238C286.449 34.0146 287.184 34.1484 287.762 34.5251C288.351 34.8884 288.69 35.4394 288.78 36.1779C288.843 36.6901 288.752 37.1363 288.508 37.5167C288.277 37.8956 287.918 38.1752 287.432 38.3554L287.443 38.4447C288.123 38.4704 288.673 38.6692 289.094 39.041C289.524 39.3994 289.777 39.8883 289.853 40.5077C289.92 41.0556 289.829 41.5503 289.581 41.9917C289.333 42.433 288.96 42.7989 288.464 43.0892C287.967 43.3796 287.368 43.5677 286.665 43.6535L281.662 44.2647ZM284.088 42.3L285.75 42.097C286.262 42.0345 286.636 41.88 286.872 41.6336C287.118 41.3738 287.217 41.0473 287.169 40.6543C287.121 40.2612 286.947 39.9742 286.647 39.7932C286.359 39.6108 285.958 39.5509 285.446 39.6135L283.785 39.8165L284.088 42.3ZM283.601 38.3157L285.102 38.1323C285.531 38.0799 285.841 37.9453 286.032 37.7286C286.233 37.4984 286.313 37.2106 286.271 36.8652C286.229 36.5198 286.082 36.2596 285.831 36.0848C285.579 35.898 285.244 35.8301 284.827 35.881L283.326 36.0644L283.601 38.3157ZM296.571 42.661C295.582 42.7817 294.693 42.6788 293.904 42.3521C293.115 42.0254 292.471 41.5116 291.975 40.8107C291.478 40.1097 291.17 39.2709 291.051 38.2941C290.929 37.2936 291.025 36.3993 291.34 35.6113C291.654 34.8233 292.156 34.1758 292.843 33.6687C293.529 33.1496 294.367 32.8297 295.355 32.709C296.344 32.5882 297.233 32.6911 298.022 33.0178C298.812 33.3445 299.455 33.8583 299.952 34.5593C300.447 35.2483 300.756 36.0931 300.878 37.0937C300.999 38.0823 300.902 38.9766 300.589 39.7765C300.274 40.5645 299.773 41.212 299.085 41.7191C298.398 42.2262 297.56 42.5402 296.571 42.661ZM296.329 40.6777C296.77 40.6239 297.138 40.4701 297.433 40.2164C297.74 39.9613 297.956 39.6024 298.081 39.1399C298.217 38.6639 298.243 38.0925 298.162 37.4254C298.078 36.7346 297.913 36.1804 297.669 35.763C297.436 35.3441 297.14 35.0478 296.78 34.8741C296.433 34.699 296.038 34.6384 295.598 34.6922C295.157 34.7461 294.783 34.9005 294.476 35.1557C294.18 35.4094 293.964 35.7682 293.827 36.2322C293.702 36.6948 293.682 37.2715 293.767 37.9624C293.85 38.6413 294.007 39.1902 294.24 39.6091C294.484 40.0266 294.78 40.3229 295.128 40.498C295.488 40.6716 295.888 40.7316 296.329 40.6777ZM303.874 45.1779L302.274 32.0813L304.776 31.7757L304.955 33.2408L305.044 33.2299C305.158 32.8775 305.343 32.5587 305.598 32.2737C305.854 31.9886 306.157 31.752 306.509 31.564C306.873 31.3745 307.275 31.2528 307.716 31.199C308.514 31.1015 309.235 31.2189 309.88 31.5511C310.537 31.8819 311.078 32.4021 311.504 33.1118C311.939 33.8081 312.22 34.6684 312.345 35.6928C312.468 36.7053 312.403 37.6078 312.15 38.4005C311.906 39.1797 311.512 39.8082 310.966 40.286C310.419 40.7637 309.753 41.0506 308.967 41.1466C308.538 41.199 308.131 41.1763 307.744 41.0785C307.369 40.9792 307.029 40.8212 306.725 40.6045C306.432 40.3864 306.189 40.126 305.995 39.8233L305.905 39.8342L306.519 44.8549L303.874 45.1779ZM307.867 39.2682C308.32 39.2129 308.686 39.0472 308.967 38.7711C309.246 38.4831 309.442 38.1086 309.555 37.6475C309.679 37.173 309.703 36.6321 309.629 36.0246C309.553 35.4052 309.399 34.8861 309.167 34.4672C308.945 34.0349 308.664 33.7186 308.325 33.5182C307.985 33.3059 307.589 33.2274 307.136 33.2826C306.695 33.3365 306.329 33.5081 306.038 33.7976C305.746 34.0751 305.538 34.4511 305.415 34.9255C305.302 35.3866 305.283 35.9269 305.359 36.5463C305.431 37.1418 305.579 37.6557 305.801 38.088C306.035 38.5188 306.328 38.8396 306.68 39.0505C307.031 39.2494 307.427 39.322 307.867 39.2682ZM314.901 40.2041L313.738 30.6809L316.329 30.3644L317.178 37.3147L317.267 37.3038L319.42 29.9868L322.993 29.5502L324.157 39.0734L321.584 39.3877L320.737 32.4553L320.648 32.4662L318.546 39.7588L314.901 40.2041ZM337.043 37.4992L335.88 27.976L338.47 27.6595L339.634 37.1827L337.043 37.4992ZM328.377 38.5578L328.118 36.4316L332.495 35.8969L332.755 38.0231L328.377 38.5578ZM326.644 38.7695L325.481 29.2463L328.072 28.9299L329.235 38.4531L326.644 38.7695ZM333.577 37.9227L333.317 35.7965L337.659 35.2661L337.918 37.3923L333.577 37.9227ZM331.844 38.1344L330.68 28.6112L333.271 28.2947L334.434 37.8179L331.844 38.1344ZM342.121 36.8789L340.958 27.3557L343.602 27.0326L343.969 30.0343L346.131 29.7702C347.203 29.6392 348.106 29.8129 348.842 30.2913C349.589 30.7682 350.028 31.5367 350.157 32.5968C350.285 33.645 350.044 34.4905 349.433 35.1333C348.835 35.7746 347.999 36.1608 346.927 36.2917L342.121 36.8789ZM344.538 34.6976L346.129 34.5034C346.629 34.4423 346.989 34.2714 347.208 33.9907C347.426 33.6981 347.51 33.3433 347.459 32.9264C347.407 32.4976 347.24 32.1734 346.959 31.9538C346.677 31.7223 346.286 31.6371 345.786 31.6982L344.196 31.8925L344.538 34.6976ZM356.952 35.0671L355.789 25.5439L358.379 25.2274L359.229 32.1777L359.318 32.1668L361.471 24.8498L365.044 24.4132L366.207 33.9364L363.634 34.2507L362.788 27.3183L362.698 27.3292L360.597 34.6218L356.952 35.0671ZM367.819 33.7395L370.342 28.4083L366.96 24.1792L369.961 23.8125L371.972 26.7585L372.061 26.7476L373.303 23.4043L376.251 23.0442L374.016 27.9051L377.771 32.5237L374.823 32.8839L372.433 29.4947L372.343 29.5057L370.768 33.3793L367.819 33.7395Z" fill="#151515"/>
</svg>
