<svg width="54" height="54" viewBox="0 0 54 54" fill="none" xmlns="http://www.w3.org/2000/svg">
<path d="M31.7745 4.80015L38.3088 16.8455L49.5468 24.6875L40.1102 34.6242L36.1247 47.7354L23.7582 41.8314L10.0572 42.0925L11.8508 28.5069L7.36857 15.5571L20.8436 13.0647L31.7745 4.80015Z" fill="black"/>
<path d="M22.274 33.4744V31.48L26.9338 27.1654C27.3301 26.7819 27.6625 26.4367 27.9309 26.1299C28.2037 25.8231 28.4103 25.5227 28.551 25.2286C28.6916 24.9303 28.7619 24.6086 28.7619 24.2634C28.7619 23.8799 28.6745 23.5496 28.4998 23.2727C28.3251 22.9914 28.0865 22.7762 27.7839 22.6271C27.4814 22.4737 27.1383 22.397 26.7548 22.397C26.3542 22.397 26.0048 22.4779 25.7065 22.6398C25.4082 22.8018 25.1781 23.034 25.0162 23.3366C24.8542 23.6391 24.7733 23.9992 24.7733 24.4168H22.1461C22.1461 23.5603 22.34 22.8167 22.7278 22.186C23.1156 21.5553 23.6589 21.0674 24.3578 20.7222C25.0566 20.3771 25.862 20.2045 26.774 20.2045C27.7115 20.2045 28.5275 20.3707 29.2221 20.7031C29.921 21.0312 30.4643 21.4871 30.8521 22.071C31.2399 22.6548 31.4338 23.3238 31.4338 24.0781C31.4338 24.5724 31.3358 25.0603 31.1397 25.5418C30.948 26.0234 30.6049 26.5582 30.1106 27.1462C29.6163 27.73 28.9196 28.431 28.0204 29.2492L26.1092 31.1221V31.2116H31.6064V33.4744H22.274Z" fill="white"/>
</svg>
