<svg width="142" height="52" viewBox="0 0 142 52" fill="none" xmlns="http://www.w3.org/2000/svg">
<rect x="2.77352" width="139.015" height="42.0973" rx="21.0486" transform="rotate(3.77758 2.77352 0)" fill="#CDFABF"/>
<path d="M18.0935 22.8717L14.9644 16.1069L17.6945 16.2871L20.1142 22.1393L19.5075 22.0992L22.6757 16.616L25.3897 16.7952L21.4143 23.091L18.0935 22.8717ZM18.2126 27.6259L18.6132 21.5591L21.0558 21.7204L20.6553 27.7872L18.2126 27.6259ZM28.5548 28.5012C27.6714 28.4428 26.912 28.2056 26.2767 27.7895C25.6414 27.3734 25.1649 26.8182 24.8473 26.1237C24.5297 25.4293 24.3997 24.6457 24.4574 23.7729C24.5164 22.8789 24.7486 22.1139 25.1541 21.4779C25.5595 20.8419 26.1045 20.3594 26.789 20.0304C27.4742 19.6908 28.2585 19.5502 29.1419 19.6085C30.0253 19.6669 30.7847 19.9041 31.42 20.3202C32.0553 20.7363 32.5317 21.2915 32.8493 21.986C33.1676 22.6697 33.2973 23.4587 33.2383 24.3527C33.1799 25.2361 32.9477 26.0012 32.5415 26.6478C32.1361 27.2838 31.5911 27.7663 30.9066 28.0952C30.2221 28.4242 29.4382 28.5595 28.5548 28.5012ZM28.6718 26.729C29.0656 26.755 29.4125 26.6817 29.7125 26.5091C30.0232 26.3372 30.2713 26.0596 30.457 25.6764C30.654 25.2832 30.7722 24.7885 30.8115 24.1925C30.8523 23.5752 30.8005 23.064 30.6562 22.6589C30.5226 22.2546 30.3131 21.9468 30.0277 21.7355C29.753 21.525 29.4187 21.4067 29.0249 21.3807C28.6311 21.3547 28.2789 21.4276 27.9682 21.5995C27.6682 21.7721 27.42 22.0497 27.2237 22.4323C27.0381 22.8156 26.9248 23.3159 26.8841 23.9332C26.844 24.5399 26.8908 25.0454 27.0245 25.4497C27.1688 25.8548 27.3783 26.1626 27.653 26.3731C27.9384 26.5844 28.278 26.703 28.6718 26.729ZM38.4179 29.1524C37.6409 29.1011 36.9785 28.9344 36.4305 28.6524C35.8833 28.3597 35.4726 27.9424 35.1983 27.4005C34.9241 26.8586 34.8134 26.1885 34.8661 25.3902L35.2087 20.2015L37.5715 20.3575L37.2342 25.4664C37.1962 26.0412 37.2849 26.4799 37.5 26.7828C37.7259 27.0863 38.0729 27.2536 38.5412 27.2845C38.9776 27.3133 39.3277 27.1921 39.5915 26.9209C39.8659 26.6504 40.0221 26.2277 40.06 25.653L40.3974 20.5441L42.7602 20.7001L42.4176 25.8888C42.3649 26.6871 42.167 27.3368 41.8239 27.8379C41.4808 28.3391 41.0135 28.6984 40.4218 28.9159C39.8416 29.1235 39.1736 29.2023 38.4179 29.1524ZM48.4312 29.6211L49.1996 17.9825L51.5625 18.1385L51.281 22.4012L51.3609 22.4065C51.6118 22.0061 51.9472 21.7022 52.3671 21.4948C52.7977 21.288 53.279 21.2022 53.8112 21.2374C54.3966 21.276 54.8944 21.4265 55.3047 21.6887C55.7263 21.9411 56.0437 22.3148 56.2569 22.8099C56.4708 23.2944 56.5531 23.9092 56.5039 24.6542L56.1424 30.1303L53.7795 29.9743L54.1189 24.8335C54.1562 24.2694 54.0562 23.8405 53.8191 23.5469C53.5826 23.2427 53.2515 23.0765 52.8257 23.0484C52.3361 23.0161 51.9375 23.1447 51.6297 23.4344C51.3326 23.7248 51.1651 24.1574 51.1271 24.7321L50.794 29.7771L48.4312 29.6211ZM62.152 30.7195C61.2686 30.6612 60.5145 30.4243 59.8899 30.0089C59.2659 29.5829 58.8008 29.0177 58.4946 28.3133C58.189 27.5983 58.0657 26.7937 58.1248 25.8997C58.1817 25.0376 58.4125 24.2938 58.8173 23.6685C59.2334 23.0332 59.7727 22.5557 60.4352 22.236C61.0984 21.9056 61.8344 21.7671 62.6433 21.8205C63.4735 21.8753 64.1807 22.0931 64.7649 22.4737C65.3498 22.8437 65.7815 23.3479 66.0601 23.9863C66.3493 24.6255 66.4661 25.3654 66.4106 26.2063C66.4007 26.3553 66.3849 26.5146 66.363 26.6842C66.3418 26.8431 66.3171 26.9751 66.2887 27.0801L59.2161 26.6131L59.3121 25.1603L64.7881 25.5219L64.1848 25.6745C64.2271 25.1962 64.1842 24.7925 64.0563 24.4634C63.939 24.1349 63.7526 23.8821 63.4971 23.7049C63.2422 23.517 62.9179 23.4101 62.5241 23.3841C62.1516 23.3595 61.8163 23.4175 61.5184 23.5582C61.2205 23.6989 60.9805 23.9342 60.7983 24.2643C60.6169 24.5837 60.509 25.0042 60.4745 25.5257L60.4092 26.5155C60.3656 27.1754 60.5103 27.7355 60.8434 28.1958C61.1765 28.6561 61.6996 28.9098 62.4127 28.9568C62.7958 28.9821 63.163 28.9262 63.5141 28.789C63.866 28.6412 64.1656 28.3938 64.413 28.0466L66.0357 29.2121C65.7983 29.5706 65.4951 29.8712 65.1263 30.1141C64.7582 30.3464 64.3248 30.5155 63.8261 30.6216C63.3273 30.7276 62.7693 30.7603 62.152 30.7195ZM70.1933 31.2504C69.3419 31.1942 68.6758 30.9204 68.1951 30.429C67.7145 29.9376 67.4987 29.3194 67.5479 28.5743C67.595 27.8612 67.8784 27.292 68.3983 26.8666C68.9188 26.4307 69.7161 26.1733 70.7903 26.0946L73.6766 25.8522L73.5891 27.1773L71.3297 27.3969C70.8565 27.4405 70.4908 27.5553 70.2326 27.7414C69.9858 27.9175 69.8501 28.1918 69.8255 28.5644C69.8044 28.8837 69.8937 29.1515 70.0932 29.3677C70.304 29.5741 70.6064 29.6903 71.0002 29.7163C71.3408 29.7388 71.6384 29.6836 71.893 29.5507C72.1484 29.4072 72.3544 29.2017 72.511 28.9341C72.6683 28.6559 72.76 28.3198 72.786 27.926L72.9462 25.4993C72.9729 25.0949 72.8823 24.7682 72.6742 24.5193C72.4662 24.2703 72.1386 24.1311 71.6916 24.1016C71.3084 24.0763 70.9885 24.1461 70.7317 24.3108C70.4856 24.4763 70.2971 24.7418 70.166 25.1073L68.0551 24.535C68.3179 23.7933 68.7926 23.2421 69.4792 22.8812C70.1764 22.521 70.9827 22.3712 71.8981 22.4316C73.1114 22.5117 73.9865 22.8581 74.5233 23.4708C75.0715 24.0736 75.3132 24.8645 75.2485 25.8437L74.9892 29.7712L75.4905 31.4078L73.0797 31.2486L72.7704 30.1057L72.6746 30.0994C72.413 30.499 72.0669 30.8022 71.6364 31.009C71.2172 31.2058 70.7362 31.2863 70.1933 31.2504ZM77.1343 31.5163L77.6961 23.0068L79.8834 23.1513L79.7822 24.6839L79.862 24.6892C80.0455 24.1775 80.3443 23.7803 80.7585 23.4977C81.184 23.2051 81.6682 23.0767 82.211 23.1125C82.3068 23.1188 82.3969 23.1301 82.4813 23.1464C82.5665 23.152 82.6403 23.1676 82.7028 23.1931L82.5594 25.3644C82.4664 25.3155 82.3511 25.2811 82.2134 25.2614C82.0758 25.2416 81.9165 25.2257 81.7355 25.2138C81.3736 25.1899 81.0544 25.249 80.7778 25.391C80.5018 25.5225 80.2746 25.7266 80.0959 26.0035C79.9279 26.281 79.8306 26.622 79.8039 27.0264L79.4971 31.6723L77.1343 31.5163ZM91.1099 32.5994C90.2797 32.5446 89.6598 32.3006 89.2501 31.8673C88.8411 31.4234 88.6627 30.8076 88.7147 30.02L89.2396 22.0693L91.6699 21.2036L91.1007 29.8248C91.0803 30.1335 91.1397 30.3672 91.2789 30.5261C91.4181 30.6849 91.626 30.7735 91.9027 30.7917C92.0092 30.7988 92.1213 30.8008 92.2391 30.7979C92.3575 30.7843 92.4874 30.7609 92.6286 30.7274L92.5147 32.4517C92.2749 32.5213 92.0422 32.5648 91.8166 32.5819C91.5903 32.6098 91.3547 32.6156 91.1099 32.5994ZM87.6623 25.3165L87.7708 23.672L93.0873 24.0231L92.9787 25.6675L87.6623 25.3165ZM94.2377 32.6456L95.0061 21.0069L97.369 21.1629L97.0875 25.4257L97.1674 25.4309C97.4183 25.0306 97.7537 24.7267 98.1736 24.5193C98.6042 24.3125 99.0855 24.2267 99.6177 24.2618C100.203 24.3005 100.701 24.4509 101.111 24.7132C101.533 24.9655 101.85 25.3393 102.063 25.8344C102.277 26.3189 102.36 26.9336 102.31 27.6787L101.949 33.1547L99.586 32.9987L99.9255 27.8579C99.9627 27.2938 99.8627 26.865 99.6256 26.5714C99.3891 26.2671 99.058 26.101 98.6323 26.0728C98.1427 26.0405 97.744 26.1692 97.4362 26.4589C97.1391 26.7493 96.9716 27.1818 96.9336 27.7566L96.6005 32.8016L94.2377 32.6456ZM107.958 33.744C107.075 33.6856 106.321 33.4488 105.696 33.0334C105.072 32.6073 104.607 32.0421 104.301 31.3378C103.996 30.6227 103.872 29.8182 103.931 28.9242C103.988 28.062 104.219 27.3183 104.624 26.6929C105.04 26.0576 105.579 25.5801 106.242 25.2604C106.905 24.9301 107.641 24.7916 108.45 24.845C109.28 24.8998 109.987 25.1175 110.571 25.4982C111.156 25.8682 111.588 26.3724 111.867 27.0108C112.156 27.6499 112.273 28.3899 112.217 29.2307C112.207 29.3797 112.191 29.539 112.17 29.7086C112.148 29.8676 112.124 29.9996 112.095 30.1046L105.023 29.6376L105.119 28.1848L110.595 28.5463L109.991 28.6989C110.034 28.2207 109.991 27.817 109.863 27.4878C109.746 27.1594 109.559 26.9066 109.304 26.7293C109.049 26.5415 108.724 26.4345 108.331 26.4085C107.958 26.3839 107.623 26.442 107.325 26.5827C107.027 26.7233 106.787 26.9587 106.605 27.2887C106.423 27.6082 106.315 28.0286 106.281 28.5502L106.216 29.54C106.172 30.1999 106.317 30.76 106.65 31.2203C106.983 31.6805 107.506 31.9342 108.219 31.9813C108.602 32.0066 108.97 31.9507 109.321 31.8135C109.672 31.6657 109.972 31.4182 110.22 31.0711L111.842 32.2366C111.605 32.595 111.302 32.8957 110.933 33.1386C110.565 33.3709 110.131 33.54 109.633 33.646C109.134 33.7521 108.576 33.7847 107.958 33.744ZM113.602 33.9241L114.164 25.4147L116.335 25.558L116.248 26.8672L116.328 26.8725C116.583 26.4083 116.922 26.0618 117.343 25.8331C117.776 25.5944 118.263 25.493 118.806 25.5288C119.402 25.5681 119.894 25.7342 120.281 26.027C120.668 26.3092 120.947 26.7017 121.117 27.2047L121.197 27.2099C121.452 26.7457 121.796 26.3943 122.228 26.1556C122.672 25.9176 123.165 25.8166 123.708 25.8524C124.25 25.8883 124.716 26.0366 125.105 26.2975C125.495 26.5477 125.781 26.9033 125.965 27.3644C126.159 27.8262 126.235 28.3764 126.193 29.015L125.815 34.7306L123.452 34.5746L123.799 29.322C123.833 28.8111 123.747 28.4152 123.541 28.1344C123.346 27.8436 123.052 27.6852 122.658 27.6592C122.232 27.6311 121.898 27.7533 121.656 28.026C121.413 28.2986 121.275 28.701 121.239 29.2332L120.898 34.4059L118.535 34.2499L118.882 28.9973C118.916 28.4864 118.835 28.0909 118.639 27.8108C118.445 27.52 118.151 27.3616 117.757 27.3356C117.342 27.3082 117.002 27.4407 116.736 27.7332C116.483 28.0158 116.338 28.4178 116.304 28.9394L115.965 34.0802L113.602 33.9241Z" fill="#151515"/>
</svg>
