<svg width="267" height="58" viewBox="0 0 267 58" fill="none" xmlns="http://www.w3.org/2000/svg">
<rect x="2.53925" width="264.777" height="42.0973" rx="21.0486" transform="rotate(3.4581 2.53925 0)" fill="#FFE3E3"/>
<path d="M28.6509 28.175L29.2937 17.5384L31.7372 17.686L31.0944 28.3226L28.6509 28.175ZM26.1583 18.7595L26.2809 16.7312L34.8253 17.2475L34.7027 19.2758L26.1583 18.7595ZM35.7966 28.6068L36.5002 16.964L38.8639 17.1069L38.6062 21.3711L38.686 21.3759C38.9347 20.9742 39.2684 20.6684 39.6872 20.4586C40.1166 20.2495 40.5975 20.161 41.1298 20.1932C41.7154 20.2285 42.2141 20.3762 42.6258 20.6362C43.0489 20.8862 43.3683 21.2581 43.5843 21.752C43.8008 22.2353 43.8866 22.8496 43.8416 23.5949L43.5105 29.0729L41.1469 28.9301L41.4576 23.7875C41.4917 23.2232 41.3894 22.7949 41.1506 22.5026C40.9124 22.1997 40.5804 22.0354 40.1545 22.0096C39.6647 21.98 39.2668 22.1109 38.9606 22.4023C38.6651 22.6944 38.5 23.1279 38.4653 23.7028L38.1603 28.7496L35.7966 28.6068ZM49.5233 29.6286C48.6396 29.5752 47.8843 29.3426 47.2573 28.9307C46.631 28.5081 46.1628 27.9455 45.8526 27.2429C45.543 26.5296 45.4153 25.7257 45.4693 24.8314C45.5214 23.9689 45.7481 23.2239 46.1494 22.5963C46.5619 21.9587 47.0986 21.4782 47.7593 21.1548C48.4206 20.8207 49.1559 20.6782 49.9651 20.7271C50.7956 20.7772 51.504 20.991 52.0903 21.3684C52.6772 21.7352 53.1117 22.2369 53.3938 22.8738C53.6866 23.5113 53.8075 24.2506 53.7567 25.0917C53.7477 25.2408 53.7327 25.4002 53.7118 25.5699C53.6915 25.7289 53.6675 25.8611 53.6398 25.9663L46.5647 25.5387L46.6525 24.0854L52.1305 24.4164L51.528 24.5723C51.5676 24.0939 51.5225 23.6904 51.3927 23.362C51.2736 23.0342 51.0858 22.7824 50.8293 22.6066C50.5734 22.4202 50.2485 22.3151 49.8545 22.2912C49.4819 22.2687 49.147 22.3286 48.8499 22.471C48.5527 22.6133 48.314 22.85 48.1337 23.1811C47.9541 23.5015 47.8485 23.9225 47.817 24.4443L47.7571 25.4345C47.7172 26.0946 47.8651 26.6539 48.2007 27.1123C48.5364 27.5707 49.0608 27.8214 49.7742 27.8645C50.1575 27.8877 50.5243 27.8297 50.8747 27.6906C51.2257 27.5408 51.524 27.2917 51.7694 26.9432L53.3986 28.0996C53.1632 28.4594 52.8617 28.7617 52.4943 29.0067C52.1275 29.241 51.695 29.4126 51.1969 29.5214C50.6987 29.6302 50.1409 29.6659 49.5233 29.6286ZM62.6296 30.3886C61.7991 30.3384 61.1779 30.0978 60.7658 29.6668C60.3543 29.2252 60.1724 28.6104 60.22 27.8225L60.7006 19.8691L63.1261 18.9898L62.6049 27.614C62.5863 27.9228 62.647 28.1562 62.787 28.3143C62.9271 28.4724 63.1355 28.5597 63.4124 28.5765C63.5188 28.5829 63.6309 28.5843 63.7487 28.5808C63.8671 28.5666 63.9968 28.5423 64.1378 28.5081L64.0336 30.233C63.7942 30.304 63.5617 30.3487 63.3362 30.3671C63.11 30.3962 62.8745 30.4034 62.6296 30.3886ZM59.1414 23.1249L59.2408 21.4799L64.5591 21.8013L64.4597 23.4463L59.1414 23.1249ZM65.7576 30.4173L66.272 21.9048L68.46 22.037L68.3673 23.5702L68.4472 23.5751C68.6278 23.0624 68.9244 22.6635 69.337 22.3786C69.7609 22.0836 70.2443 21.9525 70.7874 21.9853C70.8832 21.9911 70.9734 22.0019 71.0579 22.0177C71.1431 22.0229 71.217 22.038 71.2796 22.0632L71.1483 24.2352C71.055 24.1868 70.9395 24.1531 70.8018 24.1341C70.664 24.1151 70.5046 24.1001 70.3236 24.0892C69.9616 24.0673 69.6427 24.1282 69.3668 24.2718C69.0917 24.4048 68.8655 24.6102 68.6884 24.888C68.522 25.1665 68.4266 25.508 68.4021 25.9126L68.1213 30.5601L65.7576 30.4173ZM74.4274 31.1335C73.5756 31.0821 72.9081 30.812 72.4246 30.3233C71.9412 29.8346 71.7221 29.2175 71.7671 28.4722C71.8102 27.7589 72.0905 27.1881 72.6079 26.7598C73.126 26.321 73.9219 26.0591 74.9956 25.9744L77.8805 25.716L77.8004 27.0415L75.5423 27.2738C75.0693 27.32 74.7042 27.4368 74.4471 27.6243C74.2013 27.8018 74.0671 28.0769 74.0446 28.4496C74.0253 28.769 74.116 29.0363 74.3167 29.2514C74.5288 29.4566 74.8317 29.5711 75.2257 29.5949C75.5664 29.6155 75.8637 29.5586 76.1176 29.4244C76.3721 29.2795 76.577 29.0728 76.7321 28.8043C76.8879 28.5252 76.9777 28.1887 77.0015 27.7947L77.1482 25.3672C77.1726 24.9626 77.0802 24.6364 76.8707 24.3886C76.6613 24.1409 76.333 24.0035 75.8858 23.9765C75.5025 23.9533 75.1829 24.0248 74.9271 24.191C74.6819 24.3579 74.4948 24.6244 74.3658 24.9906L72.2518 24.4301C72.5104 23.687 72.982 23.1331 73.6666 22.7684C74.3618 22.4044 75.1673 22.25 76.0829 22.3053C77.2967 22.3787 78.1737 22.7202 78.7139 23.3299C79.2654 23.9296 79.5116 24.7192 79.4524 25.6988L79.215 29.6276L79.7254 31.2613L77.3138 31.1156L76.998 29.9745L76.9022 29.9687C76.6429 30.3698 76.2985 30.6749 75.8691 30.8841C75.451 31.0832 74.9704 31.1664 74.4274 31.1335ZM81.3697 31.3607L81.8841 22.8482L84.2478 22.9911L83.7334 31.5035L81.3697 31.3607ZM83.1776 21.8685C82.7836 21.8447 82.4669 21.692 82.2275 21.4103C81.988 21.1287 81.8793 20.8069 81.9011 20.4449C81.9236 20.0722 82.0701 19.7712 82.3404 19.5417C82.6114 19.3016 82.9438 19.1935 83.3378 19.2173C83.7317 19.2411 84.0381 19.3879 84.2569 19.6576C84.487 19.9172 84.5908 20.2334 84.5683 20.6061C84.5464 20.9681 84.405 21.2748 84.144 21.5261C83.883 21.7775 83.5609 21.8916 83.1776 21.8685ZM91.3054 31.9611L91.6161 26.8185C91.6502 26.2542 91.5479 25.8259 91.3091 25.5336C91.0709 25.2307 90.7389 25.0664 90.313 25.0406C89.8232 25.0111 89.4249 25.1473 89.1182 25.4493C88.822 25.752 88.6572 26.1802 88.6238 26.7338L88.3188 31.7806L85.9551 31.6378L86.4695 23.1253L88.6575 23.2575L88.5765 24.5991L88.6563 24.6039C88.8982 24.1377 89.2455 23.7846 89.6981 23.5448C90.162 23.295 90.6921 23.1881 91.2883 23.2242C91.8739 23.2596 92.3726 23.4072 92.7843 23.6672C93.2074 23.9172 93.5268 24.2891 93.7428 24.7831C93.9593 25.2663 94.0451 25.8806 94.0001 26.6259L93.669 32.1039L91.3054 31.9611ZM99.6819 32.6596C98.7981 32.6062 98.0428 32.3736 97.4158 31.9617C96.7895 31.5391 96.3213 30.9765 96.0111 30.2739C95.7015 29.5606 95.5738 28.7567 95.6278 27.8624C95.68 26.9999 95.9066 26.2549 96.3079 25.6273C96.7204 24.9897 97.2571 24.5092 97.9178 24.1858C98.5791 23.8518 99.3144 23.7092 100.124 23.7581C100.954 23.8083 101.662 24.022 102.249 24.3994C102.836 24.7662 103.27 25.268 103.552 25.9048C103.845 26.5423 103.966 27.2816 103.915 28.1227C103.906 28.2718 103.891 28.4312 103.87 28.6009C103.85 28.76 103.826 28.8921 103.798 28.9973L96.7232 28.5697L96.811 27.1164L102.289 27.4474L101.686 27.6033C101.726 27.1249 101.681 26.7214 101.551 26.393C101.432 26.0652 101.244 25.8134 100.988 25.6376C100.732 25.4512 100.407 25.3461 100.013 25.3223C99.6404 25.2997 99.3055 25.3596 99.0084 25.502C98.7112 25.6443 98.4725 25.881 98.2922 26.2121C98.1126 26.5325 98.007 26.9536 97.9755 27.4753L97.9156 28.4655C97.8757 29.1256 98.0236 29.6849 98.3592 30.1433C98.6949 30.6017 99.2194 30.8524 99.9327 30.8956C100.316 30.9187 100.683 30.8607 101.033 30.7216C101.384 30.5719 101.682 30.3227 101.928 29.9742L103.557 31.1306C103.322 31.4904 103.02 31.7928 102.653 32.0377C102.286 32.272 101.854 32.4436 101.355 32.5524C100.857 32.6612 100.299 32.697 99.6819 32.6596ZM105.326 32.8084L105.84 24.2959L108.028 24.4281L107.936 25.9613L108.016 25.9661C108.196 25.4534 108.493 25.0546 108.905 24.7696C109.329 24.4747 109.813 24.3436 110.356 24.3764C110.452 24.3822 110.542 24.393 110.626 24.4088C110.712 24.4139 110.785 24.4291 110.848 24.4542L110.717 26.6263C110.623 26.5779 110.508 26.5442 110.37 26.5252C110.232 26.5062 110.073 26.4912 109.892 26.4803C109.53 26.4584 109.211 26.5192 108.935 26.6629C108.66 26.7958 108.434 27.0013 108.257 27.2791C108.09 27.5575 107.995 27.8991 107.971 28.3037L107.69 32.9512L105.326 32.8084ZM115.947 33.4502L116.462 24.9377L118.825 25.0805L118.311 33.593L115.947 33.4502ZM117.755 23.9579C117.361 23.9341 117.044 23.7814 116.805 23.4998C116.566 23.2182 116.457 22.8964 116.479 22.5344C116.501 22.1617 116.648 21.8607 116.918 21.6312C117.189 21.3911 117.521 21.283 117.915 21.3068C118.309 21.3306 118.616 21.4773 118.834 21.747C119.065 22.0067 119.168 22.3229 119.146 22.6955C119.124 23.0575 118.983 23.3642 118.722 23.6156C118.461 23.867 118.138 23.9811 117.755 23.9579ZM123.635 34.1071C122.613 34.0454 121.794 33.8035 121.179 33.3816C120.564 32.9491 120.187 32.3706 120.049 31.6463L122.296 31.3333C122.39 31.7343 122.564 32.0334 122.819 32.2305C123.085 32.4282 123.431 32.5399 123.857 32.5657C124.251 32.5895 124.565 32.523 124.799 32.3661C125.032 32.2093 125.159 31.9765 125.177 31.6677C125.193 31.4015 125.132 31.1841 124.992 31.0153C124.864 30.8473 124.642 30.7163 124.327 30.6225L122.645 30.072C121.974 29.8605 121.469 29.5521 121.13 29.147C120.791 28.7418 120.64 28.2358 120.677 27.6289C120.708 27.1071 120.885 26.6583 121.207 26.2824C121.529 25.9065 121.962 25.6281 122.508 25.4473C123.054 25.2559 123.678 25.1814 124.381 25.2239C124.987 25.2606 125.526 25.3732 125.995 25.5619C126.476 25.7406 126.867 25.9886 127.168 26.306C127.47 26.6128 127.662 26.977 127.744 27.3987L125.573 27.7804C125.485 27.4546 125.324 27.2097 125.088 27.0459C124.852 26.882 124.558 26.7895 124.207 26.7682C123.834 26.7457 123.542 26.8029 123.331 26.9397C123.131 27.0665 123.022 27.2737 123.005 27.5612C122.993 27.7635 123.051 27.9433 123.181 28.1008C123.31 28.2582 123.542 28.3951 123.877 28.5115L125.528 29.0441C125.948 29.1763 126.311 29.3532 126.618 29.5748C126.925 29.7964 127.155 30.072 127.306 30.4018C127.468 30.7215 127.535 31.1156 127.507 31.584C127.472 32.159 127.293 32.6451 126.97 33.0423C126.647 33.4289 126.202 33.7172 125.635 33.9074C125.069 34.0869 124.402 34.1534 123.635 34.1071ZM137.021 34.916C136.138 34.8626 135.377 34.6296 134.739 34.2171C134.102 33.8046 133.622 33.252 133.301 32.5593C132.979 31.8667 132.845 31.0838 132.898 30.2107C132.952 29.3163 133.18 28.55 133.582 27.9118C133.984 27.2735 134.526 26.788 135.209 26.4553C135.892 26.1118 136.675 25.9668 137.559 26.0202C138.443 26.0736 139.203 26.3066 139.841 26.7192C140.479 27.1317 140.958 27.6843 141.28 28.377C141.602 29.059 141.736 29.8472 141.682 30.7415C141.628 31.6252 141.4 32.3916 140.998 33.0405C140.596 33.6787 140.054 34.1642 139.371 34.497C138.688 34.8297 137.905 34.9694 137.021 34.916ZM137.129 33.1433C137.523 33.1671 137.869 33.0918 138.168 32.9175C138.478 32.7439 138.724 32.4649 138.908 32.0806C139.103 31.6863 139.218 31.1911 139.254 30.5948C139.292 29.9773 139.237 29.4664 139.09 29.0622C138.954 28.6586 138.743 28.3519 138.457 28.1423C138.181 27.9332 137.846 27.8168 137.452 27.793C137.058 27.7692 136.706 27.8441 136.396 28.0178C136.097 28.192 135.851 28.471 135.657 28.8547C135.473 29.239 135.363 29.7399 135.325 30.3574C135.289 30.9643 135.338 31.4696 135.474 31.8732C135.621 32.2774 135.832 32.584 136.108 32.793C136.394 33.0027 136.735 33.1194 137.129 33.1433ZM143.001 38.2909L143.709 26.5842L145.945 26.7193L145.866 28.0289L145.945 28.0338C146.102 27.744 146.315 27.4951 146.584 27.2869C146.853 27.0788 147.156 26.9208 147.494 26.813C147.842 26.7058 148.214 26.6641 148.608 26.6879C149.321 26.731 149.933 26.9496 150.443 27.3438C150.964 27.7386 151.354 28.2804 151.611 28.9692C151.88 29.648 151.987 30.4452 151.932 31.3609C151.877 32.2659 151.675 33.0445 151.326 33.6966C150.988 34.3387 150.542 34.8247 149.987 35.1545C149.433 35.4844 148.805 35.6281 148.102 35.5856C147.719 35.5624 147.366 35.477 147.043 35.3293C146.732 35.1822 146.46 34.9895 146.229 34.7511C146.008 34.5133 145.837 34.2466 145.716 33.9507L145.636 33.9459L145.365 38.4337L143.001 38.2909ZM147.442 33.7665C147.847 33.791 148.194 33.7051 148.484 33.5089C148.774 33.302 149.006 33.0061 149.179 32.6211C149.363 32.2262 149.471 31.7572 149.504 31.2142C149.538 30.6606 149.486 30.1819 149.35 29.7783C149.226 29.3647 149.032 29.0431 148.768 28.8134C148.504 28.5731 148.17 28.4407 147.766 28.4163C147.372 28.3925 147.024 28.4837 146.723 28.6899C146.423 28.8855 146.181 29.1807 145.997 29.5757C145.824 29.9606 145.721 30.4299 145.687 30.9836C145.655 31.5159 145.701 31.9889 145.826 32.4025C145.961 32.8168 146.166 33.1444 146.44 33.3853C146.714 33.6156 147.048 33.7427 147.442 33.7665ZM157.373 36.1459C156.49 36.0925 155.734 35.8598 155.107 35.4479C154.481 35.0254 154.013 34.4628 153.703 33.7601C153.393 33.0468 153.265 32.243 153.319 31.3486C153.372 30.4862 153.598 29.7412 154 29.1135C154.412 28.4759 154.949 27.9954 155.609 27.672C156.271 27.338 157.006 27.1954 157.815 27.2443C158.646 27.2945 159.354 27.5083 159.94 27.8857C160.527 28.2524 160.962 28.7542 161.244 29.391C161.537 30.0285 161.658 30.7678 161.607 31.609C161.598 31.758 161.583 31.9174 161.562 32.0871C161.542 32.2462 161.518 32.3783 161.49 32.4835L154.415 32.056L154.503 30.6026L159.981 30.9336L159.378 31.0896C159.418 30.6111 159.373 30.2076 159.243 29.8792C159.124 29.5514 158.936 29.2996 158.679 29.1239C158.424 28.9374 158.099 28.8323 157.705 28.8085C157.332 28.786 156.997 28.8459 156.7 28.9882C156.403 29.1305 156.164 29.3672 155.984 29.6983C155.804 30.0187 155.699 30.4398 155.667 30.9615L155.607 31.9517C155.567 32.6118 155.715 33.1711 156.051 33.6295C156.386 34.0879 156.911 34.3387 157.624 34.3818C158.008 34.4049 158.374 34.347 158.725 34.2078C159.076 34.0581 159.374 33.8089 159.62 33.4605L161.249 34.6168C161.013 34.9766 160.712 35.279 160.344 35.5239C159.978 35.7582 159.545 35.9298 159.047 36.0386C158.549 36.1474 157.991 36.1832 157.373 36.1459ZM168.368 36.6179L168.679 31.4753C168.713 30.911 168.61 30.4827 168.372 30.1904C168.133 29.8875 167.801 29.7232 167.376 29.6974C166.886 29.6678 166.487 29.8041 166.181 30.1061C165.885 30.4088 165.72 30.837 165.686 31.3906L165.381 36.4374L163.018 36.2946L163.532 27.7821L165.72 27.9143L165.639 29.2559L165.719 29.2607C165.961 28.7945 166.308 28.4414 166.761 28.2016C167.225 27.9518 167.755 27.8449 168.351 27.881C168.936 27.9163 169.435 28.064 169.847 28.324C170.27 28.574 170.589 28.9459 170.805 29.4398C171.022 29.9231 171.108 30.5374 171.063 31.2827L170.732 36.7607L168.368 36.6179ZM179.361 37.4745C178.509 37.4231 177.842 37.153 177.358 36.6643C176.875 36.1755 176.656 35.5585 176.701 34.8132C176.744 34.0999 177.024 33.5291 177.542 33.1008C178.06 32.6619 178.856 32.4001 179.929 32.3154L182.814 32.057L182.734 33.3825L180.476 33.6148C180.003 33.661 179.638 33.7778 179.381 33.9653C179.135 34.1428 179.001 34.4179 178.978 34.7906C178.959 35.11 179.05 35.3773 179.25 35.5924C179.462 35.7976 179.765 35.9121 180.159 35.9359C180.5 35.9565 180.797 35.8996 181.051 35.7654C181.306 35.6205 181.511 35.4138 181.666 35.1453C181.821 34.8662 181.911 34.5297 181.935 34.1357L182.082 31.7082C182.106 31.3036 182.014 30.9774 181.804 30.7296C181.595 30.4819 181.267 30.3445 180.819 30.3175C180.436 30.2943 180.117 30.3658 179.861 30.532C179.616 30.6989 179.428 30.9654 179.299 31.3316L177.185 30.7711C177.444 30.028 177.916 29.4741 178.6 29.1094C179.295 28.7454 180.101 28.591 181.017 28.6463C182.23 28.7197 183.107 29.0612 183.648 29.6709C184.199 30.2706 184.445 31.0602 184.386 32.0397L184.149 35.9686L184.659 37.6023L182.247 37.4566L181.932 36.3155L181.836 36.3097C181.576 36.7108 181.232 37.0159 180.803 37.225C180.385 37.4242 179.904 37.5074 179.361 37.4745ZM191.654 38.025L191.964 32.8824C191.998 32.3181 191.896 31.8898 191.657 31.5975C191.419 31.2946 191.087 31.1303 190.661 31.1046C190.171 31.075 189.773 31.2112 189.466 31.5132C189.17 31.8159 189.005 32.2441 188.972 32.7977L188.667 37.8445L186.303 37.7017L186.818 29.1892L189.006 29.3214L188.925 30.663L189.005 30.6678C189.246 30.2016 189.594 29.8485 190.046 29.6087C190.51 29.3589 191.04 29.252 191.637 29.2881C192.222 29.3235 192.721 29.4711 193.133 29.7311C193.556 29.9811 193.875 30.353 194.091 30.847C194.308 31.3302 194.393 31.9445 194.348 32.6898L194.017 38.1678L191.654 38.025ZM199.279 38.6782C198.577 38.6357 197.965 38.4171 197.444 38.0223C196.933 37.6281 196.543 37.0916 196.275 36.4128C196.017 35.724 195.916 34.9218 195.971 34.0061C196.026 33.1011 196.222 32.3275 196.56 31.6854C196.91 31.0333 197.361 30.5423 197.916 30.2125C198.47 29.8827 199.098 29.739 199.801 29.7814C200.195 29.8053 200.542 29.8904 200.844 30.0368C201.155 30.1839 201.421 30.3763 201.642 30.614C201.874 30.8524 202.05 31.1195 202.171 31.4154L202.251 31.4202L202.518 26.9963L204.882 27.1391L204.178 38.7819L201.942 38.6467L202.021 37.3371L201.957 37.3333C201.802 37.6124 201.589 37.8613 201.319 38.0801C201.05 38.2883 200.741 38.4459 200.393 38.5531C200.055 38.6609 199.684 38.7026 199.279 38.6782ZM200.121 36.9498C200.526 36.9743 200.878 36.8887 201.179 36.6931C201.48 36.4869 201.717 36.1913 201.889 35.8064C202.063 35.4108 202.166 34.9362 202.2 34.3825C202.233 33.8395 202.181 33.3662 202.045 32.9626C201.921 32.549 201.721 32.227 201.446 31.9967C201.172 31.7558 200.838 31.6234 200.445 31.5996C200.051 31.5758 199.703 31.667 199.402 31.8732C199.112 32.0694 198.876 32.3597 198.692 32.744C198.519 33.1289 198.416 33.5982 198.383 34.1519C198.349 34.7055 198.395 35.1891 198.52 35.6027C198.655 36.0063 198.855 36.3283 199.118 36.5686C199.393 36.7989 199.727 36.926 200.121 36.9498ZM211.308 39.2127L211.86 30.0774C211.911 29.2362 212.206 28.5916 212.746 28.1433C213.297 27.6957 213.993 27.4973 214.834 27.5482C215.111 27.5649 215.339 27.5947 215.518 27.6376C215.697 27.6804 215.896 27.7512 216.114 27.8499L216.02 29.4151C215.895 29.3541 215.775 29.3094 215.659 29.2811C215.554 29.2533 215.432 29.2353 215.294 29.2269C214.974 29.2076 214.718 29.2883 214.526 29.469C214.344 29.6398 214.244 29.8848 214.225 30.2042L213.672 39.3555L211.308 39.2127ZM210.366 32.2632L210.465 30.6182L215.783 30.9396L215.684 32.5846L210.366 32.2632ZM216.982 39.5556L217.496 31.0431L219.684 31.1753L219.591 32.7085L219.671 32.7133C219.852 32.2006 220.149 31.8018 220.561 31.5168C220.985 31.2219 221.468 31.0908 222.011 31.1236C222.107 31.1294 222.198 31.1402 222.282 31.156C222.367 31.1611 222.441 31.1763 222.504 31.2014L222.372 33.3735C222.279 33.3251 222.164 33.2914 222.026 33.2724C221.888 33.2534 221.729 33.2384 221.548 33.2275C221.186 33.2056 220.867 33.2665 220.591 33.4101C220.316 33.5431 220.09 33.7485 219.913 34.0263C219.746 34.3047 219.651 34.6463 219.626 35.0509L219.345 39.6984L216.982 39.5556ZM227.106 40.3597C226.222 40.3063 225.467 40.0736 224.84 39.6617C224.213 39.2392 223.745 38.6766 223.435 37.9739C223.125 37.2606 222.998 36.4568 223.052 35.5624C223.104 34.7 223.33 33.955 223.732 33.3274C224.144 32.6898 224.681 32.2092 225.342 31.8858C226.003 31.5518 226.738 31.4092 227.547 31.4581C228.378 31.5083 229.086 31.7221 229.673 32.0995C230.26 32.4662 230.694 32.968 230.976 33.6048C231.269 34.2423 231.39 34.9816 231.339 35.8228C231.33 35.9718 231.315 36.1312 231.294 36.3009C231.274 36.46 231.25 36.5921 231.222 36.6973L224.147 36.2698L224.235 34.8164L229.713 35.1475L229.11 35.3034C229.15 34.8249 229.105 34.4215 228.975 34.093C228.856 33.7653 228.668 33.5135 228.412 33.3377C228.156 33.1512 227.831 33.0461 227.437 33.0223C227.064 32.9998 226.729 33.0597 226.432 33.202C226.135 33.3444 225.896 33.5811 225.716 33.9121C225.536 34.2325 225.431 34.6536 225.399 35.1753L225.339 36.1655C225.3 36.8256 225.447 37.3849 225.783 37.8433C226.119 38.3017 226.643 38.5525 227.357 38.5956C227.74 38.6188 228.107 38.5608 228.457 38.4217C228.808 38.2719 229.106 38.0228 229.352 37.6743L230.981 38.8307C230.745 39.1904 230.444 39.4928 230.077 39.7378C229.71 39.9721 229.277 40.1436 228.779 40.2524C228.281 40.3613 227.723 40.397 227.106 40.3597ZM236.635 40.9355C235.751 40.8821 234.996 40.6495 234.369 40.2376C233.743 39.815 233.275 39.2524 232.964 38.5498C232.655 37.8365 232.527 37.0326 232.581 36.1383C232.633 35.2758 232.86 34.5308 233.261 33.9032C233.674 33.2656 234.21 32.7851 234.871 32.4617C235.532 32.1277 236.268 31.9851 237.077 32.034C237.907 32.0842 238.616 32.2979 239.202 32.6753C239.789 33.0421 240.224 33.5439 240.506 34.1807C240.798 34.8182 240.919 35.5575 240.869 36.3986C240.86 36.5477 240.845 36.7071 240.824 36.8768C240.803 37.0359 240.779 37.168 240.752 37.2732L233.676 36.8456L233.764 35.3923L239.242 35.7233L238.64 35.8792C238.679 35.4008 238.634 34.9973 238.505 34.6689C238.385 34.3411 238.198 34.0893 237.941 33.9135C237.685 33.7271 237.36 33.622 236.966 33.5982C236.594 33.5756 236.259 33.6355 235.962 33.7779C235.665 33.9202 235.426 34.1569 235.246 34.488C235.066 34.8084 234.96 35.2295 234.929 35.7512L234.869 36.7414C234.829 37.4015 234.977 37.9608 235.313 38.4192C235.648 38.8776 236.173 39.1284 236.886 39.1715C237.269 39.1946 237.636 39.1366 237.987 38.9975C238.338 38.8478 238.636 38.5986 238.881 38.2501L240.51 39.4065C240.275 39.7663 239.974 40.0687 239.606 40.3136C239.239 40.5479 238.807 40.7195 238.309 40.8283C237.811 40.9371 237.253 40.9729 236.635 40.9355Z" fill="black"/>
</svg>
