<svg width="200" height="252" viewBox="0 0 200 252" fill="none" xmlns="http://www.w3.org/2000/svg">
<path d="M0 18.3441C0 8.21294 8.21293 0 18.3441 0H181.083C191.215 0 199.427 8.21293 199.427 18.3441V233.656C199.427 243.787 191.215 252 181.083 252H18.3441C8.21292 252 0 243.787 0 233.656V18.3441Z" fill="white"/>
<path d="M7.71826 19.7772C7.71826 12.5407 13.5846 6.67432 20.8212 6.67432H178.411C185.648 6.67432 191.514 12.5407 191.514 19.7772V177.366C191.514 184.603 185.648 190.469 178.411 190.469H20.8212C13.5846 190.469 7.71826 184.603 7.71826 177.366V19.7772Z" fill="#E1D0FF"/>
<path d="M178.411 189.158V190.469H20.8212V189.158H178.411ZM190.204 177.366V19.7772C190.204 13.2644 184.924 7.98469 178.411 7.98461H20.8212C14.3083 7.98461 9.02856 13.2644 9.02855 19.7772V177.366C9.02855 183.879 14.3083 189.158 20.8212 189.158V190.469L20.4829 190.464C13.4027 190.285 7.71826 184.489 7.71826 177.366V19.7772C7.71827 12.6538 13.4027 6.85798 20.4829 6.67858L20.8212 6.67432H178.411L178.75 6.67858C185.83 6.85806 191.514 12.6538 191.514 19.7772V177.366L191.51 177.704C191.334 184.672 185.718 190.288 178.75 190.464L178.411 190.469V189.158C184.924 189.158 190.204 183.879 190.204 177.366Z" fill="white"/>
<path d="M123.759 42.4814V55.1873H121.116V42.4814H123.759Z" fill="black"/>
<path d="M115.017 55.3733C114.036 55.3733 113.193 55.1748 112.485 54.7777C111.782 54.3765 111.24 53.8099 110.86 53.0778C110.479 52.3416 110.289 51.4709 110.289 50.4659C110.289 49.4857 110.479 48.6254 110.86 47.885C111.24 47.1447 111.776 46.5677 112.467 46.1541C113.162 45.7405 113.976 45.5337 114.911 45.5337C115.54 45.5337 116.125 45.635 116.667 45.8377C117.213 46.0362 117.688 46.3361 118.094 46.7373C118.503 47.1385 118.822 47.6431 119.049 48.2511C119.277 48.8549 119.39 49.5622 119.39 50.3728V51.0987H111.344V49.4608H116.903C116.903 49.0803 116.82 48.7432 116.654 48.4496C116.489 48.1559 116.259 47.9264 115.966 47.7609C115.676 47.5914 115.339 47.5066 114.954 47.5066C114.553 47.5066 114.198 47.5996 113.887 47.7858C113.581 47.9677 113.341 48.2138 113.168 48.524C112.994 48.8301 112.905 49.1713 112.901 49.5477V51.1049C112.901 51.5764 112.988 51.9838 113.162 52.3271C113.339 52.6704 113.59 52.9351 113.912 53.1212C114.235 53.3073 114.617 53.4004 115.06 53.4004C115.354 53.4004 115.622 53.359 115.866 53.2763C116.111 53.1936 116.319 53.0695 116.493 52.9041C116.667 52.7386 116.799 52.536 116.89 52.2961L119.335 52.4574C119.21 53.0447 118.956 53.5576 118.571 53.996C118.191 54.4303 117.699 54.7694 117.095 55.0135C116.495 55.2533 115.802 55.3733 115.017 55.3733Z" fill="black"/>
<path d="M109.055 45.6578V47.6431H103.316V45.6578H109.055ZM104.619 43.3748H107.262V52.2589C107.262 52.503 107.299 52.6932 107.374 52.8297C107.448 52.9621 107.552 53.0551 107.684 53.1089C107.821 53.1627 107.978 53.1895 108.156 53.1895C108.28 53.1895 108.404 53.1792 108.528 53.1585C108.652 53.1337 108.747 53.1151 108.813 53.1027L109.229 55.0694C109.097 55.1107 108.91 55.1583 108.67 55.2121C108.431 55.27 108.139 55.3051 107.796 55.3175C107.159 55.3423 106.6 55.2575 106.121 55.0632C105.645 54.8688 105.275 54.5668 105.01 54.1574C104.745 53.7479 104.615 53.2309 104.619 52.6064V43.3748Z" fill="black"/>
<path d="M102.105 48.3751L99.685 48.524C99.6436 48.3172 99.5547 48.1311 99.4182 47.9657C99.2817 47.7961 99.1018 47.6617 98.8784 47.5624C98.6592 47.459 98.3966 47.4073 98.0905 47.4073C97.6811 47.4073 97.3357 47.4942 97.0544 47.6679C96.7732 47.8375 96.6326 48.0649 96.6326 48.3503C96.6326 48.5778 96.7236 48.7701 96.9056 48.9273C97.0875 49.0845 97.3998 49.2106 97.8424 49.3057L99.5671 49.6532C100.494 49.8434 101.184 50.1495 101.639 50.5714C102.094 50.9932 102.322 51.5475 102.322 52.234C102.322 52.8586 102.138 53.4066 101.77 53.8781C101.406 54.3496 100.905 54.7177 100.268 54.9824C99.6353 55.243 98.9053 55.3733 98.0781 55.3733C96.8166 55.3733 95.8116 55.1106 95.063 54.5854C94.3185 54.056 93.8821 53.3363 93.7539 52.4264L96.3534 52.2899C96.432 52.6745 96.6222 52.9682 96.9242 53.1709C97.2261 53.3694 97.6128 53.4686 98.0843 53.4686C98.5476 53.4686 98.9198 53.3797 99.201 53.2019C99.4864 53.0199 99.6312 52.7862 99.6353 52.5008C99.6312 52.2609 99.5299 52.0645 99.3313 51.9114C99.1328 51.7543 98.8267 51.6343 98.4131 51.5516L96.7629 51.2228C95.8323 51.0367 95.1395 50.7141 94.6845 50.255C94.2337 49.7959 94.0083 49.2106 94.0083 48.4992C94.0083 47.8871 94.1737 47.3597 94.5046 46.9172C94.8396 46.4746 95.309 46.1334 95.9129 45.8935C96.5209 45.6536 97.2323 45.5337 98.0471 45.5337C99.2507 45.5337 100.198 45.7881 100.889 46.2968C101.583 46.8055 101.989 47.4983 102.105 48.3751Z" fill="black"/>
<path d="M86.7598 55.3671C86.1518 55.3671 85.6099 55.2616 85.1343 55.0507C84.6587 54.8356 84.2823 54.5192 84.0052 54.1015C83.7322 53.6796 83.5957 53.1543 83.5957 52.5256C83.5957 51.9962 83.6929 51.5516 83.8873 51.1918C84.0817 50.8319 84.3464 50.5424 84.6814 50.3232C85.0164 50.104 85.3969 49.9386 85.8229 49.8269C86.2531 49.7152 86.7039 49.6366 87.1754 49.5911C87.7297 49.5332 88.1763 49.4795 88.5155 49.4298C88.8547 49.3761 89.1007 49.2975 89.2538 49.1941C89.4068 49.0907 89.4833 48.9376 89.4833 48.735V48.6977C89.4833 48.3048 89.3592 48.0008 89.1111 47.7858C88.8671 47.5707 88.5196 47.4631 88.0688 47.4631C87.5932 47.4631 87.2147 47.5686 86.9335 47.7796C86.6522 47.9864 86.4661 48.2469 86.3751 48.5613L83.9307 48.3627C84.0548 47.7837 84.2988 47.2832 84.6628 46.8614C85.0268 46.4353 85.4962 46.1086 86.0711 45.8811C86.6502 45.6495 87.3202 45.5337 88.0812 45.5337C88.6106 45.5337 89.1173 45.5957 89.6012 45.7198C90.0893 45.8439 90.5215 46.0362 90.8978 46.2968C91.2784 46.5574 91.5782 46.8924 91.7974 47.3018C92.0166 47.7072 92.1262 48.1932 92.1262 48.7598V55.1872H89.6198V53.8657H89.5454C89.3923 54.1635 89.1876 54.4261 88.9312 54.6536C88.6747 54.877 88.3666 55.0527 88.0068 55.181C87.6469 55.305 87.2313 55.3671 86.7598 55.3671ZM87.5167 53.5431C87.9054 53.5431 88.2487 53.4666 88.5465 53.3135C88.8443 53.1564 89.078 52.9454 89.2476 52.6807C89.4172 52.416 89.5019 52.1162 89.5019 51.7812V50.7699C89.4192 50.8237 89.3055 50.8733 89.1607 50.9188C89.0201 50.9602 88.8609 50.9994 88.683 51.0367C88.5052 51.0698 88.3273 51.1008 88.1495 51.1297C87.9716 51.1545 87.8103 51.1773 87.6655 51.198C87.3553 51.2435 87.0844 51.3158 86.8528 51.4151C86.6212 51.5144 86.4413 51.6488 86.3131 51.8184C86.1849 51.9838 86.1207 52.1906 86.1207 52.4388C86.1207 52.7986 86.251 53.0737 86.5116 53.2639C86.7763 53.45 87.1113 53.5431 87.5167 53.5431Z" fill="black"/>
<path d="M73.0361 55.1873V42.4814H78.049C79.0127 42.4814 79.8337 42.6655 80.512 43.0336C81.1903 43.3976 81.7073 43.9042 82.063 44.5536C82.4228 45.1988 82.6028 45.9433 82.6028 46.787C82.6028 47.6308 82.4208 48.3753 82.0568 49.0205C81.6928 49.6657 81.1655 50.1682 80.4748 50.5281C79.7882 50.8879 78.9568 51.0678 77.9807 51.0678H74.7857V48.915H77.5465C78.0635 48.915 78.4895 48.8261 78.8245 48.6483C79.1636 48.4663 79.4159 48.216 79.5814 47.8976C79.751 47.575 79.8357 47.2048 79.8357 46.787C79.8357 46.3652 79.751 45.9971 79.5814 45.6827C79.4159 45.3643 79.1636 45.1182 78.8245 44.9444C78.4853 44.7666 78.0552 44.6777 77.5341 44.6777H75.7225V55.1873H73.0361Z" fill="black"/>
<path d="M103.181 29.5028C102.789 29.5012 102.454 29.3977 102.176 29.1926C101.898 28.9875 101.685 28.6888 101.538 28.2967C101.391 27.9046 101.317 27.4323 101.317 26.8797C101.317 26.3288 101.391 25.8581 101.538 25.4677C101.687 25.0773 101.901 24.7795 102.179 24.5743C102.458 24.3692 102.792 24.2666 103.181 24.2666C103.57 24.2666 103.903 24.37 104.181 24.5768C104.459 24.7819 104.672 25.0797 104.819 25.4702C104.968 25.859 105.042 26.3288 105.042 26.8797C105.042 27.434 104.969 27.9071 104.821 28.2992C104.674 28.6897 104.462 28.9883 104.184 29.1951C103.906 29.4002 103.572 29.5028 103.181 29.5028ZM103.181 28.8402C103.525 28.8402 103.794 28.6723 103.988 28.3364C104.183 28.0006 104.28 27.515 104.28 26.8797C104.28 26.4579 104.236 26.1013 104.146 25.8102C104.059 25.5173 103.932 25.2956 103.767 25.1451C103.603 24.9929 103.408 24.9168 103.181 24.9168C102.839 24.9168 102.57 25.0855 102.375 25.423C102.179 25.7605 102.081 26.2461 102.079 26.8797C102.079 27.3033 102.123 27.6614 102.211 27.9543C102.3 28.2455 102.427 28.4663 102.59 28.6169C102.754 28.7658 102.951 28.8402 103.181 28.8402Z" fill="black"/>
<path d="M100.037 24.3357V29.418H99.2673V25.105H99.2375L98.0215 25.8991V25.1646L99.2896 24.3357H100.037Z" fill="black"/>
<path d="M97.488 24.0977L95.8501 30.1826H95.1875L96.8254 24.0977H97.488Z" fill="black"/>
<path d="M91.2569 29.4184V28.8625L92.9767 27.0808C93.1603 26.8872 93.3117 26.7176 93.4308 26.572C93.5516 26.4248 93.6417 26.285 93.7013 26.1526C93.7609 26.0203 93.7906 25.8796 93.7906 25.7308C93.7906 25.562 93.7509 25.4164 93.6715 25.294C93.5921 25.1699 93.4838 25.0748 93.3464 25.0086C93.2091 24.9408 93.0544 24.9069 92.8824 24.9069C92.7004 24.9069 92.5416 24.9441 92.4059 25.0185C92.2702 25.093 92.166 25.198 92.0932 25.3337C92.0204 25.4694 91.984 25.6282 91.984 25.8102H91.252C91.252 25.5008 91.3231 25.2303 91.4654 24.9987C91.6076 24.7671 91.8029 24.5876 92.051 24.4602C92.2992 24.3311 92.5813 24.2666 92.8973 24.2666C93.2166 24.2666 93.4978 24.3303 93.741 24.4577C93.9859 24.5834 94.1769 24.7555 94.3143 24.9739C94.4516 25.1906 94.5202 25.4354 94.5202 25.7084C94.5202 25.897 94.4847 26.0815 94.4135 26.2618C94.344 26.4421 94.2224 26.6432 94.0487 26.8649C93.875 27.0849 93.6335 27.3521 93.3241 27.6664L92.3141 28.7236V28.7608H94.6021V29.4184H91.2569Z" fill="black"/>
<path d="M112.373 67.7742L110.735 73.8591H110.072L111.71 67.7742H112.373Z" fill="black"/>
<path d="M109.439 68.0122V73.0946H108.697V68.0122H109.439Z" fill="black"/>
<path d="M106.117 71.1043H106.715V71.4244H106.231C106.071 71.4244 105.929 71.4492 105.805 71.4989C105.682 71.5485 105.585 71.6172 105.514 71.7048C105.445 71.7909 105.41 71.8918 105.41 72.0076C105.41 72.1648 105.489 72.2946 105.646 72.3972C105.803 72.4981 106.016 72.5486 106.284 72.5486C106.547 72.5486 106.748 72.5023 106.887 72.4096C107.026 72.317 107.115 72.1763 107.155 71.9877H107.902C107.885 72.1697 107.833 72.3335 107.745 72.4791C107.659 72.6247 107.544 72.7488 107.4 72.8513C107.258 72.9523 107.092 73.03 106.902 73.0846C106.713 73.1376 106.506 73.164 106.281 73.164C105.973 73.164 105.697 73.1185 105.452 73.0275C105.209 72.9365 105.016 72.8083 104.874 72.6429C104.733 72.4774 104.663 72.2831 104.663 72.0597C104.663 71.9472 104.685 71.8347 104.73 71.7222C104.776 71.6097 104.853 71.5071 104.961 71.4145C105.07 71.3218 105.218 71.2474 105.405 71.1911C105.594 71.1332 105.831 71.1043 106.117 71.1043ZM106.715 71.2606H106.117C105.843 71.2606 105.615 71.2333 105.435 71.1787C105.255 71.1241 105.113 71.053 105.011 70.9653C104.908 70.876 104.835 70.7775 104.792 70.67C104.751 70.5608 104.73 70.4533 104.73 70.3474C104.73 70.1125 104.795 69.9123 104.926 69.7468C105.057 69.5798 105.238 69.4524 105.47 69.3647C105.701 69.277 105.969 69.2332 106.274 69.2332C106.566 69.2332 106.825 69.2778 107.05 69.3672C107.277 69.4548 107.458 69.5822 107.594 69.7493C107.73 69.9148 107.81 70.1141 107.835 70.3474H107.085C107.052 70.1902 106.964 70.067 106.82 69.9776C106.677 69.8866 106.49 69.8411 106.256 69.8411C106.011 69.8411 105.819 69.8916 105.678 69.9925C105.537 70.0934 105.466 70.2208 105.465 70.3747C105.466 70.5186 105.532 70.6344 105.661 70.7221C105.79 70.8082 105.98 70.8512 106.231 70.8512H106.715V71.2606Z" fill="black"/>
<path d="M104.014 69.2829V69.8784H101.932V69.2829H104.014ZM102.49 68.3696H103.232V71.9754C103.232 72.1193 103.254 72.2277 103.297 72.3005C103.34 72.3716 103.395 72.4204 103.463 72.4469C103.532 72.4717 103.608 72.4841 103.689 72.4841C103.748 72.4841 103.8 72.48 103.845 72.4717C103.89 72.4635 103.924 72.4568 103.949 72.4519L104.083 73.0648C104.04 73.0814 103.979 73.0979 103.9 73.1145C103.82 73.1327 103.721 73.1426 103.602 73.1443C103.407 73.1476 103.225 73.1128 103.056 73.04C102.887 72.9672 102.751 72.8547 102.646 72.7025C102.542 72.5503 102.49 72.3592 102.49 72.1293V68.3696Z" fill="black"/>
<path d="M101.373 67.7517V69.1786H100.808V67.7517H101.373Z" fill="black"/>
<path d="M98.4373 73.1144V69.0471C98.4373 68.6368 98.5523 68.3241 98.7823 68.109C99.0139 67.8923 99.3307 67.7839 99.7327 67.7839C99.8121 67.7839 99.8907 67.7897 99.9685 67.8013C100.048 67.8112 100.125 67.8236 100.199 67.8385L100.169 68.4689C100.125 68.4589 100.074 68.4515 100.018 68.4465C99.9635 68.4416 99.9048 68.4391 99.8419 68.4391C99.6533 68.4391 99.5052 68.4912 99.3977 68.5954C99.2918 68.698 99.2389 68.8485 99.2389 69.0471V73.1144H98.4373ZM97.941 74.6034C97.8632 74.6034 97.7847 74.5976 97.7052 74.586C97.6275 74.5761 97.5539 74.5637 97.4844 74.5488L97.5042 73.9185C97.5472 73.9284 97.5969 73.9359 97.6531 73.9408C97.711 73.9458 97.7706 73.9483 97.8318 73.9483C98.0254 73.9483 98.1743 73.8953 98.2785 73.7894C98.3844 73.6852 98.4373 73.5355 98.4373 73.3403V69.2729H99.2389V73.3403C99.2389 73.7489 99.1231 74.0616 98.8914 74.2783C98.6598 74.495 98.343 74.6034 97.941 74.6034Z" fill="black"/>
<path d="M94.8602 73.1789C94.6187 73.1789 94.4003 73.1343 94.2051 73.0449C94.0099 72.9539 93.8552 72.8224 93.741 72.6503C93.6285 72.4783 93.5723 72.2673 93.5723 72.0175C93.5723 71.8025 93.6136 71.6254 93.6963 71.4865C93.7791 71.3475 93.8907 71.2375 94.0314 71.1564C94.172 71.0753 94.3292 71.0141 94.5029 70.9728C94.6766 70.9314 94.8536 70.9 95.0339 70.8785C95.2622 70.852 95.4475 70.8305 95.5898 70.8139C95.7321 70.7957 95.8355 70.7668 95.9 70.7271C95.9645 70.6874 95.9968 70.6229 95.9968 70.5335V70.5161C95.9968 70.2994 95.9356 70.1315 95.8132 70.0124C95.6924 69.8933 95.5121 69.8337 95.2722 69.8337C95.0224 69.8337 94.8255 69.8891 94.6815 70C94.5393 70.1092 94.4408 70.2308 94.3862 70.3648L93.6889 70.2059C93.7716 69.9743 93.8924 69.7874 94.0512 69.6451C94.2117 69.5012 94.3962 69.3969 94.6046 69.3324C94.8131 69.2662 95.0323 69.2332 95.2622 69.2332C95.4144 69.2332 95.5758 69.2514 95.7462 69.2877C95.9182 69.3225 96.0787 69.387 96.2276 69.4813C96.3781 69.5756 96.5014 69.7105 96.5974 69.8858C96.6933 70.0595 96.7413 70.2854 96.7413 70.5633V73.0945H96.0167V72.5734H95.9869C95.9389 72.6694 95.8669 72.7637 95.771 72.8563C95.675 72.949 95.5518 73.0259 95.4012 73.0871C95.2507 73.1483 95.0703 73.1789 94.8602 73.1789ZM95.0215 72.5833C95.2267 72.5833 95.402 72.5428 95.5476 72.4617C95.6949 72.3807 95.8065 72.2748 95.8826 72.1441C95.9604 72.0117 95.9993 71.8703 95.9993 71.7197V71.2284C95.9728 71.2548 95.9215 71.2797 95.8454 71.3028C95.771 71.3243 95.6858 71.3434 95.5898 71.3599C95.4939 71.3748 95.4004 71.3888 95.3094 71.4021C95.2184 71.4137 95.1423 71.4236 95.0811 71.4319C94.9372 71.4501 94.8056 71.4807 94.6865 71.5237C94.569 71.5667 94.4747 71.6287 94.4036 71.7098C94.3341 71.7892 94.2994 71.8951 94.2994 72.0275C94.2994 72.2111 94.3672 72.3501 94.5029 72.4444C94.6385 72.537 94.8114 72.5833 95.0215 72.5833Z" fill="black"/>
<path d="M89.4385 74.524V69.2828H90.1631V69.9007H90.2251C90.2682 69.8213 90.3302 69.7295 90.4113 69.6252C90.4923 69.521 90.6048 69.43 90.7488 69.3523C90.8927 69.2729 91.083 69.2332 91.3195 69.2332C91.6273 69.2332 91.9019 69.3109 92.1434 69.4664C92.385 69.6219 92.5744 69.8461 92.7117 70.1389C92.8507 70.4318 92.9202 70.7842 92.9202 71.1961C92.9202 71.6081 92.8515 71.9613 92.7142 72.2558C92.5769 72.5486 92.3883 72.7744 92.1484 72.9332C91.9085 73.0904 91.6347 73.169 91.327 73.169C91.0954 73.169 90.9059 73.1301 90.7587 73.0524C90.6131 72.9746 90.499 72.8836 90.4162 72.7794C90.3335 72.6752 90.2698 72.5825 90.2251 72.5014H90.1805V74.524H89.4385ZM90.1656 71.1887C90.1656 71.4567 90.2045 71.6916 90.2822 71.8934C90.36 72.0953 90.4725 72.2533 90.6197 72.3674C90.767 72.4799 90.9473 72.5362 91.1607 72.5362C91.3824 72.5362 91.5677 72.4774 91.7166 72.36C91.8655 72.2409 91.978 72.0796 92.0541 71.8761C92.1319 71.6726 92.1707 71.4434 92.1707 71.1887C92.1707 70.9372 92.1327 70.7114 92.0566 70.5112C91.9821 70.311 91.8696 70.153 91.7191 70.0372C91.5702 69.9214 91.3841 69.8635 91.1607 69.8635C90.9456 69.8635 90.7637 69.9189 90.6148 70.0298C90.4675 70.1406 90.3558 70.2953 90.2797 70.4938C90.2036 70.6923 90.1656 70.924 90.1656 71.1887Z" fill="black"/>
<path d="M88.8083 67.7742L87.1704 73.8591H86.5078L88.1457 67.7742H88.8083Z" fill="black"/>
<path d="M129.43 88.9478V94.0301H128.688V88.9478H129.43Z" fill="black"/>
<path d="M126.23 94.1068C125.855 94.1068 125.531 94.0265 125.26 93.8661C124.99 93.7039 124.782 93.4764 124.634 93.1836C124.489 92.8891 124.416 92.5442 124.416 92.1488C124.416 91.7583 124.489 91.4142 124.634 91.1164C124.782 90.8186 124.987 90.5862 125.25 90.4191C125.515 90.252 125.824 90.1685 126.178 90.1685C126.393 90.1685 126.601 90.204 126.803 90.2752C127.005 90.3463 127.186 90.458 127.347 90.6102C127.507 90.7624 127.634 90.9601 127.726 91.2033C127.819 91.4448 127.865 91.7385 127.865 92.0843V92.3473H124.835V91.7914H127.138C127.138 91.5962 127.099 91.4233 127.019 91.2728C126.94 91.1206 126.828 91.0006 126.684 90.9129C126.542 90.8253 126.375 90.7814 126.183 90.7814C125.974 90.7814 125.792 90.8327 125.637 90.9353C125.483 91.0362 125.364 91.1685 125.28 91.3323C125.197 91.4945 125.156 91.6707 125.156 91.8609V92.2952C125.156 92.55 125.2 92.7667 125.29 92.9454C125.381 93.1241 125.507 93.2605 125.669 93.3548C125.831 93.4475 126.021 93.4938 126.238 93.4938C126.378 93.4938 126.506 93.474 126.622 93.4343C126.738 93.3929 126.838 93.3317 126.922 93.2506C127.007 93.1696 127.071 93.0695 127.116 92.9503L127.818 93.0769C127.762 93.2837 127.661 93.4649 127.516 93.6204C127.372 93.7742 127.19 93.8942 126.972 93.9802C126.755 94.0646 126.508 94.1068 126.23 94.1068Z" fill="black"/>
<path d="M123.807 90.2182V90.8138H121.725V90.2182H123.807ZM122.283 89.3049H123.025V92.9107C123.025 93.0546 123.046 93.163 123.089 93.2358C123.133 93.3069 123.188 93.3558 123.256 93.3822C123.325 93.407 123.401 93.4194 123.482 93.4194C123.541 93.4194 123.593 93.4153 123.638 93.407C123.683 93.3988 123.717 93.3921 123.742 93.3872L123.876 94.0001C123.833 94.0167 123.772 94.0332 123.693 94.0498C123.613 94.068 123.514 94.0779 123.395 94.0796C123.2 94.0829 123.018 94.0481 122.849 93.9753C122.68 93.9025 122.544 93.79 122.439 93.6378C122.335 93.4856 122.283 93.2945 122.283 93.0646V89.3049Z" fill="black"/>
<path d="M121.136 91.1487L120.464 91.2678C120.436 91.1818 120.391 91.0999 120.33 91.0221C120.27 90.9444 120.189 90.8807 120.087 90.831C119.984 90.7814 119.856 90.7566 119.702 90.7566C119.492 90.7566 119.317 90.8037 119.176 90.8981C119.035 90.9907 118.965 91.1106 118.965 91.2579C118.965 91.3853 119.012 91.4878 119.106 91.5656C119.201 91.6434 119.353 91.7071 119.563 91.7567L120.169 91.8957C120.519 91.9767 120.781 92.1016 120.953 92.2704C121.125 92.4391 121.211 92.6583 121.211 92.928C121.211 93.1563 121.145 93.3598 121.012 93.5385C120.882 93.7155 120.699 93.8545 120.464 93.9554C120.231 94.0563 119.96 94.1068 119.652 94.1068C119.226 94.1068 118.877 94.0158 118.608 93.8338C118.338 93.6502 118.173 93.3896 118.111 93.0521L118.829 92.9429C118.873 93.1298 118.965 93.2713 119.104 93.3673C119.243 93.4616 119.424 93.5087 119.647 93.5087C119.891 93.5087 120.085 93.4582 120.231 93.3573C120.376 93.2548 120.449 93.1298 120.449 92.9826C120.449 92.8635 120.404 92.7634 120.315 92.6823C120.227 92.6013 120.092 92.5401 119.91 92.4987L119.265 92.3572C118.91 92.2762 118.647 92.1471 118.476 91.9701C118.307 91.7931 118.223 91.5689 118.223 91.2976C118.223 91.0726 118.286 90.8757 118.412 90.707C118.537 90.5382 118.711 90.4067 118.933 90.3124C119.154 90.2164 119.408 90.1685 119.695 90.1685C120.107 90.1685 120.431 90.2578 120.667 90.4365C120.904 90.6135 121.06 90.8509 121.136 91.1487Z" fill="black"/>
<path d="M115.412 94.1142C115.17 94.1142 114.952 94.0696 114.757 93.9802C114.562 93.8892 114.407 93.7577 114.293 93.5856C114.18 93.4136 114.124 93.2026 114.124 92.9528C114.124 92.7378 114.165 92.5607 114.248 92.4218C114.331 92.2828 114.442 92.1728 114.583 92.0917C114.724 92.0106 114.881 91.9494 115.055 91.9081C115.228 91.8667 115.405 91.8353 115.586 91.8138C115.814 91.7873 115.999 91.7658 116.142 91.7492C116.284 91.731 116.387 91.7021 116.452 91.6624C116.516 91.6227 116.549 91.5582 116.549 91.4688V91.4515C116.549 91.2347 116.487 91.0668 116.365 90.9477C116.244 90.8286 116.064 90.769 115.824 90.769C115.574 90.769 115.377 90.8244 115.233 90.9353C115.091 91.0445 114.993 91.1661 114.938 91.3001L114.241 91.1412C114.323 90.9096 114.444 90.7227 114.603 90.5804C114.763 90.4365 114.948 90.3322 115.156 90.2677C115.365 90.2015 115.584 90.1685 115.814 90.1685C115.966 90.1685 116.128 90.1867 116.298 90.2231C116.47 90.2578 116.63 90.3223 116.779 90.4166C116.93 90.5109 117.053 90.6458 117.149 90.8211C117.245 90.9948 117.293 91.2207 117.293 91.4986V94.0298H116.568V93.5087H116.539C116.491 93.6047 116.419 93.699 116.323 93.7916C116.227 93.8843 116.104 93.9612 115.953 94.0224C115.802 94.0836 115.622 94.1142 115.412 94.1142ZM115.573 93.5186C115.778 93.5186 115.954 93.4781 116.099 93.397C116.247 93.316 116.358 93.2101 116.434 93.0794C116.512 92.947 116.551 92.8056 116.551 92.655V92.1637C116.525 92.1901 116.473 92.215 116.397 92.2381C116.323 92.2596 116.238 92.2787 116.142 92.2952C116.046 92.3101 115.952 92.3242 115.861 92.3374C115.77 92.349 115.694 92.3589 115.633 92.3672C115.489 92.3854 115.357 92.416 115.238 92.459C115.121 92.502 115.027 92.564 114.955 92.6451C114.886 92.7245 114.851 92.8304 114.851 92.9628C114.851 93.1464 114.919 93.2854 115.055 93.3797C115.19 93.4723 115.363 93.5186 115.573 93.5186Z" fill="black"/>
<path d="M109.989 95.4593V90.2181H110.714V90.836H110.776C110.819 90.7566 110.881 90.6648 110.962 90.5606C111.043 90.4563 111.156 90.3653 111.3 90.2876C111.443 90.2082 111.634 90.1685 111.87 90.1685C112.178 90.1685 112.453 90.2462 112.694 90.4017C112.936 90.5572 113.125 90.7814 113.263 91.0742C113.401 91.3671 113.471 91.7195 113.471 92.1314C113.471 92.5434 113.402 92.8966 113.265 93.1911C113.128 93.4839 112.939 93.7097 112.699 93.8685C112.459 94.0257 112.185 94.1043 111.878 94.1043C111.646 94.1043 111.457 94.0654 111.309 93.9877C111.164 93.9099 111.05 93.8189 110.967 93.7147C110.884 93.6105 110.821 93.5178 110.776 93.4367H110.731V95.4593H109.989ZM110.716 92.124C110.716 92.392 110.755 92.6269 110.833 92.8287C110.911 93.0306 111.023 93.1886 111.171 93.3027C111.318 93.4152 111.498 93.4715 111.711 93.4715C111.933 93.4715 112.118 93.4128 112.267 93.2953C112.416 93.1762 112.529 93.0149 112.605 92.8114C112.683 92.6079 112.722 92.3787 112.722 92.124C112.722 91.8725 112.683 91.6467 112.607 91.4465C112.533 91.2463 112.42 91.0883 112.27 90.9725C112.121 90.8567 111.935 90.7988 111.711 90.7988C111.496 90.7988 111.314 90.8542 111.166 90.9651C111.018 91.0759 110.907 91.2306 110.831 91.4291C110.754 91.6276 110.716 91.8593 110.716 92.124Z" fill="black"/>
<path d="M101.964 94.0298V90.2181H102.676V90.8385H102.723C102.803 90.6284 102.933 90.4646 103.113 90.3471C103.293 90.228 103.509 90.1685 103.761 90.1685C104.015 90.1685 104.229 90.228 104.401 90.3471C104.575 90.4663 104.703 90.63 104.785 90.8385H104.825C104.916 90.635 105.061 90.4729 105.259 90.3521C105.458 90.2297 105.695 90.1685 105.969 90.1685C106.315 90.1685 106.597 90.2768 106.815 90.4935C107.035 90.7103 107.145 91.037 107.145 91.4738V94.0298H106.403V91.5433C106.403 91.2852 106.333 91.0982 106.193 90.9824C106.052 90.8666 105.884 90.8087 105.689 90.8087C105.447 90.8087 105.259 90.8832 105.125 91.0321C104.991 91.1793 104.924 91.3687 104.924 91.6003V94.0298H104.185V91.4961C104.185 91.2893 104.12 91.1231 103.991 90.9973C103.862 90.8716 103.694 90.8087 103.488 90.8087C103.347 90.8087 103.217 90.8459 103.098 90.9204C102.981 90.9932 102.885 91.0949 102.813 91.2256C102.741 91.3563 102.706 91.5077 102.706 91.6798V94.0298H101.964Z" fill="black"/>
<path d="M100.222 92.4492V90.2183H100.967V94.03H100.237V93.3699H100.197C100.11 93.5734 99.9691 93.743 99.7755 93.8786C99.5836 94.0126 99.3446 94.0797 99.0583 94.0797C98.8135 94.0797 98.5968 94.0259 98.4082 93.9183C98.2212 93.8092 98.074 93.6479 97.9664 93.4344C97.8606 93.221 97.8076 92.9571 97.8076 92.6428V90.2183H98.5496V92.5535C98.5496 92.8132 98.6216 93.02 98.7655 93.1739C98.9095 93.3277 99.0964 93.4047 99.3264 93.4047C99.4653 93.4047 99.6035 93.3699 99.7408 93.3004C99.8798 93.2309 99.9947 93.1259 100.086 92.9853C100.178 92.8446 100.224 92.666 100.222 92.4492Z" fill="black"/>
<path d="M93.353 94.1068C92.9957 94.1068 92.6838 94.0249 92.4174 93.8611C92.1511 93.6973 91.9443 93.4682 91.797 93.1737C91.6498 92.8792 91.5762 92.5351 91.5762 92.1413C91.5762 91.7459 91.6498 91.4002 91.797 91.104C91.9443 90.8079 92.1511 90.5779 92.4174 90.4141C92.6838 90.2504 92.9957 90.1685 93.353 90.1685C93.7104 90.1685 94.0222 90.2504 94.2886 90.4141C94.5549 90.5779 94.7617 90.8079 94.909 91.104C95.0562 91.4002 95.1298 91.7459 95.1298 92.1413C95.1298 92.5351 95.0562 92.8792 94.909 93.1737C94.7617 93.4682 94.5549 93.6973 94.2886 93.8611C94.0222 94.0249 93.7104 94.1068 93.353 94.1068ZM93.3555 93.4839C93.5871 93.4839 93.779 93.4227 93.9312 93.3003C94.0834 93.1778 94.1959 93.0149 94.2687 92.8114C94.3432 92.6079 94.3804 92.3837 94.3804 92.1389C94.3804 91.8957 94.3432 91.6723 94.2687 91.4688C94.1959 91.2637 94.0834 91.0991 93.9312 90.975C93.779 90.8509 93.5871 90.7889 93.3555 90.7889C93.1222 90.7889 92.9287 90.8509 92.7748 90.975C92.6226 91.0991 92.5093 91.2637 92.4348 91.4688C92.362 91.6723 92.3256 91.8957 92.3256 92.1389C92.3256 92.3837 92.362 92.6079 92.4348 92.8114C92.5093 93.0149 92.6226 93.1778 92.7748 93.3003C92.9287 93.4227 93.1222 93.4839 93.3555 93.4839Z" fill="black"/>
<path d="M89.2012 94.0297V90.218H89.9184V90.8235H89.9581C90.0275 90.6183 90.15 90.457 90.3253 90.3396C90.5024 90.2204 90.7025 90.1609 90.9259 90.1609C90.9722 90.1609 91.0268 90.1625 91.0897 90.1659C91.1542 90.1692 91.2047 90.1733 91.2411 90.1783V90.888C91.2113 90.8797 91.1583 90.8706 91.0822 90.8607C91.0061 90.8491 90.93 90.8433 90.8539 90.8433C90.6786 90.8433 90.5222 90.8806 90.3849 90.955C90.2492 91.0278 90.1417 91.1295 90.0623 91.2602C89.9829 91.3893 89.9432 91.5365 89.9432 91.702V94.0297H89.2012Z" fill="black"/>
<path d="M86.7428 94.1068C86.3672 94.1068 86.0438 94.0265 85.7725 93.8661C85.5028 93.7039 85.2943 93.4764 85.1471 93.1836C85.0015 92.8891 84.9287 92.5442 84.9287 92.1488C84.9287 91.7583 85.0015 91.4142 85.1471 91.1164C85.2943 90.8186 85.4995 90.5862 85.7625 90.4191C86.0272 90.252 86.3366 90.1685 86.6907 90.1685C86.9057 90.1685 87.1142 90.204 87.316 90.2752C87.5179 90.3463 87.699 90.458 87.8595 90.6102C88.02 90.7624 88.1465 90.9601 88.2392 91.2033C88.3318 91.4448 88.3782 91.7385 88.3782 92.0843V92.3473H85.3481V91.7914H87.651C87.651 91.5962 87.6113 91.4233 87.5319 91.2728C87.4525 91.1206 87.3408 91.0006 87.1969 90.9129C87.0546 90.8253 86.8875 90.7814 86.6956 90.7814C86.4872 90.7814 86.3052 90.8327 86.1497 90.9353C85.9958 91.0362 85.8767 91.1685 85.7923 91.3323C85.7096 91.4945 85.6682 91.6707 85.6682 91.8609V92.2952C85.6682 92.55 85.7129 92.7667 85.8022 92.9454C85.8932 93.1241 86.0198 93.2605 86.1819 93.3548C86.3441 93.4475 86.5335 93.4938 86.7502 93.4938C86.8908 93.4938 87.0191 93.474 87.1349 93.4343C87.2507 93.3929 87.3508 93.3317 87.4351 93.2506C87.5195 93.1696 87.584 93.0695 87.6287 92.9503L88.331 93.0769C88.2748 93.2837 88.1738 93.4649 88.0282 93.6204C87.8843 93.7742 87.7032 93.8942 87.4848 93.9802C87.268 94.0646 87.0207 94.1068 86.7428 94.1068Z" fill="black"/>
<path d="M83.3589 92.4492V90.2183H84.1034V94.03H83.3738V93.3699H83.3341C83.2464 93.5734 83.1058 93.743 82.9123 93.8786C82.7203 94.0126 82.4813 94.0797 82.1951 94.0797C81.9502 94.0797 81.7335 94.0259 81.5449 93.9183C81.3579 93.8092 81.2107 93.6479 81.1032 93.4344C80.9973 93.221 80.9443 92.9571 80.9443 92.6428V90.2183H81.6863V92.5535C81.6863 92.8132 81.7583 93.02 81.9022 93.1739C82.0462 93.3277 82.2331 93.4047 82.4631 93.4047C82.6021 93.4047 82.7402 93.3699 82.8775 93.3004C83.0165 93.2309 83.1315 93.1259 83.2225 92.9853C83.3151 92.8446 83.3606 92.666 83.3589 92.4492Z" fill="black"/>
<path d="M77.5012 92.382H78.2556L78.7867 93.0743L79.0373 93.3821L79.8835 94.4864H79.0993L78.5335 93.7493L78.34 93.4813L77.5012 92.382ZM80.0473 91.4886C80.0473 92.0312 79.9481 92.4978 79.7495 92.8882C79.551 93.277 79.2789 93.5765 78.9331 93.7866C78.589 93.995 78.1977 94.0992 77.7593 94.0992C77.3192 94.0992 76.9263 93.995 76.5805 93.7866C76.2364 93.5765 75.9651 93.2762 75.7665 92.8857C75.568 92.4953 75.4688 92.0296 75.4688 91.4886C75.4688 90.9459 75.568 90.4802 75.7665 90.0914C75.9651 89.701 76.2364 89.4016 76.5805 89.1931C76.9263 88.983 77.3192 88.8779 77.7593 88.8779C78.1977 88.8779 78.589 88.983 78.9331 89.1931C79.2789 89.4016 79.551 89.701 79.7495 90.0914C79.9481 90.4802 80.0473 90.9459 80.0473 91.4886ZM79.288 91.4886C79.288 91.075 79.2209 90.7267 79.0869 90.4438C78.9546 90.1593 78.7726 89.9442 78.541 89.7986C78.311 89.6514 78.0505 89.5777 77.7593 89.5777C77.4664 89.5777 77.2051 89.6514 76.9751 89.7986C76.7451 89.9442 76.5631 90.1593 76.4291 90.4438C76.2968 90.7267 76.2306 91.075 76.2306 91.4886C76.2306 91.9022 76.2968 92.2513 76.4291 92.5358C76.5631 92.8187 76.7451 93.0338 76.9751 93.181C77.2051 93.3266 77.4664 93.3994 77.7593 93.3994C78.0505 93.3994 78.311 93.3266 78.541 93.181C78.7726 93.0338 78.9546 92.8187 79.0869 92.5358C79.2209 92.2513 79.288 91.9022 79.288 91.4886Z" fill="black"/>
<path d="M72.2336 93.3996C72.098 93.3996 71.9813 93.3516 71.8837 93.2556C71.7861 93.158 71.7373 93.0406 71.7373 92.9033C71.7373 92.7676 71.7861 92.6518 71.8837 92.5558C71.9813 92.4582 72.098 92.4094 72.2336 92.4094C72.3693 92.4094 72.4859 92.4582 72.5835 92.5558C72.6811 92.6518 72.73 92.7676 72.73 92.9033C72.73 92.9942 72.7068 93.0778 72.6605 93.1539C72.6158 93.2283 72.5562 93.2879 72.4818 93.3326C72.4073 93.3772 72.3246 93.3996 72.2336 93.3996ZM72.2336 90.8534C72.098 90.8534 71.9813 90.8055 71.8837 90.7095C71.7861 90.6119 71.7373 90.4944 71.7373 90.3571C71.7373 90.2215 71.7861 90.1057 71.8837 90.0097C71.9813 89.9121 72.098 89.8633 72.2336 89.8633C72.3693 89.8633 72.4859 89.9121 72.5835 90.0097C72.6811 90.1057 72.73 90.2215 72.73 90.3571C72.73 90.4481 72.7068 90.5317 72.6605 90.6078C72.6158 90.6822 72.5562 90.7418 72.4818 90.7864C72.4073 90.8311 72.3246 90.8534 72.2336 90.8534Z" fill="black"/>
<path d="M67.2822 89.6079V88.9478H71.2156V89.6079H69.6298V94.0301H68.8655V89.6079H67.2822Z" fill="black"/>
<path d="M63.0625 94.0301V88.9478H64.8741C65.2695 88.9478 65.5971 89.0197 65.8568 89.1637C66.1165 89.3076 66.3109 89.5045 66.44 89.7543C66.569 90.0024 66.6335 90.282 66.6335 90.5931C66.6335 90.9057 66.5682 91.187 66.4375 91.4368C66.3084 91.685 66.1132 91.8818 65.8518 92.0274C65.5921 92.1714 65.2653 92.2433 64.8716 92.2433H63.6258V91.5932H64.8021C65.0519 91.5932 65.2546 91.5501 65.4101 91.4641C65.5656 91.3764 65.6798 91.2573 65.7526 91.1068C65.8254 90.9562 65.8618 90.785 65.8618 90.5931C65.8618 90.4012 65.8254 90.2307 65.7526 90.0819C65.6798 89.933 65.5648 89.8163 65.4076 89.7319C65.2521 89.6476 65.047 89.6054 64.7922 89.6054H63.8293V94.0301H63.0625Z" fill="black"/>
<path d="M127.742 107.281C127.631 107.281 127.53 107.272 127.439 107.254C127.348 107.237 127.28 107.219 127.236 107.199L127.414 106.591C127.55 106.628 127.671 106.643 127.777 106.638C127.883 106.634 127.976 106.594 128.057 106.519C128.14 106.445 128.213 106.323 128.276 106.155L128.367 105.901L126.973 102.04H127.767L128.732 104.998H128.772L129.737 102.04H130.534L128.963 106.361C128.89 106.559 128.797 106.727 128.685 106.864C128.572 107.003 128.438 107.107 128.283 107.177C128.127 107.246 127.947 107.281 127.742 107.281Z" fill="black"/>
<path d="M124.475 105.852V102.04H125.192V102.646H125.232C125.301 102.441 125.423 102.28 125.599 102.162C125.776 102.043 125.976 101.983 126.199 101.983C126.246 101.983 126.3 101.985 126.363 101.988C126.428 101.992 126.478 101.996 126.514 102.001V102.711C126.485 102.702 126.432 102.693 126.356 102.683C126.28 102.672 126.203 102.666 126.127 102.666C125.952 102.666 125.796 102.703 125.658 102.778C125.523 102.85 125.415 102.952 125.336 103.083C125.256 103.212 125.217 103.359 125.217 103.524V105.852H124.475Z" fill="black"/>
<path d="M123.653 102.04V102.636H121.571V102.04H123.653ZM122.13 101.127H122.872V104.733C122.872 104.877 122.893 104.985 122.936 105.058C122.979 105.129 123.035 105.178 123.102 105.204C123.172 105.229 123.247 105.242 123.328 105.242C123.388 105.242 123.44 105.238 123.485 105.229C123.529 105.221 123.564 105.214 123.589 105.209L123.723 105.822C123.68 105.839 123.619 105.855 123.539 105.872C123.46 105.89 123.361 105.9 123.241 105.902C123.046 105.905 122.864 105.87 122.695 105.798C122.527 105.725 122.39 105.612 122.286 105.46C122.182 105.308 122.13 105.117 122.13 104.887V101.127Z" fill="black"/>
<path d="M120.984 102.971L120.312 103.09C120.283 103.004 120.239 102.922 120.178 102.844C120.118 102.766 120.037 102.703 119.934 102.653C119.832 102.603 119.704 102.579 119.55 102.579C119.34 102.579 119.164 102.626 119.024 102.72C118.883 102.813 118.813 102.933 118.813 103.08C118.813 103.207 118.86 103.31 118.954 103.388C119.048 103.465 119.201 103.529 119.411 103.579L120.016 103.718C120.367 103.799 120.628 103.924 120.8 104.092C120.972 104.261 121.059 104.48 121.059 104.75C121.059 104.978 120.992 105.182 120.86 105.361C120.729 105.538 120.546 105.677 120.312 105.777C120.078 105.878 119.808 105.929 119.5 105.929C119.073 105.929 118.725 105.838 118.455 105.656C118.186 105.472 118.02 105.212 117.959 104.874L118.676 104.765C118.721 104.952 118.813 105.093 118.952 105.189C119.091 105.284 119.272 105.331 119.495 105.331C119.738 105.331 119.933 105.28 120.078 105.179C120.224 105.077 120.297 104.952 120.297 104.805C120.297 104.686 120.252 104.585 120.163 104.504C120.075 104.423 119.94 104.362 119.758 104.321L119.113 104.179C118.757 104.098 118.494 103.969 118.324 103.792C118.155 103.615 118.071 103.391 118.071 103.12C118.071 102.895 118.134 102.698 118.259 102.529C118.385 102.36 118.559 102.229 118.78 102.134C119.002 102.038 119.256 101.99 119.542 101.99C119.954 101.99 120.278 102.08 120.515 102.258C120.752 102.436 120.908 102.673 120.984 102.971Z" fill="black"/>
<path d="M115.259 105.936C115.017 105.936 114.799 105.892 114.604 105.802C114.408 105.711 114.254 105.58 114.139 105.408C114.027 105.236 113.971 105.025 113.971 104.775C113.971 104.56 114.012 104.383 114.095 104.244C114.178 104.105 114.289 103.995 114.43 103.914C114.57 103.833 114.728 103.771 114.901 103.73C115.075 103.689 115.252 103.657 115.432 103.636C115.661 103.609 115.846 103.588 115.988 103.571C116.131 103.553 116.234 103.524 116.298 103.484C116.363 103.445 116.395 103.38 116.395 103.291V103.273C116.395 103.057 116.334 102.889 116.212 102.77C116.091 102.651 115.91 102.591 115.671 102.591C115.421 102.591 115.224 102.646 115.08 102.757C114.938 102.866 114.839 102.988 114.785 103.122L114.087 102.963C114.17 102.732 114.291 102.545 114.45 102.402C114.61 102.258 114.795 102.154 115.003 102.09C115.212 102.024 115.431 101.99 115.661 101.99C115.813 101.99 115.974 102.009 116.145 102.045C116.317 102.08 116.477 102.144 116.626 102.239C116.777 102.333 116.9 102.468 116.996 102.643C117.092 102.817 117.14 103.043 117.14 103.321V105.852H116.415V105.331H116.385C116.337 105.427 116.265 105.521 116.169 105.614C116.073 105.706 115.95 105.783 115.8 105.844C115.649 105.906 115.469 105.936 115.259 105.936ZM115.42 105.341C115.625 105.341 115.8 105.3 115.946 105.219C116.093 105.138 116.205 105.032 116.281 104.901C116.359 104.769 116.398 104.628 116.398 104.477V103.986C116.371 104.012 116.32 104.037 116.244 104.06C116.169 104.082 116.084 104.101 115.988 104.117C115.892 104.132 115.799 104.146 115.708 104.159C115.617 104.171 115.541 104.181 115.48 104.189C115.336 104.207 115.204 104.238 115.085 104.281C114.967 104.324 114.873 104.386 114.802 104.467C114.733 104.547 114.698 104.652 114.698 104.785C114.698 104.968 114.766 105.107 114.901 105.202C115.037 105.294 115.21 105.341 115.42 105.341Z" fill="black"/>
<path d="M109.836 107.281V102.04H110.561V102.658H110.623C110.666 102.579 110.728 102.487 110.809 102.383C110.89 102.278 111.002 102.187 111.146 102.11C111.29 102.03 111.48 101.99 111.717 101.99C112.025 101.99 112.299 102.068 112.541 102.224C112.782 102.379 112.972 102.603 113.109 102.896C113.248 103.189 113.318 103.541 113.318 103.953C113.318 104.365 113.249 104.719 113.112 105.013C112.974 105.306 112.786 105.532 112.546 105.691C112.306 105.848 112.032 105.926 111.724 105.926C111.493 105.926 111.303 105.887 111.156 105.81C111.011 105.732 110.896 105.641 110.814 105.537C110.731 105.432 110.667 105.34 110.623 105.259H110.578V107.281H109.836ZM110.563 103.946C110.563 104.214 110.602 104.449 110.68 104.651C110.757 104.853 110.87 105.011 111.017 105.125C111.164 105.237 111.345 105.294 111.558 105.294C111.78 105.294 111.965 105.235 112.114 105.117C112.263 104.998 112.375 104.837 112.452 104.633C112.529 104.43 112.568 104.201 112.568 103.946C112.568 103.695 112.53 103.469 112.454 103.269C112.38 103.068 112.267 102.91 112.117 102.795C111.968 102.679 111.782 102.621 111.558 102.621C111.343 102.621 111.161 102.676 111.012 102.787C110.865 102.898 110.753 103.053 110.677 103.251C110.601 103.45 110.563 103.681 110.563 103.946Z" fill="black"/>
<path d="M105.117 105.936C104.876 105.936 104.657 105.892 104.462 105.802C104.267 105.711 104.112 105.58 103.998 105.408C103.885 105.236 103.829 105.025 103.829 104.775C103.829 104.56 103.87 104.383 103.953 104.244C104.036 104.105 104.148 103.995 104.288 103.914C104.429 103.833 104.586 103.771 104.76 103.73C104.933 103.689 105.11 103.657 105.291 103.636C105.519 103.609 105.704 103.588 105.847 103.571C105.989 103.553 106.092 103.524 106.157 103.484C106.221 103.445 106.254 103.38 106.254 103.291V103.273C106.254 103.057 106.192 102.889 106.07 102.77C105.949 102.651 105.769 102.591 105.529 102.591C105.279 102.591 105.082 102.646 104.938 102.757C104.796 102.866 104.698 102.988 104.643 103.122L103.946 102.963C104.028 102.732 104.149 102.545 104.308 102.402C104.469 102.258 104.653 102.154 104.861 102.09C105.07 102.024 105.289 101.99 105.519 101.99C105.671 101.99 105.833 102.009 106.003 102.045C106.175 102.08 106.336 102.144 106.484 102.239C106.635 102.333 106.758 102.468 106.854 102.643C106.95 102.817 106.998 103.043 106.998 103.321V105.852H106.273V105.331H106.244C106.196 105.427 106.124 105.521 106.028 105.614C105.932 105.706 105.809 105.783 105.658 105.844C105.507 105.906 105.327 105.936 105.117 105.936ZM105.278 105.341C105.484 105.341 105.659 105.3 105.804 105.219C105.952 105.138 106.063 105.032 106.139 104.901C106.217 104.769 106.256 104.628 106.256 104.477V103.986C106.23 104.012 106.178 104.037 106.102 104.06C106.028 104.082 105.943 104.101 105.847 104.117C105.751 104.132 105.657 104.146 105.566 104.159C105.475 104.171 105.399 104.181 105.338 104.189C105.194 104.207 105.062 104.238 104.943 104.281C104.826 104.324 104.732 104.386 104.66 104.467C104.591 104.547 104.556 104.652 104.556 104.785C104.556 104.968 104.624 105.107 104.76 105.202C104.895 105.294 105.068 105.341 105.278 105.341Z" fill="black"/>
<path d="M101.338 102.04V102.636H99.2559V102.04H101.338ZM99.8142 101.127H100.556V104.733C100.556 104.877 100.578 104.985 100.621 105.058C100.664 105.129 100.719 105.178 100.787 105.204C100.856 105.229 100.932 105.242 101.013 105.242C101.072 105.242 101.125 105.238 101.169 105.229C101.214 105.221 101.249 105.214 101.273 105.209L101.407 105.822C101.364 105.839 101.303 105.855 101.224 105.872C101.144 105.89 101.045 105.9 100.926 105.902C100.731 105.905 100.549 105.87 100.38 105.798C100.211 105.725 100.075 105.612 99.9706 105.46C99.8663 105.308 99.8142 105.117 99.8142 104.887V101.127Z" fill="black"/>
<path d="M96.1238 103.589V105.852H95.3818V102.04H96.0941V102.661H96.1412C96.2289 102.459 96.3662 102.297 96.5532 102.174C96.7418 102.052 96.9792 101.99 97.2654 101.99C97.5251 101.99 97.7526 102.045 97.9478 102.154C98.143 102.262 98.2944 102.422 98.402 102.636C98.5095 102.849 98.5633 103.113 98.5633 103.427V105.852H97.8213V103.517C97.8213 103.24 97.7493 103.024 97.6054 102.869C97.4614 102.712 97.2637 102.633 97.0123 102.633C96.8402 102.633 96.6872 102.67 96.5532 102.745C96.4208 102.819 96.3157 102.929 96.238 103.072C96.1619 103.215 96.1238 103.387 96.1238 103.589Z" fill="black"/>
<path d="M92.5126 105.936C92.271 105.936 92.0526 105.892 91.8574 105.802C91.6622 105.711 91.5075 105.58 91.3934 105.408C91.2809 105.236 91.2246 105.025 91.2246 104.775C91.2246 104.56 91.266 104.383 91.3487 104.244C91.4314 104.105 91.5431 103.995 91.6837 103.914C91.8243 103.833 91.9815 103.771 92.1552 103.73C92.3289 103.689 92.5059 103.657 92.6863 103.636C92.9146 103.609 93.0999 103.588 93.2422 103.571C93.3844 103.553 93.4878 103.524 93.5524 103.484C93.6169 103.445 93.6491 103.38 93.6491 103.291V103.273C93.6491 103.057 93.5879 102.889 93.4655 102.77C93.3447 102.651 93.1644 102.591 92.9245 102.591C92.6747 102.591 92.4778 102.646 92.3339 102.757C92.1916 102.866 92.0932 102.988 92.0386 103.122L91.3412 102.963C91.424 102.732 91.5447 102.545 91.7036 102.402C91.864 102.258 92.0485 102.154 92.257 102.09C92.4654 102.024 92.6846 101.99 92.9146 101.99C93.0668 101.99 93.2281 102.009 93.3985 102.045C93.5706 102.08 93.731 102.144 93.8799 102.239C94.0305 102.333 94.1537 102.468 94.2497 102.643C94.3456 102.817 94.3936 103.043 94.3936 103.321V105.852H93.669V105.331H93.6392C93.5912 105.427 93.5193 105.521 93.4233 105.614C93.3274 105.706 93.2041 105.783 93.0536 105.844C92.903 105.906 92.7227 105.936 92.5126 105.936ZM92.6739 105.341C92.879 105.341 93.0544 105.3 93.2 105.219C93.3472 105.138 93.4589 105.032 93.535 104.901C93.6127 104.769 93.6516 104.628 93.6516 104.477V103.986C93.6252 104.012 93.5739 104.037 93.4978 104.06C93.4233 104.082 93.3381 104.101 93.2422 104.117C93.1462 104.132 93.0527 104.146 92.9617 104.159C92.8707 104.171 92.7946 104.181 92.7334 104.189C92.5895 104.207 92.458 104.238 92.3389 104.281C92.2214 104.324 92.1271 104.386 92.0559 104.467C91.9865 104.547 91.9517 104.652 91.9517 104.785C91.9517 104.968 92.0196 105.107 92.1552 105.202C92.2909 105.294 92.4638 105.341 92.6739 105.341Z" fill="black"/>
<path d="M86.4635 105.852L85.3418 102.04H86.1086L86.8556 104.839H86.8928L87.6423 102.04H88.4091L89.1536 104.827H89.1908L89.9328 102.04H90.6996L89.5804 105.852H88.8235L88.0492 103.1H87.9922L87.2179 105.852H86.4635Z" fill="black"/>
<path d="M82.7297 100.77V105.852H81.9629V100.77H82.7297Z" fill="black"/>
<path d="M78.5637 105.222C78.428 105.222 78.3114 105.174 78.2138 105.078C78.1162 104.98 78.0674 104.863 78.0674 104.725C78.0674 104.59 78.1162 104.474 78.2138 104.378C78.3114 104.28 78.428 104.231 78.5637 104.231C78.6994 104.231 78.816 104.28 78.9136 104.378C79.0112 104.474 79.06 104.59 79.06 104.725C79.06 104.816 79.0369 104.9 78.9905 104.976C78.9459 105.05 78.8863 105.11 78.8119 105.155C78.7374 105.199 78.6547 105.222 78.5637 105.222ZM78.5637 102.675C78.428 102.675 78.3114 102.627 78.2138 102.532C78.1162 102.434 78.0674 102.316 78.0674 102.179C78.0674 102.043 78.1162 101.928 78.2138 101.832C78.3114 101.734 78.428 101.685 78.5637 101.685C78.6994 101.685 78.816 101.734 78.9136 101.832C79.0112 101.928 79.06 102.043 79.06 102.179C79.06 102.27 79.0369 102.354 78.9905 102.43C78.9459 102.504 78.8863 102.564 78.8119 102.608C78.7374 102.653 78.6547 102.675 78.5637 102.675Z" fill="black"/>
<path d="M77.0162 100.77V105.852H76.3114L73.728 102.124H73.6809V105.852H72.9141V100.77H73.6238L76.2096 104.502H76.2568V100.77H77.0162Z" fill="black"/>
<path d="M68.7031 105.852V100.77H71.8895V101.43H69.4699V102.978H71.7232V103.636H69.4699V105.192H71.9193V105.852H68.7031Z" fill="black"/>
<path d="M13.8325 153.04C13.8325 148.216 17.7434 144.305 22.5678 144.305H176.663C181.487 144.305 185.398 148.216 185.398 153.04V174.59C185.398 179.414 181.487 183.325 176.663 183.325H22.5678C17.7434 183.325 13.8325 179.414 13.8325 174.59V153.04Z" fill="white"/>
<path d="M110.715 169.807C110.505 169.807 110.309 169.79 110.125 169.756C109.944 169.725 109.794 169.685 109.675 169.636L110.048 168.403C110.241 168.462 110.416 168.495 110.571 168.5C110.729 168.505 110.864 168.469 110.978 168.391C111.095 168.314 111.189 168.182 111.261 167.996L111.358 167.744L109.222 161.617H110.959L112.192 165.991H112.254L113.499 161.617H115.247L112.932 168.217C112.821 168.537 112.67 168.816 112.479 169.054C112.29 169.295 112.051 169.48 111.761 169.609C111.472 169.741 111.123 169.807 110.715 169.807Z" fill="black"/>
<path d="M105.045 167.573V161.617H106.646V162.656H106.708C106.817 162.287 106.999 162.008 107.255 161.819C107.511 161.628 107.806 161.532 108.139 161.532C108.222 161.532 108.311 161.537 108.407 161.547C108.502 161.558 108.586 161.572 108.659 161.59V163.056C108.581 163.033 108.474 163.012 108.337 162.994C108.2 162.976 108.075 162.967 107.961 162.967C107.718 162.967 107.501 163.02 107.309 163.126C107.121 163.229 106.971 163.374 106.86 163.56C106.751 163.746 106.697 163.961 106.697 164.204V167.573H105.045Z" fill="black"/>
<path d="M103.97 161.617V162.858H100.383V161.617H103.97ZM101.197 160.19H102.849V165.743C102.849 165.895 102.872 166.014 102.919 166.1C102.965 166.182 103.03 166.24 103.113 166.274C103.198 166.308 103.296 166.324 103.407 166.324C103.485 166.324 103.562 166.318 103.64 166.305C103.717 166.29 103.777 166.278 103.818 166.27L104.078 167.499C103.995 167.525 103.879 167.555 103.729 167.588C103.579 167.625 103.397 167.647 103.182 167.654C102.784 167.67 102.435 167.617 102.135 167.495C101.838 167.374 101.607 167.185 101.441 166.929C101.276 166.673 101.195 166.35 101.197 165.96V160.19Z" fill="black"/>
<path d="M99.6254 163.315L98.1132 163.409C98.0873 163.279 98.0317 163.163 97.9464 163.06C97.8611 162.954 97.7487 162.87 97.6091 162.807C97.4721 162.743 97.3079 162.711 97.1166 162.711C96.8607 162.711 96.6449 162.765 96.4691 162.873C96.2933 162.979 96.2054 163.122 96.2054 163.3C96.2054 163.442 96.2623 163.562 96.376 163.661C96.4898 163.759 96.6849 163.838 96.9615 163.897L98.0395 164.114C98.6185 164.233 99.0502 164.424 99.3346 164.688C99.6189 164.952 99.7611 165.298 99.7611 165.727C99.7611 166.118 99.6461 166.46 99.416 166.755C99.1885 167.05 98.8757 167.28 98.4776 167.445C98.0821 167.608 97.6259 167.689 97.1089 167.689C96.3205 167.689 95.6923 167.525 95.2244 167.197C94.7591 166.866 94.4864 166.416 94.4062 165.847L96.0309 165.762C96.08 166.003 96.199 166.186 96.3877 166.313C96.5764 166.437 96.8181 166.499 97.1128 166.499C97.4023 166.499 97.6349 166.443 97.8107 166.332C97.9891 166.218 98.0796 166.072 98.0821 165.894C98.0796 165.744 98.0162 165.621 97.8921 165.526C97.7681 165.427 97.5768 165.352 97.3183 165.301L96.2868 165.095C95.7052 164.979 95.2722 164.777 94.9879 164.49C94.7061 164.203 94.5652 163.838 94.5652 163.393C94.5652 163.01 94.6686 162.681 94.8754 162.404C95.0848 162.128 95.3782 161.914 95.7556 161.764C96.1356 161.615 96.5802 161.54 97.0895 161.54C97.8417 161.54 98.4337 161.699 98.8654 162.016C99.2997 162.334 99.553 162.767 99.6254 163.315Z" fill="black"/>
<path d="M90.0342 167.685C89.6542 167.685 89.3155 167.62 89.0183 167.488C88.721 167.353 88.4858 167.155 88.3126 166.894C88.1419 166.631 88.0566 166.302 88.0566 165.91C88.0566 165.579 88.1174 165.301 88.2389 165.076C88.3604 164.851 88.5258 164.67 88.7352 164.533C88.9446 164.396 89.1824 164.293 89.4487 164.223C89.7175 164.153 89.9993 164.104 90.294 164.075C90.6404 164.039 90.9195 164.006 91.1315 163.975C91.3435 163.941 91.4973 163.892 91.5929 163.827C91.6886 163.763 91.7364 163.667 91.7364 163.54V163.517C91.7364 163.272 91.6589 163.082 91.5038 162.947C91.3512 162.813 91.1341 162.745 90.8523 162.745C90.5551 162.745 90.3185 162.811 90.1427 162.943C89.967 163.072 89.8506 163.235 89.7938 163.432L88.266 163.308C88.3436 162.946 88.4961 162.633 88.7236 162.369C88.9511 162.103 89.2445 161.899 89.6038 161.757C89.9657 161.612 90.3844 161.54 90.8601 161.54C91.191 161.54 91.5076 161.578 91.8101 161.656C92.1151 161.733 92.3852 161.854 92.6205 162.016C92.8583 162.179 93.0457 162.389 93.1827 162.645C93.3197 162.898 93.3882 163.202 93.3882 163.556V167.573H91.8217V166.747H91.7752C91.6795 166.933 91.5516 167.097 91.3913 167.24C91.231 167.379 91.0385 167.489 90.8136 167.569C90.5887 167.647 90.3289 167.685 90.0342 167.685ZM90.5072 166.545C90.7502 166.545 90.9648 166.498 91.1509 166.402C91.337 166.304 91.4831 166.172 91.5891 166.006C91.695 165.841 91.748 165.654 91.748 165.444V164.812C91.6963 164.846 91.6253 164.877 91.5348 164.905C91.4469 164.931 91.3474 164.956 91.2362 164.979C91.1251 165 91.0139 165.019 90.9027 165.037C90.7916 165.053 90.6908 165.067 90.6003 165.08C90.4064 165.108 90.2371 165.153 90.0923 165.215C89.9476 165.277 89.8351 165.361 89.755 165.467C89.6749 165.571 89.6348 165.7 89.6348 165.855C89.6348 166.08 89.7162 166.252 89.8791 166.371C90.0445 166.487 90.2539 166.545 90.5072 166.545Z" fill="black"/>
<path d="M81.457 167.573V159.632H84.5901C85.1924 159.632 85.7055 159.747 86.1294 159.977C86.5534 160.205 86.8765 160.521 87.0988 160.927C87.3237 161.33 87.4362 161.796 87.4362 162.323C87.4362 162.85 87.3224 163.316 87.0949 163.719C86.8675 164.122 86.5379 164.436 86.1062 164.661C85.6771 164.886 85.1575 164.999 84.5474 164.999H82.5505V163.653H84.276C84.5991 163.653 84.8654 163.597 85.0748 163.486C85.2867 163.373 85.4444 163.216 85.5478 163.017C85.6538 162.816 85.7068 162.584 85.7068 162.323C85.7068 162.059 85.6538 161.829 85.5478 161.633C85.4444 161.434 85.2867 161.28 85.0748 161.171C84.8628 161.06 84.5939 161.005 84.2682 161.005H83.136V167.573H81.457Z" fill="black"/>
<path d="M117.76 221.023C117.76 231.728 109.082 240.406 98.3765 240.406C87.6714 240.406 78.9932 231.728 78.9932 221.023C78.9932 210.318 87.6714 201.64 98.3765 201.64C109.082 201.64 117.76 210.318 117.76 221.023Z" fill="#E1D0FF"/>
<path d="M105.475 221.023L94.8274 227.17L94.8274 214.876L105.475 221.023Z" fill="#171717"/>
</svg>
