<svg width="83" height="37" viewBox="0 0 83 37" fill="none" xmlns="http://www.w3.org/2000/svg">
<path d="M34.1074 0C40.9963 0 46.5811 5.58475 46.5811 12.4736V13.0449C46.5809 19.9336 40.9962 25.5176 34.1074 25.5176H12.4727C10.8228 25.5175 9.24906 25.1942 7.80762 24.6123C6.24975 24.9183 4.48491 25.192 2.50195 25.3965C1.08709 25.4975 1.10821 24.9374 1.78906 23.6211C2.10001 23.0199 2.45361 21.9712 2.69238 20.7812C1.008 18.6548 7.9306e-05 15.9683 0 13.0449V12.4736C0 5.58484 5.5839 0.000152656 12.4727 0H34.1074Z" fill="#45C240"/>
<path d="M34.046 16.748C32.7079 16.748 31.7219 16.4429 31.088 15.8325C30.4619 15.2142 30.1489 14.4043 30.1489 13.4026C30.1489 12.4244 30.4619 11.6302 31.088 11.0198C31.7219 10.4094 32.7079 10.1042 34.046 10.1042C34.946 10.1042 35.6972 10.2529 36.2998 10.5502C36.9102 10.8398 37.3601 11.235 37.6497 11.7358C37.9392 12.2288 38.084 12.7844 38.084 13.4026C38.084 14.4121 37.7475 15.2221 37.0745 15.8325C36.4093 16.4429 35.3999 16.748 34.046 16.748ZM34.093 14.7525C34.6016 14.7525 34.9812 14.6312 35.2316 14.3887C35.482 14.1461 35.6072 13.8213 35.6072 13.4144C35.6072 13.0309 35.482 12.7179 35.2316 12.4753C34.9812 12.2249 34.6016 12.0997 34.093 12.0997C33.5843 12.0997 33.2126 12.221 32.9779 12.4636C32.7431 12.7062 32.6257 13.0231 32.6257 13.4144C32.6257 13.8213 32.7431 14.1461 32.9779 14.3887C33.2126 14.6312 33.5843 14.7525 34.093 14.7525Z" fill="white"/>
<path d="M29.3112 11.9353C29.3034 12.4049 29.2995 13.1248 29.2995 14.0952C29.2995 15.2612 29.3073 16.1063 29.323 16.6307H26.5527L26.5645 15.3042C26.5801 13.8487 26.5879 12.7257 26.5879 11.9353C26.5879 11.1841 26.5801 10.1198 26.5645 8.74253L26.5527 7.4748H29.323C29.3073 8.58602 29.2995 9.49378 29.2995 10.1981C29.2995 10.9806 29.3034 11.5597 29.3112 11.9353Z" fill="white"/>
<path d="M25.376 14.6821C25.376 14.9482 25.4073 15.136 25.4699 15.2455C25.5325 15.3551 25.6577 15.4334 25.8455 15.4803L25.7986 16.5837C25.5482 16.6228 25.329 16.6502 25.1412 16.6659C24.9612 16.6815 24.7187 16.6894 24.4135 16.6894C23.7405 16.6894 23.2944 16.5407 23.0753 16.2433C22.8562 15.9381 22.7466 15.5507 22.7466 15.0812V14.7878C22.5197 15.4294 22.1871 15.9068 21.7489 16.2198C21.3185 16.5328 20.7668 16.6894 20.0938 16.6894C19.3112 16.6894 18.7204 16.5328 18.3213 16.2198C17.93 15.9068 17.7344 15.4412 17.7344 14.823C17.7344 14.3143 17.9026 13.9152 18.2391 13.6257C18.5756 13.3361 19.096 13.1366 19.8003 13.027C19.2056 12.6044 18.6108 12.2366 18.0161 11.9236C18.4856 11.3289 19.0217 10.8789 19.6242 10.5737C20.2268 10.2607 20.9585 10.1042 21.8193 10.1042C23.0244 10.1042 23.9165 10.3663 24.4956 10.8906C25.0825 11.4071 25.376 12.2053 25.376 13.2853V14.6821ZM22.0658 12.1701C21.6667 12.1701 21.3146 12.2366 21.0094 12.3697C20.7042 12.5027 20.4303 12.7023 20.1877 12.9683C20.6572 12.9135 21.2441 12.8862 21.9484 12.8862C22.238 12.8862 22.4414 12.8509 22.5588 12.7805C22.6762 12.7101 22.7349 12.6201 22.7349 12.5105C22.7349 12.4166 22.6762 12.3384 22.5588 12.2758C22.4414 12.2053 22.2771 12.1701 22.0658 12.1701ZM20.8333 14.776C21.2715 14.776 21.6667 14.6938 22.0188 14.5295C22.371 14.3574 22.6136 14.1343 22.7466 13.8604V13.5552C22.5588 13.6491 22.3514 13.7235 22.1245 13.7783C21.8976 13.8252 21.6237 13.8722 21.3028 13.9191L20.8802 13.9896C20.442 14.0756 20.2229 14.2243 20.2229 14.4356C20.2229 14.6625 20.4264 14.776 20.8333 14.776Z" fill="white"/>
<path d="M16.9083 10.3037H10.5227V11.5363C10.9218 11.5441 11.5204 11.548 12.3186 11.548C13.6959 11.548 15.0967 11.5245 16.5209 11.4776V13.7783C15.0967 13.7235 13.5942 13.6961 12.0134 13.6961C11.3561 13.6961 10.8592 13.7 10.5227 13.7078V16.6307H7.75244C7.81505 15.1125 7.84635 13.6922 7.84635 12.3697C7.84635 11.0472 7.81505 9.62682 7.75244 8.10867H16.9083V10.3037Z" fill="white"/>
<path d="M69.584 11.4261C76.6305 11.4262 82.3428 17.1383 82.3428 24.1849C82.3428 27.244 81.2647 30.0504 79.4697 32.2484C79.7084 33.4302 80.0589 34.4707 80.3682 35.0687C81.049 36.3851 81.0708 36.945 79.6562 36.8441C77.6479 36.637 75.8634 36.3571 74.291 36.0462C72.8345 36.6247 71.2466 36.9437 69.584 36.9437H44.8438C37.7972 36.9437 32.084 31.2315 32.084 24.1849C32.084 17.1383 37.7971 11.4261 44.8438 11.4261H69.584Z" fill="#FF5E5E"/>
<path d="M46.5366 11.426C46.5654 11.7714 46.5815 12.121 46.5815 12.4738V13.0451C46.5813 19.9336 40.9964 25.5175 34.1079 25.5178H32.1538C32.1083 25.0797 32.0845 24.6349 32.0845 24.1848C32.0845 17.1382 37.7977 11.426 44.8442 11.426H46.5366Z" fill="#EA3535"/>
<path d="M71.8956 28.1126C70.5575 28.1126 69.5715 27.8074 68.9376 27.1971C68.3116 26.5788 67.9985 25.7689 67.9985 24.7672C67.9985 23.789 68.3116 22.9948 68.9376 22.3844C69.5715 21.774 70.5575 21.4688 71.8956 21.4688C72.7956 21.4688 73.5468 21.6175 74.1494 21.9148C74.7598 22.2044 75.2098 22.5996 75.4993 23.1004C75.7888 23.5934 75.9336 24.149 75.9336 24.7672C75.9336 25.7767 75.5971 26.5867 74.9241 27.1971C74.259 27.8074 73.2495 28.1126 71.8956 28.1126ZM71.9426 26.1171C72.4513 26.1171 72.8308 25.9958 73.0812 25.7532C73.3316 25.5107 73.4568 25.1859 73.4568 24.779C73.4568 24.3955 73.3316 24.0825 73.0812 23.8399C72.8308 23.5895 72.4513 23.4643 71.9426 23.4643C71.4339 23.4643 71.0622 23.5856 70.8275 23.8282C70.5927 24.0708 70.4753 24.3877 70.4753 24.779C70.4753 25.1859 70.5927 25.5107 70.8275 25.7532C71.0622 25.9958 71.4339 26.1171 71.9426 26.1171Z" fill="white"/>
<path d="M64.4196 23.3234C64.7482 22.1418 65.566 21.5509 66.8729 21.5509C67.0998 21.5509 67.3189 21.5666 67.5302 21.5979L67.1546 24.2273C66.5912 24.016 66.1294 23.9103 65.7695 23.9103C65.3234 23.9103 64.9947 24.0434 64.7835 24.3094C64.5722 24.5755 64.4665 24.9316 64.4665 25.3776V25.3659L64.4548 26.1406C64.4548 26.6962 64.4704 27.3144 64.5017 27.9953H61.6963C61.7589 26.8684 61.7902 25.8041 61.7902 24.8024C61.7902 23.8008 61.7589 22.7287 61.6963 21.5862C62.2128 21.6096 62.608 21.6214 62.8819 21.6214C63.1714 21.6214 63.5666 21.6096 64.0674 21.5862L64.4196 23.3234Z" fill="white"/>
<path d="M60.52 26.0467C60.52 26.3128 60.5513 26.5006 60.6139 26.6101C60.6765 26.7197 60.8018 26.798 60.9896 26.8449L60.9426 27.9483C60.6922 27.9874 60.4731 28.0148 60.2853 28.0305C60.1053 28.0461 59.8627 28.0539 59.5575 28.0539C58.8845 28.0539 58.4384 27.9053 58.2193 27.6079C58.0002 27.3027 57.8907 26.9153 57.8907 26.4458V26.1523C57.6637 26.794 57.3311 27.2714 56.8929 27.5844C56.4625 27.8974 55.9108 28.0539 55.2378 28.0539C54.4553 28.0539 53.8644 27.8974 53.4653 27.5844C53.0741 27.2714 52.8784 26.8058 52.8784 26.1876C52.8784 25.6789 53.0467 25.2798 53.3832 24.9903C53.7197 24.7007 54.2401 24.5012 54.9444 24.3916C54.3496 23.969 53.7549 23.6012 53.1601 23.2882C53.6297 22.6935 54.1657 22.2435 54.7683 21.9383C55.3708 21.6253 56.1025 21.4688 56.9633 21.4688C58.1685 21.4688 59.0606 21.7309 59.6397 22.2552C60.2266 22.7717 60.52 23.5699 60.52 24.6498V26.0467ZM57.2098 23.5347C56.8107 23.5347 56.4586 23.6012 56.1534 23.7343C55.8482 23.8673 55.5743 24.0668 55.3317 24.3329C55.8013 24.2781 56.3882 24.2507 57.0925 24.2507C57.382 24.2507 57.5855 24.2155 57.7029 24.1451C57.8202 24.0747 57.8789 23.9847 57.8789 23.8751C57.8789 23.7812 57.8202 23.703 57.7029 23.6404C57.5855 23.5699 57.4211 23.5347 57.2098 23.5347ZM55.9773 26.1406C56.4156 26.1406 56.8107 26.0584 57.1629 25.8941C57.515 25.7219 57.7576 25.4989 57.8907 25.225V24.9198C57.7029 25.0137 57.4955 25.0881 57.2685 25.1429C57.0416 25.1898 56.7677 25.2368 56.4469 25.2837L56.0243 25.3541C55.586 25.4402 55.3669 25.5889 55.3669 25.8002C55.3669 26.0271 55.5704 26.1406 55.9773 26.1406Z" fill="white"/>
<path d="M52.0402 23.2999C52.0324 23.7695 52.0285 24.4894 52.0285 25.4598C52.0285 26.6258 52.0363 27.4709 52.052 27.9953H49.2817L49.2935 26.6688C49.3091 25.2133 49.317 24.0903 49.317 23.2999C49.317 22.5487 49.3091 21.4844 49.2935 20.1071L49.2817 18.8394H52.052C52.0363 19.9506 52.0285 20.8584 52.0285 21.5627C52.0285 22.3452 52.0324 22.9243 52.0402 23.2999Z" fill="white"/>
<path d="M43.3733 28.1126C41.6048 28.1126 40.3018 27.737 39.4645 26.9858C38.6272 26.2345 38.2085 25.1624 38.2085 23.7695C38.2085 22.3687 38.6272 21.2614 39.4645 20.4475C40.3018 19.6337 41.6048 19.2268 43.3733 19.2268C45.8462 19.2268 47.5013 20.0758 48.3386 21.774C47.6343 22.0166 46.8087 22.3804 45.8619 22.8656C45.6349 22.4274 45.2749 22.1026 44.7819 21.8914C44.2968 21.6801 43.7998 21.5744 43.2912 21.5744C42.5399 21.5744 41.9804 21.774 41.6126 22.1731C41.2448 22.5643 41.0609 23.0495 41.0609 23.6286C41.0609 24.2547 41.2565 24.7672 41.6478 25.1663C42.0469 25.5576 42.6534 25.7532 43.4672 25.7532C44.1168 25.7532 44.6332 25.6476 45.0167 25.4363C45.4002 25.2172 45.6819 24.8729 45.8619 24.4033C46.5035 24.7477 47.3252 25.135 48.3269 25.5654C47.9356 26.5123 47.2822 27.1736 46.3666 27.5492C45.451 27.9248 44.4533 28.1126 43.3733 28.1126Z" fill="white"/>
</svg>
