<svg width="172" height="70" viewBox="0 0 172 70" fill="none" xmlns="http://www.w3.org/2000/svg">
<g opacity="0.8" filter="url(#filter0_d_1213_229)">
<rect x="10" y="6" width="151.246" height="50" rx="25" fill="white"/>
</g>
<circle cx="22" cy="22" r="21" transform="matrix(-1 0 0 1 57.8018 9.17163)" fill="#4D8FFF" stroke="#4D8FFF" stroke-width="2"/>
<path d="M35.8017 23.4509C40.0657 23.4509 43.5224 26.9076 43.5224 31.1717C43.5224 35.4357 40.0657 38.8924 35.8017 38.8924C31.5376 38.8924 28.0809 35.4357 28.0809 31.1717C28.0809 29.3413 28.7179 27.6596 29.7822 26.3363" stroke="white" stroke-width="2" stroke-linecap="round"/>
<path d="M24.1149 27.8496L29.3054 26.3255" stroke="white" stroke-width="2" stroke-linecap="round"/>
<path d="M29.9438 26.3254L32.8438 30.8921" stroke="white" stroke-width="2" stroke-linecap="round"/>
<path d="M77.6579 24.9898V35.1716H75.5301V26.7398H71.4136V35.1716H69.2858V24.9898H77.6579ZM83.118 35.3208C82.3457 35.3208 81.6779 35.1567 81.1144 34.8286C80.5543 34.4972 80.1218 34.0365 79.8168 33.4465C79.5119 32.8532 79.3594 32.1655 79.3594 31.3833C79.3594 30.5945 79.5119 29.9051 79.8168 29.3151C80.1218 28.7218 80.5543 28.2611 81.1144 27.933C81.6779 27.6016 82.3457 27.4358 83.118 27.4358C83.8902 27.4358 84.5564 27.6016 85.1165 27.933C85.68 28.2611 86.1142 28.7218 86.4191 29.3151C86.724 29.9051 86.8765 30.5945 86.8765 31.3833C86.8765 32.1655 86.724 32.8532 86.4191 33.4465C86.1142 34.0365 85.68 34.4972 85.1165 34.8286C84.5564 35.1567 83.8902 35.3208 83.118 35.3208ZM83.1279 33.6802C83.4792 33.6802 83.7726 33.5807 84.0079 33.3819C84.2432 33.1797 84.4205 32.9046 84.5398 32.5566C84.6625 32.2086 84.7238 31.8125 84.7238 31.3684C84.7238 30.9242 84.6625 30.5282 84.5398 30.1802C84.4205 29.8321 84.2432 29.557 84.0079 29.3549C83.7726 29.1527 83.4792 29.0516 83.1279 29.0516C82.7733 29.0516 82.475 29.1527 82.233 29.3549C81.9944 29.557 81.8138 29.8321 81.6911 30.1802C81.5718 30.5282 81.5121 30.9242 81.5121 31.3684C81.5121 31.8125 81.5718 32.2086 81.6911 32.5566C81.8138 32.9046 81.9944 33.1797 82.233 33.3819C82.475 33.5807 82.7733 33.6802 83.1279 33.6802ZM88.2536 35.1716V27.5353H91.51C92.4513 27.5353 93.1954 27.7142 93.7423 28.0722C94.2891 28.4302 94.5626 28.9389 94.5626 29.5985C94.5626 30.0128 94.4084 30.3575 94.1002 30.6326C93.792 30.9077 93.3644 31.0933 92.8175 31.1894C93.2749 31.2225 93.6644 31.3269 93.9859 31.5026C94.3107 31.6749 94.5576 31.8987 94.7266 32.1738C94.899 32.4489 94.9852 32.7538 94.9852 33.0885C94.9852 33.5227 94.8691 33.8956 94.6371 34.2071C94.4084 34.5187 94.072 34.7573 93.6279 34.9231C93.1871 35.0888 92.6485 35.1716 92.0121 35.1716H88.2536ZM90.2273 33.5857H92.0121C92.3071 33.5857 92.5375 33.5161 92.7032 33.3769C92.8722 33.2344 92.9567 33.0405 92.9567 32.7952C92.9567 32.5234 92.8722 32.3097 92.7032 32.1539C92.5375 31.9981 92.3071 31.9202 92.0121 31.9202H90.2273V33.5857ZM90.2273 30.6773H91.5548C91.7669 30.6773 91.9475 30.6475 92.0967 30.5878C92.2491 30.5249 92.3651 30.4354 92.4447 30.3194C92.5275 30.2034 92.569 30.0658 92.569 29.9067C92.569 29.6714 92.4745 29.4874 92.2856 29.3549C92.0967 29.2223 91.8381 29.156 91.51 29.156H90.2273V30.6773ZM95.9223 29.2007V27.5353H102.843V29.2007H100.382V35.1716H98.3633V29.2007H95.9223ZM107.304 35.3208C106.531 35.3208 105.863 35.1567 105.3 34.8286C104.74 34.4972 104.307 34.0365 104.002 33.4465C103.697 32.8532 103.545 32.1655 103.545 31.3833C103.545 30.5945 103.697 29.9051 104.002 29.3151C104.307 28.7218 104.74 28.2611 105.3 27.933C105.863 27.6016 106.531 27.4358 107.304 27.4358C108.076 27.4358 108.742 27.6016 109.302 27.933C109.866 28.2611 110.3 28.7218 110.605 29.3151C110.91 29.9051 111.062 30.5945 111.062 31.3833C111.062 32.1655 110.91 32.8532 110.605 33.4465C110.3 34.0365 109.866 34.4972 109.302 34.8286C108.742 35.1567 108.076 35.3208 107.304 35.3208ZM107.313 33.6802C107.665 33.6802 107.958 33.5807 108.193 33.3819C108.429 33.1797 108.606 32.9046 108.725 32.5566C108.848 32.2086 108.909 31.8125 108.909 31.3684C108.909 30.9242 108.848 30.5282 108.725 30.1802C108.606 29.8321 108.429 29.557 108.193 29.3549C107.958 29.1527 107.665 29.0516 107.313 29.0516C106.959 29.0516 106.661 29.1527 106.419 29.3549C106.18 29.557 105.999 29.8321 105.877 30.1802C105.757 30.5282 105.698 30.9242 105.698 31.3684C105.698 31.8125 105.757 32.2086 105.877 32.5566C105.999 32.9046 106.18 33.1797 106.419 33.3819C106.661 33.5807 106.959 33.6802 107.313 33.6802ZM112.439 38.0353V27.5353H114.527V28.8179H114.622C114.714 28.6124 114.849 28.4036 115.024 28.1915C115.203 27.9761 115.435 27.7971 115.72 27.6546C116.009 27.5088 116.367 27.4358 116.794 27.4358C117.351 27.4358 117.865 27.5817 118.335 27.8733C118.806 28.1617 119.182 28.5975 119.464 29.1809C119.746 29.7609 119.887 30.4884 119.887 31.3634C119.887 32.2152 119.749 32.9344 119.474 33.5211C119.202 34.1044 118.831 34.5469 118.36 34.8485C117.893 35.1468 117.369 35.2959 116.789 35.2959C116.378 35.2959 116.029 35.228 115.74 35.0921C115.455 34.9562 115.222 34.7855 115.039 34.58C114.857 34.3712 114.718 34.1607 114.622 33.9486H114.557V38.0353H112.439ZM114.512 31.3534C114.512 31.8075 114.575 32.2036 114.701 32.5417C114.827 32.8797 115.009 33.1432 115.248 33.3321C115.487 33.5177 115.777 33.6106 116.118 33.6106C116.463 33.6106 116.755 33.5161 116.993 33.3272C117.232 33.1349 117.412 32.8698 117.535 32.5317C117.661 32.1903 117.724 31.7976 117.724 31.3534C117.724 30.9126 117.663 30.5249 117.54 30.1901C117.417 29.8553 117.237 29.5935 116.998 29.4046C116.759 29.2157 116.466 29.1212 116.118 29.1212C115.773 29.1212 115.482 29.2124 115.243 29.3946C115.008 29.5769 114.827 29.8355 114.701 30.1702C114.575 30.505 114.512 30.8994 114.512 31.3534ZM123.322 32.3776L126.071 27.5353H128.159V35.1716H126.141V30.3144L123.402 35.1716H121.299V27.5353H123.322V32.3776ZM129.09 29.2007V27.5353H136.011V29.2007H133.55V35.1716H131.531V29.2007H129.09ZM138.622 29.8819H140.904C141.915 29.8819 142.704 30.1238 143.27 30.6077C143.837 31.0883 144.121 31.7313 144.121 32.5367C144.121 33.0604 143.993 33.5211 143.738 33.9188C143.483 34.3132 143.115 34.6214 142.634 34.8435C142.154 35.0623 141.577 35.1716 140.904 35.1716H137.295V27.5353H139.318V33.5061H140.904C141.259 33.5061 141.55 33.4167 141.779 33.2377C142.008 33.0587 142.124 32.83 142.127 32.5516C142.124 32.2566 142.008 32.0163 141.779 31.8307C141.55 31.6418 141.259 31.5473 140.904 31.5473H138.622V29.8819Z" fill="black"/>
<defs>
<filter id="filter0_d_1213_229" x="0" y="0" width="171.246" height="70" filterUnits="userSpaceOnUse" color-interpolation-filters="sRGB">
<feFlood flood-opacity="0" result="BackgroundImageFix"/>
<feColorMatrix in="SourceAlpha" type="matrix" values="0 0 0 0 0 0 0 0 0 0 0 0 0 0 0 0 0 0 127 0" result="hardAlpha"/>
<feOffset dy="4"/>
<feGaussianBlur stdDeviation="5"/>
<feComposite in2="hardAlpha" operator="out"/>
<feColorMatrix type="matrix" values="0 0 0 0 0 0 0 0 0 0 0 0 0 0 0 0 0 0 0.15 0"/>
<feBlend mode="normal" in2="BackgroundImageFix" result="effect1_dropShadow_1213_229"/>
<feBlend mode="normal" in="SourceGraphic" in2="effect1_dropShadow_1213_229" result="shape"/>
</filter>
</defs>
</svg>
