<svg width="37" height="37" viewBox="0 0 37 37" fill="none" xmlns="http://www.w3.org/2000/svg">
<path d="M18.0198 4.46593C25.4525 4.46593 31.478 10.4914 31.478 17.9241C31.478 25.3567 25.4525 31.3822 18.0198 31.3822C10.5872 31.3822 4.56172 25.3567 4.56171 17.9241C4.56171 10.4914 10.5872 4.46593 18.0198 4.46593ZM18.0198 11.3012C14.3621 11.3012 11.3969 14.2664 11.3969 17.9241C11.397 21.5817 14.3622 24.547 18.0198 24.547C21.6775 24.547 24.6427 21.5817 24.6427 17.9241C24.6427 14.2664 21.6775 11.3012 18.0198 11.3012Z" fill="#ADAFB7"/>
<path d="M18.0198 14.4571C19.9345 14.4571 21.4867 16.0093 21.4867 17.9241C21.4867 19.8388 19.9345 21.391 18.0198 21.391C16.1051 21.391 14.5529 19.8388 14.5529 17.9241C14.5529 16.0093 16.1051 14.4571 18.0198 14.4571ZM18.0198 16.2179C17.0775 16.2179 16.3137 16.9818 16.3137 17.9241C16.3137 18.8663 17.0775 19.6302 18.0198 19.6302C18.962 19.6302 19.7259 18.8663 19.7259 17.9241C19.7259 16.9818 18.962 16.2179 18.0198 16.2179Z" fill="#ADAFB7"/>
<path d="M15.2521 1.39201C15.3373 0.600249 16.0056 1.52588e-05 16.8019 1.52588e-05H19.1244C19.9104 1.52588e-05 20.5734 0.585188 20.6711 1.36508L21.3429 6.72929C21.4583 7.65068 20.7475 8.46798 19.8191 8.48161L16.2419 8.53413C15.3059 8.54788 14.569 7.73942 14.6692 6.80874L15.2521 1.39201Z" fill="#ADAFB7"/>
<path d="M15.2521 34.6478C15.3373 35.4395 16.0056 36.0398 16.8019 36.0398H19.1244C19.9104 36.0398 20.5734 35.4546 20.6711 34.6747L21.3429 29.3105C21.4583 28.3891 20.7475 27.5718 19.8191 27.5582L16.2419 27.5056C15.3059 27.4919 14.569 28.3004 14.6692 29.231L15.2521 34.6478Z" fill="#ADAFB7"/>
<path d="M4.30509 8.21935C3.80548 7.59924 3.8536 6.70226 4.41669 6.13917L6.05892 4.49694C6.6147 3.94117 7.49731 3.88611 8.11784 4.36851L12.386 7.68654C13.1191 8.25646 13.1944 9.33693 12.5475 10.0031L10.0552 12.5697C9.40312 13.2412 8.31039 13.1907 7.72311 12.4617L4.30509 8.21935Z" fill="#ADAFB7"/>
<path d="M27.8205 31.7347C28.4406 32.2343 29.3375 32.1862 29.9006 31.6231L31.5429 29.9809C32.0986 29.4251 32.1537 28.5425 31.6713 27.922L28.3533 23.6538C27.7834 22.9207 26.7029 22.8454 26.0367 23.4923L23.4701 25.9846C22.7986 26.6367 22.8492 27.7294 23.5781 28.3167L27.8205 31.7347Z" fill="#ADAFB7"/>
<path d="M1.39199 20.7877C0.600233 20.7025 -2.94077e-08 20.0342 -4.6812e-08 19.2379L-9.75711e-08 16.9154C-1.14749e-07 16.1294 0.585173 15.4664 1.36507 15.3687L6.72928 14.6969C7.65066 14.5815 8.46796 15.2922 8.48159 16.2207L8.53412 19.7979C8.54786 20.7339 7.73941 21.4708 6.80873 21.3706L1.39199 20.7877Z" fill="#ADAFB7"/>
<path d="M34.6478 20.7877C35.4396 20.7025 36.0398 20.0342 36.0398 19.2379L36.0398 16.9154C36.0398 16.1295 35.4546 15.4664 34.6747 15.3688L29.3105 14.6969C28.3891 14.5815 27.5718 15.2923 27.5582 16.2207L27.5057 19.7979C27.4919 20.7339 28.3004 21.4708 29.2311 21.3706L34.6478 20.7877Z" fill="#ADAFB7"/>
<path d="M8.21934 31.7347C7.59923 32.2343 6.70225 32.1862 6.13916 31.6231L4.49693 29.9809C3.94115 29.4251 3.8861 28.5425 4.3685 27.922L7.68652 23.6538C8.25644 22.9207 9.33692 22.8454 10.0031 23.4923L12.5697 25.9846C13.2412 26.6367 13.1906 27.7294 12.4617 28.3167L8.21934 31.7347Z" fill="#ADAFB7"/>
<path d="M31.7347 8.21935C32.2343 7.59924 32.1862 6.70226 31.6231 6.13917L29.9809 4.49694C29.4251 3.94117 28.5425 3.88611 27.9219 4.36851L23.6538 7.68654C22.9207 8.25646 22.8454 9.33693 23.4923 10.0031L25.9846 12.5697C26.6367 13.2412 27.7294 13.1907 28.3167 12.4617L31.7347 8.21935Z" fill="#ADAFB7"/>
</svg>
