<svg width="82" height="104" viewBox="0 0 82 104" fill="none" xmlns="http://www.w3.org/2000/svg">
<path d="M80.0543 103.382C80.6053 103.42 81.0824 103.003 81.12 102.452C81.1576 101.901 80.7414 101.424 80.1904 101.387L80.1223 102.384L80.0543 103.382ZM8.07088 0.292893C7.68035 -0.0976311 7.04719 -0.0976311 6.65666 0.292893L0.292702 6.65685C-0.0978227 7.04738 -0.0978227 7.68054 0.292702 8.07107C0.683226 8.46159 1.31639 8.46159 1.70692 8.07107L7.36377 2.41421L13.0206 8.07107C13.4111 8.46159 14.0443 8.46159 14.4348 8.07107C14.8254 7.68054 14.8254 7.04738 14.4348 6.65685L8.07088 0.292893ZM80.1223 102.384L80.1904 101.387C49.8695 99.3183 8.36377 66.6025 8.36377 1H7.36377H6.36377C6.36377 67.4818 48.5204 101.231 80.0543 103.382L80.1223 102.384Z" fill="#151515"/>
</svg>
