<svg width="56" height="56" viewBox="0 0 56 56" fill="none" xmlns="http://www.w3.org/2000/svg">
<circle cx="27.8691" cy="27.8691" r="27.8691" transform="matrix(-1 0 0 1 55.7383 0)" fill="#83A8F1"/>
<path d="M19.1967 32.6337C17.9731 31.7014 15.6893 29.8395 15.6893 26.2963C15.6893 22.631 19.0572 20.5283 21.6877 20.5283C23.0862 20.5283 28.4761 20.5283 30.9962 20.5283" stroke="black" stroke-width="3" stroke-linecap="round"/>
<path d="M36.5416 22.0945C37.7653 23.0268 40.049 24.8888 40.049 28.432C40.049 32.0973 36.6811 34.2 34.0506 34.2C32.6522 34.2 27.2623 34.2 24.7421 34.2" stroke="black" stroke-width="3" stroke-linecap="round"/>
<path d="M28.0231 16.6536C28.0231 16.6536 32.0539 20.0862 32.0539 20.6844C32.0539 21.2827 28.0231 24.7153 28.0231 24.7153" stroke="black" stroke-width="3" stroke-linecap="round"/>
<path d="M27.7154 38.0747C27.7154 38.0747 23.6846 34.6421 23.6846 34.0438C23.6846 33.4456 27.7154 30.013 27.7154 30.013" stroke="black" stroke-width="3" stroke-linecap="round"/>
</svg>
