<svg width="147" height="53" viewBox="0 0 147 53" fill="none" xmlns="http://www.w3.org/2000/svg">
<path d="M0 4.19456C0 1.87797 1.87797 0 4.19456 0H74.751C77.0676 0 78.9456 1.87797 78.9456 4.19456V36.8122C78.9456 39.1288 77.0676 41.0067 74.751 41.0067H4.19456C1.87797 41.0067 0 39.1288 0 36.8122V4.19456Z" fill="#559D53"/>
<path d="M67.2999 9.35025C67.2999 7.03366 69.1779 5.15569 71.4945 5.15569H142.051C144.368 5.15569 146.246 7.03365 146.246 9.35024V41.9679C146.246 44.2844 144.368 46.1624 142.051 46.1624H71.4945C69.1779 46.1624 67.2999 44.2844 67.2999 41.9679V9.35025Z" fill="#F03F3F"/>
<path d="M57.5087 28.3855C55.1178 28.3855 53.3561 27.8402 52.2236 26.7496C51.105 25.6451 50.5458 24.198 50.5458 22.4083C50.5458 20.6605 51.105 19.2414 52.2236 18.1508C53.3561 17.0602 55.1178 16.5149 57.5087 16.5149C59.1166 16.5149 60.4589 16.7806 61.5355 17.3119C62.6261 17.8292 63.43 18.5353 63.9474 19.4301C64.4647 20.311 64.7234 21.3037 64.7234 22.4083C64.7234 24.2119 64.1221 25.6591 62.9197 26.7496C61.7312 27.8402 59.9276 28.3855 57.5087 28.3855ZM57.5926 24.8201C58.5014 24.8201 59.1796 24.6034 59.627 24.17C60.0744 23.7366 60.2981 23.1563 60.2981 22.4292C60.2981 21.7441 60.0744 21.1849 59.627 20.7514C59.1796 20.304 58.5014 20.0803 57.5926 20.0803C56.6838 20.0803 56.0197 20.297 55.6002 20.7305C55.1807 21.1639 54.971 21.7302 54.971 22.4292C54.971 23.1563 55.1807 23.7366 55.6002 24.17C56.0197 24.6034 56.6838 24.8201 57.5926 24.8201Z" fill="white"/>
<path d="M49.0482 19.7867C49.0342 20.6256 49.0272 21.9119 49.0272 23.6457C49.0272 25.729 49.0412 27.239 49.0691 28.1758H44.1196L44.1405 25.8059C44.1685 23.2052 44.1825 21.1988 44.1825 19.7867C44.1825 18.4444 44.1685 16.5429 44.1405 14.0821L44.1196 11.817H49.0691C49.0412 13.8024 49.0272 15.4243 49.0272 16.6827C49.0272 18.0809 49.0342 19.1155 49.0482 19.7867Z" fill="white"/>
<path d="M42.0179 24.6943C42.0179 25.1697 42.0738 25.5053 42.1857 25.701C42.2975 25.8967 42.5212 26.0366 42.8568 26.1205L42.7729 28.0919C42.3255 28.1618 41.934 28.2107 41.5984 28.2387C41.2768 28.2667 40.8434 28.2807 40.2981 28.2807C39.0957 28.2807 38.2987 28.015 37.9072 27.4837C37.5157 26.9384 37.32 26.2463 37.32 25.4074V24.8831C36.9145 26.0296 36.3203 26.8825 35.5373 27.4417C34.7683 28.001 33.7826 28.2807 32.5801 28.2807C31.1819 28.2807 30.1263 28.001 29.4132 27.4417C28.7141 26.8825 28.3646 26.0505 28.3646 24.946C28.3646 24.0372 28.6652 23.3241 29.2664 22.8068C29.8676 22.2894 30.7974 21.9329 32.0558 21.7371C30.9932 20.9821 29.9306 20.325 28.8679 19.7657C29.7069 18.7031 30.6646 17.8991 31.7412 17.3538C32.8178 16.7946 34.1251 16.5149 35.6631 16.5149C37.8163 16.5149 39.4103 16.9833 40.4449 17.9201C41.4936 18.8429 42.0179 20.2691 42.0179 22.1985V24.6943ZM36.1035 20.2061C35.3905 20.2061 34.7613 20.325 34.216 20.5627C33.6707 20.8004 33.1813 21.1569 32.7479 21.6323C33.5868 21.5344 34.6355 21.4855 35.8938 21.4855C36.4112 21.4855 36.7747 21.4226 36.9844 21.2967C37.1941 21.1709 37.299 21.0101 37.299 20.8143C37.299 20.6466 37.1941 20.5067 36.9844 20.3949C36.7747 20.2691 36.4811 20.2061 36.1035 20.2061ZM33.9014 24.8621C34.6844 24.8621 35.3905 24.7153 36.0197 24.4217C36.6488 24.1141 37.0823 23.7156 37.32 23.2262V22.6809C36.9844 22.8487 36.6139 22.9815 36.2084 23.0794C35.8029 23.1633 35.3136 23.2472 34.7403 23.3311L33.9853 23.4569C33.2023 23.6107 32.8108 23.8764 32.8108 24.2539C32.8108 24.6594 33.1744 24.8621 33.9014 24.8621Z" fill="white"/>
<path d="M26.8891 16.8714H15.4799V19.0736C16.193 19.0876 17.2626 19.0946 18.6888 19.0946C21.1496 19.0946 23.6523 19.0526 26.197 18.9687V23.0794C23.6523 22.9815 20.9678 22.9326 18.1435 22.9326C16.969 22.9326 16.0812 22.9396 15.4799 22.9536V28.1758H10.5304C10.6422 25.4633 10.6981 22.9256 10.6981 20.5627C10.6981 18.1997 10.6422 15.662 10.5304 12.9495H26.8891V16.8714Z" fill="white"/>
<path d="M132.986 33.5412C130.595 33.5412 128.833 32.9959 127.7 31.9053C126.582 30.8008 126.023 29.3536 126.023 27.564C126.023 25.8162 126.582 24.3971 127.7 23.3065C128.833 22.2159 130.595 21.6706 132.986 21.6706C134.594 21.6706 135.936 21.9363 137.012 22.4676C138.103 22.9849 138.907 23.691 139.424 24.5858C139.942 25.4667 140.2 26.4594 140.2 27.564C140.2 29.3676 139.599 30.8147 138.397 31.9053C137.208 32.9959 135.404 33.5412 132.986 33.5412ZM133.069 29.9758C133.978 29.9758 134.656 29.7591 135.104 29.3257C135.551 28.8922 135.775 28.312 135.775 27.5849C135.775 26.8998 135.551 26.3405 135.104 25.9071C134.656 25.4597 133.978 25.236 133.069 25.236C132.161 25.236 131.497 25.4527 131.077 25.8861C130.658 26.3196 130.448 26.8858 130.448 27.5849C130.448 28.312 130.658 28.8922 131.077 29.3257C131.497 29.7591 132.161 29.9758 133.069 29.9758Z" fill="#ECF700"/>
<path d="M119.629 24.9843C120.216 22.873 121.677 21.8174 124.012 21.8174C124.417 21.8174 124.809 21.8454 125.186 21.9013L124.515 26.5992C123.509 26.2217 122.684 26.0329 122.04 26.0329C121.243 26.0329 120.656 26.2706 120.279 26.746C119.901 27.2214 119.712 27.8576 119.712 28.6545V28.6336L119.691 30.0178C119.691 31.0105 119.719 32.115 119.775 33.3315H114.763C114.875 31.3181 114.931 29.4166 114.931 27.6269C114.931 25.8372 114.875 23.9217 114.763 21.8803C115.686 21.9223 116.392 21.9432 116.881 21.9432C117.398 21.9432 118.105 21.9223 118.999 21.8803L119.629 24.9843Z" fill="#ECF700"/>
<path d="M112.661 29.85C112.661 30.3254 112.717 30.6609 112.829 30.8567C112.941 31.0524 113.165 31.1923 113.5 31.2761L113.416 33.2476C112.969 33.3175 112.577 33.3664 112.242 33.3944C111.92 33.4224 111.487 33.4363 110.941 33.4363C109.739 33.4363 108.942 33.1707 108.551 32.6394C108.159 32.0941 107.963 31.402 107.963 30.5631V30.0388C107.558 31.1853 106.964 32.0382 106.181 32.5974C105.412 33.1567 104.426 33.4363 103.223 33.4363C101.825 33.4363 100.77 33.1567 100.057 32.5974C99.3575 32.0382 99.0079 31.2062 99.0079 30.1017C99.0079 29.1928 99.3085 28.4798 99.9097 27.9624C100.511 27.4451 101.441 27.0886 102.699 26.8928C101.636 26.1378 100.574 25.4807 99.5112 24.9214C100.35 23.8588 101.308 23.0548 102.385 22.5095C103.461 21.9502 104.768 21.6706 106.306 21.6706C108.46 21.6706 110.054 22.139 111.088 23.0758C112.137 23.9986 112.661 25.4247 112.661 27.3542V29.85ZM106.747 25.3618C106.034 25.3618 105.405 25.4807 104.859 25.7184C104.314 25.956 103.825 26.3126 103.391 26.788C104.23 26.6901 105.279 26.6412 106.537 26.6412C107.054 26.6412 107.418 26.5782 107.628 26.4524C107.837 26.3266 107.942 26.1658 107.942 25.97C107.942 25.8022 107.837 25.6624 107.628 25.5506C107.418 25.4247 107.124 25.3618 106.747 25.3618ZM104.545 30.0178C105.328 30.0178 106.034 29.871 106.663 29.5773C107.292 29.2697 107.726 28.8713 107.963 28.3819V27.8366C107.628 28.0044 107.257 28.1372 106.852 28.2351C106.446 28.319 105.957 28.4029 105.384 28.4868L104.629 28.6126C103.846 28.7664 103.454 29.0321 103.454 29.4096C103.454 29.815 103.818 30.0178 104.545 30.0178Z" fill="#ECF700"/>
<path d="M97.5103 24.9424C97.4963 25.7813 97.4893 27.0676 97.4893 28.8014C97.4893 30.8846 97.5033 32.3947 97.5313 33.3315H92.5817L92.6027 30.9615C92.6306 28.3609 92.6446 26.3545 92.6446 24.9424C92.6446 23.6001 92.6306 21.6986 92.6027 19.2378L92.5817 16.9727H97.5313C97.5033 18.9581 97.4893 20.58 97.4893 21.8384C97.4893 23.2366 97.4963 24.2712 97.5103 24.9424Z" fill="#ECF700"/>
<path d="M82.0249 33.5412C78.865 33.5412 76.537 32.8701 75.0409 31.5278C73.5449 30.1856 72.7968 28.27 72.7968 25.7813C72.7968 23.2785 73.5449 21.3001 75.0409 19.846C76.537 18.3919 78.865 17.6648 82.0249 17.6648C86.4431 17.6648 89.4003 19.1818 90.8963 22.2159C89.638 22.6493 88.1629 23.2995 86.4711 24.1664C86.0656 23.3834 85.4224 22.8031 84.5416 22.4256C83.6747 22.0481 82.7869 21.8594 81.878 21.8594C80.5358 21.8594 79.5361 22.2159 78.8789 22.929C78.2218 23.6281 77.8932 24.4949 77.8932 25.5296C77.8932 26.6481 78.2428 27.564 78.9419 28.277C79.6549 28.9761 80.7385 29.3257 82.1926 29.3257C83.3531 29.3257 84.2759 29.1369 84.961 28.7594C85.6462 28.3679 86.1495 27.7527 86.4711 26.9138C87.6176 27.529 89.0857 28.2211 90.8754 28.9901C90.1763 30.6819 89.0088 31.8634 87.3729 32.5345C85.737 33.2056 83.9543 33.5412 82.0249 33.5412Z" fill="#ECF700"/>
<path d="M138.136 51.592L145.048 44.8995L136.629 45.6967V51.592C136.629 52.5499 137.451 52.3842 138.136 51.592Z" fill="#D60000"/>
<path d="M8.18505 46.5154L1.27295 39.8229L9.69144 40.6201V46.5154C9.69144 47.4733 8.86954 47.3076 8.18505 46.5154Z" fill="#1A7117"/>
</svg>
