<svg width="89" height="89" viewBox="0 0 89 89" fill="none" xmlns="http://www.w3.org/2000/svg">
<circle cx="44.3795" cy="44.3795" r="42.8795" fill="white" stroke="#CDCDCD" stroke-width="3"/>
<path d="M48.5054 42.6475C49.8387 43.4173 49.8387 45.3418 48.5054 46.1116L30.1279 56.7218C28.7946 57.4916 27.1279 56.5294 27.1279 54.9898L27.1279 33.7693C27.1279 32.2297 28.7946 31.2674 30.1279 32.0372L48.5054 42.6475Z" fill="#171717"/>
<path d="M63.7568 42.6475C65.0902 43.4173 65.0902 45.3418 63.7568 46.1116L45.3794 56.7218C44.046 57.4916 42.3794 56.5294 42.3794 54.9898L42.3794 33.7693C42.3794 32.2297 44.046 31.2674 45.3794 32.0372L63.7568 42.6475Z" fill="white"/>
<path d="M65.7568 42.6475C67.0902 43.4173 67.0902 45.3418 65.7568 46.1116L47.3794 56.7218C46.046 57.4916 44.3794 56.5294 44.3794 54.9898L44.3794 33.7693C44.3794 32.2297 46.046 31.2674 47.3794 32.0372L65.7568 42.6475Z" fill="#171717"/>
</svg>
